<svg xmlns="http://www.w3.org/2000/svg" viewBox="0 0 292.48 253"><defs><style>.cls-1,.cls-3,.cls-4{fill:none;stroke-miterlimit:10;}.cls-1{stroke:#ed1c24;stroke-width:4px;}.cls-2{fill:#2e3192;}.cls-3,.cls-4{stroke:#fff;}.cls-3{stroke-width:7px;}.cls-4{stroke-width:2px;}</style></defs><title>help center button</title><g id="Layer_2" data-name="Layer 2"><g id="Layer_6" data-name="Layer 6"><polygon class="cls-1" points="74.29 251 2.31 126.5 74.29 2 218.19 2 290.17 126.5 218.19 251 74.29 251"/><polygon class="cls-2" points="85.83 227 25.41 122.5 85.83 18 206.65 18 267.06 122.5 206.65 227 85.83 227"/><circle class="cls-3" cx="146.24" cy="124.5" r="55.78"/><path class="cls-4" d="M124.37,72.73c1.7,1.64,3.24,3.15,3.44,5.5.18,2.1-.89,2.21-1.61,3.89-1.09,2.54.09,5.81.81,8.07-1.16,1.77-5.45,1.92-7.22,3.84a18.26,18.26,0,0,0-3.15,6c-1,2.79.25,3.71.7,6.17s-2.26,3.16-3.27,5.22c-.9,1.84-1.78,5.3-1.16,7.37.75,2.52,4.6,3.76,6.35,5.55s3.41,3.09,3.9,3.77c1.57,2.18,5.25,7.33,5.25,10.16-3.87.95-8.83,1.2-11.54-2.34-1.15-1.51-1-3.33-1.64-5-.71-1.87-2.86-4.39-4.19-5.9-2.49-2.84-6.54.23-9.28-2.62-.29-.3-1-2.12-1.24-2.2-1.09-.33-1.76,1.67-2.54,2.2-1.3.88-4.56,1.33-5.21-.41-1.6.54-.72,2.48-2.06,2.75"/><path class="cls-4" d="M195.61,104.57c.61,4.55,1.64,6.51-3.59,8.48-4.47,1.68-9.44,1.92-14.16,2.11-5,.21-18.32-1.39-20.52,4.71-.77,2.15.1,4-1.13,6-1.44,2.32-2.33,3.19-2.06,6.18.74,8.4,10.17,9.38,14,15.58,1.31,2.13,3.57,4.26,3.43,6.86-.1,1.81-1.2,3.5-.65,5.49.69,2.51,2.15,2.94,2,5.74-.11,2.29-.69,4.18,1,5.93a2.57,2.57,0,0,0,1.1-.43"/></g></g></svg>