<svg xmlns="http://www.w3.org/2000/svg" viewBox="0 0 292.47 253"><defs><style>.cls-1,.cls-3,.cls-4{fill:none;stroke-miterlimit:10;}.cls-1{stroke:#2e3192;stroke-width:4px;}.cls-2{fill:#fff;}.cls-3,.cls-4{stroke:#ed1c24;}.cls-3{stroke-width:7px;}.cls-4{stroke-width:3px;}</style></defs><title>introducing broker application rollover</title><g id="Layer_2" data-name="Layer 2"><g id="Layer_1-2" data-name="Layer 1"><polygon class="cls-1" points="74.29 251 2.31 126.5 74.29 2 218.19 2 290.17 126.5 218.19 251 74.29 251"/><polygon class="cls-2" points="85.83 227.5 25.41 123 85.83 18.5 206.65 18.5 267.06 123 206.65 227.5 85.83 227.5"/><path class="cls-3" d="M100.07,68.07v85a6,6,0,0,0,6,6h84.76"/><line class="cls-4" x1="100.07" y1="80.5" x2="91.07" y2="80.5"/><line class="cls-4" x1="100.07" y1="86.5" x2="91.07" y2="86.5"/><line class="cls-4" x1="100.07" y1="92.5" x2="91.07" y2="92.5"/><line class="cls-4" x1="100.07" y1="99.5" x2="91.07" y2="99.5"/><line class="cls-4" x1="100.07" y1="105.5" x2="91.07" y2="105.5"/><line class="cls-4" x1="100.07" y1="111.5" x2="91.07" y2="111.5"/><line class="cls-4" x1="100.07" y1="117.5" x2="91.07" y2="117.5"/><line class="cls-4" x1="100.07" y1="123.5" x2="91.07" y2="123.5"/><line class="cls-4" x1="100.07" y1="129.5" x2="91.07" y2="129.5"/><line class="cls-4" x1="100.07" y1="136.5" x2="91.07" y2="136.5"/><line class="cls-4" x1="100.07" y1="142.5" x2="91.07" y2="142.5"/><line class="cls-4" x1="100.07" y1="148.5" x2="91.07" y2="148.5"/><line class="cls-3" x1="112.57" y1="148" x2="112.57" y2="132"/><line class="cls-3" x1="129.57" y1="148" x2="129.57" y2="117"/><line class="cls-3" x1="147.57" y1="148" x2="147.57" y2="104"/><line class="cls-3" x1="163.57" y1="148" x2="163.57" y2="91"/></g></g></svg>