<svg xmlns="http://www.w3.org/2000/svg" viewBox="0 0 292.48 253"><defs><style>.cls-1,.cls-4{fill:none;stroke-miterlimit:10;}.cls-1{stroke:#2e3192;stroke-width:4px;}.cls-2{fill:#fff;}.cls-3{fill:#ed1c24;}.cls-4{stroke:#ed1c24;stroke-width:7px;}</style></defs><title>open account rollover_1</title><g id="Layer_2" data-name="Layer 2"><g id="Layer_1-2" data-name="Layer 1"><polygon class="cls-1" points="74.28 251 2.31 126.5 74.28 2 218.19 2 290.17 126.5 218.19 251 74.28 251"/><polygon class="cls-2" points="85.83 227 25.41 122.5 85.83 18 206.65 18 267.06 122.5 206.65 227 85.83 227"/><path class="cls-3" d="M158.4,148.91l-24.57.09h-1.07c-.72,0-1-.74-1-1.46v-1.31a1.2,1.2,0,0,1,1.17-1.31l25.46,0A3.32,3.32,0,0,1,158.4,148.91Z"/><path class="cls-3" d="M171.52,149H158.25a11.19,11.19,0,0,0,.12-4h13.16a1.17,1.17,0,0,1,1.21,1.23v1.31A1.38,1.38,0,0,1,171.52,149Z"/><rect class="cls-3" x="159.74" y="144" width="2" height="6" rx="0.53" ry="0.53"/><rect class="cls-3" x="163.74" y="145" width="3" height="12" rx="1.06" ry="1.06"/><path class="cls-3" d="M171.74,149.5a.5.5,0,0,1-.5.5h0a.5.5,0,0,1-.5-.5v-5a.5.5,0,0,1,.5-.5h0a.5.5,0,0,1,.5.5Z"/><path class="cls-3" d="M133.5,146.85a4.4,4.4,0,0,0-4.39-4.39,4.39,4.39,0,0,0-8.79,0,4.39,4.39,0,0,0,0,8.79,4.39,4.39,0,0,0,8.79,0A4.39,4.39,0,0,0,133.5,146.85Zm-7.22,1.73a1.57,1.57,0,0,1-3.14,0v-.17H123a1.57,1.57,0,1,1,0-3.14h.17v-.17a1.57,1.57,0,0,1,3.14,0,.81.81,0,0,1,0,.17h.17a1.57,1.57,0,0,1,0,3.14h-.17A.81.81,0,0,1,126.29,148.58Z"/><path class="cls-2" d="M127.47,149.88a2.75,2.75,0,0,1-5.5,0l0-.3-.3,0a2.75,2.75,0,1,1,0-5.5l.3,0,0-.3a2.75,2.75,0,0,1,5.5,0,1.42,1.42,0,0,1,0,.29h.29a2.75,2.75,0,1,1,0,5.5h-.29A1.42,1.42,0,0,1,127.47,149.88Z"/><rect class="cls-4" x="105.24" y="76.5" width="82" height="101" rx="6" ry="6"/><path class="cls-3" d="M116.4,95.5h59a1.5,1.5,0,0,0,0-3h-59a1.5,1.5,0,0,0,0,3Z"/><path class="cls-3" d="M116.4,103.75h59a1.5,1.5,0,0,0,0-3h-59a1.5,1.5,0,0,0,0,3Z"/><path class="cls-3" d="M116.4,112h59a1.5,1.5,0,0,0,0-3h-59a1.5,1.5,0,0,0,0,3Z"/><path class="cls-3" d="M116.4,120.25h59a1.5,1.5,0,0,0,0-3h-59a1.5,1.5,0,0,0,0,3Z"/></g></g></svg>