<!-- Generator: Adobe Illustrator 21.0.0, SVG Export Plug-In  -->
<svg version="1.1"
	 xmlns="http://www.w3.org/2000/svg" xmlns:xlink="http://www.w3.org/1999/xlink" xmlns:a="http://ns.adobe.com/AdobeSVGViewerExtensions/3.0/"
	 x="0px" y="0px" width="877px" height="367px" viewBox="0 0 877 367" style="enable-background:new 0 0 877 367;"
	 xml:space="preserve">
<style type="text/css">
	.st0{fill:none;}
	.st1{fill:#ED1C24;}
	.st2{opacity:0.6;}
	.st3{fill:none;stroke:#ED1C24;stroke-width:20;stroke-miterlimit:10;}
	.st4{fill:none;stroke:#ED1C24;stroke-width:20;stroke-miterlimit:10;stroke-dasharray:270,43;}
	.st5{opacity:0.8;}
	.st6{fill:#FFFFFF;}
	.st7{opacity:0.8;fill:none;stroke:#FFFFFF;stroke-width:5;stroke-miterlimit:10;}
	.st8{font-family:'Mont-HeavyDEMO';}
	.st9{font-size:53.9996px;}
	.st10{letter-spacing:2;}
	.st11{letter-spacing:1;}
	.st12{font-size:42px;}
</style>
<defs>
</defs>
<g>
	<rect x="220.171" y="66.333" class="st0" width="404.829" height="102.667"/>
	<path class="st1" d="M253.923,81.879c0,7.927-5.97,13.703-14.004,13.703h-5.657v10.44h-10.437V68.222h16.094
		C247.953,68.222,253.923,73.953,253.923,81.879z M243.218,81.902c0-2.687-1.807-4.587-4.548-4.587h-4.408v9.174h4.408
		C241.411,86.489,243.218,84.589,243.218,81.902z"/>
	<path class="st1" d="M281.263,99.883h-13.398l-2.094,6.139h-11.16l14.849-37.801h10.18l15.174,37.801h-11.468L281.263,99.883z
		 M274.543,80.021l-4.142,11.713h8.321L274.543,80.021z"/>
	<path class="st1" d="M315.341,94.457h-3.776v11.566h-10.414V68.222h16.384c8.149,0,14.056,5.476,14.056,13.378
		c0,4.639-2.266,8.439-6,10.675l7.506,13.748h-11.623L315.341,94.457z M311.565,85.684h4.757c2.911,0,4.587-1.753,4.587-4.116
		s-1.676-4.092-4.587-4.092h-4.757V85.684z"/>
	<path class="st1" d="M367.892,77.599h-10.269v28.424h-10.459V77.599h-10.269v-9.377h30.997V77.599z"/>
	<path class="st1" d="M408.958,68.222v37.801h-8.612l-15.017-20.514v20.514h-10.092V68.222h9.115l14.515,19.832V68.222H408.958z"/>
	<path class="st1" d="M443.621,96.99v9.033h-24.644V68.222h24.188v9.002h-13.82v5.565h12.416v8.542h-12.416v5.659H443.621z"/>
	<path class="st1" d="M466.483,94.457h-3.775v11.566h-10.414V68.222h16.384c8.149,0,14.057,5.476,14.057,13.378
		c0,4.639-2.266,8.439-6,10.675l7.506,13.748h-11.623L466.483,94.457z M462.708,85.684h4.757c2.911,0,4.587-1.753,4.587-4.116
		s-1.676-4.092-4.587-4.092h-4.757V85.684z"/>
	<path class="st1" d="M489.552,93.816h10.743c0,2.7,2.083,4.015,4.458,4.015c2.181,0,4.264-1.161,4.264-3.226
		c0-2.371-2.942-3.059-6.54-3.931c-5.464-1.358-12.438-3.032-12.438-11.638c0-7.444,5.469-11.708,14.383-11.708
		c9.063,0,14.259,4.652,14.259,12.343h-10.443c0-2.391-1.782-3.512-3.94-3.512c-1.855,0-3.638,0.803-3.638,2.567
		c0,2.147,2.849,2.857,6.408,3.752c5.563,1.436,12.839,3.294,12.839,11.926c0,8.256-6.344,12.541-15.122,12.541
		C495.531,106.947,489.552,102.056,489.552,93.816z"/>
	<path class="st1" d="M560.41,68.222v37.801h-10.506V91.511h-11.344v14.511h-10.506V68.222h10.506V81.86h11.344V68.222H560.41z"/>
	<path class="st1" d="M570.391,68.222h10.552v37.801h-10.552V68.222z"/>
	<path class="st1" d="M621.063,81.879c0,7.927-5.97,13.703-14.004,13.703h-5.657v10.44h-10.438V68.222h16.095
		C615.093,68.222,621.063,73.953,621.063,81.879z M610.357,81.902c0-2.687-1.807-4.587-4.548-4.587h-4.408v9.174h4.408
		C608.551,86.489,610.357,84.589,610.357,81.902z"/>
</g>
<g class="st2">
	<g>
		<polyline class="st3" points="617,10 867,10 867,357 617,357 		"/>
		<line class="st4" x1="574" y1="357" x2="282" y2="357"/>
		<polyline class="st3" points="260,357 10,357 10,10 260,10 		"/>
		<line class="st4" x1="303" y1="10" x2="595" y2="10"/>
	</g>
</g>
<g class="st5">
	<rect x="340.097" y="266.505" class="st0" width="524.354" height="100.495"/>
	<path class="st6" d="M361.612,289.956v7.418h-18.673v-29.405h8.208v21.987H361.612z"/>
	<path class="st6" d="M375.513,275.299v4.68h9.449v7.091h-9.449v10.304h-8.172v-29.405h18.714v7.33H375.513z"/>
	<path class="st6" d="M421.805,281.659c0,9.622-6.282,16.458-15.49,16.458c-9.01,0-15.665-6.476-15.665-15.422
		s6.534-15.47,15.593-15.47c7.708,0,14.013,4.824,15.256,11.657h-8.489c-1.064-2.477-3.695-4.069-6.694-4.069
		c-4.404,0-7.373,3.185-7.373,7.883c0,4.65,2.92,7.835,7.373,7.835c3.092,0,5.743-1.497,6.667-3.764h-7.303v-5.107L421.805,281.659z
		"/>
	<path class="st6" d="M456.076,292.598h-10.423l-1.629,4.776h-8.681l11.551-29.405h7.919l11.804,29.405h-8.921L456.076,292.598z
		 M450.849,277.147l-3.223,9.112h6.474L450.849,277.147z"/>
	<path class="st6" d="M468.895,287.879h8.357c0,2.101,1.62,3.123,3.468,3.123c1.696,0,3.317-0.903,3.317-2.509
		c0-1.844-2.289-2.379-5.088-3.058c-4.251-1.057-9.677-2.359-9.677-9.053c0-5.791,4.255-9.108,11.188-9.108
		c7.05,0,11.093,3.619,11.093,9.602h-8.124c0-1.859-1.387-2.731-3.065-2.731c-1.443,0-2.83,0.625-2.83,1.998
		c0,1.67,2.217,2.222,4.985,2.918c4.328,1.117,9.987,2.563,9.987,9.277c0,6.422-4.935,9.756-11.764,9.756
		C473.546,298.093,468.895,294.289,468.895,287.879z"/>
	<path class="st6" d="M498.843,267.969h8.208v29.405h-8.208V267.969z"/>
	<path class="st6" d="M532.727,292.598h-10.423l-1.629,4.776h-8.682l11.551-29.405h7.919l11.804,29.405h-8.92L532.727,292.598z
		 M527.498,277.147l-3.222,9.112h6.473L527.498,277.147z"/>
</g>
<line class="st7" x1="36" y1="284.5" x2="284" y2="284.5"/>
<line class="st7" x1="591" y1="284.5" x2="839" y2="284.5"/>
</svg>