<!-- Generator: Adobe Illustrator 21.0.0, SVG Export Plug-In  -->
<svg version="1.1"
	 xmlns="http://www.w3.org/2000/svg" xmlns:xlink="http://www.w3.org/1999/xlink" xmlns:a="http://ns.adobe.com/AdobeSVGViewerExtensions/3.0/"
	 x="0px" y="0px" width="680px" height="990px" viewBox="0 0 680 990" style="enable-background:new 0 0 680 990;"
	 xml:space="preserve">
<style type="text/css">
	.st0{fill:#F2F2F2;}
	.st1{fill:none;}
	.st2{fill:#FFFFFF;stroke:#000000;stroke-width:2;stroke-miterlimit:10;}
	.st3{fill:#808080;}
	.st4{font-family:'Mont-HeavyDEMO';}
	.st5{font-size:25px;}
	.st6{font-family:'Mont-ExtraLightDEMO';}
	.st7{font-size:22px;}
</style>
<defs>
</defs>
<g>
	<g>
		<path class="st0" d="M680,980c0,5.523-4.477,10-10,10H10c-5.523,0-10-4.477-10-10V10C0,4.477,4.477,0,10,0h660
			c5.523,0,10,4.477,10,10V980z"/>
	</g>
	<g>
		<g>
			<rect x="85.208" y="53.5" class="st1" width="78.239" height="21"/>
			<path d="M102.507,54.379v17.496h-3.986l-6.95-9.495v9.495h-4.671V54.379h4.219l6.718,9.179v-9.179H102.507z"/>
			<path d="M120.487,58.364V71.86h-3.595l-0.397-0.955c-1.105,0.895-2.505,1.411-4.073,1.411c-4.127,0-7.076-3.011-7.076-7.205
				c0-4.18,2.949-7.155,7.076-7.155c1.59,0,3.01,0.531,4.124,1.451l0.476-1.044L120.487,58.364z M116.065,65.123
				c0-1.752-1.28-3.068-3.021-3.068c-1.752,0-3.021,1.316-3.021,3.068c0,1.762,1.28,3.078,3.021,3.078
				S116.065,66.885,116.065,65.123z"/>
			<path d="M144.774,63.409v8.465h-4.649v-7.89c0-1.41-0.519-2.09-1.507-2.09c-1.277,0-1.933,0.88-1.933,2.58v7.4h-4.527v-7.89
				c0-1.367-0.516-2.09-1.488-2.09c-1.261,0-1.951,0.901-1.951,2.58v7.4h-4.649V58.378h3.27l0.662,1.45
				c0.975-1.136,2.391-1.85,3.945-1.85c1.645,0,3.03,0.739,3.87,1.987c0.97-1.221,2.465-1.987,4.146-1.987
				C142.853,57.979,144.774,60.231,144.774,63.409z"/>
			<path d="M162.102,64.999c0,0.407-0.035,0.813-0.096,1.231h-10.021c0.304,1.548,1.287,2.349,2.755,2.349
				c1.086,0,1.993-0.476,2.44-1.266h4.626c-0.949,3.08-3.68,5.005-7.066,5.005c-4.211,0-7.331-3.078-7.331-7.202
				c0-4.138,3.095-7.18,7.331-7.18C159.09,57.936,162.103,61.04,162.102,64.999L162.102,64.999z M152.066,63.655h5.456
				c-0.408-1.349-1.38-2.077-2.783-2.077C153.385,61.578,152.442,62.314,152.066,63.655z"/>
		</g>
		<g>
			<rect x="88" y="106" class="st2" width="228" height="52"/>
			<g>
				<rect x="103.618" y="121.5" class="st1" width="78.239" height="21"/>
				<path class="st3" d="M107.123,123.061v7.517h7.848v0.775h-7.848v8.417h-0.819v-17.496h9.316v0.787H107.123z"/>
				<path class="st3" d="M119.211,121.88h1.175v1.393h-1.175V121.88z M119.398,126.272h0.8v13.497h-0.8V126.272z"/>
				<path class="st3" d="M132.489,126.235v0.769h-1.212c-2.818,0-4.705,2.181-4.705,5.167v7.598h-0.8v-13.497h0.631l0.13,3.058
					c0.84-1.895,2.515-3.095,4.794-3.095H132.489z"/>
				<path class="st3" d="M134.529,136.095h0.787c0.212,2.019,1.824,3.181,4.374,3.181c2.574,0,4.28-1.212,4.28-3.081
					c0-2.337-2.199-2.749-4.424-3.124c-2.337-0.4-4.749-0.819-4.749-3.468c0-2.143,1.937-3.593,4.786-3.593
					c2.868,0,4.692,1.443,4.824,3.774h-0.769c-0.132-1.906-1.625-3.037-4.068-3.037c-2.405,0-3.992,1.137-3.992,2.837
					c0,2.024,1.949,2.35,4.148,2.718c2.362,0.394,5.036,0.875,5.036,3.868c0,2.324-2.037,3.861-5.092,3.861
					C136.635,140.031,134.741,138.544,134.529,136.095z"/>
				<path class="st3" d="M155.715,139.013v0.762h-1.769c-2.512,0-4.043-1.55-4.043-4.105v-8.667h-3.111v-0.706h3.111v-3.993h0.8
					v3.993h4.898v0.706h-4.898v8.635c0,2.131,1.206,3.375,3.312,3.375H155.715z"/>
			</g>
		</g>
		<g>
			<rect x="85.208" y="196.5" class="st1" width="137.712" height="21"/>
			<path d="M95.29,215.317c-5.325,0-9.302-3.942-9.302-9.176c0-5.263,3.977-9.205,9.302-9.205c4.585,0,8.137,3.027,8.848,7.463
				h-4.884c-0.601-1.794-2.112-2.959-3.953-2.959c-2.478,0-4.294,1.992-4.294,4.701c0,2.699,1.816,4.662,4.294,4.662
				c1.941,0,3.468-1.265,3.958-3.209h4.93C103.523,212.194,99.95,215.317,95.29,215.317L95.29,215.317z"/>
			<path d="M106.135,208.126c0-4.184,3.166-7.19,7.566-7.19c4.387,0,7.567,3.007,7.567,7.19c0,4.169-3.181,7.191-7.567,7.191
				C109.301,215.317,106.135,212.295,106.135,208.126z M113.701,211.141c1.695,0,2.911-1.23,2.911-3.015
				c0-1.773-1.216-3.014-2.911-3.014c-1.694,0-2.91,1.23-2.91,3.014S112.007,211.141,113.701,211.141L113.701,211.141z"/>
			<path d="M123.895,209.081v-7.703h4.649v7.5c0,1.424,0.766,2.262,2.008,2.262s1.993-0.852,1.993-2.262v-7.5h4.649v7.703
				c0,3.776-2.656,6.236-6.643,6.236C126.564,215.317,123.895,212.857,123.895,209.081z"/>
			<path d="M153.937,206.645v8.23h-4.648v-7.587c0-1.571-0.591-2.35-1.761-2.35c-1.449,0-2.283,1.012-2.283,2.73v7.207h-4.649
				v-13.497h3.262l0.639,1.392c1.005-1.12,2.504-1.791,4.249-1.791C151.878,200.979,153.937,203.206,153.937,206.645z"/>
			<path d="M166.372,210.803v4.072h-3.198c-2.984,0-4.799-1.825-4.799-4.824v-5.093h-2.471v-1.087l6.047-6.439h0.955v3.946h3.391
				v3.58h-3.273v4.295c0,0.967,0.584,1.55,1.564,1.55H166.372z"/>
			<path d="M177.983,201.313v4.254h-1.805c-1.646,0-2.335,0.722-2.335,2.443v6.863h-4.649v-13.497h3.115l0.725,1.498
				c0.952-1.101,2.111-1.562,3.718-1.562H177.983z"/>
			<path d="M194.58,201.378l-5.656,12.896c-1.819,4.131-3.492,5.623-6.977,5.623h-1.592v-3.995h1.278
				c1.778,0,2.314-0.463,2.944-2.143l-5.577-12.382h5.052l2.864,7.435l2.669-7.435H194.58z"/>
		</g>
		<g>
			<rect x="88" y="249" class="st2" width="507" height="52"/>
		</g>
		<g>
			<rect x="85.208" y="339.5" class="st1" width="78.239" height="21"/>
			<path d="M95.29,358.317c-5.325,0-9.302-3.942-9.302-9.176c0-5.263,3.977-9.205,9.302-9.205c4.585,0,8.137,3.027,8.848,7.463
				h-4.884c-0.601-1.794-2.112-2.959-3.953-2.959c-2.478,0-4.294,1.992-4.294,4.701c0,2.699,1.816,4.662,4.294,4.662
				c1.941,0,3.468-1.265,3.958-3.209h4.93C103.523,355.194,99.95,358.317,95.29,358.317L95.29,358.317z"/>
			<path d="M106.921,344.377h4.648v13.497h-4.648V344.377z M106.956,338.744h4.578v3.945h-4.578V338.744z"/>
			<path d="M124.247,353.803v4.072h-3.198c-2.984,0-4.799-1.825-4.799-4.824v-5.093h-2.471v-1.087l6.047-6.439h0.955v3.946h3.391
				v3.58h-3.273v4.295c0,0.967,0.584,1.55,1.564,1.55H124.247z"/>
			<path d="M141.181,344.378l-5.656,12.896c-1.819,4.131-3.492,5.623-6.977,5.623h-1.592v-3.995h1.278
				c1.778,0,2.314-0.463,2.944-2.143l-5.577-12.382h5.052l2.864,7.435l2.669-7.435H141.181z"/>
		</g>
		<g>
			<rect x="88" y="392" class="st2" width="507" height="52"/>
		</g>
		<g>
			<rect x="85.208" y="482.5" class="st1" width="208.16" height="21"/>
			<path d="M100.83,489.7c0,3.668-2.764,6.342-6.482,6.342h-2.618v4.832h-4.83v-17.496h7.448
				C98.066,483.379,100.83,486.031,100.83,489.7z M95.875,489.711c0-1.244-0.836-2.123-2.104-2.123h-2.041v4.246h2.041
				C95.039,491.833,95.875,490.954,95.875,489.711z"/>
			<path d="M116.787,492.747v8.127h-4.648v-7.587c0-1.557-0.547-2.35-1.761-2.35c-1.406,0-2.283,0.998-2.283,2.73v7.207h-4.649
				v-18.371h4.649v5.762c0.994-0.8,2.258-1.287,3.603-1.287C114.796,486.979,116.787,489.249,116.787,492.747z"/>
			<path d="M119.435,494.126c0-4.184,3.166-7.19,7.566-7.19c4.387,0,7.567,3.007,7.567,7.19c0,4.169-3.181,7.191-7.567,7.191
				C122.601,501.317,119.435,498.295,119.435,494.126z M127.001,497.141c1.695,0,2.911-1.23,2.911-3.015
				c0-1.773-1.216-3.014-2.911-3.014c-1.694,0-2.91,1.23-2.91,3.014S125.307,497.141,127.001,497.141L127.001,497.141z"/>
			<path d="M150.712,492.645v8.23h-4.648v-7.587c0-1.571-0.591-2.35-1.761-2.35c-1.449,0-2.283,1.012-2.283,2.73v7.207h-4.649
				v-13.497h3.262l0.639,1.392c1.005-1.12,2.504-1.791,4.249-1.791C148.653,486.979,150.712,489.206,150.712,492.645z"/>
			<path d="M168.052,493.999c0,0.407-0.035,0.813-0.096,1.231h-10.021c0.304,1.548,1.287,2.349,2.755,2.349
				c1.086,0,1.993-0.476,2.44-1.266h4.626c-0.949,3.08-3.68,5.005-7.066,5.005c-4.211,0-7.331-3.078-7.331-7.202
				c0-4.138,3.095-7.18,7.331-7.18C165.04,486.936,168.053,490.04,168.052,493.999L168.052,493.999z M158.017,492.655h5.456
				c-0.408-1.349-1.38-2.077-2.783-2.077C159.335,490.578,158.393,491.314,158.017,492.655z"/>
			<path d="M192.731,483.379v17.496h-3.986l-6.95-9.495v9.495h-4.671v-17.496h4.219l6.718,9.179v-9.179H192.731z"/>
			<path d="M196.145,495.081v-7.703h4.649v7.5c0,1.424,0.766,2.262,2.008,2.262s1.993-0.852,1.993-2.262v-7.5h4.649v7.703
				c0,3.776-2.656,6.236-6.643,6.236C198.814,501.317,196.145,498.857,196.145,495.081z"/>
			<path d="M233.55,492.409v8.465H228.9v-7.89c0-1.41-0.519-2.09-1.507-2.09c-1.277,0-1.933,0.88-1.933,2.58v7.4h-4.527v-7.89
				c0-1.367-0.516-2.09-1.488-2.09c-1.261,0-1.951,0.901-1.951,2.58v7.4h-4.649v-13.497h3.27l0.662,1.45
				c0.975-1.136,2.391-1.85,3.945-1.85c1.645,0,3.03,0.739,3.87,1.987c0.97-1.221,2.465-1.987,4.146-1.987
				C231.628,486.979,233.55,489.231,233.55,492.409z"/>
			<path d="M252.011,494.136c0,4.195-2.936,7.18-7.092,7.18c-1.575,0-2.975-0.528-4.071-1.444l-0.438,1.002h-3.44v-18.371h4.597
				v5.383c0.966-0.596,2.105-0.93,3.354-0.93C249.075,486.957,252.011,489.942,252.011,494.136z M247.318,494.136
				c0-1.762-1.28-3.078-3.021-3.078s-3.021,1.316-3.021,3.078c0,1.748,1.279,3.064,3.021,3.064
				C246.027,497.2,247.318,495.884,247.318,494.136z"/>
			<path d="M268.701,493.999c0,0.407-0.035,0.813-0.096,1.231h-10.021c0.304,1.548,1.287,2.349,2.755,2.349
				c1.086,0,1.993-0.476,2.44-1.266h4.626c-0.949,3.08-3.68,5.005-7.066,5.005c-4.211,0-7.331-3.078-7.331-7.202
				c0-4.138,3.095-7.18,7.331-7.18C265.689,486.936,268.702,490.04,268.701,493.999L268.701,493.999z M258.666,492.655h5.456
				c-0.408-1.349-1.38-2.077-2.783-2.077C259.984,490.578,259.042,491.314,258.666,492.655z"/>
			<path d="M280.258,487.313v4.254h-1.805c-1.646,0-2.335,0.722-2.335,2.443v6.863h-4.649v-13.497h3.115l0.725,1.498
				c0.952-1.101,2.111-1.562,3.718-1.562H280.258z"/>
		</g>
		<g>
			<rect x="88" y="535" class="st2" width="507" height="52"/>
		</g>
		<g>
			<rect x="85.208" y="625.5" class="st1" width="78.239" height="21"/>
			<path d="M98.306,639.694v4.181H86.899v-17.496h11.194v4.167h-6.396v2.576h5.746v3.954h-5.746v2.619H98.306z"/>
			<path d="M122.125,635.409v8.465h-4.649v-7.89c0-1.41-0.519-2.09-1.507-2.09c-1.277,0-1.933,0.88-1.933,2.58v7.4h-4.527v-7.89
				c0-1.367-0.516-2.09-1.488-2.09c-1.261,0-1.951,0.901-1.951,2.58v7.4h-4.649v-13.497h3.27l0.662,1.45
				c0.975-1.136,2.391-1.85,3.945-1.85c1.645,0,3.03,0.739,3.87,1.987c0.97-1.221,2.465-1.987,4.146-1.987
				C120.203,629.979,122.125,632.231,122.125,635.409z"/>
			<path d="M139.911,630.364v13.497h-3.595l-0.397-0.955c-1.105,0.895-2.505,1.411-4.073,1.411c-4.127,0-7.076-3.011-7.076-7.205
				c0-4.18,2.949-7.155,7.076-7.155c1.59,0,3.01,0.531,4.124,1.451l0.476-1.044L139.911,630.364z M135.489,637.123
				c0-1.752-1.28-3.068-3.021-3.068c-1.752,0-3.021,1.316-3.021,3.068c0,1.762,1.28,3.078,3.021,3.078
				S135.489,638.885,135.489,637.123z"/>
			<path d="M143.495,630.377h4.648v13.497h-4.648V630.377z M143.53,624.744h4.578v3.945h-4.578V624.744z"/>
			<path d="M151.719,625.504h4.649v18.371h-4.649V625.504z"/>
		</g>
		<g>
			<rect x="88" y="678" class="st2" width="507" height="52"/>
		</g>
		<g>
			<rect x="367" y="106" class="st2" width="228" height="52"/>
			<g>
				<rect x="382.618" y="121.5" class="st1" width="78.239" height="21"/>
				<path class="st3" d="M394.671,138.988v0.781h-9.367v-17.496h0.819v16.714H394.671z"/>
				<path class="st3" d="M410.032,126.272v13.497h-0.7l-0.088-3.524c-1.082,2.283-3.332,3.786-6.16,3.786
					c-3.924,0-6.886-3.024-6.886-7.011c0-3.993,2.962-7.011,6.886-7.011c2.83,0,5.082,1.502,6.163,3.79l0.104-3.527H410.032z
					 M409.22,133.021c0-3.599-2.568-6.23-6.092-6.23c-3.487,0-6.117,2.693-6.117,6.23c0,3.555,2.63,6.229,6.117,6.229
					C406.651,139.25,409.22,136.62,409.22,133.021z"/>
				<path class="st3" d="M414.329,136.095h0.787c0.212,2.019,1.824,3.181,4.374,3.181c2.574,0,4.28-1.212,4.28-3.081
					c0-2.337-2.2-2.749-4.424-3.124c-2.337-0.4-4.749-0.819-4.749-3.468c0-2.143,1.937-3.593,4.786-3.593
					c2.868,0,4.692,1.443,4.824,3.774h-0.769c-0.132-1.906-1.625-3.037-4.068-3.037c-2.405,0-3.992,1.137-3.992,2.837
					c0,2.024,1.949,2.35,4.148,2.718c2.362,0.394,5.036,0.875,5.036,3.868c0,2.324-2.037,3.861-5.092,3.861
					C416.435,140.031,414.541,138.544,414.329,136.095z"/>
				<path class="st3" d="M435.516,139.013v0.762h-1.769c-2.512,0-4.043-1.55-4.043-4.105v-8.667h-3.111v-0.706h3.111v-3.993h0.8
					v3.993h4.898v0.706h-4.898v8.635c0,2.131,1.206,3.375,3.312,3.375H435.516z"/>
			</g>
		</g>
		<rect x="88" y="784" class="st2" width="32" height="32"/>
		<g>
			<rect x="136.718" y="784" class="st1" width="458.489" height="89.995"/>
			<path d="M137.874,795.549h0.731c0,2.426,1.865,3.999,4.67,3.999c2.559,0,4.352-1.463,4.352-3.619c0-2.442-2.162-2.91-4.467-3.422
				c-2.393-0.522-4.951-1.094-4.951-3.949c0-2.47,1.953-4.065,4.951-4.065c2.904,0,4.797,1.7,4.797,4.285h-0.715
				c0-2.178-1.646-3.586-4.093-3.586c-2.542,0-4.22,1.315-4.22,3.345c0,2.332,2.179,2.8,4.445,3.295
				c2.437,0.544,4.989,1.122,4.989,4.092c0,2.619-2.118,4.335-5.083,4.335C140.036,800.258,137.874,798.394,137.874,795.549z"/>
			<path d="M163.027,794.35h-11.091c0.106,3.04,2.319,5.265,5.26,5.265c2.097,0,3.769-1.089,4.72-2.927h0.748
				c-1.122,2.349-3.036,3.62-5.468,3.62c-3.388,0-5.957-2.662-5.957-6.188c0-3.493,2.569-6.155,5.957-6.155
				c3.416,0,5.842,2.663,5.842,6.089C163.038,794.147,163.033,794.257,163.027,794.35z M157.197,788.641
				c-2.874,0-5.053,2.12-5.25,5.044h10.397C162.164,790.676,159.988,788.641,157.197,788.641L157.197,788.641z"/>
			<path d="M176.793,793.047v7.03h-0.704v-6.909c0-2.833-1.541-4.543-4.088-4.543c-2.426,0-4.499,2.085-4.499,4.533v6.92h-0.704
				v-11.882h0.556l0.124,2.74c0.811-1.751,2.612-2.971,4.656-2.971C174.999,787.964,176.793,789.983,176.793,793.047z"/>
			<path d="M192.55,783.998v16.079h-0.589l-0.099-3.029c-0.969,1.969-2.936,3.26-5.391,3.26c-3.471,0-6.057-2.662-6.057-6.172
				c0-3.515,2.586-6.172,6.057-6.172c2.441,0,4.4,1.274,5.374,3.224v-7.19L192.55,783.998z M191.879,794.136
				c0-3.163-2.267-5.484-5.369-5.484c-3.069,0-5.38,2.349-5.38,5.484c0,3.119,2.311,5.484,5.38,5.484
				C189.612,799.62,191.879,797.293,191.879,794.136z"/>
			<path d="M221.113,792.579v7.498h-0.688l-0.016-7.338c0-2.486-1.343-4.115-3.389-4.115c-2.36,0-3.999,1.832-4.016,4.505v6.947
				h-0.693v-7.338c0-2.52-1.325-4.115-3.394-4.115c-2.36,0-3.999,1.832-4.016,4.505v6.947h-0.704v-11.882h0.561l0.111,2.421
				c0.744-1.646,2.268-2.652,4.163-2.652c1.9,0,3.293,1.175,3.78,3.042c0.67-1.876,2.275-3.042,4.312-3.042
				C219.523,787.964,221.113,789.823,221.113,792.579z"/>
			<path d="M236.55,794.35h-11.091c0.106,3.04,2.319,5.265,5.26,5.265c2.097,0,3.769-1.089,4.72-2.927h0.748
				c-1.122,2.349-3.036,3.62-5.468,3.62c-3.388,0-5.957-2.662-5.957-6.188c0-3.493,2.569-6.155,5.957-6.155
				c3.416,0,5.842,2.663,5.842,6.089C236.561,794.147,236.556,794.257,236.55,794.35z M230.72,788.641
				c-2.874,0-5.053,2.12-5.25,5.044h10.397C235.687,790.676,233.511,788.641,230.72,788.641L230.72,788.641z"/>
			<path d="M257.823,794.35h-11.091c0.106,3.04,2.319,5.265,5.26,5.265c2.097,0,3.769-1.089,4.72-2.927h0.748
				c-1.122,2.349-3.036,3.62-5.468,3.62c-3.388,0-5.957-2.662-5.957-6.188c0-3.493,2.569-6.155,5.957-6.155
				c3.416,0,5.842,2.663,5.842,6.089C257.834,794.147,257.829,794.257,257.823,794.35z M251.993,788.641
				c-2.874,0-5.053,2.12-5.25,5.044h10.397C256.96,790.676,254.784,788.641,251.993,788.641L251.993,788.641z"/>
			<path d="M278.51,792.579v7.498h-0.688l-0.016-7.338c0-2.486-1.343-4.115-3.389-4.115c-2.36,0-3.999,1.832-4.016,4.505v6.947
				h-0.693v-7.338c0-2.52-1.325-4.115-3.394-4.115c-2.36,0-3.999,1.832-4.016,4.505v6.947h-0.704v-11.882h0.561l0.111,2.421
				c0.744-1.646,2.268-2.652,4.163-2.652c1.9,0,3.293,1.175,3.78,3.042c0.67-1.876,2.275-3.042,4.312-3.042
				C276.92,787.964,278.51,789.823,278.51,792.579z"/>
			<path d="M294.32,788.195v11.881h-0.616l-0.078-3.102c-0.952,2.01-2.933,3.333-5.422,3.333c-3.455,0-6.063-2.663-6.063-6.172
				c0-3.515,2.607-6.172,6.063-6.172c2.491,0,4.474,1.322,5.425,3.336l0.092-3.105L294.32,788.195z M293.605,794.136
				c0-3.168-2.261-5.484-5.363-5.484c-3.069,0-5.386,2.371-5.386,5.484c0,3.13,2.316,5.484,5.386,5.484
				C291.345,799.62,293.605,797.305,293.605,794.136z"/>
			<path d="M299.05,784.328h1.034v1.227h-1.034V784.328z M299.215,788.195h0.704v11.882h-0.704V788.195z"/>
			<path d="M304.825,783.998h0.704v16.079h-0.704V783.998z"/>
			<path d="M316.957,795.093v-6.898h0.704v6.815c0,2.844,1.65,4.61,4.302,4.61c2.657,0,4.302-1.771,4.302-4.61v-6.815h0.704v6.898
				c0,3.174-1.937,5.215-5.006,5.215C318.898,800.308,316.957,798.267,316.957,795.093z"/>
			<path d="M343.782,794.136c0,3.51-2.508,6.172-6.034,6.172c-2.419,0-4.422-1.31-5.401-3.303v7.27h-0.704v-16.079h0.544l0.141,3.11
				c0.973-2.016,2.985-3.341,5.421-3.341C341.274,787.964,343.782,790.621,343.782,794.136z M343.072,794.136
				c0-3.168-2.261-5.484-5.363-5.484c-3.069,0-5.385,2.354-5.385,5.484c0,3.113,2.315,5.484,5.385,5.484
				C340.812,799.62,343.072,797.304,343.072,794.136z"/>
			<path d="M358.715,783.998v16.079h-0.589l-0.099-3.029c-0.969,1.969-2.936,3.26-5.391,3.26c-3.471,0-6.057-2.662-6.057-6.172
				c0-3.515,2.586-6.172,6.057-6.172c2.441,0,4.4,1.274,5.374,3.224v-7.19L358.715,783.998z M358.044,794.136
				c0-3.163-2.267-5.484-5.369-5.484c-3.069,0-5.38,2.349-5.38,5.484c0,3.119,2.311,5.484,5.38,5.484
				C355.777,799.62,358.044,797.293,358.044,794.136z"/>
			<path d="M374.73,788.195v11.881h-0.616l-0.078-3.102c-0.952,2.01-2.933,3.333-5.422,3.333c-3.455,0-6.063-2.663-6.063-6.172
				c0-3.515,2.607-6.172,6.063-6.172c2.491,0,4.474,1.322,5.425,3.336l0.092-3.105L374.73,788.195z M374.016,794.136
				c0-3.168-2.261-5.484-5.363-5.484c-3.069,0-5.386,2.371-5.386,5.484c0,3.13,2.316,5.484,5.386,5.484
				C371.755,799.62,374.016,797.305,374.016,794.136z"/>
			<path d="M385.561,799.411v0.671h-1.558c-2.211,0-3.559-1.364-3.559-3.614v-7.63h-2.739v-0.622h2.739v-3.515h0.704v3.515h4.313
				v0.622h-4.313v7.602c0,1.876,1.062,2.971,2.915,2.971H385.561z"/>
			<path d="M399.174,794.35h-11.091c0.106,3.04,2.319,5.265,5.26,5.265c2.097,0,3.769-1.089,4.72-2.927h0.748
				c-1.122,2.349-3.036,3.62-5.468,3.62c-3.388,0-5.957-2.662-5.957-6.188c0-3.493,2.569-6.155,5.957-6.155
				c3.416,0,5.842,2.663,5.842,6.089C399.185,794.147,399.18,794.257,399.174,794.35z M393.344,788.641
				c-2.874,0-5.053,2.12-5.25,5.044h10.397C398.311,790.676,396.135,788.641,393.344,788.641L393.344,788.641z"/>
			<path d="M401.828,796.842h0.693c0.187,1.777,1.606,2.8,3.851,2.8c2.267,0,3.768-1.067,3.768-2.712c0-2.057-1.936-2.42-3.895-2.75
				c-2.057-0.352-4.181-0.721-4.181-3.053c0-1.887,1.706-3.163,4.214-3.163c2.525,0,4.131,1.271,4.247,3.323h-0.677
				c-0.115-1.678-1.431-2.674-3.581-2.674c-2.118,0-3.515,1.001-3.515,2.498c0,1.782,1.716,2.068,3.652,2.393
				c2.079,0.346,4.434,0.77,4.434,3.405c0,2.046-1.794,3.399-4.483,3.399C403.682,800.308,402.016,798.999,401.828,796.842z"/>
			<path d="M414.032,801.87c0.533-0.352,0.715-0.798,0.715-1.793h-0.759v-1.353h1.26v1.259c0,1.375-0.347,2.002-1.216,2.476V801.87z
				"/>
			<path d="M431.627,799.411v0.671h-1.557c-2.211,0-3.559-1.364-3.559-3.614v-7.63h-2.739v-0.622h2.739v-3.515h0.704v3.515h4.313
				v0.622h-4.313v7.602c0,1.876,1.062,2.971,2.915,2.971H431.627z"/>
			<path d="M434.524,784.328h1.034v1.227h-1.034V784.328z M434.689,788.195h0.704v11.882h-0.704V788.195z"/>
			<path d="M452.439,794.136c0,3.51-2.508,6.172-6.034,6.172c-2.419,0-4.422-1.31-5.401-3.303v7.27H440.3v-16.079h0.544l0.141,3.11
				c0.973-2.016,2.985-3.341,5.421-3.341C449.932,787.964,452.439,790.621,452.439,794.136z M451.729,794.136
				c0-3.168-2.261-5.484-5.363-5.484c-3.069,0-5.385,2.354-5.385,5.484c0,3.113,2.315,5.484,5.385,5.484
				C449.469,799.62,451.729,797.304,451.729,794.136z"/>
			<path d="M455.177,796.842h0.693c0.187,1.777,1.606,2.8,3.851,2.8c2.267,0,3.768-1.067,3.768-2.712c0-2.057-1.936-2.42-3.895-2.75
				c-2.057-0.352-4.181-0.721-4.181-3.053c0-1.887,1.706-3.163,4.214-3.163c2.525,0,4.131,1.271,4.247,3.323h-0.677
				c-0.115-1.678-1.431-2.674-3.581-2.674c-2.118,0-3.515,1.001-3.515,2.498c0,1.782,1.716,2.068,3.652,2.393
				c2.079,0.346,4.434,0.77,4.434,3.405c0,2.046-1.794,3.399-4.483,3.399C457.031,800.308,455.364,798.999,455.177,796.842z"/>
			<path d="M485.873,788.195v11.881h-0.616l-0.078-3.102c-0.952,2.01-2.933,3.333-5.422,3.333c-3.455,0-6.063-2.663-6.063-6.172
				c0-3.515,2.607-6.172,6.063-6.172c2.491,0,4.474,1.322,5.425,3.336l0.092-3.105L485.873,788.195z M485.158,794.136
				c0-3.168-2.261-5.484-5.363-5.484c-3.069,0-5.386,2.371-5.386,5.484c0,3.13,2.316,5.484,5.386,5.484
				C482.897,799.62,485.158,797.305,485.158,794.136z"/>
			<path d="M500.763,793.047v7.03h-0.704v-6.909c0-2.833-1.541-4.543-4.088-4.543c-2.426,0-4.499,2.085-4.499,4.533v6.92h-0.704
				v-11.882h0.556l0.124,2.74c0.811-1.751,2.612-2.971,4.656-2.971C498.969,787.964,500.763,789.983,500.763,793.047z"/>
			<path d="M516.52,783.998v16.079h-0.589l-0.099-3.029c-0.969,1.969-2.936,3.26-5.391,3.26c-3.471,0-6.057-2.662-6.057-6.172
				c0-3.515,2.586-6.172,6.057-6.172c2.441,0,4.4,1.274,5.374,3.224v-7.19L516.52,783.998z M515.849,794.136
				c0-3.163-2.267-5.484-5.369-5.484c-3.069,0-5.38,2.349-5.38,5.484c0,3.119,2.311,5.484,5.38,5.484
				C513.582,799.62,515.849,797.293,515.849,794.136z"/>
			<path d="M527.11,794.136c0-3.553,2.657-6.172,6.183-6.172c3.543,0,6.184,2.641,6.184,6.172c0,3.532-2.641,6.172-6.184,6.172
				C529.768,800.308,527.11,797.667,527.11,794.136z M538.762,794.136c0-3.141-2.327-5.484-5.469-5.484
				c-3.141,0-5.468,2.327-5.468,5.484c0,3.141,2.344,5.484,5.468,5.484C536.435,799.62,538.762,797.277,538.762,794.136z"/>
			<path d="M548.996,799.411v0.671h-1.557c-2.211,0-3.559-1.364-3.559-3.614v-7.63h-2.739v-0.622h2.739v-3.515h0.704v3.515h4.313
				v0.622h-4.313v7.602c0,1.876,1.062,2.971,2.915,2.971H548.996z"/>
			<path d="M562.055,793.047v7.03h-0.704v-6.909c0-2.833-1.541-4.543-4.088-4.543c-2.426,0-4.499,2.085-4.499,4.533v6.92h-0.704
				v-16.079h0.704v6.885c0.821-1.724,2.607-2.919,4.632-2.919C560.261,787.964,562.055,789.933,562.055,793.047z"/>
			<path d="M577.48,794.35H566.39c0.106,3.04,2.319,5.265,5.26,5.265c2.097,0,3.769-1.089,4.72-2.927h0.748
				c-1.122,2.349-3.036,3.62-5.468,3.62c-3.388,0-5.957-2.662-5.957-6.188c0-3.493,2.569-6.155,5.957-6.155
				c3.416,0,5.842,2.663,5.842,6.089C577.491,794.147,577.486,794.257,577.48,794.35z M571.65,788.641
				c-2.874,0-5.053,2.12-5.25,5.044h10.397C576.617,790.676,574.441,788.641,571.65,788.641L571.65,788.641z"/>
			<path d="M587.165,788.162v0.676h-1.067c-2.48,0-4.142,1.92-4.142,4.549v6.689h-0.704v-11.882h0.556l0.114,2.692
				c0.739-1.668,2.213-2.725,4.22-2.725H587.165z"/>
			<path d="M138.649,821.493v-6.898h0.704v6.815c0,2.844,1.65,4.61,4.302,4.61c2.657,0,4.302-1.771,4.302-4.61v-6.815h0.704v6.898
				c0,3.174-1.937,5.215-5.006,5.215C140.592,826.708,138.649,824.667,138.649,821.493z"/>
			<path d="M152.218,823.242h0.693c0.187,1.777,1.606,2.8,3.851,2.8c2.267,0,3.768-1.067,3.768-2.712c0-2.057-1.936-2.42-3.895-2.75
				c-2.057-0.352-4.181-0.721-4.181-3.053c0-1.887,1.706-3.163,4.214-3.163c2.525,0,4.131,1.271,4.247,3.323h-0.677
				c-0.115-1.678-1.431-2.674-3.581-2.674c-2.118,0-3.515,1.001-3.515,2.498c0,1.782,1.716,2.068,3.652,2.393
				c2.079,0.346,4.434,0.77,4.434,3.405c0,2.046-1.794,3.399-4.483,3.399C154.072,826.708,152.405,825.398,152.218,823.242z"/>
			<path d="M175.786,820.75h-11.091c0.106,3.04,2.319,5.265,5.26,5.265c2.097,0,3.769-1.089,4.72-2.927h0.748
				c-1.122,2.349-3.036,3.62-5.468,3.62c-3.388,0-5.957-2.662-5.957-6.188c0-3.493,2.569-6.155,5.957-6.155
				c3.416,0,5.842,2.663,5.842,6.089C175.797,820.547,175.792,820.657,175.786,820.75z M169.956,815.041
				c-2.874,0-5.053,2.12-5.25,5.044h10.397C174.923,817.076,172.747,815.041,169.956,815.041L169.956,815.041z"/>
			<path d="M185.015,815.238h-4.225v11.238h-0.704v-11.238h-2.574v-0.622h2.574v-0.935c0-2.756,1.051-3.817,3.84-3.817h1.084v0.605
				h-0.99c-2.426,0-3.246,0.814-3.246,3.224v0.924h4.241V815.238z"/>
			<path d="M187.797,821.493v-6.898h0.704v6.815c0,2.844,1.65,4.61,4.302,4.61c2.657,0,4.302-1.771,4.302-4.61v-6.815h0.704v6.898
				c0,3.174-1.937,5.215-5.006,5.215C189.738,826.708,187.797,824.667,187.797,821.493z"/>
			<path d="M202.482,810.398h0.704v16.079h-0.704V810.398z"/>
			<path d="M214.681,810.728h1.034v1.227h-1.034V810.728z M214.846,814.595h0.704v11.882h-0.704V814.595z"/>
			<path d="M230.451,819.447v7.03h-0.704v-6.909c0-2.833-1.541-4.543-4.088-4.543c-2.426,0-4.499,2.085-4.499,4.533v6.92h-0.704
				v-11.882h0.556l0.124,2.74c0.811-1.751,2.612-2.971,4.656-2.971C228.657,814.364,230.451,816.383,230.451,819.447z"/>
			<path d="M240.651,815.238h-4.225v11.238h-0.704v-11.238h-2.574v-0.622h2.574v-0.935c0-2.756,1.051-3.817,3.84-3.817h1.084v0.605
				h-0.99c-2.426,0-3.246,0.814-3.246,3.224v0.924h4.241V815.238z"/>
			<path d="M242.08,820.536c0-3.553,2.657-6.172,6.183-6.172c3.543,0,6.184,2.641,6.184,6.172c0,3.532-2.641,6.172-6.184,6.172
				C244.737,826.708,242.08,824.067,242.08,820.536z M253.73,820.536c0-3.141-2.326-5.484-5.468-5.484
				c-3.141,0-5.468,2.327-5.468,5.484c0,3.141,2.344,5.484,5.468,5.484C251.404,826.02,253.73,823.677,253.73,820.536z"/>
			<path d="M264.208,814.562v0.676h-1.067c-2.48,0-4.142,1.92-4.142,4.549v6.689h-0.704v-11.882h0.556l0.114,2.692
				c0.739-1.668,2.213-2.725,4.22-2.725H264.208z"/>
			<path d="M284.142,818.979v7.498h-0.688l-0.016-7.338c0-2.486-1.343-4.115-3.389-4.115c-2.36,0-3.999,1.832-4.016,4.505v6.948
				h-0.693v-7.338c0-2.52-1.325-4.115-3.394-4.115c-2.36,0-3.999,1.832-4.016,4.505v6.948h-0.704v-11.882h0.561l0.111,2.421
				c0.744-1.646,2.268-2.652,4.163-2.652c1.9,0,3.293,1.175,3.78,3.042c0.67-1.876,2.275-3.042,4.312-3.042
				C282.552,814.364,284.142,816.223,284.142,818.979z"/>
			<path d="M299.952,814.595v11.881h-0.616l-0.078-3.102c-0.952,2.01-2.933,3.333-5.422,3.333c-3.455,0-6.063-2.663-6.063-6.172
				c0-3.515,2.607-6.172,6.063-6.172c2.491,0,4.474,1.322,5.425,3.336l0.092-3.105L299.952,814.595z M299.237,820.536
				c0-3.168-2.261-5.484-5.363-5.484c-3.069,0-5.386,2.371-5.386,5.484c0,3.13,2.316,5.484,5.386,5.484
				C296.977,826.02,299.237,823.705,299.237,820.536z"/>
			<path d="M310.781,825.811v0.671h-1.557c-2.211,0-3.559-1.364-3.559-3.614v-7.63h-2.739v-0.622h2.739v-3.515h0.704v3.515h4.313
				v0.622h-4.313v7.602c0,1.876,1.062,2.971,2.915,2.971H310.781z"/>
			<path d="M313.68,810.728h1.034v1.227h-1.034V810.728z M313.845,814.595h0.704v11.882h-0.704V814.595z"/>
			<path d="M318.398,820.536c0-3.553,2.657-6.172,6.183-6.172c3.543,0,6.184,2.641,6.184,6.172c0,3.532-2.641,6.172-6.184,6.172
				C321.056,826.708,318.398,824.067,318.398,820.536z M330.049,820.536c0-3.141-2.326-5.484-5.468-5.484
				c-3.141,0-5.468,2.327-5.468,5.484c0,3.141,2.344,5.484,5.468,5.484C327.723,826.02,330.049,823.677,330.049,820.536z"/>
			<path d="M344.607,819.447v7.03h-0.704v-6.909c0-2.833-1.541-4.543-4.088-4.543c-2.426,0-4.499,2.085-4.499,4.533v6.92h-0.704
				v-11.882h0.556l0.124,2.74c0.811-1.751,2.612-2.971,4.656-2.971C342.813,814.364,344.607,816.383,344.607,819.447z"/>
		</g>
		<g>
			<g>
				<rect x="367" y="870" class="st2" width="228" height="52"/>
			</g>
			<g>
				<rect x="428.208" y="885.5" class="st1" width="106" height="21"/>
				<path d="M438.29,904.317c-5.325,0-9.302-3.942-9.302-9.176c0-5.263,3.977-9.205,9.302-9.205c4.585,0,8.137,3.027,8.848,7.463
					h-4.884c-0.601-1.794-2.111-2.959-3.953-2.959c-2.478,0-4.295,1.992-4.295,4.701c0,2.699,1.817,4.662,4.295,4.662
					c1.941,0,3.468-1.265,3.958-3.209h4.93C446.523,901.194,442.95,904.317,438.29,904.317L438.29,904.317z"/>
				<path d="M458.709,890.313v4.254h-1.805c-1.646,0-2.335,0.722-2.335,2.443v6.863h-4.649v-13.497h3.115l0.725,1.498
					c0.952-1.101,2.111-1.562,3.718-1.562H458.709z"/>
				<path d="M474.802,896.999c0,0.407-0.035,0.813-0.096,1.231h-10.021c0.304,1.548,1.287,2.349,2.755,2.349
					c1.086,0,1.993-0.476,2.44-1.266h4.626c-0.949,3.08-3.68,5.005-7.066,5.005c-4.211,0-7.331-3.078-7.331-7.202
					c0-4.138,3.095-7.18,7.331-7.18C471.79,889.936,474.803,893.04,474.802,896.999L474.802,896.999z M464.767,895.655h5.456
					c-0.408-1.349-1.38-2.077-2.783-2.077C466.085,893.578,465.143,894.314,464.767,895.655z"/>
				<path d="M491.937,890.364v13.497h-3.595l-0.397-0.955c-1.105,0.895-2.505,1.411-4.073,1.411c-4.127,0-7.076-3.011-7.076-7.205
					c0-4.18,2.949-7.155,7.076-7.155c1.59,0,3.01,0.531,4.124,1.451l0.476-1.044L491.937,890.364z M487.515,897.123
					c0-1.752-1.28-3.068-3.021-3.068c-1.752,0-3.021,1.316-3.021,3.068c0,1.762,1.28,3.078,3.021,3.078
					S487.515,898.885,487.515,897.123z"/>
				<path d="M504.621,899.803v4.072h-3.198c-2.984,0-4.799-1.825-4.799-4.824v-5.093h-2.471v-1.087l6.047-6.439h0.955v3.946h3.391
					v3.58h-3.273v4.295c0,0.967,0.584,1.55,1.564,1.55H504.621z"/>
				<path d="M521.226,896.999c0,0.407-0.035,0.813-0.096,1.231h-10.021c0.304,1.548,1.287,2.349,2.755,2.349
					c1.086,0,1.993-0.476,2.44-1.266h4.626c-0.949,3.08-3.68,5.005-7.066,5.005c-4.211,0-7.331-3.078-7.331-7.202
					c0-4.138,3.095-7.18,7.331-7.18C518.214,889.936,521.227,893.04,521.226,896.999L521.226,896.999z M511.19,895.655h5.456
					c-0.408-1.349-1.38-2.077-2.783-2.077C512.509,893.578,511.566,894.314,511.19,895.655z"/>
			</g>
		</g>
	</g>
</g>
</svg>