<!-- Generator: Adobe Illustrator 21.0.0, SVG Export Plug-In  -->
<svg version="1.1"
	 xmlns="http://www.w3.org/2000/svg" xmlns:xlink="http://www.w3.org/1999/xlink" xmlns:a="http://ns.adobe.com/AdobeSVGViewerExtensions/3.0/"
	 x="0px" y="0px" width="1334.344px" height="290.875px" viewBox="0 0 1334.344 290.875"
	 style="enable-background:new 0 0 1334.344 290.875;" xml:space="preserve">
<style type="text/css">
	.st0{fill:none;}
	.st1{font-family:'Mont-HeavyDEMO';}
	.st2{font-size:34px;}
	.st3{letter-spacing:2;}
	.st4{letter-spacing:13;}
	.st5{letter-spacing:12;}
	.st6{letter-spacing:1;}
	.st7{letter-spacing:7;}
	.st8{letter-spacing:6;}
	.st9{letter-spacing:4;}
	.st10{letter-spacing:3;}
</style>
<defs>
</defs>
<g>
	<rect x="0" y="3.909" class="st0" width="1321.863" height="286.966"/>
	<path d="M2.3,5.102h6.643v23.798H2.3V5.102z"/>
	<path d="M33.702,17.705v11.194h-6.323v-10.32c0-2.137-0.803-3.196-2.394-3.196c-1.972,0-3.106,1.377-3.106,3.713v9.804h-6.323
		V10.541h4.436l0.869,1.894c1.367-1.523,3.405-2.437,5.779-2.437C30.902,9.998,33.702,13.028,33.702,17.705z"/>
	<path d="M76.578,22.896v6.004H61.465V5.102h6.643v17.794H76.578z"/>
	<path d="M88.683,11.034v3.787h7.647v5.739h-7.647v8.339h-6.614V5.102h15.145v5.933H88.683z"/>
	<path d="M127.002,16.181c0,7.787-5.083,13.319-12.536,13.319c-7.292,0-12.678-5.24-12.678-12.48S107.077,4.5,114.408,4.5
		c6.238,0,11.34,3.903,12.347,9.434h-6.871c-0.861-2.005-2.991-3.294-5.417-3.294c-3.564,0-5.967,2.578-5.967,6.38
		c0,3.764,2.364,6.342,5.967,6.342c2.502,0,4.647-1.211,5.396-3.047h-5.911v-4.133L127.002,16.181z"/>
	<path d="M164.68,23.361v5.538h-4.351c-4.06,0-6.527-2.481-6.527-6.562v-6.927h-3.36v-1.479l8.225-8.759h1.299v5.367h4.612v4.87
		h-4.453v5.842c0,1.315,0.793,2.108,2.127,2.108H164.68z"/>
	<path d="M182.137,10.454v5.786h-2.455c-2.239,0-3.176,0.982-3.176,3.323v9.336h-6.323V10.541h4.236l0.986,2.038
		c1.295-1.498,2.872-2.125,5.057-2.125H182.137z"/>
	<path d="M206.316,10.521V28.88h-4.889l-0.542-1.298c-1.503,1.218-3.407,1.919-5.54,1.919c-5.613,0-9.626-4.095-9.626-9.801
		c0-5.686,4.013-9.731,9.626-9.731c2.162,0,4.094,0.722,5.609,1.973l0.647-1.42H206.316z M200.302,19.715
		c0-2.383-1.741-4.172-4.109-4.172c-2.383,0-4.109,1.789-4.109,4.172c0,2.397,1.741,4.188,4.109,4.188
		S200.302,22.112,200.302,19.715z"/>
	<path d="M232.242,3.912v24.987h-4.68l-0.596-1.363c-1.494,1.257-3.399,1.984-5.537,1.984c-5.633,0-9.646-4.095-9.646-9.8
		c0-5.706,4.013-9.781,9.646-9.781c1.695,0,3.246,0.457,4.562,1.274V3.912H232.242z M226.384,19.721
		c0-2.397-1.741-4.201-4.109-4.201s-4.109,1.804-4.109,4.201s1.741,4.201,4.109,4.201S226.384,22.118,226.384,19.721z"/>
	<path d="M257.677,19.547c0,0.553-0.048,1.106-0.13,1.674h-13.631c0.414,2.106,1.751,3.195,3.748,3.195
		c1.477,0,2.711-0.647,3.319-1.722h6.292c-1.292,4.189-5.005,6.808-9.611,6.808c-5.728,0-9.972-4.188-9.972-9.796
		c0-5.628,4.209-9.767,9.972-9.767C253.58,9.939,257.677,14.161,257.677,19.547L257.677,19.547z M244.026,17.72h7.421
		c-0.555-1.835-1.877-2.825-3.786-2.825C245.819,14.895,244.538,15.896,244.026,17.72z"/>
	<path d="M275.059,10.454v5.786h-2.455c-2.239,0-3.176,0.982-3.176,3.323v9.336h-6.323V10.541h4.236l0.986,2.038
		c1.295-1.498,2.872-2.125,5.057-2.125H275.059z"/>
	<path d="M300.101,21.019V10.541h6.324v10.202c0,1.938,1.042,3.077,2.731,3.077s2.711-1.158,2.711-3.077V10.541h6.323v10.478
		c0,5.137-3.612,8.482-9.035,8.482S300.101,26.155,300.101,21.019z"/>
	<path d="M331.562,29.501c-5.003,0-8.044-2.643-8.102-6.62h6.086c0,1.343,0.935,1.96,2.133,1.96c0.925,0,1.802-0.472,1.802-1.42
		c0-1.06-1.39-1.361-3.153-1.653c-2.847-0.461-6.62-1.32-6.62-5.772c0-3.68,3.136-6.056,7.839-6.056
		c4.675,0,7.705,2.487,7.777,6.207h-5.921c0-1.173-0.788-1.718-1.934-1.718c-1.014,0-1.695,0.502-1.695,1.354
		c0,1.044,1.404,1.287,3.148,1.599c2.9,0.515,6.756,1.117,6.756,5.773C339.678,26.99,336.44,29.501,331.562,29.501L331.562,29.501z"
		/>
	<path d="M364.102,19.547c0,0.553-0.048,1.106-0.131,1.674h-13.631c0.414,2.106,1.751,3.195,3.748,3.195
		c1.477,0,2.711-0.647,3.319-1.722h6.292c-1.292,4.189-5.005,6.808-9.611,6.808c-5.728,0-9.972-4.188-9.972-9.796
		c0-5.628,4.209-9.767,9.972-9.767C360.004,9.939,364.102,14.161,364.102,19.547L364.102,19.547z M350.451,17.72h7.421
		c-0.555-1.835-1.877-2.825-3.786-2.825C352.244,14.895,350.962,15.896,350.451,17.72z"/>
	<path d="M381.483,10.454v5.786h-2.455c-2.239,0-3.176,0.982-3.176,3.323v9.336h-6.323V10.541h4.236l0.986,2.038
		c1.295-1.498,2.872-2.125,5.057-2.125H381.483z"/>
	<path d="M393.44,29.501c-5.003,0-8.044-2.643-8.102-6.62h6.086c0,1.343,0.935,1.96,2.133,1.96c0.925,0,1.802-0.472,1.802-1.42
		c0-1.06-1.39-1.361-3.153-1.653c-2.847-0.461-6.62-1.32-6.62-5.772c0-3.68,3.136-6.056,7.839-6.056
		c4.675,0,7.705,2.487,7.777,6.207h-5.921c0-1.173-0.788-1.718-1.934-1.718c-1.014,0-1.695,0.502-1.695,1.354
		c0,1.044,1.404,1.287,3.148,1.599c2.9,0.515,6.756,1.117,6.756,5.773C401.557,26.99,398.319,29.501,393.44,29.501L393.44,29.501z"
		/>
	<path d="M437.266,29.5c-5.887,0-10.137-4.124-10.137-9.805s4.229-9.728,10.156-9.728c5.159,0,9.029,3.253,9.72,8.136h-6.16
		c-0.532-1.498-1.932-2.469-3.58-2.469c-2.222,0-3.804,1.688-3.804,4.08s1.601,4.12,3.804,4.12c1.697,0,3.072-1.04,3.594-2.679
		h6.213C446.358,26.142,442.435,29.501,437.266,29.5L437.266,29.5z"/>
	<path d="M471.897,10.521V28.88h-4.889l-0.542-1.298c-1.503,1.218-3.407,1.919-5.54,1.919c-5.613,0-9.626-4.095-9.626-9.801
		c0-5.686,4.013-9.731,9.626-9.731c2.162,0,4.094,0.722,5.609,1.973l0.647-1.42H471.897z M465.883,19.715
		c0-2.383-1.741-4.172-4.109-4.172c-2.383,0-4.109,1.789-4.109,4.172c0,2.397,1.741,4.188,4.109,4.188
		S465.883,22.112,465.883,19.715z"/>
	<path d="M496.581,17.705v11.194h-6.323v-10.32c0-2.137-0.803-3.196-2.394-3.196c-1.972,0-3.106,1.377-3.106,3.713v9.804h-6.323
		V10.541h4.436l0.869,1.894c1.367-1.523,3.405-2.437,5.779-2.437C493.781,9.998,496.581,13.028,496.581,17.705z"/>
	<path d="M534.846,9.968c5.653,0,9.646,4.062,9.646,9.767s-3.993,9.767-9.646,9.767c-2.142,0-4.046-0.719-5.538-1.965l-0.596,1.363
		h-4.679V3.912h6.251v7.321C531.598,10.422,533.148,9.969,534.846,9.968L534.846,9.968z M538.109,19.734
		c0-2.397-1.741-4.188-4.109-4.188s-4.109,1.79-4.109,4.188c0,2.378,1.741,4.167,4.109,4.167
		C536.354,23.901,538.109,22.112,538.109,19.734z"/>
	<path d="M568.857,19.547c0,0.553-0.048,1.106-0.131,1.674h-13.631c0.414,2.106,1.751,3.195,3.748,3.195
		c1.477,0,2.711-0.647,3.319-1.722h6.292c-1.292,4.189-5.005,6.808-9.611,6.808c-5.728,0-9.972-4.188-9.972-9.796
		c0-5.628,4.209-9.767,9.972-9.767C564.76,9.939,568.857,14.161,568.857,19.547L568.857,19.547z M555.207,17.72h7.421
		c-0.555-1.835-1.877-2.825-3.786-2.825C557,14.895,555.718,15.896,555.207,17.72z"/>
	<path d="M592.431,17.705v11.194h-6.323v-10.32c0-2.137-0.803-3.196-2.394-3.196c-1.972,0-3.106,1.377-3.106,3.713v9.804h-6.323
		V10.541h4.437l0.868,1.894c1.367-1.523,3.405-2.437,5.779-2.437C589.631,9.998,592.431,13.028,592.431,17.705z"/>
	<path d="M617.68,19.547c0,0.553-0.048,1.106-0.13,1.674h-13.632c0.413,2.106,1.751,3.195,3.748,3.195
		c1.477,0,2.711-0.647,3.318-1.722h6.293c-1.292,4.189-5.006,6.808-9.611,6.808c-5.729,0-9.972-4.188-9.972-9.796
		c0-5.628,4.209-9.767,9.972-9.767C613.583,9.939,617.681,14.161,617.68,19.547L617.68,19.547z M604.029,17.72h7.422
		c-0.556-1.835-1.878-2.825-3.786-2.825C605.822,14.895,604.541,15.896,604.029,17.72z"/>
	<path d="M635.078,15.81h-4.117v13.09h-6.323V15.81h-3.036l-0.014-4.968h3.127V9.084c0-3.679,2.021-5.832,5.914-5.832h4.415v4.851
		h-2.793c-0.938,0-1.498,0.555-1.498,1.493v1.246h4.325V15.81z"/>
	<path d="M640.04,10.541h6.323v18.358h-6.323V10.541z M640.089,2.877h6.227v5.367h-6.227V2.877z"/>
	<path d="M665.272,23.361v5.538h-4.351c-4.06,0-6.527-2.481-6.527-6.562v-6.927h-3.36v-1.479l8.226-8.759h1.299v5.367h4.611v4.87
		h-4.452v5.842c0,1.315,0.794,2.108,2.128,2.108H665.272z"/>
	<path d="M704.17,15.81h-4.117v13.09h-6.323V15.81h-3.036l-0.014-4.968h3.127V9.084c0-3.679,2.021-5.832,5.914-5.832h4.415v4.851
		h-2.793c-0.938,0-1.498,0.555-1.498,1.493v1.246h4.325V15.81z"/>
	<path d="M721.086,10.454v5.786h-2.454c-2.239,0-3.177,0.982-3.177,3.323v9.336h-6.323V10.541h4.236l0.986,2.038
		c1.295-1.498,2.872-2.125,5.057-2.125H721.086z"/>
	<path d="M724.655,19.721c0-5.691,4.308-9.781,10.293-9.781c5.966,0,10.293,4.09,10.293,9.781c0,5.671-4.327,9.78-10.293,9.78
		C728.963,29.501,724.655,25.392,724.655,19.721z M734.948,23.821c2.306,0,3.959-1.673,3.959-4.101c0-2.412-1.653-4.1-3.959-4.1
		s-3.959,1.673-3.959,4.1S732.643,23.82,734.948,23.821L734.948,23.821z"/>
	<path d="M778.876,17.385v11.515h-6.324V18.167c0-1.917-0.705-2.843-2.049-2.843c-1.738,0-2.629,1.197-2.629,3.509v10.066h-6.158
		V18.167c0-1.859-0.701-2.843-2.025-2.843c-1.714,0-2.653,1.227-2.653,3.509v10.066h-6.323V10.541h4.446l0.9,1.973
		c1.326-1.545,3.252-2.516,5.366-2.516c2.238,0,4.122,1.006,5.265,2.703c1.319-1.661,3.353-2.703,5.638-2.703
		C776.262,9.998,778.876,13.063,778.876,17.385z"/>
	<path d="M825.85,10.521V28.88h-4.889l-0.541-1.298c-1.504,1.218-3.407,1.919-5.54,1.919c-5.613,0-9.626-4.095-9.626-9.801
		c0-5.686,4.013-9.731,9.626-9.731c2.162,0,4.094,0.722,5.609,1.973l0.647-1.42H825.85z M819.835,19.715
		c0-2.383-1.741-4.172-4.109-4.172c-2.383,0-4.109,1.789-4.109,4.172c0,2.397,1.741,4.188,4.109,4.188
		S819.835,22.112,819.835,19.715z"/>
	<path d="M832.386,3.912h6.323v24.987h-6.323V3.912z"/>
	<path d="M845.238,3.912h6.323v24.987h-6.323V3.912z"/>
	<path d="M890.217,23.361v5.538h-4.351c-4.06,0-6.527-2.481-6.527-6.562v-6.927h-3.36v-1.479l8.226-8.759h1.299v5.367h4.611v4.87
		h-4.452v5.842c0,1.315,0.794,2.108,2.128,2.108H890.217z"/>
	<path d="M913.866,17.845v11.055h-6.323v-10.32c0-2.117-0.743-3.196-2.394-3.196c-1.913,0-3.106,1.357-3.106,3.713v9.804h-6.323
		V3.912h6.323v7.837c1.352-1.089,3.071-1.751,4.9-1.751C911.158,9.998,913.866,13.086,913.866,17.845z"/>
	<path d="M939.115,19.547c0,0.553-0.048,1.106-0.13,1.674h-13.632c0.413,2.106,1.751,3.195,3.748,3.195
		c1.477,0,2.711-0.647,3.318-1.722h6.293c-1.292,4.189-5.006,6.808-9.611,6.808c-5.729,0-9.972-4.188-9.972-9.796
		c0-5.628,4.209-9.767,9.972-9.767C935.019,9.939,939.116,14.161,939.115,19.547L939.115,19.547z M925.465,17.72h7.422
		c-0.556-1.835-1.878-2.825-3.786-2.825C927.258,14.895,925.977,15.896,925.465,17.72z"/>
	<path d="M977.938,15.81h-4.117v13.09h-6.323V15.81h-3.036l-0.014-4.968h3.127V9.084c0-3.679,2.021-5.832,5.914-5.832h4.415v4.851
		h-2.793c-0.938,0-1.498,0.555-1.498,1.493v1.246h4.325V15.81z"/>
	<path d="M981.491,19.721c0-5.691,4.308-9.781,10.293-9.781c5.966,0,10.293,4.09,10.293,9.781c0,5.671-4.327,9.78-10.293,9.78
		C985.799,29.501,981.491,25.392,981.491,19.721z M991.784,23.821c2.306,0,3.959-1.673,3.959-4.101c0-2.412-1.653-4.1-3.959-4.1
		s-3.959,1.673-3.959,4.1S989.479,23.82,991.784,23.821L991.784,23.821z"/>
	<path d="M1019.504,10.454v5.786h-2.454c-2.239,0-3.177,0.982-3.177,3.323v9.336h-6.323V10.541h4.236l0.986,2.038
		c1.295-1.498,2.872-2.125,5.057-2.125H1019.504z"/>
	<path d="M1043.058,19.547c0,0.553-0.048,1.106-0.13,1.674h-13.632c0.413,2.106,1.751,3.195,3.748,3.195
		c1.477,0,2.711-0.647,3.318-1.722h6.293c-1.292,4.189-5.006,6.808-9.611,6.808c-5.729,0-9.972-4.188-9.972-9.796
		c0-5.628,4.209-9.767,9.972-9.767C1038.961,9.939,1043.059,14.161,1043.058,19.547L1043.058,19.547z M1029.407,17.72h7.422
		c-0.556-1.835-1.878-2.825-3.786-2.825C1031.2,14.895,1029.919,15.896,1029.407,17.72z"/>
	<path d="M1048.485,10.541h6.323v18.358h-6.323V10.541z M1048.534,2.877h6.227v5.367h-6.227V2.877z"/>
	<path d="M1080.324,10.542V26.86c0,5.769-3.776,9.343-9.841,9.343c-5.209,0-8.856-2.627-9.701-6.978h6.103
		c0.438,1.227,2.005,1.888,3.541,1.888c2.118,0,3.821-1.347,3.821-3.529v-0.548c-1.38,0.876-3.019,1.378-4.79,1.378
		c-5.264,0-9.174-3.915-9.174-9.228c0-5.234,3.91-9.232,9.174-9.232c2.222,0,4.234,0.797,5.79,2.128l0.802-1.541L1080.324,10.542z
		 M1070.507,23.208c2.271,0,3.904-1.683,3.904-4.021c0-2.318-1.629-4.001-3.904-4.001c-2.271,0-3.919,1.683-3.919,4.001
		C1066.588,21.525,1068.217,23.208,1070.507,23.208L1070.507,23.208z"/>
	<path d="M1105.018,17.705v11.194h-6.323v-10.32c0-2.137-0.803-3.196-2.394-3.196c-1.972,0-3.106,1.377-3.106,3.713v9.804h-6.323
		V10.541h4.437l0.868,1.894c1.367-1.523,3.405-2.437,5.779-2.437C1102.218,9.998,1105.018,13.028,1105.018,17.705z"/>
	<path d="M1151.386,19.547c0,0.553-0.048,1.106-0.13,1.674h-13.632c0.413,2.106,1.751,3.195,3.748,3.195
		c1.477,0,2.711-0.647,3.318-1.722h6.293c-1.292,4.189-5.006,6.808-9.611,6.808c-5.729,0-9.972-4.188-9.972-9.796
		c0-5.628,4.209-9.767,9.972-9.767C1147.289,9.939,1151.387,14.161,1151.386,19.547L1151.386,19.547z M1137.735,17.72h7.422
		c-0.556-1.835-1.878-2.825-3.786-2.825C1139.528,14.895,1138.247,15.896,1137.735,17.72z"/>
	<path d="M1166.804,28.899l-3.019-5.438l-3.078,5.438h-6.983l6.09-9.524l-5.644-8.834h6.979l2.652,4.624l2.773-4.624h6.883
		l-5.689,8.669l6.101,9.689H1166.804z"/>
	<path d="M1186.398,29.5c-5.888,0-10.138-4.124-10.138-9.805s4.23-9.728,10.157-9.728c5.159,0,9.028,3.253,9.72,8.136h-6.16
		c-0.531-1.498-1.932-2.469-3.58-2.469c-2.222,0-3.803,1.688-3.803,4.08s1.601,4.12,3.803,4.12c1.697,0,3.072-1.04,3.595-2.679
		h6.213C1195.49,26.142,1191.567,29.501,1186.398,29.5L1186.398,29.5z"/>
	<path d="M1219.637,17.845v11.055h-6.323v-10.32c0-2.117-0.743-3.196-2.394-3.196c-1.913,0-3.106,1.357-3.106,3.713v9.804h-6.323
		V3.912h6.323v7.837c1.352-1.089,3.071-1.751,4.9-1.751C1216.929,9.998,1219.637,13.086,1219.637,17.845z"/>
	<path d="M1245.511,10.521V28.88h-4.889l-0.542-1.298c-1.503,1.218-3.406,1.919-5.539,1.919c-5.613,0-9.626-4.095-9.626-9.801
		c0-5.686,4.013-9.731,9.626-9.731c2.162,0,4.094,0.722,5.609,1.973l0.647-1.42H1245.511z M1239.496,19.715
		c0-2.383-1.741-4.172-4.109-4.172c-2.383,0-4.109,1.789-4.109,4.172c0,2.397,1.741,4.188,4.109,4.188
		S1239.496,22.112,1239.496,19.715z"/>
	<path d="M1270.193,17.705v11.194h-6.323v-10.32c0-2.137-0.803-3.196-2.394-3.196c-1.972,0-3.106,1.377-3.106,3.713v9.804h-6.323
		V10.541h4.437l0.868,1.894c1.367-1.523,3.405-2.437,5.779-2.437C1267.394,9.998,1270.193,13.028,1270.193,17.705z"/>
	<path d="M1295.513,10.542V26.86c0,5.769-3.776,9.343-9.841,9.343c-5.209,0-8.856-2.627-9.701-6.978h6.103
		c0.438,1.227,2.005,1.888,3.541,1.888c2.118,0,3.821-1.347,3.821-3.529v-0.548c-1.38,0.876-3.019,1.378-4.79,1.378
		c-5.264,0-9.174-3.915-9.174-9.228c0-5.234,3.91-9.232,9.174-9.232c2.222,0,4.234,0.797,5.79,2.128l0.802-1.541L1295.513,10.542z
		 M1285.695,23.208c2.271,0,3.904-1.683,3.904-4.021c0-2.318-1.629-4.001-3.904-4.001c-2.271,0-3.919,1.683-3.919,4.001
		C1281.776,21.525,1283.404,23.208,1285.695,23.208L1285.695,23.208z"/>
	<path d="M1320.976,19.547c0,0.553-0.048,1.106-0.13,1.674h-13.632c0.413,2.106,1.751,3.195,3.748,3.195
		c1.477,0,2.711-0.647,3.318-1.722h6.293c-1.292,4.189-5.006,6.808-9.611,6.808c-5.729,0-9.972-4.188-9.972-9.796
		c0-5.628,4.209-9.767,9.972-9.767C1316.879,9.939,1320.977,14.161,1320.976,19.547L1320.976,19.547z M1307.325,17.72h7.422
		c-0.556-1.835-1.878-2.825-3.786-2.825C1309.118,14.895,1307.837,15.896,1307.325,17.72z"/>
	<path d="M14.37,64.161v5.538H10.02c-4.06,0-6.527-2.481-6.527-6.562v-6.927h-3.36v-1.479l8.225-8.759h1.299v5.367h4.612v4.87H9.815
		v5.842c0,1.315,0.793,2.108,2.127,2.108H14.37z"/>
	<path d="M31.827,51.254v5.786h-2.455c-2.239,0-3.176,0.982-3.176,3.323v9.336h-6.323V51.341h4.236l0.986,2.038
		c1.295-1.498,2.872-2.125,5.057-2.125H31.827z"/>
	<path d="M56.006,51.321V69.68h-4.888l-0.542-1.298c-1.503,1.218-3.407,1.919-5.54,1.919c-5.613,0-9.626-4.095-9.626-9.801
		c0-5.686,4.013-9.731,9.626-9.731c2.162,0,4.094,0.722,5.609,1.973l0.647-1.42H56.006z M49.992,60.515
		c0-2.383-1.741-4.172-4.109-4.172c-2.383,0-4.109,1.789-4.109,4.172c0,2.397,1.741,4.188,4.109,4.188S49.992,62.912,49.992,60.515z
		"/>
	<path d="M81.932,44.712v24.987h-4.679l-0.597-1.363c-1.494,1.257-3.399,1.984-5.537,1.984c-5.633,0-9.646-4.095-9.646-9.8
		c0-5.706,4.013-9.781,9.646-9.781c1.695,0,3.246,0.457,4.562,1.274v-7.302H81.932z M76.074,60.521c0-2.397-1.741-4.201-4.109-4.201
		s-4.109,1.804-4.109,4.201s1.741,4.201,4.109,4.201S76.074,62.918,76.074,60.521z"/>
	<path d="M88.451,51.341h6.324v18.358h-6.324V51.341z M88.499,43.677h6.227v5.367h-6.227V43.677z"/>
	<path d="M119.449,58.505v11.194h-6.323v-10.32c0-2.137-0.803-3.196-2.394-3.196c-1.972,0-3.106,1.377-3.106,3.713v9.804h-6.323
		V51.341h4.436l0.869,1.894c1.367-1.523,3.405-2.437,5.779-2.437C116.649,50.798,119.449,53.828,119.449,58.505z"/>
	<path d="M144.768,51.342V67.66c0,5.769-3.777,9.343-9.84,9.343c-5.209,0-8.856-2.627-9.701-6.978h6.102
		c0.438,1.227,2.005,1.888,3.541,1.888c2.119,0,3.822-1.347,3.822-3.529v-0.548c-1.38,0.876-3.019,1.378-4.79,1.378
		c-5.264,0-9.174-3.915-9.174-9.228c0-5.234,3.911-9.232,9.174-9.232c2.222,0,4.234,0.797,5.79,2.128l0.802-1.541L144.768,51.342z
		 M134.951,64.008c2.271,0,3.904-1.683,3.904-4.021c0-2.318-1.629-4.001-3.904-4.001c-2.271,0-3.919,1.683-3.919,4.001
		C131.031,62.325,132.66,64.008,134.951,64.008L134.951,64.008z"/>
	<path d="M181.354,60.521c0,5.719-4.013,9.8-9.626,9.8c-1.66,0-3.18-0.437-4.476-1.219v7.227h-6.251V51.341h4.3l0.792,1.459
		c1.51-1.306,3.453-2.061,5.634-2.061C177.342,50.739,181.354,54.801,181.354,60.521z M174.992,60.52
		c0-2.411-1.741-4.201-4.109-4.201c-2.369,0-4.11,1.79-4.11,4.201c0,2.412,1.741,4.201,4.11,4.201
		C173.236,64.721,174.992,62.932,174.992,60.52z"/>
	<path d="M186.808,44.712h6.323v24.987h-6.323V44.712z"/>
	<path d="M219.2,51.321V69.68h-4.888l-0.542-1.298c-1.503,1.218-3.407,1.919-5.54,1.919c-5.613,0-9.626-4.095-9.626-9.801
		c0-5.686,4.013-9.731,9.626-9.731c2.162,0,4.094,0.722,5.609,1.973l0.647-1.42H219.2z M213.186,60.515
		c0-2.383-1.741-4.172-4.109-4.172c-2.383,0-4.109,1.789-4.109,4.172c0,2.397,1.741,4.188,4.109,4.188
		S213.186,62.912,213.186,60.515z"/>
	<path d="M238.118,64.161v5.538h-4.351c-4.06,0-6.527-2.481-6.527-6.562v-6.927h-3.36v-1.479l8.225-8.759h1.299v5.367h4.612v4.87
		h-4.453v5.842c0,1.315,0.793,2.108,2.127,2.108H238.118z"/>
	<path d="M255.895,56.609h-4.117v13.09h-6.323v-13.09h-3.036l-0.015-4.968h3.128v-1.758c0-3.679,2.02-5.832,5.914-5.832h4.415v4.851
		h-2.793c-0.938,0-1.498,0.555-1.498,1.493v1.246h4.325V56.609z"/>
	<path d="M259.449,60.521c0-5.691,4.308-9.781,10.293-9.781c5.966,0,10.292,4.09,10.292,9.781c0,5.671-4.327,9.78-10.292,9.78
		C263.756,70.301,259.449,66.191,259.449,60.521z M269.742,64.621c2.306,0,3.959-1.673,3.959-4.101c0-2.412-1.653-4.1-3.959-4.1
		s-3.959,1.673-3.959,4.1S267.436,64.62,269.742,64.621L269.742,64.621z"/>
	<path d="M297.462,51.254v5.786h-2.455c-2.239,0-3.176,0.982-3.176,3.323v9.336h-6.323V51.341h4.236l0.986,2.038
		c1.295-1.498,2.872-2.125,5.057-2.125H297.462z"/>
	<path d="M330.567,58.185v11.515h-6.323V58.967c0-1.917-0.706-2.843-2.049-2.843c-1.738,0-2.629,1.197-2.629,3.509v10.066h-6.159
		V58.967c0-1.859-0.701-2.843-2.024-2.843c-1.714,0-2.654,1.227-2.654,3.509v10.066h-6.323V51.341h4.446l0.9,1.973
		c1.326-1.546,3.251-2.516,5.366-2.516c2.238,0,4.123,1.006,5.265,2.703c1.319-1.661,3.352-2.703,5.638-2.703
		C327.954,50.798,330.567,53.862,330.567,58.185z"/>
	<path d="M370.867,56.98c0,7.787-5.083,13.319-12.536,13.319c-7.292,0-12.678-5.24-12.678-12.48s5.288-12.52,12.619-12.52
		c6.238,0,11.34,3.903,12.347,9.434h-6.871c-0.861-2.005-2.991-3.294-5.417-3.294c-3.564,0-5.967,2.578-5.967,6.38
		c0,3.764,2.364,6.342,5.967,6.342c2.502,0,4.647-1.211,5.396-3.046h-5.911v-4.134L370.867,56.98z"/>
	<path d="M397.1,45.901v23.798h-6.614v-9.136h-7.142v9.136h-6.614V45.901h6.614v8.586h7.142v-8.586H397.1z"/>
	<path d="M422.082,51.805h-6.464v17.895h-6.585V51.805h-6.465v-5.903h19.514V51.805z"/>
	<path d="M453.279,51.805h-6.464v17.895h-6.585V51.805h-6.465v-5.903h19.514V51.805z"/>
	<path d="M469.687,51.254v5.786h-2.455c-2.239,0-3.176,0.982-3.176,3.323v9.336h-6.323V51.341h4.236l0.986,2.038
		c1.295-1.498,2.872-2.125,5.057-2.125H469.687z"/>
	<path d="M493.865,51.321V69.68h-4.889l-0.542-1.298c-1.503,1.218-3.407,1.919-5.54,1.919c-5.613,0-9.626-4.095-9.626-9.801
		c0-5.686,4.013-9.731,9.626-9.731c2.162,0,4.094,0.722,5.609,1.973l0.647-1.42H493.865z M487.851,60.515
		c0-2.383-1.741-4.172-4.109-4.172c-2.383,0-4.109,1.789-4.109,4.172c0,2.397,1.741,4.188,4.109,4.188
		S487.851,62.912,487.851,60.515z"/>
	<path d="M519.791,44.712v24.987h-4.68l-0.596-1.363c-1.494,1.257-3.399,1.984-5.537,1.984c-5.633,0-9.646-4.095-9.646-9.8
		c0-5.706,4.013-9.781,9.646-9.781c1.695,0,3.246,0.457,4.562,1.274v-7.302H519.791z M513.933,60.521
		c0-2.397-1.741-4.201-4.109-4.201s-4.109,1.804-4.109,4.201s1.741,4.201,4.109,4.201S513.933,62.918,513.933,60.521z"/>
	<path d="M545.226,60.347c0,0.553-0.048,1.106-0.13,1.674h-13.631c0.414,2.106,1.751,3.195,3.748,3.195
		c1.477,0,2.711-0.647,3.319-1.722h6.292c-1.292,4.189-5.005,6.808-9.611,6.808c-5.728,0-9.972-4.188-9.972-9.796
		c0-5.628,4.209-9.767,9.972-9.767C541.129,50.739,545.226,54.961,545.226,60.347L545.226,60.347z M531.575,58.52h7.421
		c-0.555-1.835-1.877-2.825-3.786-2.825C533.368,55.694,532.087,56.695,531.575,58.52z"/>
	<path d="M562.607,51.254v5.786h-2.455c-2.239,0-3.176,0.982-3.176,3.323v9.336h-6.323V51.341h4.236l0.986,2.038
		c1.295-1.498,2.872-2.125,5.057-2.125H562.607z"/>
	<path d="M588.73,56.609h-4.117v13.09h-6.323v-13.09h-3.036l-0.014-4.968h3.127v-1.758c0-3.679,2.021-5.832,5.914-5.832h4.415v4.851
		h-2.793c-0.938,0-1.498,0.555-1.498,1.493v1.246h4.325V56.609z"/>
	<path d="M593.454,61.818V51.341h6.323v10.202c0,1.938,1.042,3.077,2.731,3.077s2.711-1.158,2.711-3.077V51.341h6.324v10.478
		c0,5.137-3.612,8.482-9.035,8.482S593.454,66.955,593.454,61.818z"/>
	<path d="M635.979,58.505v11.194h-6.323v-10.32c0-2.137-0.803-3.196-2.394-3.196c-1.972,0-3.106,1.377-3.106,3.713v9.804h-6.323
		V51.341h4.437l0.868,1.894c1.367-1.523,3.405-2.437,5.779-2.437C633.179,50.798,635.979,53.828,635.979,58.505z"/>
	<path d="M651.395,70.3c-5.888,0-10.138-4.124-10.138-9.805s4.23-9.728,10.157-9.728c5.159,0,9.028,3.253,9.72,8.136h-6.16
		c-0.531-1.498-1.932-2.469-3.58-2.469c-2.222,0-3.803,1.688-3.803,4.08s1.601,4.12,3.803,4.12c1.697,0,3.072-1.04,3.595-2.679
		h6.213C660.486,66.941,656.563,70.301,651.395,70.3L651.395,70.3z"/>
	<path d="M678.696,64.161v5.538h-4.351c-4.06,0-6.527-2.481-6.527-6.562v-6.927h-3.36v-1.479l8.226-8.759h1.299v5.367h4.611v4.87
		h-4.452v5.842c0,1.315,0.794,2.108,2.128,2.108H678.696z"/>
	<path d="M684.199,51.341h6.323v18.358h-6.323V51.341z M684.248,43.677h6.227v5.367h-6.227V43.677z"/>
	<path d="M695.981,60.521c0-5.691,4.308-9.781,10.293-9.781c5.966,0,10.293,4.09,10.293,9.781c0,5.671-4.327,9.78-10.293,9.78
		C700.289,70.301,695.981,66.191,695.981,60.521z M706.274,64.621c2.306,0,3.959-1.673,3.959-4.101c0-2.412-1.653-4.1-3.959-4.1
		s-3.959,1.673-3.959,4.1S703.969,64.62,706.274,64.621L706.274,64.621z"/>
	<path d="M740.187,58.505v11.194h-6.323v-10.32c0-2.137-0.803-3.196-2.394-3.196c-1.972,0-3.106,1.377-3.106,3.713v9.804h-6.323
		V51.341h4.437l0.868,1.894c1.367-1.523,3.405-2.437,5.779-2.437C737.387,50.798,740.187,53.828,740.187,58.505z"/>
	<path d="M753.604,70.301c-5.004,0-8.045-2.643-8.103-6.62h6.086c0,1.343,0.935,1.96,2.134,1.96c0.925,0,1.802-0.472,1.802-1.42
		c0-1.06-1.39-1.361-3.153-1.653c-2.847-0.461-6.62-1.32-6.62-5.772c0-3.68,3.136-6.056,7.84-6.056c4.675,0,7.704,2.487,7.776,6.207
		h-5.922c0-1.173-0.787-1.718-1.934-1.718c-1.014,0-1.694,0.502-1.694,1.354c0,1.044,1.404,1.287,3.148,1.599
		c2.899,0.515,6.755,1.117,6.755,5.773C761.719,67.79,758.481,70.301,753.604,70.301L753.604,70.301z"/>
	<path d="M767.25,72.513c1.828-0.161,2.696-1.362,2.696-2.813h-2.954v-5.874h6.174V69.2c0,3.699-2.403,6.129-5.916,6.444V72.513z"/>
	<path d="M788.082,60.521c0-5.691,4.308-9.781,10.293-9.781c5.966,0,10.293,4.09,10.293,9.781c0,5.671-4.327,9.78-10.293,9.78
		C792.39,70.301,788.082,66.191,788.082,60.521z M798.375,64.621c2.306,0,3.959-1.673,3.959-4.101c0-2.412-1.653-4.1-3.959-4.1
		s-3.959,1.673-3.959,4.1S796.069,64.62,798.375,64.621L798.375,64.621z"/>
	<path d="M813.903,61.818V51.341h6.323v10.202c0,1.938,1.042,3.077,2.731,3.077s2.711-1.158,2.711-3.077V51.341h6.324v10.478
		c0,5.137-3.612,8.482-9.035,8.482S813.903,66.955,813.903,61.818z"/>
	<path d="M850.235,51.254v5.786h-2.454c-2.239,0-3.177,0.982-3.177,3.323v9.336h-6.323V51.341h4.236l0.986,2.038
		c1.295-1.498,2.872-2.125,5.057-2.125H850.235z"/>
	<path d="M873.167,70.3c-5.888,0-10.138-4.124-10.138-9.805s4.23-9.728,10.157-9.728c5.159,0,9.028,3.253,9.72,8.136h-6.16
		c-0.531-1.498-1.932-2.469-3.58-2.469c-2.222,0-3.803,1.688-3.803,4.08s1.601,4.12,3.803,4.12c1.697,0,3.072-1.04,3.595-2.679
		h6.213C882.259,66.941,878.336,70.301,873.167,70.3L873.167,70.3z"/>
	<path d="M887.188,60.521c0-5.691,4.308-9.781,10.293-9.781c5.966,0,10.293,4.09,10.293,9.781c0,5.671-4.327,9.78-10.293,9.78
		C891.496,70.301,887.188,66.191,887.188,60.521z M897.481,64.621c2.306,0,3.959-1.673,3.959-4.101c0-2.412-1.653-4.1-3.959-4.1
		s-3.959,1.673-3.959,4.1S895.176,64.62,897.481,64.621L897.481,64.621z"/>
	<path d="M941.409,58.185v11.515h-6.324V58.967c0-1.917-0.705-2.843-2.049-2.843c-1.738,0-2.629,1.197-2.629,3.509v10.066h-6.158
		V58.967c0-1.859-0.701-2.843-2.025-2.843c-1.714,0-2.653,1.227-2.653,3.509v10.066h-6.323V51.341h4.446l0.9,1.973
		c1.326-1.546,3.252-2.516,5.366-2.516c2.238,0,4.122,1.006,5.265,2.703c1.319-1.661,3.353-2.703,5.638-2.703
		C938.795,50.798,941.409,53.862,941.409,58.185z"/>
	<path d="M968.075,60.521c0,5.719-4.013,9.8-9.626,9.8c-1.66,0-3.18-0.437-4.476-1.219v7.227h-6.251V51.341h4.3l0.792,1.459
		c1.51-1.306,3.453-2.061,5.635-2.061C964.063,50.739,968.075,54.801,968.075,60.521z M961.713,60.52
		c0-2.411-1.741-4.201-4.109-4.201c-2.369,0-4.109,1.79-4.109,4.201c0,2.412,1.74,4.201,4.109,4.201
		C959.957,64.721,961.713,62.932,961.713,60.52z"/>
	<path d="M992.444,60.347c0,0.553-0.048,1.106-0.13,1.674h-13.632c0.413,2.106,1.751,3.195,3.748,3.195
		c1.477,0,2.711-0.647,3.318-1.722h6.293c-1.292,4.189-5.006,6.808-9.611,6.808c-5.729,0-9.972-4.188-9.972-9.796
		c0-5.628,4.209-9.767,9.972-9.767C988.348,50.739,992.445,54.961,992.444,60.347L992.444,60.347z M978.794,58.52h7.422
		c-0.556-1.835-1.878-2.825-3.786-2.825C980.587,55.694,979.306,56.695,978.794,58.52z"/>
	<path d="M1009.981,64.161v5.538h-4.351c-4.06,0-6.527-2.481-6.527-6.562v-6.927h-3.36v-1.479l8.226-8.759h1.299v5.367h4.611v4.87
		h-4.452v5.842c0,1.315,0.794,2.108,2.128,2.108H1009.981z"/>
	<path d="M1015.484,51.341h6.323v18.358h-6.323V51.341z M1015.533,43.677h6.227v5.367h-6.227V43.677z"/>
	<path d="M1040.717,64.161v5.538h-4.351c-4.06,0-6.527-2.481-6.527-6.562v-6.927h-3.36v-1.479l8.226-8.759h1.299v5.367h4.611v4.87
		h-4.452v5.842c0,1.315,0.794,2.108,2.128,2.108H1040.717z"/>
	<path d="M1046.22,51.341h6.323v18.358h-6.323V51.341z M1046.269,43.677h6.227v5.367h-6.227V43.677z"/>
	<path d="M1077.68,51.341l-7.38,18.358h-5.729l-7.479-18.358h6.929l3.47,10.873l3.431-10.873H1077.68z"/>
	<path d="M1100.36,60.347c0,0.553-0.048,1.106-0.13,1.674h-13.632c0.413,2.106,1.751,3.195,3.748,3.195
		c1.477,0,2.711-0.647,3.318-1.722h6.293c-1.292,4.189-5.006,6.808-9.611,6.808c-5.729,0-9.972-4.188-9.972-9.796
		c0-5.628,4.209-9.767,9.972-9.767C1096.264,50.739,1100.361,54.961,1100.36,60.347L1100.36,60.347z M1086.71,58.52h7.422
		c-0.556-1.835-1.878-2.825-3.786-2.825C1088.503,55.694,1087.222,56.695,1086.71,58.52z"/>
	<path d="M1135.826,60.521c0,5.719-4.013,9.8-9.626,9.8c-1.66,0-3.18-0.437-4.476-1.219v7.227h-6.251V51.341h4.3l0.792,1.459
		c1.51-1.306,3.453-2.061,5.635-2.061C1131.813,50.739,1135.826,54.801,1135.826,60.521z M1129.464,60.52
		c0-2.411-1.741-4.201-4.109-4.201c-2.369,0-4.109,1.79-4.109,4.201c0,2.412,1.74,4.201,4.109,4.201
		C1127.708,64.721,1129.464,62.932,1129.464,60.52z"/>
	<path d="M1153.234,51.254v5.786h-2.454c-2.239,0-3.177,0.982-3.177,3.323v9.336h-6.323V51.341h4.236l0.986,2.038
		c1.295-1.498,2.872-2.125,5.057-2.125H1153.234z"/>
	<path d="M1158.178,51.341h6.323v18.358h-6.323V51.341z M1158.227,43.677h6.227v5.367h-6.227V43.677z"/>
	<path d="M1180.112,70.3c-5.888,0-10.138-4.124-10.138-9.805s4.23-9.728,10.157-9.728c5.159,0,9.028,3.253,9.72,8.136h-6.16
		c-0.531-1.498-1.932-2.469-3.58-2.469c-2.222,0-3.803,1.688-3.803,4.08s1.601,4.12,3.803,4.12c1.697,0,3.072-1.04,3.595-2.679
		h6.213C1189.204,66.941,1185.281,70.301,1180.112,70.3L1180.112,70.3z"/>
	<path d="M1214.119,60.347c0,0.553-0.048,1.106-0.13,1.674h-13.632c0.413,2.106,1.751,3.195,3.748,3.195
		c1.477,0,2.711-0.647,3.318-1.722h6.293c-1.292,4.189-5.006,6.808-9.611,6.808c-5.729,0-9.972-4.188-9.972-9.796
		c0-5.628,4.209-9.767,9.972-9.767C1210.022,50.739,1214.12,54.961,1214.119,60.347L1214.119,60.347z M1200.469,58.52h7.422
		c-0.556-1.835-1.878-2.825-3.786-2.825C1202.262,55.694,1200.98,56.695,1200.469,58.52z"/>
	<path d="M1226.63,70.301c-5.004,0-8.045-2.643-8.103-6.62h6.086c0,1.343,0.935,1.96,2.134,1.96c0.925,0,1.802-0.472,1.802-1.42
		c0-1.06-1.39-1.361-3.153-1.653c-2.847-0.461-6.62-1.32-6.62-5.772c0-3.68,3.136-6.056,7.84-6.056c4.675,0,7.704,2.487,7.776,6.207
		h-5.922c0-1.173-0.787-1.718-1.934-1.718c-1.014,0-1.694,0.502-1.694,1.354c0,1.044,1.404,1.287,3.148,1.599
		c2.899,0.515,6.756,1.117,6.756,5.773C1234.746,67.79,1231.508,70.301,1226.63,70.301L1226.63,70.301z"/>
	<path d="M1269.48,51.321V69.68h-4.889l-0.541-1.298c-1.504,1.218-3.407,1.919-5.54,1.919c-5.613,0-9.626-4.095-9.626-9.801
		c0-5.686,4.013-9.731,9.626-9.731c2.162,0,4.094,0.722,5.609,1.973l0.647-1.42H1269.48z M1263.466,60.515
		c0-2.383-1.741-4.172-4.109-4.172c-2.383,0-4.109,1.789-4.109,4.172c0,2.397,1.741,4.188,4.109,4.188
		S1263.466,62.912,1263.466,60.515z"/>
	<path d="M1294.163,58.505v11.194h-6.323v-10.32c0-2.137-0.803-3.196-2.394-3.196c-1.972,0-3.106,1.377-3.106,3.713v9.804h-6.323
		V51.341h4.437l0.868,1.894c1.367-1.523,3.405-2.437,5.779-2.437C1291.363,50.798,1294.163,53.828,1294.163,58.505z"/>
	<path d="M1319.887,44.712v24.987h-4.68l-0.596-1.363c-1.494,1.257-3.399,1.984-5.538,1.984c-5.633,0-9.646-4.095-9.646-9.8
		c0-5.706,4.013-9.781,9.646-9.781c1.695,0,3.246,0.457,4.563,1.274v-7.302H1319.887z M1314.029,60.521
		c0-2.397-1.741-4.201-4.109-4.201c-2.369,0-4.11,1.804-4.11,4.201s1.741,4.201,4.11,4.201
		C1312.288,64.722,1314.029,62.918,1314.029,60.521z"/>
	<path d="M9.072,111.102c-5.003,0-8.044-2.643-8.102-6.62h6.086c0,1.343,0.935,1.96,2.133,1.96c0.925,0,1.802-0.472,1.802-1.42
		c0-1.06-1.39-1.361-3.153-1.653c-2.847-0.461-6.62-1.32-6.62-5.772c0-3.68,3.136-6.056,7.84-6.056c4.675,0,7.705,2.487,7.776,6.207
		h-5.921c0-1.173-0.788-1.718-1.934-1.718c-1.014,0-1.695,0.502-1.695,1.354c0,1.044,1.404,1.287,3.148,1.599
		c2.9,0.515,6.756,1.117,6.756,5.773C17.188,108.591,13.95,111.102,9.072,111.102L9.072,111.102z"/>
	<path d="M41.611,101.147c0,0.553-0.048,1.106-0.131,1.674H27.849c0.414,2.106,1.751,3.195,3.748,3.195
		c1.477,0,2.711-0.647,3.319-1.722h6.292c-1.292,4.189-5.005,6.808-9.611,6.808c-5.728,0-9.972-4.188-9.972-9.796
		c0-5.628,4.209-9.767,9.972-9.767C37.514,91.54,41.611,95.762,41.611,101.147L41.611,101.147z M27.96,99.32h7.421
		c-0.555-1.835-1.877-2.825-3.786-2.825C29.753,96.495,28.472,97.496,27.96,99.32z"/>
	<path d="M58.993,92.055v5.786h-2.455c-2.239,0-3.176,0.982-3.176,3.323v9.336h-6.323V92.142h4.236l0.986,2.038
		c1.295-1.498,2.872-2.125,5.057-2.125H58.993z"/>
	<path d="M82.68,92.142L75.3,110.5h-5.728l-7.478-18.358h6.928l3.47,10.873l3.431-10.873H82.68z"/>
	<path d="M87.26,92.142h6.324V110.5H87.26V92.142z M87.308,84.478h6.227v5.367h-6.227V84.478z"/>
	<path d="M109.194,111.101c-5.887,0-10.137-4.124-10.137-9.805s4.229-9.728,10.156-9.728c5.159,0,9.029,3.253,9.72,8.136h-6.16
		c-0.532-1.498-1.932-2.469-3.58-2.469c-2.222,0-3.804,1.688-3.804,4.08s1.601,4.12,3.804,4.12c1.697,0,3.072-1.04,3.594-2.679
		h6.213C118.286,107.742,114.363,111.102,109.194,111.101L109.194,111.101z"/>
	<path d="M143.201,101.147c0,0.553-0.048,1.106-0.131,1.674h-13.631c0.414,2.106,1.751,3.195,3.748,3.195
		c1.477,0,2.711-0.647,3.319-1.722h6.292c-1.292,4.189-5.005,6.808-9.611,6.808c-5.728,0-9.972-4.188-9.972-9.796
		c0-5.628,4.209-9.767,9.972-9.767C139.104,91.54,143.201,95.762,143.201,101.147L143.201,101.147z M129.55,99.32h7.421
		c-0.555-1.835-1.877-2.825-3.786-2.825C131.343,96.495,130.062,97.496,129.55,99.32z"/>
	<path d="M155.711,111.102c-5.003,0-8.044-2.643-8.102-6.62h6.086c0,1.343,0.935,1.96,2.133,1.96c0.925,0,1.802-0.472,1.802-1.42
		c0-1.06-1.39-1.361-3.153-1.653c-2.847-0.461-6.62-1.32-6.62-5.772c0-3.68,3.136-6.056,7.839-6.056
		c4.675,0,7.705,2.487,7.777,6.207h-5.921c0-1.173-0.788-1.718-1.934-1.718c-1.014,0-1.695,0.502-1.695,1.354
		c0,1.044,1.404,1.287,3.148,1.599c2.9,0.515,6.756,1.117,6.756,5.773C163.827,108.591,160.589,111.102,155.711,111.102
		L155.711,111.102z"/>
	<path d="M169.1,104.626h6.134v5.874H169.1V104.626z"/>
	<path d="M211.768,104.496v6.004h-15.112V86.702h6.643v17.794H211.768z"/>
	<path d="M223.873,92.635v3.787h7.647v5.738h-7.647v8.34h-6.614V86.702h15.145v5.933H223.873z"/>
	<path d="M262.192,97.781c0,7.787-5.083,13.319-12.536,13.319c-7.292,0-12.678-5.24-12.678-12.48s5.288-12.52,12.619-12.52
		c6.238,0,11.34,3.903,12.347,9.434h-6.871c-0.861-2.005-2.991-3.294-5.417-3.294c-3.564,0-5.967,2.578-5.967,6.38
		c0,3.764,2.364,6.342,5.967,6.342c2.502,0,4.647-1.211,5.396-3.046h-5.911v-4.134L262.192,97.781z"/>
	<path d="M299.337,92.605h-6.464V110.5h-6.585V92.605h-6.465v-5.903h19.514V92.605z"/>
	<path d="M315.744,92.055v5.786h-2.455c-2.239,0-3.176,0.982-3.176,3.323v9.336h-6.323V92.142h4.236l0.986,2.038
		c1.295-1.498,2.872-2.125,5.057-2.125H315.744z"/>
	<path d="M339.923,92.122v18.358h-4.888l-0.542-1.298c-1.503,1.218-3.407,1.919-5.54,1.919c-5.613,0-9.626-4.095-9.626-9.801
		c0-5.686,4.013-9.731,9.626-9.731c2.162,0,4.094,0.722,5.609,1.973l0.647-1.42H339.923z M333.909,101.315
		c0-2.383-1.741-4.172-4.109-4.172c-2.383,0-4.109,1.789-4.109,4.172c0,2.397,1.741,4.188,4.109,4.188
		S333.909,103.713,333.909,101.315z"/>
	<path d="M365.849,85.513V110.5h-4.679l-0.597-1.363c-1.494,1.257-3.399,1.984-5.537,1.984c-5.633,0-9.646-4.095-9.646-9.8
		c0-5.706,4.013-9.781,9.646-9.781c1.695,0,3.246,0.457,4.562,1.274v-7.302H365.849z M359.991,101.321
		c0-2.397-1.741-4.201-4.109-4.201s-4.109,1.804-4.109,4.201s1.741,4.201,4.109,4.201S359.991,103.719,359.991,101.321z"/>
	<path d="M391.284,101.147c0,0.553-0.048,1.106-0.131,1.674h-13.631c0.414,2.106,1.751,3.195,3.748,3.195
		c1.477,0,2.711-0.647,3.319-1.722h6.292c-1.292,4.189-5.005,6.808-9.611,6.808c-5.728,0-9.972-4.188-9.972-9.796
		c0-5.628,4.209-9.767,9.972-9.767C387.187,91.54,391.284,95.762,391.284,101.147L391.284,101.147z M377.633,99.32h7.421
		c-0.555-1.835-1.877-2.825-3.786-2.825C379.426,96.495,378.145,97.496,377.633,99.32z"/>
	<path d="M408.666,92.055v5.786h-2.455c-2.239,0-3.176,0.982-3.176,3.323v9.336h-6.323V92.142h4.236l0.986,2.038
		c1.295-1.498,2.872-2.125,5.057-2.125H408.666z"/>
	<path d="M420.623,111.102c-5.003,0-8.044-2.643-8.102-6.62h6.086c0,1.343,0.935,1.96,2.133,1.96c0.925,0,1.802-0.472,1.802-1.42
		c0-1.06-1.39-1.361-3.153-1.653c-2.847-0.461-6.62-1.32-6.62-5.772c0-3.68,3.136-6.056,7.839-6.056
		c4.675,0,7.705,2.487,7.777,6.207h-5.921c0-1.173-0.788-1.718-1.934-1.718c-1.014,0-1.695,0.502-1.695,1.354
		c0,1.044,1.404,1.287,3.148,1.599c2.9,0.515,6.756,1.117,6.756,5.773C428.739,108.591,425.501,111.102,420.623,111.102
		L420.623,111.102z"/>
	<path d="M467.198,99.445V110.5h-6.323v-10.32c0-2.117-0.744-3.196-2.394-3.196c-1.914,0-3.106,1.357-3.106,3.713v9.804h-6.323
		V85.513h6.323v7.837c1.352-1.089,3.071-1.751,4.9-1.751C464.489,91.599,467.198,94.687,467.198,99.445z"/>
	<path d="M473.531,92.142h6.324V110.5h-6.324V92.142z M473.579,84.478h6.227v5.367h-6.227V84.478z"/>
	<path d="M505.369,92.143v16.318c0,5.769-3.777,9.343-9.84,9.343c-5.209,0-8.856-2.627-9.701-6.978h6.102
		c0.438,1.227,2.005,1.888,3.541,1.888c2.119,0,3.822-1.347,3.822-3.529v-0.548c-1.38,0.876-3.019,1.378-4.79,1.378
		c-5.264,0-9.174-3.915-9.174-9.228c0-5.234,3.911-9.232,9.174-9.232c2.222,0,4.234,0.797,5.79,2.128l0.802-1.541L505.369,92.143z
		 M495.551,104.809c2.271,0,3.904-1.683,3.904-4.021c0-2.318-1.629-4.001-3.904-4.001c-2.271,0-3.919,1.683-3.919,4.001
		C491.632,103.126,493.261,104.809,495.551,104.809L495.551,104.809z"/>
	<path d="M530.063,99.445V110.5h-6.323v-10.32c0-2.117-0.744-3.196-2.394-3.196c-1.914,0-3.106,1.357-3.106,3.713v9.804h-6.323
		V85.513h6.323v7.837c1.352-1.089,3.071-1.751,4.9-1.751C527.354,91.599,530.063,94.687,530.063,99.445z"/>
	<path d="M536.396,85.513h6.323V110.5h-6.323V85.513z"/>
	<path d="M568.441,92.142l-7.695,17.541c-2.475,5.619-4.749,7.648-9.489,7.648h-2.165v-5.434h1.739c2.419,0,3.149-0.63,4.005-2.914
		l-7.586-16.842h6.872l3.896,10.113l3.63-10.113H568.441z"/>
	<path d="M586.935,92.142h6.323V110.5h-6.323V92.142z M586.983,84.478h6.227v5.367h-6.227V84.478z"/>
	<path d="M617.933,99.306V110.5h-6.323v-10.32c0-2.137-0.803-3.196-2.394-3.196c-1.972,0-3.106,1.377-3.106,3.713v9.804h-6.323
		V92.142h4.437l0.868,1.894c1.367-1.523,3.405-2.437,5.779-2.437C615.133,91.599,617.933,94.629,617.933,99.306z"/>
	<path d="M636.511,104.962v5.538h-4.351c-4.06,0-6.527-2.481-6.527-6.562v-6.927h-3.36v-1.479l8.226-8.759h1.299v5.367h4.611v4.87
		h-4.452v5.842c0,1.315,0.794,2.108,2.128,2.108H636.511z"/>
	<path d="M641.775,102.619V92.142h6.323v10.202c0,1.938,1.042,3.077,2.731,3.077s2.711-1.158,2.711-3.077V92.142h6.324v10.478
		c0,5.137-3.612,8.482-9.035,8.482S641.775,107.756,641.775,102.619z"/>
	<path d="M666.153,92.142h6.323V110.5h-6.323V92.142z M666.202,84.478h6.227v5.367h-6.227V84.478z"/>
	<path d="M691.387,104.962v5.538h-4.351c-4.06,0-6.527-2.481-6.527-6.562v-6.927h-3.36v-1.479l8.226-8.759h1.299v5.367h4.611v4.87
		h-4.452v5.842c0,1.315,0.794,2.108,2.128,2.108H691.387z"/>
	<path d="M696.89,92.142h6.323V110.5h-6.323V92.142z M696.938,84.478h6.227v5.367h-6.227V84.478z"/>
	<path d="M728.35,92.142l-7.38,18.358h-5.729l-7.479-18.358h6.929l3.47,10.873l3.431-10.873H728.35z"/>
	<path d="M751.03,101.147c0,0.553-0.048,1.106-0.13,1.674h-13.632c0.413,2.106,1.751,3.195,3.748,3.195
		c1.477,0,2.711-0.647,3.318-1.722h6.293c-1.292,4.189-5.006,6.808-9.611,6.808c-5.729,0-9.972-4.188-9.972-9.796
		c0-5.628,4.209-9.767,9.972-9.767C746.934,91.54,751.031,95.762,751.03,101.147L751.03,101.147z M737.38,99.32h7.422
		c-0.556-1.835-1.878-2.825-3.786-2.825C739.173,96.495,737.892,97.496,737.38,99.32z"/>
	<path d="M790.803,92.122v18.358h-4.889l-0.541-1.298c-1.504,1.218-3.407,1.919-5.54,1.919c-5.613,0-9.626-4.095-9.626-9.801
		c0-5.686,4.013-9.731,9.626-9.731c2.162,0,4.094,0.722,5.609,1.973l0.647-1.42H790.803z M784.788,101.315
		c0-2.383-1.741-4.172-4.109-4.172c-2.383,0-4.109,1.789-4.109,4.172c0,2.397,1.741,4.188,4.109,4.188
		S784.788,103.713,784.788,101.315z"/>
	<path d="M815.486,99.306V110.5h-6.323v-10.32c0-2.137-0.803-3.196-2.394-3.196c-1.972,0-3.106,1.377-3.106,3.713v9.804h-6.323
		V92.142h4.437l0.868,1.894c1.367-1.523,3.405-2.437,5.779-2.437C812.687,91.599,815.486,94.629,815.486,99.306z"/>
	<path d="M841.209,85.513V110.5h-4.68l-0.596-1.363c-1.494,1.257-3.399,1.984-5.538,1.984c-5.633,0-9.646-4.095-9.646-9.8
		c0-5.706,4.013-9.781,9.646-9.781c1.695,0,3.246,0.457,4.563,1.274v-7.302H841.209z M835.352,101.321
		c0-2.397-1.741-4.201-4.109-4.201c-2.369,0-4.11,1.804-4.11,4.201s1.741,4.201,4.11,4.201
		C833.61,105.522,835.352,103.719,835.352,101.321z"/>
	<path d="M862.293,102.619V92.142h6.323v10.202c0,1.938,1.042,3.077,2.731,3.077s2.711-1.158,2.711-3.077V92.142h6.324v10.478
		c0,5.137-3.612,8.482-9.035,8.482S862.293,107.756,862.293,102.619z"/>
	<path d="M893.754,111.102c-5.004,0-8.045-2.643-8.103-6.62h6.086c0,1.343,0.935,1.96,2.134,1.96c0.925,0,1.802-0.472,1.802-1.42
		c0-1.06-1.39-1.361-3.153-1.653c-2.847-0.461-6.62-1.32-6.62-5.772c0-3.68,3.136-6.056,7.84-6.056c4.675,0,7.704,2.487,7.776,6.207
		h-5.922c0-1.173-0.787-1.718-1.934-1.718c-1.014,0-1.694,0.502-1.694,1.354c0,1.044,1.404,1.287,3.148,1.599
		c2.899,0.515,6.755,1.117,6.755,5.773C901.869,108.591,898.632,111.102,893.754,111.102L893.754,111.102z"/>
	<path d="M926.293,101.147c0,0.553-0.048,1.106-0.13,1.674h-13.632c0.413,2.106,1.751,3.195,3.748,3.195
		c1.477,0,2.711-0.647,3.318-1.722h6.293c-1.292,4.189-5.006,6.808-9.611,6.808c-5.729,0-9.972-4.188-9.972-9.796
		c0-5.628,4.209-9.767,9.972-9.767C922.196,91.54,926.294,95.762,926.293,101.147L926.293,101.147z M912.643,99.32h7.422
		c-0.556-1.835-1.878-2.825-3.786-2.825C914.436,96.495,913.154,97.496,912.643,99.32z"/>
	<path d="M943.675,92.055v5.786h-2.454c-2.239,0-3.177,0.982-3.177,3.323v9.336h-6.323V92.142h4.236l0.986,2.038
		c1.295-1.498,2.872-2.125,5.057-2.125H943.675z"/>
	<path d="M948.007,98.219h12.448v5.745h-12.448V98.219z"/>
	<path d="M978.778,97.41h-4.117v13.09h-6.323V97.41h-3.036l-0.014-4.968h3.127v-1.758c0-3.679,2.021-5.832,5.914-5.832h4.415v4.851
		h-2.793c-0.938,0-1.498,0.555-1.498,1.493v1.246h4.325V97.41z"/>
	<path d="M995.694,92.055v5.786h-2.454c-2.239,0-3.177,0.982-3.177,3.323v9.336h-6.323V92.142h4.236l0.986,2.038
		c1.295-1.498,2.872-2.125,5.057-2.125H995.694z"/>
	<path d="M1000.638,92.142h6.323V110.5h-6.323V92.142z M1000.687,84.478h6.227v5.367h-6.227V84.478z"/>
	<path d="M1032.405,101.147c0,0.553-0.048,1.106-0.13,1.674h-13.632c0.413,2.106,1.751,3.195,3.748,3.195
		c1.477,0,2.711-0.647,3.318-1.722h6.293c-1.292,4.189-5.006,6.808-9.611,6.808c-5.729,0-9.972-4.188-9.972-9.796
		c0-5.628,4.209-9.767,9.972-9.767C1028.309,91.54,1032.406,95.762,1032.405,101.147L1032.405,101.147z M1018.755,99.32h7.422
		c-0.556-1.835-1.878-2.825-3.786-2.825C1020.548,96.495,1019.267,97.496,1018.755,99.32z"/>
	<path d="M1055.98,99.306V110.5h-6.323v-10.32c0-2.137-0.803-3.196-2.394-3.196c-1.972,0-3.106,1.377-3.106,3.713v9.804h-6.323
		V92.142h4.437l0.868,1.894c1.367-1.523,3.405-2.437,5.779-2.437C1053.181,91.599,1055.98,94.629,1055.98,99.306z"/>
	<path d="M1081.703,85.513V110.5h-4.68l-0.596-1.363c-1.494,1.257-3.399,1.984-5.538,1.984c-5.633,0-9.646-4.095-9.646-9.8
		c0-5.706,4.013-9.781,9.646-9.781c1.695,0,3.246,0.457,4.563,1.274v-7.302H1081.703z M1075.846,101.321
		c0-2.397-1.741-4.201-4.109-4.201c-2.369,0-4.11,1.804-4.11,4.201s1.741,4.201,4.11,4.201
		C1074.104,105.522,1075.846,103.719,1075.846,101.321z"/>
	<path d="M1088.221,85.513h6.323V110.5h-6.323V85.513z"/>
	<path d="M1120.266,92.142l-7.694,17.541c-2.475,5.619-4.749,7.648-9.489,7.648h-2.165v-5.434h1.738c2.42,0,3.149-0.63,4.006-2.914
		l-7.586-16.842h6.871l3.896,10.113l3.631-10.113H1120.266z"/>
	<path d="M1138.759,92.142h6.323V110.5h-6.323V92.142z M1138.808,84.478h6.227v5.367h-6.227V84.478z"/>
	<path d="M1169.757,99.306V110.5h-6.323v-10.32c0-2.137-0.803-3.196-2.394-3.196c-1.972,0-3.106,1.377-3.106,3.713v9.804h-6.323
		V92.142h4.437l0.868,1.894c1.367-1.523,3.405-2.437,5.779-2.437C1166.957,91.599,1169.757,94.629,1169.757,99.306z"/>
	<path d="M1188.335,104.962v5.538h-4.351c-4.06,0-6.527-2.481-6.527-6.562v-6.927h-3.36v-1.479l8.226-8.759h1.299v5.367h4.611v4.87
		h-4.452v5.842c0,1.315,0.794,2.108,2.128,2.108H1188.335z"/>
	<path d="M1212.585,101.147c0,0.553-0.048,1.106-0.13,1.674h-13.632c0.413,2.106,1.751,3.195,3.748,3.195
		c1.477,0,2.711-0.647,3.318-1.722h6.293c-1.292,4.189-5.006,6.808-9.611,6.808c-5.729,0-9.972-4.188-9.972-9.796
		c0-5.628,4.209-9.767,9.972-9.767C1208.488,91.54,1212.586,95.762,1212.585,101.147L1212.585,101.147z M1198.935,99.32h7.422
		c-0.556-1.835-1.878-2.825-3.786-2.825C1200.728,96.495,1199.446,97.496,1198.935,99.32z"/>
	<path d="M1229.967,92.055v5.786h-2.454c-2.239,0-3.177,0.982-3.177,3.323v9.336h-6.323V92.142h4.236l0.986,2.038
		c1.295-1.498,2.872-2.125,5.057-2.125H1229.967z"/>
	<path d="M1247.186,97.41h-4.117v13.09h-6.323V97.41h-3.036l-0.014-4.968h3.127v-1.758c0-3.679,2.021-5.832,5.914-5.832h4.415v4.851
		h-2.793c-0.938,0-1.498,0.555-1.498,1.493v1.246h4.325V97.41z"/>
	<path d="M1271.349,92.122v18.358h-4.889l-0.542-1.298c-1.503,1.218-3.406,1.919-5.539,1.919c-5.613,0-9.626-4.095-9.626-9.801
		c0-5.686,4.013-9.731,9.626-9.731c2.162,0,4.094,0.722,5.609,1.973l0.647-1.42H1271.349z M1265.334,101.315
		c0-2.383-1.741-4.172-4.109-4.172c-2.383,0-4.109,1.789-4.109,4.172c0,2.397,1.741,4.188,4.109,4.188
		S1265.334,103.713,1265.334,101.315z"/>
	<path d="M1286.968,111.101c-5.888,0-10.138-4.124-10.138-9.805s4.23-9.728,10.157-9.728c5.159,0,9.028,3.253,9.72,8.136h-6.16
		c-0.531-1.498-1.932-2.469-3.58-2.469c-2.222,0-3.803,1.688-3.803,4.08s1.601,4.12,3.803,4.12c1.697,0,3.072-1.04,3.595-2.679
		h6.213C1296.06,107.742,1292.137,111.102,1286.968,111.101L1286.968,111.101z"/>
	<path d="M1320.976,101.147c0,0.553-0.048,1.106-0.13,1.674h-13.632c0.413,2.106,1.751,3.195,3.748,3.195
		c1.477,0,2.711-0.647,3.318-1.722h6.293c-1.292,4.189-5.006,6.808-9.611,6.808c-5.729,0-9.972-4.188-9.972-9.796
		c0-5.628,4.209-9.767,9.972-9.767C1316.879,91.54,1320.977,95.762,1320.976,101.147L1320.976,101.147z M1307.325,99.32h7.422
		c-0.556-1.835-1.878-2.825-3.786-2.825C1309.118,96.495,1307.837,97.496,1307.325,99.32z"/>
	<path d="M21.53,132.922v18.358h-4.889l-0.542-1.298c-1.503,1.218-3.407,1.919-5.54,1.919c-5.613,0-9.626-4.095-9.626-9.801
		c0-5.686,4.013-9.731,9.626-9.731c2.162,0,4.094,0.722,5.609,1.973l0.647-1.42H21.53z M15.516,142.115
		c0-2.383-1.741-4.172-4.109-4.172c-2.383,0-4.109,1.789-4.109,4.172c0,2.397,1.741,4.188,4.109,4.188
		S15.516,144.513,15.516,142.115z"/>
	<path d="M28.066,126.313h6.323V151.3h-6.323V126.313z"/>
	<path d="M40.918,126.313h6.323V151.3h-6.323V126.313z"/>
	<path d="M52.701,142.121c0-5.691,4.308-9.781,10.293-9.781c5.966,0,10.292,4.09,10.292,9.781c0,5.671-4.327,9.78-10.292,9.78
		C57.008,151.901,52.701,147.792,52.701,142.121z M62.994,146.222c2.306,0,3.959-1.673,3.959-4.101c0-2.412-1.653-4.1-3.959-4.1
		s-3.959,1.673-3.959,4.1S60.688,146.221,62.994,146.222L62.994,146.222z"/>
	<path d="M105.525,132.941L99.677,151.3h-5.097l-3.632-8.223l-3.552,8.223h-5.097l-5.994-18.358h6.622l2.78,9.64L90.047,133h1.708
		l4.576,9.67l2.737-9.729H105.525z"/>
	<path d="M116.782,151.901c-5.003,0-8.044-2.643-8.102-6.62h6.086c0,1.343,0.935,1.96,2.133,1.96c0.925,0,1.802-0.472,1.802-1.42
		c0-1.06-1.39-1.361-3.153-1.653c-2.847-0.461-6.62-1.32-6.62-5.772c0-3.68,3.136-6.056,7.839-6.056
		c4.675,0,7.705,2.487,7.777,6.207h-5.921c0-1.173-0.788-1.718-1.934-1.718c-1.014,0-1.695,0.502-1.695,1.354
		c0,1.044,1.404,1.287,3.148,1.599c2.9,0.515,6.756,1.117,6.756,5.773C124.898,149.391,121.661,151.901,116.782,151.901
		L116.782,151.901z"/>
	<path d="M157.898,132.941l-7.695,17.541c-2.475,5.619-4.749,7.648-9.489,7.648h-2.165v-5.434h1.739c2.419,0,3.149-0.63,4.005-2.914
		l-7.586-16.842h6.872l3.896,10.113l3.63-10.113H157.898z"/>
	<path d="M160.38,142.121c0-5.691,4.308-9.781,10.293-9.781c5.966,0,10.292,4.09,10.292,9.781c0,5.671-4.327,9.78-10.292,9.78
		C164.688,151.901,160.38,147.792,160.38,142.121z M170.673,146.222c2.306,0,3.959-1.673,3.959-4.101c0-2.412-1.653-4.1-3.959-4.1
		s-3.959,1.673-3.959,4.1S168.368,146.221,170.673,146.222L170.673,146.222z"/>
	<path d="M186.201,143.419v-10.478h6.324v10.202c0,1.938,1.042,3.077,2.731,3.077s2.711-1.158,2.711-3.077v-10.202h6.323v10.478
		c0,5.137-3.612,8.482-9.035,8.482S186.201,148.556,186.201,143.419z"/>
	<path d="M231.051,145.762v5.538h-4.351c-4.06,0-6.527-2.481-6.527-6.562v-6.927h-3.36v-1.479l8.225-8.759h1.299v5.367h4.612v4.87
		h-4.453v5.842c0,1.315,0.793,2.108,2.127,2.108H231.051z"/>
	<path d="M235.315,142.121c0-5.691,4.308-9.781,10.293-9.781c5.966,0,10.292,4.09,10.292,9.781c0,5.671-4.327,9.78-10.292,9.78
		C239.623,151.901,235.315,147.792,235.315,142.121z M245.608,146.222c2.306,0,3.959-1.673,3.959-4.101c0-2.412-1.653-4.1-3.959-4.1
		s-3.959,1.673-3.959,4.1S243.302,146.221,245.608,146.222L245.608,146.222z"/>
	<path d="M288.175,140.245V151.3h-6.323v-10.32c0-2.117-0.744-3.196-2.394-3.196c-1.914,0-3.106,1.357-3.106,3.713v9.804h-6.323
		v-24.987h6.323v7.837c1.352-1.089,3.071-1.751,4.9-1.751C285.466,132.398,288.175,135.486,288.175,140.245z"/>
	<path d="M314.048,132.922v18.358h-4.888l-0.542-1.298c-1.503,1.218-3.407,1.919-5.54,1.919c-5.613,0-9.626-4.095-9.626-9.801
		c0-5.686,4.013-9.731,9.626-9.731c2.162,0,4.094,0.722,5.609,1.973l0.647-1.42H314.048z M308.034,142.115
		c0-2.383-1.741-4.172-4.109-4.172c-2.383,0-4.109,1.789-4.109,4.172c0,2.397,1.741,4.188,4.109,4.188
		S308.034,144.513,308.034,142.115z"/>
	<path d="M338.731,140.105V151.3h-6.323v-10.32c0-2.137-0.803-3.196-2.394-3.196c-1.972,0-3.106,1.377-3.106,3.713v9.804h-6.323
		v-18.358h4.436l0.869,1.894c1.367-1.523,3.405-2.437,5.779-2.437C335.932,132.398,338.731,135.429,338.731,140.105z"/>
	<path d="M364.454,126.313V151.3h-4.68l-0.596-1.363c-1.494,1.257-3.399,1.984-5.537,1.984c-5.633,0-9.646-4.095-9.646-9.8
		c0-5.706,4.013-9.781,9.646-9.781c1.695,0,3.246,0.457,4.562,1.274v-7.302H364.454z M358.596,142.121
		c0-2.397-1.741-4.201-4.109-4.201s-4.109,1.804-4.109,4.201s1.741,4.201,4.109,4.201S358.596,144.519,358.596,142.121z"/>
	<path d="M370.972,126.313h6.323V151.3h-6.323V126.313z"/>
	<path d="M402.74,141.947c0,0.553-0.048,1.106-0.13,1.674h-13.631c0.414,2.106,1.751,3.195,3.748,3.195
		c1.477,0,2.711-0.647,3.319-1.722h6.292c-1.292,4.189-5.005,6.808-9.611,6.808c-5.728,0-9.972-4.188-9.972-9.796
		c0-5.628,4.209-9.767,9.972-9.767C398.644,132.34,402.741,136.562,402.74,141.947L402.74,141.947z M389.09,140.12h7.421
		c-0.555-1.835-1.877-2.825-3.786-2.825C390.883,137.295,389.602,138.296,389.09,140.12z"/>
	<path d="M444.984,139.785V151.3h-6.323v-10.732c0-1.917-0.706-2.843-2.049-2.843c-1.738,0-2.629,1.197-2.629,3.509V151.3h-6.159
		v-10.732c0-1.859-0.701-2.843-2.024-2.843c-1.714,0-2.654,1.227-2.654,3.509V151.3h-6.323v-18.358h4.446l0.9,1.973
		c1.326-1.545,3.251-2.516,5.366-2.516c2.238,0,4.123,1.006,5.265,2.703c1.319-1.661,3.352-2.703,5.638-2.703
		C442.37,132.398,444.984,135.463,444.984,139.785z"/>
	<path d="M450.229,142.121c0-5.691,4.308-9.781,10.293-9.781c5.966,0,10.292,4.09,10.292,9.781c0,5.671-4.327,9.78-10.292,9.78
		C454.536,151.901,450.229,147.792,450.229,142.121z M460.521,146.222c2.306,0,3.959-1.673,3.959-4.101c0-2.412-1.653-4.1-3.959-4.1
		s-3.959,1.673-3.959,4.1S458.216,146.221,460.521,146.222L460.521,146.222z"/>
	<path d="M488.242,132.854v5.786h-2.455c-2.239,0-3.176,0.982-3.176,3.323v9.336h-6.323v-18.358h4.236l0.986,2.038
		c1.295-1.498,2.872-2.125,5.057-2.125H488.242z"/>
	<path d="M511.796,141.947c0,0.553-0.048,1.106-0.131,1.674h-13.631c0.414,2.106,1.751,3.195,3.748,3.195
		c1.477,0,2.711-0.647,3.319-1.722h6.292c-1.292,4.189-5.005,6.808-9.611,6.808c-5.728,0-9.972-4.188-9.972-9.796
		c0-5.628,4.209-9.767,9.972-9.767C507.699,132.34,511.796,136.562,511.796,141.947L511.796,141.947z M498.145,140.12h7.421
		c-0.555-1.835-1.877-2.825-3.786-2.825C499.938,137.295,498.657,138.296,498.145,140.12z"/>
	<path d="M537.695,145.762v5.538h-4.351c-4.06,0-6.527-2.481-6.527-6.562v-6.927h-3.36v-1.479l8.225-8.759h1.299v5.367h4.612v4.87
		h-4.453v5.842c0,1.315,0.793,2.108,2.127,2.108H537.695z"/>
	<path d="M561.345,140.245V151.3h-6.323v-10.32c0-2.117-0.744-3.196-2.394-3.196c-1.914,0-3.106,1.357-3.106,3.713v9.804h-6.323
		v-24.987h6.323v7.837c1.352-1.089,3.071-1.751,4.9-1.751C558.637,132.398,561.345,135.486,561.345,140.245z"/>
	<path d="M587.219,132.922v18.358h-4.889l-0.541-1.298c-1.504,1.218-3.407,1.919-5.54,1.919c-5.613,0-9.626-4.095-9.626-9.801
		c0-5.686,4.013-9.731,9.626-9.731c2.162,0,4.094,0.722,5.609,1.973l0.647-1.42H587.219z M581.204,142.115
		c0-2.383-1.741-4.172-4.109-4.172c-2.383,0-4.109,1.789-4.109,4.172c0,2.397,1.741,4.188,4.109,4.188
		S581.204,144.513,581.204,142.115z"/>
	<path d="M611.901,140.105V151.3h-6.323v-10.32c0-2.137-0.803-3.196-2.394-3.196c-1.972,0-3.106,1.377-3.106,3.713v9.804h-6.323
		v-18.358h4.437l0.868,1.894c1.367-1.523,3.405-2.437,5.779-2.437C609.102,132.398,611.901,135.429,611.901,140.105z"/>
	<path d="M642.629,145.938v5.362h-16.814v-1.376c9.097-10.729,10.349-12.463,10.349-14.403c0-1.227-0.808-2.048-1.965-2.048
		c-1.27,0-2.043,0.855-2.043,2.217v0.437h-5.977v-0.418c0-4.571,2.996-7.593,7.946-7.593c4.795,0,8.106,2.948,8.106,7.193
		c0,2.845-1.053,5.028-5.888,10.629H642.629z"/>
	<path d="M647.978,140.022c0-7.241,3.867-11.873,9.896-11.873c6.028,0,9.896,4.632,9.896,11.873c0,7.222-3.888,11.873-9.896,11.873
		C651.864,151.896,647.978,147.244,647.978,140.022z M661.572,140.042c0-4.165-1.336-6.507-3.698-6.507
		c-2.382,0-3.698,2.322-3.698,6.487s1.316,6.487,3.698,6.487S661.572,144.207,661.572,140.042z"/>
	<path d="M701.682,126.313V151.3h-4.68l-0.596-1.363c-1.494,1.257-3.399,1.984-5.538,1.984c-5.633,0-9.646-4.095-9.646-9.8
		c0-5.706,4.013-9.781,9.646-9.781c1.695,0,3.246,0.457,4.563,1.274v-7.302H701.682z M695.824,142.121
		c0-2.397-1.741-4.201-4.109-4.201c-2.369,0-4.11,1.804-4.11,4.201s1.741,4.201,4.11,4.201
		C694.083,146.322,695.824,144.519,695.824,142.121z"/>
	<path d="M708.199,132.941h6.323V151.3h-6.323V132.941z M708.248,125.277h6.227v5.367h-6.227V125.277z"/>
	<path d="M733.326,138.21h-4.117v13.09h-6.323v-13.09h-3.036l-0.014-4.968h3.127v-1.758c0-3.679,2.021-5.832,5.914-5.832h4.415
		v4.851h-2.793c-0.938,0-1.498,0.555-1.498,1.493v1.246h4.325V138.21z"/>
	<path d="M750.563,138.21h-4.117v13.09h-6.323v-13.09h-3.036l-0.014-4.968h3.127v-1.758c0-3.679,2.021-5.832,5.914-5.832h4.415
		v4.851h-2.793c-0.938,0-1.498,0.555-1.498,1.493v1.246h4.325V138.21z"/>
	<path d="M774.103,141.947c0,0.553-0.048,1.106-0.13,1.674h-13.632c0.413,2.106,1.751,3.195,3.748,3.195
		c1.477,0,2.711-0.647,3.318-1.722h6.293c-1.292,4.189-5.006,6.808-9.611,6.808c-5.729,0-9.972-4.188-9.972-9.796
		c0-5.628,4.209-9.767,9.972-9.767C770.006,132.34,774.104,136.562,774.103,141.947L774.103,141.947z M760.452,140.12h7.422
		c-0.556-1.835-1.878-2.825-3.786-2.825C762.245,137.295,760.964,138.296,760.452,140.12z"/>
	<path d="M791.484,132.854v5.786h-2.454c-2.239,0-3.177,0.982-3.177,3.323v9.336h-6.323v-18.358h4.236l0.986,2.038
		c1.295-1.498,2.872-2.125,5.057-2.125H791.484z"/>
	<path d="M815.038,141.947c0,0.553-0.048,1.106-0.13,1.674h-13.632c0.413,2.106,1.751,3.195,3.748,3.195
		c1.477,0,2.711-0.647,3.318-1.722h6.293c-1.292,4.189-5.006,6.808-9.611,6.808c-5.729,0-9.972-4.188-9.972-9.796
		c0-5.628,4.209-9.767,9.972-9.767C810.941,132.34,815.039,136.562,815.038,141.947L815.038,141.947z M801.388,140.12h7.422
		c-0.556-1.835-1.878-2.825-3.786-2.825C803.181,137.295,801.899,138.296,801.388,140.12z"/>
	<path d="M838.612,140.105V151.3h-6.323v-10.32c0-2.137-0.803-3.196-2.394-3.196c-1.972,0-3.106,1.377-3.106,3.713v9.804h-6.323
		v-18.358h4.437l0.868,1.894c1.367-1.523,3.405-2.437,5.779-2.437C835.813,132.398,838.612,135.429,838.612,140.105z"/>
	<path d="M857.19,145.762v5.538h-4.351c-4.06,0-6.527-2.481-6.527-6.562v-6.927h-3.36v-1.479l8.226-8.759h1.299v5.367h4.611v4.87
		h-4.452v5.842c0,1.315,0.794,2.108,2.128,2.108H857.19z"/>
	<path d="M882.543,151.3l-4.598-7.764v7.764h-6.324v-24.987h6.324v13.821l4.373-7.192h7.1l-5.721,8.75l6.3,9.608H882.543z"/>
	<path d="M894.196,132.941h6.323V151.3h-6.323V132.941z M894.245,125.277h6.227v5.367h-6.227V125.277z"/>
	<path d="M925.194,140.105V151.3h-6.323v-10.32c0-2.137-0.803-3.196-2.394-3.196c-1.972,0-3.106,1.377-3.106,3.713v9.804h-6.323
		v-18.358h4.437l0.868,1.894c1.367-1.523,3.405-2.437,5.779-2.437C922.395,132.398,925.194,135.429,925.194,140.105z"/>
	<path d="M950.917,126.313V151.3h-4.68l-0.596-1.363c-1.494,1.257-3.399,1.984-5.538,1.984c-5.633,0-9.646-4.095-9.646-9.8
		c0-5.706,4.013-9.781,9.646-9.781c1.695,0,3.246,0.457,4.563,1.274v-7.302H950.917z M945.06,142.121
		c0-2.397-1.741-4.201-4.109-4.201c-2.369,0-4.11,1.804-4.11,4.201s1.741,4.201,4.11,4.201
		C943.318,146.322,945.06,144.519,945.06,142.121z"/>
	<path d="M964.518,151.901c-5.004,0-8.045-2.643-8.103-6.62h6.086c0,1.343,0.935,1.96,2.134,1.96c0.925,0,1.802-0.472,1.802-1.42
		c0-1.06-1.39-1.361-3.153-1.653c-2.847-0.461-6.62-1.32-6.62-5.772c0-3.68,3.136-6.056,7.84-6.056c4.675,0,7.704,2.487,7.776,6.207
		h-5.922c0-1.173-0.787-1.718-1.934-1.718c-1.014,0-1.694,0.502-1.694,1.354c0,1.044,1.404,1.287,3.148,1.599
		c2.899,0.515,6.755,1.117,6.755,5.773C972.633,149.391,969.396,151.901,964.518,151.901L964.518,151.901z"/>
	<path d="M985.726,142.121c0-5.691,4.308-9.781,10.293-9.781c5.966,0,10.293,4.09,10.293,9.781c0,5.671-4.327,9.78-10.293,9.78
		C990.033,151.901,985.726,147.792,985.726,142.121z M996.019,146.222c2.306,0,3.959-1.673,3.959-4.101c0-2.412-1.653-4.1-3.959-4.1
		s-3.959,1.673-3.959,4.1S993.713,146.221,996.019,146.222L996.019,146.222z"/>
	<path d="M1023.754,138.21h-4.117v13.09h-6.323v-13.09h-3.036l-0.014-4.968h3.127v-1.758c0-3.679,2.021-5.832,5.914-5.832h4.415
		v4.851h-2.793c-0.938,0-1.498,0.555-1.498,1.493v1.246h4.325V138.21z"/>
	<path d="M1046.045,151.9c-5.888,0-10.138-4.124-10.138-9.805s4.23-9.728,10.157-9.728c5.159,0,9.028,3.253,9.72,8.136h-6.16
		c-0.531-1.498-1.932-2.469-3.58-2.469c-2.222,0-3.803,1.688-3.803,4.08s1.601,4.12,3.803,4.12c1.697,0,3.072-1.04,3.595-2.679
		h6.213C1055.137,148.542,1051.214,151.901,1046.045,151.9L1046.045,151.9z"/>
	<path d="M1060.897,143.419v-10.478h6.323v10.202c0,1.938,1.042,3.077,2.731,3.077s2.711-1.158,2.711-3.077v-10.202h6.324v10.478
		c0,5.137-3.612,8.482-9.035,8.482S1060.897,148.556,1060.897,143.419z"/>
	<path d="M1097.229,132.854v5.786h-2.454c-2.239,0-3.177,0.982-3.177,3.323v9.336h-6.323v-18.358h4.236l0.986,2.038
		c1.295-1.498,2.872-2.125,5.057-2.125H1097.229z"/>
	<path d="M1114.127,132.854v5.786h-2.454c-2.239,0-3.177,0.982-3.177,3.323v9.336h-6.323v-18.358h4.236l0.986,2.038
		c1.295-1.498,2.872-2.125,5.057-2.125H1114.127z"/>
	<path d="M1137.681,141.947c0,0.553-0.048,1.106-0.13,1.674h-13.632c0.413,2.106,1.751,3.195,3.748,3.195
		c1.477,0,2.711-0.647,3.318-1.722h6.293c-1.292,4.189-5.006,6.808-9.611,6.808c-5.729,0-9.972-4.188-9.972-9.796
		c0-5.628,4.209-9.767,9.972-9.767C1133.584,132.34,1137.682,136.562,1137.681,141.947L1137.681,141.947z M1124.03,140.12h7.422
		c-0.556-1.835-1.878-2.825-3.786-2.825C1125.823,137.295,1124.542,138.296,1124.03,140.12z"/>
	<path d="M1161.255,140.105V151.3h-6.323v-10.32c0-2.137-0.803-3.196-2.394-3.196c-1.972,0-3.106,1.377-3.106,3.713v9.804h-6.323
		v-18.358h4.437l0.868,1.894c1.367-1.523,3.405-2.437,5.779-2.437C1158.455,132.398,1161.255,135.429,1161.255,140.105z"/>
	<path d="M1176.672,151.9c-5.888,0-10.138-4.124-10.138-9.805s4.23-9.728,10.157-9.728c5.159,0,9.028,3.253,9.72,8.136h-6.16
		c-0.531-1.498-1.932-2.469-3.58-2.469c-2.222,0-3.803,1.688-3.803,4.08s1.601,4.12,3.803,4.12c1.697,0,3.072-1.04,3.595-2.679
		h6.213C1185.764,148.542,1181.841,151.901,1176.672,151.9L1176.672,151.9z"/>
	<path d="M1210.209,132.941l-7.694,17.541c-2.475,5.619-4.749,7.648-9.489,7.648h-2.165v-5.434h1.738c2.42,0,3.149-0.63,4.006-2.914
		l-7.586-16.842h6.871l3.896,10.113l3.631-10.113H1210.209z"/>
	<path d="M1212.405,145.426h6.135v5.874h-6.135V145.426z"/>
	<path d="M1266.445,127.502l-7.338,23.798h-5.771l-4.565-11.486l-4.478,11.486h-5.771l-7.451-23.798h7.041l3.86,13.716l5.669-13.598
		h2.269l5.771,13.608l3.783-13.727H1266.445z"/>
	<path d="M1271.187,132.941h6.323V151.3h-6.323V132.941z M1271.235,125.277h6.227v5.367h-6.227V125.277z"/>
	<path d="M1296.419,145.762v5.538h-4.351c-4.06,0-6.527-2.481-6.527-6.562v-6.927h-3.36v-1.479l8.226-8.759h1.299v5.367h4.611v4.87
		h-4.452v5.842c0,1.315,0.794,2.108,2.128,2.108H1296.419z"/>
	<path d="M1320.068,140.245V151.3h-6.323v-10.32c0-2.117-0.743-3.196-2.394-3.196c-1.913,0-3.106,1.357-3.106,3.713v9.804h-6.323
		v-24.987h6.323v7.837c1.352-1.089,3.071-1.751,4.9-1.751C1317.36,132.398,1320.068,135.486,1320.068,140.245z"/>
	<path d="M20.905,182.747c0,0.553-0.048,1.106-0.13,1.674H7.144c0.414,2.106,1.751,3.195,3.748,3.195
		c1.477,0,2.711-0.647,3.319-1.722h6.292c-1.292,4.189-5.005,6.808-9.611,6.808c-5.728,0-9.972-4.188-9.972-9.796
		c0-5.628,4.209-9.767,9.972-9.767C16.809,173.14,20.906,177.361,20.905,182.747L20.905,182.747z M7.255,180.92h7.421
		c-0.555-1.835-1.877-2.825-3.786-2.825C9.048,178.095,7.767,179.096,7.255,180.92z"/>
	<path d="M36.323,192.1l-3.018-5.438l-3.079,5.438h-6.982l6.089-9.524l-5.643-8.834h6.979l2.652,4.624l2.774-4.624h6.882
		l-5.689,8.669l6.101,9.689H36.323z"/>
	<path d="M55.918,192.7c-5.887,0-10.137-4.124-10.137-9.805s4.229-9.728,10.156-9.728c5.159,0,9.029,3.253,9.72,8.136h-6.16
		c-0.532-1.498-1.932-2.469-3.58-2.469c-2.222,0-3.804,1.688-3.804,4.08s1.601,4.12,3.804,4.12c1.697,0,3.072-1.04,3.594-2.679
		h6.213C65.011,189.342,61.088,192.701,55.918,192.7L55.918,192.7z"/>
	<path d="M89.156,181.045V192.1h-6.323v-10.32c0-2.117-0.744-3.196-2.394-3.196c-1.914,0-3.106,1.357-3.106,3.713v9.804h-6.323
		v-24.987h6.323v7.837c1.352-1.089,3.071-1.751,4.9-1.751C86.448,173.198,89.156,176.286,89.156,181.045z"/>
	<path d="M115.03,173.722v18.358h-4.889l-0.542-1.298c-1.503,1.218-3.407,1.919-5.54,1.919c-5.613,0-9.626-4.095-9.626-9.801
		c0-5.686,4.013-9.731,9.626-9.731c2.162,0,4.094,0.722,5.609,1.973l0.647-1.42H115.03z M109.016,182.915
		c0-2.383-1.741-4.172-4.109-4.172c-2.383,0-4.109,1.789-4.109,4.172c0,2.397,1.741,4.188,4.109,4.188
		S109.016,185.313,109.016,182.915z"/>
	<path d="M139.713,180.905V192.1h-6.323v-10.32c0-2.137-0.803-3.196-2.394-3.196c-1.972,0-3.106,1.377-3.106,3.713v9.804h-6.323
		v-18.358h4.436l0.869,1.894c1.367-1.523,3.405-2.437,5.779-2.437C136.914,173.198,139.713,176.229,139.713,180.905z"/>
	<path d="M165.032,173.742v16.318c0,5.769-3.777,9.343-9.84,9.343c-5.209,0-8.856-2.627-9.701-6.978h6.102
		c0.438,1.227,2.005,1.888,3.541,1.888c2.119,0,3.822-1.347,3.822-3.529v-0.548c-1.38,0.876-3.019,1.378-4.79,1.378
		c-5.264,0-9.174-3.915-9.174-9.228c0-5.234,3.911-9.232,9.174-9.232c2.222,0,4.234,0.797,5.79,2.128l0.802-1.541L165.032,173.742z
		 M155.215,186.408c2.271,0,3.904-1.683,3.904-4.021c0-2.318-1.629-4.001-3.904-4.001c-2.271,0-3.919,1.683-3.919,4.001
		C151.295,184.726,152.924,186.408,155.215,186.408L155.215,186.408z"/>
	<path d="M190.496,182.747c0,0.553-0.048,1.106-0.13,1.674h-13.631c0.414,2.106,1.751,3.195,3.748,3.195
		c1.477,0,2.711-0.647,3.319-1.722h6.292c-1.292,4.189-5.005,6.808-9.611,6.808c-5.728,0-9.972-4.188-9.972-9.796
		c0-5.628,4.209-9.767,9.972-9.767C186.399,173.14,190.497,177.361,190.496,182.747L190.496,182.747z M176.846,180.92h7.421
		c-0.555-1.835-1.877-2.825-3.786-2.825C178.639,178.095,177.357,179.096,176.846,180.92z"/>
	<path d="M216.78,192.7c-5.887,0-10.137-4.124-10.137-9.805s4.229-9.728,10.156-9.728c5.159,0,9.029,3.253,9.72,8.136h-6.16
		c-0.532-1.498-1.932-2.469-3.58-2.469c-2.222,0-3.804,1.688-3.804,4.08s1.601,4.12,3.804,4.12c1.697,0,3.072-1.04,3.594-2.679
		h6.213C225.873,189.342,221.95,192.701,216.78,192.7L216.78,192.7z"/>
	<path d="M250.019,181.045V192.1h-6.323v-10.32c0-2.117-0.744-3.196-2.394-3.196c-1.914,0-3.106,1.357-3.106,3.713v9.804h-6.323
		v-24.987h6.323v7.837c1.352-1.089,3.071-1.751,4.9-1.751C247.31,173.198,250.019,176.286,250.019,181.045z"/>
	<path d="M275.892,173.722v18.358h-4.888l-0.542-1.298c-1.503,1.218-3.407,1.919-5.54,1.919c-5.613,0-9.626-4.095-9.626-9.801
		c0-5.686,4.013-9.731,9.626-9.731c2.162,0,4.094,0.722,5.609,1.973l0.647-1.42H275.892z M269.877,182.915
		c0-2.383-1.741-4.172-4.109-4.172c-2.383,0-4.109,1.789-4.109,4.172c0,2.397,1.741,4.188,4.109,4.188
		S269.877,185.313,269.877,182.915z"/>
	<path d="M294.383,173.654v5.786h-2.455c-2.239,0-3.176,0.982-3.176,3.323v9.336h-6.323v-18.358h4.236l0.986,2.038
		c1.295-1.498,2.872-2.125,5.057-2.125H294.383z"/>
	<path d="M312.013,186.562v5.538h-4.351c-4.06,0-6.527-2.481-6.527-6.562v-6.927h-3.36v-1.479l8.225-8.759h1.299v5.367h4.612v4.87
		h-4.453v5.842c0,1.315,0.793,2.108,2.127,2.108H312.013z"/>
	<path d="M340.904,186.562v5.538h-4.351c-4.06,0-6.527-2.481-6.527-6.562v-6.927h-3.36v-1.479l8.225-8.759h1.299v5.367h4.612v4.87
		h-4.453v5.842c0,1.315,0.793,2.108,2.127,2.108H340.904z"/>
	<path d="M345.168,182.921c0-5.691,4.308-9.781,10.293-9.781c5.966,0,10.292,4.09,10.292,9.781c0,5.671-4.327,9.78-10.292,9.78
		C349.476,192.701,345.168,188.592,345.168,182.921z M355.461,187.021c2.306,0,3.959-1.673,3.959-4.101c0-2.412-1.653-4.1-3.959-4.1
		s-3.959,1.673-3.959,4.1S353.156,187.021,355.461,187.021L355.461,187.021z"/>
	<path d="M370.158,182.921c0-5.691,4.308-9.781,10.293-9.781c5.966,0,10.292,4.09,10.292,9.781c0,5.671-4.327,9.78-10.292,9.78
		C374.465,192.701,370.158,188.592,370.158,182.921z M380.451,187.021c2.306,0,3.959-1.673,3.959-4.101c0-2.412-1.653-4.1-3.959-4.1
		s-3.959,1.673-3.959,4.1S378.145,187.021,380.451,187.021L380.451,187.021z"/>
	<path d="M396.217,167.112h6.323V192.1h-6.323V167.112z"/>
	<path d="M416.151,192.701c-5.003,0-8.044-2.643-8.102-6.62h6.086c0,1.343,0.935,1.96,2.133,1.96c0.925,0,1.802-0.472,1.802-1.42
		c0-1.06-1.39-1.361-3.153-1.653c-2.847-0.461-6.62-1.32-6.62-5.772c0-3.68,3.136-6.056,7.84-6.056c4.675,0,7.705,2.487,7.776,6.207
		h-5.921c0-1.173-0.788-1.718-1.934-1.718c-1.014,0-1.695,0.502-1.695,1.354c0,1.044,1.404,1.287,3.148,1.599
		c2.9,0.515,6.756,1.117,6.756,5.773C424.267,190.19,421.029,192.701,416.151,192.701L416.151,192.701z"/>
	<path d="M429.798,194.913c1.828-0.161,2.696-1.362,2.696-2.813h-2.954v-5.874h6.173v5.375c0,3.699-2.402,6.129-5.915,6.444V194.913
		z"/>
	<path d="M460.87,192.701c-5.003,0-8.044-2.643-8.102-6.62h6.086c0,1.343,0.935,1.96,2.133,1.96c0.925,0,1.802-0.472,1.802-1.42
		c0-1.06-1.39-1.361-3.153-1.653c-2.847-0.461-6.62-1.32-6.62-5.772c0-3.68,3.136-6.056,7.839-6.056
		c4.675,0,7.705,2.487,7.777,6.207h-5.921c0-1.173-0.788-1.718-1.934-1.718c-1.014,0-1.695,0.502-1.695,1.354
		c0,1.044,1.404,1.287,3.148,1.599c2.9,0.515,6.756,1.117,6.756,5.773C468.986,190.19,465.749,192.701,460.87,192.701
		L460.87,192.701z"/>
	<path d="M494.846,182.921c0,5.719-4.013,9.8-9.626,9.8c-1.66,0-3.18-0.437-4.476-1.219v7.227h-6.251v-24.987h4.3l0.792,1.459
		c1.51-1.306,3.453-2.061,5.634-2.061C490.833,173.14,494.846,177.201,494.846,182.921z M488.483,182.92
		c0-2.411-1.741-4.201-4.109-4.201c-2.369,0-4.11,1.79-4.11,4.201c0,2.412,1.741,4.201,4.11,4.201
		C486.728,187.121,488.483,185.332,488.483,182.92z"/>
	<path d="M519.216,182.747c0,0.553-0.048,1.106-0.131,1.674h-13.631c0.414,2.106,1.751,3.195,3.748,3.195
		c1.477,0,2.711-0.647,3.319-1.722h6.292c-1.292,4.189-5.005,6.808-9.611,6.808c-5.728,0-9.972-4.188-9.972-9.796
		c0-5.628,4.209-9.767,9.972-9.767C515.119,173.14,519.216,177.361,519.216,182.747L519.216,182.747z M505.565,180.92h7.421
		c-0.555-1.835-1.877-2.825-3.786-2.825C507.358,178.095,506.077,179.096,505.565,180.92z"/>
	<path d="M543.56,182.747c0,0.553-0.048,1.106-0.131,1.674h-13.631c0.414,2.106,1.751,3.195,3.748,3.195
		c1.477,0,2.711-0.647,3.319-1.722h6.292c-1.292,4.189-5.005,6.808-9.611,6.808c-5.728,0-9.972-4.188-9.972-9.796
		c0-5.628,4.209-9.767,9.972-9.767C539.462,173.14,543.56,177.361,543.56,182.747L543.56,182.747z M529.909,180.92h7.421
		c-0.555-1.835-1.877-2.825-3.786-2.825C531.702,178.095,530.42,179.096,529.909,180.92z"/>
	<path d="M568.377,167.112V192.1h-4.68l-0.596-1.363c-1.494,1.257-3.399,1.984-5.537,1.984c-5.633,0-9.646-4.095-9.646-9.8
		c0-5.706,4.013-9.781,9.646-9.781c1.695,0,3.246,0.457,4.562,1.274v-7.302H568.377z M562.519,182.921
		c0-2.397-1.741-4.201-4.109-4.201s-4.109,1.804-4.109,4.201s1.741,4.201,4.109,4.201S562.519,185.318,562.519,182.921z"/>
	<path d="M614.831,180.585V192.1h-6.324v-10.732c0-1.917-0.705-2.843-2.049-2.843c-1.738,0-2.629,1.197-2.629,3.509V192.1h-6.158
		v-10.732c0-1.859-0.701-2.843-2.025-2.843c-1.714,0-2.653,1.227-2.653,3.509V192.1h-6.323v-18.358h4.446l0.9,1.973
		c1.326-1.546,3.252-2.516,5.366-2.516c2.238,0,4.122,1.006,5.265,2.703c1.319-1.661,3.353-2.703,5.638-2.703
		C612.217,173.198,614.831,176.263,614.831,180.585z"/>
	<path d="M620.075,182.921c0-5.691,4.308-9.781,10.293-9.781c5.966,0,10.293,4.09,10.293,9.781c0,5.671-4.327,9.78-10.293,9.78
		C624.383,192.701,620.075,188.592,620.075,182.921z M630.368,187.021c2.306,0,3.959-1.673,3.959-4.101c0-2.412-1.653-4.1-3.959-4.1
		s-3.959,1.673-3.959,4.1S628.063,187.021,630.368,187.021L630.368,187.021z"/>
	<path d="M664.28,180.905V192.1h-6.323v-10.32c0-2.137-0.803-3.196-2.394-3.196c-1.972,0-3.106,1.377-3.106,3.713v9.804h-6.323
		v-18.358h4.437l0.868,1.894c1.367-1.523,3.405-2.437,5.779-2.437C661.48,173.198,664.28,176.229,664.28,180.905z"/>
	<path d="M670.613,173.741h6.323V192.1h-6.323V173.741z M670.662,166.077h6.227v5.367h-6.227V166.077z"/>
	<path d="M695.846,186.562v5.538h-4.351c-4.06,0-6.527-2.481-6.527-6.562v-6.927h-3.36v-1.479l8.226-8.759h1.299v5.367h4.611v4.87
		h-4.452v5.842c0,1.315,0.794,2.108,2.128,2.108H695.846z"/>
	<path d="M700.11,182.921c0-5.691,4.308-9.781,10.293-9.781c5.966,0,10.293,4.09,10.293,9.781c0,5.671-4.327,9.78-10.293,9.78
		C704.418,192.701,700.11,188.592,700.11,182.921z M710.403,187.021c2.306,0,3.959-1.673,3.959-4.101c0-2.412-1.653-4.1-3.959-4.1
		s-3.959,1.673-3.959,4.1S708.098,187.021,710.403,187.021L710.403,187.021z"/>
	<path d="M738.123,173.654v5.786h-2.454c-2.239,0-3.177,0.982-3.177,3.323v9.336h-6.323v-18.358h4.236l0.986,2.038
		c1.295-1.498,2.872-2.125,5.057-2.125H738.123z"/>
	<path d="M750.081,192.701c-5.004,0-8.045-2.643-8.103-6.62h6.086c0,1.343,0.935,1.96,2.134,1.96c0.925,0,1.802-0.472,1.802-1.42
		c0-1.06-1.39-1.361-3.153-1.653c-2.847-0.461-6.62-1.32-6.62-5.772c0-3.68,3.136-6.056,7.84-6.056c4.675,0,7.704,2.487,7.776,6.207
		h-5.922c0-1.173-0.787-1.718-1.934-1.718c-1.014,0-1.694,0.502-1.694,1.354c0,1.044,1.404,1.287,3.148,1.599
		c2.899,0.515,6.756,1.117,6.756,5.773C758.197,190.19,754.959,192.701,750.081,192.701L750.081,192.701z"/>
	<path d="M795.02,173.722v18.358h-4.889l-0.541-1.298c-1.504,1.218-3.407,1.919-5.54,1.919c-5.613,0-9.626-4.095-9.626-9.801
		c0-5.686,4.013-9.731,9.626-9.731c2.162,0,4.094,0.722,5.609,1.973l0.647-1.42H795.02z M789.005,182.915
		c0-2.383-1.741-4.172-4.109-4.172c-2.383,0-4.109,1.789-4.109,4.172c0,2.397,1.741,4.188,4.109,4.188
		S789.005,185.313,789.005,182.915z"/>
	<path d="M819.702,180.905V192.1h-6.323v-10.32c0-2.137-0.803-3.196-2.394-3.196c-1.972,0-3.106,1.377-3.106,3.713v9.804h-6.323
		v-18.358h4.437l0.868,1.894c1.367-1.523,3.405-2.437,5.779-2.437C816.902,173.198,819.702,176.229,819.702,180.905z"/>
	<path d="M845.426,167.112V192.1h-4.68l-0.596-1.363c-1.494,1.257-3.399,1.984-5.538,1.984c-5.633,0-9.646-4.095-9.646-9.8
		c0-5.706,4.013-9.781,9.646-9.781c1.695,0,3.246,0.457,4.563,1.274v-7.302H845.426z M839.568,182.921
		c0-2.397-1.741-4.201-4.109-4.201c-2.369,0-4.11,1.804-4.11,4.201s1.741,4.201,4.11,4.201
		C837.827,187.122,839.568,185.318,839.568,182.921z"/>
	<path d="M870.8,192.701c-5.004,0-8.045-2.643-8.103-6.62h6.086c0,1.343,0.935,1.96,2.134,1.96c0.925,0,1.802-0.472,1.802-1.42
		c0-1.06-1.39-1.361-3.153-1.653c-2.847-0.461-6.62-1.32-6.62-5.772c0-3.68,3.136-6.056,7.84-6.056c4.675,0,7.704,2.487,7.776,6.207
		h-5.922c0-1.173-0.787-1.718-1.934-1.718c-1.014,0-1.694,0.502-1.694,1.354c0,1.044,1.404,1.287,3.148,1.599
		c2.899,0.515,6.756,1.117,6.756,5.773C878.916,190.19,875.678,192.701,870.8,192.701L870.8,192.701z"/>
	<path d="M896.635,186.562v5.538h-4.351c-4.06,0-6.527-2.481-6.527-6.562v-6.927h-3.36v-1.479l8.226-8.759h1.299v5.367h4.611v4.87
		h-4.452v5.842c0,1.315,0.794,2.108,2.128,2.108H896.635z"/>
	<path d="M914.092,173.654v5.786h-2.454c-2.239,0-3.177,0.982-3.177,3.323v9.336h-6.323v-18.358h4.236l0.986,2.038
		c1.295-1.498,2.872-2.125,5.057-2.125H914.092z"/>
	<path d="M937.646,182.747c0,0.553-0.048,1.106-0.13,1.674h-13.632c0.413,2.106,1.751,3.195,3.748,3.195
		c1.477,0,2.711-0.647,3.318-1.722h6.293c-1.292,4.189-5.006,6.808-9.611,6.808c-5.729,0-9.972-4.188-9.972-9.796
		c0-5.628,4.209-9.767,9.972-9.767C933.549,173.14,937.646,177.361,937.646,182.747L937.646,182.747z M923.995,180.92h7.422
		c-0.556-1.835-1.878-2.825-3.786-2.825C925.788,178.095,924.507,179.096,923.995,180.92z"/>
	<path d="M962.614,173.722v18.358h-4.889l-0.542-1.298c-1.503,1.218-3.406,1.919-5.539,1.919c-5.613,0-9.626-4.095-9.626-9.801
		c0-5.686,4.013-9.731,9.626-9.731c2.162,0,4.094,0.722,5.609,1.973l0.647-1.42H962.614z M956.6,182.915
		c0-2.383-1.741-4.172-4.109-4.172c-2.383,0-4.109,1.789-4.109,4.172c0,2.397,1.741,4.188,4.109,4.188S956.6,185.313,956.6,182.915z
		"/>
	<path d="M997.313,180.585V192.1h-6.324v-10.732c0-1.917-0.705-2.843-2.049-2.843c-1.738,0-2.629,1.197-2.629,3.509V192.1h-6.158
		v-10.732c0-1.859-0.701-2.843-2.025-2.843c-1.714,0-2.653,1.227-2.653,3.509V192.1h-6.323v-18.358h4.446l0.9,1.973
		c1.326-1.546,3.252-2.516,5.366-2.516c2.238,0,4.122,1.006,5.265,2.703c1.319-1.661,3.353-2.703,5.638-2.703
		C994.698,173.198,997.313,176.263,997.313,180.585z"/>
	<path d="M1003.627,173.741h6.323V192.1h-6.323V173.741z M1003.676,166.077h6.227v5.367h-6.227V166.077z"/>
	<path d="M1034.625,180.905V192.1h-6.323v-10.32c0-2.137-0.803-3.196-2.394-3.196c-1.972,0-3.106,1.377-3.106,3.713v9.804h-6.323
		v-18.358h4.437l0.868,1.894c1.367-1.523,3.405-2.437,5.779-2.437C1031.825,173.198,1034.625,176.229,1034.625,180.905z"/>
	<path d="M1059.944,173.742v16.318c0,5.769-3.776,9.343-9.841,9.343c-5.209,0-8.856-2.627-9.701-6.978h6.103
		c0.438,1.227,2.005,1.888,3.541,1.888c2.118,0,3.821-1.347,3.821-3.529v-0.548c-1.38,0.876-3.019,1.378-4.79,1.378
		c-5.264,0-9.174-3.915-9.174-9.228c0-5.234,3.91-9.232,9.174-9.232c2.222,0,4.234,0.797,5.79,2.128l0.802-1.541L1059.944,173.742z
		 M1050.127,186.408c2.271,0,3.904-1.683,3.904-4.021c0-2.318-1.629-4.001-3.904-4.001c-2.271,0-3.919,1.683-3.919,4.001
		C1046.208,184.726,1047.836,186.408,1050.127,186.408L1050.127,186.408z"/>
	<path d="M1106.428,180.585V192.1h-6.324v-10.732c0-1.917-0.705-2.843-2.049-2.843c-1.738,0-2.629,1.197-2.629,3.509V192.1h-6.158
		v-10.732c0-1.859-0.701-2.843-2.025-2.843c-1.714,0-2.653,1.227-2.653,3.509V192.1h-6.323v-18.358h4.446l0.9,1.973
		c1.326-1.546,3.252-2.516,5.366-2.516c2.238,0,4.122,1.006,5.265,2.703c1.319-1.661,3.353-2.703,5.638-2.703
		C1103.813,173.198,1106.428,176.263,1106.428,180.585z"/>
	<path d="M1131.657,182.747c0,0.553-0.048,1.106-0.13,1.674h-13.632c0.413,2.106,1.751,3.195,3.748,3.195
		c1.477,0,2.711-0.647,3.318-1.722h6.293c-1.292,4.189-5.006,6.808-9.611,6.808c-5.729,0-9.972-4.188-9.972-9.796
		c0-5.628,4.209-9.767,9.972-9.767C1127.561,173.14,1131.658,177.361,1131.657,182.747L1131.657,182.747z M1118.007,180.92h7.422
		c-0.556-1.835-1.878-2.825-3.786-2.825C1119.8,178.095,1118.519,179.096,1118.007,180.92z"/>
	<path d="M1156.475,167.112V192.1h-4.68l-0.596-1.363c-1.494,1.257-3.399,1.984-5.538,1.984c-5.633,0-9.646-4.095-9.646-9.8
		c0-5.706,4.013-9.781,9.646-9.781c1.695,0,3.246,0.457,4.563,1.274v-7.302H1156.475z M1150.617,182.921
		c0-2.397-1.741-4.201-4.109-4.201c-2.369,0-4.11,1.804-4.11,4.201s1.741,4.201,4.11,4.201
		C1148.876,187.122,1150.617,185.318,1150.617,182.921z"/>
	<path d="M1162.992,173.741h6.323V192.1h-6.323V173.741z M1163.041,166.077h6.227v5.367h-6.227V166.077z"/>
	<path d="M1195.386,173.722v18.358h-4.889l-0.542-1.298c-1.503,1.218-3.406,1.919-5.539,1.919c-5.613,0-9.626-4.095-9.626-9.801
		c0-5.686,4.013-9.731,9.626-9.731c2.162,0,4.094,0.722,5.609,1.973l0.647-1.42H1195.386z M1189.371,182.915
		c0-2.383-1.741-4.172-4.109-4.172c-2.383,0-4.109,1.789-4.109,4.172c0,2.397,1.741,4.188,4.109,4.188
		S1189.371,185.313,1189.371,182.915z"/>
	<path d="M1231.842,180.905V192.1h-6.323v-10.32c0-2.137-0.803-3.196-2.394-3.196c-1.972,0-3.106,1.377-3.106,3.713v9.804h-6.323
		v-18.358h4.437l0.868,1.894c1.367-1.523,3.405-2.437,5.779-2.437C1229.042,173.198,1231.842,176.229,1231.842,180.905z"/>
	<path d="M1257.091,182.747c0,0.553-0.048,1.106-0.13,1.674h-13.632c0.413,2.106,1.751,3.195,3.748,3.195
		c1.477,0,2.711-0.647,3.318-1.722h6.293c-1.292,4.189-5.006,6.808-9.611,6.808c-5.729,0-9.972-4.188-9.972-9.796
		c0-5.628,4.209-9.767,9.972-9.767C1252.994,173.14,1257.092,177.361,1257.091,182.747L1257.091,182.747z M1243.44,180.92h7.422
		c-0.556-1.835-1.878-2.825-3.786-2.825C1245.233,178.095,1243.952,179.096,1243.44,180.92z"/>
	<path d="M1289.286,173.741l-5.849,18.358h-5.096l-3.633-8.223l-3.553,8.223h-5.096l-5.994-18.358h6.622l2.78,9.64l4.34-9.581h1.707
		l4.576,9.669l2.737-9.728H1289.286z"/>
	<path d="M1300.543,192.701c-5.004,0-8.045-2.643-8.103-6.62h6.086c0,1.343,0.935,1.96,2.134,1.96c0.925,0,1.802-0.472,1.802-1.42
		c0-1.06-1.39-1.361-3.153-1.653c-2.847-0.461-6.62-1.32-6.62-5.772c0-3.68,3.136-6.056,7.84-6.056c4.675,0,7.704,2.487,7.776,6.207
		h-5.922c0-1.173-0.787-1.718-1.934-1.718c-1.014,0-1.694,0.502-1.694,1.354c0,1.044,1.404,1.287,3.148,1.599
		c2.899,0.515,6.755,1.117,6.755,5.773C1308.658,190.19,1305.421,192.701,1300.543,192.701L1300.543,192.701z"/>
	<path d="M1314.189,194.913c1.828-0.161,2.696-1.362,2.696-2.813h-2.954v-5.874h6.174v5.375c0,3.699-2.403,6.129-5.916,6.444
		V194.913z"/>
	<path d="M17.413,226.896v6.004H2.3v-23.798h6.643v17.794H17.413z"/>
	<path d="M29.518,215.034v3.787h7.647v5.739h-7.647v8.339h-6.614v-23.798h15.145v5.933H29.518z"/>
	<path d="M67.837,220.181c0,7.787-5.083,13.319-12.536,13.319c-7.292,0-12.678-5.24-12.678-12.48s5.288-12.52,12.619-12.52
		c6.238,0,11.34,3.903,12.347,9.434h-6.871c-0.861-2.005-2.991-3.294-5.417-3.294c-3.564,0-5.967,2.578-5.967,6.38
		c0,3.764,2.364,6.342,5.967,6.342c2.502,0,4.647-1.211,5.396-3.047h-5.911v-4.133L67.837,220.181z"/>
	<path d="M100.557,215.005h-6.464v17.895h-6.585v-17.895h-6.465v-5.903h19.514V215.005z"/>
	<path d="M116.964,214.454v5.786h-2.455c-2.239,0-3.176,0.982-3.176,3.323v9.336h-6.323v-18.358h4.236l0.986,2.038
		c1.295-1.498,2.872-2.125,5.057-2.125H116.964z"/>
	<path d="M141.143,214.521v18.358h-4.889l-0.542-1.298c-1.503,1.218-3.407,1.919-5.54,1.919c-5.613,0-9.626-4.095-9.626-9.801
		c0-5.686,4.013-9.731,9.626-9.731c2.162,0,4.094,0.722,5.609,1.973l0.647-1.42H141.143z M135.128,223.715
		c0-2.383-1.741-4.172-4.109-4.172c-2.383,0-4.109,1.789-4.109,4.172c0,2.397,1.741,4.188,4.109,4.188
		S135.128,226.112,135.128,223.715z"/>
	<path d="M167.069,207.912v24.987h-4.679l-0.597-1.363c-1.494,1.257-3.399,1.984-5.537,1.984c-5.633,0-9.646-4.095-9.646-9.8
		c0-5.706,4.013-9.781,9.646-9.781c1.695,0,3.246,0.457,4.562,1.274v-7.302H167.069z M161.211,223.721
		c0-2.397-1.741-4.201-4.109-4.201s-4.109,1.804-4.109,4.201s1.741,4.201,4.109,4.201S161.211,226.118,161.211,223.721z"/>
	<path d="M192.503,223.547c0,0.553-0.048,1.106-0.13,1.674h-13.631c0.414,2.106,1.751,3.195,3.748,3.195
		c1.477,0,2.711-0.647,3.319-1.722h6.292c-1.292,4.189-5.005,6.808-9.611,6.808c-5.728,0-9.972-4.188-9.972-9.796
		c0-5.628,4.209-9.767,9.972-9.767C188.406,213.939,192.503,218.161,192.503,223.547L192.503,223.547z M178.853,221.72h7.421
		c-0.555-1.835-1.877-2.825-3.786-2.825C180.646,218.895,179.364,219.896,178.853,221.72z"/>
	<path d="M209.885,214.454v5.786h-2.455c-2.239,0-3.176,0.982-3.176,3.323v9.336h-6.323v-18.358h4.236l0.986,2.038
		c1.295-1.498,2.872-2.125,5.057-2.125H209.885z"/>
	<path d="M242.121,221.845v11.055h-6.323v-10.32c0-2.117-0.744-3.196-2.394-3.196c-1.914,0-3.106,1.357-3.106,3.713v9.804h-6.323
		v-24.987h6.323v7.837c1.352-1.089,3.071-1.751,4.9-1.751C239.413,213.998,242.121,217.086,242.121,221.845z"/>
	<path d="M267.995,214.521v18.358h-4.889l-0.542-1.298c-1.503,1.218-3.407,1.919-5.54,1.919c-5.613,0-9.626-4.095-9.626-9.801
		c0-5.686,4.013-9.731,9.626-9.731c2.162,0,4.094,0.722,5.609,1.973l0.647-1.42H267.995z M261.98,223.715
		c0-2.383-1.741-4.172-4.109-4.172c-2.383,0-4.109,1.789-4.109,4.172c0,2.397,1.741,4.188,4.109,4.188
		S261.98,226.112,261.98,223.715z"/>
	<path d="M281.614,233.501c-5.003,0-8.044-2.643-8.102-6.62h6.086c0,1.343,0.935,1.96,2.133,1.96c0.925,0,1.802-0.472,1.802-1.42
		c0-1.06-1.39-1.361-3.153-1.653c-2.847-0.461-6.62-1.32-6.62-5.772c0-3.68,3.136-6.056,7.84-6.056c4.675,0,7.705,2.487,7.776,6.207
		h-5.921c0-1.173-0.788-1.718-1.934-1.718c-1.014,0-1.695,0.502-1.695,1.354c0,1.044,1.404,1.287,3.148,1.599
		c2.9,0.515,6.756,1.117,6.756,5.773C289.73,230.99,286.492,233.501,281.614,233.501L281.614,233.501z"/>
	<path d="M324.081,223.547c0,0.553-0.048,1.106-0.13,1.674h-13.631c0.414,2.106,1.751,3.195,3.748,3.195
		c1.477,0,2.711-0.647,3.319-1.722h6.292c-1.292,4.189-5.005,6.808-9.611,6.808c-5.728,0-9.972-4.188-9.972-9.796
		c0-5.628,4.209-9.767,9.972-9.767C319.984,213.939,324.082,218.161,324.081,223.547L324.081,223.547z M310.431,221.72h7.421
		c-0.555-1.835-1.877-2.825-3.786-2.825C312.224,218.895,310.942,219.896,310.431,221.72z"/>
	<path d="M347.335,214.541l-7.38,18.358h-5.729l-7.478-18.358h6.928l3.47,10.873l3.431-10.873H347.335z"/>
	<path d="M370.015,223.547c0,0.553-0.048,1.106-0.13,1.674h-13.631c0.414,2.106,1.751,3.195,3.748,3.195
		c1.477,0,2.711-0.647,3.319-1.722h6.292c-1.292,4.189-5.005,6.808-9.611,6.808c-5.728,0-9.972-4.188-9.972-9.796
		c0-5.628,4.209-9.767,9.972-9.767C365.918,213.939,370.015,218.161,370.015,223.547L370.015,223.547z M356.364,221.72h7.421
		c-0.555-1.835-1.877-2.825-3.786-2.825C358.157,218.895,356.876,219.896,356.364,221.72z"/>
	<path d="M387.397,214.454v5.786h-2.455c-2.239,0-3.176,0.982-3.176,3.323v9.336h-6.323v-18.358h4.236l0.986,2.038
		c1.295-1.498,2.872-2.125,5.057-2.125H387.397z"/>
	<path d="M411.636,214.541l-7.695,17.541c-2.475,5.619-4.749,7.648-9.489,7.648h-2.165v-5.434h1.739c2.419,0,3.149-0.63,4.005-2.914
		l-7.586-16.842h6.872l3.896,10.113l3.63-10.113H411.636z"/>
	<path d="M428.113,227.361v5.538h-4.351c-4.06,0-6.527-2.481-6.527-6.562v-6.927h-3.36v-1.479l8.225-8.759h1.299v5.367h4.612v4.87
		h-4.453v5.842c0,1.315,0.793,2.108,2.127,2.108H428.113z"/>
	<path d="M451.763,221.845v11.055h-6.323v-10.32c0-2.117-0.744-3.196-2.394-3.196c-1.914,0-3.106,1.357-3.106,3.713v9.804h-6.323
		v-24.987h6.323v7.837c1.352-1.089,3.071-1.751,4.9-1.751C449.054,213.998,451.763,217.086,451.763,221.845z"/>
	<path d="M458.096,214.541h6.324v18.358h-6.324V214.541z M458.144,206.877h6.227v5.367h-6.227V206.877z"/>
	<path d="M489.094,221.705v11.194h-6.323v-10.32c0-2.137-0.803-3.196-2.394-3.196c-1.972,0-3.106,1.377-3.106,3.713v9.804h-6.323
		v-18.358h4.436l0.869,1.894c1.367-1.523,3.405-2.437,5.779-2.437C486.294,213.998,489.094,217.028,489.094,221.705z"/>
	<path d="M514.414,214.542v16.318c0,5.769-3.777,9.343-9.84,9.343c-5.209,0-8.856-2.627-9.701-6.978h6.102
		c0.438,1.227,2.005,1.888,3.541,1.888c2.119,0,3.822-1.347,3.822-3.529v-0.548c-1.38,0.876-3.019,1.378-4.79,1.378
		c-5.264,0-9.174-3.915-9.174-9.228c0-5.234,3.911-9.232,9.174-9.232c2.222,0,4.234,0.797,5.79,2.128l0.802-1.541L514.414,214.542z
		 M504.596,227.208c2.271,0,3.904-1.683,3.904-4.021c0-2.318-1.629-4.001-3.904-4.001c-2.271,0-3.919,1.683-3.919,4.001
		C500.677,225.525,502.306,227.208,504.596,227.208L504.596,227.208z"/>
	<path d="M549.675,214.541l-7.695,17.541c-2.475,5.619-4.749,7.648-9.489,7.648h-2.165v-5.434h1.739c2.419,0,3.149-0.63,4.005-2.914
		l-7.586-16.842h6.872l3.896,10.113l3.63-10.113H549.675z"/>
	<path d="M552.158,223.721c0-5.691,4.308-9.781,10.293-9.781c5.966,0,10.293,4.09,10.293,9.781c0,5.671-4.327,9.78-10.293,9.78
		C556.466,233.501,552.158,229.392,552.158,223.721z M562.451,227.821c2.306,0,3.959-1.673,3.959-4.101c0-2.412-1.653-4.1-3.959-4.1
		s-3.959,1.673-3.959,4.1S560.146,227.82,562.451,227.821L562.451,227.821z"/>
	<path d="M577.979,225.019v-10.478h6.323v10.202c0,1.938,1.042,3.077,2.731,3.077s2.711-1.158,2.711-3.077v-10.202h6.324v10.478
		c0,5.137-3.612,8.482-9.035,8.482S577.979,230.155,577.979,225.019z"/>
	<path d="M630.431,221.705v11.194h-6.323v-10.32c0-2.137-0.803-3.196-2.394-3.196c-1.972,0-3.106,1.377-3.106,3.713v9.804h-6.323
		v-18.358h4.437l0.868,1.894c1.367-1.523,3.405-2.437,5.779-2.437C627.631,213.998,630.431,217.028,630.431,221.705z"/>
	<path d="M655.681,223.547c0,0.553-0.048,1.106-0.13,1.674h-13.632c0.413,2.106,1.751,3.195,3.748,3.195
		c1.477,0,2.711-0.647,3.318-1.722h6.293c-1.292,4.189-5.006,6.808-9.611,6.808c-5.729,0-9.972-4.188-9.972-9.796
		c0-5.628,4.209-9.767,9.972-9.767C651.584,213.939,655.682,218.161,655.681,223.547L655.681,223.547z M642.03,221.72h7.422
		c-0.556-1.835-1.878-2.825-3.786-2.825C643.823,218.895,642.542,219.896,642.03,221.72z"/>
	<path d="M680.024,223.547c0,0.553-0.048,1.106-0.13,1.674h-13.632c0.413,2.106,1.751,3.195,3.748,3.195
		c1.477,0,2.711-0.647,3.318-1.722h6.293c-1.292,4.189-5.006,6.808-9.611,6.808c-5.729,0-9.972-4.188-9.972-9.796
		c0-5.628,4.209-9.767,9.972-9.767C675.928,213.939,680.025,218.161,680.024,223.547L680.024,223.547z M666.374,221.72h7.422
		c-0.556-1.835-1.878-2.825-3.786-2.825C668.167,218.895,666.886,219.896,666.374,221.72z"/>
	<path d="M704.843,207.912v24.987h-4.68l-0.596-1.363c-1.494,1.257-3.399,1.984-5.538,1.984c-5.633,0-9.646-4.095-9.646-9.8
		c0-5.706,4.013-9.781,9.646-9.781c1.695,0,3.246,0.457,4.563,1.274v-7.302H704.843z M698.985,223.721
		c0-2.397-1.741-4.201-4.109-4.201c-2.369,0-4.11,1.804-4.11,4.201s1.741,4.201,4.11,4.201
		C697.244,227.922,698.985,226.118,698.985,223.721z"/>
	<path d="M733.022,227.361v5.538h-4.351c-4.06,0-6.527-2.481-6.527-6.562v-6.927h-3.36v-1.479l8.226-8.759h1.299v5.367h4.611v4.87
		h-4.452v5.842c0,1.315,0.794,2.108,2.128,2.108H733.022z"/>
	<path d="M737.286,223.721c0-5.691,4.308-9.781,10.293-9.781c5.966,0,10.293,4.09,10.293,9.781c0,5.671-4.327,9.78-10.293,9.78
		C741.594,233.501,737.286,229.392,737.286,223.721z M747.579,227.821c2.306,0,3.959-1.673,3.959-4.101c0-2.412-1.653-4.1-3.959-4.1
		s-3.959,1.673-3.959,4.1S745.273,227.82,747.579,227.821L747.579,227.821z"/>
	<path d="M801.436,221.385v11.515h-6.324v-10.732c0-1.917-0.705-2.843-2.049-2.843c-1.738,0-2.629,1.197-2.629,3.509v10.066h-6.158
		v-10.732c0-1.859-0.701-2.843-2.025-2.843c-1.714,0-2.653,1.227-2.653,3.509v10.066h-6.323v-18.358h4.446l0.9,1.973
		c1.326-1.545,3.252-2.516,5.366-2.516c2.238,0,4.122,1.006,5.265,2.703c1.319-1.661,3.353-2.703,5.638-2.703
		C798.821,213.998,801.436,217.063,801.436,221.385z"/>
	<path d="M827.29,214.521v18.358h-4.889l-0.542-1.298c-1.503,1.218-3.406,1.919-5.539,1.919c-5.613,0-9.626-4.095-9.626-9.801
		c0-5.686,4.013-9.731,9.626-9.731c2.162,0,4.094,0.722,5.609,1.973l0.647-1.42H827.29z M821.275,223.715
		c0-2.383-1.741-4.172-4.109-4.172c-2.383,0-4.109,1.789-4.109,4.172c0,2.397,1.741,4.188,4.109,4.188
		S821.275,226.112,821.275,223.715z"/>
	<path d="M845.021,232.899l-4.598-7.764v7.764H834.1v-24.987h6.324v13.821l4.373-7.192h7.1l-5.721,8.75l6.3,9.608H845.021z"/>
	<path d="M874.74,223.547c0,0.553-0.048,1.106-0.13,1.674h-13.632c0.413,2.106,1.751,3.195,3.748,3.195
		c1.477,0,2.711-0.647,3.318-1.722h6.293c-1.292,4.189-5.006,6.808-9.611,6.808c-5.729,0-9.972-4.188-9.972-9.796
		c0-5.628,4.209-9.767,9.972-9.767C870.644,213.939,874.741,218.161,874.74,223.547L874.74,223.547z M861.09,221.72h7.422
		c-0.556-1.835-1.878-2.825-3.786-2.825C862.883,218.895,861.602,219.896,861.09,221.72z"/>
	<path d="M901.292,232.899l-4.598-7.764v7.764h-6.324v-24.987h6.324v13.821l4.373-7.192h7.1l-5.721,8.75l6.3,9.608H901.292z"/>
	<path d="M931.011,223.547c0,0.553-0.048,1.106-0.13,1.674h-13.632c0.413,2.106,1.751,3.195,3.748,3.195
		c1.477,0,2.711-0.647,3.318-1.722h6.293c-1.292,4.189-5.006,6.808-9.611,6.808c-5.729,0-9.972-4.188-9.972-9.796
		c0-5.628,4.209-9.767,9.972-9.767C926.914,213.939,931.012,218.161,931.011,223.547L931.011,223.547z M917.36,221.72h7.422
		c-0.556-1.835-1.878-2.825-3.786-2.825C919.153,218.895,917.872,219.896,917.36,221.72z"/>
	<path d="M954.782,214.541l-7.694,17.541c-2.475,5.619-4.749,7.648-9.489,7.648h-2.165v-5.434h1.738c2.42,0,3.149-0.63,4.006-2.914
		l-7.586-16.842h6.871l3.896,10.113l3.631-10.113H954.782z"/>
	<path d="M980.134,227.361v5.538h-4.351c-4.06,0-6.527-2.481-6.527-6.562v-6.927h-3.36v-1.479l8.226-8.759h1.299v5.367h4.611v4.87
		h-4.452v5.842c0,1.315,0.794,2.108,2.128,2.108H980.134z"/>
	<path d="M997.592,214.454v5.786h-2.454c-2.239,0-3.177,0.982-3.177,3.323v9.336h-6.323v-18.358h4.236l0.986,2.038
		c1.295-1.498,2.872-2.125,5.057-2.125H997.592z"/>
	<path d="M1021.771,214.521v18.358h-4.889l-0.542-1.298c-1.503,1.218-3.406,1.919-5.539,1.919c-5.613,0-9.626-4.095-9.626-9.801
		c0-5.686,4.013-9.731,9.626-9.731c2.162,0,4.094,0.722,5.609,1.973l0.647-1.42H1021.771z M1015.756,223.715
		c0-2.383-1.741-4.172-4.109-4.172c-2.383,0-4.109,1.789-4.109,4.172c0,2.397,1.741,4.188,4.109,4.188
		S1015.756,226.112,1015.756,223.715z"/>
	<path d="M1047.696,207.912v24.987h-4.68l-0.596-1.363c-1.494,1.257-3.399,1.984-5.538,1.984c-5.633,0-9.646-4.095-9.646-9.8
		c0-5.706,4.013-9.781,9.646-9.781c1.695,0,3.246,0.457,4.563,1.274v-7.302H1047.696z M1041.839,223.721
		c0-2.397-1.741-4.201-4.109-4.201c-2.369,0-4.11,1.804-4.11,4.201s1.741,4.201,4.11,4.201
		C1040.098,227.922,1041.839,226.118,1041.839,223.721z"/>
	<path d="M1054.214,214.541h6.323v18.358h-6.323V214.541z M1054.263,206.877h6.227v5.367h-6.227V206.877z"/>
	<path d="M1085.212,221.705v11.194h-6.323v-10.32c0-2.137-0.803-3.196-2.394-3.196c-1.972,0-3.106,1.377-3.106,3.713v9.804h-6.323
		v-18.358h4.437l0.868,1.894c1.367-1.523,3.405-2.437,5.779-2.437C1082.412,213.998,1085.212,217.028,1085.212,221.705z"/>
	<path d="M1110.532,214.542v16.318c0,5.769-3.776,9.343-9.841,9.343c-5.209,0-8.856-2.627-9.701-6.978h6.103
		c0.438,1.227,2.005,1.888,3.541,1.888c2.118,0,3.821-1.347,3.821-3.529v-0.548c-1.38,0.876-3.019,1.378-4.79,1.378
		c-5.264,0-9.174-3.915-9.174-9.228c0-5.234,3.91-9.232,9.174-9.232c2.222,0,4.234,0.797,5.79,2.128l0.802-1.541L1110.532,214.542z
		 M1100.715,227.208c2.271,0,3.904-1.683,3.904-4.021c0-2.318-1.629-4.001-3.904-4.001c-2.271,0-3.919,1.683-3.919,4.001
		C1096.796,225.525,1098.424,227.208,1100.715,227.208L1100.715,227.208z"/>
	<path d="M1146.396,207.912v24.987h-4.68l-0.596-1.363c-1.494,1.257-3.399,1.984-5.538,1.984c-5.633,0-9.646-4.095-9.646-9.8
		c0-5.706,4.013-9.781,9.646-9.781c1.695,0,3.246,0.457,4.563,1.274v-7.302H1146.396z M1140.539,223.721
		c0-2.397-1.741-4.201-4.109-4.201c-2.369,0-4.11,1.804-4.11,4.201s1.741,4.201,4.11,4.201
		C1138.798,227.922,1140.539,226.118,1140.539,223.721z"/>
	<path d="M1171.83,223.547c0,0.553-0.048,1.106-0.13,1.674h-13.632c0.413,2.106,1.751,3.195,3.748,3.195
		c1.477,0,2.711-0.647,3.318-1.722h6.293c-1.292,4.189-5.006,6.808-9.611,6.808c-5.729,0-9.972-4.188-9.972-9.796
		c0-5.628,4.209-9.767,9.972-9.767C1167.733,213.939,1171.831,218.161,1171.83,223.547L1171.83,223.547z M1158.18,221.72h7.422
		c-0.556-1.835-1.878-2.825-3.786-2.825C1159.973,218.895,1158.691,219.896,1158.18,221.72z"/>
	<path d="M1186.341,233.5c-5.888,0-10.138-4.124-10.138-9.805s4.23-9.728,10.157-9.728c5.159,0,9.028,3.253,9.72,8.136h-6.16
		c-0.531-1.498-1.932-2.469-3.58-2.469c-2.222,0-3.803,1.688-3.803,4.08s1.601,4.12,3.803,4.12c1.697,0,3.072-1.04,3.595-2.679
		h6.213C1195.433,230.142,1191.51,233.501,1186.341,233.5L1186.341,233.5z"/>
	<path d="M1201.432,214.541h6.323v18.358h-6.323V214.541z M1201.48,206.877h6.227v5.367h-6.227V206.877z"/>
	<path d="M1221.366,233.501c-5.004,0-8.045-2.643-8.103-6.62h6.086c0,1.343,0.935,1.96,2.134,1.96c0.925,0,1.802-0.472,1.802-1.42
		c0-1.06-1.39-1.361-3.153-1.653c-2.847-0.461-6.62-1.32-6.62-5.772c0-3.68,3.136-6.056,7.84-6.056c4.675,0,7.704,2.487,7.776,6.207
		h-5.922c0-1.173-0.787-1.718-1.934-1.718c-1.014,0-1.694,0.502-1.694,1.354c0,1.044,1.404,1.287,3.148,1.599
		c2.899,0.515,6.756,1.117,6.756,5.773C1229.482,230.99,1226.244,233.501,1221.366,233.501L1221.366,233.501z"/>
	<path d="M1234.989,214.541h6.323v18.358h-6.323V214.541z M1235.038,206.877h6.227v5.367h-6.227V206.877z"/>
	<path d="M1246.771,223.721c0-5.691,4.308-9.781,10.293-9.781c5.966,0,10.293,4.09,10.293,9.781c0,5.671-4.327,9.78-10.293,9.78
		C1251.079,233.501,1246.771,229.392,1246.771,223.721z M1257.064,227.821c2.306,0,3.959-1.673,3.959-4.101
		c0-2.412-1.653-4.1-3.959-4.1s-3.959,1.673-3.959,4.1S1254.759,227.82,1257.064,227.821L1257.064,227.821z"/>
	<path d="M1290.977,221.705v11.194h-6.323v-10.32c0-2.137-0.803-3.196-2.394-3.196c-1.972,0-3.106,1.377-3.106,3.713v9.804h-6.323
		v-18.358h4.437l0.868,1.894c1.367-1.523,3.405-2.437,5.779-2.437C1288.177,213.998,1290.977,217.028,1290.977,221.705z"/>
	<path d="M1304.394,233.501c-5.004,0-8.045-2.643-8.103-6.62h6.086c0,1.343,0.935,1.96,2.134,1.96c0.925,0,1.802-0.472,1.802-1.42
		c0-1.06-1.39-1.361-3.153-1.653c-2.847-0.461-6.62-1.32-6.62-5.772c0-3.68,3.136-6.056,7.84-6.056c4.675,0,7.704,2.487,7.776,6.207
		h-5.922c0-1.173-0.787-1.718-1.934-1.718c-1.014,0-1.694,0.502-1.694,1.354c0,1.044,1.404,1.287,3.148,1.599
		c2.899,0.515,6.756,1.117,6.756,5.773C1312.51,230.99,1309.271,233.501,1304.394,233.501L1304.394,233.501z"/>
	<path d="M1317.782,227.025h6.135v5.874h-6.135V227.025z"/>
</g>
</svg>