<!-- Generator: Adobe Illustrator 21.0.0, SVG Export Plug-In  -->
<svg version="1.1"
	 xmlns="http://www.w3.org/2000/svg" xmlns:xlink="http://www.w3.org/1999/xlink" xmlns:a="http://ns.adobe.com/AdobeSVGViewerExtensions/3.0/"
	 x="0px" y="0px" width="324px" height="100px" viewBox="0 0 324 100" style="enable-background:new 0 0 324 100;"
	 xml:space="preserve">
<style type="text/css">
	.st0{fill:#2E3192;}
	.st1{fill:none;}
	.st2{fill:#FFFFFF;}
	.st3{font-family:'Mont-HeavyDEMO';}
	.st4{font-size:48.1464px;}
</style>
<defs>
</defs>
<g>
	<g>
		<path class="st0" d="M324,10c0-5.523-4.477-10-10-10H10C4.477,0,0,4.477,0,10v80c0,5.523,4.477,10,10,10h304
			c5.523,0,10-4.477,10-10V10z"/>
	</g>
	<g>
		<rect x="34.742" y="27.478" class="st1" width="255.183" height="42.941"/>
		<path class="st2" d="M69.034,45.988c0,9.834-7.221,16.877-17.396,16.877H37.999V29.166h13.639
			C61.841,29.166,69.034,36.141,69.034,45.988z M59.517,45.988c0-5-3.326-8.32-8.316-8.32h-3.876v16.695H51.2
			C56.19,54.363,59.517,50.959,59.517,45.988z"/>
		<path class="st2" d="M71.913,49.867c0-8.059,6.1-13.85,14.575-13.85c8.448,0,14.575,5.792,14.575,13.85
			c0,8.031-6.127,13.85-14.575,13.85C78.013,63.717,71.913,57.897,71.913,49.867z M86.488,55.673c3.265,0,5.606-2.369,5.606-5.806
			c0-3.417-2.341-5.807-5.606-5.807c-3.265,0-5.606,2.369-5.606,5.806C80.882,53.304,83.224,55.673,86.488,55.673L86.488,55.673z"/>
		<path class="st2" d="M143.105,36.868l-8.282,25.997h-7.217l-5.144-11.645l-5.031,11.645h-7.217l-8.487-25.997h9.377l3.937,13.65
			l6.145-13.567h2.418l6.48,13.692l3.876-13.775H143.105z"/>
		<path class="st2" d="M171.873,47.013v15.852h-8.954V48.25c0-3.026-1.137-4.527-3.39-4.527c-2.792,0-4.399,1.95-4.399,5.259v13.882
			h-8.954V36.868h6.282l1.23,2.681c1.936-2.157,4.822-3.449,8.184-3.449C167.908,36.1,171.873,40.39,171.873,47.013z"/>
		<path class="st2" d="M177.229,27.481h8.954v35.384h-8.954V27.481z"/>
		<path class="st2" d="M190.303,49.867c0-8.059,6.1-13.85,14.575-13.85c8.448,0,14.575,5.792,14.575,13.85
			c0,8.031-6.127,13.85-14.575,13.85C196.403,63.717,190.303,57.897,190.303,49.867z M204.878,55.673
			c3.265,0,5.606-2.369,5.606-5.806c0-3.417-2.341-5.807-5.606-5.807c-3.265,0-5.606,2.369-5.606,5.806
			C199.272,53.304,201.614,55.673,204.878,55.673L204.878,55.673z"/>
		<path class="st2" d="M251.264,36.841v25.997h-6.922l-0.767-1.838c-2.129,1.724-4.825,2.718-7.844,2.718
			c-7.949,0-13.631-5.799-13.631-13.878c0-8.051,5.682-13.782,13.631-13.782c3.062,0,5.797,1.022,7.943,2.793l0.916-2.01
			L251.264,36.841z M242.748,49.859c0-3.375-2.465-5.908-5.819-5.908c-3.374,0-5.819,2.534-5.819,5.908
			c0,3.395,2.465,5.929,5.819,5.929S242.748,53.254,242.748,49.859z"/>
		<path class="st2" d="M284.367,27.481v35.384h-6.626l-0.844-1.931c-2.115,1.78-4.813,2.81-7.841,2.81
			c-7.977,0-13.659-5.798-13.659-13.877s5.682-13.851,13.659-13.851c2.4,0,4.597,0.647,6.459,1.805v-10.34H284.367z M276.072,49.867
			c0-3.395-2.465-5.95-5.819-5.95s-5.819,2.555-5.819,5.95c0,3.395,2.465,5.949,5.819,5.949S276.072,53.262,276.072,49.867z"/>
	</g>
</g>
</svg>