<!-- Generator: Adobe Illustrator 21.0.0, SVG Export Plug-In  -->
<svg version="1.1"
	 xmlns="http://www.w3.org/2000/svg" xmlns:xlink="http://www.w3.org/1999/xlink" xmlns:a="http://ns.adobe.com/AdobeSVGViewerExtensions/3.0/"
	 x="0px" y="0px" width="477px" height="77px" viewBox="0 0 477 77" style="enable-background:new 0 0 477 77;"
	 xml:space="preserve">
<style type="text/css">
	.st0{fill:#2E3192;}
	.st1{fill:none;}
	.st2{fill:#FFFFFF;}
	.st3{font-family:'Mont-HeavyDEMO';}
	.st4{font-size:37px;}
</style>
<defs>
</defs>
<g>
	<g>
		<path class="st0" d="M477,10c0-5.523-4.477-10-10-10H10C4.477,0,0,4.477,0,10v57c0,5.523,4.477,10,10,10h457
			c5.523,0,10-4.477,10-10V10z"/>
	</g>
	<g>
		<rect x="26" y="20" class="st1" width="425.5" height="42"/>
		<path class="st2" d="M27.155,34.266c0-7.791,5.888-13.628,13.771-13.628c6.788,0,12.046,4.48,13.099,11.049h-7.23
			c-0.889-2.657-3.127-4.382-5.853-4.382c-3.667,0-6.358,2.949-6.358,6.96c0,3.995,2.69,6.902,6.358,6.902
			c2.874,0,5.133-1.873,5.859-4.752H54.1c-0.985,6.812-6.274,11.435-13.173,11.435C33.042,47.85,27.155,42.014,27.155,34.266z"/>
		<path class="st2" d="M70.185,27.118v6.298h-2.672c-2.437,0-3.458,1.068-3.458,3.617v10.161h-6.882V27.213h4.611l1.074,2.218
			c1.409-1.63,3.125-2.313,5.504-2.313H70.185z"/>
		<path class="st2" d="M93.043,37.015c0,0.603-0.052,1.204-0.142,1.822H78.064c0.45,2.292,1.906,3.478,4.079,3.478
			c1.608,0,2.951-0.704,3.613-1.874h6.849C91.198,45,87.156,47.85,82.143,47.85c-6.234,0-10.853-4.557-10.853-10.661
			c0-6.126,4.582-10.63,10.853-10.63C88.584,26.559,93.043,31.153,93.043,37.015L93.043,37.015z M78.186,35.025h8.078
			c-0.604-1.997-2.043-3.074-4.12-3.074C80.137,31.951,78.742,33.041,78.186,35.025z"/>
		<path class="st2" d="M117.439,27.191v19.981h-5.32l-0.59-1.413c-1.636,1.326-3.708,2.09-6.029,2.09
			c-6.11,0-10.478-4.458-10.478-10.667c0-6.188,4.368-10.593,10.478-10.593c2.353,0,4.456,0.785,6.105,2.146l0.704-1.545H117.439z
			 M110.894,37.198c0-2.594-1.895-4.541-4.473-4.541c-2.593,0-4.473,1.947-4.473,4.541c0,2.609,1.895,4.557,4.473,4.557
			C108.999,41.755,110.894,39.808,110.894,37.198z"/>
		<path class="st2" d="M135.25,41.166v6.028h-4.735c-4.419,0-7.104-2.701-7.104-7.142v-7.539h-3.657v-1.609l8.953-9.533h1.414v5.842
			h5.02v5.301h-4.846v6.358c0,1.431,0.863,2.294,2.315,2.294H135.25z"/>
		<path class="st2" d="M158.865,37.015c0,0.603-0.052,1.204-0.142,1.822h-14.837c0.45,2.292,1.906,3.478,4.079,3.478
			c1.608,0,2.951-0.704,3.613-1.874h6.849c-1.406,4.56-5.448,7.409-10.461,7.409c-6.234,0-10.853-4.557-10.853-10.661
			c0-6.126,4.582-10.63,10.853-10.63C154.406,26.559,158.866,31.153,158.865,37.015L158.865,37.015z M144.008,35.025h8.078
			c-0.604-1.997-2.043-3.074-4.12-3.074C145.959,31.951,144.564,33.041,144.008,35.025z"/>
		<path class="st2" d="M194.215,34.223c0,7.559-5.55,12.972-13.371,12.972H170.36V21.293h10.483
			C188.686,21.293,194.215,26.653,194.215,34.223z M186.899,34.223c0-3.843-2.556-6.396-6.392-6.396h-2.979V40.66h2.979
			C184.343,40.66,186.899,38.044,186.899,34.223z"/>
		<path class="st2" d="M218.176,37.015c0,0.603-0.052,1.204-0.142,1.822h-14.837c0.45,2.292,1.906,3.478,4.079,3.478
			c1.608,0,2.951-0.704,3.613-1.874h6.849c-1.406,4.56-5.448,7.409-10.461,7.409c-6.234,0-10.853-4.557-10.853-10.661
			c0-6.126,4.582-10.63,10.853-10.63C213.717,26.559,218.176,31.153,218.176,37.015L218.176,37.015z M203.318,35.025h8.078
			c-0.604-1.997-2.043-3.074-4.12-3.074C205.27,31.951,203.875,33.041,203.318,35.025z"/>
		<path class="st2" d="M251.955,34.662v12.532h-6.882V35.513c0-2.087-0.769-3.094-2.231-3.094c-1.891,0-2.861,1.303-2.861,3.819
			v10.956h-6.702V35.513c0-2.023-0.763-3.094-2.204-3.094c-1.866,0-2.889,1.335-2.889,3.819v10.956h-6.882V27.213h4.839l0.98,2.146
			c1.444-1.682,3.54-2.737,5.841-2.737c2.436,0,4.487,1.094,5.73,2.941c1.437-1.808,3.648-2.941,6.136-2.941
			C249.111,26.622,251.955,29.957,251.955,34.662z"/>
		<path class="st2" d="M254.882,37.204c0-6.194,4.688-10.646,11.203-10.646c6.494,0,11.203,4.451,11.203,10.646
			c0,6.172-4.709,10.646-11.203,10.646C259.57,47.85,254.882,43.376,254.882,37.204z M270.395,37.204c0-2.626-1.8-4.463-4.31-4.463
			s-4.31,1.821-4.31,4.463s1.8,4.463,4.31,4.463S270.395,39.846,270.395,37.204z"/>
		<path class="st2" d="M303.698,42.987h-9.181l-1.435,4.207h-7.647l10.175-25.901h6.976l10.397,25.901h-7.858L303.698,42.987z
			 M299.093,29.377l-2.838,8.026h5.702L299.093,29.377z"/>
		<path class="st2" d="M324.393,47.849c-6.408,0-11.033-4.489-11.033-10.673c0-6.183,4.604-10.587,11.055-10.587
			c5.615,0,9.827,3.54,10.579,8.855h-6.704c-0.578-1.631-2.103-2.688-3.896-2.688c-2.419,0-4.14,1.838-4.14,4.441
			s1.742,4.484,4.14,4.484c1.847,0,3.344-1.131,3.912-2.915h6.763C334.289,44.192,330.019,47.85,324.393,47.849L324.393,47.849z"/>
		<path class="st2" d="M347.924,47.849c-6.408,0-11.033-4.489-11.033-10.673c0-6.183,4.604-10.587,11.055-10.587
			c5.615,0,9.827,3.54,10.579,8.855h-6.704c-0.578-1.631-2.103-2.688-3.896-2.688c-2.419,0-4.14,1.838-4.14,4.441
			s1.742,4.484,4.14,4.484c1.847,0,3.344-1.131,3.912-2.915h6.763C357.82,44.192,353.55,47.85,347.924,47.849L347.924,47.849z"/>
		<path class="st2" d="M360.405,37.204c0-6.194,4.688-10.646,11.203-10.646c6.494,0,11.203,4.451,11.203,10.646
			c0,6.172-4.709,10.646-11.203,10.646C365.094,47.85,360.405,43.376,360.405,37.204z M375.918,37.204c0-2.626-1.8-4.463-4.31-4.463
			s-4.31,1.821-4.31,4.463s1.8,4.463,4.31,4.463S375.918,39.846,375.918,37.204z"/>
		<path class="st2" d="M385.73,38.616V27.213h6.882v11.104c0,2.108,1.134,3.35,2.974,3.35c1.838,0,2.95-1.262,2.95-3.35V27.213
			h6.883v11.403c0,5.591-3.932,9.233-9.833,9.233C389.683,47.85,385.73,44.207,385.73,38.616z"/>
		<path class="st2" d="M429.236,35.011v12.184h-6.883V35.962c0-2.326-0.874-3.479-2.605-3.479c-2.146,0-3.381,1.499-3.381,4.042
			v10.67h-6.883V27.213h4.828l0.945,2.061c1.488-1.658,3.707-2.651,6.29-2.651C426.188,26.622,429.236,29.92,429.236,35.011z"/>
		<path class="st2" d="M446.676,41.166v6.028h-4.735c-4.419,0-7.104-2.701-7.104-7.142v-7.539h-3.657v-1.609l8.952-9.533h1.414
			v5.842h5.02v5.301h-4.846v6.358c0,1.431,0.863,2.294,2.315,2.294H446.676z"/>
	</g>
</g>
</svg>