<!-- Generator: Adobe Illustrator 21.0.0, SVG Export Plug-In  -->
<svg version="1.1"
	 xmlns="http://www.w3.org/2000/svg" xmlns:xlink="http://www.w3.org/1999/xlink" xmlns:a="http://ns.adobe.com/AdobeSVGViewerExtensions/3.0/"
	 x="0px" y="0px" width="877px" height="367px" viewBox="0 0 877 367" style="enable-background:new 0 0 877 367;"
	 xml:space="preserve">
<style type="text/css">
	.st0{fill:none;}
	.st1{fill:#FFFFFF;}
	.st2{fill:#ED1C24;}
	.st3{opacity:0.6;}
	.st4{fill:none;stroke:#ED1C24;stroke-width:20;stroke-miterlimit:10;}
	.st5{fill:none;stroke:#ED1C24;stroke-width:20;stroke-miterlimit:10;stroke-dasharray:270,43;}
	.st6{opacity:0.8;}
	.st7{opacity:0.8;fill:none;stroke:#FFFFFF;stroke-width:5;stroke-miterlimit:10;}
	.st8{font-family:'Mont-HeavyDEMO';}
	.st9{font-size:50px;}
	.st10{letter-spacing:-1;}
	.st11{font-size:53.9996px;}
	.st12{letter-spacing:2;}
	.st13{font-size:42px;}
	.st14{letter-spacing:1;}
</style>
<defs>
</defs>
<g>
	<rect x="61.785" y="115.5" class="st0" width="766" height="112"/>
	<path class="st1" d="M145.57,125.929h-9.508v26.32h-9.685v-26.32h-9.508v-8.682h28.702V125.929z"/>
	<path class="st1" d="M175.955,135.989v16.26h-9.3V137.07c0-3.114-1.094-4.702-3.521-4.702c-2.814,0-4.569,1.997-4.569,5.462v14.419
		h-9.3v-36.752h9.3v11.527c1.988-1.601,4.517-2.575,7.208-2.575C171.972,124.449,175.955,128.99,175.955,135.989z"/>
	<path class="st1" d="M209.336,138.493c0,0.813-0.071,1.627-0.192,2.462h-20.049c0.608,3.097,2.576,4.699,5.512,4.699
		c2.172,0,3.988-0.952,4.882-2.532h9.255c-1.9,6.162-7.362,10.013-14.137,10.013c-8.425,0-14.667-6.158-14.667-14.407
		c0-8.278,6.191-14.365,14.667-14.365C203.311,124.363,209.337,130.572,209.336,138.493L209.336,138.493z M189.259,135.805h10.916
		c-0.816-2.699-2.761-4.155-5.568-4.155C191.896,131.65,190.011,133.123,189.259,135.805z"/>
	<path class="st1" d="M259.483,152.249l-2.731-20.158l-9.283,20.215h-2.849l-9.278-20.208l-2.693,20.15h-9.771l5.294-35.002h9.629
		l8.243,19.046l8.296-19.046h9.629l5.245,35.002H259.483z"/>
	<path class="st1" d="M271.59,138.748c0-8.37,6.335-14.385,15.139-14.385c8.775,0,15.139,6.016,15.139,14.385
		c0,8.342-6.364,14.386-15.139,14.386C277.926,153.134,271.59,147.09,271.59,138.748z M286.729,144.78
		c3.391,0,5.823-2.461,5.823-6.031c0-3.548-2.432-6.031-5.823-6.031c-3.392,0-5.824,2.461-5.824,6.03
		C280.906,142.318,283.338,144.779,286.729,144.78L286.729,144.78z"/>
	<path class="st1" d="M316.58,153.134c-7.359,0-11.832-3.887-11.917-9.737h8.952c0,1.975,1.375,2.884,3.138,2.884
		c1.361,0,2.65-0.694,2.65-2.09c0-1.558-2.044-2.001-4.638-2.431c-4.187-0.678-9.737-1.942-9.737-8.491
		c0-5.413,4.612-8.907,11.531-8.907c6.876,0,11.332,3.658,11.438,9.129h-8.71c0-1.724-1.159-2.525-2.844-2.525
		c-1.491,0-2.493,0.738-2.493,1.99c0,1.537,2.065,1.894,4.63,2.352c4.266,0.757,9.937,1.644,9.937,8.491
		c0,5.643-4.763,9.336-11.939,9.336L316.58,153.134z"/>
	<path class="st1" d="M350.823,144.103v8.146h-6.399c-5.971,0-9.601-3.65-9.601-9.65V132.41h-4.942v-2.174l12.098-12.883h1.911
		v7.895h6.784v7.162h-6.549v8.593c0,1.934,1.167,3.1,3.129,3.1H350.823z"/>
	<path class="st1" d="M394.339,129.893c0,7.34-5.528,12.689-12.968,12.689h-5.238v9.667h-9.665v-35.002h14.902
		C388.812,117.247,394.339,122.553,394.339,129.893z M384.427,129.915c0-2.488-1.673-4.247-4.211-4.247h-4.082v8.495h4.082
		C382.753,134.162,384.427,132.402,384.427,129.915z"/>
	<path class="st1" d="M396.539,138.748c0-8.37,6.335-14.385,15.139-14.385c8.775,0,15.139,6.016,15.139,14.385
		c0,8.342-6.364,14.386-15.139,14.386C402.875,153.134,396.539,147.09,396.539,138.748z M411.678,144.78
		c3.391,0,5.823-2.461,5.823-6.031c0-3.548-2.432-6.031-5.823-6.031c-3.392,0-5.824,2.461-5.824,6.03
		C405.854,142.318,408.287,144.779,411.678,144.78L411.678,144.78z"/>
	<path class="st1" d="M461.047,138.748c0,8.413-5.902,14.415-14.158,14.415c-2.442,0-4.678-0.642-6.583-1.793V162h-9.194v-36.752
		h6.325l1.165,2.145c2.221-1.92,5.079-3.03,8.288-3.03C455.145,124.362,461.047,130.336,461.047,138.748z M451.688,138.748
		c0-3.547-2.561-6.179-6.044-6.179c-3.484,0-6.045,2.632-6.045,6.179c0,3.547,2.561,6.18,6.045,6.18
		C449.106,144.927,451.688,142.295,451.688,138.748z"/>
	<path class="st1" d="M464.96,140.657v-15.41h9.301v15.005c0,2.85,1.532,4.526,4.018,4.526c2.484,0,3.987-1.705,3.987-4.526v-15.005
		h9.301v15.41c0,7.556-5.313,12.477-13.288,12.477C470.302,153.134,464.96,148.213,464.96,140.657z"/>
	<path class="st1" d="M497.061,115.497h9.301v36.752h-9.301V115.497z"/>
	<path class="st1" d="M540.951,125.219v27.002h-7.19l-0.796-1.91c-2.211,1.791-5.012,2.823-8.147,2.823
		c-8.257,0-14.158-6.023-14.158-14.415c0-8.363,5.901-14.314,14.158-14.314c3.18,0,6.021,1.062,8.25,2.902l0.952-2.088
		L540.951,125.219z M532.105,138.741c0-3.505-2.562-6.137-6.045-6.137c-3.505,0-6.044,2.632-6.044,6.137
		c0,3.526,2.561,6.158,6.044,6.158S532.105,142.267,532.105,138.741z"/>
	<path class="st1" d="M564.393,125.119v8.511h-3.61c-3.293,0-4.672,1.444-4.672,4.888v13.731h-9.301v-27.001h6.23l1.451,2.997
		c1.904-2.203,4.224-3.125,7.438-3.125H564.393z"/>
	<path class="st1" d="M602.966,125.929h-9.508v26.32h-9.686v-26.32h-9.509v-8.682h28.702V125.929z"/>
	<path class="st1" d="M623.343,125.119v8.511h-3.61c-3.293,0-4.672,1.444-4.672,4.888v13.731h-9.301v-27.001h6.23l1.451,2.997
		c1.904-2.203,4.224-3.125,7.438-3.125H623.343z"/>
	<path class="st1" d="M655.151,125.219v27.002h-7.19l-0.796-1.91c-2.211,1.791-5.012,2.823-8.147,2.823
		c-8.257,0-14.158-6.023-14.158-14.415c0-8.363,5.901-14.314,14.158-14.314c3.18,0,6.021,1.062,8.25,2.902l0.952-2.088
		L655.151,125.219z M646.306,138.741c0-3.505-2.562-6.137-6.045-6.137c-3.505,0-6.044,2.632-6.044,6.137
		c0,3.526,2.561,6.158,6.044,6.158S646.306,142.267,646.306,138.741z"/>
	<path class="st1" d="M689.528,115.497v36.752h-6.883l-0.877-2.005c-2.196,1.849-4.999,2.918-8.145,2.918
		c-8.285,0-14.187-6.023-14.187-14.415s5.901-14.386,14.187-14.386c2.493,0,4.774,0.672,6.71,1.875v-10.74H689.528z
		 M680.913,138.749c0-3.526-2.561-6.179-6.045-6.179c-3.483,0-6.044,2.653-6.044,6.179s2.561,6.179,6.044,6.179
		C678.353,144.928,680.913,142.274,680.913,138.749z"/>
	<path class="st1" d="M695.359,125.247h9.301v27.001h-9.301V125.247z M695.431,113.975h9.158v7.893h-9.158V113.975z"/>
	<path class="st1" d="M737.2,135.785v16.464h-9.301V137.07c0-3.143-1.181-4.702-3.521-4.702c-2.9,0-4.568,2.026-4.568,5.462v14.419
		h-9.301v-27.001h6.524l1.278,2.784c2.011-2.24,5.008-3.583,8.5-3.583C733.082,124.449,737.2,128.905,737.2,135.785z"/>
	<path class="st1" d="M770.684,125.248v24.001c0,8.485-5.555,13.742-14.474,13.742c-7.662,0-13.026-3.864-14.269-10.263h8.975
		c0.645,1.805,2.949,2.777,5.208,2.777c3.116,0,5.621-1.981,5.621-5.191v-0.806c-2.029,1.288-4.439,2.027-7.046,2.027
		c-7.741,0-13.493-5.759-13.493-13.572c0-7.699,5.752-13.58,13.493-13.58c3.269,0,6.229,1.172,8.517,3.129l1.18-2.266
		L770.684,125.248z M761.986,137.964c0-3.411-2.396-5.886-5.743-5.886c-3.339,0-5.764,2.475-5.764,5.886
		c0,3.439,2.396,5.914,5.764,5.914C759.583,143.878,761.986,141.403,761.986,137.964z"/>
	<path class="st1" d="M169.267,189.893c0,7.34-5.528,12.689-12.968,12.689h-5.238v9.667h-9.665v-35.002h14.902
		C163.739,177.247,169.267,182.553,169.267,189.893z M159.354,189.915c0-2.488-1.673-4.247-4.211-4.247h-4.082v8.495h4.082
		C157.681,194.162,159.354,192.402,159.354,189.915z"/>
	<path class="st1" d="M173.189,175.497h9.3v36.752h-9.3V175.497z"/>
	<path class="st1" d="M217.08,185.219v27.002h-7.19l-0.796-1.91c-2.211,1.791-5.012,2.823-8.148,2.823
		c-8.256,0-14.158-6.023-14.158-14.415c0-8.363,5.902-14.314,14.158-14.314c3.18,0,6.021,1.062,8.25,2.902l0.952-2.088
		L217.08,185.219z M208.234,198.741c0-3.505-2.561-6.137-6.044-6.137c-3.504,0-6.044,2.632-6.044,6.137
		c0,3.526,2.561,6.158,6.044,6.158C205.673,204.899,208.234,202.267,208.234,198.741z"/>
	<path class="st1" d="M241.148,204.103v8.146h-6.399c-5.971,0-9.601-3.65-9.601-9.65V192.41h-4.942v-2.174l12.098-12.883h1.911
		v7.895h6.784v7.162h-6.549v8.593c0,1.934,1.167,3.1,3.129,3.1H241.148z"/>
	<path class="st1" d="M263.542,192.996h-6.055v19.252h-9.3v-19.252h-4.465l-0.021-7.307h4.6v-2.585c0-5.411,2.971-8.578,8.699-8.578
		h6.493v7.134h-4.107c-1.381,0-2.204,0.815-2.204,2.196v1.833h6.361V192.996z"/>
	<path class="st1" d="M265.015,198.748c0-8.37,6.335-14.385,15.139-14.385c8.775,0,15.139,6.016,15.139,14.385
		c0,8.342-6.364,14.386-15.139,14.386C271.35,213.134,265.015,207.09,265.015,198.748z M280.154,204.78
		c3.391,0,5.823-2.461,5.823-6.031c0-3.548-2.432-6.031-5.823-6.031c-3.392,0-5.824,2.461-5.824,6.03
		C274.33,202.318,276.762,204.779,280.154,204.78L280.154,204.78z"/>
	<path class="st1" d="M317.17,185.119v8.511h-3.611c-3.292,0-4.672,1.444-4.672,4.888v13.731h-9.3v-27.001h6.231l1.451,2.997
		c1.904-2.203,4.224-3.125,7.438-3.125H317.17z"/>
	<path class="st1" d="M362.108,195.313v16.936h-9.3v-15.786c0-2.82-1.038-4.181-3.015-4.181c-2.556,0-3.867,1.761-3.867,5.161
		v14.805h-9.058v-15.786c0-2.735-1.03-4.181-2.978-4.181c-2.521,0-3.903,1.803-3.903,5.161v14.805h-9.3v-27.001h6.54l1.324,2.901
		c1.951-2.273,4.783-3.7,7.893-3.7c3.292,0,6.063,1.479,7.744,3.975c1.94-2.442,4.93-3.975,8.292-3.975
		C358.264,184.449,362.108,188.955,362.108,195.313z"/>
	<path class="st1" d="M396.396,213.135c-11.252,0-19.282-7.688-19.282-18.386s8.029-18.386,19.282-18.386
		c11.223,0,19.224,7.66,19.224,18.386C415.619,205.475,407.619,213.134,396.396,213.135L396.396,213.135z M396.396,204.162
		c5.327,0,9.184-3.936,9.184-9.413c0-5.478-3.856-9.413-9.184-9.413c-5.328,0-9.242,3.964-9.242,9.413
		S391.067,204.162,396.396,204.162L396.396,204.162z"/>
	<path class="st1" d="M446.627,195.785v16.464h-9.301V197.07c0-3.143-1.181-4.702-3.521-4.702c-2.9,0-4.569,2.026-4.569,5.462
		v14.419h-9.3v-27.001h6.525l1.277,2.784c2.011-2.24,5.008-3.583,8.5-3.583C442.508,184.449,446.627,188.905,446.627,195.785z"/>
	<path class="st1" d="M488.391,185.929h-9.508v26.32h-9.686v-26.32h-9.509v-8.682h28.702V185.929z"/>
	<path class="st1" d="M518.776,195.989v16.26h-9.301V197.07c0-3.114-1.095-4.702-3.521-4.702c-2.814,0-4.568,1.997-4.568,5.462
		v14.419h-9.301v-36.752h9.301v11.527c1.988-1.601,4.517-2.575,7.208-2.575C514.792,184.449,518.776,188.99,518.776,195.989z"/>
	<path class="st1" d="M552.156,198.493c0,0.813-0.07,1.627-0.191,2.462h-20.05c0.608,3.097,2.575,4.699,5.512,4.699
		c2.173,0,3.988-0.952,4.882-2.532h9.256c-1.9,6.162-7.363,10.013-14.138,10.013c-8.425,0-14.666-6.158-14.666-14.407
		c0-8.278,6.191-14.365,14.666-14.365C546.131,184.363,552.157,190.572,552.156,198.493L552.156,198.493z M532.079,195.805h10.915
		c-0.815-2.699-2.761-4.155-5.567-4.155C534.716,191.65,532.831,193.123,532.079,195.805z"/>
	<path class="st1" d="M602.304,212.249l-2.731-20.158l-9.283,20.215h-2.849l-9.278-20.208l-2.693,20.15h-9.771l5.294-35.002h9.63
		l8.242,19.046l8.296-19.046h9.63l5.244,35.002H602.304z"/>
	<path class="st1" d="M644.725,185.219v27.002h-7.19l-0.796-1.91c-2.211,1.791-5.012,2.823-8.147,2.823
		c-8.257,0-14.158-6.023-14.158-14.415c0-8.363,5.901-14.314,14.158-14.314c3.18,0,6.021,1.062,8.25,2.902l0.952-2.088
		L644.725,185.219z M635.879,198.741c0-3.505-2.562-6.137-6.045-6.137c-3.505,0-6.044,2.632-6.044,6.137
		c0,3.526,2.561,6.158,6.044,6.158S635.879,202.267,635.879,198.741z"/>
	<path class="st1" d="M668.166,185.119v8.511h-3.61c-3.293,0-4.672,1.444-4.672,4.888v13.731h-9.301v-27.001h6.23l1.451,2.997
		c1.904-2.203,4.224-3.125,7.438-3.125H668.166z"/>
	<path class="st1" d="M688.149,212.249l-6.764-11.419v11.419h-9.3v-36.752h9.3v20.329l6.433-10.578h10.443l-8.415,12.869
		l9.267,14.132H688.149z"/>
	<path class="st1" d="M728.105,198.493c0,0.813-0.07,1.627-0.191,2.462h-20.05c0.608,3.097,2.575,4.699,5.512,4.699
		c2.173,0,3.988-0.952,4.882-2.532h9.256c-1.9,6.162-7.363,10.013-14.138,10.013c-8.425,0-14.666-6.158-14.666-14.407
		c0-8.278,6.191-14.365,14.666-14.365C722.08,184.363,728.106,190.572,728.105,198.493L728.105,198.493z M708.028,195.805h10.915
		c-0.815-2.699-2.761-4.155-5.567-4.155C710.665,191.65,708.78,193.123,708.028,195.805z"/>
	<path class="st1" d="M750.143,204.103v8.146h-6.398c-5.972,0-9.601-3.65-9.601-9.65V192.41h-4.942v-2.174l12.098-12.883h1.91v7.895
		h6.783v7.162h-6.549v8.593c0,1.934,1.167,3.1,3.13,3.1H750.143z"/>
</g>
<g>
	<rect x="387.229" y="49" class="st0" width="238" height="102.667"/>
	<path class="st2" d="M414.887,79.152v9.537h-24.004V50.888h10.552v28.264H414.887z"/>
	<path class="st2" d="M432.762,60.311v6.017h12.147v9.115h-12.147v13.247h-10.506V50.888h24.057v9.423H432.762z"/>
	<path class="st2" d="M492.274,68.487c0,12.369-8.075,21.157-19.913,21.157c-11.582,0-20.138-8.324-20.138-19.825
		s8.4-19.887,20.045-19.887c9.908,0,18.013,6.2,19.612,14.984h-10.913c-1.368-3.184-4.751-5.231-8.605-5.231
		c-5.662,0-9.479,4.094-9.479,10.134c0,5.978,3.754,10.072,9.479,10.072c3.974,0,7.382-1.923,8.57-4.838h-9.388v-6.565
		L492.274,68.487z"/>
</g>
<g class="st3">
	<g>
		<polyline class="st4" points="617,10 867,10 867,357 617,357 		"/>
		<line class="st5" x1="574" y1="357" x2="282" y2="357"/>
		<polyline class="st4" points="260,357 10,357 10,10 260,10 		"/>
		<line class="st5" x1="303" y1="10" x2="595" y2="10"/>
	</g>
</g>
<g class="st6">
	<rect x="340.097" y="266.505" class="st0" width="526.903" height="100.495"/>
	<path class="st1" d="M361.612,289.956v7.418h-18.673v-29.405h8.208v21.987H361.612z"/>
	<path class="st1" d="M375.513,275.299v4.68h9.449v7.091h-9.449v10.304h-8.172v-29.405h18.714v7.33H375.513z"/>
	<path class="st1" d="M421.805,281.659c0,9.622-6.282,16.458-15.49,16.458c-9.01,0-15.665-6.476-15.665-15.422
		s6.534-15.47,15.593-15.47c7.708,0,14.013,4.824,15.256,11.657h-8.489c-1.064-2.477-3.695-4.069-6.694-4.069
		c-4.404,0-7.373,3.185-7.373,7.883c0,4.65,2.92,7.835,7.373,7.835c3.092,0,5.743-1.497,6.667-3.764h-7.303v-5.107L421.805,281.659z
		"/>
	<path class="st1" d="M456.076,292.598h-10.423l-1.629,4.776h-8.681l11.551-29.405h7.919l11.804,29.405h-8.921L456.076,292.598z
		 M450.849,277.147l-3.223,9.112h6.474L450.849,277.147z"/>
	<path class="st1" d="M468.895,287.879h8.357c0,2.101,1.62,3.123,3.468,3.123c1.696,0,3.317-0.903,3.317-2.509
		c0-1.844-2.289-2.379-5.088-3.058c-4.251-1.057-9.677-2.359-9.677-9.053c0-5.791,4.255-9.108,11.188-9.108
		c7.05,0,11.093,3.619,11.093,9.602h-8.124c0-1.859-1.387-2.731-3.065-2.731c-1.443,0-2.83,0.625-2.83,1.998
		c0,1.67,2.217,2.222,4.985,2.918c4.328,1.117,9.987,2.563,9.987,9.277c0,6.422-4.935,9.756-11.764,9.756
		C473.546,298.093,468.895,294.289,468.895,287.879z"/>
	<path class="st1" d="M498.843,267.969h8.208v29.405h-8.208V267.969z"/>
	<path class="st1" d="M532.727,292.598h-10.423l-1.629,4.776h-8.682l11.551-29.405h7.919l11.804,29.405h-8.92L532.727,292.598z
		 M527.498,277.147l-3.222,9.112h6.473L527.498,277.147z"/>
</g>
<line class="st7" x1="36" y1="284.5" x2="284" y2="284.5"/>
<line class="st7" x1="596" y1="284.5" x2="844" y2="284.5"/>
</svg>