<!-- Generator: Adobe Illustrator 21.0.0, SVG Export Plug-In  -->
<svg version="1.1"
	 xmlns="http://www.w3.org/2000/svg" xmlns:xlink="http://www.w3.org/1999/xlink" xmlns:a="http://ns.adobe.com/AdobeSVGViewerExtensions/3.0/"
	 x="0px" y="0px" width="324px" height="100px" viewBox="0 0 324 100" style="enable-background:new 0 0 324 100;"
	 xml:space="preserve">
<style type="text/css">
	.st0{fill:#2E3192;}
	.st1{fill:none;}
	.st2{fill:#FFFFFF;}
	.st3{font-family:'Mont-HeavyDEMO';}
	.st4{font-size:48.1464px;}
</style>
<defs>
</defs>
<g>
	<g>
		<path class="st0" d="M324,10c0-5.523-4.477-10-10-10H10C4.477,0,0,4.477,0,10v80c0,5.523,4.477,10,10,10h304
			c5.523,0,10-4.477,10-10V10z"/>
	</g>
	<g>
		<rect x="43.034" y="27.478" class="st1" width="238.266" height="42.941"/>
		<path class="st2" d="M66.783,57.392H54.839l-1.867,5.473h-9.948l13.237-33.699h9.075l13.527,33.699H68.641L66.783,57.392z
			 M60.792,39.684L57.1,50.126h7.418L60.792,39.684z"/>
		<path class="st2" d="M93.714,63.716c-8.337,0-14.354-5.841-14.354-13.885s5.989-13.774,14.382-13.774
			c7.306,0,12.785,4.606,13.765,11.521h-8.723c-0.753-2.122-2.735-3.497-5.069-3.497c-3.147,0-5.387,2.391-5.387,5.778
			s2.268,5.833,5.387,5.833c2.402,0,4.35-1.472,5.089-3.792h8.799C106.589,58.959,101.034,63.717,93.714,63.716L93.714,63.716z"/>
		<path class="st2" d="M124.334,63.716c-8.337,0-14.354-5.841-14.354-13.885s5.989-13.774,14.382-13.774
			c7.306,0,12.785,4.606,13.765,11.521h-8.723c-0.753-2.122-2.735-3.497-5.069-3.497c-3.147,0-5.387,2.391-5.387,5.778
			s2.268,5.833,5.387,5.833c2.402,0,4.35-1.472,5.089-3.792h8.799C137.209,58.959,131.654,63.717,124.334,63.716L124.334,63.716z"/>
		<path class="st2" d="M140.578,49.867c0-8.059,6.1-13.85,14.575-13.85c8.448,0,14.575,5.792,14.575,13.85
			c0,8.031-6.127,13.85-14.575,13.85C146.678,63.717,140.578,57.897,140.578,49.867z M155.153,55.673
			c3.265,0,5.606-2.369,5.606-5.806c0-3.417-2.342-5.807-5.606-5.807s-5.606,2.369-5.606,5.806
			C149.547,53.304,151.889,55.673,155.153,55.673L155.153,55.673z"/>
		<path class="st2" d="M173.531,51.705V36.868h8.955v14.447c0,2.744,1.475,4.358,3.867,4.358s3.839-1.641,3.839-4.358V36.868h8.955
			v14.836c0,7.274-5.115,12.012-12.794,12.012C178.674,63.717,173.531,58.979,173.531,51.705z"/>
		<path class="st2" d="M230.139,47.013v15.852h-8.955V48.25c0-3.026-1.137-4.527-3.39-4.527c-2.792,0-4.398,1.95-4.398,5.259v13.882
			h-8.955V36.868h6.282l1.23,2.681c1.936-2.157,4.821-3.449,8.184-3.449C226.173,36.1,230.139,40.39,230.139,47.013z"/>
		<path class="st2" d="M252.834,55.022v7.843h-6.16c-5.749,0-9.243-3.514-9.243-9.292v-9.809h-4.759v-2.093l11.647-12.403h1.84
			v7.601h6.53v6.896h-6.305v8.273c0,1.862,1.124,2.985,3.013,2.985H252.834z"/>
		<path class="st2" d="M267.046,63.716c-7.086,0-11.392-3.742-11.474-9.375h8.619c0,1.901,1.323,2.776,3.021,2.776
			c1.311,0,2.552-0.668,2.552-2.012c0-1.5-1.968-1.927-4.466-2.34c-4.03-0.653-9.374-1.87-9.374-8.175
			c0-5.211,4.44-8.575,11.102-8.575c6.619,0,10.91,3.521,11.012,8.79h-8.385c0-1.66-1.116-2.432-2.738-2.432
			c-1.436,0-2.4,0.71-2.4,1.916c0,1.479,1.988,1.823,4.458,2.264c4.106,0.729,9.567,1.583,9.567,8.176
			c0,5.433-4.586,8.988-11.495,8.988L267.046,63.716z"/>
	</g>
</g>
</svg>