<!-- Generator: Adobe Illustrator 21.0.0, SVG Export Plug-In  -->
<svg version="1.1"
	 xmlns="http://www.w3.org/2000/svg" xmlns:xlink="http://www.w3.org/1999/xlink" xmlns:a="http://ns.adobe.com/AdobeSVGViewerExtensions/3.0/"
	 x="0px" y="0px" width="401.98px" height="91.946px" viewBox="0 0 401.98 91.946"
	 style="enable-background:new 0 0 401.98 91.946;" xml:space="preserve">
<style type="text/css">
	.st0{fill:none;}
	.st1{font-family:'Mont-HeavyDEMO';}
	.st2{font-size:30px;}
</style>
<defs>
</defs>
<g>
	<rect y="3.45" class="st0" width="401.98" height="88.496"/>
	<path d="M81.564,9.71h-5.704V25.5h-5.811V9.71h-5.705V4.501h17.219V9.71z"/>
	<path d="M94.57,9.224v5.106h-2.167c-1.975,0-2.803,0.866-2.803,2.933V25.5h-5.58V9.301h3.738l0.871,1.798
		c1.143-1.321,2.534-1.875,4.462-1.875H94.57z"/>
	<path d="M114.434,9.283v16.199h-4.313l-0.478-1.146c-1.327,1.075-3.007,1.694-4.888,1.694c-4.954,0-8.494-3.614-8.494-8.648
		c0-5.017,3.541-8.588,8.494-8.588c1.908,0,3.612,0.638,4.95,1.741l0.571-1.253H114.434z M109.127,17.396
		c0-2.103-1.536-3.682-3.626-3.682c-2.103,0-3.626,1.579-3.626,3.682c0,2.116,1.537,3.695,3.626,3.695
		S109.127,19.512,109.127,17.396z"/>
	<path d="M135.84,3.451V25.5h-4.129l-0.526-1.203c-1.318,1.109-2.999,1.751-4.886,1.751c-4.971,0-8.512-3.613-8.512-8.647
		s3.541-8.631,8.512-8.631c1.496,0,2.864,0.403,4.025,1.125V3.451H135.84z M130.671,17.4c0-2.115-1.536-3.707-3.626-3.707
		c-2.09,0-3.626,1.592-3.626,3.707s1.536,3.707,3.626,3.707C129.135,21.107,130.671,19.516,130.671,17.4z"/>
	<path d="M140.121,9.301h5.58V25.5h-5.58V9.301z M140.164,2.538h5.494v4.735h-5.494V2.538z"/>
	<path d="M166.003,15.622V25.5h-5.58v-9.106c0-1.886-0.708-2.821-2.112-2.821c-1.74,0-2.741,1.216-2.741,3.277v8.65h-5.58V9.301
		h3.915l0.766,1.67c1.207-1.344,3.005-2.149,5.1-2.149C163.533,8.821,166.003,11.495,166.003,15.622z"/>
	<path d="M186.874,9.301V23.7c0,5.091-3.333,8.244-8.683,8.244c-4.597,0-7.815-2.317-8.561-6.156h5.385
		c0.386,1.082,1.769,1.666,3.125,1.666c1.87,0,3.372-1.188,3.372-3.115v-0.483c-1.217,0.773-2.664,1.217-4.227,1.217
		c-4.645,0-8.095-3.456-8.095-8.143c0-4.619,3.451-8.147,8.095-8.147c1.961,0,3.736,0.703,5.109,1.878l0.708-1.359H186.874z
		 M181.656,16.93c0-2.046-1.437-3.531-3.445-3.531c-2.003,0-3.458,1.485-3.458,3.531c0,2.063,1.437,3.548,3.458,3.548
		C180.215,20.478,181.656,18.993,181.656,16.93z"/>
	<path d="M215.465,12.088c0,4.403-3.316,7.612-7.78,7.612h-3.142v5.8h-5.798V4.501h8.94C212.148,4.501,215.465,7.685,215.465,12.088
		z M209.518,12.101c0-1.492-1.004-2.548-2.526-2.548h-2.449v5.096h2.449C208.514,14.648,209.518,13.593,209.518,12.101z"/>
	<path d="M218.6,3.451h5.58V25.5h-5.58V3.451z"/>
	<path d="M245.712,9.283v16.199h-4.313l-0.478-1.146c-1.327,1.075-3.007,1.694-4.888,1.694c-4.954,0-8.494-3.614-8.494-8.648
		c0-5.017,3.541-8.588,8.494-8.588c1.908,0,3.612,0.638,4.95,1.741l0.571-1.253H245.712z M240.405,17.396
		c0-2.103-1.536-3.682-3.626-3.682c-2.103,0-3.626,1.579-3.626,3.682c0,2.116,1.537,3.695,3.626,3.695
		S240.405,19.512,240.405,17.396z"/>
	<path d="M260.934,20.613V25.5h-3.839c-3.583,0-5.76-2.189-5.76-5.79v-6.112h-2.965v-1.305l7.258-7.729h1.146v4.736h4.07v4.297
		h-3.929v5.155c0,1.16,0.7,1.86,1.877,1.86H260.934z"/>
	<path d="M275.15,13.949h-3.633V25.5h-5.58V13.949h-2.679l-0.013-4.384h2.76V8.015c0-3.246,1.783-5.146,5.219-5.146h3.895v4.279
		h-2.464c-0.828,0-1.322,0.489-1.322,1.317v1.101h3.816V13.949z"/>
	<path d="M276.815,17.4c0-5.021,3.801-8.631,9.083-8.631c5.265,0,9.083,3.609,9.083,8.631c0,5.004-3.818,8.631-9.083,8.631
		C280.617,26.031,276.815,22.404,276.815,17.4z M289.392,17.401c0-2.13-1.459-3.618-3.494-3.618c-2.034,0-3.494,1.476-3.494,3.617
		s1.459,3.618,3.494,3.618C287.933,21.019,289.392,19.543,289.392,17.401z"/>
	<path d="M308.888,9.224v5.106h-2.167c-1.975,0-2.803,0.866-2.803,2.933V25.5h-5.58V9.301h3.738l0.871,1.798
		c1.143-1.321,2.534-1.875,4.462-1.875H308.888z"/>
	<path d="M336.629,15.34V25.5h-5.58v-9.471c0-1.691-0.623-2.508-1.808-2.508c-1.534,0-2.32,1.057-2.32,3.096V25.5h-5.435v-9.471
		c0-1.641-0.618-2.508-1.786-2.508c-1.513,0-2.342,1.082-2.342,3.096V25.5h-5.58V9.301h3.923l0.794,1.74
		c1.17-1.363,2.869-2.22,4.735-2.22c1.975,0,3.638,0.888,4.646,2.385c1.164-1.465,2.958-2.385,4.975-2.385
		C334.322,8.821,336.629,11.525,336.629,15.34z"/>
</g>
</svg>