<!-- Generator: Adobe Illustrator 21.0.0, SVG Export Plug-In  -->
<svg version="1.1"
	 xmlns="http://www.w3.org/2000/svg" xmlns:xlink="http://www.w3.org/1999/xlink" xmlns:a="http://ns.adobe.com/AdobeSVGViewerExtensions/3.0/"
	 x="0px" y="0px" width="612.726px" height="1104.875px" viewBox="0 0 612.726 1104.875"
	 style="enable-background:new 0 0 612.726 1104.875;" xml:space="preserve">
<style type="text/css">
	.st0{fill:none;}
	.st1{font-family:'Mont-HeavyDEMO';}
	.st2{font-size:25px;}
	.st3{letter-spacing:-1;}
	.st4{letter-spacing:14;}
	.st5{letter-spacing:13;}
	.st6{letter-spacing:15;}
	.st7{letter-spacing:6;}
	.st8{letter-spacing:7;}
	.st9{letter-spacing:2;}
	.st10{letter-spacing:3;}
</style>
<defs>
</defs>
<g>
	<g>
		<path d="M14.812,8.094h-4.753V21.25H5.218V8.094H0.465v-4.34h14.347V8.094z"/>
		<path d="M29.369,14.374c0,0.407-0.035,0.813-0.096,1.231H19.252c0.304,1.548,1.287,2.349,2.755,2.349
			c1.086,0,1.993-0.476,2.44-1.266h4.626c-0.949,3.08-3.68,5.005-7.066,5.005c-4.211,0-7.331-3.078-7.331-7.202
			c0-4.138,3.095-7.18,7.331-7.18C26.357,7.311,29.37,10.415,29.369,14.374L29.369,14.374z M19.334,13.03h5.456
			c-0.408-1.349-1.38-2.077-2.783-2.077C20.652,10.954,19.71,11.69,19.334,13.03z"/>
		<path d="M37.344,21.692c-3.679,0-5.915-1.942-5.957-4.867h4.475c0,0.987,0.688,1.441,1.568,1.441c0.681,0,1.325-0.347,1.325-1.044
			c0-0.779-1.022-1-2.318-1.215c-2.093-0.339-4.867-0.971-4.867-4.244c0-2.705,2.306-4.452,5.764-4.452
			c3.437,0,5.664,1.828,5.717,4.563h-4.354c0-0.862-0.579-1.262-1.421-1.262c-0.746,0-1.246,0.369-1.246,0.994
			c0,0.768,1.032,0.947,2.314,1.176c2.132,0.378,4.967,0.822,4.967,4.244C43.311,19.847,40.93,21.692,37.344,21.692L37.344,21.692z"
			/>
		<path d="M55.113,17.178v4.072h-3.198c-2.984,0-4.799-1.825-4.799-4.824v-5.093h-2.471v-1.087l6.047-6.439h0.955v3.946h3.391v3.58
			h-3.273v4.295c0,0.967,0.584,1.55,1.564,1.55H55.113z"/>
		<path d="M91.905,7.753l-5.656,12.896c-1.819,4.131-3.492,5.623-6.977,5.623h-1.592v-3.995h1.278c1.778,0,2.314-0.463,2.944-2.143
			L76.326,7.753h5.052l2.864,7.435l2.669-7.435H91.905z"/>
		<path d="M92.51,14.501c0-4.184,3.166-7.19,7.566-7.19c4.387,0,7.567,3.007,7.567,7.19c0,4.169-3.181,7.191-7.567,7.191
			C95.676,21.692,92.51,18.671,92.51,14.501z M100.076,17.517c1.695,0,2.911-1.23,2.911-3.015c0-1.773-1.216-3.014-2.911-3.014
			c-1.694,0-2.91,1.23-2.91,3.014S98.382,17.516,100.076,17.517L100.076,17.517z"/>
		<path d="M110.271,15.456V7.753h4.649v7.5c0,1.424,0.766,2.262,2.008,2.262s1.993-0.852,1.993-2.262v-7.5h4.649v7.703
			c0,3.776-2.656,6.236-6.643,6.236C112.94,21.692,110.271,19.232,110.271,15.456z"/>
		<path d="M135.759,7.689v4.254h-1.805c-1.646,0-2.335,0.722-2.335,2.443v6.863h-4.649V7.753h3.115l0.725,1.498
			c0.952-1.101,2.111-1.562,3.718-1.562H135.759z"/>
		<path d="M165.955,17.178v4.072h-3.198c-2.984,0-4.799-1.825-4.799-4.824v-5.093h-2.471v-1.087l6.047-6.439h0.955v3.946h3.391v3.58
			h-3.273v4.295c0,0.967,0.584,1.55,1.564,1.55H165.955z"/>
		<path d="M177.566,7.689v4.254h-1.805c-1.646,0-2.335,0.722-2.335,2.443v6.863h-4.649V7.753h3.115l0.725,1.498
			c0.952-1.101,2.111-1.562,3.718-1.562H177.566z"/>
		<path d="M194.119,7.739v13.497h-3.595l-0.397-0.955c-1.105,0.895-2.505,1.411-4.073,1.411c-4.127,0-7.076-3.011-7.076-7.205
			c0-4.18,2.949-7.155,7.076-7.155c1.59,0,3.01,0.531,4.124,1.451l0.476-1.044L194.119,7.739z M189.697,14.498
			c0-1.752-1.28-3.068-3.021-3.068c-1.752,0-3.021,1.316-3.021,3.068c0,1.762,1.28,3.078,3.021,3.078S189.697,16.26,189.697,14.498z
			"/>
		<path d="M211.958,2.879V21.25h-3.44l-0.438-1.002c-1.099,0.924-2.499,1.459-4.071,1.459c-4.142,0-7.091-3.01-7.091-7.205
			c0-4.194,2.949-7.19,7.091-7.19c1.246,0,2.387,0.336,3.354,0.937V2.879H211.958z M207.651,14.502c0-1.763-1.28-3.089-3.021-3.089
			s-3.021,1.326-3.021,3.089c0,1.762,1.28,3.088,3.021,3.088S207.651,16.264,207.651,14.502z"/>
		<path d="M215.528,7.753h4.648V21.25h-4.648V7.753z M215.563,2.119h4.578v3.945h-4.578V2.119z"/>
		<path d="M237.094,13.02v8.23h-4.648v-7.587c0-1.571-0.591-2.35-1.761-2.35c-1.449,0-2.283,1.012-2.283,2.73v7.207h-4.649V7.753
			h3.262l0.639,1.392c1.005-1.12,2.504-1.791,4.249-1.791C235.035,7.354,237.094,9.582,237.094,13.02z"/>
		<path d="M254.486,7.753V19.75c0,4.242-2.776,6.869-7.234,6.869c-3.83,0-6.511-1.932-7.132-5.13h4.485
			c0.322,0.902,1.475,1.388,2.604,1.388c1.558,0,2.81-0.99,2.81-2.595V19.88c-1.015,0.644-2.219,1.014-3.521,1.014
			c-3.87,0-6.745-2.879-6.745-6.784c0-3.848,2.875-6.788,6.745-6.788c1.634,0,3.112,0.586,4.257,1.564l0.59-1.132H254.486z
			 M250.14,14.109c0-1.705-1.198-2.942-2.871-2.942c-1.669,0-2.881,1.237-2.881,2.942c0,1.719,1.197,2.957,2.881,2.957
			C248.938,17.066,250.14,15.829,250.14,14.109z"/>
		<path d="M284.175,21.692c-3.679,0-5.915-1.942-5.957-4.867h4.475c0,0.987,0.688,1.441,1.568,1.441
			c0.681,0,1.325-0.347,1.325-1.044c0-0.779-1.022-1-2.318-1.215c-2.093-0.339-4.867-0.971-4.867-4.244
			c0-2.705,2.306-4.452,5.764-4.452c3.437,0,5.664,1.828,5.717,4.563h-4.354c0-0.862-0.579-1.262-1.421-1.262
			c-0.746,0-1.246,0.369-1.246,0.994c0,0.768,1.032,0.947,2.314,1.176c2.132,0.378,4.967,0.822,4.967,4.244
			C290.142,19.847,287.761,21.692,284.175,21.692L284.175,21.692z"/>
		<path d="M301.944,17.178v4.072h-3.198c-2.984,0-4.799-1.825-4.799-4.824v-5.093h-2.471v-1.087l6.047-6.439h0.955v3.946h3.391v3.58
			h-3.273v4.295c0,0.967,0.584,1.55,1.564,1.55H301.944z"/>
		<path d="M313.555,7.689v4.254h-1.805c-1.646,0-2.335,0.722-2.335,2.443v6.863h-4.649V7.753h3.115l0.725,1.498
			c0.952-1.101,2.111-1.562,3.718-1.562H313.555z"/>
		<path d="M330.108,7.739v13.497h-3.595l-0.397-0.955c-1.105,0.895-2.505,1.411-4.073,1.411c-4.127,0-7.076-3.011-7.076-7.205
			c0-4.18,2.949-7.155,7.076-7.155c1.59,0,3.01,0.531,4.124,1.451l0.476-1.044L330.108,7.739z M325.687,14.498
			c0-1.752-1.28-3.068-3.021-3.068c-1.752,0-3.021,1.316-3.021,3.068c0,1.762,1.28,3.078,3.021,3.078S325.687,16.26,325.687,14.498z
			"/>
		<path d="M342.793,17.178v4.072h-3.198c-2.984,0-4.799-1.825-4.799-4.824v-5.093h-2.471v-1.087l6.047-6.439h0.955v3.946h3.391v3.58
			h-3.273v4.295c0,0.967,0.584,1.55,1.564,1.55H342.793z"/>
		<path d="M359.397,14.374c0,0.407-0.035,0.813-0.096,1.231H349.28c0.304,1.548,1.287,2.349,2.755,2.349
			c1.086,0,1.993-0.476,2.44-1.266h4.626c-0.949,3.08-3.68,5.005-7.066,5.005c-4.211,0-7.331-3.078-7.331-7.202
			c0-4.138,3.095-7.18,7.331-7.18C356.386,7.311,359.398,10.415,359.397,14.374L359.397,14.374z M349.362,13.03h5.456
			c-0.408-1.349-1.38-2.077-2.783-2.077C350.681,10.954,349.738,11.69,349.362,13.03z"/>
		<path d="M376.124,7.753V19.75c0,4.242-2.776,6.869-7.234,6.869c-3.83,0-6.511-1.932-7.132-5.13h4.485
			c0.322,0.902,1.475,1.388,2.604,1.388c1.558,0,2.81-0.99,2.81-2.595V19.88c-1.015,0.644-2.219,1.014-3.521,1.014
			c-3.87,0-6.745-2.879-6.745-6.784c0-3.848,2.875-6.788,6.745-6.788c1.634,0,3.112,0.586,4.257,1.564l0.59-1.132H376.124z
			 M371.777,14.109c0-1.705-1.198-2.942-2.871-2.942c-1.669,0-2.881,1.237-2.881,2.942c0,1.719,1.197,2.957,2.881,2.957
			C370.576,17.066,371.777,15.829,371.777,14.109z"/>
		<path d="M379.715,7.753h4.648V21.25h-4.648V7.753z M379.75,2.119h4.578v3.945h-4.578V2.119z"/>
		<path d="M401.847,14.374c0,0.407-0.035,0.813-0.096,1.231H391.73c0.304,1.548,1.287,2.349,2.755,2.349
			c1.086,0,1.993-0.476,2.44-1.266h4.626c-0.949,3.08-3.68,5.005-7.066,5.005c-4.211,0-7.331-3.078-7.331-7.202
			c0-4.138,3.095-7.18,7.331-7.18C398.835,7.311,401.848,10.415,401.847,14.374L401.847,14.374z M391.812,13.03h5.456
			c-0.408-1.349-1.38-2.077-2.783-2.077C393.13,10.954,392.188,11.69,391.812,13.03z"/>
		<path d="M409.821,21.692c-3.679,0-5.915-1.942-5.957-4.867h4.475c0,0.987,0.688,1.441,1.568,1.441
			c0.681,0,1.325-0.347,1.325-1.044c0-0.779-1.022-1-2.318-1.215c-2.093-0.339-4.867-0.971-4.867-4.244
			c0-2.705,2.306-4.452,5.764-4.452c3.437,0,5.664,1.828,5.717,4.563h-4.354c0-0.862-0.579-1.262-1.421-1.262
			c-0.746,0-1.246,0.369-1.246,0.994c0,0.768,1.032,0.947,2.314,1.176c2.132,0.378,4.967,0.822,4.967,4.244
			C415.788,19.847,413.407,21.692,409.821,21.692L409.821,21.692z"/>
		<path d="M459.582,7.753l-4.3,13.497h-3.746l-2.671-6.045l-2.611,6.045h-3.747l-4.406-13.497h4.868l2.044,7.086l3.19-7.043h1.255
			l3.364,7.109l2.013-7.152H459.582z"/>
		<path d="M461.829,7.753h4.648V21.25h-4.648V7.753z M461.864,2.119h4.578v3.945h-4.578V2.119z"/>
		<path d="M479.156,17.178v4.072h-3.198c-2.984,0-4.799-1.825-4.799-4.824v-5.093h-2.471v-1.087l6.047-6.439h0.955v3.946h3.391v3.58
			h-3.273v4.295c0,0.967,0.584,1.55,1.564,1.55H479.156z"/>
		<path d="M495.319,13.123v8.127h-4.648v-7.587c0-1.557-0.547-2.35-1.761-2.35c-1.406,0-2.283,0.998-2.283,2.73v7.207h-4.649V2.879
			h4.649v5.762c0.994-0.8,2.258-1.287,3.603-1.287C493.328,7.354,495.319,9.624,495.319,13.123z"/>
		<path d="M531.692,7.753l-5.426,13.497h-4.212l-5.498-13.497h5.094l2.551,7.994l2.522-7.994H531.692z"/>
		<path d="M533.837,7.753h4.648V21.25h-4.648V7.753z M533.872,2.119h4.578v3.945h-4.578V2.119z"/>
		<path d="M550.851,7.689v4.254h-1.805c-1.646,0-2.335,0.722-2.335,2.443v6.863h-4.649V7.753h3.115l0.725,1.498
			c0.952-1.101,2.111-1.562,3.718-1.562H550.851z"/>
		<path d="M562.588,17.178v4.072h-3.198c-2.984,0-4.799-1.825-4.799-4.824v-5.093h-2.471v-1.087l6.047-6.439h0.955v3.946h3.391v3.58
			h-3.273v4.295c0,0.967,0.584,1.55,1.564,1.55H562.588z"/>
		<path d="M565.235,15.456V7.753h4.649v7.5c0,1.424,0.766,2.262,2.008,2.262s1.993-0.852,1.993-2.262v-7.5h4.649v7.703
			c0,3.776-2.656,6.236-6.643,6.236C567.905,21.692,565.235,19.232,565.235,15.456z"/>
		<path d="M596.302,7.739v13.497h-3.595l-0.397-0.955c-1.105,0.895-2.505,1.411-4.073,1.411c-4.127,0-7.076-3.011-7.076-7.205
			c0-4.18,2.949-7.155,7.076-7.155c1.59,0,3.01,0.531,4.124,1.451l0.476-1.044L596.302,7.739z M591.88,14.498
			c0-1.752-1.28-3.068-3.021-3.068c-1.752,0-3.021,1.316-3.021,3.068c0,1.762,1.28,3.078,3.021,3.078S591.88,16.26,591.88,14.498z"
			/>
		<path d="M599.885,2.879h4.649V21.25h-4.649V2.879z"/>
		<path d="M22.167,64.785v8.465h-4.649v-7.89c0-1.41-0.519-2.09-1.507-2.09c-1.277,0-1.933,0.88-1.933,2.58v7.4H9.551v-7.89
			c0-1.367-0.516-2.09-1.488-2.09c-1.261,0-1.951,0.901-1.951,2.58v7.4H1.462V59.753h3.27l0.662,1.45
			c0.975-1.136,2.391-1.85,3.945-1.85c1.645,0,3.03,0.739,3.87,1.987c0.97-1.221,2.465-1.987,4.146-1.987
			C20.245,59.354,22.167,61.606,22.167,64.785z"/>
		<path d="M24.802,66.501c0-4.184,3.166-7.19,7.566-7.19c4.387,0,7.567,3.007,7.567,7.19c0,4.169-3.181,7.191-7.567,7.191
			C27.968,73.692,24.802,70.671,24.802,66.501z M32.368,69.517c1.695,0,2.911-1.23,2.911-3.015c0-1.773-1.216-3.014-2.911-3.014
			c-1.694,0-2.91,1.23-2.91,3.014S30.674,69.516,32.368,69.517L32.368,69.517z"/>
		<path d="M56.078,65.02v8.23H51.43v-7.587c0-1.571-0.591-2.35-1.761-2.35c-1.449,0-2.283,1.012-2.283,2.73v7.207h-4.649V59.753
			h3.262l0.639,1.392c1.005-1.12,2.504-1.791,4.249-1.791C54.02,59.354,56.078,61.582,56.078,65.02z"/>
		<path d="M73.419,66.374c0,0.407-0.035,0.813-0.096,1.231H63.302c0.304,1.548,1.287,2.349,2.755,2.349
			c1.086,0,1.993-0.476,2.44-1.266h4.626c-0.949,3.08-3.68,5.005-7.066,5.005c-4.211,0-7.331-3.078-7.331-7.202
			c0-4.138,3.095-7.18,7.331-7.18C70.407,59.311,73.42,62.415,73.419,66.374L73.419,66.374z M63.384,65.03h5.456
			c-0.408-1.349-1.38-2.077-2.783-2.077C64.702,62.954,63.76,63.69,63.384,65.03z"/>
		<path d="M89.672,59.753l-5.656,12.896c-1.819,4.131-3.492,5.623-6.977,5.623h-1.592v-3.995h1.278c1.778,0,2.314-0.463,2.944-2.143
			l-5.577-12.382h5.052l2.864,7.435l2.669-7.435H89.672z"/>
		<path d="M118.161,66.512c0,4.195-2.936,7.18-7.092,7.18c-1.575,0-2.975-0.528-4.071-1.444l-0.438,1.002h-3.44V54.879h4.597v5.383
			c0.966-0.596,2.105-0.93,3.354-0.93C115.226,59.332,118.161,62.317,118.161,66.512z M113.469,66.512
			c0-1.762-1.28-3.078-3.021-3.078s-3.021,1.316-3.021,3.078c0,1.748,1.279,3.064,3.021,3.064
			C112.178,69.576,113.469,68.26,113.469,66.512z"/>
		<path d="M134.405,59.753l-5.656,12.896c-1.819,4.131-3.492,5.623-6.977,5.623h-1.592v-3.995h1.278
			c1.778,0,2.314-0.463,2.944-2.143l-5.577-12.382h5.052l2.864,7.435l2.669-7.435H134.405z"/>
		<path d="M153.061,73.692c-3.679,0-5.915-1.942-5.957-4.867h4.475c0,0.987,0.688,1.441,1.568,1.441
			c0.681,0,1.325-0.347,1.325-1.044c0-0.779-1.022-1-2.318-1.215c-2.093-0.339-4.867-0.971-4.867-4.244
			c0-2.705,2.306-4.452,5.764-4.452c3.437,0,5.664,1.828,5.717,4.563h-4.354c0-0.862-0.579-1.262-1.421-1.262
			c-0.746,0-1.246,0.369-1.246,0.994c0,0.768,1.032,0.947,2.314,1.176c2.132,0.378,4.967,0.822,4.967,4.244
			C159.027,71.847,156.646,73.692,153.061,73.692L153.061,73.692z"/>
		<path d="M175.759,66.374c0,0.407-0.035,0.813-0.096,1.231h-10.021c0.304,1.548,1.287,2.349,2.755,2.349
			c1.086,0,1.993-0.476,2.44-1.266h4.626c-0.949,3.08-3.68,5.005-7.066,5.005c-4.211,0-7.331-3.078-7.331-7.202
			c0-4.138,3.095-7.18,7.331-7.18C172.747,59.311,175.76,62.415,175.759,66.374L175.759,66.374z M165.724,65.03h5.456
			c-0.408-1.349-1.38-2.077-2.783-2.077C167.042,62.954,166.1,63.69,165.724,65.03z"/>
		<path d="M187.429,69.178v4.072h-3.198c-2.984,0-4.799-1.825-4.799-4.824v-5.093h-2.471v-1.087l6.047-6.439h0.955v3.946h3.391v3.58
			h-3.273v4.295c0,0.967,0.584,1.55,1.564,1.55H187.429z"/>
		<path d="M199.353,69.178v4.072h-3.198c-2.984,0-4.799-1.825-4.799-4.824v-5.093h-2.471v-1.087l6.047-6.439h0.955v3.946h3.391v3.58
			h-3.273v4.295c0,0.967,0.584,1.55,1.564,1.55H199.353z"/>
		<path d="M202.176,59.753h4.648V73.25h-4.648V59.753z M202.211,54.119h4.578v3.945h-4.578V54.119z"/>
		<path d="M223.742,65.02v8.23h-4.648v-7.587c0-1.571-0.591-2.35-1.761-2.35c-1.449,0-2.283,1.012-2.283,2.73v7.207H210.4V59.753
			h3.262l0.639,1.392c1.005-1.12,2.504-1.791,4.249-1.791C221.684,59.354,223.742,61.582,223.742,65.02z"/>
		<path d="M241.134,59.753V71.75c0,4.242-2.776,6.869-7.234,6.869c-3.83,0-6.511-1.932-7.132-5.13h4.485
			c0.322,0.902,1.475,1.388,2.604,1.388c1.558,0,2.81-0.99,2.81-2.595V71.88c-1.015,0.644-2.219,1.014-3.521,1.014
			c-3.87,0-6.745-2.879-6.745-6.784c0-3.848,2.875-6.788,6.745-6.788c1.634,0,3.112,0.586,4.257,1.564l0.59-1.132H241.134z
			 M236.787,66.109c0-1.705-1.198-2.942-2.871-2.942c-1.669,0-2.881,1.237-2.881,2.942c0,1.719,1.197,2.957,2.881,2.957
			C235.586,69.066,236.787,67.829,236.787,66.109z"/>
		<path d="M256.508,67.456v-7.703h4.649v7.5c0,1.424,0.766,2.262,2.008,2.262s1.993-0.852,1.993-2.262v-7.5h4.649v7.703
			c0,3.776-2.656,6.236-6.643,6.236C259.178,73.692,256.508,71.232,256.508,67.456z"/>
		<path d="M288.171,66.501c0,4.205-2.95,7.205-7.077,7.205c-1.221,0-2.338-0.321-3.29-0.896v5.313h-4.597V59.753h3.162l0.582,1.072
			c1.11-0.96,2.538-1.515,4.143-1.515C285.221,59.311,288.171,62.297,288.171,66.501z M283.493,66.501
			c0-1.773-1.28-3.089-3.021-3.089s-3.021,1.316-3.021,3.089s1.28,3.089,3.021,3.089C282.202,69.59,283.493,68.274,283.493,66.501z"
			/>
		<path d="M317.282,59.739v13.497h-3.595l-0.397-0.955c-1.105,0.895-2.505,1.411-4.073,1.411c-4.127,0-7.076-3.011-7.076-7.205
			c0-4.18,2.949-7.155,7.076-7.155c1.59,0,3.01,0.531,4.124,1.451l0.476-1.044L317.282,59.739z M312.86,66.498
			c0-1.752-1.28-3.068-3.021-3.068c-1.752,0-3.021,1.316-3.021,3.068c0,1.762,1.28,3.078,3.021,3.078S312.86,68.26,312.86,66.498z"
			/>
		<path d="M337.914,60.115V62.9h5.622v4.219h-5.622v6.131h-4.862V55.754h11.134v4.361H337.914z"/>
		<path d="M353.97,67.897h-1.748v5.353h-4.819V55.754h7.583c3.771,0,6.506,2.534,6.506,6.191c0,2.147-1.049,3.907-2.777,4.941
			l3.474,6.363h-5.379L353.97,67.897z M352.222,63.836h2.202c1.348,0,2.123-0.811,2.123-1.905s-0.775-1.894-2.123-1.894h-2.202
			V63.836z"/>
		<path d="M376.357,69.069v4.181h-11.406V55.754h11.194v4.167h-6.396v2.576h5.746v3.954h-5.746v2.619H376.357z"/>
		<path d="M391.183,69.069v4.181h-11.406V55.754h11.194v4.167h-6.396v2.576h5.746v3.954h-5.746v2.619H391.183z"/>
		<path d="M411.421,60.115V62.9h5.622v4.219h-5.622v6.131h-4.862V55.754h11.134v4.361H411.421z"/>
		<path d="M419.595,66.501c0-4.184,3.166-7.19,7.566-7.19c4.387,0,7.567,3.007,7.567,7.19c0,4.169-3.181,7.191-7.567,7.191
			C422.761,73.692,419.595,70.671,419.595,66.501z M427.161,69.517c1.695,0,2.911-1.23,2.911-3.015c0-1.773-1.216-3.014-2.911-3.014
			c-1.694,0-2.91,1.23-2.91,3.014S425.467,69.516,427.161,69.517L427.161,69.517z"/>
		<path d="M446.318,59.689v4.254h-1.805c-1.646,0-2.335,0.722-2.335,2.443v6.863h-4.649V59.753h3.115l0.725,1.498
			c0.952-1.101,2.111-1.562,3.718-1.562H446.318z"/>
		<path d="M462.412,66.374c0,0.407-0.035,0.813-0.096,1.231h-10.021c0.304,1.548,1.287,2.349,2.755,2.349
			c1.086,0,1.993-0.476,2.44-1.266h4.626c-0.949,3.08-3.68,5.005-7.066,5.005c-4.211,0-7.331-3.078-7.331-7.202
			c0-4.138,3.095-7.18,7.331-7.18C459.4,59.311,462.413,62.415,462.412,66.374L462.412,66.374z M452.377,65.03h5.456
			c-0.408-1.349-1.38-2.077-2.783-2.077C453.695,62.954,452.753,63.69,452.377,65.03z"/>
		<path d="M472.524,73.25l-2.22-3.998l-2.263,3.998h-5.134l4.477-7.002l-4.148-6.494h5.131l1.95,3.399l2.039-3.399h5.06
			l-4.183,6.373l4.485,7.124H472.524z"/>
		<path d="M506.602,66.501c0,4.205-2.95,7.205-7.077,7.205c-1.221,0-2.338-0.321-3.29-0.896v5.313h-4.597V59.753h3.162l0.582,1.072
			c1.11-0.96,2.538-1.515,4.143-1.515C503.651,59.311,506.602,62.297,506.602,66.501z M501.924,66.501
			c0-1.773-1.28-3.089-3.021-3.089s-3.021,1.316-3.021,3.089s1.28,3.089,3.021,3.089C500.633,69.59,501.924,68.274,501.924,66.501z"
			/>
		<path d="M518.176,59.689v4.254h-1.805c-1.646,0-2.335,0.722-2.335,2.443v6.863h-4.649V59.753h3.115l0.725,1.498
			c0.952-1.101,2.111-1.562,3.718-1.562H518.176z"/>
		<path d="M534.729,59.739v13.497h-3.595l-0.397-0.955c-1.105,0.895-2.505,1.411-4.073,1.411c-4.127,0-7.076-3.011-7.076-7.205
			c0-4.18,2.949-7.155,7.076-7.155c1.59,0,3.01,0.531,4.124,1.451l0.476-1.044L534.729,59.739z M530.308,66.498
			c0-1.752-1.28-3.068-3.021-3.068c-1.752,0-3.021,1.316-3.021,3.068c0,1.762,1.28,3.078,3.021,3.078S530.308,68.26,530.308,66.498z
			"/>
		<path d="M544.99,73.692c-4.328,0-7.452-3.033-7.452-7.209c0-4.176,3.109-7.151,7.467-7.151c3.793,0,6.638,2.391,7.146,5.981
			h-4.528c-0.391-1.101-1.42-1.815-2.632-1.815c-1.634,0-2.796,1.242-2.796,3c0,1.759,1.177,3.029,2.796,3.029
			c1.248,0,2.259-0.764,2.643-1.969h4.567C551.675,71.223,548.791,73.692,544.99,73.692L544.99,73.692z"/>
		<path d="M563.839,69.178v4.072h-3.198c-2.984,0-4.799-1.825-4.799-4.824v-5.093h-2.471v-1.087l6.047-6.439h0.955v3.946h3.391v3.58
			h-3.273v4.295c0,0.967,0.584,1.55,1.564,1.55H563.839z"/>
		<path d="M566.662,59.753h4.648V73.25h-4.648V59.753z M566.697,54.119h4.578v3.945h-4.578V54.119z"/>
		<path d="M581.563,73.692c-4.328,0-7.452-3.033-7.452-7.209c0-4.176,3.109-7.151,7.467-7.151c3.793,0,6.638,2.391,7.146,5.981
			h-4.528c-0.391-1.101-1.42-1.815-2.632-1.815c-1.634,0-2.796,1.242-2.796,3c0,1.759,1.177,3.029,2.796,3.029
			c1.247,0,2.259-0.764,2.643-1.969h4.567C588.248,71.223,585.364,73.692,581.563,73.692L581.563,73.692z"/>
		<path d="M605.343,66.374c0,0.407-0.035,0.813-0.096,1.231h-10.021c0.304,1.548,1.287,2.349,2.755,2.349
			c1.086,0,1.993-0.476,2.44-1.266h4.626c-0.949,3.08-3.68,5.005-7.066,5.005c-4.211,0-7.331-3.078-7.331-7.202
			c0-4.138,3.095-7.18,7.331-7.18C602.331,59.311,605.344,62.415,605.343,66.374L605.343,66.374z M595.308,65.03h5.456
			c-0.408-1.349-1.38-2.077-2.783-2.077C596.626,62.954,595.684,63.69,595.308,65.03z"/>
		<path d="M15.829,111.739v13.497h-3.595l-0.397-0.955c-1.105,0.895-2.505,1.411-4.073,1.411c-4.127,0-7.076-3.011-7.076-7.205
			c0-4.18,2.949-7.155,7.076-7.155c1.59,0,3.01,0.531,4.124,1.451l0.476-1.044L15.829,111.739z M11.407,118.498
			c0-1.752-1.28-3.068-3.021-3.068c-1.752,0-3.021,1.316-3.021,3.068c0,1.762,1.28,3.078,3.021,3.078S11.407,120.26,11.407,118.498z
			"/>
		<path d="M26.09,125.692c-4.328,0-7.452-3.033-7.452-7.209c0-4.176,3.109-7.151,7.467-7.151c3.793,0,6.638,2.391,7.146,5.981
			h-4.528c-0.391-1.101-1.42-1.815-2.632-1.815c-1.634,0-2.796,1.242-2.796,3c0,1.759,1.177,3.029,2.796,3.029
			c1.248,0,2.259-0.764,2.643-1.969H33.3C32.774,123.223,29.891,125.692,26.09,125.692L26.09,125.692z"/>
		<path d="M42.639,125.692c-4.328,0-7.452-3.033-7.452-7.209c0-4.176,3.109-7.151,7.467-7.151c3.793,0,6.638,2.391,7.146,5.981
			h-4.528c-0.391-1.101-1.42-1.815-2.632-1.815c-1.634,0-2.796,1.242-2.796,3c0,1.759,1.177,3.029,2.796,3.029
			c1.248,0,2.259-0.764,2.643-1.969h4.567C49.323,123.223,46.439,125.692,42.639,125.692L42.639,125.692z"/>
		<path d="M51.726,118.501c0-4.184,3.166-7.19,7.566-7.19c4.387,0,7.567,3.007,7.567,7.19c0,4.169-3.181,7.191-7.567,7.191
			C54.892,125.692,51.726,122.671,51.726,118.501z M59.292,121.517c1.695,0,2.911-1.23,2.911-3.015c0-1.773-1.216-3.014-2.911-3.014
			c-1.694,0-2.91,1.23-2.91,3.014S57.598,121.516,59.292,121.517L59.292,121.517z"/>
		<path d="M69.485,119.456v-7.703h4.649v7.5c0,1.424,0.766,2.262,2.008,2.262s1.993-0.852,1.993-2.262v-7.5h4.649v7.703
			c0,3.776-2.656,6.236-6.643,6.236C72.155,125.692,69.485,123.232,69.485,119.456z"/>
		<path d="M99.527,117.02v8.23h-4.648v-7.587c0-1.571-0.591-2.35-1.761-2.35c-1.449,0-2.283,1.012-2.283,2.73v7.207h-4.649v-13.497
			h3.262l0.639,1.392c1.005-1.12,2.504-1.791,4.249-1.791C97.469,111.354,99.527,113.582,99.527,117.02z"/>
		<path d="M111.964,121.178v4.072h-3.198c-2.984,0-4.799-1.825-4.799-4.824v-5.093h-2.471v-1.087l6.047-6.439h0.955v3.946h3.391
			v3.58h-3.273v4.295c0,0.967,0.584,1.55,1.564,1.55H111.964z"/>
		<path d="M148.106,111.753l-4.3,13.497h-3.746l-2.671-6.045l-2.611,6.045h-3.747l-4.406-13.497h4.868l2.044,7.086l3.19-7.043h1.255
			l3.364,7.109l2.013-7.152H148.106z"/>
		<path d="M150.355,111.753h4.648v13.497h-4.648V111.753z M150.39,106.119h4.578v3.945h-4.578V106.119z"/>
		<path d="M167.681,121.178v4.072h-3.198c-2.984,0-4.799-1.825-4.799-4.824v-5.093h-2.471v-1.087l6.047-6.439h0.955v3.946h3.391
			v3.58h-3.273v4.295c0,0.967,0.584,1.55,1.564,1.55H167.681z"/>
		<path d="M183.845,117.123v8.127h-4.648v-7.587c0-1.557-0.547-2.35-1.761-2.35c-1.406,0-2.283,0.998-2.283,2.73v7.207h-4.649
			v-18.371h4.649v5.762c0.994-0.8,2.258-1.287,3.603-1.287C181.854,111.354,183.845,113.624,183.845,117.123z"/>
		<path d="M213.166,111.753l-5.426,13.497h-4.212l-5.498-13.497h5.094l2.551,7.994l2.522-7.994H213.166z"/>
		<path d="M215.31,111.753h4.648v13.497h-4.648V111.753z M215.345,106.119h4.578v3.945h-4.578V106.119z"/>
		<path d="M232.323,111.689v4.254h-1.805c-1.646,0-2.335,0.722-2.335,2.443v6.863h-4.649v-13.497h3.115l0.725,1.498
			c0.952-1.101,2.111-1.562,3.718-1.562H232.323z"/>
		<path d="M244.062,121.178v4.072h-3.198c-2.984,0-4.799-1.825-4.799-4.824v-5.093h-2.471v-1.087l6.047-6.439h0.955v3.946h3.391
			v3.58h-3.273v4.295c0,0.967,0.584,1.55,1.564,1.55H244.062z"/>
		<path d="M246.708,119.456v-7.703h4.649v7.5c0,1.424,0.766,2.262,2.008,2.262s1.993-0.852,1.993-2.262v-7.5h4.649v7.703
			c0,3.776-2.656,6.236-6.643,6.236C249.378,125.692,246.708,123.232,246.708,119.456z"/>
		<path d="M277.775,111.739v13.497h-3.595l-0.397-0.955c-1.105,0.895-2.505,1.411-4.073,1.411c-4.127,0-7.076-3.011-7.076-7.205
			c0-4.18,2.949-7.155,7.076-7.155c1.59,0,3.01,0.531,4.124,1.451l0.476-1.044L277.775,111.739z M273.354,118.498
			c0-1.752-1.28-3.068-3.021-3.068c-1.752,0-3.021,1.316-3.021,3.068c0,1.762,1.28,3.078,3.021,3.078
			S273.354,120.26,273.354,118.498z"/>
		<path d="M281.357,106.879h4.649v18.371h-4.649V106.879z"/>
		<path d="M311.852,115.626h-3.027v9.623h-4.648v-9.623h-2.231l-0.011-3.652h2.299v-1.292c0-2.705,1.485-4.288,4.349-4.288h3.245
			v3.566h-2.053c-0.69,0-1.102,0.407-1.102,1.098v0.917h3.18V115.626z"/>
		<path d="M314.102,119.456v-7.703h4.649v7.5c0,1.424,0.766,2.262,2.008,2.262s1.993-0.852,1.993-2.262v-7.5h4.649v7.703
			c0,3.776-2.656,6.236-6.643,6.236C316.772,125.692,314.102,123.232,314.102,119.456z"/>
		<path d="M344.143,117.02v8.23h-4.648v-7.587c0-1.571-0.591-2.35-1.761-2.35c-1.449,0-2.283,1.012-2.283,2.73v7.207h-4.649v-13.497
			h3.262l0.639,1.392c1.005-1.12,2.504-1.791,4.249-1.791C342.084,111.354,344.143,113.582,344.143,117.02z"/>
		<path d="M361.832,106.879v18.371h-3.44l-0.438-1.002c-1.099,0.924-2.499,1.459-4.071,1.459c-4.142,0-7.091-3.01-7.091-7.205
			c0-4.194,2.949-7.19,7.091-7.19c1.246,0,2.387,0.336,3.354,0.937v-5.369H361.832z M357.525,118.502
			c0-1.763-1.28-3.089-3.021-3.089s-3.021,1.326-3.021,3.089c0,1.762,1.28,3.088,3.021,3.088S357.525,120.264,357.525,118.502z"/>
		<path d="M370.608,125.692c-3.679,0-5.915-1.942-5.957-4.867h4.475c0,0.987,0.688,1.441,1.568,1.441
			c0.681,0,1.325-0.347,1.325-1.044c0-0.779-1.022-1-2.318-1.215c-2.093-0.339-4.867-0.971-4.867-4.244
			c0-2.705,2.306-4.452,5.764-4.452c3.437,0,5.664,1.828,5.717,4.563h-4.354c0-0.862-0.579-1.262-1.421-1.262
			c-0.746,0-1.246,0.369-1.246,0.994c0,0.768,1.032,0.947,2.314,1.176c2.132,0.378,4.967,0.822,4.967,4.244
			C376.575,123.847,374.194,125.692,370.608,125.692L370.608,125.692z"/>
		<path d="M379.229,120.931h4.51v4.319h-4.51V120.931z"/>
		<path d="M407.19,119.897h-1.748v5.353h-4.819v-17.496h7.583c3.771,0,6.506,2.534,6.506,6.191c0,2.147-1.049,3.907-2.777,4.941
			l3.474,6.363h-5.379L407.19,119.897z M405.442,115.836h2.202c1.348,0,2.123-0.811,2.123-1.905s-0.775-1.894-2.123-1.894h-2.202
			V115.836z"/>
		<path d="M431.55,118.374c0,0.407-0.035,0.813-0.096,1.231h-10.021c0.304,1.548,1.287,2.349,2.755,2.349
			c1.086,0,1.993-0.476,2.44-1.266h4.626c-0.949,3.08-3.68,5.005-7.066,5.005c-4.211,0-7.331-3.078-7.331-7.202
			c0-4.138,3.095-7.18,7.331-7.18C428.538,111.311,431.551,114.415,431.55,118.374L431.55,118.374z M421.515,117.03h5.456
			c-0.408-1.349-1.38-2.077-2.783-2.077C422.833,114.954,421.891,115.69,421.515,117.03z"/>
		<path d="M448.276,111.753v11.997c0,4.242-2.776,6.869-7.234,6.869c-3.83,0-6.511-1.932-7.132-5.13h4.485
			c0.322,0.902,1.475,1.388,2.604,1.388c1.558,0,2.81-0.99,2.81-2.595v-0.403c-1.015,0.644-2.219,1.014-3.521,1.014
			c-3.87,0-6.745-2.879-6.745-6.784c0-3.848,2.875-6.788,6.745-6.788c1.634,0,3.112,0.586,4.257,1.564l0.59-1.132H448.276z
			 M443.93,118.109c0-1.705-1.198-2.942-2.871-2.942c-1.669,0-2.881,1.237-2.881,2.942c0,1.719,1.197,2.957,2.881,2.957
			C442.729,121.066,443.93,119.829,443.93,118.109z"/>
		<path d="M451.867,111.753h4.648v13.497h-4.648V111.753z M451.902,106.119h4.578v3.945h-4.578V106.119z"/>
		<path d="M465.3,125.692c-3.679,0-5.915-1.942-5.957-4.867h4.475c0,0.987,0.688,1.441,1.568,1.441c0.681,0,1.325-0.347,1.325-1.044
			c0-0.779-1.022-1-2.318-1.215c-2.093-0.339-4.867-0.971-4.867-4.244c0-2.705,2.306-4.452,5.764-4.452
			c3.437,0,5.664,1.828,5.717,4.563h-4.354c0-0.862-0.579-1.262-1.421-1.262c-0.746,0-1.246,0.369-1.246,0.994
			c0,0.768,1.032,0.947,2.314,1.176c2.132,0.378,4.967,0.822,4.967,4.244C471.267,123.847,468.886,125.692,465.3,125.692
			L465.3,125.692z"/>
		<path d="M483.07,121.178v4.072h-3.198c-2.984,0-4.799-1.825-4.799-4.824v-5.093h-2.471v-1.087l6.047-6.439h0.955v3.946h3.391v3.58
			h-3.273v4.295c0,0.967,0.584,1.55,1.564,1.55H483.07z"/>
		<path d="M499.674,118.374c0,0.407-0.035,0.813-0.096,1.231h-10.021c0.304,1.548,1.287,2.349,2.755,2.349
			c1.086,0,1.993-0.476,2.44-1.266h4.626c-0.949,3.08-3.68,5.005-7.066,5.005c-4.211,0-7.331-3.078-7.331-7.202
			c0-4.138,3.095-7.18,7.331-7.18C496.662,111.311,499.675,114.415,499.674,118.374L499.674,118.374z M489.639,117.03h5.456
			c-0.408-1.349-1.38-2.077-2.783-2.077C490.957,114.954,490.015,115.69,489.639,117.03z"/>
		<path d="M511.23,111.689v4.254h-1.805c-1.646,0-2.335,0.722-2.335,2.443v6.863h-4.649v-13.497h3.115l0.725,1.498
			c0.952-1.101,2.111-1.562,3.718-1.562H511.23z"/>
		<path d="M541.351,118.512c0,4.195-2.936,7.18-7.092,7.18c-1.575,0-2.975-0.528-4.071-1.444l-0.438,1.002h-3.44v-18.371h4.597
			v5.383c0.966-0.596,2.105-0.93,3.354-0.93C538.415,111.332,541.351,114.317,541.351,118.512z M536.658,118.512
			c0-1.762-1.28-3.078-3.021-3.078s-3.021,1.316-3.021,3.078c0,1.748,1.279,3.064,3.021,3.064
			C535.367,121.576,536.658,120.26,536.658,118.512z"/>
		<path d="M558.041,118.374c0,0.407-0.035,0.813-0.096,1.231h-10.021c0.304,1.548,1.287,2.349,2.755,2.349
			c1.086,0,1.993-0.476,2.44-1.266h4.626c-0.949,3.08-3.68,5.005-7.066,5.005c-4.211,0-7.331-3.078-7.331-7.202
			c0-4.138,3.095-7.18,7.331-7.18C555.029,111.311,558.042,114.415,558.041,118.374L558.041,118.374z M548.006,117.03h5.456
			c-0.408-1.349-1.38-2.077-2.783-2.077C549.324,114.954,548.382,115.69,548.006,117.03z"/>
		<path d="M560.809,106.879h4.649v18.371h-4.649V106.879z"/>
		<path d="M568.248,118.501c0-4.184,3.166-7.19,7.566-7.19c4.387,0,7.567,3.007,7.567,7.19c0,4.169-3.181,7.191-7.567,7.191
			C571.414,125.692,568.248,122.671,568.248,118.501z M575.814,121.517c1.695,0,2.911-1.23,2.911-3.015
			c0-1.773-1.216-3.014-2.911-3.014c-1.694,0-2.91,1.23-2.91,3.014S574.12,121.516,575.814,121.517L575.814,121.517z"/>
		<path d="M605.862,111.753l-4.3,13.497h-3.746l-2.671-6.045l-2.611,6.045h-3.747l-4.406-13.497h4.868l2.044,7.086l3.19-7.043h1.255
			l3.364,7.109l2.013-7.152H605.862z"/>
		<path d="M15.829,163.739v13.497h-3.595l-0.397-0.955c-1.105,0.895-2.505,1.411-4.073,1.411c-4.127,0-7.076-3.011-7.076-7.205
			c0-4.18,2.949-7.155,7.076-7.155c1.59,0,3.01,0.531,4.124,1.451l0.476-1.044L15.829,163.739z M11.407,170.498
			c0-1.752-1.28-3.068-3.021-3.068c-1.752,0-3.021,1.316-3.021,3.068c0,1.762,1.28,3.078,3.021,3.078S11.407,172.26,11.407,170.498z
			"/>
		<path d="M32.754,169.02v8.23h-4.648v-7.587c0-1.571-0.591-2.35-1.761-2.35c-1.449,0-2.283,1.012-2.283,2.73v7.207h-4.649v-13.497
			h3.262l0.639,1.392c1.005-1.12,2.504-1.791,4.249-1.791C30.695,163.354,32.754,165.582,32.754,169.02z"/>
		<path d="M50.442,158.879v18.371h-3.44l-0.438-1.002c-1.099,0.924-2.499,1.459-4.071,1.459c-4.142,0-7.091-3.01-7.091-7.205
			c0-4.194,2.949-7.19,7.091-7.19c1.246,0,2.387,0.336,3.354,0.937v-5.369H50.442z M46.136,170.502c0-1.763-1.28-3.089-3.021-3.089
			s-3.021,1.326-3.021,3.089c0,1.762,1.28,3.088,3.021,3.088S46.136,172.264,46.136,170.502z"/>
		<path d="M76.306,163.753l-5.656,12.896c-1.819,4.131-3.492,5.623-6.977,5.623h-1.592v-3.995h1.278
			c1.778,0,2.314-0.463,2.944-2.143l-5.577-12.382h5.052l2.864,7.435l2.669-7.435H76.306z"/>
		<path d="M76.909,170.501c0-4.184,3.166-7.19,7.566-7.19c4.387,0,7.567,3.007,7.567,7.19c0,4.169-3.181,7.191-7.567,7.191
			C80.075,177.692,76.909,174.671,76.909,170.501z M84.476,173.517c1.695,0,2.911-1.23,2.911-3.015c0-1.773-1.216-3.014-2.911-3.014
			c-1.694,0-2.91,1.23-2.91,3.014S82.781,173.516,84.476,173.517L84.476,173.517z"/>
		<path d="M94.67,171.456v-7.703h4.649v7.5c0,1.424,0.766,2.262,2.008,2.262s1.993-0.852,1.993-2.262v-7.5h4.649v7.703
			c0,3.776-2.656,6.236-6.643,6.236C97.34,177.692,94.67,175.232,94.67,171.456z"/>
		<path d="M140.055,163.753l-4.3,13.497h-3.746l-2.671-6.045l-2.611,6.045h-3.747l-4.406-13.497h4.868l2.044,7.086l3.19-7.043h1.255
			l3.364,7.109l2.013-7.152H140.055z"/>
		<path d="M142.303,163.753h4.648v13.497h-4.648V163.753z M142.338,158.119h4.578v3.945h-4.578V158.119z"/>
		<path d="M150.527,158.879h4.649v18.371h-4.649V158.879z"/>
		<path d="M158.752,158.879h4.649v18.371h-4.649V158.879z"/>
		<path d="M184.374,163.689v4.254h-1.805c-1.646,0-2.335,0.722-2.335,2.443v6.863h-4.649v-13.497h3.115l0.725,1.498
			c0.952-1.101,2.111-1.562,3.718-1.562H184.374z"/>
		<path d="M200.467,170.374c0,0.407-0.035,0.813-0.096,1.231H190.35c0.304,1.548,1.287,2.349,2.755,2.349
			c1.086,0,1.993-0.476,2.44-1.266h4.626c-0.949,3.08-3.68,5.005-7.066,5.005c-4.211,0-7.331-3.078-7.331-7.202
			c0-4.138,3.095-7.18,7.331-7.18C197.455,163.311,200.468,166.415,200.467,170.374L200.467,170.374z M190.432,169.03h5.456
			c-0.408-1.349-1.38-2.077-2.783-2.077C191.75,166.954,190.808,167.69,190.432,169.03z"/>
		<path d="M209.912,177.692c-4.328,0-7.452-3.033-7.452-7.209c0-4.176,3.109-7.151,7.467-7.151c3.793,0,6.638,2.391,7.146,5.981
			h-4.528c-0.391-1.101-1.42-1.815-2.632-1.815c-1.634,0-2.796,1.242-2.796,3c0,1.759,1.177,3.029,2.796,3.029
			c1.248,0,2.259-0.764,2.643-1.969h4.567C216.597,175.223,213.713,177.692,209.912,177.692L209.912,177.692z"/>
		<path d="M233.691,170.374c0,0.407-0.035,0.813-0.096,1.231h-10.021c0.304,1.548,1.287,2.349,2.755,2.349
			c1.086,0,1.993-0.476,2.44-1.266h4.626c-0.949,3.08-3.68,5.005-7.066,5.005c-4.211,0-7.331-3.078-7.331-7.202
			c0-4.138,3.095-7.18,7.331-7.18C230.68,163.311,233.692,166.415,233.691,170.374L233.691,170.374z M223.656,169.03h5.456
			c-0.408-1.349-1.38-2.077-2.783-2.077C224.975,166.954,224.032,167.69,223.656,169.03z"/>
		<path d="M236.459,163.753h4.648v13.497h-4.648V163.753z M236.494,158.119h4.578v3.945h-4.578V158.119z"/>
		<path d="M258.365,163.753l-5.426,13.497h-4.212l-5.498-13.497h5.094l2.551,7.994l2.522-7.994H258.365z"/>
		<path d="M273.815,170.374c0,0.407-0.035,0.813-0.096,1.231h-10.021c0.304,1.548,1.287,2.349,2.755,2.349
			c1.086,0,1.993-0.476,2.44-1.266h4.626c-0.949,3.08-3.68,5.005-7.066,5.005c-4.211,0-7.331-3.078-7.331-7.202
			c0-4.138,3.095-7.18,7.331-7.18C270.804,163.311,273.816,166.415,273.815,170.374L273.815,170.374z M263.78,169.03h5.456
			c-0.408-1.349-1.38-2.077-2.783-2.077C265.099,166.954,264.156,167.69,263.78,169.03z"/>
		<path d="M285.016,171.456v-7.703h4.649v7.5c0,1.424,0.766,2.262,2.008,2.262s1.993-0.852,1.993-2.262v-7.5h4.649v7.703
			c0,3.776-2.656,6.236-6.643,6.236C287.686,177.692,285.016,175.232,285.016,171.456z"/>
		<path d="M315.057,169.02v8.23h-4.648v-7.587c0-1.571-0.591-2.35-1.761-2.35c-1.449,0-2.283,1.012-2.283,2.73v7.207h-4.649v-13.497
			h3.262l0.639,1.392c1.005-1.12,2.504-1.791,4.249-1.791C312.998,163.354,315.057,165.582,315.057,169.02z"/>
		<path d="M318.49,158.879h4.649v18.371h-4.649V158.879z"/>
		<path d="M326.717,163.753h4.648v13.497h-4.648V163.753z M326.752,158.119h4.578v3.945h-4.578V158.119z"/>
		<path d="M355.646,168.785v8.465h-4.649v-7.89c0-1.41-0.519-2.09-1.507-2.09c-1.277,0-1.933,0.88-1.933,2.58v7.4h-4.527v-7.89
			c0-1.367-0.516-2.09-1.488-2.09c-1.261,0-1.951,0.901-1.951,2.58v7.4h-4.649v-13.497h3.27l0.662,1.45
			c0.975-1.136,2.391-1.85,3.945-1.85c1.645,0,3.03,0.739,3.87,1.987c0.97-1.221,2.465-1.987,4.146-1.987
			C353.724,163.354,355.646,165.606,355.646,168.785z"/>
		<path d="M359.066,163.753h4.648v13.497h-4.648V163.753z M359.102,158.119h4.578v3.945h-4.578V158.119z"/>
		<path d="M376.393,173.178v4.072h-3.198c-2.984,0-4.799-1.825-4.799-4.824v-5.093h-2.471v-1.087l6.047-6.439h0.955v3.946h3.391
			v3.58h-3.273v4.295c0,0.967,0.584,1.55,1.564,1.55H376.393z"/>
		<path d="M392.997,170.374c0,0.407-0.035,0.813-0.096,1.231H382.88c0.304,1.548,1.287,2.349,2.755,2.349
			c1.086,0,1.993-0.476,2.44-1.266h4.626c-0.949,3.08-3.68,5.005-7.066,5.005c-4.211,0-7.331-3.078-7.331-7.202
			c0-4.138,3.095-7.18,7.331-7.18C389.985,163.311,392.998,166.415,392.997,170.374L392.997,170.374z M382.962,169.03h5.456
			c-0.408-1.349-1.38-2.077-2.783-2.077C384.28,166.954,383.338,167.69,382.962,169.03z"/>
		<path d="M410.021,158.879v18.371h-3.44l-0.438-1.002c-1.099,0.924-2.499,1.459-4.071,1.459c-4.142,0-7.091-3.01-7.091-7.205
			c0-4.194,2.949-7.19,7.091-7.19c1.246,0,2.387,0.336,3.354,0.937v-5.369H410.021z M405.714,170.502
			c0-1.763-1.28-3.089-3.021-3.089s-3.021,1.326-3.021,3.089c0,1.762,1.28,3.088,3.021,3.088S405.714,172.264,405.714,170.502z"/>
		<path d="M436.564,163.739v13.497h-3.595l-0.397-0.955c-1.105,0.895-2.505,1.411-4.073,1.411c-4.127,0-7.076-3.011-7.076-7.205
			c0-4.18,2.949-7.155,7.076-7.155c1.59,0,3.01,0.531,4.124,1.451l0.476-1.044L436.564,163.739z M432.142,170.498
			c0-1.752-1.28-3.068-3.021-3.068c-1.752,0-3.021,1.316-3.021,3.068c0,1.762,1.28,3.078,3.021,3.078
			S432.142,172.26,432.142,170.498z"/>
		<path d="M446.824,177.692c-4.328,0-7.452-3.033-7.452-7.209c0-4.176,3.109-7.151,7.467-7.151c3.793,0,6.638,2.391,7.146,5.981
			h-4.528c-0.391-1.101-1.42-1.815-2.632-1.815c-1.634,0-2.796,1.242-2.796,3c0,1.759,1.177,3.029,2.796,3.029
			c1.248,0,2.259-0.764,2.643-1.969h4.567C453.509,175.223,450.625,177.692,446.824,177.692L446.824,177.692z"/>
		<path d="M463.373,177.692c-4.328,0-7.452-3.033-7.452-7.209c0-4.176,3.109-7.151,7.467-7.151c3.793,0,6.638,2.391,7.146,5.981
			h-4.528c-0.391-1.101-1.42-1.815-2.632-1.815c-1.634,0-2.796,1.242-2.796,3c0,1.759,1.177,3.029,2.796,3.029
			c1.248,0,2.259-0.764,2.643-1.969h4.567C470.058,175.223,467.174,177.692,463.373,177.692L463.373,177.692z"/>
		<path d="M487.152,170.374c0,0.407-0.035,0.813-0.096,1.231h-10.021c0.304,1.548,1.287,2.349,2.755,2.349
			c1.086,0,1.993-0.476,2.44-1.266h4.626c-0.949,3.08-3.68,5.005-7.066,5.005c-4.211,0-7.331-3.078-7.331-7.202
			c0-4.138,3.095-7.18,7.331-7.18C484.141,163.311,487.153,166.415,487.152,170.374L487.152,170.374z M477.117,169.03h5.456
			c-0.408-1.349-1.38-2.077-2.783-2.077C478.436,166.954,477.493,167.69,477.117,169.03z"/>
		<path d="M495.127,177.692c-3.679,0-5.915-1.942-5.957-4.867h4.475c0,0.987,0.688,1.441,1.568,1.441
			c0.681,0,1.325-0.347,1.325-1.044c0-0.779-1.022-1-2.318-1.215c-2.093-0.339-4.867-0.971-4.867-4.244
			c0-2.705,2.306-4.452,5.764-4.452c3.437,0,5.664,1.828,5.717,4.563h-4.354c0-0.862-0.579-1.262-1.421-1.262
			c-0.746,0-1.246,0.369-1.246,0.994c0,0.768,1.032,0.947,2.314,1.176c2.132,0.378,4.967,0.822,4.967,4.244
			C501.094,175.847,498.713,177.692,495.127,177.692L495.127,177.692z"/>
		<path d="M509.127,177.692c-3.679,0-5.915-1.942-5.957-4.867h4.475c0,0.987,0.688,1.441,1.568,1.441
			c0.681,0,1.325-0.347,1.325-1.044c0-0.779-1.022-1-2.318-1.215c-2.093-0.339-4.867-0.971-4.867-4.244
			c0-2.705,2.306-4.452,5.764-4.452c3.436,0,5.664,1.828,5.717,4.563h-4.353c0-0.862-0.579-1.262-1.421-1.262
			c-0.746,0-1.246,0.369-1.246,0.994c0,0.768,1.032,0.947,2.314,1.176c2.132,0.378,4.967,0.822,4.967,4.244
			C515.094,175.847,512.713,177.692,509.127,177.692L509.127,177.692z"/>
		<path d="M534.956,173.178v4.072h-3.198c-2.984,0-4.799-1.825-4.799-4.824v-5.093h-2.471v-1.087l6.047-6.439h0.955v3.946h3.391
			v3.58h-3.273v4.295c0,0.967,0.584,1.55,1.564,1.55H534.956z"/>
		<path d="M536.868,170.501c0-4.184,3.166-7.19,7.566-7.19c4.387,0,7.567,3.007,7.567,7.19c0,4.169-3.181,7.191-7.567,7.191
			C540.034,177.692,536.868,174.671,536.868,170.501z M544.435,173.517c1.695,0,2.911-1.23,2.911-3.015
			c0-1.773-1.216-3.014-2.911-3.014c-1.694,0-2.91,1.23-2.91,3.014S542.74,173.516,544.435,173.517L544.435,173.517z"/>
		<path d="M571.839,173.178v4.072h-3.198c-2.984,0-4.799-1.825-4.799-4.824v-5.093h-2.471v-1.087l6.047-6.439h0.955v3.946h3.391
			v3.58h-3.273v4.295c0,0.967,0.584,1.55,1.564,1.55H571.839z"/>
		<path d="M588.003,169.123v8.127h-4.648v-7.587c0-1.557-0.547-2.35-1.761-2.35c-1.406,0-2.283,0.998-2.283,2.73v7.207h-4.649
			v-18.371h4.649v5.762c0.994-0.8,2.258-1.287,3.603-1.287C586.012,163.354,588.003,165.624,588.003,169.123z"/>
		<path d="M605.343,170.374c0,0.407-0.035,0.813-0.096,1.231h-10.021c0.304,1.548,1.287,2.349,2.755,2.349
			c1.086,0,1.993-0.476,2.44-1.266h4.626c-0.949,3.08-3.68,5.005-7.066,5.005c-4.211,0-7.331-3.078-7.331-7.202
			c0-4.138,3.095-7.18,7.331-7.18C602.331,163.311,605.344,166.415,605.343,170.374L605.343,170.374z M595.308,169.03h5.456
			c-0.408-1.349-1.38-2.077-2.783-2.077C596.626,166.954,595.684,167.69,595.308,169.03z"/>
		<path d="M19.327,219.899c0,5.725-3.737,9.792-9.216,9.792c-5.361,0-9.32-3.853-9.32-9.176s3.888-9.205,9.277-9.205
			c4.586,0,8.337,2.87,9.077,6.936h-5.051c-0.634-1.474-2.199-2.421-3.983-2.421c-2.621,0-4.387,1.895-4.387,4.691
			c0,2.767,1.737,4.662,4.387,4.662c1.84,0,3.417-0.89,3.967-2.239H9.733V219.9L19.327,219.899z"/>
		<path d="M22.112,210.879h4.649v18.371h-4.649V210.879z"/>
		<path d="M29.552,222.501c0-4.184,3.166-7.19,7.566-7.19c4.387,0,7.567,3.007,7.567,7.19c0,4.169-3.181,7.191-7.567,7.191
			C32.718,229.692,29.552,226.671,29.552,222.501z M37.118,225.517c1.695,0,2.911-1.23,2.911-3.015c0-1.773-1.216-3.014-2.911-3.014
			c-1.694,0-2.91,1.23-2.91,3.014S35.424,225.516,37.118,225.517L37.118,225.517z"/>
		<path d="M62.529,222.512c0,4.195-2.936,7.18-7.092,7.18c-1.575,0-2.975-0.528-4.071-1.444l-0.438,1.002h-3.44v-18.371h4.597v5.383
			c0.966-0.596,2.105-0.93,3.354-0.93C59.594,215.332,62.529,218.317,62.529,222.512z M57.837,222.512
			c0-1.762-1.28-3.078-3.021-3.078s-3.021,1.316-3.021,3.078c0,1.748,1.279,3.064,3.021,3.064
			C56.546,225.576,57.837,224.26,57.837,222.512z"/>
		<path d="M79.679,215.739v13.497h-3.595l-0.397-0.955c-1.105,0.895-2.505,1.411-4.073,1.411c-4.127,0-7.076-3.011-7.076-7.205
			c0-4.18,2.949-7.155,7.076-7.155c1.59,0,3.01,0.531,4.124,1.451l0.476-1.044L79.679,215.739z M75.257,222.498
			c0-1.752-1.28-3.068-3.021-3.068c-1.752,0-3.021,1.316-3.021,3.068c0,1.762,1.28,3.078,3.021,3.078S75.257,224.26,75.257,222.498z
			"/>
		<path d="M83.262,210.879h4.649v18.371h-4.649V210.879z"/>
		<path d="M111.554,211.754v17.496h-4.862v-6.716h-5.25v6.716h-4.862v-17.496h4.862v6.312h5.25v-6.312H111.554z"/>
		<path d="M129.058,222.374c0,0.407-0.035,0.813-0.096,1.231H118.94c0.304,1.548,1.287,2.349,2.755,2.349
			c1.086,0,1.993-0.476,2.44-1.266h4.626c-0.949,3.08-3.68,5.005-7.066,5.005c-4.211,0-7.331-3.078-7.331-7.202
			c0-4.138,3.095-7.18,7.331-7.18C126.046,215.311,129.059,218.415,129.058,222.374L129.058,222.374z M119.022,221.03h5.456
			c-0.408-1.349-1.38-2.077-2.783-2.077C120.341,218.954,119.398,219.69,119.022,221.03z"/>
		<path d="M146.08,210.879v18.371h-3.44l-0.438-1.002c-1.099,0.924-2.499,1.459-4.071,1.459c-4.142,0-7.091-3.01-7.091-7.205
			c0-4.194,2.949-7.19,7.091-7.19c1.246,0,2.387,0.336,3.354,0.937v-5.369H146.08z M141.773,222.502c0-1.763-1.28-3.089-3.021-3.089
			s-3.021,1.326-3.021,3.089c0,1.762,1.28,3.088,3.021,3.088S141.773,224.264,141.773,222.502z"/>
		<path d="M163.608,215.753v11.997c0,4.242-2.776,6.869-7.234,6.869c-3.83,0-6.511-1.932-7.132-5.13h4.485
			c0.322,0.902,1.475,1.388,2.604,1.388c1.558,0,2.81-0.99,2.81-2.595v-0.403c-1.015,0.644-2.219,1.014-3.521,1.014
			c-3.87,0-6.745-2.879-6.745-6.784c0-3.848,2.875-6.788,6.745-6.788c1.634,0,3.112,0.586,4.257,1.564l0.59-1.132H163.608z
			 M159.262,222.109c0-1.705-1.198-2.942-2.871-2.942c-1.669,0-2.881,1.237-2.881,2.942c0,1.719,1.197,2.957,2.881,2.957
			C158.061,225.066,159.262,223.829,159.262,222.109z"/>
		<path d="M181.105,222.374c0,0.407-0.035,0.813-0.096,1.231h-10.021c0.304,1.548,1.287,2.349,2.755,2.349
			c1.086,0,1.993-0.476,2.44-1.266h4.626c-0.949,3.08-3.68,5.005-7.066,5.005c-4.211,0-7.331-3.078-7.331-7.202
			c0-4.138,3.095-7.18,7.331-7.18C178.094,215.311,181.106,218.415,181.105,222.374L181.105,222.374z M171.07,221.03h5.456
			c-0.408-1.349-1.38-2.077-2.783-2.077C172.389,218.954,171.446,219.69,171.07,221.03z"/>
		<path d="M197.457,225.178v4.072h-3.198c-2.984,0-4.799-1.825-4.799-4.824v-5.093h-2.471v-1.087l6.047-6.439h0.955v3.946h3.391
			v3.58h-3.273v4.295c0,0.967,0.584,1.55,1.564,1.55H197.457z"/>
		<path d="M209.068,215.689v4.254h-1.805c-1.646,0-2.335,0.722-2.335,2.443v6.863h-4.649v-13.497h3.115l0.725,1.498
			c0.952-1.101,2.111-1.562,3.718-1.562H209.068z"/>
		<path d="M225.622,215.739v13.497h-3.595l-0.397-0.955c-1.105,0.895-2.505,1.411-4.073,1.411c-4.127,0-7.076-3.011-7.076-7.205
			c0-4.18,2.949-7.155,7.076-7.155c1.59,0,3.01,0.531,4.124,1.451l0.476-1.044L225.622,215.739z M221.2,222.498
			c0-1.752-1.28-3.068-3.021-3.068c-1.752,0-3.021,1.316-3.021,3.068c0,1.762,1.28,3.078,3.021,3.078S221.2,224.26,221.2,222.498z"
			/>
		<path d="M243.46,210.879v18.371h-3.44l-0.438-1.002c-1.099,0.924-2.499,1.459-4.071,1.459c-4.142,0-7.091-3.01-7.091-7.205
			c0-4.194,2.949-7.19,7.091-7.19c1.246,0,2.387,0.336,3.354,0.937v-5.369H243.46z M239.153,222.502c0-1.763-1.28-3.089-3.021-3.089
			s-3.021,1.326-3.021,3.089c0,1.762,1.28,3.088,3.021,3.088S239.153,224.264,239.153,222.502z"/>
		<path d="M247.03,215.753h4.648v13.497h-4.648V215.753z M247.065,210.119h4.578v3.945h-4.578V210.119z"/>
		<path d="M268.596,221.02v8.23h-4.648v-7.587c0-1.571-0.591-2.35-1.761-2.35c-1.449,0-2.283,1.012-2.283,2.73v7.207h-4.649v-13.497
			h3.262l0.639,1.392c1.005-1.12,2.504-1.791,4.249-1.791C266.537,215.354,268.596,217.582,268.596,221.02z"/>
		<path d="M285.988,215.753v11.997c0,4.242-2.776,6.869-7.234,6.869c-3.83,0-6.511-1.932-7.132-5.13h4.485
			c0.322,0.902,1.475,1.388,2.604,1.388c1.558,0,2.81-0.99,2.81-2.595v-0.403c-1.015,0.644-2.219,1.014-3.521,1.014
			c-3.87,0-6.745-2.879-6.745-6.784c0-3.848,2.875-6.788,6.745-6.788c1.634,0,3.112,0.586,4.257,1.564l0.59-1.132H285.988z
			 M281.642,222.109c0-1.705-1.198-2.942-2.871-2.942c-1.669,0-2.881,1.237-2.881,2.942c0,1.719,1.197,2.957,2.881,2.957
			C280.44,225.066,281.642,223.829,281.642,222.109z"/>
		<path d="M309.405,222.501c0,4.205-2.95,7.205-7.077,7.205c-1.221,0-2.338-0.321-3.29-0.896v5.313h-4.597v-18.371h3.162
			l0.582,1.072c1.11-0.96,2.538-1.515,4.143-1.515C306.455,215.311,309.405,218.297,309.405,222.501z M304.728,222.501
			c0-1.773-1.28-3.089-3.021-3.089s-3.021,1.316-3.021,3.089s1.28,3.089,3.021,3.089
			C303.437,225.59,304.728,224.274,304.728,222.501z"/>
		<path d="M312.191,210.879h4.649v18.371h-4.649V210.879z"/>
		<path d="M334.783,215.739v13.497h-3.595l-0.397-0.955c-1.105,0.895-2.505,1.411-4.073,1.411c-4.127,0-7.076-3.011-7.076-7.205
			c0-4.18,2.949-7.155,7.076-7.155c1.59,0,3.01,0.531,4.124,1.451l0.476-1.044L334.783,215.739z M330.361,222.498
			c0-1.752-1.28-3.068-3.021-3.068c-1.752,0-3.021,1.316-3.021,3.068c0,1.762,1.28,3.078,3.021,3.078
			S330.361,224.26,330.361,222.498z"/>
		<path d="M347.469,225.178v4.072h-3.198c-2.984,0-4.799-1.825-4.799-4.824v-5.093h-2.471v-1.087l6.047-6.439h0.955v3.946h3.391
			v3.58h-3.273v4.295c0,0.967,0.584,1.55,1.564,1.55H347.469z"/>
		<path d="M359.315,219.626h-3.027v9.623h-4.648v-9.623h-2.231l-0.011-3.652h2.299v-1.292c0-2.705,1.485-4.288,4.349-4.288h3.245
			v3.566h-2.054c-0.689,0-1.101,0.407-1.101,1.098v0.917h3.18V219.626z"/>
		<path d="M360.705,222.501c0-4.184,3.166-7.19,7.566-7.19c4.387,0,7.567,3.007,7.567,7.19c0,4.169-3.181,7.191-7.567,7.191
			C363.871,229.692,360.705,226.671,360.705,222.501z M368.272,225.517c1.695,0,2.911-1.23,2.911-3.015
			c0-1.773-1.216-3.014-2.911-3.014c-1.694,0-2.91,1.23-2.91,3.014S366.577,225.516,368.272,225.517L368.272,225.517z"/>
		<path d="M387.43,215.689v4.254h-1.805c-1.646,0-2.335,0.722-2.335,2.443v6.863h-4.649v-13.497h3.115l0.725,1.498
			c0.952-1.101,2.111-1.562,3.718-1.562H387.43z"/>
		<path d="M410.545,220.785v8.465h-4.649v-7.89c0-1.41-0.519-2.09-1.507-2.09c-1.277,0-1.933,0.88-1.933,2.58v7.4h-4.527v-7.89
			c0-1.367-0.516-2.09-1.488-2.09c-1.261,0-1.951,0.901-1.951,2.58v7.4h-4.649v-13.497h3.27l0.662,1.45
			c0.975-1.136,2.391-1.85,3.945-1.85c1.645,0,3.03,0.739,3.87,1.987c0.97-1.221,2.465-1.987,4.146-1.987
			C408.623,215.354,410.545,217.606,410.545,220.785z"/>
		<path d="M418.042,222.501c0-4.184,3.166-7.19,7.566-7.19c4.387,0,7.567,3.007,7.567,7.19c0,4.169-3.181,7.191-7.567,7.191
			C421.208,229.692,418.042,226.671,418.042,222.501z M425.608,225.517c1.695,0,2.911-1.23,2.911-3.015
			c0-1.773-1.216-3.014-2.911-3.014c-1.694,0-2.91,1.23-2.91,3.014S423.914,225.516,425.608,225.517L425.608,225.517z"/>
		<path d="M444.778,219.626h-3.027v9.623h-4.648v-9.623h-2.231l-0.011-3.652h2.299v-1.292c0-2.705,1.485-4.288,4.349-4.288h3.245
			v3.566h-2.054c-0.689,0-1.101,0.407-1.101,1.098v0.917h3.18V219.626z"/>
		<path d="M465.637,215.753l-5.656,12.896c-1.819,4.131-3.492,5.623-6.977,5.623h-1.592v-3.995h1.278
			c1.778,0,2.314-0.463,2.944-2.143l-5.577-12.382h5.052l2.864,7.435l2.669-7.435H465.637z"/>
		<path d="M466.241,222.501c0-4.184,3.166-7.19,7.566-7.19c4.387,0,7.567,3.007,7.567,7.19c0,4.169-3.181,7.191-7.567,7.191
			C469.407,229.692,466.241,226.671,466.241,222.501z M473.808,225.517c1.695,0,2.911-1.23,2.911-3.015
			c0-1.773-1.216-3.014-2.911-3.014c-1.694,0-2.91,1.23-2.91,3.014S472.113,225.516,473.808,225.517L473.808,225.517z"/>
		<path d="M484.001,223.456v-7.703h4.649v7.5c0,1.424,0.766,2.262,2.008,2.262s1.993-0.852,1.993-2.262v-7.5h4.649v7.703
			c0,3.776-2.656,6.236-6.643,6.236C486.671,229.692,484.001,227.232,484.001,223.456z"/>
		<path d="M509.49,215.689v4.254h-1.805c-1.646,0-2.335,0.722-2.335,2.443v6.863h-4.649v-13.497h3.115l0.725,1.498
			c0.952-1.101,2.111-1.562,3.718-1.562H509.49z"/>
		<path d="M522.866,229.692c-4.328,0-7.452-3.033-7.452-7.209c0-4.176,3.109-7.151,7.467-7.151c3.793,0,6.638,2.391,7.146,5.981
			h-4.528c-0.391-1.101-1.42-1.815-2.632-1.815c-1.634,0-2.796,1.242-2.796,3c0,1.759,1.177,3.029,2.796,3.029
			c1.247,0,2.259-0.764,2.643-1.969h4.567C529.551,227.223,526.667,229.692,522.866,229.692L522.866,229.692z"/>
		<path d="M546.079,221.123v8.127h-4.648v-7.587c0-1.557-0.547-2.35-1.761-2.35c-1.406,0-2.283,0.998-2.283,2.73v7.207h-4.649
			v-18.371h4.649v5.762c0.994-0.8,2.258-1.287,3.603-1.287C544.088,215.354,546.079,217.624,546.079,221.123z"/>
		<path d="M548.728,222.501c0-4.184,3.166-7.19,7.566-7.19c4.387,0,7.567,3.007,7.567,7.19c0,4.169-3.181,7.191-7.567,7.191
			C551.894,229.692,548.728,226.671,548.728,222.501z M556.294,225.517c1.695,0,2.911-1.23,2.911-3.015
			c0-1.773-1.216-3.014-2.911-3.014c-1.694,0-2.91,1.23-2.91,3.014S554.6,225.516,556.294,225.517L556.294,225.517z"/>
		<path d="M566.664,215.753h4.648v13.497h-4.648V215.753z M566.699,210.119h4.578v3.945h-4.578V210.119z"/>
		<path d="M581.565,229.692c-4.328,0-7.452-3.033-7.452-7.209c0-4.176,3.109-7.151,7.467-7.151c3.793,0,6.638,2.391,7.146,5.981
			h-4.528c-0.391-1.101-1.42-1.815-2.632-1.815c-1.634,0-2.796,1.242-2.796,3c0,1.759,1.177,3.029,2.796,3.029
			c1.247,0,2.259-0.764,2.643-1.969h4.567C588.25,227.223,585.366,229.692,581.565,229.692L581.565,229.692z"/>
		<path d="M605.345,222.374c0,0.407-0.035,0.813-0.096,1.231h-10.021c0.304,1.548,1.287,2.349,2.755,2.349
			c1.086,0,1.993-0.476,2.44-1.266h4.626c-0.949,3.08-3.68,5.005-7.066,5.005c-4.211,0-7.331-3.078-7.331-7.202
			c0-4.138,3.095-7.18,7.331-7.18C602.333,215.311,605.346,218.415,605.345,222.374L605.345,222.374z M595.31,221.03h5.456
			c-0.408-1.349-1.38-2.077-2.783-2.077C596.628,218.954,595.686,219.69,595.31,221.03z"/>
		<path d="M0.897,273.352c0-4.601,1.375-8.756,3.624-12.04h4.957c-1.824,2.338-4.074,6.829-4.074,12.04
			c0,5.187,2.175,9.677,4.024,11.99H4.522C2.272,282.083,0.897,277.928,0.897,273.352z"/>
		<path d="M11.413,267.753h4.648v13.497h-4.648V267.753z M11.448,262.119h4.578v3.945h-4.578V262.119z"/>
		<path d="M32.979,273.02v8.23H28.33v-7.587c0-1.571-0.591-2.35-1.761-2.35c-1.449,0-2.283,1.012-2.283,2.73v7.207h-4.649v-13.497
			h3.262l0.639,1.392c1.005-1.12,2.504-1.791,4.249-1.791C30.92,267.354,32.979,269.582,32.979,273.02z"/>
		<path d="M43.09,281.692c-4.328,0-7.452-3.033-7.452-7.209c0-4.176,3.109-7.151,7.467-7.151c3.793,0,6.638,2.391,7.146,5.981
			h-4.528c-0.391-1.101-1.42-1.815-2.632-1.815c-1.634,0-2.796,1.242-2.796,3c0,1.759,1.177,3.029,2.796,3.029
			c1.248,0,2.259-0.764,2.643-1.969H50.3C49.774,279.223,46.891,281.692,43.09,281.692L43.09,281.692z"/>
		<path d="M52.961,262.879h4.649v18.371h-4.649V262.879z"/>
		<path d="M61.012,275.456v-7.703h4.649v7.5c0,1.424,0.766,2.262,2.008,2.262s1.993-0.852,1.993-2.262v-7.5h4.649v7.703
			c0,3.776-2.656,6.236-6.643,6.236C63.682,281.692,61.012,279.232,61.012,275.456z"/>
		<path d="M91.968,262.879v18.371h-3.44l-0.438-1.002c-1.099,0.924-2.499,1.459-4.071,1.459c-4.142,0-7.091-3.01-7.091-7.205
			c0-4.194,2.949-7.19,7.091-7.19c1.246,0,2.387,0.336,3.354,0.937v-5.369H91.968z M87.661,274.502c0-1.763-1.28-3.089-3.021-3.089
			s-3.021,1.326-3.021,3.089c0,1.762,1.28,3.088,3.021,3.088S87.661,276.264,87.661,274.502z"/>
		<path d="M95.537,267.753h4.648v13.497h-4.648V267.753z M95.572,262.119h4.578v3.945h-4.578V262.119z"/>
		<path d="M117.104,273.02v8.23h-4.648v-7.587c0-1.571-0.591-2.35-1.761-2.35c-1.449,0-2.283,1.012-2.283,2.73v7.207h-4.649v-13.497
			h3.262l0.639,1.392c1.005-1.12,2.504-1.791,4.249-1.791C115.045,267.354,117.104,269.582,117.104,273.02z"/>
		<path d="M134.495,267.753v11.997c0,4.242-2.776,6.869-7.234,6.869c-3.83,0-6.511-1.932-7.132-5.13h4.485
			c0.322,0.902,1.475,1.388,2.604,1.388c1.558,0,2.81-0.99,2.81-2.595v-0.403c-1.015,0.644-2.219,1.014-3.521,1.014
			c-3.87,0-6.745-2.879-6.745-6.784c0-3.848,2.875-6.788,6.745-6.788c1.634,0,3.112,0.586,4.257,1.564l0.59-1.132H134.495z
			 M130.148,274.109c0-1.705-1.198-2.942-2.871-2.942c-1.669,0-2.881,1.237-2.881,2.942c0,1.719,1.197,2.957,2.881,2.957
			C128.947,277.066,130.148,275.829,130.148,274.109z"/>
		<path d="M147.254,262.879h4.649v18.371h-4.649V262.879z"/>
		<path d="M155.48,267.753h4.648v13.497h-4.648V267.753z M155.516,262.119h4.578v3.945h-4.578V262.119z"/>
		<path d="M177.386,267.753l-5.426,13.497h-4.212l-5.498-13.497h5.094l2.551,7.994l2.522-7.994H177.386z"/>
		<path d="M192.837,274.374c0,0.407-0.035,0.813-0.096,1.231H182.72c0.304,1.548,1.287,2.349,2.755,2.349
			c1.086,0,1.993-0.476,2.44-1.266h4.626c-0.949,3.08-3.68,5.005-7.066,5.005c-4.211,0-7.331-3.078-7.331-7.202
			c0-4.138,3.095-7.18,7.331-7.18C189.825,267.311,192.838,270.415,192.837,274.374L192.837,274.374z M182.802,273.03h5.456
			c-0.408-1.349-1.38-2.077-2.783-2.077C184.12,270.954,183.178,271.69,182.802,273.03z"/>
		<path d="M225.477,272.785v8.465h-4.649v-7.89c0-1.41-0.519-2.09-1.507-2.09c-1.277,0-1.933,0.88-1.933,2.58v7.4h-4.527v-7.89
			c0-1.367-0.516-2.09-1.488-2.09c-1.261,0-1.951,0.901-1.951,2.58v7.4h-4.649v-13.497h3.27l0.662,1.45
			c0.975-1.136,2.391-1.85,3.945-1.85c1.645,0,3.03,0.739,3.87,1.987c0.97-1.221,2.465-1.987,4.146-1.987
			C223.555,267.354,225.477,269.606,225.477,272.785z"/>
		<path d="M243.264,267.739v13.497h-3.595l-0.397-0.955c-1.105,0.895-2.505,1.411-4.073,1.411c-4.127,0-7.076-3.011-7.076-7.205
			c0-4.18,2.949-7.155,7.076-7.155c1.59,0,3.01,0.531,4.124,1.451l0.476-1.044L243.264,267.739z M238.842,274.498
			c0-1.752-1.28-3.068-3.021-3.068c-1.752,0-3.021,1.316-3.021,3.068c0,1.762,1.28,3.078,3.021,3.078
			S238.842,276.26,238.842,274.498z"/>
		<path d="M255.635,267.689v4.254h-1.805c-1.646,0-2.335,0.722-2.335,2.443v6.863h-4.649v-13.497h3.115l0.725,1.498
			c0.952-1.101,2.111-1.562,3.718-1.562H255.635z"/>
		<path d="M266.277,281.25l-3.381-5.708v5.708h-4.648v-18.371h4.648v10.161l3.216-5.287h5.22l-4.206,6.433l4.632,7.064H266.277z"/>
		<path d="M286.903,274.374c0,0.407-0.035,0.813-0.096,1.231h-10.021c0.304,1.548,1.287,2.349,2.755,2.349
			c1.086,0,1.993-0.476,2.44-1.266h4.626c-0.949,3.08-3.68,5.005-7.066,5.005c-4.211,0-7.331-3.078-7.331-7.202
			c0-4.138,3.095-7.18,7.331-7.18C283.892,267.311,286.904,270.415,286.903,274.374L286.903,274.374z M276.868,273.03h5.456
			c-0.408-1.349-1.38-2.077-2.783-2.077C278.187,270.954,277.244,271.69,276.868,273.03z"/>
		<path d="M298.572,277.178v4.072h-3.198c-2.984,0-4.799-1.825-4.799-4.824v-5.093h-2.471v-1.087l6.047-6.439h0.955v3.946h3.391
			v3.58h-3.273v4.295c0,0.967,0.584,1.55,1.564,1.55H298.572z"/>
		<path d="M319.352,267.689v4.254h-1.805c-1.646,0-2.335,0.722-2.335,2.443v6.863h-4.649v-13.497h3.115l0.725,1.498
			c0.952-1.101,2.111-1.562,3.718-1.562H319.352z"/>
		<path d="M335.904,267.739v13.497h-3.595l-0.397-0.955c-1.105,0.895-2.505,1.411-4.073,1.411c-4.127,0-7.076-3.011-7.076-7.205
			c0-4.18,2.949-7.155,7.076-7.155c1.59,0,3.01,0.531,4.124,1.451l0.476-1.044L335.904,267.739z M331.482,274.498
			c0-1.752-1.28-3.068-3.021-3.068c-1.752,0-3.021,1.316-3.021,3.068c0,1.762,1.28,3.078,3.021,3.078
			S331.482,276.26,331.482,274.498z"/>
		<path d="M348.59,277.178v4.072h-3.198c-2.984,0-4.799-1.825-4.799-4.824v-5.093h-2.471v-1.087l6.047-6.439h0.955v3.946h3.391v3.58
			h-3.273v4.295c0,0.967,0.584,1.55,1.564,1.55H348.59z"/>
		<path d="M365.195,274.374c0,0.407-0.035,0.813-0.096,1.231h-10.021c0.304,1.548,1.287,2.349,2.755,2.349
			c1.086,0,1.993-0.476,2.44-1.266h4.626c-0.949,3.08-3.68,5.005-7.066,5.005c-4.211,0-7.331-3.078-7.331-7.202
			c0-4.138,3.095-7.18,7.331-7.18C362.184,267.311,365.196,270.415,365.195,274.374L365.195,274.374z M355.16,273.03h5.456
			c-0.408-1.349-1.38-2.077-2.783-2.077C356.479,270.954,355.536,271.69,355.16,273.03z"/>
		<path d="M373.17,281.692c-3.679,0-5.915-1.942-5.957-4.867h4.475c0,0.987,0.688,1.441,1.568,1.441
			c0.681,0,1.325-0.347,1.325-1.044c0-0.779-1.022-1-2.318-1.215c-2.093-0.339-4.867-0.971-4.867-4.244
			c0-2.705,2.306-4.452,5.764-4.452c3.437,0,5.664,1.828,5.717,4.563h-4.354c0-0.862-0.579-1.262-1.421-1.262
			c-0.746,0-1.246,0.369-1.246,0.994c0,0.768,1.032,0.947,2.314,1.176c2.132,0.378,4.967,0.822,4.967,4.244
			C379.137,279.847,376.756,281.692,373.17,281.692L373.17,281.692z"/>
		<path d="M405.497,267.739v13.497h-3.595l-0.397-0.955c-1.105,0.895-2.505,1.411-4.073,1.411c-4.127,0-7.076-3.011-7.076-7.205
			c0-4.18,2.949-7.155,7.076-7.155c1.59,0,3.01,0.531,4.124,1.451l0.476-1.044L405.497,267.739z M401.075,274.498
			c0-1.752-1.28-3.068-3.021-3.068c-1.752,0-3.021,1.316-3.021,3.068c0,1.762,1.28,3.078,3.021,3.078
			S401.075,276.26,401.075,274.498z"/>
		<path d="M422.421,273.02v8.23h-4.648v-7.587c0-1.571-0.591-2.35-1.761-2.35c-1.449,0-2.283,1.012-2.283,2.73v7.207h-4.649v-13.497
			h3.262l0.639,1.392c1.005-1.12,2.504-1.791,4.249-1.791C420.362,267.354,422.421,269.582,422.421,273.02z"/>
		<path d="M440.11,262.879v18.371h-3.44l-0.438-1.002c-1.099,0.924-2.499,1.459-4.071,1.459c-4.142,0-7.091-3.01-7.091-7.205
			c0-4.194,2.949-7.19,7.091-7.19c1.246,0,2.387,0.336,3.354,0.937v-5.369H440.11z M435.804,274.502c0-1.763-1.28-3.089-3.021-3.089
			s-3.021,1.326-3.021,3.089c0,1.762,1.28,3.088,3.021,3.088S435.804,276.264,435.804,274.502z"/>
		<path d="M452.848,262.879h4.649v18.371h-4.649V262.879z"/>
		<path d="M461.073,267.753h4.648v13.497h-4.648V267.753z M461.108,262.119h4.578v3.945h-4.578V262.119z"/>
		<path d="M482.98,267.753l-5.426,13.497h-4.212l-5.498-13.497h5.094l2.551,7.994l2.522-7.994H482.98z"/>
		<path d="M498.43,274.374c0,0.407-0.035,0.813-0.096,1.231h-10.021c0.304,1.548,1.287,2.349,2.755,2.349
			c1.086,0,1.993-0.476,2.44-1.266h4.626c-0.949,3.08-3.68,5.005-7.066,5.005c-4.211,0-7.331-3.078-7.331-7.202
			c0-4.138,3.095-7.18,7.331-7.18C495.418,267.311,498.431,270.415,498.43,274.374L498.43,274.374z M488.395,273.03h5.456
			c-0.408-1.349-1.38-2.077-2.783-2.077C489.713,270.954,488.771,271.69,488.395,273.03z"/>
		<path d="M517.043,281.692c-4.328,0-7.452-3.033-7.452-7.209c0-4.176,3.109-7.151,7.467-7.151c3.793,0,6.638,2.391,7.146,5.981
			h-4.528c-0.391-1.101-1.42-1.815-2.632-1.815c-1.634,0-2.796,1.242-2.796,3c0,1.759,1.177,3.029,2.796,3.029
			c1.248,0,2.259-0.764,2.643-1.969h4.567C523.728,279.223,520.844,281.692,517.043,281.692L517.043,281.692z"/>
		<path d="M540.256,273.123v8.127h-4.648v-7.587c0-1.557-0.547-2.35-1.761-2.35c-1.406,0-2.283,0.998-2.283,2.73v7.207h-4.649
			v-18.371h4.649v5.762c0.994-0.8,2.258-1.287,3.603-1.287C538.265,267.354,540.256,269.624,540.256,273.123z"/>
		<path d="M558.057,267.739v13.497h-3.595l-0.397-0.955c-1.105,0.895-2.505,1.411-4.073,1.411c-4.127,0-7.076-3.011-7.076-7.205
			c0-4.18,2.949-7.155,7.076-7.155c1.59,0,3.01,0.531,4.124,1.451l0.476-1.044L558.057,267.739z M553.635,274.498
			c0-1.752-1.28-3.068-3.021-3.068c-1.752,0-3.021,1.316-3.021,3.068c0,1.762,1.28,3.078,3.021,3.078
			S553.635,276.26,553.635,274.498z"/>
		<path d="M570.429,267.689v4.254h-1.805c-1.646,0-2.335,0.722-2.335,2.443v6.863h-4.649v-13.497h3.115l0.725,1.498
			c0.952-1.101,2.111-1.562,3.718-1.562H570.429z"/>
		<path d="M582.166,277.178v4.072h-3.198c-2.984,0-4.799-1.825-4.799-4.824v-5.093h-2.471v-1.087l6.047-6.439h0.955v3.946h3.391
			v3.58h-3.273v4.295c0,0.967,0.584,1.55,1.564,1.55H582.166z"/>
		<path d="M590.196,281.692c-3.679,0-5.915-1.942-5.957-4.867h4.475c0,0.987,0.688,1.441,1.568,1.441
			c0.681,0,1.325-0.347,1.325-1.044c0-0.779-1.022-1-2.318-1.215c-2.093-0.339-4.867-0.971-4.867-4.244
			c0-2.705,2.306-4.452,5.764-4.452c3.437,0,5.664,1.828,5.717,4.563h-4.354c0-0.862-0.579-1.262-1.421-1.262
			c-0.746,0-1.246,0.369-1.246,0.994c0,0.768,1.032,0.947,2.314,1.176c2.132,0.378,4.967,0.822,4.967,4.244
			C596.163,279.847,593.782,281.692,590.196,281.692L590.196,281.692z"/>
		<path d="M596.577,285.342c1.85-2.313,4.023-6.804,4.023-11.99c0-5.211-2.249-9.702-4.073-12.04h4.957
			c2.249,3.284,3.624,7.439,3.624,12.04c0,4.576-1.375,8.731-3.624,11.99H596.577z"/>
		<path d="M235.688,323.626h-3.027v9.623h-4.648v-9.623h-2.231l-0.011-3.652h2.299v-1.292c0-2.705,1.485-4.288,4.349-4.288h3.245
			v3.566h-2.054c-0.689,0-1.101,0.407-1.101,1.098v0.917h3.18V323.626z"/>
		<path d="M237.078,326.501c0-4.184,3.166-7.19,7.566-7.19c4.387,0,7.567,3.007,7.567,7.19c0,4.169-3.181,7.191-7.567,7.191
			C240.244,333.692,237.078,330.671,237.078,326.501z M244.645,329.517c1.695,0,2.911-1.23,2.911-3.015
			c0-1.773-1.216-3.014-2.911-3.014c-1.694,0-2.91,1.23-2.91,3.014S242.95,329.516,244.645,329.517L244.645,329.517z"/>
		<path d="M263.802,319.689v4.254h-1.805c-1.646,0-2.335,0.722-2.335,2.443v6.863h-4.649v-13.497h3.115l0.725,1.498
			c0.952-1.101,2.111-1.562,3.718-1.562H263.802z"/>
		<path d="M279.581,322.733c2.383,0.598,3.907,2.527,3.907,5.101c0,3.38-2.619,5.801-6.267,5.801c-3.571,0-6.027-2.331-6.127-5.772
			h4.266c0.051,1.172,0.779,1.95,1.872,1.95c1.136,0,1.933-0.836,1.933-2.051c0-1.215-0.825-1.969-2.119-1.969h-2.662v-0.926
			l2.706-4.45h-5.578v-3.789h11.405v0.764L279.581,322.733L279.581,322.733z"/>
		<path d="M286.045,324.959c0-5.324,2.843-8.729,7.275-8.729c4.432,0,7.275,3.405,7.275,8.729c0,5.309-2.857,8.729-7.275,8.729
			S286.045,330.268,286.045,324.959z M296.039,324.973c0-3.062-0.982-4.784-2.719-4.784c-1.751,0-2.719,1.708-2.719,4.77
			s0.968,4.769,2.719,4.769S296.039,328.036,296.039,324.973z"/>
		<path d="M324.018,314.879v18.371h-3.44l-0.438-1.002c-1.099,0.924-2.499,1.459-4.071,1.459c-4.142,0-7.091-3.01-7.091-7.205
			c0-4.194,2.949-7.19,7.091-7.19c1.246,0,2.387,0.336,3.354,0.937v-5.369H324.018z M319.711,326.502
			c0-1.763-1.28-3.089-3.021-3.089s-3.021,1.326-3.021,3.089c0,1.762,1.28,3.088,3.021,3.088S319.711,328.264,319.711,326.502z"/>
		<path d="M341.954,319.739v13.497h-3.595l-0.397-0.955c-1.105,0.895-2.505,1.411-4.073,1.411c-4.127,0-7.076-3.011-7.076-7.205
			c0-4.18,2.949-7.155,7.076-7.155c1.59,0,3.01,0.531,4.124,1.451l0.476-1.044L341.954,319.739z M337.532,326.498
			c0-1.752-1.28-3.068-3.021-3.068c-1.752,0-3.021,1.316-3.021,3.068c0,1.762,1.28,3.078,3.021,3.078
			S337.532,328.26,337.532,326.498z"/>
		<path d="M359.647,319.753l-5.656,12.896c-1.819,4.131-3.492,5.623-6.977,5.623h-1.592v-3.995h1.278
			c1.778,0,2.314-0.463,2.944-2.143l-5.577-12.382h5.052l2.864,7.435l2.669-7.435H359.647z"/>
		<path d="M366.37,333.692c-3.679,0-5.915-1.942-5.957-4.867h4.475c0,0.987,0.688,1.441,1.568,1.441
			c0.681,0,1.325-0.347,1.325-1.044c0-0.779-1.022-1-2.318-1.215c-2.093-0.339-4.867-0.971-4.867-4.244
			c0-2.705,2.306-4.452,5.764-4.452c3.437,0,5.664,1.828,5.717,4.563h-4.354c0-0.862-0.579-1.262-1.421-1.262
			c-0.746,0-1.246,0.369-1.246,0.994c0,0.768,1.032,0.947,2.314,1.176c2.132,0.378,4.967,0.822,4.967,4.244
			C372.337,331.847,369.956,333.692,366.37,333.692L366.37,333.692z"/>
		<path d="M374.99,328.931h4.51v4.319h-4.51V328.931z"/>
	</g>
</g>
</svg>