<!-- Generator: Adobe Illustrator 21.0.0, SVG Export Plug-In  -->
<svg version="1.1"
	 xmlns="http://www.w3.org/2000/svg" xmlns:xlink="http://www.w3.org/1999/xlink" xmlns:a="http://ns.adobe.com/AdobeSVGViewerExtensions/3.0/"
	 x="0px" y="0px" width="401.98px" height="91.946px" viewBox="0 0 401.98 91.946"
	 style="enable-background:new 0 0 401.98 91.946;" xml:space="preserve">
<style type="text/css">
	.st0{fill:none;}
	.st1{font-family:'Mont-HeavyDEMO';}
	.st2{font-size:30px;}
</style>
<defs>
</defs>
<g>
	<rect y="3.45" class="st0" width="401.98" height="88.496"/>
	<path d="M66.21,14.983c0,6.128-4.5,10.517-10.84,10.517h-8.499V4.501h8.499C61.728,4.501,66.21,8.847,66.21,14.983z M60.28,14.983
		c0-3.115-2.073-5.185-5.183-5.185h-2.416v10.403h2.416C58.207,20.202,60.28,18.081,60.28,14.983z"/>
	<path d="M68.783,17.4c0-5.021,3.801-8.631,9.082-8.631c5.265,0,9.083,3.609,9.083,8.631c0,5.004-3.818,8.631-9.083,8.631
		C72.584,26.031,68.783,22.404,68.783,17.4z M81.359,17.401c0-2.13-1.459-3.618-3.494-3.618c-2.034,0-3.494,1.476-3.494,3.617
		s1.459,3.618,3.494,3.618C79.9,21.019,81.359,19.543,81.359,17.401z"/>
	<path d="M113.925,9.301L108.765,25.5h-4.497l-3.205-7.256L97.928,25.5h-4.497L88.142,9.301h5.844l2.453,8.506l3.83-8.454h1.506
		l4.038,8.532l2.416-8.584H113.925z"/>
	<path d="M132.629,15.622V25.5h-5.58v-9.106c0-1.886-0.708-2.821-2.112-2.821c-1.74,0-2.741,1.216-2.741,3.277v8.65h-5.58V9.301
		h3.915l0.766,1.67c1.207-1.344,3.005-2.149,5.1-2.149C130.159,8.821,132.629,11.495,132.629,15.622z"/>
	<path d="M136.747,3.451h5.58V25.5h-5.58V3.451z"/>
	<path d="M145.673,17.4c0-5.021,3.801-8.631,9.082-8.631c5.265,0,9.083,3.609,9.083,8.631c0,5.004-3.818,8.631-9.083,8.631
		C149.474,26.031,145.673,22.404,145.673,17.4z M158.249,17.401c0-2.13-1.459-3.618-3.494-3.618c-2.034,0-3.494,1.476-3.494,3.617
		s1.459,3.618,3.494,3.618C156.79,21.019,158.249,19.543,158.249,17.401z"/>
	<path d="M184.439,9.283v16.199h-4.313l-0.478-1.146c-1.327,1.075-3.007,1.694-4.888,1.694c-4.954,0-8.494-3.614-8.494-8.648
		c0-5.017,3.541-8.588,8.494-8.588c1.908,0,3.612,0.638,4.95,1.741l0.571-1.253H184.439z M179.132,17.396
		c0-2.103-1.536-3.682-3.626-3.682c-2.103,0-3.626,1.579-3.626,3.682c0,2.116,1.537,3.695,3.626,3.695
		S179.132,19.512,179.132,17.396z"/>
	<path d="M205.845,3.451V25.5h-4.129l-0.526-1.203c-1.318,1.109-2.999,1.751-4.886,1.751c-4.971,0-8.512-3.613-8.512-8.647
		s3.541-8.631,8.512-8.631c1.496,0,2.864,0.403,4.025,1.125V3.451H205.845z M200.676,17.4c0-2.115-1.536-3.707-3.626-3.707
		c-2.09,0-3.626,1.592-3.626,3.707s1.536,3.707,3.626,3.707C199.14,21.107,200.676,19.516,200.676,17.4z"/>
	<path d="M234.41,12.088c0,4.403-3.316,7.612-7.78,7.612h-3.143v5.8h-5.798V4.501h8.94C231.093,4.501,234.41,7.685,234.41,12.088z
		 M228.463,12.101c0-1.492-1.004-2.548-2.526-2.548h-2.449v5.096h2.449C227.459,14.648,228.463,13.593,228.463,12.101z"/>
	<path d="M237.544,3.451h5.58V25.5h-5.58V3.451z"/>
	<path d="M264.657,9.283v16.199h-4.313l-0.478-1.146c-1.327,1.075-3.007,1.694-4.888,1.694c-4.954,0-8.494-3.614-8.494-8.648
		c0-5.017,3.541-8.588,8.494-8.588c1.908,0,3.612,0.638,4.95,1.741l0.571-1.253H264.657z M259.35,17.396
		c0-2.103-1.536-3.682-3.626-3.682c-2.103,0-3.626,1.579-3.626,3.682c0,2.116,1.537,3.695,3.626,3.695S259.35,19.512,259.35,17.396z
		"/>
	<path d="M279.879,20.613V25.5h-3.839c-3.583,0-5.76-2.189-5.76-5.79v-6.112h-2.965v-1.305l7.258-7.729h1.146v4.736h4.07v4.297
		h-3.929v5.155c0,1.16,0.7,1.86,1.877,1.86H279.879z"/>
	<path d="M294.096,13.949h-3.633V25.5h-5.58V13.949h-2.679l-0.013-4.384h2.76V8.015c0-3.246,1.783-5.146,5.219-5.146h3.896v4.279
		h-2.465c-0.828,0-1.322,0.489-1.322,1.317v1.101h3.816V13.949z"/>
	<path d="M295.761,17.4c0-5.021,3.801-8.631,9.082-8.631c5.265,0,9.083,3.609,9.083,8.631c0,5.004-3.818,8.631-9.083,8.631
		C299.562,26.031,295.761,22.404,295.761,17.4z M308.336,17.401c0-2.13-1.459-3.618-3.494-3.618c-2.034,0-3.494,1.476-3.494,3.617
		s1.459,3.618,3.494,3.618C306.877,21.019,308.336,19.543,308.336,17.401z"/>
	<path d="M327.833,9.224v5.106h-2.167c-1.975,0-2.803,0.866-2.803,2.933V25.5h-5.58V9.301h3.738l0.871,1.798
		c1.143-1.321,2.534-1.875,4.462-1.875H327.833z"/>
	<path d="M355.574,15.34V25.5h-5.58v-9.471c0-1.691-0.623-2.508-1.809-2.508c-1.533,0-2.319,1.057-2.319,3.096V25.5h-5.435v-9.471
		c0-1.641-0.618-2.508-1.786-2.508c-1.513,0-2.342,1.082-2.342,3.096V25.5h-5.58V9.301h3.923l0.794,1.74
		c1.171-1.363,2.87-2.22,4.735-2.22c1.976,0,3.638,0.888,4.646,2.385c1.164-1.465,2.957-2.385,4.975-2.385
		C353.268,8.821,355.574,11.525,355.574,15.34z"/>
</g>
</svg>