<!-- Generator: Adobe Illustrator 21.0.0, SVG Export Plug-In  -->
<svg version="1.1"
	 xmlns="http://www.w3.org/2000/svg" xmlns:xlink="http://www.w3.org/1999/xlink" xmlns:a="http://ns.adobe.com/AdobeSVGViewerExtensions/3.0/"
	 x="0px" y="0px" width="349.483px" height="105.445px" viewBox="0 0 349.483 105.445"
	 style="enable-background:new 0 0 349.483 105.445;" xml:space="preserve">
<style type="text/css">
	.st0{fill:none;}
	.st1{font-family:'Mont-HeavyDEMO';}
	.st2{font-size:30px;}
</style>
<defs>
</defs>
<g>
	<rect y="3.45" class="st0" width="349.483" height="101.995"/>
	<path d="M104.292,20.202V25.5H90.956V4.501h5.862v15.701H104.292z"/>
	<path d="M113.503,9.735v3.343h6.748v5.063h-6.748V25.5h-5.837V4.501h13.364v5.234H113.503z"/>
	<path d="M145.844,14.277c0,6.871-4.486,11.753-11.063,11.753c-6.435,0-11.187-4.624-11.187-11.013
		c0-6.39,4.666-11.048,11.135-11.048c5.504,0,10.007,3.444,10.896,8.324h-6.063c-0.76-1.769-2.64-2.906-4.781-2.906
		c-3.146,0-5.265,2.274-5.265,5.63c0,3.321,2.085,5.596,5.265,5.596c2.208,0,4.102-1.069,4.762-2.688h-5.215v-3.647H145.844z"/>
	<path d="M171.773,9.71h-5.704V25.5h-5.811V9.71h-5.705V4.501h17.22V9.71z"/>
	<path d="M184.78,9.224v5.106h-2.166c-1.976,0-2.803,0.866-2.803,2.933V25.5h-5.58V9.301h3.738l0.871,1.798
		c1.142-1.321,2.533-1.875,4.462-1.875H184.78z"/>
	<path d="M204.645,9.283v16.199h-4.313l-0.478-1.146c-1.327,1.075-3.007,1.694-4.889,1.694c-4.953,0-8.494-3.614-8.494-8.648
		c0-5.017,3.541-8.588,8.494-8.588c1.908,0,3.612,0.638,4.95,1.741l0.571-1.253H204.645z M199.338,17.396
		c0-2.103-1.536-3.682-3.627-3.682c-2.103,0-3.626,1.579-3.626,3.682c0,2.116,1.536,3.695,3.626,3.695
		C197.802,21.091,199.338,19.512,199.338,17.396z"/>
	<path d="M226.051,3.451V25.5h-4.129l-0.525-1.203c-1.318,1.109-3,1.751-4.887,1.751c-4.971,0-8.512-3.613-8.512-8.647
		s3.541-8.631,8.512-8.631c1.496,0,2.864,0.403,4.025,1.125V3.451H226.051z M220.883,17.4c0-2.115-1.536-3.707-3.627-3.707
		c-2.09,0-3.626,1.592-3.626,3.707s1.536,3.707,3.626,3.707C219.347,21.107,220.883,19.516,220.883,17.4z"/>
	<path d="M246.909,18.725h-12.028c0.364,1.858,1.545,2.818,3.307,2.818c1.304,0,2.393-0.57,2.929-1.519h5.553
		c-1.14,3.697-4.417,6.007-8.481,6.007c-5.055,0-8.799-3.694-8.799-8.644c0-4.966,3.715-8.618,8.799-8.618
		c5.222,0,8.837,3.726,8.837,8.478C247.024,17.735,246.981,18.224,246.909,18.725z M234.979,15.635h6.549
		c-0.489-1.619-1.656-2.493-3.34-2.493C236.561,13.142,235.431,14.025,234.979,15.635z"/>
	<path d="M260.89,9.224v5.106h-2.166c-1.976,0-2.803,0.866-2.803,2.933V25.5h-5.58V9.301h3.738l0.871,1.798
		c1.142-1.321,2.533-1.875,4.462-1.875H260.89z"/>
</g>
</svg>