<!-- Generator: Adobe Illustrator 21.0.0, SVG Export Plug-In  -->
<svg version="1.1"
	 xmlns="http://www.w3.org/2000/svg" xmlns:xlink="http://www.w3.org/1999/xlink" xmlns:a="http://ns.adobe.com/AdobeSVGViewerExtensions/3.0/"
	 x="0px" y="0px" width="647.043px" height="237.794px" viewBox="0 0 647.043 237.794"
	 style="enable-background:new 0 0 647.043 237.794;" xml:space="preserve">
<style type="text/css">
	.st0{fill:#FCEE21;stroke:#000000;stroke-width:2;stroke-miterlimit:10;}
	.st1{fill:#2E3192;}
	.st2{enable-background:new    ;}
	.st3{clip-path:url(#SVGID_3_);enable-background:new    ;}
	.st4{fill:none;stroke:#000000;stroke-width:4;stroke-miterlimit:10;}
	.st5{clip-path:url(#SVGID_3_);fill:none;stroke:#000000;stroke-width:4;stroke-miterlimit:10;}
	.st6{fill:#ED1C24;}
	.st7{display:none;clip-path:url(#SVGID_4_);enable-background:new    ;}
	.st8{display:inline;fill:none;stroke:#000000;stroke-width:4;stroke-miterlimit:10;}
	.st9{clip-path:url(#SVGID_4_);fill:none;stroke:#000000;stroke-width:4;stroke-miterlimit:10;}
	.st10{fill:none;}
	.st11{fill:#FFFFFF;stroke:#000000;stroke-width:4;stroke-miterlimit:10;}
	.st12{fill:#1B1464;}
	.st13{clip-path:url(#SVGID_6_);enable-background:new    ;}
	.st14{clip-path:url(#SVGID_6_);fill:none;stroke:#000000;stroke-width:4;stroke-miterlimit:10;}
	.st15{display:none;clip-path:url(#SVGID_8_);enable-background:new    ;}
	.st16{clip-path:url(#SVGID_8_);fill:none;stroke:#000000;stroke-width:4;stroke-miterlimit:10;}
	.st17{font-family:'Mont-HeavyDEMO';}
	.st18{font-size:76px;}
	.st19{letter-spacing:-2;}
	.st20{letter-spacing:-1;}
</style>
<defs>
</defs>
<g>
	<path class="st0" d="M131.128,108.007L74.405,164.73l-0.979-0.979l-7.725,7.725l-0.009-1.4l-3.145-0.02l0.02,3.145l1.4,0.009
		l-1.612,1.612l-0.162-0.162c-0.805-0.805-2.149-0.619-2.682,0.372l-3.073,5.707l-0.062,0.062l-5.95-1.629l-3.101,3.101
		c-0.031,0.031-0.058,0.064-0.089,0.095c-0.594-1.268-1.402-2.462-2.449-3.51c-4.796-4.796-12.549-4.845-17.284-0.11
		s-4.685,12.488,0.11,17.284c1.135,1.135,2.439,1.995,3.826,2.598c-2.411,0.393-4.719,1.502-6.566,3.349
		c-4.735,4.735-4.685,12.488,0.11,17.284c4.796,4.796,12.549,4.845,17.284,0.11c1.797-1.797,2.901-4.029,3.322-6.369
		c0.59,1.229,1.381,2.386,2.4,3.405c4.796,4.796,12.549,4.845,17.284,0.11c4.735-4.735,4.685-12.488-0.11-17.284
		c-1.048-1.048-2.241-1.855-3.509-2.449c0.055-0.053,0.113-0.102,0.167-0.156l3.031-3.031l-1.629-5.95l0.062-0.062l5.707-3.073
		c0.991-0.534,1.177-1.877,0.372-2.682l-0.162-0.162l1.612-1.612l0.009,1.4l3.145,0.02l-0.02-3.145l-1.4-0.009l7.725-7.725
		l-0.979-0.979l37.097-37.097l3.735,3.735l3.123,3.123l3.735,3.735l6.126,6.126l3.71-3.71l6.049-6.049l-1.699-1.699l4.044-4.044
		l-8.164-8.164l-4.91,4.91l3.737,3.737l-2.619,2.619l-3.735-3.735l-2.564,2.564l-3.123-3.123l2.564-2.564l-3.735-3.735l2.619-2.619
		l3.735,3.735l4.91-4.91l-3.735-3.735l5.824-5.824l-1.285-1.285l1.146-1.146l-2.321-2.321l-1.146,1.146L131.128,108.007z
		 M47.662,199.366c-1.662,1.755-2.701,3.888-3.104,6.127c-0.59-1.229-1.381-2.386-2.4-3.405c-1.135-1.135-2.439-1.995-3.826-2.598
		c2.31-0.377,4.52-1.42,6.326-3.132l0.647,2.362L47.662,199.366z M30.819,182.063c2.93-2.93,7.728-2.899,10.695,0.068
		c2.968,2.968,2.998,7.766,0.068,10.695s-7.728,2.899-10.695-0.068C27.92,189.791,27.89,184.993,30.819,182.063z M38.953,216.057
		c-2.93,2.93-7.728,2.899-10.695-0.068c-2.967-2.967-2.998-7.765-0.068-10.695c2.93-2.93,7.728-2.899,10.695,0.068
		C41.853,208.329,41.883,213.127,38.953,216.057z M61.959,213.203c-2.93,2.93-7.728,2.899-10.695-0.068
		c-2.968-2.968-2.998-7.766-0.068-10.695s7.728-2.899,10.695,0.068C64.859,205.475,64.889,210.273,61.959,213.203z M59.648,192.173
		l-1.141,1.141c-2.037,2.037-5.045,2.825-7.851,2.057l-1.572-0.431l-0.457-1.668c-0.752-2.746,0.02-5.691,2.014-7.685l1.211-1.211
		l6.12,1.676L59.648,192.173z"/>
	<path class="st0" d="M208.867,32.837l-1.146,1.146l-1.285-1.285l-56.723,56.723l-0.979-0.979l-7.725,7.725l-0.009-1.4l-3.145-0.02
		l0.02,3.145l1.4,0.009l-1.612,1.612l-0.162-0.162c-0.805-0.805-2.149-0.619-2.682,0.372l-3.073,5.707l-0.062,0.062l-5.95-1.629
		l-3.101,3.101c-0.031,0.031-0.058,0.064-0.089,0.095c-0.594-1.268-1.402-2.462-2.449-3.51c-4.796-4.796-12.549-4.845-17.284-0.11
		c-4.735,4.735-4.685,12.488,0.11,17.284c1.135,1.135,2.439,1.995,3.826,2.598c-2.411,0.393-4.719,1.502-6.566,3.349
		c-4.735,4.735-4.685,12.488,0.11,17.284c4.796,4.796,12.549,4.845,17.284,0.11c1.797-1.797,2.901-4.029,3.322-6.369
		c0.59,1.229,1.381,2.386,2.4,3.405c4.796,4.796,12.549,4.845,17.284,0.11c4.735-4.735,4.685-12.488-0.11-17.284
		c-1.048-1.048-2.241-1.855-3.509-2.449c0.055-0.053,0.113-0.102,0.167-0.156l3.031-3.031l-1.629-5.95l0.062-0.062l5.707-3.073
		c0.991-0.534,1.177-1.877,0.372-2.682l-0.162-0.162l1.612-1.612l0.009,1.4l3.145,0.02l-0.02-3.145l-1.4-0.009l7.725-7.725
		l-0.979-0.979l37.097-37.097l3.735,3.735l3.123,3.123l3.735,3.735l6.126,6.126l3.71-3.71l6.049-6.049l-1.699-1.699l4.044-4.044
		l-8.164-8.164l-4.91,4.91l3.737,3.737l-2.619,2.619l-3.735-3.735l-2.564,2.564l-3.123-3.123l2.564-2.564l-3.735-3.735l2.619-2.619
		l3.735,3.735l4.91-4.91l-3.735-3.735l5.824-5.824l-1.285-1.285l1.146-1.146L208.867,32.837z M138.971,108.057
		c-1.662,1.755-2.701,3.888-3.104,6.127c-0.59-1.229-1.381-2.386-2.4-3.405c-1.135-1.135-2.439-1.995-3.826-2.598
		c2.31-0.377,4.52-1.42,6.326-3.132l0.647,2.362L138.971,108.057z M122.128,90.754c2.93-2.93,7.728-2.899,10.695,0.068
		c2.968,2.968,2.998,7.766,0.068,10.695s-7.728,2.899-10.695-0.068C119.229,98.482,119.198,93.684,122.128,90.754z M130.262,124.748
		c-2.93,2.93-7.728,2.899-10.695-0.068c-2.967-2.967-2.998-7.765-0.068-10.695c2.93-2.93,7.728-2.899,10.695,0.068
		C133.161,117.02,133.192,121.818,130.262,124.748z M153.268,121.894c-2.93,2.93-7.728,2.899-10.695-0.068
		c-2.968-2.968-2.998-7.766-0.068-10.695s7.728-2.899,10.695,0.068C156.167,114.166,156.198,118.964,153.268,121.894z
		 M150.957,100.864l-1.141,1.141c-2.037,2.037-5.045,2.825-7.851,2.057l-1.572-0.431l-0.457-1.668
		c-0.752-2.746,0.02-5.691,2.014-7.685l1.211-1.211l6.12,1.676L150.957,100.864z"/>
</g>
<g>
	<g>
		<circle class="st1" cx="119.295" cy="120.176" r="84.166"/>
		<g class="st2">
			<g class="st2">
				<defs>
					<ellipse id="SVGID_2_" class="st2" cx="119.184" cy="118.895" rx="84.168" ry="84.163"/>
				</defs>
				<clipPath id="SVGID_3_">
					<use xlink:href="#SVGID_2_"  style="overflow:visible;"/>
				</clipPath>
				<g class="st3">
					<g>
						<path class="st4" d="M119.184,203.061c0,0,0-37.683,0-84.168c-46.485,0-84.168,0-84.168,0
							C35.016,165.378,72.699,203.061,119.184,203.061z"/>
						<path class="st4" d="M119.184,191.569c-23.462,0-42.481,0-42.481,0"/>
						<path class="st4" d="M119.184,161.374c-40.138,0-72.677,0-72.677,0"/>
					</g>
					<g>
						<path class="st4" d="M119.184,203.061c-46.485,0-84.168-37.683-84.168-84.168c0,0,37.683,0,84.168,0
							C119.184,165.378,119.184,203.061,119.184,203.061z"/>
						<path class="st4" d="M76.703,191.569c0,0,19.02,0,42.481,0"/>
						<path class="st4" d="M46.507,161.374c0,0,32.538,0,72.677,0"/>
						<path class="st4" d="M119.184,203.061c-40.138,0-72.677-37.683-72.677-84.168"/>
						<path class="st4" d="M119.184,203.061c-23.462,0-42.481-37.683-42.481-84.168"/>
					</g>
					<g>
						<path class="st4" d="M119.184,203.061c0,0,0-37.683,0-84.168c46.485,0,84.168,0,84.168,0
							C203.352,165.378,165.669,203.061,119.184,203.061z"/>
						<path class="st4" d="M119.184,191.569c23.462,0,42.481,0,42.481,0"/>
						<path class="st4" d="M119.184,161.374c40.138,0,72.677,0,72.677,0"/>
						<path class="st4" d="M119.184,203.061c23.462,0,42.481-37.683,42.481-84.168"/>
						<path class="st4" d="M119.184,203.061c40.138,0,72.677-37.683,72.677-84.168"/>
					</g>
					<g>
						<path class="st4" d="M119.184,118.893c0-46.485,0-84.159,0-84.159c-46.485,0-84.168,37.674-84.168,84.159
							C35.016,118.893,72.699,118.893,119.184,118.893z"/>
						<path class="st4" d="M119.184,76.414c-40.138,0-72.677,0-72.677,0"/>
						<path class="st4" d="M119.184,46.223c-23.462,0-42.481,0-42.481,0"/>
					</g>
					<g>
						<path class="st4" d="M35.016,118.893c0-46.485,37.683-84.159,84.168-84.159c0,0,0,37.674,0,84.159
							C72.699,118.893,35.016,118.893,35.016,118.893z"/>
						<path class="st4" d="M46.507,76.414c0,0,32.538,0,72.677,0"/>
						<path class="st4" d="M76.703,46.223c0,0,19.02,0,42.481,0"/>
						<path class="st4" d="M46.507,118.893c0-46.485,32.538-84.159,72.677-84.159"/>
						<path class="st4" d="M76.703,118.893c0-46.485,19.019-84.159,42.481-84.159"/>
					</g>
					<g>
						<path class="st4" d="M119.184,118.893c0-46.485,0-84.159,0-84.159c46.485,0,84.168,37.674,84.168,84.159
							C203.352,118.893,165.669,118.893,119.184,118.893z"/>
						<path class="st4" d="M119.184,76.414c40.138,0,72.677,0,72.677,0"/>
						<path class="st4" d="M119.184,46.223c23.462,0,42.481,0,42.481,0"/>
						<path class="st4" d="M161.665,118.893c0-46.485-19.019-84.159-42.481-84.159"/>
						<path class="st4" d="M191.861,118.893c0-46.485-32.538-84.159-72.677-84.159"/>
					</g>
				</g>
				<ellipse class="st5" cx="119.184" cy="118.895" rx="84.168" ry="84.163"/>
				<use xlink:href="#SVGID_2_"  style="overflow:visible;fill:none;stroke:#000000;stroke-width:4;stroke-miterlimit:10;"/>
			</g>
		</g>
		<g>
			<g>
				<path class="st6" d="M142.955,155.253c-1.368-1.604-1.14-5.381-5.204-3.578c-0.39,0.173-2.461-3.416-3.735-5.269
					c-2.923-4.252-7.518-4.811-11.11-1.12c-2.397,2.462-4.376,5.221-7.718,6.735c-1.904,0.862-2.818,2.875-2.542,5.36
					c0.205,1.85,0.333,3.759-0.836,5.692c-0.929,1.536-2.058,2.524-3.52,2.693c-2.126,0.246-2.073-1.738-2.6-3.213
					c-3.191-8.937-6.015-17.997-12.357-25.516c-1.415-1.678-2.274-2.566-4.396-2.748c-3.679-0.315-6.745-2.217-10.051-3.796
					c-3.97-1.896-6.238-4.205-7.79-7.932c-0.12-0.289-1.47-0.066-2.248-0.081c-0.133-0.071-0.266-0.143-0.399-0.215
					c0.145,0.059,0.291,0.118,0.436,0.177c-0.429,5.586-0.375,10.728,7.552,10.41c0.725-0.029,1.533,1.982,2.299,3.044
					c-0.446,1.345-0.421,2.674,0.154,3.98c-0.902,1.81-2.114,3.361-4.041,4.115c-5.38,2.104-10.928,3.629-16.612,4.656
					c-0.413-0.388-0.827-0.776-1.241-1.164c0.161-7.854-3.419-15.276-2.703-23.203c0.017-0.189-0.574-0.433-0.881-0.652
					c-0.766-3.486-0.128-6.801,1.213-10.032c2.173-2.571,6.606-5.75,3.147-8.607c-3.863-3.192-2.66-5.667-1.706-8.897
					c0,0,0.427-0.026,0.428-0.025c1.739,3.037,5.839-0.364,7.531,2.753c1.781,3.28,4.055,2.715,6.516,0.887
					c7.241,3.221,8.24-0.317,8.023-6.676c-0.161-4.727,6.155-7.234,9.588-3.728c3.745,3.825,4.22,1.715,5.871-1.588
					c3.526-7.053,7.624-13.82,11.488-20.705c2.326-1.044,3.165,2.397,5.347,1.781c1.588,1.702,3.256,3.49,5.43,0.872
					c1.502-1.809,6.217-1.99,3.321-6.179c2.3-1.023,4.924-1.647,6.808-3.181c1.867-1.519,4.108-0.965,4.588-0.057
					c1.491,2.818,4.245,2.402,5.611,1.613c6.09-3.516,14.618-1.217,19.224-8.447c1.281-2.011,4.689-1.873,6.143,0.324
					c1.379,2.085,3.951,2.605,5.01,4.799c-1.12,0.652-0.639,1.564-0.396,2.437c-1.412,3.843-1.616,7.971-2.757,11.92
					c-0.804,2.784-1.914,8.203,5.226,7.246c2.943-0.395,6.853,9.024,5.808,12.805c-0.459,1.661-1.159,3.256-1.749,4.879
					c-4.337,1.677-0.084,6.513-3.179,8.649c-1.092-0.412-2.247-0.708-3.264-1.259c-2.992-1.621-3.269,1.246-4.083,2.636
					c-1.244,2.125,1.681,2.425,2.07,2.381c3.118-0.356,2.999,1.648,2.855,3.599c-0.108,1.469,0.443,2.546,1.225,3.726
					c5.843,8.818,3.052,16.667-7.323,20.791c-0.898-0.299-1.743-0.487-1.825,0.889c-7.636,3.007-8.073,4.723-2.366,10.335
					c2.25,2.213,3.625,4.968,2.116,7.578c-2.175,3.76-6.169,2.86-9.403,1.582c-1.738-0.687-3.044-2.409-5.237-1.601
					C144.5,156.151,144.853,154.645,142.955,155.253z M119.683,108.094c-1.292-0.561,0.482-3.879-2.57-2.857
					c-1.568-0.352-3.552-1.744-3.692,1.477c-2.706,1.064-0.791,2.137-0.006,3.207c1.75-2.523,4.964,1.586,6.6-1.459
					c0.754-0.126,1.718,1.445,2.247-0.192c0.295-0.911,0.24-2.088-0.911-2.327C119.64,105.586,119.633,106.896,119.683,108.094z"/>
				<path class="st6" d="M53.495,83.565c1.752,4.85-1.097,8.131-2.585,12.768c2.352-2.231,3.63-0.531,5.155-0.242
					c-0.954,3.231-2.157,5.706,1.706,8.897c3.458,2.857-0.974,6.036-3.147,8.607c-2.855-0.945-5.016-2.565-6.802-5.153
					c-0.889-1.288-1.18-4.22-4.609-3.244c-2.001,0.57-1.336-1.601-1.122-3.163c0.658-4.811,3.886-9.597-0.584-14.519
					c-2.17-2.389,2.073-2.746,2.96-4.454c1.289-2.483,3.899,0.523,6.128,0.336"/>
				<path class="st6" d="M70.54,99.706c-2.461,1.827-4.735,2.393-6.516-0.887c-1.692-3.117-5.792,0.284-7.531-2.753
					c0.257-0.285,0.471-0.632,0.778-0.844C69.358,86.923,68.08,89.681,70.54,99.706z"/>
				<path class="st6" d="M53.411,123.628c0.307,0.218,0.898,0.462,0.881,0.652c-0.716,7.927,2.864,15.349,2.703,23.203
					c-1.614-0.068-2.104-0.988-2.627-2.497C51.918,137.927,52.966,130.777,53.411,123.628z"/>
				<path class="st6" d="M68.969,79.907c4.545-3.18,8.357-2.884,12.114-2.829c0.997,0.015,2.072,0.147,2.096,1.451
					c0.025,1.344-1.121,1.256-2.06,1.495C77.399,80.97,73.884,79.413,68.969,79.907z"/>
				<path class="st6" d="M67.925,70.729c2.626-0.617,3.51-2.743,5.666-2.026c0.697,0.232,0.914,1.125,0.356,1.921
					C72.472,72.728,70.783,71.767,67.925,70.729z"/>
				<path class="st6" d="M173.392,164.037c0.678,4.783,0.358,8.955-1.654,13.072c-1.443,2.952-3.709,2.105-5.93,2.365
					c-2.654,0.312-3.36-1.536-4.06-3.337c-0.421-1.084-0.653-2.584,0.491-3.266C166.272,170.465,168.373,165.662,173.392,164.037z"
					/>
				<path class="st6" d="M144.898,173.526c4.513,1.858,8.165,4.688,10.345,9.169c-1.62,0.373-0.639,1.466-0.631,2.294
					c-6.049-0.869-8.185-5.531-10.088-10.413C144.819,174.286,144.943,173.936,144.898,173.526z"/>
				<path class="st6" d="M119.609,63.483c2.896,4.188-1.819,4.369-3.321,6.179c-2.174,2.618-3.842,0.83-5.43-0.872
					c0.483-3.023,0.488-3.035,2.865-2.166C116.866,67.773,117.691,64.61,119.609,63.483z"/>
				<path class="st6" d="M169.947,106.471c3.096-2.136-1.158-6.972,3.179-8.649c-0.548,4.533,0.947,8.654,2.226,13.21
					C173.55,109.512,171.749,107.991,169.947,106.471z"/>
				<path class="st6" d="M182.926,107.805c0.296-3.071,2.036-5.249,1.454-7.923C185.956,102.837,187.31,105.746,182.926,107.805z"/>
				<path class="st6" d="M175.975,71.391c-1.293-1.246-2.783-2.683-5.052-4.871C173.997,67.937,175.429,69.385,175.975,71.391z"/>
				<path class="st6" d="M142.955,155.253c1.898-0.608,1.545,0.898,1.757,1.874c-0.642,3.255-0.181,6.339,1.427,9.245l-0.091,0.095
					c-2.216-1.068-2.04-2.877-1.923-4.981C144.241,159.408,144.533,157.098,142.955,155.253z"/>
				<path class="st6" d="M144.898,173.526c0.045,0.41-0.079,0.76-0.374,1.049c-2.367-0.24-3.202-2.48-5.365-3.914
					C142.322,170.009,143.385,172.211,144.898,173.526z"/>
				<path class="st6" d="M180.298,178.167c-1.11-2.685-3.643-0.608-4.021-2.866c-0.066-0.396,0.499-1.223,0.898-1.317
					C179.17,173.514,180.036,174.586,180.298,178.167z"/>
				<path class="st6" d="M151.557,172.675c-0.203,0.641,1.405,0.932,0.393,1.565c-0.285,0.178-1.138-0.552-1.732-0.867
					c-0.856-1.698-0.018-4.339-2.776-4.974c-0.149-0.246-0.222-0.513-0.219-0.801l0.012-0.012c1.328-0.094,2.434,0.329,3.265,1.401
					C150.853,170.217,151.205,171.446,151.557,172.675z"/>
				<path class="st6" d="M181.229,93.939c-0.363-1.057-0.717-1.687-0.74-2.329c-0.01-0.302,0.598-0.864,0.96-0.894
					c1.092-0.09,1.08,0.784,0.904,1.49C182.236,92.677,181.81,93.072,181.229,93.939z"/>
				<path class="st6" d="M78.889,139.876c-0.574-1.307-0.6-2.635-0.154-3.98C80.621,137.153,81.606,138.444,78.889,139.876z"/>
				<path class="st6" d="M147.442,168.398c2.758,0.635,1.921,3.276,2.776,4.974C147.264,172.849,147.464,170.561,147.442,168.398z"
					/>
				<path class="st6" d="M166.598,60.972c-0.243-0.873-0.724-1.785,0.396-2.437c0.315,1.254,1.974,2.084,1.167,3.692
					C167.64,61.809,167.119,61.391,166.598,60.972z"/>
				<path class="st6" d="M151.557,172.675c-0.352-1.229-0.704-2.458-1.058-3.688C152.114,169.853,151.517,171.355,151.557,172.675z"
					/>
				<path class="st6" d="M154.612,184.989c-0.009-0.827-0.989-1.921,0.631-2.294c0.079,0.896,0.159,1.785,0.239,2.674l0.024-0.029
					C155.204,185.233,154.906,185.116,154.612,184.989z"/>
				<path class="st6" d="M159.516,143.522c0.127,0.22,0.294,0.405,0.332,0.614c0.022,0.123-0.164,0.405-0.251,0.403
					c-0.279-0.007-0.555-0.113-0.832-0.181C159,144.097,159.234,143.836,159.516,143.522z"/>
				<path class="st6" d="M159.602,139.234c0.082-1.376,0.927-1.188,1.825-0.889C160.818,138.643,160.21,138.938,159.602,139.234z"/>
				<path class="st6" d="M146.139,166.372c0.365,0.405,0.731,0.809,1.096,1.214l-0.012,0.011c-0.392-0.377-0.785-0.753-1.176-1.13
					L146.139,166.372z"/>
				<path class="st6" d="M117.113,105.237c-1.099,0.83-2.98-0.297-3.696,1.478C113.561,103.493,115.545,104.885,117.113,105.237z"/>
				<path class="st6" d="M68.883,122.441c-0.145-0.059-0.291-0.118-0.436-0.177c0.133,0.072,0.266,0.143,0.399,0.215L68.883,122.441
					z"/>
			</g>
		</g>
		<g class="st2">
			<g class="st2">
				<defs>
					<ellipse id="SVGID_1_" class="st2" cx="120.184" cy="118.895" rx="84.168" ry="84.163"/>
				</defs>
				<clipPath id="SVGID_4_">
					<use xlink:href="#SVGID_1_"  style="overflow:visible;"/>
				</clipPath>
				<g class="st7">
					<g>
						<path class="st8" d="M120.184,203.061c0,0,0-37.683,0-84.168c-46.485,0-84.168,0-84.168,0
							C36.016,165.378,73.699,203.061,120.184,203.061z"/>
						<path class="st8" d="M120.184,191.569c-23.462,0-42.481,0-42.481,0"/>
						<path class="st8" d="M120.184,161.374c-40.138,0-72.677,0-72.677,0"/>
					</g>
					<g>
						<path class="st8" d="M120.184,203.061c-46.485,0-84.168-37.683-84.168-84.168c0,0,37.683,0,84.168,0
							C120.184,165.378,120.184,203.061,120.184,203.061z"/>
						<path class="st8" d="M77.703,191.569c0,0,19.02,0,42.481,0"/>
						<path class="st8" d="M47.507,161.374c0,0,32.538,0,72.677,0"/>
						<path class="st8" d="M120.184,203.061c-40.138,0-72.677-37.683-72.677-84.168"/>
						<path class="st8" d="M120.184,203.061c-23.462,0-42.481-37.683-42.481-84.168"/>
					</g>
					<g>
						<path class="st8" d="M120.184,203.061c0,0,0-37.683,0-84.168c46.485,0,84.168,0,84.168,0
							C204.352,165.378,166.669,203.061,120.184,203.061z"/>
						<path class="st8" d="M120.184,191.569c23.462,0,42.481,0,42.481,0"/>
						<path class="st8" d="M120.184,161.374c40.138,0,72.677,0,72.677,0"/>
						<path class="st8" d="M120.184,203.061c23.462,0,42.481-37.683,42.481-84.168"/>
						<path class="st8" d="M120.184,203.061c40.138,0,72.677-37.683,72.677-84.168"/>
					</g>
					<g>
						<path class="st8" d="M120.184,118.893c0-46.485,0-84.159,0-84.159c-46.485,0-84.168,37.674-84.168,84.159
							C36.016,118.893,73.699,118.893,120.184,118.893z"/>
						<path class="st8" d="M120.184,76.414c-40.138,0-72.677,0-72.677,0"/>
						<path class="st8" d="M120.184,46.223c-23.462,0-42.481,0-42.481,0"/>
					</g>
					<g>
						<path class="st8" d="M36.016,118.893c0-46.485,37.683-84.159,84.168-84.159c0,0,0,37.674,0,84.159
							C73.699,118.893,36.016,118.893,36.016,118.893z"/>
						<path class="st8" d="M47.507,76.414c0,0,32.538,0,72.677,0"/>
						<path class="st8" d="M77.703,46.223c0,0,19.02,0,42.481,0"/>
						<path class="st8" d="M47.507,118.893c0-46.485,32.538-84.159,72.677-84.159"/>
						<path class="st8" d="M77.703,118.893c0-46.485,19.019-84.159,42.481-84.159"/>
					</g>
					<g>
						<path class="st8" d="M120.184,118.893c0-46.485,0-84.159,0-84.159c46.485,0,84.168,37.674,84.168,84.159
							C204.352,118.893,166.669,118.893,120.184,118.893z"/>
						<path class="st8" d="M120.184,76.414c40.138,0,72.677,0,72.677,0"/>
						<path class="st8" d="M120.184,46.223c23.462,0,42.481,0,42.481,0"/>
						<path class="st8" d="M162.665,118.893c0-46.485-19.019-84.159-42.481-84.159"/>
						<path class="st8" d="M192.861,118.893c0-46.485-32.538-84.159-72.677-84.159"/>
					</g>
				</g>
				<ellipse class="st9" cx="120.184" cy="118.895" rx="84.168" ry="84.163"/>
				<use xlink:href="#SVGID_1_"  style="overflow:visible;fill:none;stroke:#000000;stroke-width:4;stroke-miterlimit:10;"/>
			</g>
		</g>
		<g>
			<circle class="st10" cx="118.897" cy="118.897" r="118.897"/>
			<path class="st11" d="M60.508,133.636v13.423H26.722V93.857h14.851v39.78H60.508z"/>
			<path class="st11" d="M81.864,107.118v8.468h17.096v12.829H81.864v18.644H67.078V93.857h33.859v13.262H81.864z"/>
			<path class="st11" d="M161.824,118.625c0,17.41-11.365,29.778-28.026,29.778c-16.301,0-28.343-11.716-28.343-27.903
				c0-16.186,11.822-27.989,28.212-27.989c13.945,0,25.353,8.727,27.604,21.09h-15.359c-1.926-4.482-6.687-7.363-12.112-7.363
				c-7.969,0-13.341,5.763-13.341,14.263c0,8.414,5.284,14.177,13.341,14.177c5.594,0,10.391-2.707,12.063-6.811h-13.214v-9.24
				L161.824,118.625z"/>
			<path class="st11" d="M199.068,138.418H180.21l-2.946,8.642h-15.707l20.898-53.203h14.327l21.357,53.203H202L199.068,138.418z
				 M189.609,110.463l-5.829,16.485h11.711L189.609,110.463z"/>
		</g>
	</g>
</g>
<g>
	<path class="st12" d="M327.295,111.781v26.388h-66.42V33.575h29.196v78.206H327.295z"/>
	<path class="st12" d="M369.279,59.647v16.648h33.611v25.221h-33.611v36.652h-29.07V33.575h66.565v26.072H369.279z"/>
	<path class="st12" d="M526.476,82.269c0,34.226-22.345,58.542-55.099,58.542c-32.047,0-55.72-23.034-55.72-54.856
		s23.242-55.027,55.464-55.027c27.416,0,49.842,17.157,54.266,41.463h-30.195c-3.785-8.812-13.145-14.476-23.813-14.476
		c-15.666,0-26.226,11.329-26.226,28.042c0,16.54,10.388,27.87,26.226,27.87c10.998,0,20.428-5.323,23.716-13.388h-25.976V82.272
		L526.476,82.269z"/>
	<path class="st12" d="M599.69,121.181h-37.074l-5.793,16.988h-30.879l41.086-104.594h28.166l41.987,104.594h-31.73L599.69,121.181z
		 M581.096,66.221l-11.461,32.411h23.023L581.096,66.221z"/>
	<path class="st6" d="M278.873,194.34v9.691h-24.394v-38.415h10.723v28.724H278.873z"/>
	<path class="st6" d="M294.299,175.192v6.115h12.345v9.262h-12.345v13.462h-10.677v-38.415h24.448v9.576H294.299z"/>
	<path class="st6" d="M352.038,183.501c0,12.57-8.207,21.5-20.236,21.5c-11.769,0-20.464-8.46-20.464-20.147
		s8.536-20.21,20.37-20.21c10.069,0,18.305,6.301,19.93,15.228h-11.09c-1.389-3.237-4.827-5.317-8.745-5.317
		c-5.753,0-9.631,4.161-9.631,10.298c0,6.076,3.814,10.236,9.631,10.236c4.039,0,7.502-1.955,8.711-4.916h-9.541v-6.673H352.038z"/>
	<path class="st6" d="M367.555,186.689c0-10.102,3.018-19.224,7.956-26.436h10.885c-4.007,5.134-8.946,14.994-8.946,26.436
		c0,11.39,4.775,21.249,8.836,26.327h-10.775C370.573,205.861,367.555,196.737,367.555,186.689z"/>
	<path class="st6" d="M412.526,197.791H398.91l-2.128,6.24h-11.342l15.089-38.415h10.346l15.42,38.415h-11.653L412.526,197.791z
		 M405.697,177.607l-4.209,11.903h8.457L405.697,177.607z"/>
	<path class="st6" d="M426.54,191.627h10.916c0,2.744,2.117,4.079,4.531,4.079c2.217,0,4.334-1.179,4.334-3.278
		c0-2.409-2.991-3.109-6.648-3.995c-5.552-1.38-12.64-3.08-12.64-11.826c0-7.565,5.558-11.899,14.616-11.899
		c9.21,0,14.492,4.727,14.492,12.544h-10.614c0-2.43-1.81-3.569-4.005-3.569c-1.885,0-3.697,0.816-3.697,2.608
		c0,2.183,2.896,2.905,6.514,3.813c5.653,1.459,13.047,3.348,13.047,12.121c0,8.39-6.447,12.745-15.368,12.745
		C432.616,204.97,426.54,200,426.54,191.627z"/>
	<path class="st6" d="M462.929,165.615h10.723v38.415h-10.723V165.615z"/>
	<path class="st6" d="M504.456,197.791h-13.616l-2.128,6.24h-11.342l15.089-38.415h10.346l15.42,38.415h-11.653L504.456,197.791z
		 M497.627,177.607l-4.209,11.903h8.457L497.627,177.607z"/>
	<path class="st6" d="M517.451,213.016c4.06-5.078,8.835-14.938,8.835-26.327c0-11.442-4.939-21.302-8.945-26.436h10.883
		c4.94,7.212,7.958,16.334,7.958,26.436c0,10.048-3.018,19.172-7.958,26.327H517.451z"/>
	<path class="st6" d="M578.157,194.34v9.691h-24.395v-38.415h10.723v28.724H578.157z"/>
	<path class="st6" d="M606.938,175.146h-10.435v28.885h-10.629v-28.885h-10.435v-9.53h31.5V175.146z"/>
	<path class="st6" d="M647.043,184.792c0,11.21-8.232,19.239-19.83,19.239h-15.548v-38.415h15.548
		C638.844,165.615,647.043,173.567,647.043,184.792z M636.194,184.792c0-5.699-3.792-9.484-9.481-9.484h-4.417v19.032h4.417
		C632.402,194.34,636.194,190.46,636.194,184.792z"/>
</g>
</svg>