<!-- Generator: Adobe Illustrator 21.0.0, SVG Export Plug-In  -->
<svg version="1.1"
	 xmlns="http://www.w3.org/2000/svg" xmlns:xlink="http://www.w3.org/1999/xlink" xmlns:a="http://ns.adobe.com/AdobeSVGViewerExtensions/3.0/"
	 x="0px" y="0px" width="201.582px" height="192.607px" viewBox="0 0 201.582 192.607"
	 style="enable-background:new 0 0 201.582 192.607;" xml:space="preserve">
<style type="text/css">
	.st0{fill:#FFD51C;stroke:#000000;stroke-width:2;stroke-miterlimit:10;}
	.st1{fill:#0F1521;}
	.st2{enable-background:new    ;}
	.st3{clip-path:url(#SVGID_3_);enable-background:new    ;}
	.st4{fill:none;stroke:#FFFFFF;stroke-width:4;stroke-miterlimit:10;}
	.st5{clip-path:url(#SVGID_3_);fill:none;stroke:#FFFFFF;stroke-width:4;stroke-miterlimit:10;}
	.st6{fill:#FFD51C;}
	.st7{display:none;clip-path:url(#SVGID_4_);enable-background:new    ;}
	.st8{display:inline;fill:none;stroke:#000000;stroke-width:4;stroke-miterlimit:10;}
	.st9{clip-path:url(#SVGID_4_);fill:none;stroke:#FFFFFF;stroke-width:4;stroke-miterlimit:10;}
	.st10{clip-path:url(#SVGID_6_);enable-background:new    ;}
	.st11{clip-path:url(#SVGID_6_);fill:none;stroke:#FFFFFF;stroke-width:4;stroke-miterlimit:10;}
	.st12{display:none;clip-path:url(#SVGID_8_);enable-background:new    ;}
	.st13{clip-path:url(#SVGID_8_);fill:none;stroke:#FFFFFF;stroke-width:4;stroke-miterlimit:10;}
</style>
<defs>
</defs>
<g>
	<path class="st0" d="M110.772,76.723l-56.723,56.723l-0.979-0.979l-7.725,7.725l-0.009-1.4l-3.145-0.02l0.02,3.145l1.4,0.009
		l-1.612,1.612l-0.162-0.162c-0.805-0.805-2.149-0.619-2.682,0.372l-3.073,5.707l-0.062,0.062l-5.95-1.629l-3.101,3.101
		c-0.031,0.031-0.058,0.064-0.089,0.095c-0.594-1.268-1.402-2.462-2.449-3.51c-4.796-4.796-12.549-4.845-17.284-0.11
		c-4.735,4.735-4.685,12.488,0.11,17.284c1.135,1.135,2.439,1.995,3.826,2.598c-2.411,0.393-4.719,1.502-6.566,3.349
		c-4.735,4.735-4.685,12.488,0.11,17.284c4.796,4.796,12.549,4.845,17.284,0.11c1.797-1.797,2.901-4.029,3.322-6.369
		c0.59,1.229,1.381,2.386,2.4,3.405c4.796,4.796,12.549,4.845,17.284,0.11c4.735-4.735,4.685-12.488-0.11-17.284
		c-1.048-1.048-2.241-1.855-3.509-2.449c0.055-0.053,0.113-0.102,0.167-0.156l3.031-3.031l-1.629-5.95l0.062-0.062l5.707-3.073
		c0.991-0.534,1.177-1.877,0.372-2.682l-0.162-0.162l1.612-1.612l0.009,1.4l3.145,0.02l-0.02-3.145l-1.4-0.009l7.725-7.725
		l-0.979-0.979l37.097-37.097l3.735,3.735l3.123,3.123l3.735,3.735l6.126,6.126l3.71-3.71l6.049-6.049l-1.699-1.699l4.044-4.044
		l-8.164-8.164l-4.91,4.91l3.737,3.737l-2.619,2.619l-3.735-3.735l-2.564,2.564l-3.123-3.123l2.564-2.564l-3.735-3.735l2.619-2.619
		l3.735,3.735l4.91-4.91l-3.735-3.735l5.824-5.824l-1.285-1.285l1.146-1.146l-2.321-2.321l-1.146,1.146L110.772,76.723z
		 M27.307,168.082c-1.662,1.755-2.701,3.888-3.104,6.127c-0.59-1.229-1.381-2.386-2.4-3.405c-1.135-1.135-2.439-1.995-3.826-2.598
		c2.31-0.377,4.52-1.42,6.326-3.132l0.647,2.362L27.307,168.082z M10.464,150.779c2.93-2.93,7.728-2.899,10.695,0.068
		c2.968,2.968,2.998,7.766,0.068,10.695s-7.728,2.899-10.695-0.068C7.564,158.506,7.534,153.708,10.464,150.779z M18.598,184.773
		c-2.93,2.93-7.728,2.899-10.695-0.068s-2.998-7.765-0.068-10.695c2.93-2.93,7.728-2.899,10.695,0.068
		S21.528,181.843,18.598,184.773z M41.604,181.919c-2.93,2.93-7.728,2.899-10.695-0.068c-2.968-2.968-2.998-7.766-0.068-10.695
		s7.728-2.899,10.695,0.068C44.503,174.191,44.533,178.989,41.604,181.919z M39.292,160.889l-1.141,1.141
		c-2.037,2.037-5.045,2.825-7.851,2.057l-1.572-0.43l-0.457-1.668c-0.752-2.746,0.02-5.691,2.014-7.685l1.211-1.211l6.12,1.676
		L39.292,160.889z"/>
	<path class="st0" d="M188.511,1.553l-1.146,1.146l-1.285-1.285l-56.723,56.723l-0.979-0.979l-7.725,7.725l-0.009-1.4l-3.145-0.02
		l0.02,3.145l1.4,0.009l-1.612,1.612l-0.162-0.162c-0.805-0.805-2.149-0.619-2.682,0.372l-3.073,5.707l-0.062,0.062l-5.95-1.629
		l-3.101,3.101c-0.031,0.031-0.058,0.064-0.089,0.095c-0.594-1.268-1.402-2.462-2.449-3.51c-4.796-4.796-12.549-4.845-17.284-0.11
		c-4.735,4.735-4.685,12.488,0.11,17.284c1.135,1.135,2.439,1.995,3.826,2.598c-2.411,0.393-4.719,1.502-6.566,3.349
		c-4.735,4.735-4.685,12.488,0.11,17.284s12.549,4.845,17.284,0.11c1.797-1.797,2.901-4.029,3.322-6.369
		c0.59,1.229,1.381,2.386,2.4,3.405c4.796,4.796,12.549,4.845,17.284,0.11c4.735-4.735,4.685-12.488-0.11-17.284
		c-1.048-1.048-2.241-1.855-3.509-2.449c0.055-0.053,0.113-0.102,0.167-0.156l3.031-3.031l-1.629-5.95l0.062-0.062l5.707-3.073
		c0.991-0.534,1.177-1.877,0.372-2.682l-0.162-0.162l1.612-1.612l0.009,1.4l3.145,0.02l-0.02-3.145l-1.4-0.009l7.725-7.725
		l-0.979-0.979l37.097-37.097l3.735,3.735l3.123,3.123l3.735,3.735l6.126,6.126l3.71-3.71l6.049-6.049l-1.699-1.699l4.044-4.044
		l-8.164-8.164l-4.91,4.91l3.737,3.737l-2.619,2.619l-3.735-3.735l-2.564,2.564l-3.123-3.123l2.564-2.564l-3.735-3.735l2.619-2.619
		l3.735,3.735l4.91-4.91l-3.735-3.735l5.824-5.824l-1.285-1.285l1.146-1.146L188.511,1.553z M118.615,76.773
		c-1.662,1.755-2.701,3.888-3.104,6.127c-0.59-1.229-1.381-2.386-2.4-3.405c-1.135-1.135-2.439-1.995-3.826-2.598
		c2.31-0.377,4.52-1.42,6.326-3.132l0.647,2.362L118.615,76.773z M101.772,59.47c2.93-2.93,7.728-2.899,10.695,0.068
		c2.968,2.968,2.998,7.766,0.068,10.695s-7.728,2.899-10.695-0.068C98.873,67.198,98.843,62.4,101.772,59.47z M109.906,93.464
		c-2.93,2.93-7.728,2.899-10.695-0.068c-2.967-2.967-2.998-7.765-0.068-10.695c2.93-2.93,7.728-2.899,10.695,0.068
		S112.836,90.534,109.906,93.464z M132.912,90.61c-2.93,2.93-7.728,2.899-10.695-0.068c-2.968-2.968-2.998-7.766-0.068-10.695
		s7.728-2.899,10.695,0.068C135.812,82.882,135.842,87.68,132.912,90.61z M130.601,69.58l-1.141,1.141
		c-2.037,2.037-5.045,2.825-7.851,2.057l-1.572-0.431l-0.457-1.668c-0.752-2.746,0.02-5.691,2.014-7.685l1.211-1.211l6.12,1.676
		L130.601,69.58z"/>
</g>
<g>
	<g>
		<circle class="st1" cx="98.939" cy="88.892" r="84.166"/>
		<g class="st2">
			<g class="st2">
				<defs>
					<ellipse id="SVGID_2_" class="st2" cx="98.828" cy="87.611" rx="84.168" ry="84.163"/>
				</defs>
				<clipPath id="SVGID_3_">
					<use xlink:href="#SVGID_2_"  style="overflow:visible;"/>
				</clipPath>
				<g class="st3">
					<g>
						<path class="st4" d="M98.828,171.777c0,0,0-37.683,0-84.168c-46.485,0-84.168,0-84.168,0
							C14.66,134.094,52.343,171.777,98.828,171.777z"/>
						<path class="st4" d="M98.828,160.285c-23.462,0-42.481,0-42.481,0"/>
						<path class="st4" d="M98.828,130.09c-40.138,0-72.677,0-72.677,0"/>
					</g>
					<g>
						<path class="st4" d="M98.828,171.777c-46.485,0-84.168-37.683-84.168-84.168c0,0,37.683,0,84.168,0
							C98.828,134.094,98.828,171.777,98.828,171.777z"/>
						<path class="st4" d="M56.347,160.285c0,0,19.02,0,42.481,0"/>
						<path class="st4" d="M26.152,130.09c0,0,32.538,0,72.677,0"/>
						<path class="st4" d="M98.828,171.777c-40.138,0-72.677-37.683-72.677-84.168"/>
						<path class="st4" d="M98.828,171.777c-23.462,0-42.481-37.683-42.481-84.168"/>
					</g>
					<g>
						<path class="st4" d="M98.828,171.777c0,0,0-37.683,0-84.168c46.485,0,84.168,0,84.168,0
							C182.996,134.094,145.313,171.777,98.828,171.777z"/>
						<path class="st4" d="M98.828,160.285c23.462,0,42.481,0,42.481,0"/>
						<path class="st4" d="M98.828,130.09c40.138,0,72.677,0,72.677,0"/>
						<path class="st4" d="M98.828,171.777c23.462,0,42.481-37.683,42.481-84.168"/>
						<path class="st4" d="M98.828,171.777c40.138,0,72.677-37.683,72.677-84.168"/>
					</g>
					<g>
						<path class="st4" d="M98.828,87.609c0-46.485,0-84.159,0-84.159c-46.485,0-84.168,37.674-84.168,84.159
							C14.66,87.609,52.344,87.609,98.828,87.609z"/>
						<path class="st4" d="M98.828,45.13c-40.138,0-72.677,0-72.677,0"/>
						<path class="st4" d="M98.828,14.939c-23.462,0-42.481,0-42.481,0"/>
					</g>
					<g>
						<path class="st4" d="M14.66,87.609c0-46.485,37.683-84.159,84.168-84.159c0,0,0,37.674,0,84.159
							C52.344,87.609,14.66,87.609,14.66,87.609z"/>
						<path class="st4" d="M26.152,45.13c0,0,32.538,0,72.677,0"/>
						<path class="st4" d="M56.347,14.939c0,0,19.02,0,42.481,0"/>
						<path class="st4" d="M26.152,87.609c0-46.485,32.538-84.159,72.677-84.159"/>
						<path class="st4" d="M56.347,87.609c0-46.485,19.019-84.159,42.481-84.159"/>
					</g>
					<g>
						<path class="st4" d="M98.828,87.609c0-46.485,0-84.159,0-84.159c46.485,0,84.168,37.674,84.168,84.159
							C182.996,87.609,145.313,87.609,98.828,87.609z"/>
						<path class="st4" d="M98.828,45.13c40.138,0,72.677,0,72.677,0"/>
						<path class="st4" d="M98.828,14.939c23.462,0,42.481,0,42.481,0"/>
						<path class="st4" d="M141.31,87.609c0-46.485-19.019-84.159-42.481-84.159"/>
						<path class="st4" d="M171.505,87.609c0-46.485-32.538-84.159-72.677-84.159"/>
					</g>
				</g>
				<ellipse class="st5" cx="98.828" cy="87.611" rx="84.168" ry="84.163"/>
				<use xlink:href="#SVGID_2_"  style="overflow:visible;fill:none;stroke:#FFFFFF;stroke-width:4;stroke-miterlimit:10;"/>
			</g>
		</g>
		<g>
			<g>
				<path class="st6" d="M122.599,123.969c-1.368-1.604-1.14-5.381-5.204-3.578c-0.39,0.173-2.461-3.416-3.735-5.269
					c-2.923-4.252-7.518-4.811-11.11-1.12c-2.397,2.462-4.376,5.221-7.718,6.735c-1.904,0.862-2.818,2.875-2.542,5.36
					c0.205,1.85,0.333,3.759-0.836,5.692c-0.929,1.536-2.058,2.524-3.52,2.693c-2.126,0.246-2.073-1.738-2.6-3.213
					c-3.191-8.937-6.015-17.997-12.357-25.516c-1.415-1.678-2.274-2.566-4.396-2.748c-3.679-0.315-6.745-2.217-10.051-3.796
					c-3.97-1.896-6.238-4.205-7.79-7.932c-0.12-0.289-1.47-0.066-2.248-0.081c-0.133-0.071-0.266-0.143-0.399-0.215
					c0.145,0.059,0.291,0.118,0.436,0.177c-0.429,5.586-0.375,10.728,7.552,10.41c0.725-0.029,1.533,1.982,2.299,3.044
					c-0.446,1.345-0.421,2.674,0.154,3.98c-0.902,1.81-2.114,3.361-4.041,4.115c-5.38,2.104-10.928,3.629-16.612,4.656
					c-0.413-0.388-0.827-0.776-1.241-1.164c0.161-7.854-3.419-15.276-2.703-23.203c0.017-0.189-0.574-0.433-0.881-0.652
					c-0.766-3.486-0.128-6.801,1.213-10.032c2.173-2.571,6.606-5.75,3.147-8.607c-3.863-3.192-2.66-5.667-1.706-8.897
					c0,0,0.427-0.026,0.428-0.025c1.739,3.037,5.839-0.364,7.531,2.753c1.781,3.28,4.055,2.715,6.516,0.887
					c7.241,3.221,8.24-0.317,8.023-6.676c-0.161-4.727,6.155-7.234,9.588-3.728c3.745,3.825,4.22,1.715,5.871-1.588
					c3.526-7.053,7.624-13.82,11.488-20.705c2.326-1.044,3.165,2.397,5.347,1.781c1.588,1.702,3.256,3.49,5.43,0.872
					c1.502-1.809,6.217-1.99,3.321-6.179c2.3-1.023,4.924-1.647,6.808-3.181c1.867-1.519,4.108-0.965,4.588-0.057
					c1.491,2.818,4.245,2.402,5.611,1.613c6.09-3.516,14.618-1.217,19.224-8.447c1.281-2.011,4.689-1.873,6.143,0.324
					c1.379,2.085,3.951,2.605,5.01,4.799c-1.12,0.652-0.639,1.564-0.396,2.437c-1.412,3.843-1.616,7.971-2.757,11.92
					c-0.804,2.784-1.914,8.203,5.226,7.246c2.943-0.395,6.853,9.024,5.808,12.805c-0.459,1.661-1.159,3.256-1.749,4.879
					c-4.337,1.677-0.084,6.513-3.179,8.649c-1.092-0.412-2.247-0.708-3.264-1.259c-2.992-1.621-3.269,1.246-4.083,2.636
					c-1.244,2.125,1.681,2.425,2.07,2.381c3.118-0.356,2.999,1.648,2.855,3.599c-0.108,1.469,0.443,2.546,1.225,3.726
					c5.843,8.818,3.052,16.667-7.323,20.791c-0.898-0.299-1.743-0.487-1.825,0.889c-7.636,3.007-8.073,4.723-2.366,10.335
					c2.25,2.213,3.625,4.968,2.116,7.578c-2.175,3.76-6.169,2.86-9.403,1.582c-1.738-0.687-3.044-2.409-5.237-1.601
					C124.145,124.867,124.498,123.361,122.599,123.969z M99.327,76.81c-1.292-0.561,0.482-3.879-2.57-2.857
					c-1.568-0.352-3.552-1.744-3.692,1.477c-2.706,1.064-0.791,2.137-0.006,3.207c1.75-2.523,4.964,1.586,6.6-1.459
					c0.754-0.126,1.718,1.445,2.247-0.192c0.295-0.911,0.24-2.088-0.911-2.327C99.285,74.301,99.278,75.612,99.327,76.81z"/>
				<path class="st6" d="M33.139,52.281c1.752,4.85-1.097,8.131-2.585,12.768c2.352-2.231,3.63-0.531,5.155-0.242
					c-0.954,3.231-2.157,5.706,1.706,8.897c3.458,2.857-0.974,6.036-3.147,8.607c-2.855-0.945-5.016-2.565-6.802-5.153
					c-0.889-1.288-1.18-4.22-4.609-3.244c-2.001,0.57-1.336-1.601-1.122-3.163c0.658-4.811,3.886-9.597-0.584-14.519
					c-2.17-2.389,2.073-2.746,2.96-4.454c1.289-2.483,3.899,0.523,6.128,0.336"/>
				<path class="st6" d="M50.184,68.422c-2.461,1.827-4.735,2.393-6.516-0.887c-1.692-3.117-5.792,0.284-7.531-2.753
					c0.257-0.285,0.471-0.632,0.778-0.844C49.003,55.639,47.724,58.397,50.184,68.422z"/>
				<path class="st6" d="M33.055,92.344c0.307,0.218,0.898,0.462,0.881,0.652c-0.716,7.927,2.864,15.349,2.703,23.203
					c-1.614-0.068-2.104-0.988-2.627-2.497C31.562,106.643,32.61,99.493,33.055,92.344z"/>
				<path class="st6" d="M48.613,48.623c4.545-3.18,8.357-2.884,12.114-2.829c0.997,0.015,2.072,0.147,2.096,1.451
					c0.025,1.344-1.121,1.256-2.06,1.495C57.043,49.686,53.529,48.128,48.613,48.623z"/>
				<path class="st6" d="M47.569,39.445c2.626-0.617,3.51-2.743,5.666-2.026c0.697,0.232,0.914,1.125,0.356,1.921
					C52.116,41.444,50.428,40.483,47.569,39.445z"/>
				<path class="st6" d="M153.037,132.753c0.678,4.783,0.358,8.955-1.654,13.072c-1.443,2.952-3.709,2.105-5.93,2.365
					c-2.654,0.312-3.36-1.536-4.06-3.337c-0.421-1.084-0.653-2.584,0.491-3.266C145.916,139.181,148.017,134.377,153.037,132.753z"
					/>
				<path class="st6" d="M124.542,142.242c4.513,1.858,8.165,4.688,10.345,9.169c-1.62,0.373-0.639,1.466-0.631,2.294
					c-6.049-0.869-8.185-5.531-10.088-10.413C124.463,143.002,124.587,142.652,124.542,142.242z"/>
				<path class="st6" d="M99.254,32.199c2.896,4.188-1.819,4.369-3.321,6.179c-2.174,2.618-3.842,0.83-5.43-0.872
					c0.483-3.023,0.488-3.035,2.865-2.166C96.511,36.489,97.335,33.326,99.254,32.199z"/>
				<path class="st6" d="M149.591,75.187c3.096-2.136-1.158-6.972,3.179-8.649c-0.548,4.533,0.947,8.654,2.226,13.21
					C153.195,78.228,151.393,76.707,149.591,75.187z"/>
				<path class="st6" d="M162.57,76.521c0.296-3.071,2.036-5.249,1.454-7.923C165.6,71.553,166.954,74.462,162.57,76.521z"/>
				<path class="st6" d="M155.62,40.107c-1.293-1.246-2.783-2.683-5.052-4.871C153.641,36.653,155.073,38.101,155.62,40.107z"/>
				<path class="st6" d="M122.599,123.969c1.898-0.608,1.545,0.898,1.757,1.874c-0.642,3.255-0.181,6.339,1.427,9.245l-0.091,0.095
					c-2.216-1.068-2.04-2.877-1.923-4.981C123.885,128.124,124.178,125.814,122.599,123.969z"/>
				<path class="st6" d="M124.542,142.242c0.045,0.41-0.079,0.76-0.374,1.049c-2.367-0.24-3.202-2.48-5.365-3.914
					C121.967,138.725,123.03,140.927,124.542,142.242z"/>
				<path class="st6" d="M159.942,146.883c-1.11-2.685-3.643-0.608-4.021-2.866c-0.066-0.396,0.499-1.223,0.898-1.317
					C158.815,142.23,159.68,143.302,159.942,146.883z"/>
				<path class="st6" d="M131.202,141.39c-0.203,0.641,1.405,0.932,0.393,1.565c-0.285,0.178-1.138-0.552-1.732-0.867
					c-0.856-1.698-0.018-4.339-2.776-4.974c-0.149-0.246-0.222-0.513-0.219-0.801l0.012-0.012c1.328-0.094,2.434,0.329,3.265,1.401
					C130.498,138.933,130.85,140.162,131.202,141.39z"/>
				<path class="st6" d="M160.873,62.655c-0.363-1.057-0.717-1.687-0.74-2.329c-0.01-0.302,0.598-0.864,0.96-0.894
					c1.092-0.09,1.08,0.784,0.904,1.49C161.88,61.393,161.455,61.787,160.873,62.655z"/>
				<path class="st6" d="M58.533,108.591c-0.574-1.307-0.6-2.635-0.154-3.98C60.266,105.869,61.25,107.16,58.533,108.591z"/>
				<path class="st6" d="M127.086,137.114c2.758,0.635,1.921,3.276,2.776,4.974C126.908,141.564,127.109,139.277,127.086,137.114z"
					/>
				<path class="st6" d="M146.243,29.688c-0.243-0.873-0.724-1.785,0.396-2.437c0.315,1.254,1.974,2.084,1.167,3.692
					C147.284,30.525,146.764,30.107,146.243,29.688z"/>
				<path class="st6" d="M131.202,141.39c-0.352-1.229-0.704-2.458-1.058-3.688C131.758,138.568,131.161,140.071,131.202,141.39z"/>
				<path class="st6" d="M134.256,153.705c-0.009-0.827-0.989-1.921,0.631-2.294c0.079,0.896,0.159,1.785,0.239,2.674l0.024-0.029
					C134.848,153.949,134.55,153.832,134.256,153.705z"/>
				<path class="st6" d="M139.16,112.238c0.127,0.22,0.294,0.405,0.332,0.614c0.022,0.123-0.164,0.405-0.251,0.403
					c-0.279-0.007-0.555-0.113-0.832-0.181C138.644,112.813,138.878,112.552,139.16,112.238z"/>
				<path class="st6" d="M139.247,107.95c0.082-1.376,0.927-1.188,1.825-0.889C140.462,107.359,139.855,107.654,139.247,107.95z"/>
				<path class="st6" d="M125.783,135.088c0.365,0.405,0.731,0.809,1.096,1.214l-0.012,0.011c-0.392-0.377-0.785-0.753-1.176-1.13
					L125.783,135.088z"/>
				<path class="st6" d="M96.757,73.953c-1.099,0.83-2.98-0.297-3.696,1.478C93.205,72.209,95.189,73.601,96.757,73.953z"/>
				<path class="st6" d="M48.528,91.157c-0.145-0.059-0.291-0.118-0.436-0.177c0.133,0.072,0.266,0.143,0.399,0.215L48.528,91.157z"
					/>
			</g>
		</g>
		<g class="st2">
			<g class="st2">
				<defs>
					<ellipse id="SVGID_1_" class="st2" cx="99.828" cy="87.611" rx="84.168" ry="84.163"/>
				</defs>
				<clipPath id="SVGID_4_">
					<use xlink:href="#SVGID_1_"  style="overflow:visible;"/>
				</clipPath>
				<g class="st7">
					<g>
						<path class="st8" d="M99.828,171.777c0,0,0-37.683,0-84.168c-46.485,0-84.168,0-84.168,0
							C15.66,134.094,53.343,171.777,99.828,171.777z"/>
						<path class="st8" d="M99.828,160.285c-23.462,0-42.481,0-42.481,0"/>
						<path class="st8" d="M99.828,130.09c-40.138,0-72.677,0-72.677,0"/>
					</g>
					<g>
						<path class="st8" d="M99.828,171.777c-46.485,0-84.168-37.683-84.168-84.168c0,0,37.683,0,84.168,0
							C99.828,134.094,99.828,171.777,99.828,171.777z"/>
						<path class="st8" d="M57.347,160.285c0,0,19.02,0,42.481,0"/>
						<path class="st8" d="M27.152,130.09c0,0,32.538,0,72.677,0"/>
						<path class="st8" d="M99.828,171.777c-40.138,0-72.677-37.683-72.677-84.168"/>
						<path class="st8" d="M99.828,171.777c-23.462,0-42.481-37.683-42.481-84.168"/>
					</g>
					<g>
						<path class="st8" d="M99.828,171.777c0,0,0-37.683,0-84.168c46.485,0,84.168,0,84.168,0
							C183.996,134.094,146.313,171.777,99.828,171.777z"/>
						<path class="st8" d="M99.828,160.285c23.462,0,42.481,0,42.481,0"/>
						<path class="st8" d="M99.828,130.09c40.138,0,72.677,0,72.677,0"/>
						<path class="st8" d="M99.828,171.777c23.462,0,42.481-37.683,42.481-84.168"/>
						<path class="st8" d="M99.828,171.777c40.138,0,72.677-37.683,72.677-84.168"/>
					</g>
					<g>
						<path class="st8" d="M99.828,87.609c0-46.485,0-84.159,0-84.159c-46.485,0-84.168,37.674-84.168,84.159
							C15.66,87.609,53.344,87.609,99.828,87.609z"/>
						<path class="st8" d="M99.828,45.13c-40.138,0-72.677,0-72.677,0"/>
						<path class="st8" d="M99.828,14.939c-23.462,0-42.481,0-42.481,0"/>
					</g>
					<g>
						<path class="st8" d="M15.66,87.609c0-46.485,37.683-84.159,84.168-84.159c0,0,0,37.674,0,84.159
							C53.344,87.609,15.66,87.609,15.66,87.609z"/>
						<path class="st8" d="M27.152,45.13c0,0,32.538,0,72.677,0"/>
						<path class="st8" d="M57.347,14.939c0,0,19.02,0,42.481,0"/>
						<path class="st8" d="M27.152,87.609c0-46.485,32.538-84.159,72.677-84.159"/>
						<path class="st8" d="M57.347,87.609c0-46.485,19.019-84.159,42.481-84.159"/>
					</g>
					<g>
						<path class="st8" d="M99.828,87.609c0-46.485,0-84.159,0-84.159c46.485,0,84.168,37.674,84.168,84.159
							C183.996,87.609,146.313,87.609,99.828,87.609z"/>
						<path class="st8" d="M99.828,45.13c40.138,0,72.677,0,72.677,0"/>
						<path class="st8" d="M99.828,14.939c23.462,0,42.481,0,42.481,0"/>
						<path class="st8" d="M142.31,87.609c0-46.485-19.019-84.159-42.481-84.159"/>
						<path class="st8" d="M172.505,87.609c0-46.485-32.538-84.159-72.677-84.159"/>
					</g>
				</g>
				<ellipse class="st9" cx="99.828" cy="87.611" rx="84.168" ry="84.163"/>
				<use xlink:href="#SVGID_1_"  style="overflow:visible;fill:none;stroke:#FFFFFF;stroke-width:4;stroke-miterlimit:10;"/>
			</g>
		</g>
	</g>
</g>
</svg>