<!-- Generator: Adobe Illustrator 21.0.0, SVG Export Plug-In  -->
<svg version="1.1"
	 xmlns="http://www.w3.org/2000/svg" xmlns:xlink="http://www.w3.org/1999/xlink" xmlns:a="http://ns.adobe.com/AdobeSVGViewerExtensions/3.0/"
	 x="0px" y="0px" width="301.485px" height="99.445px" viewBox="0 0 301.485 99.445"
	 style="enable-background:new 0 0 301.485 99.445;" xml:space="preserve">
<style type="text/css">
	.st0{fill:none;}
	.st1{font-family:'Mont-HeavyDEMO';}
	.st2{font-size:30px;}
</style>
<defs>
</defs>
<g>
	<rect y="3.45" class="st0" width="301.485" height="95.995"/>
	<path d="M36.716,15.001c0-6.418,4.817-11.031,11.568-11.031c6.733,0,11.533,4.596,11.533,11.031c0,6.435-4.8,11.03-11.533,11.03
		C41.533,26.031,36.716,21.419,36.716,15.001z M53.793,15.001c0-3.286-2.313-5.646-5.51-5.646s-5.544,2.378-5.544,5.646
		s2.348,5.647,5.544,5.647S53.793,18.287,53.793,15.001z"/>
	<path d="M81.148,17.4c0,5.047-3.541,8.647-8.494,8.647c-1.465,0-2.806-0.385-3.949-1.075v6.377h-5.516V9.301h3.794l0.699,1.287
		c1.333-1.152,3.047-1.818,4.972-1.818C77.607,8.77,81.148,12.354,81.148,17.4z M75.533,17.4c0-2.129-1.536-3.708-3.626-3.708
		s-3.626,1.579-3.626,3.708c0,2.128,1.537,3.707,3.626,3.707C73.985,21.107,75.533,19.528,75.533,17.4z"/>
	<path d="M101.065,18.725H89.036c0.365,1.858,1.545,2.818,3.307,2.818c1.304,0,2.393-0.57,2.929-1.519h5.553
		c-1.14,3.697-4.417,6.007-8.481,6.007c-5.054,0-8.799-3.694-8.799-8.644c0-4.966,3.714-8.618,8.799-8.618
		c5.222,0,8.837,3.726,8.837,8.478C101.18,17.735,101.138,18.224,101.065,18.725z M89.135,15.635h6.549
		c-0.49-1.619-1.657-2.493-3.341-2.493C90.717,13.142,89.586,14.025,89.135,15.635z"/>
	<path d="M120.511,15.622V25.5h-5.58v-9.106c0-1.886-0.708-2.821-2.112-2.821c-1.74,0-2.741,1.216-2.741,3.277v8.65h-5.58V9.301
		h3.915l0.766,1.67c1.207-1.344,3.005-2.149,5.1-2.149C118.04,8.821,120.511,11.495,120.511,15.622z"/>
	<path d="M144.242,22.09h-7.443l-1.163,3.41h-6.2l8.249-20.999h5.655l8.43,20.999h-6.371L144.242,22.09z M140.509,11.056
		l-2.301,6.507h4.623L140.509,11.056z"/>
	<path d="M161.803,26.03c-5.195,0-8.945-3.64-8.945-8.652s3.732-8.583,8.962-8.583c4.553,0,7.967,2.87,8.577,7.179h-5.436
		c-0.469-1.321-1.705-2.179-3.159-2.179c-1.96,0-3.356,1.49-3.356,3.601s1.413,3.636,3.356,3.636c1.498,0,2.711-0.918,3.172-2.363
		h5.482C169.825,23.066,166.364,26.031,161.803,26.03L161.803,26.03z"/>
	<path d="M181.662,26.03c-5.195,0-8.945-3.64-8.945-8.652s3.732-8.583,8.962-8.583c4.553,0,7.967,2.87,8.577,7.179h-5.436
		c-0.469-1.321-1.705-2.179-3.159-2.179c-1.96,0-3.356,1.49-3.356,3.601s1.413,3.636,3.356,3.636c1.498,0,2.711-0.918,3.172-2.363
		h5.482C189.685,23.066,186.223,26.031,181.662,26.03L181.662,26.03z"/>
	<path d="M192.564,17.4c0-5.021,3.801-8.631,9.082-8.631c5.265,0,9.083,3.609,9.083,8.631c0,5.004-3.818,8.631-9.083,8.631
		C196.365,26.031,192.564,22.404,192.564,17.4z M205.139,17.401c0-2.13-1.459-3.618-3.494-3.618c-2.034,0-3.494,1.476-3.494,3.617
		s1.459,3.618,3.494,3.618C203.68,21.019,205.139,19.543,205.139,17.401z"/>
	<path d="M213.877,18.546V9.301h5.58v9.002c0,1.71,0.919,2.716,2.41,2.716c1.491,0,2.393-1.022,2.393-2.716V9.301h5.58v9.245
		c0,4.532-3.187,7.485-7.972,7.485C217.081,26.031,213.877,23.078,213.877,18.546z"/>
	<path d="M249.929,15.622V25.5h-5.58v-9.106c0-1.886-0.708-2.821-2.112-2.821c-1.74,0-2.741,1.216-2.741,3.277v8.65h-5.58V9.301
		h3.915l0.766,1.67c1.207-1.344,3.005-2.149,5.1-2.149C247.458,8.821,249.929,11.495,249.929,15.622z"/>
	<path d="M264.851,20.613V25.5h-3.839c-3.583,0-5.76-2.189-5.76-5.79v-6.112h-2.965v-1.305l7.258-7.729h1.146v4.736h4.07v4.297
		h-3.929v5.155c0,1.16,0.7,1.86,1.877,1.86H264.851z"/>
</g>
</svg>