<!-- Generator: Adobe Illustrator 21.0.0, SVG Export Plug-In  -->
<svg version="1.1"
	 xmlns="http://www.w3.org/2000/svg" xmlns:xlink="http://www.w3.org/1999/xlink" xmlns:a="http://ns.adobe.com/AdobeSVGViewerExtensions/3.0/"
	 x="0px" y="0px" width="187.491px" height="41.281px" viewBox="0 0 187.491 41.281"
	 style="enable-background:new 0 0 187.491 41.281;" xml:space="preserve">
<style type="text/css">
	.st0{fill:none;}
	.st1{fill:#FFFFFF;}
	.st2{fill:none;stroke:#B3B3B3;stroke-width:4;stroke-miterlimit:10;}
	.st3{font-family:'Mont-HeavyDEMO';}
	.st4{font-size:29px;}
</style>
<defs>
</defs>
<g>
	<rect x="0" y="3.335" class="st0" width="187.491" height="31.498"/>
	<path class="st1" d="M0.905,14.514c0-6.107,4.616-10.683,10.796-10.683c5.321,0,9.443,3.513,10.268,8.661h-5.667
		c-0.697-2.082-2.452-3.435-4.588-3.435c-2.875,0-4.984,2.313-4.984,5.456c0,3.132,2.109,5.41,4.984,5.41
		c2.253,0,4.024-1.468,4.593-3.725h5.722c-0.772,5.34-4.918,8.964-10.327,8.964C5.521,25.163,0.905,20.588,0.905,14.514z"/>
	<path class="st1" d="M23.521,16.817c0-4.855,3.675-8.345,8.782-8.345c5.091,0,8.782,3.489,8.782,8.345
		c0,4.839-3.691,8.346-8.782,8.346C27.196,25.163,23.521,21.656,23.521,16.817z M35.681,16.818c0-2.059-1.411-3.499-3.378-3.499
		s-3.378,1.428-3.378,3.498c0,2.071,1.411,3.499,3.378,3.499S35.681,18.889,35.681,16.818z"/>
	<path class="st1" d="M59.056,15.099v9.551h-5.395v-8.806c0-1.823-0.685-2.728-2.043-2.728c-1.682,0-2.65,1.175-2.65,3.169v8.364
		h-5.395V8.985h3.785l0.741,1.615c1.166-1.3,2.905-2.078,4.931-2.078C56.667,8.522,59.056,11.107,59.056,15.099z"/>
	<path class="st1" d="M72.725,19.924v4.726h-3.712c-3.464,0-5.569-2.117-5.569-5.599v-5.91h-2.867v-1.262l7.018-7.473h1.108v4.579
		h3.935v4.155h-3.799v4.984c0,1.122,0.677,1.799,1.815,1.799H72.725z"/>
	<path class="st1" d="M91.768,8.969v15.664h-4.171l-0.462-1.107c-1.283,1.039-2.907,1.638-4.727,1.638
		c-4.79,0-8.213-3.494-8.213-8.362c0-4.852,3.424-8.304,8.213-8.304c1.845,0,3.493,0.616,4.786,1.683l0.552-1.211H91.768z
		 M86.636,16.813c0-2.033-1.485-3.561-3.506-3.561c-2.033,0-3.506,1.527-3.506,3.561c0,2.045,1.486,3.572,3.506,3.572
		C85.151,20.386,86.636,18.858,86.636,16.813z"/>
	<path class="st1" d="M102.913,25.162c-5.023,0-8.649-3.52-8.649-8.366s3.609-8.299,8.666-8.299c4.402,0,7.703,2.774,8.293,6.941
		h-5.255c-0.454-1.278-1.648-2.107-3.055-2.107c-1.896,0-3.246,1.44-3.246,3.481s1.366,3.516,3.246,3.516
		c1.447,0,2.621-0.887,3.066-2.285h5.301C110.67,22.296,107.323,25.163,102.913,25.162L102.913,25.162z"/>
	<path class="st1" d="M124.025,19.924v4.726h-3.712c-3.464,0-5.569-2.117-5.569-5.599v-5.91h-2.867v-1.262l7.019-7.473h1.108v4.579
		h3.935v4.155h-3.799v4.984c0,1.122,0.677,1.799,1.815,1.799H124.025z"/>
	<path class="st1" d="M132.883,16.795V4.345h5.717V16.69c0,1.984,1.279,3.267,3.147,3.267c1.867,0,3.146-1.282,3.146-3.267V4.345
		h5.717v12.45c0,4.995-3.688,8.368-8.863,8.368C136.571,25.163,132.883,21.79,132.883,16.795z"/>
	<path class="st1" d="M159.902,25.162c-4.27,0-6.864-2.254-6.913-5.648h5.193c0,1.146,0.797,1.673,1.82,1.673
		c0.789,0,1.537-0.402,1.537-1.212c0-0.903-1.186-1.161-2.69-1.41c-2.429-0.394-5.648-1.127-5.648-4.926
		c0-3.14,2.676-5.166,6.688-5.166c3.989,0,6.574,2.121,6.636,5.295h-5.053c0-1-0.672-1.465-1.649-1.465
		c-0.865,0-1.446,0.429-1.446,1.154c0,0.892,1.198,1.099,2.686,1.364c2.475,0.439,5.765,0.954,5.765,4.926
		C166.827,23.021,164.064,25.163,159.902,25.162L159.902,25.162z"/>
</g>
<line class="st2" x1="1.746" y1="39.281" x2="167.746" y2="39.281"/>
</svg>