<!-- Generator: Adobe Illustrator 21.0.0, SVG Export Plug-In  -->
<svg version="1.1"
	 xmlns="http://www.w3.org/2000/svg" xmlns:xlink="http://www.w3.org/1999/xlink" xmlns:a="http://ns.adobe.com/AdobeSVGViewerExtensions/3.0/"
	 x="0px" y="0px" width="753.463px" height="100.761px" viewBox="0 0 753.463 100.761"
	 style="enable-background:new 0 0 753.463 100.761;" xml:space="preserve">
<style type="text/css">
	.st0{fill:none;}
	.st1{fill:#FFFFFF;}
	.st2{fill:#CCCCCC;}
	.st3{font-family:'Mont-ExtraLightDEMO';}
	.st4{font-size:20px;}
	.st5{letter-spacing:-1;}
</style>
<defs>
</defs>
<g>
	<rect x="0" y="2.385" class="st0" width="753.462" height="52.497"/>
	<path class="st1" d="M10.223,3.622H5.656V17H5.001V3.622H0.436V2.997h9.787V3.622z"/>
	<path class="st1" d="M20.977,11.794H10.894c0.097,2.764,2.109,4.786,4.782,4.786c1.906,0,3.426-0.99,4.291-2.661h0.68
		c-1.02,2.136-2.76,3.291-4.971,3.291c-3.08,0-5.416-2.421-5.416-5.626c0-3.176,2.336-5.597,5.416-5.597
		c3.105,0,5.312,2.421,5.312,5.536C20.987,11.608,20.982,11.709,20.977,11.794z M10.903,11.188h9.454
		c-0.166-2.734-2.143-4.586-4.682-4.586C13.063,6.603,11.082,8.53,10.903,11.188z"/>
	<path class="st1" d="M29.262,6.168v0.615h-0.971c-2.256,0-3.766,1.745-3.766,4.136V17h-0.641V6.197h0.506l0.104,2.447
		c0.672-1.516,2.012-2.477,3.836-2.477H29.262z"/>
	<path class="st1" d="M46.863,10.184V17h-0.625l-0.016-6.672c0-2.26-1.221-3.74-3.08-3.74c-2.146,0-3.637,1.665-3.651,4.096V17
		h-0.63v-6.672c0-2.29-1.205-3.74-3.086-3.74c-2.146,0-3.636,1.665-3.65,4.096V17h-0.641V6.197h0.51l0.102,2.201
		c0.677-1.497,2.062-2.411,3.785-2.411c1.728,0,2.993,1.068,3.438,2.767c0.607-1.706,2.067-2.767,3.918-2.767
		C45.418,5.987,46.863,7.678,46.863,10.184z"/>
	<path class="st1" d="M49.59,14.06h0.63c0.17,1.615,1.46,2.545,3.501,2.545c2.061,0,3.426-0.97,3.426-2.465
		c0-1.871-1.761-2.201-3.541-2.501c-1.871-0.32-3.801-0.655-3.801-2.775c0-1.716,1.551-2.876,3.83-2.876
		c2.296,0,3.756,1.155,3.861,3.021h-0.615c-0.105-1.524-1.301-2.43-3.256-2.43c-1.926,0-3.195,0.91-3.195,2.271
		c0,1.62,1.561,1.88,3.32,2.175c1.891,0.315,4.031,0.7,4.031,3.096c0,1.86-1.631,3.091-4.076,3.091
		C51.275,17.21,49.76,16.02,49.59,14.06z"/>
	<path class="st1" d="M75.551,17c-0.607-0.629-1.176-1.22-1.707-1.776c-1.006,1.253-2.534,1.981-4.398,1.981
		c-2.471,0-4.096-1.426-4.096-3.491c0-2.105,1.574-3.268,3.237-4.312c-1.47-1.851-1.938-2.922-1.938-3.93
		c0-1.615,1.306-2.681,3.19-2.681c1.815,0,3.105,1.05,3.105,2.54c0,2.036-1.785,3.142-3.506,4.201l-0.005,0.004
		c1.006,1.23,2.41,2.778,4.319,4.787c0.533-0.873,0.832-1.965,0.832-3.216h0.57c0,1.428-0.352,2.671-0.982,3.656
		c0.659,0.691,1.375,1.435,2.152,2.235H75.551z M73.43,14.79c-2.004-2.105-3.455-3.694-4.486-4.947
		c-1.583,0.998-2.979,2.039-2.979,3.856c0,1.735,1.41,2.911,3.52,2.911C71.146,16.61,72.525,15.943,73.43,14.79z M69.081,9.096
		l0.028-0.018c1.661-1.021,3.246-2.011,3.246-3.746c0-1.17-1.051-2-2.516-2c-1.551,0-2.6,0.865-2.6,2.141
		C67.24,6.339,67.741,7.394,69.081,9.096z"/>
	<path class="st1" d="M82.703,10.014c0-4.187,2.977-7.222,7.137-7.222c3.08,0,5.491,1.69,6.451,4.421h-0.68
		c-0.93-2.355-3.051-3.775-5.771-3.775c-3.761,0-6.471,2.745-6.471,6.576s2.695,6.546,6.471,6.546c2.795,0,4.967-1.5,5.891-4.021
		h0.666c-0.945,2.9-3.4,4.666-6.557,4.666C85.664,17.205,82.703,14.199,82.703,10.014z"/>
	<path class="st1" d="M98.164,11.599c0-3.23,2.415-5.611,5.621-5.611c3.221,0,5.621,2.4,5.621,5.611s-2.4,5.611-5.621,5.611
		C100.579,17.21,98.164,14.81,98.164,11.599z M108.756,11.599c0-2.855-2.115-4.986-4.971-4.986s-4.972,2.116-4.972,4.986
		c0,2.855,2.13,4.986,4.972,4.986C106.641,16.585,108.756,14.454,108.756,11.599z"/>
	<path class="st1" d="M121.471,10.608V17h-0.641v-6.281c0-2.575-1.4-4.131-3.716-4.131c-2.206,0-4.091,1.896-4.091,4.121V17h-0.641
		V6.197h0.506l0.113,2.491c0.736-1.593,2.375-2.701,4.232-2.701C119.84,5.987,121.471,7.823,121.471,10.608z"/>
	<path class="st1" d="M135.275,2.382V17h-0.535l-0.09-2.754c-0.881,1.79-2.669,2.964-4.901,2.964c-3.155,0-5.506-2.421-5.506-5.611
		c0-3.195,2.351-5.611,5.506-5.611c2.22,0,4.001,1.158,4.886,2.932V2.382H135.275z M134.665,11.599c0-2.876-2.06-4.986-4.881-4.986
		c-2.79,0-4.892,2.136-4.892,4.986c0,2.836,2.102,4.986,4.892,4.986C132.605,16.585,134.665,14.47,134.665,11.599z"/>
	<path class="st1" d="M139.053,2.682h0.94v1.115h-0.94V2.682z M139.203,6.197h0.641V17h-0.641V6.197z"/>
	<path class="st1" d="M149.18,16.395v0.61h-1.416c-2.01,0-3.236-1.24-3.236-3.285V6.783h-2.49V6.218h2.49V3.022h0.641v3.195h3.921
		v0.565h-3.921v6.911c0,1.705,0.965,2.7,2.65,2.7H149.18z"/>
	<path class="st1" d="M151.293,2.682h0.939v1.115h-0.939V2.682z M151.443,6.197h0.64V17h-0.64V6.197z"/>
	<path class="st1" d="M155.063,11.599c0-3.23,2.416-5.611,5.621-5.611c3.221,0,5.621,2.4,5.621,5.611s-2.4,5.611-5.621,5.611
		C157.479,17.21,155.063,14.81,155.063,11.599z M165.654,11.599c0-2.855-2.115-4.986-4.971-4.986s-4.971,2.116-4.971,4.986
		c0,2.855,2.13,4.986,4.971,4.986C163.539,16.585,165.654,14.454,165.654,11.599z"/>
	<path class="st1" d="M178.369,10.608V17h-0.641v-6.281c0-2.575-1.4-4.131-3.715-4.131c-2.206,0-4.092,1.896-4.092,4.121V17h-0.64
		V6.197h0.505l0.113,2.491c0.736-1.593,2.375-2.701,4.232-2.701C176.738,5.987,178.369,7.823,178.369,10.608z"/>
	<path class="st1" d="M181.087,14.06h0.63c0.17,1.615,1.461,2.545,3.501,2.545c2.061,0,3.426-0.97,3.426-2.465
		c0-1.871-1.761-2.201-3.54-2.501c-1.871-0.32-3.802-0.655-3.802-2.775c0-1.716,1.55-2.876,3.831-2.876
		c2.295,0,3.756,1.155,3.861,3.021h-0.615c-0.105-1.524-1.301-2.43-3.256-2.43c-1.926,0-3.195,0.91-3.195,2.271
		c0,1.62,1.56,1.88,3.32,2.175c1.891,0.315,4.031,0.7,4.031,3.096c0,1.86-1.631,3.091-4.076,3.091
		C182.772,17.21,181.257,16.02,181.087,14.06z"/>
	<path class="st1" d="M197.387,11.119h6.211v0.625h-6.211V11.119z"/>
	<path class="st1" d="M221.998,7.203c0,2.415-1.881,4.221-4.396,4.221h-4.062V17h-0.654V2.997h4.716
		C220.098,2.997,221.998,4.798,221.998,7.203z M221.333,7.203c0-2.036-1.601-3.566-3.756-3.566h-4.036v7.146h4.036
		C219.732,10.783,221.333,9.253,221.333,7.203z"/>
	<path class="st1" d="M230.058,6.168v0.615h-0.97c-2.256,0-3.767,1.745-3.767,4.136V17h-0.64V6.197h0.505l0.104,2.447
		c0.672-1.516,2.012-2.477,3.836-2.477H230.058z"/>
	<path class="st1" d="M232.131,2.682h0.939v1.115h-0.939V2.682z M232.281,6.197h0.64V17h-0.64V6.197z"/>
	<path class="st1" d="M245.643,6.197L240.836,17h-0.539l-4.912-10.803h0.676l4.504,9.892l4.412-9.892H245.643z"/>
	<path class="st1" d="M257.992,6.198V17h-0.561l-0.07-2.82c-0.865,1.828-2.666,3.03-4.93,3.03c-3.141,0-5.512-2.42-5.512-5.611
		c0-3.195,2.371-5.61,5.512-5.61c2.266,0,4.067,1.202,4.933,3.032l0.083-2.823L257.992,6.198z M257.342,11.599
		c0-2.88-2.055-4.985-4.875-4.985c-2.791,0-4.896,2.155-4.896,4.985c0,2.846,2.105,4.986,4.896,4.986
		C255.287,16.585,257.342,14.479,257.342,11.599z"/>
	<path class="st1" d="M260.961,11.599c0-3.221,2.391-5.611,5.545-5.611c2.391,0,4.266,1.351,5.027,3.401h-0.65
		c-0.756-1.73-2.4-2.776-4.377-2.776c-2.801,0-4.896,2.146-4.896,4.986c0,2.826,2.116,4.986,4.896,4.986
		c1.961,0,3.596-1.03,4.402-2.806h0.66c-0.807,2.105-2.721,3.431-5.063,3.431C263.365,17.21,260.961,14.789,260.961,11.599z"/>
	<path class="st1" d="M283.188,6.197l-5.506,11.753c-1.045,2.24-1.98,2.865-3.701,2.865h-0.846v-0.595h0.807
		c1.484,0,2.221-0.455,3.154-2.445l0.654-1.376l-5.045-10.202h0.711l4.672,9.485l4.414-9.485H283.188z"/>
	<path class="st1" d="M301.443,2.997V17h-0.564l-9.387-12.838V17h-0.646V2.997h0.596l9.357,12.813V2.997H301.443z"/>
	<path class="st1" d="M304.459,11.599c0-3.23,2.416-5.611,5.621-5.611c3.221,0,5.623,2.4,5.623,5.611s-2.402,5.611-5.623,5.611
		C306.875,17.21,304.459,14.81,304.459,11.599z M315.053,11.599c0-2.855-2.115-4.986-4.973-4.986c-2.855,0-4.971,2.116-4.971,4.986
		c0,2.855,2.131,4.986,4.971,4.986C312.938,16.585,315.053,14.454,315.053,11.599z"/>
	<path class="st1" d="M323.836,16.395v0.61h-1.414c-2.012,0-3.236-1.24-3.236-3.285V6.783h-2.49V6.218h2.49V3.022h0.641v3.195h3.92
		v0.565h-3.92v6.911c0,1.705,0.965,2.7,2.65,2.7H323.836z"/>
	<path class="st1" d="M325.951,2.682h0.939v1.115h-0.939V2.682z M326.102,6.197h0.639V17h-0.639V6.197z"/>
	<path class="st1" d="M329.721,11.599c0-3.221,2.391-5.611,5.547-5.611c2.391,0,4.266,1.351,5.025,3.401h-0.65
		c-0.756-1.73-2.4-2.776-4.375-2.776c-2.801,0-4.896,2.146-4.896,4.986c0,2.826,2.115,4.986,4.896,4.986
		c1.959,0,3.596-1.03,4.4-2.806h0.66c-0.805,2.105-2.721,3.431-5.061,3.431C332.127,17.21,329.721,14.789,329.721,11.599z"/>
	<path class="st1" d="M352.832,11.794H342.75c0.096,2.764,2.107,4.786,4.781,4.786c1.906,0,3.426-0.99,4.291-2.661h0.68
		c-1.02,2.136-2.76,3.291-4.971,3.291c-3.08,0-5.416-2.421-5.416-5.626c0-3.176,2.336-5.597,5.416-5.597
		c3.105,0,5.311,2.421,5.311,5.536C352.842,11.608,352.838,11.709,352.832,11.794z M342.76,11.188h9.453
		c-0.166-2.734-2.143-4.586-4.682-4.586C344.92,6.603,342.938,8.53,342.76,11.188z"/>
	<path class="st1" d="M360.906,11.119h6.211v0.625h-6.211V11.119z"/>
	<path class="st1" d="M382.078,10.892L385.732,17h-0.744l-3.631-6.076h-4.297V17h-0.654V2.997h5.086
		c2.461,0,4.256,1.665,4.256,3.976C385.748,9.072,384.232,10.648,382.078,10.892z M377.061,10.294h4.406
		c2.125,0,3.615-1.4,3.615-3.326c0-1.936-1.504-3.341-3.615-3.341h-4.406V10.294z"/>
	<path class="st1" d="M388.631,2.682h0.941v1.115h-0.941V2.682z M388.781,6.197h0.641V17h-0.641V6.197z"/>
	<path class="st1" d="M392.346,14.06h0.631c0.17,1.615,1.461,2.545,3.5,2.545c2.061,0,3.426-0.97,3.426-2.465
		c0-1.871-1.76-2.201-3.541-2.501c-1.869-0.32-3.801-0.655-3.801-2.775c0-1.716,1.551-2.876,3.832-2.876
		c2.295,0,3.756,1.155,3.859,3.021h-0.613c-0.105-1.524-1.301-2.43-3.256-2.43c-1.926,0-3.197,0.91-3.197,2.271
		c0,1.62,1.561,1.88,3.322,2.175c1.891,0.315,4.029,0.7,4.029,3.096c0,1.86-1.629,3.091-4.074,3.091
		C394.031,17.21,392.516,16.02,392.346,14.06z"/>
	<path class="st1" d="M406.193,11.664h-2.021V17h-0.641V2.382h0.641v8.677h2.031l4.221-4.861h0.799l-4.477,5.167L411.623,17h-0.814
		L406.193,11.664z"/>
	<path class="st1" d="M436.262,2.997L431.77,17h-0.539l-4.479-12.115L422.348,17h-0.539l-4.592-14.003h0.701l4.178,12.854
		l4.479-12.329h0.34l4.561,12.332l4.092-12.857H436.262z"/>
	<path class="st1" d="M448.395,6.198V17h-0.561l-0.07-2.82c-0.865,1.828-2.668,3.03-4.93,3.03c-3.141,0-5.512-2.42-5.512-5.611
		c0-3.195,2.371-5.61,5.512-5.61c2.264,0,4.066,1.202,4.932,3.032l0.084-2.823L448.395,6.198z M447.744,11.599
		c0-2.88-2.055-4.985-4.877-4.985c-2.789,0-4.895,2.155-4.895,4.985c0,2.846,2.105,4.986,4.895,4.986
		C445.689,16.585,447.744,14.479,447.744,11.599z"/>
	<path class="st1" d="M457.699,6.168v0.615h-0.971c-2.256,0-3.766,1.745-3.766,4.136V17h-0.641V6.197h0.506l0.104,2.447
		c0.672-1.516,2.012-2.477,3.836-2.477H457.699z"/>
	<path class="st1" d="M469.01,10.608V17h-0.641v-6.281c0-2.575-1.4-4.131-3.717-4.131c-2.205,0-4.09,1.896-4.09,4.121V17h-0.641
		V6.197h0.506l0.113,2.491c0.736-1.593,2.373-2.701,4.232-2.701C467.379,5.987,469.01,7.823,469.01,10.608z"/>
	<path class="st1" d="M472.592,2.682h0.941v1.115h-0.941V2.682z M472.742,6.197h0.641V17h-0.641V6.197z"/>
	<path class="st1" d="M486.41,10.608V17h-0.641v-6.281c0-2.575-1.4-4.131-3.717-4.131c-2.205,0-4.09,1.896-4.09,4.121V17h-0.641
		V6.197h0.506l0.113,2.491c0.736-1.593,2.373-2.701,4.232-2.701C484.779,5.987,486.41,7.823,486.41,10.608z"/>
	<path class="st1" d="M499.74,6.197v9.212c0,3.496-1.932,5.616-5.111,5.616c-2.41,0-4.117-1.22-4.787-3.3h0.641
		c0.641,1.735,2.16,2.7,4.146,2.7c2.77,0,4.48-1.846,4.48-4.956v-1.646c-0.85,1.697-2.564,2.792-4.65,2.792
		c-2.986,0-5.262-2.291-5.262-5.312c0-3.006,2.291-5.316,5.262-5.316c2.119,0,3.869,1.162,4.703,2.924l0.092-2.714H499.74z
		 M499.104,11.304c0-2.695-1.955-4.696-4.596-4.696c-2.654,0-4.66,2.036-4.66,4.696c0,2.671,2.006,4.691,4.66,4.691
		C497.164,15.995,499.104,14.01,499.104,11.304z"/>
	<path class="st1" d="M508.828,11.119h6.211v0.625h-6.211V11.119z"/>
	<path class="st1" d="M523.227,12.884h0.666c0,2.206,1.695,3.636,4.246,3.636c2.326,0,3.955-1.33,3.955-3.29
		c0-2.221-1.965-2.646-4.061-3.111c-2.176-0.475-4.5-0.995-4.5-3.591c0-2.245,1.775-3.695,4.5-3.695
		c2.641,0,4.361,1.545,4.361,3.896h-0.65c0-1.98-1.496-3.261-3.721-3.261c-2.311,0-3.836,1.195-3.836,3.041
		c0,2.12,1.98,2.546,4.041,2.995c2.215,0.495,4.535,1.021,4.535,3.722c0,2.38-1.924,3.94-4.621,3.94
		C525.193,17.165,523.227,15.47,523.227,12.884z"/>
	<path class="st1" d="M535.592,12.469V6.197h0.641v6.196c0,2.586,1.5,4.191,3.912,4.191c2.414,0,3.91-1.61,3.91-4.191V6.197h0.641
		v6.271c0,2.886-1.762,4.741-4.551,4.741C537.357,17.21,535.592,15.354,535.592,12.469z"/>
	<path class="st1" d="M558.02,6.197v9.212c0,3.496-1.93,5.616-5.111,5.616c-2.41,0-4.115-1.22-4.785-3.3h0.641
		c0.639,1.735,2.16,2.7,4.145,2.7c2.771,0,4.48-1.846,4.48-4.956v-1.646c-0.848,1.697-2.563,2.792-4.65,2.792
		c-2.984,0-5.262-2.291-5.262-5.312c0-3.006,2.291-5.316,5.262-5.316c2.119,0,3.871,1.162,4.703,2.924l0.094-2.714H558.02z
		 M557.385,11.304c0-2.695-1.955-4.696-4.596-4.696c-2.656,0-4.662,2.036-4.662,4.696c0,2.671,2.006,4.691,4.662,4.691
		C555.443,15.995,557.385,14.01,557.385,11.304z"/>
	<path class="st1" d="M571.539,6.197v9.212c0,3.496-1.93,5.616-5.111,5.616c-2.41,0-4.115-1.22-4.785-3.3h0.641
		c0.639,1.735,2.16,2.7,4.145,2.7c2.771,0,4.48-1.846,4.48-4.956v-1.646c-0.848,1.697-2.563,2.792-4.65,2.792
		c-2.984,0-5.262-2.291-5.262-5.312c0-3.006,2.291-5.316,5.262-5.316c2.119,0,3.871,1.162,4.703,2.924l0.094-2.714H571.539z
		 M570.904,11.304c0-2.695-1.955-4.696-4.596-4.696c-2.656,0-4.662,2.036-4.662,4.696c0,2.671,2.006,4.691,4.662,4.691
		C568.963,15.995,570.904,14.01,570.904,11.304z"/>
	<path class="st1" d="M585.234,11.794H575.15c0.098,2.764,2.109,4.786,4.783,4.786c1.904,0,3.426-0.99,4.291-2.661h0.68
		c-1.02,2.136-2.762,3.291-4.971,3.291c-3.082,0-5.416-2.421-5.416-5.626c0-3.176,2.334-5.597,5.416-5.597
		c3.105,0,5.311,2.421,5.311,5.536C585.244,11.608,585.238,11.709,585.234,11.794z M575.16,11.188h9.453
		c-0.164-2.734-2.143-4.586-4.68-4.586C577.32,6.603,575.34,8.53,575.16,11.188z"/>
	<path class="st1" d="M587.127,14.06h0.629c0.17,1.615,1.461,2.545,3.502,2.545c2.061,0,3.426-0.97,3.426-2.465
		c0-1.871-1.762-2.201-3.541-2.501c-1.871-0.32-3.801-0.655-3.801-2.775c0-1.716,1.551-2.876,3.83-2.876
		c2.297,0,3.756,1.155,3.861,3.021h-0.615c-0.105-1.524-1.301-2.43-3.256-2.43c-1.926,0-3.195,0.91-3.195,2.271
		c0,1.62,1.561,1.88,3.32,2.175c1.891,0.315,4.031,0.7,4.031,3.096c0,1.86-1.631,3.091-4.076,3.091
		C588.813,17.21,587.297,16.02,587.127,14.06z"/>
	<path class="st1" d="M603.559,16.395v0.61h-1.416c-2.01,0-3.234-1.24-3.234-3.285V6.783h-2.492V6.218h2.492V3.022h0.639v3.195
		h3.922v0.565h-3.922v6.911c0,1.705,0.965,2.7,2.65,2.7H603.559z"/>
	<path class="st1" d="M605.672,2.682h0.941v1.115h-0.941V2.682z M605.822,6.197h0.641V17h-0.641V6.197z"/>
	<path class="st1" d="M609.441,11.599c0-3.23,2.416-5.611,5.621-5.611c3.221,0,5.623,2.4,5.623,5.611s-2.402,5.611-5.623,5.611
		C611.857,17.21,609.441,14.81,609.441,11.599z M620.035,11.599c0-2.855-2.115-4.986-4.973-4.986c-2.855,0-4.971,2.116-4.971,4.986
		c0,2.855,2.131,4.986,4.971,4.986C617.92,16.585,620.035,14.454,620.035,11.599z"/>
	<path class="st1" d="M632.75,10.608V17h-0.641v-6.281c0-2.575-1.4-4.131-3.717-4.131c-2.205,0-4.09,1.896-4.09,4.121V17h-0.641
		V6.197h0.506l0.113,2.491c0.736-1.593,2.373-2.701,4.232-2.701C631.119,5.987,632.75,7.823,632.75,10.608z"/>
</g>
<g>
	<rect x="0" y="30.264" class="st0" width="611.969" height="70.496"/>
	<path class="st2" d="M1.105,37.894c0-4.187,2.976-7.222,7.137-7.222c3.08,0,5.491,1.69,6.451,4.421h-0.68
		c-0.931-2.355-3.051-3.775-5.771-3.775c-3.761,0-6.472,2.745-6.472,6.576s2.695,6.546,6.472,6.546c2.796,0,4.966-1.5,5.891-4.021
		h0.666c-0.945,2.9-3.401,4.666-6.557,4.666C4.066,45.085,1.105,42.079,1.105,37.894z"/>
	<path class="st2" d="M16.565,39.479c0-3.23,2.416-5.611,5.621-5.611c3.221,0,5.621,2.4,5.621,5.611s-2.4,5.611-5.621,5.611
		C18.981,45.09,16.565,42.689,16.565,39.479z M27.158,39.479c0-2.855-2.116-4.986-4.972-4.986s-4.971,2.116-4.971,4.986
		c0,2.855,2.13,4.986,4.971,4.986C25.042,44.465,27.158,42.334,27.158,39.479z"/>
	<path class="st2" d="M41.822,39.479c0,3.19-2.28,5.611-5.485,5.611c-2.2,0-4.021-1.19-4.911-3.003v6.608h-0.641V34.077h0.495
		l0.128,2.828c0.884-1.833,2.714-3.038,4.929-3.038C39.542,33.867,41.822,36.283,41.822,39.479z M41.178,39.479
		c0-2.881-2.056-4.986-4.876-4.986c-2.791,0-4.896,2.141-4.896,4.986c0,2.831,2.105,4.986,4.896,4.986
		C39.122,44.465,41.178,42.359,41.178,39.479z"/>
	<path class="st2" d="M53.553,34.077L48.046,45.83c-1.045,2.24-1.98,2.865-3.7,2.865H43.5v-0.595h0.806
		c1.485,0,2.221-0.455,3.155-2.445l0.653-1.376L43.07,34.077h0.71l4.672,9.485l4.415-9.485H53.553z"/>
	<path class="st2" d="M61.382,34.048v0.615h-0.971c-2.255,0-3.766,1.745-3.766,4.136v6.081h-0.64V34.077h0.505l0.104,2.447
		c0.672-1.516,2.012-2.477,3.836-2.477H61.382z"/>
	<path class="st2" d="M63.455,30.562h0.94v1.115h-0.94V30.562z M63.605,34.077h0.64V44.88h-0.64V34.077z"/>
	<path class="st2" d="M77.782,34.077v9.212c0,3.496-1.931,5.616-5.111,5.616c-2.41,0-4.116-1.22-4.786-3.3h0.641
		c0.64,1.735,2.16,2.7,4.146,2.7c2.771,0,4.481-1.846,4.481-4.956v-1.646c-0.85,1.697-2.564,2.792-4.651,2.792
		c-2.985,0-5.261-2.291-5.261-5.312c0-3.006,2.29-5.316,5.261-5.316c2.119,0,3.87,1.162,4.703,2.924l0.093-2.714H77.782z
		 M77.146,39.184c0-2.695-1.955-4.696-4.596-4.696c-2.655,0-4.661,2.036-4.661,4.696c0,2.671,2.006,4.691,4.661,4.691
		S77.146,41.89,77.146,39.184z"/>
	<path class="st2" d="M90.792,38.488v6.392h-0.641v-6.281c0-2.575-1.4-4.131-3.716-4.131c-2.205,0-4.091,1.896-4.091,4.121v6.291
		h-0.64V30.262h0.64v6.26c0.747-1.567,2.371-2.654,4.211-2.654C89.161,33.867,90.792,35.658,90.792,38.488z"/>
	<path class="st2" d="M99.78,44.274v0.61h-1.415c-2.011,0-3.235-1.24-3.235-3.285v-6.937h-2.491v-0.565h2.491v-3.195h0.64v3.195
		h3.921v0.565H95.77v6.911c0,1.705,0.965,2.7,2.65,2.7H99.78z"/>
	<path class="st2" d="M115.086,44.274v0.605h-8.606v-0.35c6.557-6.493,7.257-7.692,7.257-9.628c0-1.75-1.23-2.931-3.086-2.931
		c-1.886,0-3.186,1.216-3.186,2.937v0.364h-0.625v-0.364c0-2.121,1.604-3.541,3.811-3.541c2.205,0,3.716,1.436,3.716,3.535
		c0,2.02-0.722,3.344-6.766,9.372H115.086z"/>
	<path class="st2" d="M117.042,38.228c0-4.234,1.895-6.858,4.914-6.858c3.014,0,4.908,2.624,4.908,6.858
		c0,4.217-1.899,6.862-4.908,6.862C118.941,45.09,117.042,42.444,117.042,38.228z M126.234,38.228c0-3.877-1.641-6.253-4.278-6.253
		c-2.644,0-4.284,2.376-4.284,6.253c0,3.872,1.641,6.257,4.284,6.257C124.589,44.484,126.234,42.1,126.234,38.228z"/>
	<path class="st2" d="M129.302,38.228c0-4.234,1.895-6.858,4.914-6.858c3.014,0,4.908,2.624,4.908,6.858
		c0,4.217-1.899,6.862-4.908,6.862C131.201,45.09,129.302,42.444,129.302,38.228z M138.494,38.228c0-3.877-1.641-6.253-4.278-6.253
		c-2.644,0-4.284,2.376-4.284,6.253c0,3.872,1.641,6.257,4.284,6.257C136.849,44.484,138.494,42.1,138.494,38.228z"/>
	<path class="st2" d="M150.221,41.859h-1.675v3.021h-0.615v-3.021h-7.182v-0.28l4.956-10.077h0.66l-4.799,9.782h6.364v-4.931h0.615
		v4.931h1.675V41.859z"/>
	<path class="st2" d="M152.289,38.999h6.211v0.625h-6.211V38.999z"/>
	<path class="st2" d="M168.825,44.274v0.605h-8.606v-0.35c6.557-6.493,7.257-7.692,7.257-9.628c0-1.75-1.23-2.931-3.086-2.931
		c-1.886,0-3.186,1.216-3.186,2.937v0.364h-0.625v-0.364c0-2.121,1.604-3.541,3.811-3.541c2.205,0,3.716,1.436,3.716,3.535
		c0,2.02-0.722,3.344-6.766,9.372H168.825z"/>
	<path class="st2" d="M170.781,38.228c0-4.234,1.895-6.858,4.914-6.858c3.014,0,4.908,2.624,4.908,6.858
		c0,4.217-1.899,6.862-4.908,6.862C172.681,45.09,170.781,42.444,170.781,38.228z M179.974,38.228c0-3.877-1.641-6.253-4.278-6.253
		c-2.644,0-4.284,2.376-4.284,6.253c0,3.872,1.641,6.257,4.284,6.257C178.328,44.484,179.974,42.1,179.974,38.228z"/>
	<path class="st2" d="M185.404,31.577V44.88h-0.62V32.167h-2.95v-0.59H185.404z"/>
	<path class="st2" d="M194.868,37.688c1.682,0.476,2.747,1.822,2.747,3.588c0,2.26-1.818,3.815-4.466,3.815
		c-2.657,0-4.461-1.541-4.461-3.815c0-1.755,1.065-3.099,2.753-3.588c-1.322-0.468-2.162-1.615-2.162-3.063
		c0-1.935,1.568-3.253,3.87-3.253s3.864,1.313,3.864,3.253C197.014,36.083,196.175,37.237,194.868,37.688L194.868,37.688z
		 M196.985,41.291c0-2.065-1.62-3.303-3.836-3.303c-2.211,0-3.831,1.237-3.831,3.303c0,1.913,1.535,3.226,3.831,3.226
		C195.45,44.517,196.985,43.204,196.985,41.291z M193.149,37.427c1.861,0,3.245-1.064,3.245-2.801c0-1.6-1.297-2.693-3.245-2.693
		c-1.953,0-3.25,1.094-3.25,2.693C189.899,36.362,191.282,37.427,193.149,37.427z"/>
	<path class="st2" d="M214.025,44.255v0.625h-7.497V30.877h0.655v13.378H214.025z"/>
	<path class="st2" d="M217.264,31.507v6.017h6.281v0.62h-6.281v6.736h-0.655V30.877h7.457v0.63H217.264z"/>
	<path class="st2" d="M239.517,38.313c-0.141,3.986-2.961,6.746-6.872,6.746c-4.105,0-6.986-3.03-6.986-7.166
		c0-4.146,2.971-7.191,6.977-7.191c3.275,0,6.041,2.061,6.646,4.926h-0.67c-0.601-2.501-3.065-4.281-5.967-4.281
		c-3.65,0-6.321,2.761-6.321,6.547c0,3.825,2.61,6.521,6.321,6.521c3.37,0,5.842-2.222,6.175-5.472h-6.85v-0.63H239.517z"/>
	<path class="st2" d="M256.176,40.824h-7.707l-1.73,4.056h-0.7l5.941-14.003h0.565l6.101,14.003h-0.71L256.176,40.824z
		 M248.725,40.209h7.19l-3.643-8.382L248.725,40.209z"/>
	<path class="st2" d="M261.104,30.262h0.64V44.88h-0.64V30.262z"/>
	<path class="st2" d="M265.684,30.262h0.64V44.88h-0.64V30.262z"/>
	<path class="st2" d="M281.74,38.771l3.655,6.108h-0.745l-3.631-6.076h-4.296v6.076h-0.655V30.877h5.086
		c2.461,0,4.256,1.665,4.256,3.976C285.41,36.952,283.896,38.528,281.74,38.771z M276.724,38.174h4.406
		c2.125,0,3.615-1.4,3.615-3.326c0-1.936-1.505-3.341-3.615-3.341h-4.406V38.174z"/>
	<path class="st2" d="M288.294,30.562h0.94v1.115h-0.94V30.562z M288.444,34.077h0.64V44.88h-0.64V34.077z"/>
	<path class="st2" d="M302.621,34.077v9.212c0,3.496-1.931,5.616-5.111,5.616c-2.41,0-4.116-1.22-4.786-3.3h0.641
		c0.64,1.735,2.16,2.7,4.146,2.7c2.771,0,4.48-1.846,4.48-4.956v-1.646c-0.849,1.697-2.563,2.792-4.65,2.792
		c-2.985,0-5.262-2.291-5.262-5.312c0-3.006,2.291-5.316,5.262-5.316c2.119,0,3.87,1.162,4.703,2.924l0.093-2.714H302.621z
		 M301.985,39.184c0-2.695-1.955-4.696-4.596-4.696c-2.655,0-4.661,2.036-4.661,4.696c0,2.671,2.006,4.691,4.661,4.691
		S301.985,41.89,301.985,39.184z"/>
	<path class="st2" d="M315.631,38.488v6.392h-0.641v-6.281c0-2.575-1.4-4.131-3.716-4.131c-2.205,0-4.091,1.896-4.091,4.121v6.291
		h-0.64V30.262h0.64v6.26c0.747-1.567,2.371-2.654,4.211-2.654C314,33.867,315.631,35.658,315.631,38.488z"/>
	<path class="st2" d="M324.62,44.274v0.61h-1.415c-2.011,0-3.235-1.24-3.235-3.285v-6.937h-2.491v-0.565h2.491v-3.195h0.64v3.195
		h3.921v0.565h-3.921v6.911c0,1.705,0.965,2.7,2.65,2.7H324.62z"/>
	<path class="st2" d="M325.869,41.939h0.63c0.17,1.615,1.461,2.545,3.501,2.545c2.061,0,3.426-0.97,3.426-2.465
		c0-1.871-1.761-2.201-3.541-2.501c-1.87-0.32-3.801-0.655-3.801-2.775c0-1.716,1.551-2.876,3.831-2.876
		c2.296,0,3.756,1.155,3.86,3.021h-0.614c-0.105-1.524-1.301-2.43-3.256-2.43c-1.926,0-3.196,0.91-3.196,2.271
		c0,1.62,1.561,1.88,3.321,2.175c1.891,0.315,4.03,0.7,4.03,3.096c0,1.86-1.63,3.091-4.075,3.091
		C327.555,45.09,326.039,43.899,325.869,41.939z"/>
	<path class="st2" d="M348.481,38.771l3.655,6.108h-0.745l-3.631-6.076h-4.296v6.076h-0.655V30.877h5.086
		c2.461,0,4.256,1.665,4.256,3.976C352.151,36.952,350.637,38.528,348.481,38.771z M343.465,38.174h4.406
		c2.125,0,3.615-1.4,3.615-3.326c0-1.936-1.505-3.341-3.615-3.341h-4.406V38.174z"/>
	<path class="st2" d="M364.837,39.674h-10.083c0.097,2.764,2.108,4.786,4.782,4.786c1.905,0,3.426-0.99,4.291-2.661h0.68
		c-1.02,2.136-2.761,3.291-4.971,3.291c-3.081,0-5.416-2.421-5.416-5.626c0-3.176,2.335-5.597,5.416-5.597
		c3.105,0,5.311,2.421,5.311,5.536C364.847,39.488,364.842,39.589,364.837,39.674z M354.764,39.068h9.453
		c-0.165-2.734-2.143-4.586-4.681-4.586C356.924,34.482,354.942,36.41,354.764,39.068z"/>
	<path class="st2" d="M366.729,41.939h0.63c0.17,1.615,1.461,2.545,3.501,2.545c2.061,0,3.426-0.97,3.426-2.465
		c0-1.871-1.761-2.201-3.541-2.501c-1.87-0.32-3.801-0.655-3.801-2.775c0-1.716,1.551-2.876,3.831-2.876
		c2.296,0,3.756,1.155,3.86,3.021h-0.614c-0.105-1.524-1.301-2.43-3.256-2.43c-1.926,0-3.196,0.91-3.196,2.271
		c0,1.62,1.561,1.88,3.321,2.175c1.891,0.315,4.03,0.7,4.03,3.096c0,1.86-1.63,3.091-4.075,3.091
		C368.415,45.09,366.899,43.899,366.729,41.939z"/>
	<path class="st2" d="M387.637,39.674h-10.083c0.097,2.764,2.108,4.786,4.782,4.786c1.905,0,3.426-0.99,4.291-2.661h0.68
		c-1.02,2.136-2.761,3.291-4.971,3.291c-3.081,0-5.416-2.421-5.416-5.626c0-3.176,2.335-5.597,5.416-5.597
		c3.105,0,5.311,2.421,5.311,5.536C387.646,39.488,387.642,39.589,387.637,39.674z M377.563,39.068h9.453
		c-0.165-2.734-2.143-4.586-4.681-4.586C379.724,34.482,377.742,36.41,377.563,39.068z"/>
	<path class="st2" d="M395.921,34.048v0.615h-0.971c-2.255,0-3.766,1.745-3.766,4.136v6.081h-0.64V34.077h0.505l0.104,2.447
		c0.672-1.516,2.012-2.477,3.836-2.477H395.921z"/>
	<path class="st2" d="M406.926,34.077L402.12,44.88h-0.54l-4.911-10.803h0.675l4.505,9.892l4.412-9.892H406.926z"/>
	<path class="st2" d="M418.937,39.674h-10.083c0.097,2.764,2.108,4.786,4.782,4.786c1.905,0,3.426-0.99,4.291-2.661h0.68
		c-1.02,2.136-2.761,3.291-4.971,3.291c-3.081,0-5.416-2.421-5.416-5.626c0-3.176,2.335-5.597,5.416-5.597
		c3.105,0,5.311,2.421,5.311,5.536C418.946,39.488,418.941,39.589,418.937,39.674z M408.863,39.068h9.453
		c-0.165-2.734-2.143-4.586-4.681-4.586C411.023,34.482,409.042,36.41,408.863,39.068z"/>
	<path class="st2" d="M431.916,30.262V44.88h-0.534l-0.091-2.754c-0.88,1.79-2.669,2.964-4.9,2.964
		c-3.156,0-5.507-2.421-5.507-5.611c0-3.195,2.351-5.611,5.507-5.611c2.22,0,4,1.158,4.886,2.932v-6.537H431.916z M431.307,39.479
		c0-2.876-2.061-4.986-4.881-4.986c-2.791,0-4.892,2.136-4.892,4.986c0,2.836,2.101,4.986,4.892,4.986
		C429.246,44.465,431.307,42.35,431.307,39.479z"/>
</g>
</svg>