<!-- Generator: Adobe Illustrator 21.0.0, SVG Export Plug-In  -->
<svg version="1.1"
	 xmlns="http://www.w3.org/2000/svg" xmlns:xlink="http://www.w3.org/1999/xlink" xmlns:a="http://ns.adobe.com/AdobeSVGViewerExtensions/3.0/"
	 x="0px" y="0px" width="249.98px" height="107.941px" viewBox="0 0 249.98 107.941"
	 style="enable-background:new 0 0 249.98 107.941;" xml:space="preserve">
<style type="text/css">
	.st0{fill:#FFFFFF;}
	.st1{fill:#ED1C24;}
</style>
<defs>
</defs>
<g>
	<path class="st0" d="M81.318,31.276c-1.831-2.735-4.183-5.354-6.889-7.226c-4.215-2.916-9.347-4.874-14.859-4.874H31.336
		c-14.422,0-26.233,12.188-26.233,26.61v28.233c0,14.422,11.811,25.808,26.233,25.808h28.233c14.422,0,26.185-11.386,26.185-25.808
		V45.786C85.754,40.417,84.097,35.426,81.318,31.276z M60.215,66.186c0,4.488-3.991,8.102-8.479,8.102H39.17
		c-0.307,0-0.609,0.013-0.907-0.022c-3.603-0.403-6.7-3.163-7.315-6.701c-0.08-0.454-0.304-0.904-0.304-1.379V53.619
		c0-4.488,4.039-8.904,8.527-8.904h12.566c0.475,0,1.178,0.088,1.632,0.168c3.538,0.615,6.423,4.042,6.826,7.645
		c0.034,0.299,0.021,0.784,0.021,1.091V66.186z"/>
	<g>
		<path class="st1" d="M60.169,52.337L38.262,74.295l-1.891,1.891c-1.27,1.27-3.347,1.27-4.617,0l-2.308-2.308
			c-1.27-1.27-1.27-3.347,0-4.615l24.305-24.301C57.29,45.578,59.766,48.734,60.169,52.337z"/>
		<path class="st1" d="M104.68,7.877L81.281,31.276c-1.831-2.735-4.011-5.259-6.717-7.131L97.758,0.952
			c1.268-1.27,3.346-1.27,4.615,0l2.308,2.308C105.95,4.53,105.95,6.607,104.68,7.877z"/>
		<path class="st1" d="M88.984,26.073c0.515,0.515,0.515,1.358,0,1.873l-1.477,1.477c-0.515,0.515-1.358,0.515-1.873,0L76.34,20.13
			c-0.515-0.515-0.515-1.358,0-1.873l1.477-1.477c0.515-0.515,1.358-0.515,1.873,0L88.984,26.073z"/>
		<path class="st1" d="M110.335,26.866c1.03,1.03,1.03,2.716,0,3.746l-2.21,2.21c-1.03,1.03-2.716,1.03-3.746,0L87.234,15.679
			c-1.03-1.03-1.03-2.716,0-3.746l2.21-2.21c1.03-1.03,2.716-1.03,3.746,0L110.335,26.866z"/>
		<path class="st1" d="M105.362,7.776c0.515,0.515,0.515,1.358,0,1.873l-0.901,0.901c-0.515,0.515-1.358,0.515-1.873,0l-7.375-7.375
			c-0.515-0.515-0.515-1.358,0-1.873l0.901-0.901c0.515-0.515,1.358-0.515,1.873,0L105.362,7.776z"/>
		<path class="st1" d="M34.164,71.371c-4.274-4.261-11.197-4.274-15.485,0c-4.275-4.274-11.197-4.261-15.472,0
			c-4.275,4.275-4.275,11.197-0.013,15.485c-4.261,4.275-4.261,11.197,0.013,15.472c4.275,4.274,11.197,4.274,15.472,0.013
			c4.288,4.261,11.211,4.261,15.485-0.013s4.275-11.197,0-15.472C38.439,82.568,38.439,75.645,34.164,71.371z M24.499,87.138
			c1.532,1.519,1.532,4.006,0,5.538c-1.519,1.532-4.006,1.532-5.538,0c-0.094-0.108-0.188-0.215-0.282-0.323
			c-0.081,0.107-0.175,0.215-0.282,0.323c-1.519,1.532-4.006,1.532-5.538,0c-1.519-1.532-1.519-4.019,0-5.538
			c0.107-0.108,0.215-0.202,0.323-0.282c-0.108-0.094-0.215-0.188-0.323-0.282c-1.519-1.532-1.519-4.019,0-5.538
			c1.532-1.532,4.019-1.532,5.538,0c0.107,0.094,0.202,0.202,0.282,0.309c0.094-0.108,0.188-0.215,0.282-0.309
			c1.532-1.532,4.019-1.532,5.538,0c1.532,1.519,1.532,4.006,0,5.538c-0.094,0.094-0.202,0.188-0.309,0.282
			C24.298,86.936,24.405,87.031,24.499,87.138z"/>
	</g>
	<path class="st0" d="M28.868,87.35c2.684,2.66,2.684,7.015,0,9.698c-2.66,2.684-7.015,2.684-9.698,0
		c-0.165-0.188-0.33-0.377-0.494-0.565c-0.141,0.188-0.306,0.377-0.494,0.565c-2.66,2.684-7.015,2.684-9.698,0
		c-2.66-2.684-2.66-7.038,0-9.698c0.188-0.188,0.377-0.353,0.565-0.494c-0.188-0.165-0.377-0.33-0.565-0.494
		c-2.66-2.684-2.66-7.039,0-9.699c2.683-2.683,7.038-2.683,9.698,0c0.188,0.165,0.353,0.353,0.494,0.542
		c0.165-0.188,0.33-0.377,0.494-0.542c2.684-2.683,7.038-2.683,9.698,0c2.684,2.66,2.684,7.015,0,9.699
		c-0.165,0.165-0.353,0.329-0.541,0.494C28.515,86.997,28.703,87.162,28.868,87.35z"/>
	<g>
		<path class="st0" d="M145.82,72.147v12.835h-32.308V34.106h14.202v38.041H145.82z"/>
		<path class="st0" d="M169.88,46.788v8.098h16.349v12.268H169.88v17.828h-14.14V34.106h32.378v12.682H169.88z"/>
		<path class="st0" d="M249.98,57.792c0,16.649-10.869,28.476-26.801,28.476c-15.588,0-27.103-11.203-27.103-26.682
			c0-15.479,11.306-26.766,26.978-26.766c13.336,0,24.244,8.345,26.396,20.168h-14.688c-1.841-4.286-6.394-7.041-11.582-7.041
			c-7.621,0-12.757,5.511-12.757,13.64c0,8.046,5.052,13.556,12.757,13.556c5.349,0,9.936-2.589,11.535-6.512H222.08v-8.837
			L249.98,57.792z"/>
	</g>
	<g>
		<path class="st0" d="M121.847,101.439v3.374h-8.492V91.44h3.733v9.999H121.847z"/>
		<path class="st0" d="M127.213,94.774v2.128h4.297v3.225h-4.297v4.686h-3.716V91.44h8.51v3.333H127.213z"/>
		<path class="st0" d="M147.309,97.666c0,4.376-2.857,7.484-7.045,7.484c-4.097,0-7.124-2.945-7.124-7.013
			c0-4.069,2.972-7.036,7.091-7.036c3.505,0,6.373,2.193,6.938,5.301h-3.86c-0.484-1.127-1.681-1.851-3.044-1.851
			c-2.003,0-3.353,1.448-3.353,3.585c0,2.115,1.328,3.563,3.353,3.563c1.406,0,2.611-0.68,3.032-1.711h-3.321v-2.323L147.309,97.666
			z"/>
		<path class="st0" d="M152.703,98.776c0-3.517,1.051-6.693,2.77-9.203h3.789c-1.395,1.787-3.114,5.219-3.114,9.203
			c0,3.964,1.662,7.397,3.075,9.165h-3.751C153.754,105.45,152.703,102.274,152.703,98.776z"/>
		<path class="st0" d="M168.355,102.641h-4.74l-0.741,2.172h-3.948l5.253-13.372h3.601l5.368,13.372h-4.057L168.355,102.641z
			 M165.978,95.614l-1.465,4.143h2.944L165.978,95.614z"/>
		<path class="st0" d="M173.229,100.495h3.801c0,0.955,0.737,1.42,1.577,1.42c0.772,0,1.509-0.411,1.509-1.141
			c0-0.839-1.041-1.082-2.314-1.391c-1.933-0.481-4.4-1.073-4.4-4.117c0-2.633,1.935-4.142,5.088-4.142
			c3.206,0,5.045,1.646,5.045,4.367h-3.694c0-0.846-0.631-1.243-1.394-1.243c-0.656,0-1.287,0.284-1.287,0.909
			c0,0.759,1.008,1.011,2.267,1.327c1.968,0.508,4.542,1.165,4.542,4.219c0,2.921-2.245,4.437-5.35,4.437
			C175.344,105.14,173.229,103.409,173.229,100.495z"/>
		<path class="st0" d="M185.893,91.44h3.733v13.372h-3.733V91.44z"/>
		<path class="st0" d="M200.346,102.641h-4.74l-0.741,2.172h-3.948l5.253-13.372h3.601l5.368,13.372h-4.057L200.346,102.641z
			 M197.969,95.614l-1.465,4.143h2.944L197.969,95.614z"/>
		<path class="st0" d="M204.864,107.941c1.414-1.768,3.076-5.201,3.076-9.165c0-3.984-1.72-7.416-3.114-9.203h3.789
			c1.72,2.51,2.77,5.686,2.77,9.203c0,3.497-1.051,6.673-2.77,9.165H204.864z"/>
		<path class="st0" d="M225.993,101.439v3.374h-8.492V91.44h3.733v9.999H225.993z"/>
		<path class="st0" d="M236.008,94.758h-3.633v10.055h-3.7V94.758h-3.633V91.44h10.965V94.758z"/>
		<path class="st0" d="M249.965,98.115c0,3.902-2.866,6.697-6.904,6.697h-5.412V91.44h5.412
			C247.11,91.44,249.965,94.208,249.965,98.115z M246.188,98.115c0-1.984-1.32-3.301-3.3-3.301h-1.538v6.625h1.538
			C244.868,101.439,246.188,100.088,246.188,98.115z"/>
	</g>
</g>
</svg>