<!-- Generator: Adobe Illustrator 21.0.0, SVG Export Plug-In  -->
<svg version="1.1"
	 xmlns="http://www.w3.org/2000/svg" xmlns:xlink="http://www.w3.org/1999/xlink" xmlns:a="http://ns.adobe.com/AdobeSVGViewerExtensions/3.0/"
	 x="0px" y="0px" width="1161px" height="387px" viewBox="0 0 1161 387" style="enable-background:new 0 0 1161 387;"
	 xml:space="preserve">
<style type="text/css">
	.st0{fill:#FFFFFF;stroke:#ED1C24;stroke-width:4;stroke-miterlimit:10;}
	.st1{fill:none;}
	.st2{font-family:'Mont-HeavyDEMO';}
	.st3{font-size:36px;}
	.st4{letter-spacing:12;}
	.st5{letter-spacing:2;}
	.st6{letter-spacing:-2;}
	.st7{letter-spacing:1;}
	.st8{letter-spacing:-1;}
	.st9{letter-spacing:6;}
	.st10{letter-spacing:5;}
</style>
<defs>
</defs>
<rect x="2" y="2" class="st0" width="1157" height="383"/>
<g>
	<rect x="89.132" y="50" class="st1" width="983.737" height="320.87"/>
	<path d="M110.463,57.513h-6.845v18.946h-6.972V57.513h-6.845v-6.25h20.662V57.513z"/>
	<path d="M132.34,64.754v11.705h-6.695V65.532c0-2.241-0.788-3.385-2.535-3.385c-2.026,0-3.289,1.438-3.289,3.933v10.379h-6.695
		V50.003h6.695v8.298c1.431-1.152,3.251-1.854,5.189-1.854C129.472,56.447,132.34,59.717,132.34,64.754z"/>
	<path d="M156.374,66.557c0,0.586-0.051,1.172-0.138,1.773h-14.433c0.438,2.229,1.854,3.382,3.968,3.382
		c1.564,0,2.871-0.685,3.514-1.823h6.662c-1.368,4.437-5.3,7.209-10.176,7.209c-6.065,0-10.558-4.434-10.558-10.371
		c0-5.959,4.457-10.342,10.558-10.342C152.036,56.385,156.375,60.855,156.374,66.557L156.374,66.557z M141.921,64.622h7.857
		c-0.587-1.942-1.987-2.991-4.008-2.991C143.819,61.631,142.462,62.691,141.921,64.622z"/>
	<path d="M186.858,57.543v4.012h8.097v6.075h-8.097v8.829h-7.003V51.263h16.036v6.28H186.858z"/>
	<path d="M199.074,57.021h6.695v19.438h-6.695V57.021z M199.125,48.907h6.592v5.683h-6.592V48.907z"/>
	<path d="M229.196,64.607v11.852H222.5V65.532c0-2.263-0.85-3.385-2.535-3.385c-2.088,0-3.289,1.458-3.289,3.933v10.379h-6.695
		V57.021h4.697l0.919,2.005c1.448-1.612,3.605-2.579,6.119-2.579C226.231,56.447,229.196,59.654,229.196,64.607z"/>
	<path d="M253.891,57.002v19.438h-5.176l-0.573-1.375c-1.592,1.289-3.607,2.032-5.865,2.032c-5.943,0-10.192-4.336-10.192-10.377
		c0-6.021,4.249-10.304,10.192-10.304c2.29,0,4.334,0.764,5.939,2.088l0.685-1.503L253.891,57.002z M247.523,66.735
		c0-2.522-1.844-4.418-4.352-4.418c-2.523,0-4.351,1.896-4.351,4.418c0,2.538,1.843,4.433,4.351,4.433
		S247.523,69.273,247.523,66.735z"/>
	<path d="M277.327,64.607v11.852h-6.695V65.532c0-2.263-0.85-3.385-2.535-3.385c-2.088,0-3.289,1.458-3.289,3.933v10.379h-6.695
		V57.021h4.697l0.919,2.005c1.448-1.612,3.605-2.579,6.119-2.579C274.362,56.447,277.327,59.654,277.327,64.607z"/>
	<path d="M290.95,77.096c-6.234,0-10.733-4.367-10.733-10.382s4.479-10.299,10.754-10.299c5.462,0,9.56,3.444,10.292,8.614h-6.522
		c-0.563-1.586-2.045-2.615-3.791-2.615c-2.353,0-4.027,1.788-4.027,4.32c0,2.533,1.695,4.362,4.027,4.362
		c1.796,0,3.252-1.101,3.806-2.835h6.578C300.576,73.539,296.423,77.097,290.95,77.096L290.95,77.096z"/>
	<path d="M304.229,57.021h6.695v19.438h-6.695V57.021z M304.28,48.907h6.592v5.683h-6.592V48.907z"/>
	<path d="M335.826,57.002v19.438h-5.176l-0.573-1.375c-1.592,1.289-3.607,2.032-5.865,2.032c-5.943,0-10.192-4.336-10.192-10.377
		c0-6.021,4.249-10.304,10.192-10.304c2.29,0,4.334,0.764,5.939,2.088l0.685-1.503L335.826,57.002z M329.458,66.735
		c0-2.522-1.844-4.418-4.352-4.418c-2.523,0-4.351,1.896-4.351,4.418c0,2.538,1.843,4.433,4.351,4.433
		S329.458,69.273,329.458,66.735z"/>
	<path d="M340.047,50.003h6.695v26.456h-6.695V50.003z"/>
	<path d="M399.976,57.021l-6.192,19.438h-5.396l-3.846-8.706l-3.761,8.706h-5.396l-6.346-19.438h7.011l2.943,10.207l4.595-10.145
		h1.808l4.845,10.238l2.898-10.301H399.976z"/>
	<path d="M400.564,66.74c0-6.025,4.561-10.355,10.898-10.355c6.317,0,10.898,4.33,10.898,10.355c0,6.006-4.581,10.356-10.898,10.356
		C405.125,77.097,400.564,72.746,400.564,66.74z M415.654,66.741c0-2.554-1.75-4.341-4.192-4.341s-4.192,1.771-4.192,4.341
		s1.75,4.341,4.192,4.341S415.654,69.311,415.654,66.741z"/>
	<path d="M438.114,56.93v6.127h-2.599c-2.371,0-3.363,1.039-3.363,3.519v9.884h-6.695V57.021h4.485l1.045,2.158
		c1.371-1.586,3.041-2.25,5.354-2.25H438.114z"/>
	<path d="M440.648,50.003h6.695v26.456h-6.695V50.003z"/>
	<path d="M472.085,50.003v26.456h-4.955l-0.631-1.443c-1.582,1.332-3.599,2.102-5.863,2.102c-5.964,0-10.213-4.336-10.213-10.377
		s4.249-10.355,10.213-10.355c1.795,0,3.437,0.484,4.83,1.35v-7.731H472.085z M465.883,66.741c0-2.538-1.843-4.448-4.351-4.448
		s-4.351,1.91-4.351,4.448s1.843,4.448,4.351,4.448S465.883,69.279,465.883,66.741z"/>
	<path d="M496.394,57.021h6.695v19.438h-6.695V57.021z M496.445,48.907h6.592v5.683h-6.592V48.907z"/>
	<path d="M514.8,77.096c-5.298,0-8.518-2.797-8.579-7.009h6.444c0,1.421,0.99,2.075,2.259,2.075c0.979,0,1.908-0.499,1.908-1.504
		c0-1.121-1.472-1.44-3.339-1.75c-3.014-0.488-7.009-1.397-7.009-6.111c0-3.896,3.32-6.412,8.3-6.412
		c4.95,0,8.158,2.633,8.234,6.572h-6.27c0-1.242-0.834-1.818-2.047-1.818c-1.073,0-1.794,0.531-1.794,1.432
		c0,1.106,1.487,1.363,3.333,1.693c3.071,0.545,7.153,1.184,7.153,6.113C523.394,74.438,519.965,77.097,514.8,77.096L514.8,77.096z"
		/>
	<path d="M559.288,56.93v6.127h-2.6c-2.37,0-3.363,1.039-3.363,3.519v9.884h-6.695V57.021h4.485l1.045,2.158
		c1.371-1.586,3.041-2.25,5.354-2.25H559.288z"/>
	<path d="M582.188,57.002v19.438h-5.176l-0.573-1.375c-1.592,1.289-3.607,2.032-5.865,2.032c-5.943,0-10.192-4.336-10.192-10.377
		c0-6.021,4.249-10.304,10.192-10.304c2.289,0,4.334,0.764,5.939,2.088l0.685-1.503L582.188,57.002z M575.82,66.735
		c0-2.522-1.843-4.418-4.351-4.418c-2.523,0-4.351,1.896-4.351,4.418c0,2.538,1.843,4.433,4.351,4.433S575.82,69.273,575.82,66.735z
		"/>
	<path d="M607.96,66.74c0,6.057-4.248,10.377-10.191,10.377c-1.758,0-3.367-0.463-4.739-1.291v7.652h-6.618V57.021h4.553
		l0.839,1.545c1.599-1.383,3.655-2.182,5.966-2.182C603.712,56.385,607.96,60.685,607.96,66.74z M601.224,66.74
		c0-2.553-1.844-4.448-4.352-4.448s-4.351,1.896-4.351,4.448c0,2.554,1.843,4.448,4.351,4.448
		C599.365,71.188,601.224,69.294,601.224,66.74z"/>
	<path d="M611.034,57.021h6.695v19.438h-6.695V57.021z M611.085,48.907h6.593v5.683h-6.593V48.907z"/>
	<path d="M642.472,50.003v26.456h-4.954l-0.632-1.443c-1.581,1.332-3.599,2.102-5.862,2.102c-5.965,0-10.214-4.336-10.214-10.377
		s4.249-10.355,10.214-10.355c1.794,0,3.437,0.484,4.829,1.35v-7.731H642.472z M636.27,66.741c0-2.538-1.843-4.448-4.351-4.448
		s-4.352,1.91-4.352,4.448s1.844,4.448,4.352,4.448S636.27,69.279,636.27,66.741z"/>
	<path d="M646.674,50.003h6.694v26.456h-6.694V50.003z"/>
	<path d="M677.904,57.021l-8.147,18.573c-2.62,5.948-5.028,8.098-10.047,8.098h-2.293v-5.753h1.842c2.561,0,3.333-0.667,4.24-3.086
		l-8.032-17.832h7.275l4.125,10.708l3.844-10.708H677.904z"/>
	<path d="M708.83,77.096c-6.233,0-10.732-4.367-10.732-10.382s4.479-10.299,10.753-10.299c5.463,0,9.56,3.444,10.292,8.614h-6.521
		c-0.563-1.586-2.046-2.615-3.791-2.615c-2.353,0-4.027,1.788-4.027,4.32c0,2.533,1.695,4.362,4.027,4.362
		c1.797,0,3.253-1.101,3.806-2.835h6.578C718.457,73.539,714.304,77.097,708.83,77.096L708.83,77.096z"/>
	<path d="M741.323,64.754v11.705h-6.695V65.532c0-2.241-0.788-3.385-2.535-3.385c-2.025,0-3.289,1.438-3.289,3.933v10.379h-6.694
		V50.003h6.694v8.298c1.432-1.152,3.252-1.854,5.189-1.854C738.455,56.447,741.323,59.717,741.323,64.754z"/>
	<path d="M766.019,57.002v19.438h-5.176l-0.573-1.375c-1.592,1.289-3.607,2.032-5.865,2.032c-5.943,0-10.192-4.336-10.192-10.377
		c0-6.021,4.249-10.304,10.192-10.304c2.289,0,4.334,0.764,5.939,2.088l0.685-1.503L766.019,57.002z M759.65,66.735
		c0-2.522-1.843-4.418-4.351-4.418c-2.523,0-4.352,1.896-4.352,4.418c0,2.538,1.844,4.433,4.352,4.433S759.65,69.273,759.65,66.735z
		"/>
	<path d="M789.454,64.607v11.852h-6.695V65.532c0-2.263-0.85-3.385-2.535-3.385c-2.088,0-3.289,1.458-3.289,3.933v10.379h-6.694
		V57.021h4.696l0.92,2.005c1.447-1.612,3.605-2.579,6.119-2.579C786.489,56.447,789.454,59.654,789.454,64.607z"/>
	<path d="M813.563,57.022v17.278c0,6.107-3.999,9.892-10.419,9.892c-5.516,0-9.377-2.781-10.271-7.388h6.461
		c0.463,1.299,2.122,1.999,3.749,1.999c2.243,0,4.046-1.426,4.046-3.737v-0.58c-1.461,0.928-3.195,1.459-5.072,1.459
		c-5.572,0-9.713-4.146-9.713-9.77c0-5.542,4.141-9.775,9.713-9.775c2.354,0,4.483,0.844,6.131,2.252l0.85-1.631L813.563,57.022z
		 M803.168,70.434c2.403,0,4.134-1.781,4.134-4.258c0-2.455-1.725-4.236-4.134-4.236c-2.404,0-4.15,1.781-4.15,4.236
		C799.018,68.652,800.742,70.434,803.168,70.434L803.168,70.434z"/>
	<path d="M817.796,57.021h6.695v19.438h-6.695V57.021z M817.847,48.907h6.593v5.683h-6.593V48.907z"/>
	<path d="M847.918,64.607v11.852h-6.695V65.532c0-2.263-0.85-3.385-2.535-3.385c-2.088,0-3.289,1.458-3.289,3.933v10.379h-6.694
		V57.021h4.696l0.92,2.005c1.447-1.612,3.605-2.579,6.119-2.579C844.953,56.447,847.918,59.654,847.918,64.607z"/>
	<path d="M872.026,57.022v17.278c0,6.107-3.999,9.892-10.419,9.892c-5.516,0-9.377-2.781-10.271-7.388h6.461
		c0.463,1.299,2.122,1.999,3.749,1.999c2.243,0,4.046-1.426,4.046-3.737v-0.58c-1.461,0.928-3.195,1.459-5.072,1.459
		c-5.572,0-9.713-4.146-9.713-9.77c0-5.542,4.141-9.775,9.713-9.775c2.354,0,4.483,0.844,6.131,2.252l0.85-1.631L872.026,57.022z
		 M861.632,70.434c2.403,0,4.134-1.781,4.134-4.258c0-2.455-1.725-4.236-4.134-4.236c-2.404,0-4.15,1.781-4.15,4.236
		C857.481,68.652,859.206,70.434,861.632,70.434L861.632,70.434z"/>
	<path d="M925.279,57.021l-6.192,19.438h-5.396l-3.846-8.706l-3.762,8.706h-5.396l-6.346-19.438h7.012l2.943,10.207l4.595-10.145
		h1.808l4.846,10.238l2.897-10.301H925.279z"/>
	<path d="M927.576,57.021h6.695v19.438h-6.695V57.021z M927.627,48.907h6.593v5.683h-6.593V48.907z"/>
	<path d="M951.593,70.596v5.863h-4.606c-4.299,0-6.911-2.627-6.911-6.947v-7.334h-3.558v-1.564l8.709-9.274h1.375v5.683h4.884v5.156
		h-4.715v6.186c0,1.393,0.84,2.232,2.253,2.232H951.593z"/>
	<path d="M973.934,64.754v11.705h-6.695V65.532c0-2.241-0.788-3.385-2.535-3.385c-2.025,0-3.289,1.438-3.289,3.933v10.379h-6.694
		V50.003h6.694v8.298c1.432-1.152,3.252-1.854,5.189-1.854C971.065,56.447,973.934,59.717,973.934,64.754z"/>
	<path d="M1017.257,64.607v11.852h-6.695V65.532c0-2.263-0.85-3.385-2.535-3.385c-2.088,0-3.289,1.458-3.289,3.933v10.379h-6.694
		V57.021h4.696l0.92,2.005c1.447-1.612,3.605-2.579,6.119-2.579C1014.292,56.447,1017.257,59.654,1017.257,64.607z"/>
	<path d="M1041.152,68.33h-14.433c0.438,2.229,1.854,3.382,3.968,3.382c1.564,0,2.871-0.685,3.515-1.823h6.662
		c-1.368,4.437-5.3,7.209-10.177,7.209c-6.064,0-10.558-4.434-10.558-10.371c0-5.959,4.457-10.342,10.558-10.342
		c6.266,0,10.604,4.471,10.604,10.172C1041.291,67.143,1041.24,67.729,1041.152,68.33z M1026.838,64.622h7.857
		c-0.587-1.942-1.987-2.991-4.008-2.991C1028.736,61.631,1027.38,62.691,1026.838,64.622z"/>
	<path d="M1072.679,57.021l-6.192,19.438h-5.396l-3.846-8.706l-3.762,8.706h-5.396l-6.346-19.438h7.012l2.943,10.207l4.595-10.145
		h1.808l4.846,10.238l2.897-10.301H1072.679z"/>
	<path d="M112.787,114.74c0,6.057-4.249,10.377-10.192,10.377c-1.758,0-3.367-0.463-4.738-1.291v7.652h-6.619v-26.457h4.553
		l0.839,1.545c1.598-1.383,3.655-2.182,5.965-2.182C108.539,104.385,112.787,108.685,112.787,114.74z M106.051,114.74
		c0-2.553-1.843-4.448-4.351-4.448s-4.351,1.896-4.351,4.448c0,2.554,1.843,4.448,4.351,4.448
		C104.192,119.188,106.051,117.294,106.051,114.74z"/>
	<path d="M128.519,104.93v6.127h-2.599c-2.371,0-3.363,1.039-3.363,3.519v9.884h-6.695v-19.438h4.485l1.045,2.158
		c1.371-1.586,3.041-2.25,5.354-2.25H128.519z"/>
	<path d="M129.598,114.74c0-6.025,4.561-10.355,10.898-10.355c6.317,0,10.898,4.33,10.898,10.355
		c0,6.006-4.581,10.356-10.898,10.356C134.158,125.097,129.598,120.746,129.598,114.74z M144.688,114.741
		c0-2.554-1.75-4.341-4.192-4.341s-4.192,1.771-4.192,4.341s1.75,4.341,4.192,4.341S144.688,117.311,144.688,114.741z"/>
	<path d="M175.019,98.003v26.456h-4.955l-0.631-1.443c-1.582,1.332-3.599,2.102-5.863,2.102c-5.964,0-10.213-4.336-10.213-10.377
		s4.249-10.355,10.213-10.355c1.795,0,3.437,0.484,4.83,1.35v-7.731H175.019z M168.817,114.741c0-2.538-1.843-4.448-4.351-4.448
		s-4.351,1.91-4.351,4.448s1.843,4.448,4.351,4.448S168.817,117.279,168.817,114.741z"/>
	<path d="M178.969,116.115v-11.094h6.695v10.803c0,2.051,1.103,3.258,2.892,3.258c1.789,0,2.871-1.227,2.871-3.258v-10.803h6.695
		v11.094c0,5.438-3.824,8.981-9.565,8.981C182.814,125.097,178.969,121.554,178.969,116.115z"/>
	<path d="M211.698,125.096c-6.234,0-10.733-4.367-10.733-10.382s4.479-10.299,10.754-10.299c5.462,0,9.56,3.444,10.292,8.614h-6.522
		c-0.563-1.586-2.045-2.615-3.791-2.615c-2.353,0-4.027,1.788-4.027,4.32c0,2.533,1.695,4.362,4.027,4.362
		c1.796,0,3.252-1.101,3.806-2.835h6.578C221.325,121.539,217.171,125.097,211.698,125.096L211.698,125.096z"/>
	<path d="M237.906,118.596v5.863H233.3c-4.298,0-6.911-2.627-6.911-6.947v-7.334h-3.558v-1.564l8.709-9.274h1.375v5.683h4.883v5.156
		h-4.714v6.186c0,1.393,0.84,2.232,2.252,2.232H237.906z"/>
	<path d="M251.156,98.003h6.695v26.456h-6.695V98.003z"/>
	<path d="M282.754,105.002v19.438h-5.176l-0.573-1.375c-1.592,1.289-3.607,2.032-5.865,2.032c-5.943,0-10.192-4.336-10.192-10.377
		c0-6.021,4.249-10.304,10.192-10.304c2.29,0,4.334,0.764,5.939,2.088l0.685-1.503L282.754,105.002z M276.387,114.735
		c0-2.522-1.844-4.418-4.352-4.418c-2.523,0-4.351,1.896-4.351,4.418c0,2.538,1.843,4.433,4.351,4.433
		S276.387,117.273,276.387,114.735z"/>
	<path d="M286.724,116.115v-11.094h6.695v10.803c0,2.051,1.103,3.258,2.892,3.258c1.789,0,2.871-1.227,2.871-3.258v-10.803h6.695
		v11.094c0,5.438-3.824,8.981-9.566,8.981S286.724,121.554,286.724,116.115z"/>
	<path d="M329.05,112.607v11.852h-6.695v-10.927c0-2.263-0.85-3.385-2.535-3.385c-2.088,0-3.289,1.458-3.289,3.933v10.379h-6.695
		v-19.438h4.697l0.919,2.005c1.448-1.612,3.605-2.579,6.119-2.579C326.085,104.447,329.05,107.654,329.05,112.607z"/>
	<path d="M342.673,125.096c-6.234,0-10.733-4.367-10.733-10.382s4.479-10.299,10.754-10.299c5.462,0,9.56,3.444,10.292,8.614h-6.522
		c-0.563-1.586-2.045-2.615-3.791-2.615c-2.353,0-4.027,1.788-4.027,4.32c0,2.533,1.695,4.362,4.027,4.362
		c1.796,0,3.252-1.101,3.806-2.835h6.578C352.299,121.539,348.146,125.097,342.673,125.096L342.673,125.096z"/>
	<path d="M375.166,112.754v11.705h-6.695v-10.927c0-2.241-0.788-3.385-2.535-3.385c-2.026,0-3.289,1.438-3.289,3.933v10.379h-6.695
		V98.003h6.695v8.298c1.431-1.152,3.251-1.854,5.189-1.854C372.297,104.447,375.166,107.717,375.166,112.754z"/>
	<path d="M399.2,114.557c0,0.586-0.051,1.172-0.138,1.773h-14.433c0.438,2.229,1.854,3.382,3.968,3.382
		c1.564,0,2.871-0.685,3.514-1.823h6.662c-1.368,4.437-5.3,7.209-10.176,7.209c-6.065,0-10.558-4.434-10.558-10.371
		c0-5.959,4.457-10.342,10.558-10.342C394.862,104.385,399.2,108.855,399.2,114.557L399.2,114.557z M384.747,112.622h7.857
		c-0.587-1.942-1.987-2.991-4.008-2.991C386.645,109.631,385.288,110.691,384.747,112.622z"/>
	<path d="M409.746,125.096c-5.298,0-8.518-2.797-8.579-7.009h6.444c0,1.421,0.99,2.075,2.259,2.075c0.979,0,1.908-0.499,1.908-1.504
		c0-1.121-1.472-1.44-3.339-1.75c-3.014-0.488-7.009-1.397-7.009-6.111c0-3.896,3.32-6.412,8.3-6.412
		c4.95,0,8.158,2.633,8.234,6.572h-6.27c0-1.242-0.834-1.818-2.047-1.818c-1.073,0-1.794,0.531-1.794,1.432
		c0,1.106,1.487,1.363,3.333,1.693c3.071,0.545,7.153,1.184,7.153,6.113C418.339,122.438,414.911,125.097,409.746,125.096
		L409.746,125.096z"/>
	<path d="M452.124,98.003v26.456h-4.955l-0.631-1.443c-1.582,1.332-3.599,2.102-5.863,2.102c-5.964,0-10.213-4.336-10.213-10.377
		s4.249-10.355,10.213-10.355c1.795,0,3.437,0.484,4.83,1.35v-7.731H452.124z M445.922,114.741c0-2.538-1.843-4.448-4.351-4.448
		s-4.351,1.91-4.351,4.448s1.843,4.448,4.351,4.448S445.922,117.279,445.922,114.741z"/>
	<path d="M477.017,105.002v19.438h-5.176l-0.573-1.375c-1.592,1.289-3.607,2.032-5.865,2.032c-5.943,0-10.192-4.336-10.192-10.377
		c0-6.021,4.249-10.304,10.192-10.304c2.289,0,4.334,0.764,5.939,2.088l0.685-1.503L477.017,105.002z M470.648,114.735
		c0-2.522-1.843-4.418-4.351-4.418c-2.523,0-4.351,1.896-4.351,4.418c0,2.538,1.843,4.433,4.351,4.433
		S470.648,117.273,470.648,114.735z"/>
	<path d="M481.238,105.021h6.695v19.438h-6.695V105.021z M481.29,96.907h6.592v5.683h-6.592V96.907z"/>
	<path d="M492.146,98.003h6.695v26.456h-6.695V98.003z"/>
	<path d="M523.375,105.021l-8.146,18.573c-2.62,5.948-5.029,8.098-10.047,8.098h-2.293v-5.753h1.841
		c2.562,0,3.334-0.667,4.241-3.086l-8.033-17.832h7.275l4.125,10.708l3.844-10.708H523.375z"/>
	<path d="M523.002,118.24h6.495v6.219h-6.495V118.24z"/>
	<path d="M578.189,99.263l-7.77,25.196h-6.11l-4.834-12.161l-4.741,12.161h-6.11l-7.889-25.196h7.454l4.087,14.522l6.002-14.398
		h2.402l6.11,14.41l4.006-14.534H578.189z"/>
	<path d="M598.667,114.557c0,0.586-0.051,1.172-0.138,1.773h-14.434c0.438,2.229,1.854,3.382,3.969,3.382
		c1.563,0,2.87-0.685,3.514-1.823h6.663c-1.368,4.437-5.301,7.209-10.177,7.209c-6.065,0-10.558-4.434-10.558-10.371
		c0-5.959,4.457-10.342,10.558-10.342C594.33,104.385,598.668,108.855,598.667,114.557L598.667,114.557z M584.214,112.622h7.858
		c-0.588-1.942-1.988-2.991-4.009-2.991C586.112,109.631,584.756,110.691,584.214,112.622z"/>
	<path d="M633.386,114.74c0,6.057-4.248,10.377-10.191,10.377c-1.758,0-3.367-0.463-4.739-1.291v7.652h-6.618v-26.457h4.553
		l0.839,1.545c1.599-1.383,3.655-2.182,5.966-2.182C629.138,104.385,633.386,108.685,633.386,114.74z M626.649,114.74
		c0-2.553-1.844-4.448-4.352-4.448s-4.351,1.896-4.351,4.448c0,2.554,1.843,4.448,4.351,4.448
		C624.791,119.188,626.649,117.294,626.649,114.74z"/>
	<path d="M649.118,104.93v6.127h-2.6c-2.37,0-3.363,1.039-3.363,3.519v9.884h-6.694v-19.438h4.485l1.044,2.158
		c1.371-1.586,3.041-2.25,5.354-2.25H649.118z"/>
	<path d="M650.196,114.74c0-6.025,4.562-10.355,10.898-10.355c6.316,0,10.897,4.33,10.897,10.355
		c0,6.006-4.581,10.356-10.897,10.356C654.758,125.097,650.196,120.746,650.196,114.74z M665.287,114.741
		c0-2.554-1.751-4.341-4.192-4.341s-4.192,1.771-4.192,4.341s1.751,4.341,4.192,4.341S665.287,117.311,665.287,114.741z"/>
	<path d="M693.928,105.021l-7.813,19.438h-6.065l-7.918-19.438h7.336l3.674,11.513l3.632-11.513H693.928z"/>
	<path d="M696.077,105.021h6.695v19.438h-6.695V105.021z M696.128,96.907h6.593v5.683h-6.593V96.907z"/>
	<path d="M727.515,98.003v26.456h-4.954l-0.632-1.443c-1.581,1.332-3.599,2.102-5.862,2.102c-5.965,0-10.214-4.336-10.214-10.377
		s4.249-10.355,10.214-10.355c1.794,0,3.437,0.484,4.829,1.35v-7.731H727.515z M721.313,114.741c0-2.538-1.843-4.448-4.351-4.448
		s-4.352,1.91-4.352,4.448s1.844,4.448,4.352,4.448S721.313,117.279,721.313,114.741z"/>
	<path d="M751.606,116.33h-14.433c0.438,2.229,1.854,3.382,3.968,3.382c1.564,0,2.871-0.685,3.515-1.823h6.662
		c-1.367,4.437-5.3,7.209-10.177,7.209c-6.064,0-10.558-4.434-10.558-10.371c0-5.959,4.457-10.342,10.558-10.342
		c6.266,0,10.604,4.471,10.604,10.172C751.745,115.143,751.694,115.729,751.606,116.33z M737.292,112.622h7.857
		c-0.587-1.942-1.987-2.991-4.008-2.991C739.19,109.631,737.834,110.691,737.292,112.622z"/>
	<path d="M777.137,118.596v5.863h-4.606c-4.299,0-6.911-2.627-6.911-6.947v-7.334h-3.558v-1.564l8.709-9.274h1.375v5.683h4.884
		v5.156h-4.715v6.186c0,1.393,0.84,2.232,2.253,2.232H777.137z"/>
	<path d="M799.479,112.754v11.705h-6.695v-10.927c0-2.241-0.788-3.385-2.535-3.385c-2.025,0-3.289,1.438-3.289,3.933v10.379h-6.694
		V98.003h6.694v8.298c1.432-1.152,3.252-1.854,5.189-1.854C796.61,104.447,799.479,107.717,799.479,112.754z"/>
	<path d="M823.373,116.33H808.94c0.438,2.229,1.854,3.382,3.968,3.382c1.564,0,2.871-0.685,3.515-1.823h6.662
		c-1.368,4.437-5.3,7.209-10.177,7.209c-6.064,0-10.558-4.434-10.558-10.371c0-5.959,4.457-10.342,10.558-10.342
		c6.266,0,10.604,4.471,10.604,10.172C823.512,115.143,823.461,115.729,823.373,116.33z M809.059,112.622h7.857
		c-0.587-1.942-1.987-2.991-4.008-2.991C810.957,109.631,809.601,110.691,809.059,112.622z"/>
	<path d="M855.896,112.754v11.705H849.2v-10.927c0-2.241-0.788-3.385-2.535-3.385c-2.025,0-3.289,1.438-3.289,3.933v10.379h-6.694
		V98.003h6.694v8.298c1.432-1.152,3.252-1.854,5.189-1.854C853.027,104.447,855.896,107.717,855.896,112.754z"/>
	<path d="M859.902,105.021h6.695v19.438h-6.695V105.021z M859.953,96.907h6.593v5.683h-6.593V96.907z"/>
	<path d="M890.913,105.022v17.278c0,6.107-3.999,9.892-10.419,9.892c-5.516,0-9.377-2.781-10.271-7.388h6.461
		c0.463,1.299,2.122,1.999,3.749,1.999c2.243,0,4.046-1.426,4.046-3.737v-0.58c-1.461,0.928-3.195,1.459-5.072,1.459
		c-5.572,0-9.713-4.146-9.713-9.77c0-5.542,4.141-9.775,9.713-9.775c2.354,0,4.483,0.844,6.131,2.252l0.85-1.631L890.913,105.022z
		 M880.519,118.434c2.403,0,4.134-1.781,4.134-4.258c0-2.455-1.725-4.236-4.134-4.236c-2.404,0-4.15,1.781-4.15,4.236
		C876.368,116.652,878.093,118.434,880.519,118.434L880.519,118.434z"/>
	<path d="M914.36,112.754v11.705h-6.695v-10.927c0-2.241-0.788-3.385-2.535-3.385c-2.025,0-3.289,1.438-3.289,3.933v10.379h-6.694
		V98.003h6.694v8.298c1.432-1.152,3.252-1.854,5.189-1.854C911.492,104.447,914.36,107.717,914.36,112.754z"/>
	<path d="M938.255,116.33h-14.433c0.438,2.229,1.854,3.382,3.968,3.382c1.564,0,2.871-0.685,3.515-1.823h6.662
		c-1.367,4.437-5.3,7.209-10.177,7.209c-6.064,0-10.558-4.434-10.558-10.371c0-5.959,4.457-10.342,10.558-10.342
		c6.266,0,10.604,4.471,10.604,10.172C938.394,115.143,938.343,115.729,938.255,116.33z M923.94,112.622h7.857
		c-0.587-1.942-1.987-2.991-4.008-2.991C925.839,109.631,924.482,110.691,923.94,112.622z"/>
	<path d="M948.94,125.096c-5.298,0-8.518-2.797-8.579-7.009h6.444c0,1.421,0.989,2.075,2.259,2.075c0.979,0,1.908-0.499,1.908-1.504
		c0-1.121-1.472-1.44-3.339-1.75c-3.014-0.488-7.01-1.397-7.01-6.111c0-3.896,3.32-6.412,8.301-6.412
		c4.95,0,8.158,2.633,8.234,6.572h-6.271c0-1.242-0.834-1.818-2.047-1.818c-1.073,0-1.795,0.531-1.795,1.432
		c0,1.106,1.487,1.363,3.334,1.693c3.07,0.545,7.152,1.184,7.152,6.113C957.533,122.438,954.105,125.097,948.94,125.096
		L948.94,125.096z"/>
	<path d="M973.594,118.596v5.863h-4.606c-4.299,0-6.911-2.627-6.911-6.947v-7.334h-3.558v-1.564l8.709-9.274h1.375v5.683h4.884
		v5.156h-4.715v6.186c0,1.393,0.84,2.232,2.253,2.232H973.594z"/>
	<path d="M986.845,98.003h6.694v26.456h-6.694V98.003z"/>
	<path d="M1017.643,116.33h-14.433c0.438,2.229,1.854,3.382,3.968,3.382c1.564,0,2.871-0.685,3.515-1.823h6.662
		c-1.368,4.437-5.3,7.209-10.177,7.209c-6.064,0-10.558-4.434-10.558-10.371c0-5.959,4.457-10.342,10.558-10.342
		c6.266,0,10.604,4.471,10.604,10.172C1017.781,115.143,1017.73,115.729,1017.643,116.33z M1003.328,112.622h7.857
		c-0.587-1.942-1.987-2.991-4.008-2.991C1005.227,109.631,1003.87,110.691,1003.328,112.622z"/>
	<path d="M1039.702,105.021l-7.813,19.438h-6.065l-7.918-19.438h7.336l3.674,11.513l3.632-11.513H1039.702z"/>
	<path d="M1060.878,116.33h-14.433c0.438,2.229,1.854,3.382,3.968,3.382c1.564,0,2.871-0.685,3.515-1.823h6.662
		c-1.367,4.437-5.3,7.209-10.177,7.209c-6.064,0-10.558-4.434-10.558-10.371c0-5.959,4.457-10.342,10.558-10.342
		c6.266,0,10.604,4.471,10.604,10.172C1061.017,115.143,1060.966,115.729,1060.878,116.33z M1046.563,112.622h7.857
		c-0.587-1.942-1.987-2.991-4.008-2.991C1048.462,109.631,1047.105,110.691,1046.563,112.622z"/>
	<path d="M1064.064,98.003h6.694v26.456h-6.694V98.003z"/>
	<path d="M90.106,162.74c0-6.025,4.561-10.355,10.898-10.355c6.317,0,10.898,4.33,10.898,10.355c0,6.006-4.581,10.356-10.898,10.356
		C94.667,173.097,90.106,168.746,90.106,162.74z M105.196,162.741c0-2.554-1.75-4.341-4.192-4.341s-4.192,1.771-4.192,4.341
		s1.75,4.341,4.192,4.341S105.196,165.311,105.196,162.741z"/>
	<path d="M127.671,158.6h-4.359v13.859h-6.695V158.6h-3.214l-0.015-5.26h3.312v-1.861c0-3.895,2.139-6.174,6.262-6.174h4.674v5.135
		h-2.957c-0.994,0-1.586,0.588-1.586,1.581v1.319h4.579V158.6z"/>
	<path d="M147.914,173.096c-5.298,0-8.518-2.797-8.579-7.009h6.444c0,1.421,0.99,2.075,2.259,2.075c0.979,0,1.908-0.499,1.908-1.504
		c0-1.121-1.472-1.44-3.339-1.75c-3.014-0.488-7.009-1.397-7.009-6.111c0-3.896,3.32-6.412,8.3-6.412
		c4.95,0,8.158,2.633,8.234,6.572h-6.27c0-1.242-0.834-1.818-2.047-1.818c-1.073,0-1.794,0.531-1.794,1.432
		c0,1.106,1.487,1.363,3.333,1.693c3.071,0.545,7.153,1.184,7.153,6.113C156.507,170.438,153.079,173.097,147.914,173.096
		L147.914,173.096z"/>
	<path d="M179.667,162.557c0,0.586-0.051,1.172-0.138,1.773h-14.433c0.438,2.229,1.854,3.382,3.968,3.382
		c1.564,0,2.871-0.685,3.514-1.823h6.662c-1.368,4.437-5.3,7.209-10.176,7.209c-6.065,0-10.558-4.434-10.558-10.371
		c0-5.959,4.457-10.342,10.558-10.342C175.329,152.385,179.667,156.855,179.667,162.557L179.667,162.557z M165.214,160.622h7.857
		c-0.587-1.942-1.987-2.991-4.008-2.991C167.112,157.631,165.755,158.691,165.214,160.622z"/>
	<path d="M195.372,152.93v6.127h-2.599c-2.371,0-3.363,1.039-3.363,3.519v9.884h-6.695v-19.438h4.485l1.045,2.158
		c1.371-1.586,3.041-2.25,5.354-2.25H195.372z"/>
	<path d="M217.753,153.021l-7.814,19.438h-6.065l-7.918-19.438h7.335l3.674,11.513l3.632-11.513H217.753z"/>
	<path d="M219.902,153.021h6.695v19.438h-6.695V153.021z M219.953,144.907h6.592v5.683h-6.592V144.907z"/>
	<path d="M240.426,173.096c-6.234,0-10.733-4.367-10.733-10.382s4.479-10.299,10.754-10.299c5.462,0,9.56,3.444,10.292,8.614h-6.522
		c-0.563-1.586-2.045-2.615-3.791-2.615c-2.353,0-4.027,1.788-4.027,4.32c0,2.533,1.695,4.362,4.027,4.362
		c1.796,0,3.252-1.101,3.806-2.835h6.578C250.053,169.539,245.899,173.097,240.426,173.096L240.426,173.096z"/>
	<path d="M273.733,162.557c0,0.586-0.051,1.172-0.138,1.773h-14.433c0.438,2.229,1.854,3.382,3.968,3.382
		c1.564,0,2.871-0.685,3.514-1.823h6.662c-1.368,4.437-5.3,7.209-10.176,7.209c-6.065,0-10.558-4.434-10.558-10.371
		c0-5.959,4.457-10.342,10.558-10.342C269.396,152.385,273.734,156.855,273.733,162.557L273.733,162.557z M259.28,160.622h7.857
		c-0.587-1.942-1.987-2.991-4.008-2.991C261.179,157.631,259.822,158.691,259.28,160.622z"/>
	<path d="M300.397,158.6h-4.359v13.859h-6.695V158.6h-3.214l-0.015-5.26h3.312v-1.861c0-3.895,2.139-6.174,6.262-6.174h4.674v5.135
		h-2.957c-0.994,0-1.586,0.588-1.586,1.581v1.319h4.579V158.6z"/>
	<path d="M301.46,162.74c0-6.025,4.561-10.355,10.898-10.355c6.317,0,10.898,4.33,10.898,10.355c0,6.006-4.581,10.356-10.898,10.356
		C306.021,173.097,301.46,168.746,301.46,162.74z M316.55,162.741c0-2.554-1.75-4.341-4.192-4.341s-4.192,1.771-4.192,4.341
		s1.75,4.341,4.192,4.341S316.55,165.311,316.55,162.741z"/>
	<path d="M339.01,152.93v6.127h-2.6c-2.37,0-3.363,1.039-3.363,3.519v9.884h-6.695v-19.438h4.485l1.045,2.158
		c1.371-1.586,3.041-2.25,5.354-2.25H339.01z"/>
	<path d="M350.205,162.74c0-6.025,4.561-10.355,10.898-10.355c6.317,0,10.898,4.33,10.898,10.355
		c0,6.006-4.581,10.356-10.898,10.356C354.765,173.097,350.205,168.746,350.205,162.74z M365.294,162.741
		c0-2.554-1.75-4.341-4.192-4.341s-4.192,1.771-4.192,4.341s1.75,4.341,4.192,4.341S365.294,165.311,365.294,162.741z"/>
	<path d="M374.844,164.115v-11.094h6.695v10.803c0,2.051,1.103,3.258,2.892,3.258c1.789,0,2.871-1.227,2.871-3.258v-10.803h6.695
		v11.094c0,5.438-3.824,8.981-9.565,8.981C378.689,173.097,374.844,169.554,374.844,164.115z"/>
	<path d="M410.614,152.93v6.127h-2.599c-2.371,0-3.363,1.039-3.363,3.519v9.884h-6.695v-19.438h4.485l1.045,2.158
		c1.371-1.586,3.041-2.25,5.354-2.25H410.614z"/>
	<path d="M432.557,173.096c-6.234,0-10.733-4.367-10.733-10.382s4.479-10.299,10.754-10.299c5.462,0,9.56,3.444,10.292,8.614h-6.522
		c-0.563-1.586-2.045-2.615-3.791-2.615c-2.353,0-4.027,1.788-4.027,4.32c0,2.533,1.695,4.362,4.027,4.362
		c1.796,0,3.252-1.101,3.806-2.835h6.578C442.184,169.539,438.03,173.097,432.557,173.096L432.557,173.096z"/>
	<path d="M445.835,146.003h6.695v26.456h-6.695V146.003z"/>
	<path d="M456.744,153.021h6.695v19.438h-6.695V153.021z M456.795,144.907h6.592v5.683h-6.592V144.907z"/>
	<path d="M487.68,162.557c0,0.586-0.051,1.172-0.138,1.773h-14.433c0.438,2.229,1.854,3.382,3.968,3.382
		c1.564,0,2.871-0.685,3.514-1.823h6.662c-1.368,4.437-5.3,7.209-10.176,7.209c-6.065,0-10.558-4.434-10.558-10.371
		c0-5.959,4.457-10.342,10.558-10.342C483.342,152.385,487.68,156.855,487.68,162.557L487.68,162.557z M473.227,160.622h7.857
		c-0.587-1.942-1.987-2.991-4.008-2.991C475.125,157.631,473.768,158.691,473.227,160.622z"/>
	<path d="M509.941,160.607v11.852h-6.695v-10.927c0-2.263-0.85-3.385-2.535-3.385c-2.088,0-3.289,1.458-3.289,3.933v10.379h-6.695
		v-19.438h4.697l0.919,2.005c1.448-1.612,3.605-2.579,6.119-2.579C506.976,152.447,509.941,155.654,509.941,160.607z"/>
	<path d="M526.911,166.596v5.863h-4.606c-4.298,0-6.911-2.627-6.911-6.947v-7.334h-3.558v-1.564l8.709-9.274h1.375v5.683h4.883
		v5.156h-4.714v6.186c0,1.393,0.84,2.232,2.252,2.232H526.911z"/>
	<path d="M537.538,173.096c-5.298,0-8.518-2.797-8.579-7.009h6.444c0,1.421,0.99,2.075,2.259,2.075c0.979,0,1.908-0.499,1.908-1.504
		c0-1.121-1.472-1.44-3.339-1.75c-3.014-0.488-7.009-1.397-7.009-6.111c0-3.896,3.32-6.412,8.3-6.412
		c4.95,0,8.158,2.633,8.234,6.572h-6.27c0-1.242-0.834-1.818-2.047-1.818c-1.073,0-1.794,0.531-1.794,1.432
		c0,1.106,1.487,1.363,3.333,1.693c3.071,0.545,7.153,1.184,7.153,6.113C546.131,170.438,542.703,173.097,537.538,173.096
		L537.538,173.096z"/>
	<path d="M549.015,166.24h6.495v6.219h-6.495V166.24z"/>
	<path d="M584.584,168.367h-8.932l-1.396,4.092h-7.438l9.897-25.196h6.785l10.115,25.196h-7.645L584.584,168.367z M580.104,155.127
		l-2.761,7.809h5.546L580.104,155.127z"/>
	<path d="M613.69,153.021l-7.813,19.438h-6.065l-7.918-19.438h7.336l3.674,11.513l3.632-11.513H613.69z"/>
	<path d="M635.666,153.002v19.438h-5.176l-0.573-1.375c-1.592,1.289-3.607,2.032-5.865,2.032c-5.943,0-10.192-4.336-10.192-10.377
		c0-6.021,4.249-10.304,10.192-10.304c2.289,0,4.334,0.764,5.939,2.088l0.685-1.503L635.666,153.002z M629.298,162.735
		c0-2.522-1.843-4.418-4.351-4.418c-2.523,0-4.352,1.896-4.352,4.418c0,2.538,1.844,4.433,4.352,4.433
		S629.298,165.273,629.298,162.735z"/>
	<path d="M639.888,153.021h6.695v19.438h-6.695V153.021z M639.938,144.907h6.593v5.683h-6.593V144.907z"/>
	<path d="M650.796,146.003h6.694v26.456h-6.694V146.003z"/>
	<path d="M682.394,153.002v19.438h-5.176l-0.573-1.375c-1.592,1.289-3.607,2.032-5.865,2.032c-5.943,0-10.192-4.336-10.192-10.377
		c0-6.021,4.249-10.304,10.192-10.304c2.289,0,4.334,0.764,5.939,2.088l0.685-1.503L682.394,153.002z M676.025,162.735
		c0-2.522-1.843-4.418-4.351-4.418c-2.523,0-4.352,1.896-4.352,4.418c0,2.538,1.844,4.433,4.352,4.433
		S676.025,165.273,676.025,162.735z"/>
	<path d="M698.064,152.415c5.984,0,10.212,4.3,10.212,10.341s-4.228,10.34-10.212,10.34c-2.269,0-4.285-0.76-5.864-2.079
		l-0.631,1.442h-4.954v-26.456h6.618v7.753C694.625,152.896,696.267,152.416,698.064,152.415L698.064,152.415z M701.52,162.756
		c0-2.539-1.844-4.434-4.352-4.434s-4.351,1.895-4.351,4.434c0,2.518,1.843,4.412,4.351,4.412
		C699.661,167.168,701.52,165.273,701.52,162.756z"/>
	<path d="M711.347,146.003h6.694v26.456h-6.694V146.003z"/>
	<path d="M742.145,164.33h-14.433c0.438,2.229,1.854,3.382,3.968,3.382c1.564,0,2.871-0.685,3.515-1.823h6.662
		c-1.368,4.437-5.3,7.209-10.177,7.209c-6.064,0-10.558-4.434-10.558-10.371c0-5.959,4.457-10.342,10.558-10.342
		c6.266,0,10.604,4.471,10.604,10.172C742.283,163.143,742.232,163.729,742.145,164.33z M727.83,160.622h7.857
		c-0.587-1.942-1.987-2.991-4.008-2.991C729.729,157.631,728.372,158.691,727.83,160.622z"/>
	<path d="M755.949,153.021h6.695v19.438h-6.695V153.021z M756,144.907h6.593v5.683H756V144.907z"/>
	<path d="M786.071,160.607v11.852h-6.695v-10.927c0-2.263-0.85-3.385-2.535-3.385c-2.088,0-3.289,1.458-3.289,3.933v10.379h-6.694
		v-19.438h4.696l0.92,2.005c1.447-1.612,3.605-2.579,6.119-2.579C783.106,152.447,786.071,155.654,786.071,160.607z"/>
	<path d="M821.386,153.002v19.438h-5.176l-0.573-1.375c-1.592,1.289-3.607,2.032-5.865,2.032c-5.943,0-10.192-4.336-10.192-10.377
		c0-6.021,4.249-10.304,10.192-10.304c2.289,0,4.334,0.764,5.939,2.088l0.685-1.503L821.386,153.002z M815.018,162.735
		c0-2.522-1.843-4.418-4.351-4.418c-2.523,0-4.352,1.896-4.352,4.418c0,2.538,1.844,4.433,4.352,4.433
		S815.018,165.273,815.018,162.735z"/>
	<path d="M825.607,146.003h6.694v26.456h-6.694V146.003z"/>
	<path d="M836.516,146.003h6.694v26.456h-6.694V146.003z"/>
	<path d="M878.146,153.022v17.278c0,6.107-3.999,9.892-10.419,9.892c-5.516,0-9.377-2.781-10.271-7.388h6.461
		c0.463,1.299,2.122,1.999,3.749,1.999c2.243,0,4.046-1.426,4.046-3.737v-0.58c-1.461,0.928-3.195,1.459-5.072,1.459
		c-5.572,0-9.713-4.146-9.713-9.77c0-5.542,4.141-9.775,9.713-9.775c2.354,0,4.483,0.844,6.131,2.252l0.85-1.631L878.146,153.022z
		 M867.752,166.434c2.403,0,4.134-1.781,4.134-4.258c0-2.455-1.725-4.236-4.134-4.236c-2.404,0-4.15,1.781-4.15,4.236
		C863.602,164.652,865.326,166.434,867.752,166.434L867.752,166.434z"/>
	<path d="M902.27,164.33h-14.433c0.438,2.229,1.854,3.382,3.968,3.382c1.564,0,2.871-0.685,3.515-1.823h6.662
		c-1.368,4.437-5.3,7.209-10.177,7.209c-6.064,0-10.558-4.434-10.558-10.371c0-5.959,4.457-10.342,10.558-10.342
		c6.266,0,10.604,4.471,10.604,10.172C902.408,163.143,902.357,163.729,902.27,164.33z M887.955,160.622h7.857
		c-0.587-1.942-1.987-2.991-4.008-2.991C889.854,157.631,888.497,158.691,887.955,160.622z"/>
	<path d="M904.322,162.74c0-6.025,4.561-10.355,10.898-10.355c6.316,0,10.898,4.33,10.898,10.355
		c0,6.006-4.582,10.356-10.898,10.356C908.883,173.097,904.322,168.746,904.322,162.74z M919.413,162.741
		c0-2.554-1.751-4.341-4.192-4.341s-4.192,1.771-4.192,4.341s1.751,4.341,4.192,4.341S919.413,165.311,919.413,162.741z"/>
	<path d="M949.317,153.022v17.278c0,6.107-3.999,9.892-10.419,9.892c-5.516,0-9.377-2.781-10.271-7.388h6.461
		c0.463,1.299,2.122,1.999,3.749,1.999c2.243,0,4.046-1.426,4.046-3.737v-0.58c-1.461,0.928-3.195,1.459-5.072,1.459
		c-5.572,0-9.713-4.146-9.713-9.77c0-5.542,4.141-9.775,9.713-9.775c2.354,0,4.483,0.844,6.131,2.252l0.85-1.631L949.317,153.022z
		 M938.923,166.434c2.403,0,4.134-1.781,4.134-4.258c0-2.455-1.725-4.236-4.134-4.236c-2.404,0-4.15,1.781-4.15,4.236
		C934.772,164.652,936.497,166.434,938.923,166.434L938.923,166.434z"/>
	<path d="M966.208,152.93v6.127h-2.6c-2.37,0-3.363,1.039-3.363,3.519v9.884h-6.694v-19.438h4.485l1.044,2.158
		c1.371-1.586,3.041-2.25,5.354-2.25H966.208z"/>
	<path d="M989.108,153.002v19.438h-5.176l-0.573-1.375c-1.592,1.289-3.607,2.032-5.865,2.032c-5.943,0-10.192-4.336-10.192-10.377
		c0-6.021,4.249-10.304,10.192-10.304c2.289,0,4.334,0.764,5.939,2.088l0.685-1.503L989.108,153.002z M982.74,162.735
		c0-2.522-1.843-4.418-4.351-4.418c-2.523,0-4.352,1.896-4.352,4.418c0,2.538,1.844,4.433,4.352,4.433
		S982.74,165.273,982.74,162.735z"/>
	<path d="M1014.879,162.74c0,6.057-4.248,10.377-10.191,10.377c-1.758,0-3.367-0.463-4.739-1.291v7.652h-6.618v-26.457h4.553
		l0.839,1.545c1.599-1.383,3.655-2.182,5.966-2.182C1010.631,152.385,1014.879,156.685,1014.879,162.74z M1008.143,162.74
		c0-2.553-1.844-4.448-4.352-4.448s-4.351,1.896-4.351,4.448c0,2.554,1.843,4.448,4.351,4.448
		C1006.284,167.188,1008.143,165.294,1008.143,162.74z"/>
	<path d="M1037.168,160.754v11.705h-6.695v-10.927c0-2.241-0.788-3.385-2.535-3.385c-2.025,0-3.289,1.438-3.289,3.933v10.379h-6.694
		v-26.456h6.694v8.298c1.432-1.152,3.252-1.854,5.189-1.854C1034.3,152.447,1037.168,155.717,1037.168,160.754z"/>
	<path d="M1041.174,153.021h6.695v19.438h-6.695V153.021z M1041.225,144.907h6.593v5.683h-6.593V144.907z"/>
	<path d="M1061.698,173.096c-6.233,0-10.732-4.367-10.732-10.382s4.479-10.299,10.753-10.299c5.463,0,9.56,3.444,10.292,8.614
		h-6.521c-0.563-1.586-2.046-2.615-3.791-2.615c-2.353,0-4.027,1.788-4.027,4.32c0,2.533,1.695,4.362,4.027,4.362
		c1.797,0,3.253-1.101,3.806-2.835h6.578C1071.325,169.539,1067.172,173.097,1061.698,173.096L1061.698,173.096z"/>
	<path d="M103.896,200.93v6.127h-2.6c-2.37,0-3.363,1.039-3.363,3.519v9.884h-6.695v-19.438h4.485l1.045,2.158
		c1.371-1.586,3.041-2.25,5.354-2.25H103.896z"/>
	<path d="M126.135,210.557c0,0.586-0.051,1.172-0.138,1.773h-14.433c0.438,2.229,1.854,3.382,3.968,3.382
		c1.564,0,2.871-0.685,3.514-1.823h6.662c-1.368,4.437-5.3,7.209-10.176,7.209c-6.065,0-10.558-4.434-10.558-10.371
		c0-5.959,4.457-10.342,10.558-10.342C121.797,200.385,126.135,204.855,126.135,210.557L126.135,210.557z M111.682,208.622h7.857
		c-0.587-1.942-1.987-2.991-4.008-2.991C113.58,205.631,112.223,206.691,111.682,208.622z"/>
	<path d="M149.285,201.022v17.278c0,6.107-3.999,9.892-10.419,9.892c-5.516,0-9.377-2.781-10.272-7.388h6.461
		c0.464,1.299,2.123,1.999,3.749,1.999c2.244,0,4.047-1.426,4.047-3.737v-0.58c-1.461,0.928-3.196,1.459-5.072,1.459
		c-5.573,0-9.713-4.146-9.713-9.77c0-5.542,4.141-9.775,9.713-9.775c2.353,0,4.483,0.844,6.131,2.252l0.849-1.631L149.285,201.022z
		 M143.024,210.176c0-2.455-1.725-4.236-4.134-4.236c-2.404,0-4.149,1.781-4.149,4.236c0,2.477,1.725,4.258,4.149,4.258
		C141.294,214.434,143.024,212.652,143.024,210.176z"/>
	<path d="M153.518,201.021h6.695v19.438h-6.695V201.021z M153.569,192.907h6.592v5.683h-6.592V192.907z"/>
	<path d="M163.293,210.74c0-6.025,4.561-10.355,10.898-10.355c6.317,0,10.898,4.33,10.898,10.355
		c0,6.006-4.581,10.356-10.898,10.356C167.854,221.097,163.293,216.746,163.293,210.74z M178.383,210.741
		c0-2.554-1.75-4.341-4.192-4.341S170,208.172,170,210.741s1.75,4.341,4.192,4.341S178.383,213.311,178.383,210.741z"/>
	<path d="M207.399,208.607v11.852h-6.695v-10.927c0-2.263-0.85-3.385-2.535-3.385c-2.088,0-3.289,1.458-3.289,3.933v10.379h-6.695
		v-19.438h4.697l0.919,2.005c1.448-1.612,3.605-2.579,6.119-2.579C204.435,200.447,207.399,203.654,207.399,208.607z"/>
	<path d="M218.904,221.096c-5.298,0-8.518-2.797-8.579-7.009h6.444c0,1.421,0.99,2.075,2.259,2.075c0.979,0,1.908-0.499,1.908-1.504
		c0-1.121-1.472-1.44-3.339-1.75c-3.014-0.488-7.009-1.397-7.009-6.111c0-3.896,3.32-6.412,8.3-6.412
		c4.95,0,8.158,2.633,8.234,6.572h-6.27c0-1.242-0.834-1.818-2.047-1.818c-1.073,0-1.794,0.531-1.794,1.432
		c0,1.106,1.487,1.363,3.333,1.693c3.071,0.545,7.153,1.184,7.153,6.113C227.498,218.438,224.069,221.097,218.904,221.096
		L218.904,221.096z"/>
	<path d="M258.092,201.002v19.438h-5.176l-0.573-1.375c-1.592,1.289-3.607,2.032-5.865,2.032c-5.943,0-10.192-4.336-10.192-10.377
		c0-6.021,4.249-10.304,10.192-10.304c2.289,0,4.334,0.764,5.939,2.088l0.685-1.503L258.092,201.002z M251.724,210.735
		c0-2.522-1.843-4.418-4.351-4.418c-2.523,0-4.351,1.896-4.351,4.418c0,2.538,1.843,4.433,4.351,4.433
		S251.724,213.273,251.724,210.735z"/>
	<path d="M281.528,208.607v11.852h-6.695v-10.927c0-2.263-0.85-3.385-2.535-3.385c-2.088,0-3.289,1.458-3.289,3.933v10.379h-6.695
		v-19.438h4.697l0.919,2.005c1.448-1.612,3.605-2.579,6.119-2.579C278.563,200.447,281.528,203.654,281.528,208.607z"/>
	<path d="M306.063,194.003v26.456h-4.955l-0.631-1.443c-1.582,1.332-3.599,2.102-5.863,2.102c-5.964,0-10.213-4.336-10.213-10.377
		s4.249-10.355,10.213-10.355c1.795,0,3.437,0.484,4.83,1.35v-7.731H306.063z M299.861,210.741c0-2.538-1.843-4.448-4.351-4.448
		s-4.351,1.91-4.351,4.448s1.843,4.448,4.351,4.448S299.861,213.279,299.861,210.741z"/>
	<path d="M337.066,210.557c0,0.586-0.051,1.172-0.138,1.773h-14.433c0.438,2.229,1.854,3.382,3.968,3.382
		c1.564,0,2.871-0.685,3.514-1.823h6.662c-1.368,4.437-5.3,7.209-10.176,7.209c-6.065,0-10.558-4.434-10.558-10.371
		c0-5.959,4.457-10.342,10.558-10.342C332.729,200.385,337.067,204.855,337.066,210.557L337.066,210.557z M322.613,208.622h7.857
		c-0.587-1.942-1.987-2.991-4.008-2.991C324.512,205.631,323.155,206.691,322.613,208.622z"/>
	<path d="M359.328,208.607v11.852h-6.695v-10.927c0-2.263-0.85-3.385-2.535-3.385c-2.088,0-3.289,1.458-3.289,3.933v10.379h-6.695
		v-19.438h4.697l0.919,2.005c1.448-1.612,3.605-2.579,6.119-2.579C356.363,200.447,359.328,203.654,359.328,208.607z"/>
	<path d="M383.362,210.557c0,0.586-0.051,1.172-0.138,1.773h-14.433c0.438,2.229,1.854,3.382,3.968,3.382
		c1.564,0,2.871-0.685,3.514-1.823h6.662c-1.368,4.437-5.3,7.209-10.176,7.209c-6.065,0-10.558-4.434-10.558-10.371
		c0-5.959,4.457-10.342,10.558-10.342C379.024,200.385,383.362,204.855,383.362,210.557L383.362,210.557z M368.909,208.622h7.857
		c-0.587-1.942-1.987-2.991-4.008-2.991C370.807,205.631,369.45,206.691,368.909,208.622z"/>
	<path d="M399.066,200.93v6.127h-2.6c-2.37,0-3.363,1.039-3.363,3.519v9.884h-6.695v-19.438h4.485l1.045,2.158
		c1.371-1.586,3.041-2.25,5.354-2.25H399.066z"/>
	<path d="M421.452,201.022v17.278c0,6.107-3.999,9.892-10.419,9.892c-5.516,0-9.377-2.781-10.272-7.388h6.461
		c0.464,1.299,2.123,1.999,3.749,1.999c2.244,0,4.046-1.426,4.046-3.737v-0.58c-1.461,0.928-3.196,1.459-5.072,1.459
		c-5.573,0-9.713-4.146-9.713-9.77c0-5.542,4.141-9.775,9.713-9.775c2.353,0,4.483,0.844,6.131,2.252l0.849-1.631L421.452,201.022z
		 M411.057,214.434c2.404,0,4.134-1.781,4.134-4.258c0-2.455-1.725-4.236-4.134-4.236c-2.404,0-4.149,1.781-4.149,4.236
		C406.908,212.652,408.632,214.434,411.057,214.434L411.057,214.434z"/>
	<path d="M445.714,210.557c0,0.586-0.051,1.172-0.138,1.773h-14.433c0.438,2.229,1.854,3.382,3.968,3.382
		c1.564,0,2.871-0.685,3.514-1.823h6.662c-1.368,4.437-5.3,7.209-10.176,7.209c-6.065,0-10.558-4.434-10.558-10.371
		c0-5.959,4.457-10.342,10.558-10.342C441.376,200.385,445.714,204.855,445.714,210.557L445.714,210.557z M431.261,208.622h7.857
		c-0.587-1.942-1.987-2.991-4.008-2.991C433.159,205.631,431.802,206.691,431.261,208.622z"/>
	<path d="M461.582,214.596v5.863h-4.606c-4.298,0-6.911-2.627-6.911-6.947v-7.334h-3.558v-1.564l8.709-9.274h1.375v5.683h4.883
		v5.156h-4.714v6.186c0,1.393,0.84,2.232,2.252,2.232H461.582z"/>
	<path d="M464.709,201.021h6.695v19.438h-6.695V201.021z M464.76,192.907h6.592v5.683h-6.592V192.907z"/>
	<path d="M485.233,221.096c-6.234,0-10.733-4.367-10.733-10.382s4.479-10.299,10.754-10.299c5.462,0,9.56,3.444,10.292,8.614h-6.522
		c-0.563-1.586-2.045-2.615-3.791-2.615c-2.353,0-4.027,1.788-4.027,4.32c0,2.533,1.695,4.362,4.027,4.362
		c1.796,0,3.252-1.101,3.806-2.835h6.578C494.86,217.539,490.707,221.097,485.233,221.096L485.233,221.096z"/>
	<path d="M535.103,208.268v12.191h-6.695v-11.363c0-2.029-0.747-3.01-2.17-3.01c-1.84,0-2.783,1.268-2.783,3.716v10.657h-6.521
		v-11.363c0-1.969-0.742-3.01-2.144-3.01c-1.814,0-2.81,1.299-2.81,3.716v10.657h-6.695v-19.438h4.708l0.953,2.089
		c1.405-1.636,3.443-2.663,5.682-2.663c2.369,0,4.365,1.064,5.574,2.861c1.397-1.758,3.549-2.861,5.969-2.861
		C532.335,200.447,535.103,203.691,535.103,208.268z"/>
	<path d="M559.778,201.002v19.438h-5.176l-0.573-1.375c-1.592,1.289-3.607,2.032-5.865,2.032c-5.943,0-10.192-4.336-10.192-10.377
		c0-6.021,4.249-10.304,10.192-10.304c2.289,0,4.334,0.764,5.939,2.088l0.685-1.503L559.778,201.002z M553.41,210.735
		c0-2.522-1.843-4.418-4.351-4.418c-2.523,0-4.351,1.896-4.351,4.418c0,2.538,1.843,4.433,4.351,4.433
		S553.41,213.273,553.41,210.735z"/>
	<path d="M576.658,200.93v6.127h-2.599c-2.371,0-3.363,1.039-3.363,3.519v9.884H564v-19.438h4.485l1.045,2.158
		c1.371-1.586,3.041-2.25,5.354-2.25H576.658z"/>
	<path d="M591.046,220.459l-4.868-8.219v8.219h-6.696v-26.456h6.696v14.634l4.63-7.615h7.518l-6.058,9.265l6.671,10.173H591.046z"/>
	<path d="M619.673,212.33H605.24c0.438,2.229,1.854,3.382,3.968,3.382c1.564,0,2.871-0.685,3.515-1.823h6.662
		c-1.367,4.437-5.3,7.209-10.177,7.209c-6.064,0-10.558-4.434-10.558-10.371c0-5.959,4.457-10.342,10.558-10.342
		c6.266,0,10.604,4.471,10.604,10.172C619.812,211.143,619.761,211.729,619.673,212.33z M605.358,208.622h7.857
		c-0.587-1.942-1.987-2.991-4.008-2.991C607.257,205.631,605.9,206.691,605.358,208.622z"/>
	<path d="M635.679,214.596v5.863h-4.606c-4.299,0-6.911-2.627-6.911-6.947v-7.334h-3.558v-1.564l8.709-9.274h1.375v5.683h4.884
		v5.156h-4.715v6.186c0,1.393,0.84,2.232,2.253,2.232H635.679z"/>
	<path d="M665.468,212.33h-14.433c0.438,2.229,1.854,3.382,3.968,3.382c1.564,0,2.871-0.685,3.515-1.823h6.662
		c-1.367,4.437-5.3,7.209-10.177,7.209c-6.064,0-10.558-4.434-10.558-10.371c0-5.959,4.457-10.342,10.558-10.342
		c6.266,0,10.604,4.471,10.604,10.172C665.606,211.143,665.556,211.729,665.468,212.33z M651.153,208.622h7.857
		c-0.587-1.942-1.987-2.991-4.008-2.991C653.052,205.631,651.695,206.691,651.153,208.622z"/>
	<path d="M687.868,208.607v11.852h-6.695v-10.927c0-2.263-0.85-3.385-2.535-3.385c-2.088,0-3.289,1.458-3.289,3.933v10.379h-6.694
		v-19.438h4.696l0.92,2.005c1.447-1.612,3.605-2.579,6.119-2.579C684.903,200.447,687.868,203.654,687.868,208.607z"/>
	<path d="M710.856,201.021l-7.813,19.438h-6.065l-7.918-19.438h7.336l3.674,11.513l3.632-11.513H710.856z"/>
	<path d="M713.006,201.021h6.695v19.438h-6.695V201.021z M713.057,192.907h6.593v5.683h-6.593V192.907z"/>
	<path d="M736.571,200.93v6.127h-2.6c-2.37,0-3.363,1.039-3.363,3.519v9.884h-6.694v-19.438h4.485l1.044,2.158
		c1.371-1.586,3.041-2.25,5.354-2.25H736.571z"/>
	<path d="M737.65,210.74c0-6.025,4.561-10.355,10.898-10.355c6.316,0,10.898,4.33,10.898,10.355c0,6.006-4.582,10.356-10.898,10.356
		C742.211,221.097,737.65,216.746,737.65,210.74z M752.741,210.741c0-2.554-1.751-4.341-4.192-4.341s-4.192,1.771-4.192,4.341
		s1.751,4.341,4.192,4.341S752.741,213.311,752.741,210.741z"/>
	<path d="M781.757,208.607v11.852h-6.695v-10.927c0-2.263-0.85-3.385-2.535-3.385c-2.088,0-3.289,1.458-3.289,3.933v10.379h-6.694
		v-19.438h4.696l0.92,2.005c1.447-1.612,3.605-2.579,6.119-2.579C778.792,200.447,781.757,203.654,781.757,208.607z"/>
	<path d="M815.58,208.268v12.191h-6.695v-11.363c0-2.029-0.747-3.01-2.17-3.01c-1.84,0-2.783,1.268-2.783,3.716v10.657h-6.521
		v-11.363c0-1.969-0.742-3.01-2.144-3.01c-1.815,0-2.811,1.299-2.811,3.716v10.657h-6.694v-19.438h4.707l0.954,2.089
		c1.404-1.636,3.442-2.663,5.682-2.663c2.369,0,4.364,1.064,5.574,2.861c1.396-1.758,3.549-2.861,5.97-2.861
		C812.813,200.447,815.58,203.691,815.58,208.268z"/>
	<path d="M839.456,212.33h-14.433c0.438,2.229,1.854,3.382,3.968,3.382c1.564,0,2.871-0.685,3.515-1.823h6.662
		c-1.367,4.437-5.3,7.209-10.177,7.209c-6.064,0-10.558-4.434-10.558-10.371c0-5.959,4.457-10.342,10.558-10.342
		c6.266,0,10.604,4.471,10.604,10.172C839.595,211.143,839.544,211.729,839.456,212.33z M825.142,208.622h7.857
		c-0.587-1.942-1.987-2.991-4.008-2.991C827.04,205.631,825.684,206.691,825.142,208.622z"/>
	<path d="M861.856,208.607v11.852h-6.695v-10.927c0-2.263-0.85-3.385-2.535-3.385c-2.088,0-3.289,1.458-3.289,3.933v10.379h-6.694
		v-19.438h4.696l0.92,2.005c1.447-1.612,3.605-2.579,6.119-2.579C858.892,200.447,861.856,203.654,861.856,208.607z"/>
	<path d="M878.827,214.596v5.863h-4.606c-4.299,0-6.911-2.627-6.911-6.947v-7.334h-3.558v-1.564l8.709-9.274h1.375v5.683h4.884
		v5.156h-4.715v6.186c0,1.393,0.84,2.232,2.253,2.232H878.827z"/>
	<path d="M889.453,221.096c-5.298,0-8.518-2.797-8.579-7.009h6.444c0,1.421,0.989,2.075,2.259,2.075
		c0.979,0,1.908-0.499,1.908-1.504c0-1.121-1.472-1.44-3.339-1.75c-3.014-0.488-7.01-1.397-7.01-6.111
		c0-3.896,3.32-6.412,8.301-6.412c4.95,0,8.158,2.633,8.234,6.572h-6.271c0-1.242-0.834-1.818-2.047-1.818
		c-1.073,0-1.795,0.531-1.795,1.432c0,1.106,1.487,1.363,3.334,1.693c3.07,0.545,7.152,1.184,7.152,6.113
		C898.046,218.438,894.618,221.097,889.453,221.096L889.453,221.096z"/>
	<path d="M900.93,214.24h6.495v6.219h-6.495V214.24z"/>
	<path d="M953.059,195.263l-7.77,25.196h-6.111l-4.833-12.161l-4.741,12.161h-6.11l-7.889-25.196h7.454l4.087,14.522l6.003-14.398
		h2.402l6.11,14.41l4.005-14.534H953.059z"/>
	<path d="M973.398,212.33h-14.433c0.438,2.229,1.854,3.382,3.968,3.382c1.564,0,2.871-0.685,3.515-1.823h6.662
		c-1.368,4.437-5.3,7.209-10.177,7.209c-6.064,0-10.558-4.434-10.558-10.371c0-5.959,4.457-10.342,10.558-10.342
		c6.266,0,10.604,4.471,10.604,10.172C973.537,211.143,973.486,211.729,973.398,212.33z M959.084,208.622h7.857
		c-0.587-1.942-1.987-2.991-4.008-2.991C960.982,205.631,959.626,206.691,959.084,208.622z"/>
	<path d="M982.225,210.74c0-6.025,4.561-10.355,10.898-10.355c6.316,0,10.898,4.33,10.898,10.355
		c0,6.006-4.582,10.356-10.898,10.356C986.785,221.097,982.225,216.746,982.225,210.74z M997.315,210.741
		c0-2.554-1.751-4.341-4.192-4.341s-4.192,1.771-4.192,4.341s1.751,4.341,4.192,4.341S997.315,213.311,997.315,210.741z"/>
	<path d="M1019.79,206.6h-4.358v13.859h-6.695V206.6h-3.214l-0.016-5.26h3.312v-1.861c0-3.895,2.14-6.174,6.262-6.174h4.675v5.135
		h-2.957c-0.994,0-1.586,0.588-1.586,1.581v1.319h4.578V206.6z"/>
	<path d="M1035.342,206.6h-4.358v13.859h-6.695V206.6h-3.214l-0.016-5.26h3.312v-1.861c0-3.895,2.14-6.174,6.262-6.174h4.675v5.135
		h-2.957c-0.994,0-1.586,0.588-1.586,1.581v1.319h4.578V206.6z"/>
	<path d="M1057.427,212.33h-14.433c0.438,2.229,1.854,3.382,3.968,3.382c1.564,0,2.871-0.685,3.515-1.823h6.662
		c-1.367,4.437-5.3,7.209-10.177,7.209c-6.064,0-10.558-4.434-10.558-10.371c0-5.959,4.457-10.342,10.558-10.342
		c6.266,0,10.604,4.471,10.604,10.172C1057.565,211.143,1057.515,211.729,1057.427,212.33z M1043.112,208.622h7.857
		c-0.587-1.942-1.987-2.991-4.008-2.991C1045.011,205.631,1043.654,206.691,1043.112,208.622z"/>
	<path d="M1073.27,200.93v6.127h-2.6c-2.37,0-3.363,1.039-3.363,3.519v9.884h-6.694v-19.438h4.485l1.044,2.158
		c1.371-1.586,3.041-2.25,5.354-2.25H1073.27z"/>
	<path d="M110.941,249.021l-7.814,19.438h-6.065l-7.918-19.438h7.335l3.674,11.513l3.632-11.513H110.941z"/>
	<path d="M132.255,258.557c0,0.586-0.051,1.172-0.138,1.773h-14.433c0.438,2.229,1.854,3.382,3.968,3.382
		c1.564,0,2.871-0.685,3.514-1.823h6.662c-1.368,4.437-5.3,7.209-10.176,7.209c-6.065,0-10.558-4.434-10.558-10.371
		c0-5.959,4.457-10.342,10.558-10.342C127.917,248.385,132.255,252.855,132.255,258.557L132.255,258.557z M117.802,256.622h7.857
		c-0.587-1.942-1.987-2.991-4.008-2.991C119.7,253.631,118.343,254.691,117.802,256.622z"/>
	<path d="M147.959,248.93v6.127h-2.6c-2.37,0-3.363,1.039-3.363,3.519v9.884h-6.695v-19.438h4.485l1.045,2.158
		c1.371-1.586,3.041-2.25,5.354-2.25H147.959z"/>
	<path d="M170.923,249.021l-8.146,18.573c-2.62,5.948-5.029,8.098-10.047,8.098h-2.293v-5.753h1.841
		c2.562,0,3.334-0.667,4.241-3.086l-8.033-17.832h7.275l4.125,10.708l3.844-10.708H170.923z"/>
	<path d="M196.402,269.096c-6.234,0-10.733-4.367-10.733-10.382s4.479-10.299,10.754-10.299c5.462,0,9.56,3.444,10.292,8.614h-6.522
		c-0.563-1.586-2.045-2.615-3.791-2.615c-2.353,0-4.027,1.788-4.027,4.32c0,2.533,1.695,4.362,4.027,4.362
		c1.796,0,3.252-1.101,3.806-2.835h6.578C206.028,265.539,201.875,269.097,196.402,269.096L196.402,269.096z"/>
	<path d="M208.548,258.74c0-6.025,4.561-10.355,10.898-10.355c6.317,0,10.898,4.33,10.898,10.355
		c0,6.006-4.581,10.356-10.898,10.356C213.109,269.097,208.548,264.746,208.548,258.74z M223.638,258.741
		c0-2.554-1.75-4.341-4.192-4.341s-4.192,1.771-4.192,4.341s1.75,4.341,4.192,4.341S223.638,261.311,223.638,258.741z"/>
	<path d="M263.258,256.268v12.191h-6.695v-11.363c0-2.029-0.747-3.01-2.17-3.01c-1.84,0-2.783,1.268-2.783,3.716v10.657h-6.521
		v-11.363c0-1.969-0.742-3.01-2.144-3.01c-1.814,0-2.81,1.299-2.81,3.716v10.657h-6.695v-19.438h4.708l0.953,2.089
		c1.405-1.636,3.443-2.663,5.682-2.663c2.369,0,4.365,1.064,5.574,2.861c1.397-1.758,3.549-2.861,5.969-2.861
		C260.49,248.447,263.258,251.691,263.258,256.268z"/>
	<path d="M288.793,258.74c0,6.057-4.249,10.377-10.192,10.377c-1.758,0-3.367-0.463-4.738-1.291v7.652h-6.619v-26.457h4.553
		l0.839,1.545c1.598-1.383,3.655-2.182,5.965-2.182C284.544,248.385,288.793,252.685,288.793,258.74z M282.057,258.74
		c0-2.553-1.843-4.448-4.351-4.448s-4.351,1.896-4.351,4.448c0,2.554,1.843,4.448,4.351,4.448
		C280.198,263.188,282.057,261.294,282.057,258.74z"/>
	<path d="M311.896,258.557c0,0.586-0.051,1.172-0.138,1.773h-14.433c0.438,2.229,1.854,3.382,3.968,3.382
		c1.564,0,2.871-0.685,3.514-1.823h6.662c-1.368,4.437-5.3,7.209-10.176,7.209c-6.065,0-10.558-4.434-10.558-10.371
		c0-5.959,4.457-10.342,10.558-10.342C307.558,248.385,311.896,252.855,311.896,258.557L311.896,258.557z M297.443,256.622h7.857
		c-0.587-1.942-1.987-2.991-4.008-2.991C299.341,253.631,297.984,254.691,297.443,256.622z"/>
	<path d="M327.764,262.596v5.863h-4.606c-4.298,0-6.911-2.627-6.911-6.947v-7.334h-3.558v-1.564l8.709-9.274h1.375v5.683h4.883
		v5.156h-4.714v6.186c0,1.393,0.84,2.232,2.252,2.232H327.764z"/>
	<path d="M330.891,249.021h6.695v19.438h-6.695V249.021z M330.942,240.907h6.592v5.683h-6.592V240.907z"/>
	<path d="M354.907,262.596v5.863H350.3c-4.298,0-6.911-2.627-6.911-6.947v-7.334h-3.558v-1.564l8.709-9.274h1.375v5.683h4.883v5.156
		h-4.714v6.186c0,1.393,0.84,2.232,2.252,2.232H354.907z"/>
	<path d="M358.034,249.021h6.695v19.438h-6.695V249.021z M358.085,240.907h6.592v5.683h-6.592V240.907z"/>
	<path d="M388.645,249.021l-7.814,19.438h-6.065l-7.918-19.438h7.335l3.674,11.513l3.632-11.513H388.645z"/>
	<path d="M409.959,258.557c0,0.586-0.051,1.172-0.138,1.773h-14.433c0.438,2.229,1.854,3.382,3.968,3.382
		c1.564,0,2.871-0.685,3.514-1.823h6.662c-1.368,4.437-5.3,7.209-10.176,7.209c-6.065,0-10.558-4.434-10.558-10.371
		c0-5.959,4.457-10.342,10.558-10.342C405.621,248.385,409.959,252.855,409.959,258.557L409.959,258.557z M395.506,256.622h7.857
		c-0.587-1.942-1.987-2.991-4.008-2.991C397.404,253.631,396.047,254.691,395.506,256.622z"/>
	<path d="M444.328,262.782v5.677h-17.803v-1.457c9.631-11.359,10.958-13.195,10.958-15.25c0-1.298-0.855-2.168-2.081-2.168
		c-1.344,0-2.163,0.906-2.163,2.348v0.462h-6.328v-0.442c0-4.84,3.172-8.039,8.413-8.039c5.078,0,8.583,3.121,8.583,7.615
		c0,3.012-1.114,5.324-6.234,11.255H444.328z"/>
	<path d="M466.108,264.158h-2.163v4.301h-6.151v-4.301h-11.491v-1.17l7.668-18.466h6.357l-5.929,14.272h3.828l1.404-5.271h4.313
		v5.271h2.163L466.108,264.158z"/>
	<path d="M468.952,255.457h13.181v6.082h-13.181V255.457z"/>
	<path d="M505.411,256.754v11.705h-6.695v-10.927c0-2.241-0.788-3.385-2.535-3.385c-2.026,0-3.289,1.438-3.289,3.933v10.379h-6.695
		v-26.456h6.695v8.298c1.431-1.152,3.251-1.854,5.189-1.854C502.543,248.447,505.411,251.717,505.411,256.754z"/>
	<path d="M508.285,258.74c0-6.025,4.561-10.355,10.898-10.355c6.317,0,10.898,4.33,10.898,10.355
		c0,6.006-4.581,10.356-10.898,10.356C512.845,269.097,508.285,264.746,508.285,258.74z M523.375,258.741
		c0-2.554-1.75-4.341-4.192-4.341s-4.192,1.771-4.192,4.341s1.75,4.341,4.192,4.341S523.375,261.311,523.375,258.741z"/>
	<path d="M532.924,260.115v-11.094h6.695v10.803c0,2.051,1.103,3.258,2.892,3.258c1.789,0,2.871-1.227,2.871-3.258v-10.803h6.695
		v11.094c0,5.438-3.824,8.981-9.565,8.981C536.77,269.097,532.924,265.554,532.924,260.115z"/>
	<path d="M568.694,248.93v6.127h-2.599c-2.371,0-3.363,1.039-3.363,3.519v9.884h-6.695v-19.438h4.485l1.045,2.158
		c1.371-1.586,3.041-2.25,5.354-2.25H568.694z"/>
	<path d="M596.882,262.596v5.863h-4.606c-4.299,0-6.911-2.627-6.911-6.947v-7.334h-3.558v-1.564l8.708-9.274h1.376v5.683h4.883
		v5.156h-4.714v6.186c0,1.393,0.84,2.232,2.252,2.232H596.882z"/>
	<path d="M619.719,260.33h-14.433c0.438,2.229,1.854,3.382,3.968,3.382c1.564,0,2.871-0.685,3.515-1.823h6.662
		c-1.368,4.437-5.3,7.209-10.177,7.209c-6.064,0-10.558-4.434-10.558-10.371c0-5.959,4.457-10.342,10.558-10.342
		c6.266,0,10.604,4.471,10.604,10.172C619.857,259.143,619.807,259.729,619.719,260.33z M605.404,256.622h7.857
		c-0.587-1.942-1.987-2.991-4.008-2.991C607.303,253.631,605.946,254.691,605.404,256.622z"/>
	<path d="M632.521,269.096c-6.233,0-10.732-4.367-10.732-10.382s4.479-10.299,10.753-10.299c5.463,0,9.56,3.444,10.292,8.614h-6.521
		c-0.563-1.586-2.046-2.615-3.791-2.615c-2.353,0-4.027,1.788-4.027,4.32c0,2.533,1.695,4.362,4.027,4.362
		c1.797,0,3.253-1.101,3.806-2.835h6.578C642.148,265.539,637.995,269.097,632.521,269.096L632.521,269.096z"/>
	<path d="M665.016,256.754v11.705h-6.695v-10.927c0-2.241-0.788-3.385-2.535-3.385c-2.025,0-3.289,1.438-3.289,3.933v10.379h-6.694
		v-26.456h6.694v8.298c1.432-1.152,3.252-1.854,5.189-1.854C662.147,248.447,665.016,251.717,665.016,256.754z"/>
	<path d="M688.234,256.607v11.852h-6.695v-10.927c0-2.263-0.85-3.385-2.535-3.385c-2.088,0-3.289,1.458-3.289,3.933v10.379h-6.694
		v-19.438h4.696l0.92,2.005c1.447-1.612,3.605-2.579,6.119-2.579C685.27,248.447,688.234,251.654,688.234,256.607z"/>
	<path d="M692.241,249.021h6.695v19.438h-6.695V249.021z M692.292,240.907h6.593v5.683h-6.593V240.907z"/>
	<path d="M712.766,269.096c-6.233,0-10.732-4.367-10.732-10.382s4.479-10.299,10.753-10.299c5.463,0,9.56,3.444,10.292,8.614h-6.521
		c-0.563-1.586-2.046-2.615-3.791-2.615c-2.353,0-4.027,1.788-4.027,4.32c0,2.533,1.695,4.362,4.027,4.362
		c1.797,0,3.253-1.101,3.806-2.835h6.578C722.393,265.539,718.239,269.097,712.766,269.096L712.766,269.096z"/>
	<path d="M746.733,249.002v19.438h-5.176l-0.573-1.375c-1.592,1.289-3.607,2.032-5.865,2.032c-5.943,0-10.192-4.336-10.192-10.377
		c0-6.021,4.249-10.304,10.192-10.304c2.289,0,4.334,0.764,5.939,2.088l0.685-1.503L746.733,249.002z M740.365,258.735
		c0-2.522-1.843-4.418-4.351-4.418c-2.523,0-4.352,1.896-4.352,4.418c0,2.538,1.844,4.433,4.352,4.433
		S740.365,261.273,740.365,258.735z"/>
	<path d="M750.956,242.003h6.694v26.456h-6.694V242.003z"/>
	<path d="M784.016,269.096c-5.298,0-8.518-2.797-8.579-7.009h6.444c0,1.421,0.989,2.075,2.259,2.075
		c0.979,0,1.908-0.499,1.908-1.504c0-1.121-1.472-1.44-3.339-1.75c-3.014-0.488-7.01-1.397-7.01-6.111
		c0-3.896,3.32-6.412,8.301-6.412c4.95,0,8.158,2.633,8.234,6.572h-6.271c0-1.242-0.834-1.818-2.047-1.818
		c-1.073,0-1.795,0.531-1.795,1.432c0,1.106,1.487,1.363,3.334,1.693c3.07,0.545,7.152,1.184,7.152,6.113
		C792.608,266.438,789.181,269.097,784.016,269.096L784.016,269.096z"/>
	<path d="M795.489,260.115v-11.094h6.694v10.803c0,2.051,1.104,3.258,2.893,3.258c1.788,0,2.87-1.227,2.87-3.258v-10.803h6.695
		v11.094c0,5.438-3.824,8.981-9.565,8.981C799.334,269.097,795.489,265.554,795.489,260.115z"/>
	<path d="M840.149,258.74c0,6.057-4.248,10.377-10.191,10.377c-1.758,0-3.367-0.463-4.739-1.291v7.652h-6.618v-26.457h4.553
		l0.839,1.545c1.599-1.383,3.655-2.182,5.966-2.182C835.901,248.385,840.149,252.685,840.149,258.74z M833.413,258.74
		c0-2.553-1.844-4.448-4.352-4.448s-4.351,1.896-4.351,4.448c0,2.554,1.843,4.448,4.351,4.448
		C831.555,263.188,833.413,261.294,833.413,258.74z"/>
	<path d="M864.772,258.74c0,6.057-4.248,10.377-10.191,10.377c-1.758,0-3.367-0.463-4.739-1.291v7.652h-6.618v-26.457h4.553
		l0.839,1.545c1.599-1.383,3.655-2.182,5.966-2.182C860.524,248.385,864.772,252.685,864.772,258.74z M858.036,258.74
		c0-2.553-1.844-4.448-4.352-4.448s-4.351,1.896-4.351,4.448c0,2.554,1.843,4.448,4.351,4.448
		C856.178,263.188,858.036,261.294,858.036,258.74z"/>
	<path d="M866.716,258.74c0-6.025,4.562-10.355,10.898-10.355c6.316,0,10.897,4.33,10.897,10.355
		c0,6.006-4.581,10.356-10.897,10.356C871.277,269.097,866.716,264.746,866.716,258.74z M881.807,258.741
		c0-2.554-1.751-4.341-4.192-4.341s-4.192,1.771-4.192,4.341s1.751,4.341,4.192,4.341S881.807,261.311,881.807,258.741z"/>
	<path d="M904.266,248.93v6.127h-2.6c-2.37,0-3.363,1.039-3.363,3.519v9.884h-6.694v-19.438h4.485l1.044,2.158
		c1.371-1.586,3.041-2.25,5.354-2.25H904.266z"/>
	<path d="M920.232,262.596v5.863h-4.606c-4.299,0-6.911-2.627-6.911-6.947v-7.334h-3.558v-1.564l8.709-9.274h1.375v5.683h4.884
		v5.156h-4.715v6.186c0,1.393,0.84,2.232,2.253,2.232H920.232z"/>
	<path d="M945.513,269.096c-5.298,0-8.518-2.797-8.579-7.009h6.444c0,1.421,0.989,2.075,2.259,2.075
		c0.979,0,1.908-0.499,1.908-1.504c0-1.121-1.472-1.44-3.339-1.75c-3.014-0.488-7.01-1.397-7.01-6.111
		c0-3.896,3.32-6.412,8.301-6.412c4.95,0,8.158,2.633,8.234,6.572h-6.271c0-1.242-0.834-1.818-2.047-1.818
		c-1.073,0-1.795,0.531-1.795,1.432c0,1.106,1.487,1.363,3.334,1.693c3.07,0.545,7.152,1.184,7.152,6.113
		C954.105,266.438,950.678,269.097,945.513,269.096L945.513,269.096z"/>
	<path d="M956.104,258.74c0-6.025,4.562-10.355,10.898-10.355c6.316,0,10.897,4.33,10.897,10.355
		c0,6.006-4.581,10.356-10.897,10.356C960.666,269.097,956.104,264.746,956.104,258.74z M971.195,258.741
		c0-2.554-1.751-4.341-4.192-4.341s-4.192,1.771-4.192,4.341s1.751,4.341,4.192,4.341S971.195,261.311,971.195,258.741z"/>
	<path d="M1007.478,262.596v5.863h-4.606c-4.299,0-6.911-2.627-6.911-6.947v-7.334h-3.558v-1.564l8.709-9.274h1.375v5.683h4.884
		v5.156h-4.715v6.186c0,1.393,0.84,2.232,2.253,2.232H1007.478z"/>
	<path d="M1029.817,256.754v11.705h-6.695v-10.927c0-2.241-0.788-3.385-2.535-3.385c-2.025,0-3.289,1.438-3.289,3.933v10.379h-6.694
		v-26.456h6.694v8.298c1.432-1.152,3.252-1.854,5.189-1.854C1026.949,248.447,1029.817,251.717,1029.817,256.754z"/>
	<path d="M1054.514,249.002v19.438h-5.176l-0.573-1.375c-1.592,1.289-3.607,2.032-5.865,2.032c-5.943,0-10.192-4.336-10.192-10.377
		c0-6.021,4.249-10.304,10.192-10.304c2.289,0,4.334,0.764,5.939,2.088l0.685-1.503L1054.514,249.002z M1048.146,258.735
		c0-2.522-1.843-4.418-4.351-4.418c-2.523,0-4.352,1.896-4.352,4.418c0,2.538,1.844,4.433,4.352,4.433
		S1048.146,261.273,1048.146,258.735z"/>
	<path d="M1071.843,262.596v5.863h-4.606c-4.299,0-6.911-2.627-6.911-6.947v-7.334h-3.558v-1.564l8.709-9.274h1.375v5.683h4.884
		v5.156h-4.715v6.186c0,1.393,0.84,2.232,2.253,2.232H1071.843z"/>
	<path d="M111.56,297.021l-8.146,18.573c-2.62,5.948-5.029,8.098-10.047,8.098h-2.293v-5.753h1.841c2.562,0,3.334-0.667,4.241-3.086
		l-8.033-17.832h7.275l4.125,10.708l3.844-10.708H111.56z"/>
	<path d="M111.49,306.74c0-6.025,4.561-10.355,10.898-10.355c6.317,0,10.898,4.33,10.898,10.355c0,6.006-4.581,10.356-10.898,10.356
		C116.051,317.097,111.49,312.746,111.49,306.74z M126.58,306.741c0-2.554-1.75-4.341-4.192-4.341s-4.192,1.771-4.192,4.341
		s1.75,4.341,4.192,4.341S126.58,309.311,126.58,306.741z"/>
	<path d="M136.13,308.115v-11.094h6.695v10.803c0,2.051,1.103,3.258,2.892,3.258c1.789,0,2.871-1.227,2.871-3.258v-10.803h6.695
		v11.094c0,5.438-3.824,8.981-9.566,8.981S136.13,313.554,136.13,308.115z"/>
	<path d="M196.872,304.268v12.191h-6.695v-11.363c0-2.029-0.747-3.01-2.17-3.01c-1.84,0-2.783,1.268-2.783,3.716v10.657h-6.521
		v-11.363c0-1.969-0.742-3.01-2.144-3.01c-1.814,0-2.81,1.299-2.81,3.716v10.657h-6.695v-19.438h4.708l0.953,2.089
		c1.405-1.636,3.443-2.663,5.682-2.663c2.369,0,4.365,1.064,5.574,2.861c1.397-1.758,3.549-2.861,5.969-2.861
		C194.104,296.447,196.872,299.691,196.872,304.268z"/>
	<path d="M221.547,297.002v19.438h-5.176l-0.573-1.375c-1.592,1.289-3.607,2.032-5.865,2.032c-5.943,0-10.192-4.336-10.192-10.377
		c0-6.021,4.249-10.304,10.192-10.304c2.29,0,4.334,0.764,5.939,2.088l0.685-1.503L221.547,297.002z M215.18,306.735
		c0-2.522-1.844-4.418-4.352-4.418c-2.523,0-4.351,1.896-4.351,4.418c0,2.538,1.843,4.433,4.351,4.433
		S215.18,309.273,215.18,306.735z"/>
	<path d="M246.091,297.021l-8.146,18.573c-2.62,5.948-5.029,8.098-10.047,8.098h-2.293v-5.753h1.841
		c2.562,0,3.334-0.667,4.241-3.086l-8.033-17.832h7.275l4.125,10.708l3.844-10.708H246.091z"/>
	<path d="M275.799,297.002v19.438h-5.176l-0.573-1.375c-1.592,1.289-3.607,2.032-5.865,2.032c-5.943,0-10.192-4.336-10.192-10.377
		c0-6.021,4.249-10.304,10.192-10.304c2.29,0,4.334,0.764,5.939,2.088l0.685-1.503L275.799,297.002z M269.432,306.735
		c0-2.522-1.844-4.418-4.352-4.418c-2.523,0-4.351,1.896-4.351,4.418c0,2.538,1.843,4.433,4.351,4.433
		S269.432,309.273,269.432,306.735z"/>
	<path d="M289.638,317.096c-6.234,0-10.733-4.367-10.733-10.382s4.479-10.299,10.754-10.299c5.462,0,9.56,3.444,10.292,8.614h-6.522
		c-0.563-1.586-2.045-2.615-3.791-2.615c-2.353,0-4.027,1.788-4.027,4.32c0,2.533,1.695,4.362,4.027,4.362
		c1.796,0,3.252-1.101,3.806-2.835h6.578C299.265,313.539,295.111,317.097,289.638,317.096L289.638,317.096z"/>
	<path d="M312.534,317.096c-6.234,0-10.733-4.367-10.733-10.382s4.479-10.299,10.754-10.299c5.462,0,9.56,3.444,10.292,8.614h-6.522
		c-0.563-1.586-2.045-2.615-3.791-2.615c-2.353,0-4.027,1.788-4.027,4.32c0,2.533,1.695,4.362,4.027,4.362
		c1.796,0,3.252-1.101,3.806-2.835h6.578C322.16,313.539,318.007,317.097,312.534,317.096L312.534,317.096z"/>
	<path d="M325.56,308.115v-11.094h6.695v10.803c0,2.051,1.103,3.258,2.892,3.258c1.789,0,2.871-1.227,2.871-3.258v-10.803h6.695
		v11.094c0,5.438-3.824,8.981-9.565,8.981C329.405,317.097,325.56,313.554,325.56,308.115z"/>
	<path d="M361.33,296.93v6.127h-2.599c-2.371,0-3.363,1.039-3.363,3.519v9.884h-6.695v-19.438h4.485l1.045,2.158
		c1.371-1.586,3.041-2.25,5.354-2.25H361.33z"/>
	<path d="M384.23,297.002v19.438h-5.176l-0.573-1.375c-1.592,1.289-3.607,2.032-5.865,2.032c-5.943,0-10.192-4.336-10.192-10.377
		c0-6.021,4.249-10.304,10.192-10.304c2.29,0,4.334,0.764,5.939,2.088l0.685-1.503L384.23,297.002z M377.862,306.735
		c0-2.522-1.844-4.418-4.352-4.418c-2.523,0-4.351,1.896-4.351,4.418c0,2.538,1.843,4.433,4.351,4.433
		S377.862,309.273,377.862,306.735z"/>
	<path d="M401.561,310.596v5.863h-4.606c-4.298,0-6.911-2.627-6.911-6.947v-7.334h-3.558v-1.564l8.709-9.274h1.375v5.683h4.883
		v5.156h-4.714v6.186c0,1.393,0.84,2.232,2.252,2.232H401.561z"/>
	<path d="M424.536,306.557c0,0.586-0.051,1.172-0.138,1.773h-14.433c0.438,2.229,1.854,3.382,3.968,3.382
		c1.564,0,2.871-0.685,3.514-1.823h6.662c-1.368,4.437-5.3,7.209-10.176,7.209c-6.065,0-10.558-4.434-10.558-10.371
		c0-5.959,4.457-10.342,10.558-10.342C420.198,296.385,424.537,300.855,424.536,306.557L424.536,306.557z M410.083,304.622h7.857
		c-0.587-1.942-1.987-2.991-4.008-2.991C411.981,301.631,410.625,302.691,410.083,304.622z"/>
	<path d="M427.583,290.003h6.695v26.456h-6.695V290.003z"/>
	<path d="M458.813,297.021l-8.146,18.573c-2.62,5.948-5.029,8.098-10.047,8.098h-2.293v-5.753h1.841
		c2.562,0,3.334-0.667,4.241-3.086l-8.033-17.832h7.275l4.125,10.708l3.844-10.708H458.813z"/>
	<path d="M489.381,306.74c0,6.057-4.249,10.377-10.192,10.377c-1.758,0-3.367-0.463-4.738-1.291v7.652h-6.619v-26.457h4.553
		l0.839,1.545c1.598-1.383,3.656-2.182,5.965-2.182C485.132,296.385,489.381,300.685,489.381,306.74z M482.644,306.74
		c0-2.553-1.843-4.448-4.351-4.448s-4.351,1.896-4.351,4.448c0,2.554,1.843,4.448,4.351,4.448
		C480.785,311.188,482.644,309.294,482.644,306.74z"/>
	<path d="M513.145,297.002v19.438h-5.176l-0.573-1.375c-1.592,1.289-3.607,2.032-5.865,2.032c-5.943,0-10.192-4.336-10.192-10.377
		c0-6.021,4.249-10.304,10.192-10.304c2.289,0,4.334,0.764,5.939,2.088l0.685-1.503L513.145,297.002z M506.776,306.735
		c0-2.522-1.843-4.418-4.351-4.418c-2.523,0-4.351,1.896-4.351,4.418c0,2.538,1.843,4.433,4.351,4.433
		S506.776,309.273,506.776,306.735z"/>
	<path d="M530.024,296.93v6.127h-2.599c-2.371,0-3.363,1.039-3.363,3.519v9.884h-6.695v-19.438h4.485l1.045,2.158
		c1.371-1.586,3.041-2.25,5.354-2.25H530.024z"/>
	<path d="M545.991,310.596v5.863h-4.606c-4.298,0-6.911-2.627-6.911-6.947v-7.334h-3.558v-1.564l8.709-9.274H541v5.683h4.883v5.156
		h-4.714v6.186c0,1.393,0.84,2.232,2.252,2.232H545.991z"/>
	<path d="M549.118,297.021h6.695v19.438h-6.695V297.021z M549.169,288.907h6.592v5.683h-6.592V288.907z"/>
	<path d="M569.643,317.096c-6.234,0-10.733-4.367-10.733-10.382s4.479-10.299,10.754-10.299c5.462,0,9.56,3.444,10.292,8.614h-6.522
		c-0.563-1.586-2.045-2.615-3.791-2.615c-2.353,0-4.027,1.788-4.027,4.32c0,2.533,1.695,4.362,4.027,4.362
		c1.796,0,3.252-1.101,3.806-2.835h6.578C579.269,313.539,575.116,317.097,569.643,317.096L569.643,317.096z"/>
	<path d="M582.922,297.021h6.695v19.438h-6.695V297.021z M582.973,288.907h6.593v5.683h-6.593V288.907z"/>
	<path d="M615.379,306.74c0,6.057-4.248,10.377-10.191,10.377c-1.758,0-3.367-0.463-4.739-1.291v7.652h-6.618v-26.457h4.553
		l0.839,1.545c1.599-1.383,3.655-2.182,5.966-2.182C611.131,296.385,615.379,300.685,615.379,306.74z M608.643,306.74
		c0-2.553-1.844-4.448-4.352-4.448s-4.351,1.896-4.351,4.448c0,2.554,1.843,4.448,4.351,4.448
		C606.784,311.188,608.643,309.294,608.643,306.74z"/>
	<path d="M639.144,297.002v19.438h-5.176l-0.573-1.375c-1.592,1.289-3.607,2.032-5.865,2.032c-5.943,0-10.192-4.336-10.192-10.377
		c0-6.021,4.249-10.304,10.192-10.304c2.289,0,4.334,0.764,5.939,2.088l0.685-1.503L639.144,297.002z M632.775,306.735
		c0-2.522-1.843-4.418-4.351-4.418c-2.523,0-4.352,1.896-4.352,4.418c0,2.538,1.844,4.433,4.352,4.433
		S632.775,309.273,632.775,306.735z"/>
	<path d="M656.474,310.596v5.863h-4.606c-4.299,0-6.911-2.627-6.911-6.947v-7.334h-3.558v-1.564l8.709-9.274h1.375v5.683h4.884
		v5.156h-4.715v6.186c0,1.393,0.84,2.232,2.253,2.232H656.474z"/>
	<path d="M679.311,308.33h-14.433c0.438,2.229,1.854,3.382,3.968,3.382c1.564,0,2.871-0.685,3.515-1.823h6.662
		c-1.368,4.437-5.3,7.209-10.177,7.209c-6.064,0-10.558-4.434-10.558-10.371c0-5.959,4.457-10.342,10.558-10.342
		c6.266,0,10.604,4.471,10.604,10.172C679.449,307.143,679.398,307.729,679.311,308.33z M664.996,304.622h7.857
		c-0.587-1.942-1.987-2.991-4.008-2.991C666.895,301.631,665.538,302.691,664.996,304.622z"/>
	<path d="M690.308,297.021h6.695v19.438h-6.695V297.021z M690.358,288.907h6.593v5.683h-6.593V288.907z"/>
	<path d="M720.43,304.607v11.852h-6.695v-10.927c0-2.263-0.85-3.385-2.535-3.385c-2.088,0-3.289,1.458-3.289,3.933v10.379h-6.694
		v-19.438h4.696l0.92,2.005c1.447-1.612,3.605-2.579,6.119-2.579C717.465,296.447,720.43,299.654,720.43,304.607z"/>
	<path d="M744.672,310.596v5.863h-4.606c-4.299,0-6.911-2.627-6.911-6.947v-7.334h-3.558v-1.564l8.709-9.274h1.375v5.683h4.884
		v5.156h-4.715v6.186c0,1.393,0.84,2.232,2.253,2.232H744.672z"/>
	<path d="M767.013,304.754v11.705h-6.695v-10.927c0-2.241-0.788-3.385-2.535-3.385c-2.025,0-3.289,1.438-3.289,3.933v10.379h-6.694
		v-26.456h6.694v8.298c1.432-1.152,3.252-1.854,5.189-1.854C764.145,296.447,767.013,299.717,767.013,304.754z"/>
	<path d="M790.908,308.33h-14.433c0.438,2.229,1.854,3.382,3.968,3.382c1.564,0,2.871-0.685,3.515-1.823h6.662
		c-1.368,4.437-5.3,7.209-10.177,7.209c-6.064,0-10.558-4.434-10.558-10.371c0-5.959,4.457-10.342,10.558-10.342
		c6.266,0,10.604,4.471,10.604,10.172C791.047,307.143,790.996,307.729,790.908,308.33z M776.594,304.622h7.857
		c-0.587-1.942-1.987-2.991-4.008-2.991C778.492,301.631,777.136,302.691,776.594,304.622z"/>
	<path d="M822.008,297.022v17.278c0,6.107-3.999,9.892-10.419,9.892c-5.516,0-9.377-2.781-10.271-7.388h6.461
		c0.463,1.299,2.122,1.999,3.749,1.999c2.243,0,4.046-1.426,4.046-3.737v-0.58c-1.461,0.928-3.195,1.459-5.072,1.459
		c-5.572,0-9.713-4.146-9.713-9.77c0-5.542,4.141-9.775,9.713-9.775c2.354,0,4.483,0.844,6.131,2.252l0.85-1.631L822.008,297.022z
		 M811.613,310.434c2.403,0,4.134-1.781,4.134-4.258c0-2.455-1.725-4.236-4.134-4.236c-2.404,0-4.15,1.781-4.15,4.236
		C807.463,308.652,809.188,310.434,811.613,310.434L811.613,310.434z"/>
	<path d="M826.241,290.003h6.694v26.456h-6.694V290.003z"/>
	<path d="M836.017,306.74c0-6.025,4.562-10.355,10.898-10.355c6.316,0,10.897,4.33,10.897,10.355
		c0,6.006-4.581,10.356-10.897,10.356C840.578,317.097,836.017,312.746,836.017,306.74z M851.107,306.741
		c0-2.554-1.751-4.341-4.192-4.341s-4.192,1.771-4.192,4.341s1.751,4.341,4.192,4.341S851.107,309.311,851.107,306.741z"/>
	<path d="M872.357,296.415c5.985,0,10.213,4.3,10.213,10.341s-4.228,10.34-10.213,10.34c-2.268,0-4.283-0.76-5.863-2.079
		l-0.631,1.442h-4.954v-26.456h6.618v7.753C868.919,296.896,870.561,296.416,872.357,296.415L872.357,296.415z M875.813,306.756
		c0-2.539-1.844-4.434-4.352-4.434s-4.351,1.895-4.351,4.434c0,2.518,1.843,4.412,4.351,4.412
		C873.955,311.168,875.813,309.273,875.813,306.756z"/>
	<path d="M906.33,297.002v19.438h-5.176l-0.573-1.375c-1.592,1.289-3.607,2.032-5.865,2.032c-5.943,0-10.192-4.336-10.192-10.377
		c0-6.021,4.249-10.304,10.192-10.304c2.289,0,4.334,0.764,5.939,2.088l0.685-1.503L906.33,297.002z M899.962,306.735
		c0-2.522-1.843-4.418-4.351-4.418c-2.523,0-4.352,1.896-4.352,4.418c0,2.538,1.844,4.433,4.352,4.433
		S899.962,309.273,899.962,306.735z"/>
	<path d="M910.552,290.003h6.694v26.456h-6.694V290.003z"/>
	<path d="M959.089,304.268v12.191h-6.695v-11.363c0-2.029-0.747-3.01-2.17-3.01c-1.84,0-2.783,1.268-2.783,3.716v10.657h-6.521
		v-11.363c0-1.969-0.742-3.01-2.144-3.01c-1.815,0-2.811,1.299-2.811,3.716v10.657h-6.694v-19.438h4.707l0.954,2.089
		c1.404-1.636,3.442-2.663,5.682-2.663c2.369,0,4.364,1.064,5.574,2.861c1.396-1.758,3.549-2.861,5.97-2.861
		C956.321,296.447,959.089,299.691,959.089,304.268z"/>
	<path d="M983.765,297.002v19.438h-5.176l-0.573-1.375c-1.592,1.289-3.607,2.032-5.865,2.032c-5.943,0-10.192-4.336-10.192-10.377
		c0-6.021,4.249-10.304,10.192-10.304c2.289,0,4.334,0.764,5.939,2.088l0.685-1.503L983.765,297.002z M977.396,306.735
		c0-2.522-1.843-4.418-4.351-4.418c-2.523,0-4.352,1.896-4.352,4.418c0,2.538,1.844,4.433,4.352,4.433
		S977.396,309.273,977.396,306.735z"/>
	<path d="M1000.644,296.93v6.127h-2.6c-2.37,0-3.363,1.039-3.363,3.519v9.884h-6.694v-19.438h4.485l1.044,2.158
		c1.371-1.586,3.041-2.25,5.354-2.25H1000.644z"/>
	<path d="M1015.031,316.459l-4.868-8.219v8.219h-6.695v-26.456h6.695v14.634l4.63-7.615h7.518l-6.058,9.265l6.671,10.173H1015.031z"
		/>
	<path d="M1043.658,308.33h-14.433c0.438,2.229,1.854,3.382,3.968,3.382c1.564,0,2.871-0.685,3.515-1.823h6.662
		c-1.368,4.437-5.3,7.209-10.177,7.209c-6.064,0-10.558-4.434-10.558-10.371c0-5.959,4.457-10.342,10.558-10.342
		c6.266,0,10.604,4.471,10.604,10.172C1043.797,307.143,1043.746,307.729,1043.658,308.33z M1029.344,304.622h7.857
		c-0.587-1.942-1.987-2.991-4.008-2.991C1031.242,301.631,1029.886,302.691,1029.344,304.622z"/>
	<path d="M1059.665,310.596v5.863h-4.606c-4.299,0-6.911-2.627-6.911-6.947v-7.334h-3.558v-1.564l8.709-9.274h1.375v5.683h4.884
		v5.156h-4.715v6.186c0,1.393,0.84,2.232,2.253,2.232H1059.665z"/>
	<path d="M1062.544,310.24h6.495v6.219h-6.495V310.24z"/>
</g>
</svg>