<!-- Generator: Adobe Illustrator 21.0.0, SVG Export Plug-In  -->
<svg version="1.1"
	 xmlns="http://www.w3.org/2000/svg" xmlns:xlink="http://www.w3.org/1999/xlink" xmlns:a="http://ns.adobe.com/AdobeSVGViewerExtensions/3.0/"
	 x="0px" y="0px" width="349.483px" height="105.445px" viewBox="0 0 349.483 105.445"
	 style="enable-background:new 0 0 349.483 105.445;" xml:space="preserve">
<style type="text/css">
	.st0{fill:none;}
	.st1{font-family:'Mont-HeavyDEMO';}
	.st2{font-size:30px;}
</style>
<defs>
</defs>
<g>
	<rect y="3.45" class="st0" width="349.483" height="101.995"/>
	<path d="M25.782,4.501h5.862V25.5h-5.862V4.501z"/>
	<path d="M52.022,15.622V25.5h-5.58v-9.106c0-1.886-0.708-2.821-2.112-2.821c-1.74,0-2.741,1.216-2.741,3.277v8.65h-5.58V9.301
		h3.915l0.767,1.67c1.206-1.344,3.004-2.149,5.1-2.149C49.551,8.821,52.022,11.495,52.022,15.622z"/>
	<path d="M66.943,20.613V25.5h-3.84c-3.582,0-5.76-2.189-5.76-5.79v-6.112h-2.965v-1.305l7.258-7.729h1.146v4.736h4.069v4.297
		h-3.929v5.155c0,1.16,0.7,1.86,1.877,1.86H66.943z"/>
	<path d="M80.876,9.224v5.106H78.71c-1.976,0-2.803,0.866-2.803,2.933V25.5h-5.58V9.301h3.738l0.871,1.798
		c1.142-1.321,2.533-1.875,4.462-1.875H80.876z"/>
	<path d="M82.554,17.4c0-5.021,3.801-8.631,9.083-8.631c5.264,0,9.082,3.609,9.082,8.631c0,5.004-3.818,8.631-9.082,8.631
		C86.355,26.031,82.554,22.404,82.554,17.4z M95.13,17.401c0-2.13-1.459-3.618-3.493-3.618c-2.035,0-3.494,1.476-3.494,3.617
		s1.459,3.618,3.494,3.618C93.671,21.019,95.13,19.543,95.13,17.401z"/>
	<path d="M121.187,3.451V25.5h-4.129l-0.525-1.203c-1.318,1.109-3,1.751-4.887,1.751c-4.971,0-8.512-3.613-8.512-8.647
		s3.541-8.631,8.512-8.631c1.496,0,2.864,0.403,4.025,1.125V3.451H121.187z M116.019,17.4c0-2.115-1.536-3.707-3.627-3.707
		c-2.09,0-3.626,1.592-3.626,3.707s1.536,3.707,3.626,3.707C114.482,21.107,116.019,19.516,116.019,17.4z"/>
	<path d="M125.257,18.546V9.301h5.58v9.002c0,1.71,0.919,2.716,2.41,2.716c1.49,0,2.393-1.022,2.393-2.716V9.301h5.579v9.245
		c0,4.532-3.187,7.485-7.972,7.485S125.257,23.078,125.257,18.546z"/>
	<path d="M153.312,26.03c-5.194,0-8.944-3.64-8.944-8.652s3.732-8.583,8.962-8.583c4.553,0,7.967,2.87,8.577,7.179h-5.436
		c-0.469-1.321-1.704-2.179-3.159-2.179c-1.961,0-3.356,1.49-3.356,3.601s1.413,3.636,3.356,3.636c1.497,0,2.711-0.918,3.172-2.363
		h5.482C161.335,23.066,157.873,26.031,153.312,26.03L153.312,26.03z"/>
	<path d="M165.158,9.301h5.579V25.5h-5.579V9.301z M165.2,2.538h5.494v4.735H165.2V2.538z"/>
	<path d="M191.04,15.622V25.5h-5.58v-9.106c0-1.886-0.708-2.821-2.112-2.821c-1.74,0-2.741,1.216-2.741,3.277v8.65h-5.58V9.301
		h3.915l0.767,1.67c1.206-1.344,3.005-2.149,5.1-2.149C188.569,8.821,191.04,11.495,191.04,15.622z"/>
	<path d="M211.91,9.301V23.7c0,5.091-3.332,8.244-8.683,8.244c-4.598,0-7.815-2.317-8.561-6.156h5.384
		c0.387,1.082,1.77,1.666,3.125,1.666c1.869,0,3.372-1.188,3.372-3.115v-0.483c-1.218,0.773-2.663,1.217-4.227,1.217
		c-4.645,0-8.096-3.456-8.096-8.143c0-4.619,3.451-8.147,8.096-8.147c1.96,0,3.736,0.703,5.109,1.878l0.707-1.359H211.91z
		 M206.692,16.93c0-2.046-1.437-3.531-3.445-3.531c-2.003,0-3.458,1.485-3.458,3.531c0,2.063,1.438,3.548,3.458,3.548
		C205.251,20.478,206.692,18.993,206.692,16.93z"/>
	<path d="M240.273,19.521c0,3.402-2.937,5.979-6.813,5.979h-9.679V4.501h9.485c3.724,0,6.44,2.272,6.44,5.374
		c0,1.877-1.051,3.564-2.655,4.537C239.032,15.351,240.273,17.229,240.273,19.521z M234.552,18.832c0-1.115-0.819-1.9-2.072-1.9
		h-3.143v3.819h3.143C233.732,20.751,234.552,19.965,234.552,18.832z M234.217,10.834c0-1.09-0.746-1.828-1.956-1.828h-2.923v3.656
		h2.923C233.471,12.662,234.218,11.924,234.217,10.834L234.217,10.834z"/>
	<path d="M254.364,9.224v5.106h-2.166c-1.976,0-2.803,0.866-2.803,2.933V25.5h-5.58V9.301h3.738l0.871,1.798
		c1.142-1.321,2.533-1.875,4.462-1.875H254.364z"/>
	<path d="M256.043,17.4c0-5.021,3.801-8.631,9.083-8.631c5.264,0,9.082,3.609,9.082,8.631c0,5.004-3.818,8.631-9.082,8.631
		C259.844,26.031,256.043,22.404,256.043,17.4z M268.619,17.401c0-2.13-1.459-3.618-3.493-3.618c-2.035,0-3.494,1.476-3.494,3.617
		s1.459,3.618,3.494,3.618C267.16,21.019,268.619,19.543,268.619,17.401z"/>
	<path d="M287.445,25.5l-4.057-6.851V25.5h-5.58V3.451h5.58v12.195l3.858-6.346h6.266l-5.049,7.721l5.56,8.479H287.445z"/>
	<path d="M312.084,18.725h-12.028c0.364,1.858,1.545,2.818,3.307,2.818c1.304,0,2.393-0.57,2.929-1.519h5.553
		c-1.14,3.697-4.417,6.007-8.481,6.007c-5.055,0-8.799-3.694-8.799-8.644c0-4.966,3.715-8.618,8.799-8.618
		c5.222,0,8.837,3.726,8.837,8.478C312.199,17.735,312.156,18.224,312.084,18.725z M300.153,15.635h6.549
		c-0.489-1.619-1.656-2.493-3.34-2.493C301.735,13.142,300.606,14.025,300.153,15.635z"/>
	<path d="M326.064,9.224v5.106h-2.166c-1.976,0-2.803,0.866-2.803,2.933V25.5h-5.58V9.301h3.738l0.871,1.798
		c1.142-1.321,2.533-1.875,4.462-1.875H326.064z"/>
	<path d="M94.067,74.09h-7.443l-1.163,3.41h-6.199l8.248-20.999h5.655l8.43,20.999h-6.37L94.067,74.09z M90.334,63.056l-2.301,6.507
		h4.622L90.334,63.056z"/>
	<path d="M122.082,69.4c0,5.047-3.541,8.647-8.494,8.647c-1.465,0-2.806-0.385-3.949-1.075v6.377h-5.517V61.301h3.795l0.699,1.287
		c1.332-1.152,3.047-1.818,4.972-1.818C118.541,60.77,122.082,64.354,122.082,69.4z M116.468,69.4c0-2.129-1.536-3.708-3.627-3.708
		c-2.09,0-3.626,1.579-3.626,3.708c0,2.128,1.536,3.707,3.626,3.707C114.918,73.107,116.468,71.528,116.468,69.4z"/>
	<path d="M143.381,69.4c0,5.047-3.541,8.647-8.494,8.647c-1.465,0-2.806-0.385-3.949-1.075v6.377h-5.517V61.301h3.795l0.699,1.287
		c1.332-1.152,3.047-1.818,4.972-1.818C139.84,60.77,143.381,64.354,143.381,69.4z M137.767,69.4c0-2.129-1.536-3.708-3.627-3.708
		c-2.09,0-3.626,1.579-3.626,3.708c0,2.128,1.536,3.707,3.626,3.707C136.217,73.107,137.767,71.528,137.767,69.4z"/>
	<path d="M146.721,55.451h5.58V77.5h-5.58V55.451z"/>
	<path d="M156.592,61.301h5.579V77.5h-5.579V61.301z M156.634,54.538h5.494v4.735h-5.494V54.538z"/>
	<path d="M174.476,78.03c-5.194,0-8.944-3.64-8.944-8.652s3.732-8.583,8.962-8.583c4.553,0,7.967,2.87,8.577,7.179h-5.436
		c-0.469-1.321-1.704-2.179-3.159-2.179c-1.961,0-3.356,1.49-3.356,3.601s1.413,3.636,3.356,3.636c1.497,0,2.711-0.918,3.172-2.363
		h5.482C182.499,75.066,179.037,78.031,174.476,78.03L174.476,78.03z"/>
	<path d="M203.563,61.283v16.199h-4.313l-0.478-1.146c-1.327,1.075-3.007,1.694-4.889,1.694c-4.953,0-8.494-3.614-8.494-8.648
		c0-5.017,3.541-8.588,8.494-8.588c1.908,0,3.612,0.638,4.95,1.741l0.571-1.253H203.563z M198.256,69.396
		c0-2.103-1.536-3.682-3.627-3.682c-2.103,0-3.626,1.579-3.626,3.682c0,2.116,1.536,3.695,3.626,3.695
		C196.72,73.091,198.256,71.512,198.256,69.396z"/>
	<path d="M218.785,72.613V77.5h-3.84c-3.582,0-5.76-2.189-5.76-5.79v-6.112h-2.965v-1.305l7.258-7.729h1.146v4.736h4.069v4.297
		h-3.929v5.155c0,1.16,0.7,1.86,1.877,1.86H218.785z"/>
	<path d="M222.17,61.301h5.579V77.5h-5.579V61.301z M222.212,54.538h5.494v4.735h-5.494V54.538z"/>
	<path d="M231.095,69.4c0-5.021,3.801-8.631,9.083-8.631c5.264,0,9.082,3.609,9.082,8.631c0,5.004-3.818,8.631-9.082,8.631
		C234.896,78.031,231.095,74.404,231.095,69.4z M243.671,69.401c0-2.13-1.459-3.618-3.493-3.618c-2.035,0-3.494,1.476-3.494,3.617
		s1.459,3.618,3.494,3.618C242.212,73.019,243.671,71.543,243.671,69.401z"/>
	<path d="M268.632,67.622V77.5h-5.58v-9.106c0-1.886-0.708-2.821-2.112-2.821c-1.74,0-2.741,1.216-2.741,3.277v8.65h-5.58V61.301
		h3.915l0.767,1.67c1.206-1.344,3.005-2.149,5.1-2.149C266.161,60.821,268.632,63.495,268.632,67.622z"/>
</g>
</svg>