<!-- Generator: Adobe Illustrator 21.0.0, SVG Export Plug-In  -->
<svg version="1.1"
	 xmlns="http://www.w3.org/2000/svg" xmlns:xlink="http://www.w3.org/1999/xlink" xmlns:a="http://ns.adobe.com/AdobeSVGViewerExtensions/3.0/"
	 x="0px" y="0px" width="539.655px" height="208.5px" viewBox="0 0 539.655 208.5"
	 style="enable-background:new 0 0 539.655 208.5;" xml:space="preserve">
<style type="text/css">
	.st0{fill:#ED1C24;}
	.st1{opacity:0.5;fill:#FFFFFF;}
	.st2{fill:none;}
	.st3{font-family:'Mont-HeavyDEMO';}
	.st4{font-size:66px;}
</style>
<defs>
</defs>
<rect class="st0" width="539.655" height="19"/>
<rect y="19" class="st1" width="539.655" height="189.5"/>
<g>
	<rect y="88.5" class="st2" width="539.655" height="50"/>
	<path d="M161.457,107.503c0,9.688-7.296,16.747-17.115,16.747h-6.913v12.759h-12.755V90.813h19.668
		C154.161,90.813,161.457,97.816,161.457,107.503z M148.374,107.532c0-3.284-2.208-5.605-5.558-5.605h-5.387v11.211h5.387
		C146.166,113.137,148.374,110.815,148.374,107.532z"/>
	<path d="M166.639,88.503h12.275v48.506h-12.275V88.503z"/>
	<path d="M224.569,101.334v35.637h-9.489l-1.051-2.521c-2.918,2.364-6.614,3.726-10.753,3.726c-10.897,0-18.687-7.95-18.687-19.025
		c0-11.037,7.79-18.892,18.687-18.892c4.197,0,7.946,1.402,10.889,3.83l1.256-2.756L224.569,101.334z M212.894,119.181
		c0-4.626-3.379-8.1-7.978-8.1c-4.625,0-7.977,3.474-7.977,8.1c0,4.654,3.379,8.127,7.977,8.127
		C209.515,127.308,212.894,123.834,212.894,119.181z"/>
	<path d="M256.341,126.258v10.751h-8.445c-7.881,0-12.671-4.817-12.671-12.737v-13.447h-6.523v-2.869l15.967-17.003h2.521v10.419
		h8.953v9.453H247.5v11.341c0,2.552,1.541,4.092,4.13,4.092H256.341z"/>
	<path d="M285.901,111.598h-7.991v25.41h-12.275v-25.41h-5.894l-0.028-9.643h6.072v-3.412c0-7.141,3.921-11.321,11.48-11.321h8.569
		v9.416h-5.421c-1.822,0-2.908,1.076-2.908,2.898v2.42h8.396V111.598z"/>
	<path d="M287.849,119.19c0-11.047,8.361-18.986,19.98-18.986c11.581,0,19.98,7.939,19.98,18.986
		c0,11.009-8.399,18.986-19.98,18.986C296.21,138.177,287.849,130.2,287.849,119.19z M307.83,127.15
		c4.476,0,7.686-3.248,7.686-7.959c0-4.684-3.21-7.959-7.686-7.959c-4.477,0-7.687,3.248-7.687,7.959S303.353,127.15,307.83,127.15
		L307.83,127.15z"/>
	<path d="M356.69,101.202v11.233h-4.766c-4.346,0-6.165,1.906-6.165,6.452v18.122h-12.275v-35.637h8.224l1.915,3.955
		c2.513-2.907,5.574-4.125,9.816-4.125H356.69z"/>
	<path d="M416.003,114.657v22.352h-12.275v-20.833c0-3.722-1.37-5.518-3.978-5.518c-3.374,0-5.104,2.324-5.104,6.812v19.54h-11.955
		v-20.833c0-3.61-1.36-5.518-3.93-5.518c-3.328,0-5.151,2.38-5.151,6.812v19.54h-12.275v-35.637h8.632l1.747,3.829
		c2.575-3,6.313-4.883,10.417-4.883c4.345,0,8.003,1.952,10.221,5.247c2.561-3.224,6.507-5.247,10.944-5.247
		C410.929,100.318,416.003,106.265,416.003,114.657z"/>
</g>
</svg>