<!-- Generator: Adobe Illustrator 21.0.0, SVG Export Plug-In  -->
<svg version="1.1"
	 xmlns="http://www.w3.org/2000/svg" xmlns:xlink="http://www.w3.org/1999/xlink" xmlns:a="http://ns.adobe.com/AdobeSVGViewerExtensions/3.0/"
	 x="0px" y="0px" width="877px" height="367px" viewBox="0 0 877 367" style="enable-background:new 0 0 877 367;"
	 xml:space="preserve">
<style type="text/css">
	.st0{fill:#FFFFFF;}
	.st1{fill:none;}
	.st2{fill:#ED1C24;}
	.st3{fill:none;stroke:#ED1C24;stroke-width:20;stroke-miterlimit:10;}
	.st4{fill:none;stroke:#ED1C24;stroke-width:20;stroke-miterlimit:10;stroke-dasharray:270.4546,43.2727;}
	.st5{opacity:0.8;}
	.st6{opacity:0.8;fill:none;stroke:#FFFFFF;stroke-width:5;stroke-miterlimit:10;}
	.st7{font-family:'Mont-HeavyDEMO';}
	.st8{font-size:53.9996px;}
	.st9{letter-spacing:2;}
	.st10{letter-spacing:1;}
	.st11{font-size:42px;}
	.st12{font-size:37px;}
	.st13{letter-spacing:-1;}
</style>
<defs>
</defs>
<rect x="10" y="130" class="st0" width="854.451" height="73"/>
<g>
	<rect x="274.171" y="66.333" class="st1" width="296.829" height="102.667"/>
	<path class="st2" d="M300.812,99.883h-13.398l-2.094,6.139h-11.16l14.849-37.801h10.18l15.174,37.801h-11.468L300.812,99.883z
		 M294.091,80.021l-4.142,11.713h8.321L294.091,80.021z"/>
	<path class="st2" d="M344.589,86.063c3.562,1.689,5.797,5.071,5.797,9.196c0,6.125-5.286,10.764-12.263,10.764h-17.423V68.222
		h17.074c6.703,0,11.594,4.09,11.594,9.674C349.368,81.274,347.477,84.313,344.589,86.063L344.589,86.063z M340.086,94.02
		c0-2.007-1.474-3.421-3.729-3.421H330.7v6.875h5.657C338.612,97.473,340.086,96.059,340.086,94.02z M339.484,79.622
		c0-1.962-1.344-3.291-3.521-3.291h-5.262v6.582h5.263C338.141,82.912,339.485,81.583,339.484,79.622L339.484,79.622z"/>
	<path class="st2" d="M377.399,106.979c-12.152,0-20.823-8.303-20.823-19.856c0-11.553,8.671-19.856,20.823-19.856
		c12.121,0,20.761,8.272,20.761,19.856S389.52,106.979,377.399,106.979L377.399,106.979z M377.399,97.289
		c5.753,0,9.918-4.25,9.918-10.165c0-5.916-4.165-10.166-9.918-10.166c-5.754,0-9.98,4.281-9.98,10.165
		C367.418,93.008,371.645,97.289,377.399,97.289L377.399,97.289z"/>
	<path class="st2" d="M405.778,91.399V68.222h10.643v22.983c0,3.695,2.381,6.082,5.858,6.082s5.858-2.387,5.858-6.082V68.222h10.643
		v23.178c0,9.3-6.865,15.579-16.501,15.579S405.778,100.7,405.778,91.399z"/>
	<path class="st2" d="M476.754,77.599h-10.269v28.424h-10.459V77.599h-10.27v-9.377h30.997V77.599z"/>
	<path class="st2" d="M496.659,91.399V68.222h10.644v22.983c0,3.695,2.381,6.082,5.858,6.082c3.477,0,5.857-2.387,5.857-6.082
		V68.222h10.644v23.178c0,9.3-6.865,15.579-16.501,15.579C503.523,106.979,496.659,100.7,496.659,91.399z"/>
	<path class="st2" d="M537.449,93.816h10.742c0,2.7,2.084,4.015,4.458,4.015c2.182,0,4.265-1.161,4.265-3.226
		c0-2.371-2.942-3.059-6.541-3.931c-5.464-1.358-12.438-3.032-12.438-11.638c0-7.444,5.47-11.708,14.383-11.708
		c9.063,0,14.26,4.652,14.26,12.343h-10.444c0-2.391-1.781-3.512-3.94-3.512c-1.855,0-3.637,0.803-3.637,2.567
		c0,2.147,2.849,2.857,6.408,3.752c5.563,1.436,12.838,3.294,12.838,11.926c0,8.256-6.344,12.541-15.121,12.541
		C543.429,106.947,537.449,102.056,537.449,93.816z"/>
</g>
<g>
	<g>
		<polyline class="st3" points="617,10 867,10 867,357 617,357 		"/>
		<line class="st4" x1="573.727" y1="357" x2="281.636" y2="357"/>
		<polyline class="st3" points="260,357 10,357 10,10 260,10 		"/>
		<line class="st4" x1="303.273" y1="10" x2="595.364" y2="10"/>
	</g>
</g>
<g class="st5">
	<rect x="340.097" y="266.505" class="st1" width="230.903" height="90.495"/>
	<path class="st0" d="M361.612,289.956v7.418h-18.673v-29.405h8.208v21.987H361.612z"/>
	<path class="st0" d="M375.513,275.299v4.68h9.449v7.091h-9.449v10.304h-8.172v-29.405h18.714v7.33H375.513z"/>
	<path class="st0" d="M421.805,281.659c0,9.622-6.282,16.458-15.49,16.458c-9.01,0-15.665-6.476-15.665-15.422
		s6.534-15.47,15.593-15.47c7.708,0,14.013,4.824,15.256,11.657h-8.489c-1.064-2.477-3.695-4.069-6.694-4.069
		c-4.404,0-7.373,3.185-7.373,7.883c0,4.65,2.92,7.835,7.373,7.835c3.092,0,5.743-1.497,6.667-3.764h-7.303v-5.107L421.805,281.659z
		"/>
	<path class="st0" d="M456.076,292.598h-10.423l-1.629,4.776h-8.681l11.551-29.405h7.919l11.804,29.405h-8.921L456.076,292.598z
		 M450.849,277.147l-3.223,9.112h6.474L450.849,277.147z"/>
	<path class="st0" d="M468.895,287.879h8.357c0,2.101,1.62,3.123,3.468,3.123c1.696,0,3.317-0.903,3.317-2.509
		c0-1.844-2.289-2.379-5.088-3.058c-4.251-1.057-9.677-2.359-9.677-9.053c0-5.791,4.255-9.108,11.188-9.108
		c7.05,0,11.093,3.619,11.093,9.602h-8.124c0-1.859-1.387-2.731-3.065-2.731c-1.443,0-2.83,0.625-2.83,1.998
		c0,1.67,2.217,2.222,4.985,2.918c4.328,1.117,9.987,2.563,9.987,9.277c0,6.422-4.935,9.756-11.764,9.756
		C473.546,298.093,468.895,294.289,468.895,287.879z"/>
	<path class="st0" d="M498.843,267.969h8.208v29.405h-8.208V267.969z"/>
	<path class="st0" d="M532.727,292.598h-10.423l-1.629,4.776h-8.682l11.551-29.405h7.919l11.804,29.405h-8.92L532.727,292.598z
		 M527.498,277.147l-3.222,9.112h6.473L527.498,277.147z"/>
</g>
<line class="st6" x1="36" y1="284.5" x2="284" y2="284.5"/>
<line class="st6" x1="596" y1="284.5" x2="844" y2="284.5"/>
<g>
	<rect x="10" y="155" class="st1" width="854.451" height="27.75"/>
	<path d="M94.655,156.292l-7.987,25.902h-6.282l-4.969-12.502l-4.874,12.502h-6.281l-8.109-25.902h7.663l4.202,14.929l6.17-14.801
		h2.469l6.281,14.813l4.118-14.94H94.655z"/>
	<path d="M93.946,172.204c0-6.194,4.688-10.645,11.203-10.645c6.494,0,11.203,4.451,11.203,10.645
		c0,6.173-4.709,10.646-11.203,10.646C98.634,182.849,93.946,178.376,93.946,172.204z M105.149,176.667
		c2.51,0,4.31-1.821,4.31-4.462c0-2.626-1.8-4.463-4.31-4.463c-2.509,0-4.309,1.821-4.309,4.462S102.64,176.667,105.149,176.667
		L105.149,176.667z"/>
	<path d="M132.541,162.118v6.298h-2.672c-2.437,0-3.458,1.069-3.458,3.617v10.161h-6.882v-19.981h4.611l1.074,2.218
		c1.409-1.63,3.125-2.313,5.504-2.313H132.541z"/>
	<path d="M135.143,154.998h6.882v27.197h-6.882V154.998z"/>
	<path d="M167.458,154.998v27.197h-5.093l-0.649-1.484c-1.626,1.369-3.699,2.16-6.027,2.16c-6.131,0-10.499-4.457-10.499-10.667
		s4.367-10.646,10.499-10.646c1.845,0,3.533,0.498,4.965,1.387v-7.948H167.458z M161.083,172.204c0-2.609-1.895-4.573-4.473-4.573
		c-2.578,0-4.473,1.963-4.473,4.573c0,2.609,1.895,4.572,4.473,4.572C159.188,176.776,161.083,174.813,161.083,172.204z"/>
	<path d="M196.589,175.66v6.535H180.14v-25.902h7.23v19.367H196.589z"/>
	<path d="M219.853,172.015c0,0.602-0.052,1.204-0.142,1.822h-14.837c0.45,2.292,1.906,3.477,4.079,3.477
		c1.608,0,2.951-0.704,3.613-1.874h6.849c-1.406,4.56-5.448,7.409-10.461,7.409c-6.234,0-10.853-4.557-10.853-10.661
		c0-6.126,4.582-10.63,10.853-10.63C215.394,161.559,219.853,166.153,219.853,172.015L219.853,172.015z M204.995,170.026h8.078
		c-0.604-1.997-2.043-3.075-4.12-3.075C206.946,166.951,205.552,168.041,204.995,170.026z"/>
	<path d="M244.249,162.192v19.981h-5.32l-0.59-1.413c-1.636,1.325-3.708,2.089-6.029,2.089c-6.11,0-10.478-4.457-10.478-10.667
		c0-6.188,4.368-10.593,10.478-10.593c2.353,0,4.456,0.786,6.105,2.147l0.704-1.545L244.249,162.192z M237.703,172.198
		c0-2.594-1.895-4.542-4.473-4.542c-2.593,0-4.473,1.948-4.473,4.542c0,2.609,1.895,4.557,4.473,4.557
		C235.808,176.755,237.703,174.808,237.703,172.198z"/>
	<path d="M269.688,154.998v27.197h-5.093l-0.649-1.484c-1.626,1.369-3.699,2.16-6.027,2.16c-6.131,0-10.499-4.457-10.499-10.667
		s4.367-10.646,10.499-10.646c1.845,0,3.533,0.498,4.965,1.387v-7.948H269.688z M263.313,172.204c0-2.609-1.895-4.573-4.473-4.573
		c-2.578,0-4.473,1.963-4.473,4.573c0,2.609,1.895,4.572,4.473,4.572C261.417,176.776,263.313,174.813,263.313,172.204z"/>
	<path d="M294.592,172.015c0,0.602-0.052,1.204-0.142,1.822h-14.837c0.45,2.292,1.906,3.477,4.079,3.477
		c1.608,0,2.951-0.704,3.613-1.874h6.849c-1.406,4.56-5.448,7.409-10.461,7.409c-6.234,0-10.853-4.557-10.853-10.661
		c0-6.126,4.582-10.63,10.853-10.63C290.133,161.559,294.592,166.153,294.592,172.015L294.592,172.015z M279.734,170.026h8.078
		c-0.604-1.997-2.043-3.075-4.12-3.075C281.686,166.951,280.291,168.041,279.734,170.026z"/>
	<path d="M310.731,162.118v6.298h-2.672c-2.437,0-3.458,1.069-3.458,3.617v10.161h-6.882v-19.981h4.611l1.074,2.218
		c1.409-1.63,3.125-2.313,5.504-2.313H310.731z"/>
	<path d="M320.85,156.292h7.23v25.902h-7.23V156.292z"/>
	<path d="M352.251,170.011v12.184h-6.882v-11.233c0-2.326-0.874-3.479-2.606-3.479c-2.146,0-3.381,1.499-3.381,4.042v10.67H332.5
		v-19.981h4.829l0.945,2.061c1.488-1.658,3.706-2.651,6.29-2.651C349.204,161.622,352.251,164.92,352.251,170.011z"/>
	<path d="M381.102,168.518c2.441,1.157,3.972,3.475,3.972,6.301c0,4.197-3.622,7.376-8.403,7.376h-11.938v-25.902h11.699
		c4.593,0,7.944,2.802,7.944,6.629C384.376,165.236,383.08,167.318,381.102,168.518L381.102,168.518z M378.016,173.97
		c0-1.376-1.01-2.345-2.556-2.345h-3.876v4.71h3.876C377.006,176.336,378.016,175.367,378.016,173.97z M375.19,161.849h-3.606v4.51
		h3.606c1.492,0,2.413-0.911,2.413-2.255C377.604,162.759,376.683,161.849,375.19,161.849z"/>
	<path d="M388.221,173.616v-11.403h6.882v11.104c0,2.109,1.134,3.35,2.973,3.35s2.951-1.261,2.951-3.35v-11.104h6.882v11.403
		c0,5.591-3.931,9.233-9.833,9.233C392.173,182.849,388.221,179.208,388.221,173.616z"/>
	<path d="M411.974,154.998h6.882v27.197h-6.882V154.998z"/>
	<path d="M423.185,154.998h6.882v27.197h-6.882V154.998z"/>
	<path d="M434.396,162.212h6.883v19.981h-6.883V162.212z M434.449,153.872h6.777v5.841h-6.777V153.872z"/>
	<path d="M444.442,172.204c0-6.194,4.688-10.645,11.203-10.645c6.494,0,11.203,4.451,11.203,10.645
		c0,6.173-4.709,10.646-11.203,10.646C449.131,182.849,444.442,178.376,444.442,172.204z M455.646,176.667
		c2.51,0,4.31-1.821,4.31-4.462c0-2.626-1.8-4.463-4.31-4.463s-4.31,1.821-4.31,4.462S453.136,176.667,455.646,176.667
		L455.646,176.667z"/>
	<path d="M489.778,170.011v12.184h-6.883v-11.233c0-2.326-0.874-3.479-2.605-3.479c-2.146,0-3.381,1.499-3.381,4.042v10.67h-6.883
		v-19.981h4.828l0.945,2.061c1.488-1.658,3.707-2.651,6.29-2.651C486.73,161.622,489.778,164.92,489.778,170.011z"/>
	<path d="M520.685,162.718h-7.036v19.477h-7.167v-19.477h-7.036v-6.425h21.239V162.718z"/>
	<path d="M535.763,162.118v6.298h-2.672c-2.437,0-3.457,1.069-3.457,3.617v10.161h-6.883v-19.981h4.611l1.073,2.218
		c1.409-1.63,3.126-2.313,5.504-2.313H535.763z"/>
	<path d="M559.302,162.192v19.981h-5.32l-0.59-1.413c-1.636,1.325-3.708,2.089-6.029,2.089c-6.109,0-10.477-4.457-10.477-10.667
		c0-6.188,4.367-10.593,10.477-10.593c2.354,0,4.456,0.786,6.105,2.147l0.704-1.545L559.302,162.192z M552.756,172.198
		c0-2.594-1.895-4.542-4.473-4.542c-2.594,0-4.474,1.948-4.474,4.542c0,2.609,1.896,4.557,4.474,4.557
		S552.756,174.808,552.756,172.198z"/>
	<path d="M584.741,154.998v27.197h-5.094l-0.648-1.484c-1.626,1.369-3.7,2.16-6.027,2.16c-6.131,0-10.499-4.457-10.499-10.667
		s4.368-10.646,10.499-10.646c1.845,0,3.533,0.498,4.965,1.387v-7.948H584.741z M578.365,172.204c0-2.609-1.895-4.573-4.473-4.573
		s-4.473,1.963-4.473,4.573c0,2.609,1.895,4.572,4.473,4.572S578.365,174.813,578.365,172.204z"/>
	<path d="M589.056,162.212h6.883v19.981h-6.883V162.212z M589.108,153.872h6.777v5.841h-6.777V153.872z"/>
	<path d="M620.019,170.011v12.184h-6.883v-11.233c0-2.326-0.874-3.479-2.605-3.479c-2.146,0-3.381,1.499-3.381,4.042v10.67h-6.883
		v-19.981h4.828l0.945,2.061c1.488-1.658,3.707-2.651,6.29-2.651C616.971,161.622,620.019,164.92,620.019,170.011z"/>
	<path d="M644.796,162.213v17.761c0,6.279-4.11,10.169-10.71,10.169c-5.671,0-9.64-2.859-10.56-7.594h6.642
		c0.477,1.335,2.183,2.055,3.854,2.055c2.306,0,4.159-1.466,4.159-3.842v-0.597c-1.502,0.954-3.285,1.5-5.214,1.5
		c-5.729,0-9.985-4.262-9.985-10.043c0-5.697,4.257-10.049,9.985-10.049c2.419,0,4.608,0.868,6.303,2.316l0.872-1.677
		L644.796,162.213z M638.36,171.623c0-2.524-1.773-4.355-4.25-4.355c-2.472,0-4.266,1.831-4.266,4.355
		c0,2.545,1.772,4.376,4.266,4.376C636.582,176,638.36,174.168,638.36,171.623z"/>
	<path d="M656.251,173.831h7.361c0,1.85,1.428,2.751,3.055,2.751c1.495,0,2.922-0.795,2.922-2.21c0-1.625-2.016-2.096-4.481-2.693
		c-3.744-0.931-8.523-2.078-8.523-7.974c0-5.101,3.748-8.023,9.855-8.023c6.21,0,9.771,3.188,9.771,8.458h-7.156
		c0-1.638-1.221-2.406-2.699-2.406c-1.271,0-2.493,0.551-2.493,1.759c0,1.471,1.952,1.958,4.392,2.571
		c3.813,0.983,8.797,2.257,8.797,8.172c0,5.657-4.347,8.593-10.361,8.593C660.349,182.828,656.251,179.477,656.251,173.831z"/>
	<path d="M701.033,172.015c0,0.602-0.053,1.204-0.142,1.822h-14.837c0.45,2.292,1.905,3.477,4.079,3.477
		c1.607,0,2.95-0.704,3.612-1.874h6.849c-1.406,4.56-5.448,7.409-10.461,7.409c-6.235,0-10.854-4.557-10.854-10.661
		c0-6.126,4.582-10.63,10.854-10.63C696.574,161.559,701.033,166.153,701.033,172.015L701.033,172.015z M686.176,170.026h8.077
		c-0.604-1.997-2.043-3.075-4.12-3.075C688.127,166.951,686.732,168.041,686.176,170.026z"/>
	<path d="M717.173,162.118v6.298h-2.672c-2.437,0-3.457,1.069-3.457,3.617v10.161h-6.883v-19.981h4.611l1.073,2.218
		c1.409-1.63,3.126-2.313,5.504-2.313H717.173z"/>
	<path d="M740.177,162.213l-8.032,19.981h-6.235l-8.14-19.981h7.541l3.776,11.834l3.734-11.834H740.177z"/>
	<path d="M742.382,162.212h6.883v19.981h-6.883V162.212z M742.435,153.872h6.777v5.841h-6.777V153.872z"/>
	<path d="M763.479,182.849c-6.408,0-11.033-4.49-11.033-10.672s4.604-10.587,11.055-10.587c5.615,0,9.827,3.54,10.579,8.855h-6.704
		c-0.578-1.63-2.103-2.688-3.896-2.688c-2.419,0-4.14,1.838-4.14,4.441s1.742,4.484,4.14,4.484c1.847,0,3.344-1.131,3.912-2.915
		h6.763C773.375,179.193,769.104,182.849,763.479,182.849L763.479,182.849z"/>
	<path d="M797.713,172.015c0,0.602-0.053,1.204-0.142,1.822h-14.837c0.45,2.292,1.905,3.477,4.079,3.477
		c1.607,0,2.95-0.704,3.612-1.874h6.849c-1.406,4.56-5.448,7.409-10.461,7.409c-6.235,0-10.854-4.557-10.854-10.661
		c0-6.126,4.582-10.63,10.854-10.63C793.254,161.559,797.713,166.153,797.713,172.015L797.713,172.015z M782.855,170.026h8.077
		c-0.604-1.997-2.043-3.075-4.12-3.075C784.807,166.951,783.412,168.041,782.855,170.026z"/>
	<path d="M808.55,182.849c-5.446,0-8.756-2.876-8.818-7.206h6.624c0,1.461,1.018,2.134,2.322,2.134c1.007,0,1.961-0.514,1.961-1.546
		c0-1.153-1.513-1.481-3.432-1.799c-3.099-0.502-7.206-1.437-7.206-6.283c0-4.005,3.413-6.591,8.533-6.591
		c5.088,0,8.386,2.707,8.464,6.755h-6.444c0-1.276-0.858-1.869-2.105-1.869c-1.104,0-1.845,0.546-1.845,1.473
		c0,1.137,1.528,1.401,3.427,1.74c3.156,0.561,7.354,1.216,7.354,6.284C817.384,180.117,813.859,182.849,808.55,182.849
		L808.55,182.849z"/>
</g>
</svg>