<!-- Generator: Adobe Illustrator 21.0.0, SVG Export Plug-In  -->
<svg version="1.1"
	 xmlns="http://www.w3.org/2000/svg" xmlns:xlink="http://www.w3.org/1999/xlink" xmlns:a="http://ns.adobe.com/AdobeSVGViewerExtensions/3.0/"
	 x="0px" y="0px" width="695.708px" height="100.197px" viewBox="0 0 695.708 100.197"
	 style="enable-background:new 0 0 695.708 100.197;" xml:space="preserve">
<style type="text/css">
	.st0{fill:#2E3192;}
	.st1{fill:#FFFFFF;}
	.st2{fill:none;}
	.st3{font-family:'Mont-HeavyDEMO';}
	.st4{font-size:48.1464px;}
</style>
<defs>
</defs>
<g>
	<g>
		<g>
			<g>
				<path class="st0" d="M323.874,10c0-5.5-4.5-10-10-10H10C4.5,0,0,4.5,0,10v80.197c0,5.5,4.5,10,10,10h303.874c5.5,0,10-4.5,10-10
					V10z"/>
			</g>
			<g>
				<path class="st1" d="M68.638,45.586c0,9.834-7.221,16.877-17.396,16.877H37.603V28.764h13.639
					C61.445,28.764,68.638,35.739,68.638,45.586z M59.12,45.586c0-5-3.326-8.32-8.316-8.32h-3.876v16.695h3.876
					C55.794,53.961,59.12,50.558,59.12,45.586z"/>
				<path class="st1" d="M71.517,49.465c0-8.059,6.1-13.85,14.575-13.85c8.448,0,14.575,5.792,14.575,13.85
					c0,8.031-6.127,13.85-14.575,13.85C77.617,63.315,71.517,57.496,71.517,49.465z M86.092,55.272c3.265,0,5.606-2.369,5.606-5.806
					c0-3.417-2.341-5.807-5.606-5.807c-3.265,0-5.606,2.369-5.606,5.806C80.486,52.902,82.828,55.271,86.092,55.272L86.092,55.272z"
					/>
				<path class="st1" d="M142.709,36.466l-8.282,25.997h-7.217l-5.144-11.645l-5.031,11.645h-7.217l-8.487-25.997h9.377l3.937,13.65
					l6.145-13.567h2.418l6.48,13.692l3.876-13.775H142.709z"/>
				<path class="st1" d="M171.477,46.612v15.852h-8.954V47.849c0-3.026-1.137-4.527-3.39-4.527c-2.792,0-4.399,1.95-4.399,5.259
					v13.882h-8.954V36.466h6.282l1.23,2.681c1.936-2.157,4.822-3.449,8.184-3.449C167.512,35.698,171.477,39.988,171.477,46.612z"/>
				<path class="st1" d="M176.833,27.079h8.954v35.384h-8.954V27.079z"/>
				<path class="st1" d="M189.907,49.465c0-8.059,6.1-13.85,14.575-13.85c8.448,0,14.575,5.792,14.575,13.85
					c0,8.031-6.127,13.85-14.575,13.85C196.007,63.315,189.907,57.496,189.907,49.465z M204.482,55.272
					c3.265,0,5.606-2.369,5.606-5.806c0-3.417-2.341-5.807-5.606-5.807c-3.265,0-5.606,2.369-5.606,5.806
					C198.876,52.902,201.218,55.271,204.482,55.272L204.482,55.272z"/>
				<path class="st1" d="M250.868,36.439v25.997h-6.922l-0.767-1.838c-2.129,1.724-4.825,2.718-7.844,2.718
					c-7.949,0-13.631-5.799-13.631-13.878c0-8.051,5.682-13.782,13.631-13.782c3.062,0,5.797,1.022,7.943,2.793l0.916-2.01
					L250.868,36.439z M242.351,49.458c0-3.375-2.465-5.908-5.819-5.908c-3.374,0-5.819,2.534-5.819,5.908
					c0,3.395,2.465,5.929,5.819,5.929S242.351,52.853,242.351,49.458z"/>
				<path class="st1" d="M283.971,27.079v35.384h-6.626l-0.844-1.931c-2.115,1.78-4.813,2.81-7.841,2.81
					c-7.977,0-13.659-5.798-13.659-13.877s5.682-13.851,13.659-13.851c2.4,0,4.597,0.647,6.459,1.805v-10.34H283.971z
					 M275.676,49.466c0-3.395-2.465-5.95-5.819-5.95s-5.819,2.555-5.819,5.95c0,3.395,2.465,5.949,5.819,5.949
					S275.676,52.86,275.676,49.466z"/>
			</g>
		</g>
		<g>
			<g>
				<path class="st0" d="M695.708,10c0-5.5-4.5-10-10-10H381.834c-5.5,0-10,4.5-10,10v80.197c0,5.5,4.5,10,10,10h303.874
					c5.5,0,10-4.5,10-10V10z"/>
			</g>
			<g>
				<path class="st1" d="M438.387,56.99h-11.944l-1.867,5.473h-9.948l13.237-33.699h9.075l13.527,33.699h-10.223L438.387,56.99z
					 M432.396,39.282l-3.692,10.442h7.418L432.396,39.282z"/>
				<path class="st1" d="M465.318,63.314c-8.337,0-14.354-5.841-14.354-13.885s5.989-13.774,14.382-13.774
					c7.306,0,12.785,4.606,13.765,11.521h-8.723c-0.753-2.122-2.735-3.497-5.069-3.497c-3.147,0-5.387,2.391-5.387,5.778
					s2.268,5.833,5.387,5.833c2.402,0,4.35-1.472,5.089-3.792h8.799C478.193,58.558,472.638,63.315,465.318,63.314L465.318,63.314z"
					/>
				<path class="st1" d="M495.938,63.314c-8.337,0-14.354-5.841-14.354-13.885s5.989-13.774,14.382-13.774
					c7.306,0,12.785,4.606,13.765,11.521h-8.723c-0.753-2.122-2.735-3.497-5.069-3.497c-3.147,0-5.387,2.391-5.387,5.778
					s2.268,5.833,5.387,5.833c2.402,0,4.35-1.472,5.089-3.792h8.799C508.813,58.558,503.258,63.315,495.938,63.314L495.938,63.314z"
					/>
				<path class="st1" d="M512.182,49.465c0-8.059,6.1-13.85,14.575-13.85c8.448,0,14.575,5.792,14.575,13.85
					c0,8.031-6.127,13.85-14.575,13.85C518.282,63.315,512.182,57.496,512.182,49.465z M526.757,55.272
					c3.265,0,5.606-2.369,5.606-5.806c0-3.417-2.342-5.807-5.606-5.807s-5.606,2.369-5.606,5.806
					C521.151,52.902,523.493,55.271,526.757,55.272L526.757,55.272z"/>
				<path class="st1" d="M545.135,51.303V36.466h8.955v14.447c0,2.744,1.475,4.358,3.867,4.358s3.839-1.641,3.839-4.358V36.466
					h8.955v14.836c0,7.274-5.115,12.012-12.794,12.012C550.278,63.315,545.135,58.577,545.135,51.303z"/>
				<path class="st1" d="M601.743,46.612v15.852h-8.955V47.849c0-3.026-1.137-4.527-3.39-4.527c-2.792,0-4.398,1.95-4.398,5.259
					v13.882h-8.955V36.466h6.282l1.23,2.681c1.936-2.157,4.821-3.449,8.184-3.449C597.777,35.698,601.743,39.988,601.743,46.612z"/>
				<path class="st1" d="M624.438,54.62v7.843h-6.16c-5.749,0-9.243-3.514-9.243-9.292v-9.809h-4.759v-2.093l11.647-12.403h1.84
					v7.601h6.53v6.896h-6.305v8.273c0,1.862,1.124,2.985,3.013,2.985H624.438z"/>
				<path class="st1" d="M638.65,63.315c-7.086,0-11.392-3.742-11.474-9.375h8.619c0,1.901,1.323,2.776,3.021,2.776
					c1.311,0,2.552-0.668,2.552-2.012c0-1.5-1.968-1.927-4.466-2.34c-4.03-0.653-9.374-1.87-9.374-8.175
					c0-5.211,4.44-8.575,11.102-8.575c6.619,0,10.91,3.521,11.012,8.79h-8.385c0-1.66-1.116-2.432-2.738-2.432
					c-1.436,0-2.4,0.71-2.4,1.916c0,1.479,1.988,1.823,4.458,2.264c4.106,0.729,9.567,1.583,9.567,8.176
					c0,5.433-4.586,8.988-11.495,8.988L638.65,63.315z"/>
			</g>
		</g>
	</g>
</g>
</svg>