<!-- Generator: Adobe Illustrator 21.0.0, SVG Export Plug-In  -->
<svg version="1.1"
	 xmlns="http://www.w3.org/2000/svg" xmlns:xlink="http://www.w3.org/1999/xlink" xmlns:a="http://ns.adobe.com/AdobeSVGViewerExtensions/3.0/"
	 x="0px" y="0px" width="208.707px" height="276.395px" viewBox="0 0 208.707 276.395"
	 style="enable-background:new 0 0 208.707 276.395;" xml:space="preserve">
<style type="text/css">
	.st0{fill:none;stroke:#000000;stroke-width:10;stroke-miterlimit:10;}
	.st1{fill:none;stroke:#FFFFFF;stroke-width:7;stroke-miterlimit:10;}
</style>
<defs>
</defs>
<g>
	<g>
		<path class="st0" d="M194.941,94.94c0,3.292-6.164,6.208-6.521,9.405c-0.364,3.263,4.999,7.469,4.284,10.613
			c-0.726,3.194-7.385,4.666-8.452,7.715c-1.08,3.085,3.205,8.386,1.799,11.302c-1.418,2.939-8.237,2.884-9.965,5.628
			c-1.736,2.757,1.26,8.881-0.766,11.418c-2.031,2.543-8.667,0.976-10.965,3.275c-2.299,2.299-0.732,8.935-3.275,10.965
			c-2.537,2.026-8.66-0.97-11.418,0.766c-2.744,1.728-2.689,8.547-5.628,9.964c-2.916,1.407-8.216-2.879-11.301-1.799
			c-3.049,1.067-4.521,7.726-7.715,8.452c-3.144,0.715-7.349-4.648-10.612-4.285c-3.196,0.356-6.113,6.521-9.404,6.521
			c-3.292,0-6.208-6.164-9.405-6.521c-3.263-0.364-7.469,4.999-10.613,4.284c-3.194-0.726-4.666-7.385-7.715-8.452
			c-3.085-1.08-8.386,3.205-11.302,1.799c-2.939-1.418-2.884-8.237-5.628-9.965c-2.757-1.736-8.881,1.26-11.418-0.766
			c-2.543-2.031-0.976-8.667-3.275-10.965c-2.298-2.299-8.935-0.732-10.965-3.275c-2.026-2.537,0.97-8.66-0.766-11.418
			c-1.728-2.744-8.547-2.689-9.964-5.628c-1.407-2.916,2.879-8.216,1.799-11.301c-1.067-3.049-7.726-4.521-8.452-7.715
			c-0.715-3.144,4.648-7.349,4.285-10.612c-0.356-3.196-6.521-6.113-6.521-9.404c0-3.292,6.164-6.208,6.521-9.405
			c0.364-3.263-4.999-7.469-4.284-10.613c0.726-3.194,7.385-4.666,8.452-7.715c1.08-3.085-3.205-8.386-1.799-11.302
			c1.418-2.939,8.237-2.884,9.965-5.628c1.736-2.757-1.26-8.881,0.766-11.418c2.031-2.543,8.667-0.976,10.965-3.275
			c2.299-2.298,0.732-8.935,3.275-10.965c2.537-2.026,8.66,0.97,11.418-0.766c2.744-1.728,2.689-8.547,5.628-9.964
			c2.916-1.407,8.216,2.879,11.301,1.799c3.049-1.067,4.521-7.726,7.715-8.452c3.144-0.715,7.349,4.648,10.612,4.285
			C98.794,11.164,101.71,5,105.001,5c3.292,0,6.208,6.164,9.405,6.521c3.263,0.364,7.469-4.999,10.613-4.284
			c3.194,0.726,4.666,7.385,7.715,8.452c3.085,1.08,8.386-3.205,11.302-1.799c2.939,1.418,2.884,8.237,5.628,9.965
			c2.757,1.736,8.881-1.26,11.418,0.766c2.543,2.031,0.976,8.667,3.275,10.965c2.299,2.299,8.935,0.732,10.965,3.275
			c2.026,2.537-0.97,8.66,0.766,11.418c1.728,2.744,8.547,2.689,9.964,5.628c1.407,2.916-2.879,8.216-1.799,11.301
			c1.067,3.049,7.726,4.521,8.452,7.715c0.715,3.144-4.648,7.349-4.285,10.612C188.777,88.732,194.941,91.648,194.941,94.94z"/>
	</g>
	<g>
		<g>
			<path d="M0.897,243.137c-2.265,5.012-0.09,7.109,4.835,4.66l33.054-16.437c4.925-2.449,10.112-0.104,11.528,5.21l9.5,35.672
				c1.415,5.315,4.427,5.563,6.692,0.551l53.304-117.929c2.265-5.012,0.018-10.966-4.994-13.231l-14.58-6.59
				c-5.012-2.265-13.213-5.972-18.225-8.238l-14.58-6.59c-5.012-2.265-10.966-0.018-13.231,4.994L0.897,243.137z"/>
		</g>
		<g>
			<path d="M207.81,243.137c2.265,5.012,0.09,7.109-4.835,4.66l-33.054-16.437c-4.925-2.449-10.112-0.104-11.528,5.21l-9.5,35.672
				c-1.415,5.315-4.427,5.563-6.692,0.551L88.897,154.863c-2.265-5.012-0.018-10.966,4.994-13.231l14.58-6.59
				c5.012-2.265,13.213-5.972,18.225-8.238l14.58-6.59c5.012-2.265,10.966-0.018,13.231,4.994L207.81,243.137z"/>
		</g>
		<circle cx="105.001" cy="94.94" r="86.94"/>
		<circle class="st1" cx="105.001" cy="94.94" r="76.394"/>
	</g>
</g>
</svg>