<!-- Generator: Adobe Illustrator 21.0.0, SVG Export Plug-In  -->
<svg version="1.1"
	 xmlns="http://www.w3.org/2000/svg" xmlns:xlink="http://www.w3.org/1999/xlink" xmlns:a="http://ns.adobe.com/AdobeSVGViewerExtensions/3.0/"
	 x="0px" y="0px" width="215.247px" height="197.789px" viewBox="0 0 215.247 197.789"
	 style="enable-background:new 0 0 215.247 197.789;" xml:space="preserve">
<style type="text/css">
	.st0{fill:#FFFFFF;}
	.st1{fill:#2E3192;}
	.st2{enable-background:new    ;}
	.st3{clip-path:url(#SVGID_3_);enable-background:new    ;}
	.st4{fill:none;stroke:#ED1C24;stroke-width:4;stroke-miterlimit:10;}
	.st5{clip-path:url(#SVGID_3_);fill:none;stroke:#ED1C24;stroke-width:4;stroke-miterlimit:10;}
	.st6{clip-path:url(#SVGID_4_);enable-background:new    ;}
	.st7{clip-path:url(#SVGID_4_);fill:none;stroke:#ED1C24;stroke-width:4;stroke-miterlimit:10;}
	.st8{fill:none;}
	.st9{clip-path:url(#SVGID_6_);enable-background:new    ;}
	.st10{clip-path:url(#SVGID_6_);fill:none;stroke:#ED1C24;stroke-width:4;stroke-miterlimit:10;}
	.st11{clip-path:url(#SVGID_8_);enable-background:new    ;}
	.st12{clip-path:url(#SVGID_8_);fill:none;stroke:#ED1C24;stroke-width:4;stroke-miterlimit:10;}
	.st13{font-family:'Mont-HeavyDEMO';}
	.st14{font-size:60px;}
	.st15{letter-spacing:-1;}
</style>
<defs>
</defs>
<g>
	<g>
		<g>
			<g>
				<path class="st0" d="M93.905,98.592l40.85,40.944l3.527,3.527c2.368,2.368,6.241,2.368,8.609,0l4.303-4.303
					c2.368-2.368,2.368-6.241,0-8.606l-45.322-45.314C99.274,85.988,94.656,91.873,93.905,98.592z"/>
				<path class="st0" d="M40.176,49.618c-0.961,0.961-0.961,2.532,0,3.493l2.754,2.754c0.961,0.961,2.532,0.961,3.493,0
					l17.329-17.329c0.961-0.961,0.961-2.532,0-3.493l-2.754-2.754c-0.961-0.961-2.532-0.961-3.493,0L40.176,49.618z"/>
				<path class="st0" d="M9.635,15.5c-0.961,0.961-0.961,2.532,0,3.493l1.68,1.68c0.961,0.961,2.532,0.961,3.493,0L28.56,6.922
					c0.961-0.961,0.961-2.532,0-3.493l-1.68-1.68c-0.961-0.961-2.532-0.961-3.493,0L9.635,15.5z"/>
				<g>
					<g>
						<g>
							<path class="st0" d="M200.12,134.083c-7.971-7.945-20.879-7.971-28.849,0c-7.996-7.971-20.904-7.945-28.875,0
								c-7.971,7.971-7.971,20.879,0,28.875c-7.971,7.971-7.971,20.879,0,28.85c7.971,7.971,20.879,7.971,28.875,0.025
								c7.971,7.945,20.879,7.945,28.849-0.025c7.971-7.971,7.971-20.879,0.025-28.85
								C208.091,154.962,208.091,142.054,200.12,134.083z M185.213,163.635c3.677,3.645,3.677,9.612,0,13.289
								c-3.645,3.677-9.612,3.677-13.289,0c-0.226-0.258-0.452-0.516-0.677-0.774c-0.193,0.258-0.419,0.516-0.677,0.774
								c-3.645,3.677-9.612,3.677-13.289,0c-3.645-3.677-3.645-9.644,0-13.289c0.258-0.258,0.516-0.484,0.774-0.677
								c-0.258-0.226-0.516-0.452-0.774-0.677c-3.645-3.677-3.645-9.644,0-13.289c3.677-3.677,9.644-3.677,13.289,0
								c0.258,0.226,0.484,0.484,0.677,0.742c0.226-0.258,0.452-0.516,0.677-0.742c3.677-3.677,9.644-3.677,13.289,0
								c3.677,3.645,3.677,9.612,0,13.289c-0.226,0.226-0.484,0.451-0.742,0.677C184.729,163.152,184.987,163.377,185.213,163.635z"
								/>
						</g>
					</g>
					<g>
						<path class="st0" d="M121.021,123.197c-2.857-2.857-7.494-2.857-10.327,0c-0.2,0.175-0.376,0.376-0.526,0.577
							c-0.175-0.201-0.351-0.401-0.526-0.577c-2.857-2.857-7.494-2.857-10.327,0c-2.857,2.832-2.857,7.469,0,10.327
							c0.175,0.175,0.376,0.351,0.576,0.526c-0.201,0.15-0.401,0.326-0.576,0.526c-2.857,2.832-2.857,7.469,0,10.327
							c2.832,2.857,7.469,2.857,10.327,0c0.175-0.201,0.351-0.401,0.526-0.602c0.15,0.2,0.326,0.401,0.526,0.602
							c2.832,2.857,7.469,2.857,10.327,0c2.832-2.857,2.832-7.494,0-10.327c-0.2-0.201-0.401-0.376-0.602-0.526
							c0.201-0.175,0.401-0.351,0.602-0.526C123.853,130.666,123.853,126.029,121.021,123.197z"/>
					</g>
				</g>
				<path class="st0" d="M10.508,15.584l35.357,35.357c3.565,3.565,9.345,3.565,12.91,0l0,0c3.565-3.565,3.565-9.345,0-12.91
					L23.419,2.674c-3.565-3.565-9.345-3.565-12.91,0l0,0C6.943,6.239,6.943,12.019,10.508,15.584z"/>
			</g>
			<g>
				<g>
					
						<rect x="17.607" y="42.572" transform="matrix(-0.7071 -0.7071 0.7071 -0.7071 2.1215 104.0031)" class="st0" width="9.986" height="17.981"/>
					
						<rect x="4.895" y="29.859" transform="matrix(-0.7071 -0.7071 0.7071 -0.7071 -10.5911 73.3123)" class="st0" width="9.986" height="17.981"/>
					<g>
						<path class="st0" d="M18.421,28.95c-1.573,1.573-4.122,1.573-5.695,0l7.018,7.018c1.573-1.573,4.122-1.573,5.695,0
							c1.381,1.381,1.547,3.514,0.503,5.079c-0.133,0.228-0.288,0.445-0.481,0.638l7.04,7.04c-1.573-1.573-1.573-4.122,0-5.695
							c1.573-1.573,4.122-1.573,5.695,0L18.421,23.255C19.994,24.827,19.994,27.377,18.421,28.95z"/>
					</g>
				</g>
				<g>
					<path class="st0" d="M93.905,98.592l40.85,40.944l3.527,3.527c2.368,2.368,6.241,2.368,8.609,0l4.303-4.303
						c2.368-2.368,2.368-6.241,0-8.606l-45.322-45.314C99.274,85.988,94.656,91.873,93.905,98.592z"/>
					<path class="st0" d="M40.176,49.618c-0.961,0.961-0.961,2.532,0,3.493l2.754,2.754c0.961,0.961,2.532,0.961,3.493,0
						l17.329-17.329c0.961-0.961,0.961-2.532,0-3.493l-2.754-2.754c-0.961-0.961-2.532-0.961-3.493,0L40.176,49.618z"/>
					<path class="st0" d="M9.635,15.5c-0.961,0.961-0.961,2.532,0,3.493l1.68,1.68c0.961,0.961,2.532,0.961,3.493,0L28.56,6.922
						c0.961-0.961,0.961-2.532,0-3.493l-1.68-1.68c-0.961-0.961-2.532-0.961-3.493,0L9.635,15.5z"/>
					<g>
						<g>
							<path class="st0" d="M115.44,128.778c-2.857-2.857-7.494-2.857-10.327,0c-0.2,0.175-0.376,0.376-0.526,0.577
								c-0.175-0.201-0.351-0.401-0.526-0.577c-2.857-2.857-7.494-2.857-10.327,0c-2.857,2.832-2.857,7.469,0,10.327
								c0.175,0.175,0.376,0.351,0.576,0.526c-0.201,0.15-0.401,0.326-0.576,0.526c-2.857,2.832-2.857,7.469,0,10.327
								c2.832,2.857,7.469,2.857,10.327,0c0.175-0.201,0.351-0.401,0.526-0.602c0.15,0.2,0.326,0.401,0.526,0.602
								c2.832,2.857,7.469,2.857,10.327,0c2.832-2.857,2.832-7.494,0-10.327c-0.2-0.201-0.401-0.376-0.602-0.526
								c0.201-0.175,0.401-0.351,0.602-0.526C118.272,136.247,118.272,131.61,115.44,128.778z"/>
						</g>
						<g>
							<g>
								<path class="st0" d="M200.12,134.083c-7.971-7.945-20.879-7.971-28.849,0c-7.996-7.971-20.904-7.945-28.875,0
									c-7.971,7.971-7.971,20.879,0,28.875c-7.971,7.971-7.971,20.879,0,28.85c7.971,7.971,20.879,7.971,28.875,0.025
									c7.971,7.945,20.879,7.945,28.849-0.025c7.971-7.971,7.971-20.879,0.025-28.85
									C208.091,154.962,208.091,142.054,200.12,134.083z M185.213,163.635c3.677,3.645,3.677,9.612,0,13.289
									c-3.645,3.677-9.612,3.677-13.289,0c-0.226-0.258-0.452-0.516-0.677-0.774c-0.193,0.258-0.419,0.516-0.677,0.774
									c-3.645,3.677-9.612,3.677-13.289,0c-3.645-3.677-3.645-9.644,0-13.289c0.258-0.258,0.516-0.484,0.774-0.677
									c-0.258-0.226-0.516-0.452-0.774-0.677c-3.645-3.677-3.645-9.644,0-13.289c3.677-3.677,9.644-3.677,13.289,0
									c0.258,0.226,0.484,0.484,0.677,0.742c0.226-0.258,0.452-0.516,0.677-0.742c3.677-3.677,9.644-3.677,13.289,0
									c3.677,3.645,3.677,9.612,0,13.289c-0.226,0.226-0.484,0.451-0.742,0.677C184.729,163.152,184.987,163.377,185.213,163.635z
									"/>
							</g>
						</g>
					</g>
					<path class="st0" d="M10.508,15.584l35.357,35.357c3.565,3.565,9.345,3.565,12.91,0l0,0c3.565-3.565,3.565-9.345,0-12.91
						L23.419,2.674c-3.565-3.565-9.345-3.565-12.91,0l0,0C6.943,6.239,6.943,12.019,10.508,15.584z"/>
				</g>
			</g>
			<g>
				<g>
					
						<rect x="187.653" y="42.572" transform="matrix(0.7071 -0.7071 0.7071 0.7071 19.9648 151.3237)" class="st0" width="9.986" height="17.981"/>
					
						<rect x="200.366" y="29.859" transform="matrix(0.7071 -0.7071 0.7071 0.7071 32.6774 156.5894)" class="st0" width="9.986" height="17.981"/>
					<g>
						<path class="st0" d="M196.825,28.95c1.573,1.573,4.122,1.573,5.695,0l-7.018,7.018c-1.573-1.573-4.122-1.573-5.695,0
							c-1.381,1.381-1.547,3.514-0.503,5.079c0.133,0.228,0.288,0.445,0.481,0.638l-7.04,7.04c1.573-1.573,1.573-4.122,0-5.695
							c-1.573-1.573-4.122-1.573-5.695,0l19.774-19.774C195.253,24.827,195.253,27.377,196.825,28.95z"/>
					</g>
				</g>
				<g>
					<path class="st0" d="M121.342,98.592l-40.85,40.944l-3.527,3.527c-2.368,2.368-6.241,2.368-8.609,0l-4.303-4.303
						c-2.368-2.368-2.368-6.241,0-8.606l45.322-45.314C115.973,85.988,120.59,91.873,121.342,98.592z"/>
					<path class="st0" d="M175.071,49.618c0.961,0.961,0.961,2.532,0,3.493l-2.754,2.754c-0.961,0.961-2.532,0.961-3.493,0
						l-17.329-17.329c-0.961-0.961-0.961-2.532,0-3.493l2.754-2.754c0.961-0.961,2.532-0.961,3.493,0L175.071,49.618z"/>
					<path class="st0" d="M205.611,15.5c0.961,0.961,0.961,2.532,0,3.493l-1.68,1.68c-0.961,0.961-2.532,0.961-3.493,0
						L186.687,6.922c-0.961-0.961-0.961-2.532,0-3.493l1.68-1.68c0.961-0.961,2.532-0.961,3.493,0L205.611,15.5z"/>
					<g>
						<g>
							<g>
								<path class="st0" d="M72.851,134.083c-7.971-7.945-20.879-7.971-28.875,0c-7.971-7.971-20.879-7.945-28.849,0
									c-7.971,7.971-7.971,20.879-0.025,28.875c-7.946,7.971-7.946,20.879,0.025,28.85c7.971,7.971,20.879,7.971,28.849,0.025
									c7.996,7.945,20.904,7.945,28.875-0.025s7.971-20.879,0-28.85C80.822,154.962,80.822,142.054,72.851,134.083z
									 M57.965,163.635c3.645,3.645,3.645,9.612,0,13.289c-3.677,3.677-9.644,3.677-13.289,0
									c-0.258-0.258-0.484-0.516-0.677-0.774c-0.226,0.258-0.452,0.516-0.677,0.774c-3.677,3.677-9.644,3.677-13.289,0
									c-3.677-3.677-3.677-9.644,0-13.289c0.226-0.258,0.484-0.484,0.742-0.677c-0.258-0.226-0.516-0.452-0.742-0.677
									c-3.677-3.677-3.677-9.644,0-13.289c3.645-3.677,9.612-3.677,13.289,0c0.226,0.226,0.452,0.484,0.677,0.742
									c0.194-0.258,0.419-0.516,0.677-0.742c3.645-3.677,9.612-3.677,13.289,0c3.645,3.645,3.645,9.612,0,13.289
									c-0.258,0.226-0.516,0.451-0.774,0.677C57.449,163.152,57.707,163.377,57.965,163.635z"/>
							</g>
						</g>
					</g>
					<path class="st0" d="M204.738,15.584l-35.357,35.357c-3.565,3.565-9.345,3.565-12.91,0l0,0c-3.565-3.565-3.565-9.345,0-12.91
						l35.357-35.357c3.565-3.565,9.345-3.565,12.91,0l0,0C208.303,6.239,208.303,12.019,204.738,15.584z"/>
				</g>
			</g>
		</g>
	</g>
</g>
<circle class="st1" cx="107.623" cy="97.254" r="84.166"/>
<g>
	<g class="st2">
		<g class="st2">
			<defs>
				<ellipse id="SVGID_2_" class="st2" cx="107.215" cy="97.094" rx="84.168" ry="84.163"/>
			</defs>
			<clipPath id="SVGID_3_">
				<use xlink:href="#SVGID_2_"  style="overflow:visible;"/>
			</clipPath>
			<g class="st3">
				<g>
					<path class="st4" d="M107.215,181.26c46.485,0,84.168-37.683,84.168-84.168c0,0-37.683,0-84.168,0
						C107.215,143.577,107.215,181.26,107.215,181.26z"/>
					<path class="st4" d="M149.697,169.769c0,0-19.02,0-42.481,0"/>
					<path class="st4" d="M179.892,139.573c0,0-32.538,0-72.677,0"/>
					<path class="st4" d="M107.215,181.26c40.138,0,72.677-37.683,72.677-84.168"/>
					<path class="st4" d="M107.215,181.26c23.462,0,42.481-37.683,42.481-84.168"/>
				</g>
				<g>
					<path class="st4" d="M107.215,181.26c0,0,0-37.683,0-84.168c-46.485,0-84.168,0-84.168,0
						C23.047,143.577,60.73,181.26,107.215,181.26z"/>
					<path class="st4" d="M107.215,169.769c-23.462,0-42.481,0-42.481,0"/>
					<path class="st4" d="M107.215,139.573c-40.138,0-72.677,0-72.677,0"/>
					<path class="st4" d="M107.215,181.26c-23.462,0-42.481-37.683-42.481-84.168"/>
					<path class="st4" d="M107.215,181.26c-40.138,0-72.677-37.683-72.677-84.168"/>
				</g>
				<g>
					<path class="st4" d="M107.215,181.26c-46.485,0-84.168-37.683-84.168-84.168c0,0,37.683,0,84.168,0
						C107.215,143.577,107.215,181.26,107.215,181.26z"/>
					<path class="st4" d="M64.734,169.769c0,0,19.02,0,42.481,0"/>
					<path class="st4" d="M34.539,139.573c0,0,32.538,0,72.677,0"/>
				</g>
				<g>
					<path class="st4" d="M191.383,97.092c0-46.485-37.683-84.159-84.168-84.159c0,0,0,37.674,0,84.159
						C153.7,97.092,191.383,97.092,191.383,97.092z"/>
					<path class="st4" d="M179.892,54.613c0,0-32.538,0-72.677,0"/>
					<path class="st4" d="M149.697,24.422c0,0-19.02,0-42.481,0"/>
					<path class="st4" d="M179.892,97.092c0-46.485-32.538-84.159-72.677-84.159"/>
					<path class="st4" d="M149.697,97.092c0-46.485-19.019-84.159-42.481-84.159"/>
				</g>
				<g>
					<path class="st4" d="M107.215,97.092c0-46.485,0-84.159,0-84.159c-46.485,0-84.168,37.674-84.168,84.159
						C23.047,97.092,60.731,97.092,107.215,97.092z"/>
					<path class="st4" d="M107.215,54.613c-40.138,0-72.677,0-72.677,0"/>
					<path class="st4" d="M107.215,24.422c-23.462,0-42.481,0-42.481,0"/>
					<path class="st4" d="M64.734,97.092c0-46.485,19.019-84.159,42.481-84.159"/>
					<path class="st4" d="M34.539,97.092c0-46.485,32.538-84.159,72.677-84.159"/>
				</g>
				<g>
					<path class="st4" d="M23.047,97.092c0-46.485,37.683-84.159,84.168-84.159c0,0,0,37.674,0,84.159
						C60.731,97.092,23.047,97.092,23.047,97.092z"/>
					<path class="st4" d="M34.539,54.613c0,0,32.538,0,72.677,0"/>
					<path class="st4" d="M64.734,24.422c0,0,19.02,0,42.481,0"/>
				</g>
			</g>
			<ellipse class="st5" cx="107.215" cy="97.094" rx="84.168" ry="84.163"/>
			<use xlink:href="#SVGID_2_"  style="overflow:visible;fill:none;stroke:#ED1C24;stroke-width:4;stroke-miterlimit:10;"/>
		</g>
		<g class="st2">
			<defs>
				<ellipse id="SVGID_1_" class="st2" cx="107.215" cy="97.094" rx="84.168" ry="84.163"/>
			</defs>
			<clipPath id="SVGID_4_">
				<use xlink:href="#SVGID_1_"  style="overflow:visible;"/>
			</clipPath>
			<g class="st6">
				<g>
					<path class="st4" d="M107.215,181.26c0,0,0-37.683,0-84.168c-46.485,0-84.168,0-84.168,0
						C23.047,143.577,60.73,181.26,107.215,181.26z"/>
					<path class="st4" d="M107.215,169.769c-23.462,0-42.481,0-42.481,0"/>
					<path class="st4" d="M107.215,139.573c-40.138,0-72.677,0-72.677,0"/>
				</g>
				<g>
					<path class="st4" d="M107.215,181.26c-46.485,0-84.168-37.683-84.168-84.168c0,0,37.683,0,84.168,0
						C107.215,143.577,107.215,181.26,107.215,181.26z"/>
					<path class="st4" d="M64.734,169.769c0,0,19.02,0,42.481,0"/>
					<path class="st4" d="M34.539,139.573c0,0,32.538,0,72.677,0"/>
					<path class="st4" d="M107.215,181.26c-40.138,0-72.677-37.683-72.677-84.168"/>
					<path class="st4" d="M107.215,181.26c-23.462,0-42.481-37.683-42.481-84.168"/>
				</g>
				<g>
					<path class="st4" d="M107.215,181.26c0,0,0-37.683,0-84.168c46.485,0,84.168,0,84.168,0
						C191.383,143.577,153.7,181.26,107.215,181.26z"/>
					<path class="st4" d="M107.215,169.769c23.462,0,42.481,0,42.481,0"/>
					<path class="st4" d="M107.215,139.573c40.138,0,72.677,0,72.677,0"/>
					<path class="st4" d="M107.215,181.26c23.462,0,42.481-37.683,42.481-84.168"/>
					<path class="st4" d="M107.215,181.26c40.138,0,72.677-37.683,72.677-84.168"/>
				</g>
				<g>
					<path class="st4" d="M107.215,97.092c0-46.485,0-84.159,0-84.159c-46.485,0-84.168,37.674-84.168,84.159
						C23.047,97.092,60.731,97.092,107.215,97.092z"/>
					<path class="st4" d="M107.215,54.613c-40.138,0-72.677,0-72.677,0"/>
					<path class="st4" d="M107.215,24.422c-23.462,0-42.481,0-42.481,0"/>
				</g>
				<g>
					<path class="st4" d="M23.047,97.092c0-46.485,37.683-84.159,84.168-84.159c0,0,0,37.674,0,84.159
						C60.731,97.092,23.047,97.092,23.047,97.092z"/>
					<path class="st4" d="M34.539,54.613c0,0,32.538,0,72.677,0"/>
					<path class="st4" d="M64.734,24.422c0,0,19.02,0,42.481,0"/>
					<path class="st4" d="M34.539,97.092c0-46.485,32.538-84.159,72.677-84.159"/>
					<path class="st4" d="M64.734,97.092c0-46.485,19.019-84.159,42.481-84.159"/>
				</g>
				<g>
					<path class="st4" d="M107.215,97.092c0-46.485,0-84.159,0-84.159c46.485,0,84.168,37.674,84.168,84.159
						C191.383,97.092,153.7,97.092,107.215,97.092z"/>
					<path class="st4" d="M107.215,54.613c40.138,0,72.677,0,72.677,0"/>
					<path class="st4" d="M107.215,24.422c23.462,0,42.481,0,42.481,0"/>
					<path class="st4" d="M149.697,97.092c0-46.485-19.019-84.159-42.481-84.159"/>
					<path class="st4" d="M179.892,97.092c0-46.485-32.538-84.159-72.677-84.159"/>
				</g>
			</g>
			<ellipse class="st7" cx="107.215" cy="97.094" rx="84.168" ry="84.163"/>
			<use xlink:href="#SVGID_1_"  style="overflow:visible;fill:none;stroke:#ED1C24;stroke-width:4;stroke-miterlimit:10;"/>
		</g>
	</g>
</g>
<g>
	<circle class="st8" cx="107.215" cy="87.026" r="84.166"/>
	<path class="st0" d="M61.115,108.364v10.596h-26.67V76.961h11.724v31.402H61.115z"/>
	<path class="st0" d="M77.977,87.43v6.685h13.496v10.127H77.977v14.718H66.304V76.961h26.728V87.43H77.977z"/>
	<path class="st0" d="M141.1,96.513c0,13.743-8.972,23.507-22.124,23.507c-12.868,0-22.374-9.249-22.374-22.026
		c0-12.778,9.333-22.096,22.271-22.096c11.009,0,20.014,6.89,21.79,16.649h-12.125c-1.52-3.539-5.277-5.813-9.561-5.813
		c-6.291,0-10.531,4.549-10.531,11.26c0,6.641,4.171,11.189,10.531,11.189c4.415,0,8.202-2.137,9.522-5.375h-10.431v-7.295
		L141.1,96.513z"/>
	<path class="st0" d="M170.504,112.137h-14.887l-2.326,6.822h-12.399l16.498-41.998h11.31l16.859,41.998h-12.741L170.504,112.137z
		 M163.037,90.069l-4.603,13.015h9.245L163.037,90.069z"/>
</g>
</svg>