<!-- Generator: Adobe Illustrator 21.0.0, SVG Export Plug-In  -->
<svg version="1.1"
	 xmlns="http://www.w3.org/2000/svg" xmlns:xlink="http://www.w3.org/1999/xlink" xmlns:a="http://ns.adobe.com/AdobeSVGViewerExtensions/3.0/"
	 x="0px" y="0px" width="215.247px" height="197.789px" viewBox="0 0 215.247 197.789"
	 style="enable-background:new 0 0 215.247 197.789;" xml:space="preserve">
<style type="text/css">
	.st0{fill:#FFFFFF;}
	.st1{fill:#2E3192;}
	.st2{fill:#ED1C24;}
	.st3{fill:#5796E0;}
	.st4{fill:none;}
	.st5{font-family:'Mont-HeavyDEMO';}
	.st6{font-size:50px;}
	.st7{letter-spacing:-1;}
</style>
<defs>
</defs>
<g>
	<g>
		<g>
			<g>
				<path class="st0" d="M99.16,137.752c3.677,3.645,3.677,9.612,0,13.289c-3.645,3.677-9.612,3.677-13.289,0
					c-0.226-0.258-0.452-0.516-0.677-0.774c-0.194,0.258-0.419,0.516-0.677,0.774c-3.645,3.677-9.612,3.677-13.289,0
					c-3.645-3.677-3.645-9.644,0-13.289c0.258-0.258,0.516-0.484,0.774-0.677c-0.258-0.226-0.516-0.452-0.774-0.677
					c-3.645-3.677-3.645-9.644,0-13.289c3.677-3.677,9.644-3.677,13.289,0c0.258,0.226,0.484,0.484,0.677,0.742
					c0.226-0.258,0.452-0.516,0.677-0.742c3.677-3.677,9.644-3.677,13.289,0c3.677,3.645,3.677,9.612,0,13.289
					c-0.226,0.226-0.484,0.451-0.742,0.677C98.677,137.268,98.935,137.494,99.16,137.752z"/>
			</g>
		</g>
		<g>
			<g>
				<path class="st0" d="M93.905,98.592l40.85,40.944l3.527,3.527c2.368,2.368,6.241,2.368,8.609,0l4.303-4.303
					c2.368-2.368,2.368-6.241,0-8.606l-45.322-45.314C99.274,85.988,94.656,91.873,93.905,98.592z"/>
				<path class="st0" d="M40.176,49.618c-0.961,0.961-0.961,2.532,0,3.493l2.754,2.754c0.961,0.961,2.532,0.961,3.493,0
					l17.329-17.329c0.961-0.961,0.961-2.532,0-3.493l-2.754-2.754c-0.961-0.961-2.532-0.961-3.493,0L40.176,49.618z"/>
				<path class="st0" d="M9.635,15.5c-0.961,0.961-0.961,2.532,0,3.493l1.68,1.68c0.961,0.961,2.532,0.961,3.493,0L28.56,6.922
					c0.961-0.961,0.961-2.532,0-3.493l-1.68-1.68c-0.961-0.961-2.532-0.961-3.493,0L9.635,15.5z"/>
				<g>
					<g>
						<g>
							<path class="st0" d="M200.12,134.083c-7.971-7.945-20.879-7.971-28.849,0c-7.996-7.971-20.904-7.945-28.875,0
								c-7.971,7.971-7.971,20.879,0,28.875c-7.971,7.971-7.971,20.879,0,28.85c7.971,7.971,20.879,7.971,28.875,0.025
								c7.971,7.945,20.879,7.945,28.849-0.025c7.971-7.971,7.971-20.879,0.025-28.85
								C208.091,154.962,208.091,142.054,200.12,134.083z M185.213,163.635c3.677,3.645,3.677,9.612,0,13.289
								c-3.645,3.677-9.612,3.677-13.289,0c-0.226-0.258-0.452-0.516-0.677-0.774c-0.193,0.258-0.419,0.516-0.677,0.774
								c-3.645,3.677-9.612,3.677-13.289,0c-3.645-3.677-3.645-9.644,0-13.289c0.258-0.258,0.516-0.484,0.774-0.677
								c-0.258-0.226-0.516-0.452-0.774-0.677c-3.645-3.677-3.645-9.644,0-13.289c3.677-3.677,9.644-3.677,13.289,0
								c0.258,0.226,0.484,0.484,0.677,0.742c0.226-0.258,0.452-0.516,0.677-0.742c3.677-3.677,9.644-3.677,13.289,0
								c3.677,3.645,3.677,9.612,0,13.289c-0.226,0.226-0.484,0.451-0.742,0.677C184.729,163.152,184.987,163.377,185.213,163.635z"
								/>
						</g>
					</g>
					<g>
						<path class="st0" d="M121.021,123.197c-2.857-2.857-7.494-2.857-10.327,0c-0.2,0.175-0.376,0.376-0.526,0.577
							c-0.175-0.201-0.351-0.401-0.526-0.577c-2.857-2.857-7.494-2.857-10.327,0c-2.857,2.832-2.857,7.469,0,10.327
							c0.175,0.175,0.376,0.351,0.576,0.526c-0.201,0.15-0.401,0.326-0.576,0.526c-2.857,2.832-2.857,7.469,0,10.327
							c2.832,2.857,7.469,2.857,10.327,0c0.175-0.201,0.351-0.401,0.526-0.602c0.15,0.2,0.326,0.401,0.526,0.602
							c2.832,2.857,7.469,2.857,10.327,0c2.832-2.857,2.832-7.494,0-10.327c-0.2-0.201-0.401-0.376-0.602-0.526
							c0.201-0.175,0.401-0.351,0.602-0.526C123.853,130.666,123.853,126.029,121.021,123.197z"/>
					</g>
				</g>
				<path class="st0" d="M10.508,15.584l35.357,35.357c3.565,3.565,9.345,3.565,12.91,0l0,0c3.565-3.565,3.565-9.345,0-12.91
					L23.419,2.674c-3.565-3.565-9.345-3.565-12.91,0l0,0C6.943,6.239,6.943,12.019,10.508,15.584z"/>
			</g>
			<g>
				<g>
					
						<rect x="13.61" y="46.569" transform="matrix(0.7071 -0.7071 0.7071 0.7071 -29.8404 31.0832)" class="st0" width="17.981" height="9.986"/>
					
						<rect x="0.898" y="33.856" transform="matrix(0.7071 -0.7071 0.7071 0.7071 -24.5747 18.3706)" class="st0" width="17.981" height="9.986"/>
					<g>
						<path class="st0" d="M18.421,28.95c-1.573,1.573-4.122,1.573-5.695,0l7.018,7.018c1.573-1.573,4.122-1.573,5.695,0
							c1.381,1.381,1.547,3.514,0.503,5.079c-0.133,0.228-0.288,0.445-0.481,0.638l7.04,7.04c-1.573-1.573-1.573-4.122,0-5.695
							c1.573-1.573,4.122-1.573,5.695,0L18.421,23.255C19.994,24.827,19.994,27.377,18.421,28.95z"/>
					</g>
				</g>
				<g>
					<path class="st0" d="M93.905,98.592l40.85,40.944l3.527,3.527c2.368,2.368,6.241,2.368,8.609,0l4.303-4.303
						c2.368-2.368,2.368-6.241,0-8.606l-45.322-45.314C99.274,85.988,94.656,91.873,93.905,98.592z"/>
					<path class="st0" d="M40.176,49.618c-0.961,0.961-0.961,2.532,0,3.493l2.754,2.754c0.961,0.961,2.532,0.961,3.493,0
						l17.329-17.329c0.961-0.961,0.961-2.532,0-3.493l-2.754-2.754c-0.961-0.961-2.532-0.961-3.493,0L40.176,49.618z"/>
					<path class="st0" d="M9.635,15.5c-0.961,0.961-0.961,2.532,0,3.493l1.68,1.68c0.961,0.961,2.532,0.961,3.493,0L28.56,6.922
						c0.961-0.961,0.961-2.532,0-3.493l-1.68-1.68c-0.961-0.961-2.532-0.961-3.493,0L9.635,15.5z"/>
					<g>
						<g>
							<path class="st0" d="M115.44,128.778c-2.857-2.857-7.494-2.857-10.327,0c-0.2,0.175-0.376,0.376-0.526,0.577
								c-0.175-0.201-0.351-0.401-0.526-0.577c-2.857-2.857-7.494-2.857-10.327,0c-2.857,2.832-2.857,7.469,0,10.327
								c0.175,0.175,0.376,0.351,0.576,0.526c-0.201,0.15-0.401,0.326-0.576,0.526c-2.857,2.832-2.857,7.469,0,10.327
								c2.832,2.857,7.469,2.857,10.327,0c0.175-0.201,0.351-0.401,0.526-0.602c0.15,0.2,0.326,0.401,0.526,0.602
								c2.832,2.857,7.469,2.857,10.327,0c2.832-2.857,2.832-7.494,0-10.327c-0.2-0.201-0.401-0.376-0.602-0.526
								c0.201-0.175,0.401-0.351,0.602-0.526C118.272,136.247,118.272,131.61,115.44,128.778z"/>
						</g>
						<g>
							<g>
								<path class="st0" d="M200.12,134.083c-7.971-7.945-20.879-7.971-28.849,0c-7.996-7.971-20.904-7.945-28.875,0
									c-7.971,7.971-7.971,20.879,0,28.875c-7.971,7.971-7.971,20.879,0,28.85c7.971,7.971,20.879,7.971,28.875,0.025
									c7.971,7.945,20.879,7.945,28.849-0.025c7.971-7.971,7.971-20.879,0.025-28.85
									C208.091,154.962,208.091,142.054,200.12,134.083z M185.213,163.635c3.677,3.645,3.677,9.612,0,13.289
									c-3.645,3.677-9.612,3.677-13.289,0c-0.226-0.258-0.452-0.516-0.677-0.774c-0.193,0.258-0.419,0.516-0.677,0.774
									c-3.645,3.677-9.612,3.677-13.289,0c-3.645-3.677-3.645-9.644,0-13.289c0.258-0.258,0.516-0.484,0.774-0.677
									c-0.258-0.226-0.516-0.452-0.774-0.677c-3.645-3.677-3.645-9.644,0-13.289c3.677-3.677,9.644-3.677,13.289,0
									c0.258,0.226,0.484,0.484,0.677,0.742c0.226-0.258,0.452-0.516,0.677-0.742c3.677-3.677,9.644-3.677,13.289,0
									c3.677,3.645,3.677,9.612,0,13.289c-0.226,0.226-0.484,0.451-0.742,0.677C184.729,163.152,184.987,163.377,185.213,163.635z
									"/>
							</g>
						</g>
					</g>
					<path class="st0" d="M10.508,15.584l35.357,35.357c3.565,3.565,9.345,3.565,12.91,0l0,0c3.565-3.565,3.565-9.345,0-12.91
						L23.419,2.674c-3.565-3.565-9.345-3.565-12.91,0l0,0C6.943,6.239,6.943,12.019,10.508,15.584z"/>
				</g>
			</g>
			<g>
				<g>
					
						<rect x="187.653" y="42.572" transform="matrix(0.7071 -0.7071 0.7071 0.7071 19.9648 151.3237)" class="st0" width="9.986" height="17.981"/>
					
						<rect x="200.366" y="29.859" transform="matrix(0.7071 -0.7071 0.7071 0.7071 32.6774 156.5894)" class="st0" width="9.986" height="17.981"/>
					<g>
						<path class="st0" d="M196.825,28.95c1.573,1.573,4.122,1.573,5.695,0l-7.018,7.018c-1.573-1.573-4.122-1.573-5.695,0
							c-1.381,1.381-1.547,3.514-0.503,5.079c0.133,0.228,0.288,0.445,0.481,0.638l-7.04,7.04c1.573-1.573,1.573-4.122,0-5.695
							c-1.573-1.573-4.122-1.573-5.695,0l19.774-19.774C195.253,24.827,195.253,27.377,196.825,28.95z"/>
					</g>
				</g>
				<g>
					<path class="st0" d="M121.342,98.592l-40.85,40.944l-3.527,3.527c-2.368,2.368-6.241,2.368-8.609,0l-4.303-4.303
						c-2.368-2.368-2.368-6.241,0-8.606l45.322-45.314C115.973,85.988,120.59,91.873,121.342,98.592z"/>
					<path class="st0" d="M175.071,49.618c0.961,0.961,0.961,2.532,0,3.493l-2.754,2.754c-0.961,0.961-2.532,0.961-3.493,0
						l-17.329-17.329c-0.961-0.961-0.961-2.532,0-3.493l2.754-2.754c0.961-0.961,2.532-0.961,3.493,0L175.071,49.618z"/>
					<path class="st0" d="M205.611,15.5c0.961,0.961,0.961,2.532,0,3.493l-1.68,1.68c-0.961,0.961-2.532,0.961-3.493,0
						L186.687,6.922c-0.961-0.961-0.961-2.532,0-3.493l1.68-1.68c0.961-0.961,2.532-0.961,3.493,0L205.611,15.5z"/>
					<g>
						<g>
							<g>
								<path class="st0" d="M72.851,134.083c-7.971-7.945-20.879-7.971-28.875,0c-7.971-7.971-20.879-7.945-28.849,0
									c-7.971,7.971-7.971,20.879-0.025,28.875c-7.946,7.971-7.946,20.879,0.025,28.85c7.971,7.971,20.879,7.971,28.849,0.025
									c7.996,7.945,20.904,7.945,28.875-0.025s7.971-20.879,0-28.85C80.822,154.962,80.822,142.054,72.851,134.083z
									 M57.965,163.635c3.645,3.645,3.645,9.612,0,13.289c-3.677,3.677-9.644,3.677-13.289,0
									c-0.258-0.258-0.484-0.516-0.677-0.774c-0.226,0.258-0.452,0.516-0.677,0.774c-3.677,3.677-9.644,3.677-13.289,0
									c-3.677-3.677-3.677-9.644,0-13.289c0.226-0.258,0.484-0.484,0.742-0.677c-0.258-0.226-0.516-0.452-0.742-0.677
									c-3.677-3.677-3.677-9.644,0-13.289c3.645-3.677,9.612-3.677,13.289,0c0.226,0.226,0.452,0.484,0.677,0.742
									c0.194-0.258,0.419-0.516,0.677-0.742c3.645-3.677,9.612-3.677,13.289,0c3.645,3.645,3.645,9.612,0,13.289
									c-0.258,0.226-0.516,0.451-0.774,0.677C57.449,163.152,57.707,163.377,57.965,163.635z"/>
							</g>
						</g>
					</g>
					<path class="st0" d="M204.738,15.584l-35.357,35.357c-3.565,3.565-9.345,3.565-12.91,0l0,0c-3.565-3.565-3.565-9.345,0-12.91
						l35.357-35.357c3.565-3.565,9.345-3.565,12.91,0l0,0C208.303,6.239,208.303,12.019,204.738,15.584z"/>
				</g>
			</g>
		</g>
	</g>
</g>
<g>
	<circle class="st1" cx="107.567" cy="95.516" r="84.166"/>
	<path class="st2" d="M123.141,148.743l31.251-11.668l14.208-9.769l9.411,1.805l3.249-5.195l4.64-9.437l-7.889-27.736l-8.436-29.916
		l-9.58-17.219c0,0-16.068-10.268-13.415-11.234s-18.922-3.298-18.922-3.298H97.233v17l-3.667,28.698v12.412l-14-1.148
		L68.495,95.192l1.524,24.999l23.547,14.665L123.141,148.743z"/>
	<g>
		<g>
			<path class="st1" d="M94.807,35.51c-1.976-0.049-3.975,0.073-5.921-0.196c-2.02-0.279-4.339-0.182-4.682-3.301
				c-0.204-1.855-2.195-2.432-3.774-2.747c-5.352-1.069-15.652,3.286-17.842,8.329c-1.156,2.662-2.138,1.702-3.454,1.149
				c-3.463-1.455-4.563-1.347-7.773,1.617c-1.094,1.01-1.905,2.67-3.611,1.211c-1.697-1.451-0.991-3.127,0.327-4.313
				c4.517-4.063,7.55-10.011,14.271-11.319c1.67-0.325,1.339-2.386,2.793-3.245c6.419-3.791,13.662-3.467,20.586-4.858
				c3.644-0.732,6.344,0.494,9.505,0.936c1.552,0.217,4.801-1.036,4.514-4.156c-0.228-2.471,0.929-2.632,3.257-2.875
				c5.572-0.582,10.368,1.12,15.678,1.36c5.564,0.251,10.079,2.183,14.556,5.178c1.828,1.223,4.427,1.294,7.661,2.15
				c-1.305-1.339-3.078-1.148-2.645-2.563c1.427-0.129,2.8,0.26,3,1.5c0.443,2.747,2.818,2.132,4.692,2.774
				c5.32,1.821,10.315,4.362,13.127,9.637c0.444,0.833,0.894,1.098,1.672,1.456c7.557,3.473,12.019,9.459,16.19,16.691
				c4.05,7.023,8.801,13.645,10.574,21.583c2.303,10.311,4.977,20.457,2.312,31.538c-1.033,4.297-0.818,9.559-1.97,14.179
				c-1.463,5.866-3.885,11.463-7.711,16.3c-0.089,0.113-0.417,0.135-0.419,0.205c-0.182,7.987-5.868,2.644-8.917,3.621
				c-1.168,0.374-2.407-0.302-2.679-1.596c-0.231-1.097,1.887-0.537,1.684-1.961c-1.842-1.117-2.522,0.98-2.875,1.658
				c-2.324,4.459-8.358,3.742-10.683,7.434c-3.939,6.255-14.096,7.426-13.766,17.11c0.036,1.058-0.172,1.787,0.783,2.464
				c0.982,0.697,1.823,0.69,2.638-0.173c2.926-3.097,7.69-3.006,10.609-6.179c1.328-1.444,2.907-0.814,4.591-0.257
				c2.225,0.737,2.523,1.632,0.612,2.856c-6.086,3.896-11.943,8.336-18.454,11.344c-12.17,5.623-24.962,9.208-38.664,8.249
				c-2.819-0.197-5.416-1.118-8.085-1.548c-3.267-0.526-6.494-1.074-9.738-1.781c-2.386-0.52-4.867-0.426-7.221-1.488
				c-9.829-4.437-19.973-8.306-27.631-16.402c-1.692-1.789-3.728-2.763-2.674-6.387c1.041-3.581-2.52-8.033,1.807-11.566
				c0.548-0.447-1.01-2.94-1.392-4.621c-2.032-8.947-1.836-10.085,5.554-15.099c3.219-2.184,3.434-6.098,5.642-8.914
				c1.149-1.465-1.694-1.959-3.378-2.146c-2.414-0.268-4.436-1.053-2.485-4.097c4.787-0.865,9.459-2.15,13.989-3.921
				c1.622-0.634,2.644-1.941,3.403-3.465c2.288-1.205,1.459-2.292-0.127-3.351c-0.648-0.896-1.328-2.589-1.938-2.564
				c-6.675,0.268-6.72-4.062-6.36-8.766c0,0-0.031,0.032-0.031,0.032c0.655,0.013,1.792-0.175,1.893,0.068
				c1.307,3.138,3.217,5.082,6.56,6.679c2.784,1.33,5.366,2.931,8.464,3.196c1.787,0.153,2.51,0.901,3.702,2.314
				c5.34,6.332,7.718,13.961,10.405,21.486c0.443,1.242,0.4,2.913,2.189,2.706c1.231-0.142,2.182-0.974,2.964-2.268
				c0.984-1.628,0.877-3.235,0.704-4.793c-0.232-2.092,0.537-3.787,2.14-4.513c2.814-1.274,4.481-3.598,6.499-5.671
				c3.025-3.107,6.894-2.637,9.356,0.944c1.073,1.561,2.817,4.583,3.145,4.437c3.422-1.518,3.23,1.662,4.382,3.013
				c1.329,1.554,1.083,3.499,0.985,5.248c-0.099,1.772-0.247,3.295,1.618,4.195c0.33,0.317,0.66,0.634,0.99,0.952
				c-0.003,0.242,0.059,0.467,0.184,0.674c0.019,1.821-0.15,3.748,2.34,4.189c0.499,0.264,1.217,0.879,1.457,0.729
				c0.852-0.533-0.502-0.778-0.331-1.318c-0.034-1.111,0.469-2.376-0.892-3.107c-0.698-0.901-1.629-1.258-2.748-1.178
				c-0.308-0.341-0.615-0.681-0.923-1.022c-1.354-2.447-1.742-5.043-1.202-7.783c1.847-0.682,2.947,0.768,4.411,1.347
				c2.723,1.076,6.086,1.834,7.918-1.332c1.271-2.197,0.113-4.517-1.781-6.381c-4.805-4.726-4.438-6.171,1.992-8.703
				c0.512-0.249,1.024-0.498,1.535-0.747c8.737-3.475,11.088-10.084,6.167-17.509c-0.658-0.993-1.122-1.9-1.031-3.137
				c0.121-1.642,0.221-3.331-2.404-3.03c-0.327,0.037-2.791-0.215-1.743-2.005c0.685-1.17,0.918-3.585,3.438-2.22
				c0.856,0.464,1.829,0.713,2.749,1.06c1.517,1.28,3.034,2.561,4.551,3.841c-1.077-3.837-2.336-7.307-1.874-11.122
				c0.497-1.369,1.086-2.712,1.473-4.111c0.88-3.184-2.412-11.115-4.891-10.782c-6.012,0.806-5.077-3.757-4.4-6.101
				c0.96-3.325,1.133-6.801,2.321-10.037c0.439,0.352,0.877,0.705,1.316,1.057c0.68-1.355-0.717-2.053-0.982-3.109
				c-0.891-1.848-3.057-2.286-4.218-4.041c-1.224-1.851-4.094-1.967-5.173-0.273c-3.878,6.088-11.06,4.152-16.188,7.113
				c-1.151,0.664-3.47,1.015-4.725-1.358c-0.404-0.765-2.292-1.232-3.864,0.048c-1.586,1.291-3.796,1.817-5.733,2.679
				c-1.616,0.949-2.31,3.612-4.957,2.645c-2.002-0.732-2.006-0.722-2.409,1.82C97.472,37.528,96.766,34.631,94.807,35.51z
				 M136.886,135.176c-0.067-0.748-0.135-1.497-0.202-2.245c-1.835-3.78-4.91-6.162-8.71-7.727
				c-1.274-1.107-2.169-2.962-4.833-2.412c1.821,1.208,2.525,3.093,4.515,3.295c1.605,4.112,3.404,8.038,8.498,8.77
				c0.248,0.107,0.499,0.205,0.753,0.295c2.625,3.042,5.581,1.819,8.522,0.773C142.598,135.454,139.644,136.632,136.886,135.176z
				 M173.172,122.259c0.852,0.92,1.91,0.955,3.034,0.705c0.823,0.038,1.649,0.14,2.469,0.102c2.548-0.119,2.459-0.145,2.565-1.8
				c0.137-2.149-0.365-3.473-2.909-2.987c-1.219,0.233-2.694-0.545-3.568,0.963c-0.247-0.003-0.479,0.055-0.695,0.175
				C172.97,120.113,171.422,120.667,173.172,122.259z M151.968,117.213c-4.227,1.368-5.996,5.413-9.391,7.439
				c-0.963,0.575-0.768,1.837-0.414,2.75c0.589,1.517,1.183,3.073,3.418,2.81c1.87-0.22,3.779,0.494,4.994-1.992
				C152.269,124.753,152.539,121.241,151.968,117.213z M61.296,143.987c-0.468-1.622,0.877-4.28-2.362-4.682
				c-1.619-0.201-3.265,0.071-3.272,1.968c-0.009,2.838-0.181,5.793,1.297,8.422c0.85,1.512,2.199,2.695,3.925,2.027
				c1.967-0.762,0.262-2.127,0.156-3.274C60.909,147.026,61.186,145.568,61.296,143.987z M159.995,69.862
				c3.692-1.734,2.552-4.183,1.224-6.672C161.709,65.443,160.244,67.277,159.995,69.862z M154.142,39.199
				c-0.46-1.689-1.666-2.908-4.254-4.101C151.799,36.94,153.054,38.15,154.142,39.199z M157.783,129.111
				c-0.221-3.016-0.95-3.918-2.63-3.522c-0.336,0.079-0.812,0.776-0.756,1.109C154.715,128.599,156.848,126.85,157.783,129.111z
				 M158.566,58.186c0.49-0.73,0.848-1.062,0.947-1.459c0.149-0.595,0.159-1.331-0.761-1.255c-0.305,0.025-0.818,0.499-0.809,0.753
				C157.962,56.765,158.26,57.296,158.566,58.186z M161.862,109.602c-2.126,1.244-1.89,2.432-1.398,3.841
				C160.884,112.289,161.251,111.28,161.862,109.602z M169.384,119.613c-0.262,0.167-0.605,0.281-0.757,0.518
				c-0.097,0.152,0.089,0.484,0.148,0.736c0.268-0.128,0.661-0.191,0.769-0.401C169.648,120.264,169.456,119.911,169.384,119.613z
				 M140.283,99.938c-0.237,0.265-0.435,0.484-0.632,0.704c0.233,0.057,0.466,0.147,0.7,0.152c0.073,0.002,0.23-0.236,0.211-0.34
				C140.531,100.279,140.39,100.123,140.283,99.938z"/>
			<path class="st2" d="M126.338,109.816c-1.152-1.351-0.96-4.531-4.382-3.013c-0.328,0.146-2.072-2.876-3.145-4.437
				c-2.462-3.581-6.331-4.051-9.356-0.944c-2.018,2.073-3.685,4.397-6.499,5.671c-1.603,0.726-2.373,2.421-2.14,4.513
				c0.173,1.558,0.281,3.165-0.704,4.793c-0.782,1.294-1.733,2.125-2.964,2.268c-1.79,0.207-1.746-1.464-2.189-2.706
				c-2.687-7.525-5.065-15.154-10.405-21.486c-1.191-1.413-1.915-2.161-3.702-2.314c-3.098-0.265-5.68-1.867-8.464-3.196
				c-3.343-1.597-5.253-3.541-6.56-6.679c-0.101-0.243-1.238-0.056-1.893-0.068c-0.112-0.06-0.224-0.12-0.336-0.181
				c0.122,0.05,0.245,0.099,0.367,0.149c-0.361,4.704-0.316,9.034,6.36,8.766c0.611-0.025,1.291,1.669,1.936,2.563
				c-0.376,1.133-0.354,2.251,0.13,3.352c-0.759,1.524-1.78,2.83-3.403,3.465c-4.53,1.771-9.202,3.056-13.989,3.921
				c-0.348-0.327-0.697-0.653-1.045-0.98c0.136-6.613-2.879-12.864-2.276-19.538c0.014-0.159-0.483-0.365-0.742-0.549
				c-0.645-2.935-0.108-5.727,1.021-8.448c1.83-2.165,5.562-4.842,2.65-7.248c-3.253-2.688-2.24-4.772-1.436-7.492
				c0,0,0.36-0.022,0.36-0.021c1.465,2.557,4.917-0.307,6.342,2.318c1.5,2.762,3.415,2.286,5.487,0.747
				c6.097,2.713,6.939-0.267,6.756-5.622c-0.136-3.981,5.183-6.091,8.074-3.139c3.154,3.221,3.553,1.444,4.944-1.337
				c2.969-5.939,6.42-11.638,9.674-17.435c1.959-0.879,2.665,2.018,4.503,1.499c1.337,1.433,2.742,2.939,4.572,0.734
				c1.265-1.524,5.235-1.676,2.797-5.203c1.937-0.861,4.146-1.387,5.733-2.679c1.572-1.279,3.459-0.812,3.864-0.048
				c1.255,2.373,3.574,2.022,4.725,1.358c5.128-2.96,12.31-1.024,16.188-7.113c1.079-1.694,3.949-1.577,5.173,0.273
				c1.161,1.755,3.327,2.194,4.218,4.041c-0.943,0.549-0.538,1.317-0.333,2.052c-1.189,3.236-1.361,6.712-2.321,10.037
				c-0.677,2.344-1.612,6.908,4.4,6.101c2.479-0.332,5.771,7.599,4.891,10.782c-0.387,1.399-0.976,2.742-1.473,4.108
				c-3.652,1.412-0.071,5.484-2.677,7.283c-0.92-0.347-1.892-0.596-2.749-1.06c-2.52-1.365-2.753,1.049-3.438,2.22
				c-1.048,1.789,1.416,2.042,1.743,2.005c2.625-0.3,2.525,1.388,2.404,3.03c-0.091,1.237,0.373,2.144,1.031,3.137
				c4.92,7.425,2.57,14.035-6.166,17.507c-0.756-0.252-1.467-0.41-1.536,0.749c-6.43,2.532-6.798,3.977-1.992,8.703
				c1.895,1.864,3.052,4.184,1.781,6.381c-1.831,3.166-5.194,2.409-7.918,1.332c-1.464-0.579-2.563-2.029-4.41-1.348
				C127.639,110.572,127.936,109.304,126.338,109.816z M106.741,70.106c-1.088-0.472,0.406-3.267-2.164-2.406
				c-1.321-0.297-2.991-1.468-3.109,1.243c-2.279,0.896-0.666,1.799-0.005,2.7c1.473-2.124,4.18,1.335,5.558-1.229
				c0.635-0.106,1.447,1.217,1.892-0.162c0.248-0.767,0.202-1.758-0.767-1.96C106.705,67.993,106.699,69.097,106.741,70.106z"/>
			<path class="st1" d="M53.171,59.998c-0.803,2.72-1.817,4.804,1.436,7.492c2.912,2.406-0.82,5.083-2.65,7.248
				c-2.404-0.796-4.224-2.16-5.727-4.339c-0.748-1.085-0.994-3.553-3.881-2.732c-1.685,0.48-1.125-1.349-0.945-2.664
				c0.554-4.051,3.272-8.081-0.491-12.226c-1.827-2.012,1.746-2.312,2.492-3.75c1.085-2.091,3.283,0.441,5.16,0.283
				c1.123-0.094-0.089,1.84-0.253,2.877c-0.153,0.967-0.033,1.977-0.033,3.936c0.506-2.817,0.815-4.764,2.728-6.672
				c1.475,4.084-0.924,6.847-2.177,10.752C50.811,58.324,51.887,59.755,53.171,59.998z"/>
			<path class="st2" d="M65.36,63.042c-2.072,1.539-3.987,2.015-5.487-0.747c-1.425-2.624-4.877,0.24-6.342-2.318
				c0.216-0.24,0.397-0.533,0.656-0.71C64.365,52.278,63.288,54.601,65.36,63.042z"/>
			<path class="st1" d="M25.757,96.664c0.233,9.282,3.682,18.038,4.328,27.252C25.771,115.302,23.745,106.313,25.757,96.664z"/>
			<path class="st1" d="M50.936,83.186c0.259,0.184,0.756,0.389,0.742,0.549c-0.603,6.675,2.412,12.925,2.276,19.538
				c-1.359-0.057-1.772-0.832-2.212-2.102C49.679,95.227,50.561,89.206,50.936,83.186z"/>
			<path class="st1" d="M64.037,46.371c3.827-2.678,7.037-2.429,10.201-2.382c0.84,0.012,1.744,0.124,1.765,1.222
				c0.021,1.131-0.944,1.057-1.734,1.258C71.136,47.265,68.176,45.954,64.037,46.371z"/>
			<path class="st1" d="M63.158,38.642c2.212-0.52,2.956-2.31,4.771-1.706c0.587,0.195,0.77,0.948,0.3,1.618
				C66.987,40.325,65.565,39.516,63.158,38.642z"/>
			<path class="st1" d="M39.054,50.767c-0.597,0.346-1.12,0.01-0.976-0.403c0.243-0.696,0.831-1.272,1.273-1.899
				c0.361,0.3,0.914,0.533,1.046,0.913C40.844,50.655,39.277,50.124,39.054,50.767z"/>
			<path class="st2" d="M151.968,117.213c0.571,4.028,0.301,7.541-1.393,11.007c-1.215,2.486-3.123,1.772-4.994,1.992
				c-2.235,0.263-2.83-1.293-3.418-2.81c-0.354-0.913-0.549-2.176,0.414-2.75C145.972,122.626,147.741,118.581,151.968,117.213z"/>
			<path class="st1" d="M61.904,143.608c-0.136,1.956-0.479,3.762-0.317,5.521c0.131,1.421,2.242,3.11-0.193,4.053
				c-2.136,0.827-3.806-0.638-4.859-2.509c-1.829-3.254-1.617-6.912-1.606-10.426c0.008-2.348,2.046-2.685,4.05-2.436
				C62.989,138.311,61.325,141.6,61.904,143.608z"/>
			<path class="st2" d="M127.973,125.203c3.8,1.565,6.875,3.947,8.711,7.721c-1.364,0.314-0.538,1.235-0.531,1.931
				c-5.094-0.732-6.892-4.657-8.495-8.769C127.907,125.843,128.011,125.548,127.973,125.203z"/>
			<path class="st2" d="M106.679,32.541c2.438,3.527-1.532,3.679-2.797,5.203c-1.831,2.205-3.235,0.699-4.572-0.734
				c0.407-2.545,0.411-2.556,2.413-1.824C104.369,36.153,105.064,33.489,106.679,32.541z"/>
			<path class="st1" d="M149.067,68.739c2.607-1.798-0.975-5.871,2.677-7.283c-0.462,3.817,0.797,7.287,1.874,11.124
				C152.101,71.299,150.584,70.019,149.067,68.739z"/>
			<path class="st2" d="M174.762,119.242c0.874-1.508,2.349-0.73,3.568-0.963c2.544-0.486,3.047,0.837,2.909,2.987
				c-0.106,1.655-0.018,1.681-2.565,1.8c-0.82,0.038-1.646-0.064-2.47-0.102C176.89,121.271,179.231,118.938,174.762,119.242z"/>
			<path class="st2" d="M159.995,69.862c0.249-2.586,1.714-4.42,1.224-6.672C162.547,65.679,163.687,68.128,159.995,69.862z"/>
			<path class="st2" d="M174.762,119.242c4.469-0.304,2.128,2.029,1.443,3.722c-1.123,0.25-2.181,0.215-3.025-0.707
				c0.301-0.948,0.594-1.894,0.887-2.84C174.283,119.298,174.515,119.239,174.762,119.242z"/>
			<path class="st2" d="M136.886,135.175c2.758,1.457,5.712,0.278,8.543,0.749c-2.942,1.046-5.897,2.268-8.523-0.773
				C136.906,135.151,136.886,135.175,136.886,135.175z"/>
			<path class="st2" d="M154.142,39.199c-1.088-1.049-2.344-2.259-4.254-4.101C152.477,36.291,153.683,37.51,154.142,39.199z"/>
			<path class="st2" d="M126.338,109.816c1.598-0.512,1.301,0.756,1.48,1.578c-0.541,2.741-0.153,5.338,1.201,7.785l-0.077,0.08
				c-1.866-0.9-1.718-2.422-1.619-4.195C127.42,113.315,127.667,111.37,126.338,109.816z"/>
			<path class="st2" d="M127.973,125.203c0.038,0.345-0.066,0.64-0.315,0.884c-1.993-0.202-2.697-2.088-4.518-3.296
				C125.805,122.242,126.7,124.096,127.973,125.203z"/>
			<path class="st2" d="M157.783,129.111c-0.934-2.261-3.068-0.512-3.386-2.413c-0.056-0.333,0.42-1.03,0.756-1.109
				C156.833,125.193,157.562,126.096,157.783,129.111z"/>
			<path class="st2" d="M133.581,124.486c-0.171,0.539,1.183,0.785,0.331,1.318c-0.24,0.15-0.958-0.465-1.459-0.73
				c-0.721-1.43-0.015-3.654-2.338-4.189c-0.126-0.207-0.187-0.432-0.184-0.674c0,0,0.01-0.01,0.01-0.01
				c1.118-0.08,2.05,0.277,2.749,1.179C132.989,122.417,133.285,123.451,133.581,124.486z"/>
			<path class="st2" d="M158.566,58.186c-0.306-0.89-0.604-1.42-0.623-1.961c-0.009-0.254,0.504-0.728,0.809-0.753
				c0.92-0.076,0.91,0.66,0.761,1.255C159.414,57.124,159.056,57.456,158.566,58.186z"/>
			<path class="st2" d="M72.39,96.867c-0.484-1.1-0.505-2.219-0.13-3.352C73.849,94.575,74.678,95.662,72.39,96.867z"/>
			<path class="st2" d="M174.067,119.417c-0.293,0.946-0.586,1.892-0.887,2.84C171.422,120.667,172.97,120.113,174.067,119.417z"/>
			<path class="st2" d="M130.115,120.885c2.323,0.535,1.617,2.759,2.338,4.189C129.966,124.633,130.135,122.706,130.115,120.885z"/>
			<path class="st2" d="M146.247,30.426c-0.205-0.735-0.61-1.503,0.333-2.052c0.265,1.056,1.662,1.754,0.982,3.109
				C147.124,31.131,146.685,30.779,146.247,30.426z"/>
			<path class="st2" d="M161.862,109.602c-0.611,1.678-0.978,2.687-1.398,3.841C159.972,112.033,159.736,110.845,161.862,109.602z"
				/>
			<path class="st2" d="M133.581,124.486c-0.296-1.035-0.593-2.069-0.891-3.105C134.05,122.11,133.547,123.375,133.581,124.486z"/>
			<path class="st2" d="M169.389,119.619c0.067,0.292,0.259,0.646,0.156,0.847c-0.108,0.21-0.501,0.274-0.769,0.401
				c-0.059-0.252-0.245-0.584-0.148-0.736C168.779,119.894,169.122,119.779,169.389,119.619z"/>
			<path class="st2" d="M136.153,134.855c-0.007-0.697-0.833-1.617,0.531-1.931c0.067,0.755,0.134,1.503,0.202,2.251
				c0,0,0.02-0.024,0.02-0.024C136.652,135.061,136.401,134.962,136.153,134.855z"/>
			<path class="st2" d="M140.283,99.938c0.107,0.185,0.248,0.341,0.28,0.517c0.019,0.103-0.138,0.341-0.211,0.34
				c-0.235-0.006-0.467-0.095-0.7-0.152C139.848,100.422,140.045,100.202,140.283,99.938z"/>
			<path class="st2" d="M140.356,96.327c0.069-1.159,0.781-1.001,1.536-0.749C141.379,95.829,140.867,96.078,140.356,96.327z"/>
			<path class="st2" d="M129.019,119.179c0.308,0.341,0.615,0.681,0.923,1.022c0,0-0.01,0.01-0.01,0.01
				c-0.33-0.317-0.661-0.634-0.99-0.952C128.941,119.259,129.019,119.179,129.019,119.179z"/>
			<path class="st2" d="M104.577,67.7c-0.925,0.699-2.509-0.25-3.112,1.245C101.586,66.232,103.257,67.403,104.577,67.7z"/>
			<path class="st3" d="M63.965,82.187c-0.122-0.05-0.245-0.099-0.367-0.149c0.112,0.06,0.224,0.121,0.336,0.181
				C63.934,82.218,63.965,82.187,63.965,82.187z"/>
		</g>
	</g>
	<g>
		<circle class="st4" cx="107.456" cy="103.273" r="84.166"/>
		<path class="st0" d="M69.041,107.026v8.831H46.814V80.854h9.771v26.171H69.041z"/>
		<path class="st0" d="M83.092,89.579v5.572h11.247v8.44H83.092v12.266h-9.728V80.854H95.64v8.725H83.092z"/>
		<path class="st0" d="M135.697,97.15c0,11.454-7.478,19.591-18.438,19.591c-10.725,0-18.646-7.708-18.646-18.357
			c0-10.649,7.777-18.415,18.561-18.415c9.174,0,16.679,5.741,18.16,13.875h-10.105c-1.267-2.949-4.398-4.844-7.969-4.844
			c-5.242,0-8.776,3.791-8.776,9.384c0,5.536,3.477,9.327,8.776,9.327c3.681,0,6.836-1.781,7.937-4.48h-8.692v-6.079L135.697,97.15z
			"/>
		<path class="st0" d="M160.199,110.171h-12.407l-1.938,5.685h-10.334l13.75-35.002h9.426l14.051,35.002h-10.619L160.199,110.171z
			 M153.975,91.779l-3.835,10.846h7.705L153.975,91.779z"/>
	</g>
</g>
</svg>