<!-- Generator: Adobe Illustrator 21.0.0, SVG Export Plug-In  -->
<svg version="1.1"
	 xmlns="http://www.w3.org/2000/svg" xmlns:xlink="http://www.w3.org/1999/xlink" xmlns:a="http://ns.adobe.com/AdobeSVGViewerExtensions/3.0/"
	 x="0px" y="0px" width="489.5px" height="54.577px" viewBox="0 0 489.5 54.577" style="enable-background:new 0 0 489.5 54.577;"
	 xml:space="preserve">
<style type="text/css">
	.st0{fill:none;}
	.st1{fill:none;stroke:#B3B3B3;stroke-width:5;stroke-miterlimit:10;}
	.st2{font-family:'Mont-HeavyDEMO';}
	.st3{font-size:42px;}
	.st4{letter-spacing:2;}
	.st5{letter-spacing:1;}
</style>
<defs>
</defs>
<g>
	<rect x="1.757" y="4.83" class="st0" width="487.743" height="49.746"/>
	<path d="M28.013,16.918c0,6.167-4.644,10.66-10.894,10.66h-4.4V35.7H4.6V6.294h12.52C23.369,6.294,28.013,10.752,28.013,16.918z
		 M19.686,16.937c0-2.09-1.405-3.568-3.538-3.568h-3.429v7.136h3.429C18.28,20.505,19.686,19.026,19.686,16.937z"/>
	<path d="M48.176,12.908v7.15h-3.034c-2.766,0-3.925,1.213-3.925,4.107V35.7h-7.813V13.016h5.234l1.219,2.518
		c1.6-1.851,3.548-2.625,6.248-2.625H48.176z"/>
	<path d="M51.53,24.358c0-7.032,5.322-12.085,12.718-12.085c7.372,0,12.718,5.054,12.718,12.085c0,7.007-5.347,12.085-12.718,12.085
		C56.852,36.443,51.53,31.365,51.53,24.358z M64.248,29.425c2.849,0,4.892-2.067,4.892-5.066c0-2.981-2.043-5.066-4.892-5.066
		c-2.849,0-4.892,2.067-4.892,5.066C59.356,27.357,61.399,29.424,64.248,29.425L64.248,29.425z"/>
	<path d="M106.629,4.824V35.7h-5.782l-0.737-1.685c-1.846,1.554-4.2,2.452-6.842,2.452c-6.961,0-11.919-5.06-11.919-12.109
		c0-7.05,4.958-12.086,11.919-12.086c2.094,0,4.011,0.565,5.636,1.575V4.824H106.629z M99.391,24.358
		c0-2.962-2.151-5.191-5.078-5.191s-5.078,2.229-5.078,5.191s2.151,5.191,5.078,5.191S99.391,27.32,99.391,24.358z"/>
	<path d="M113.33,25.961V13.016h7.813v12.606c0,2.395,1.287,3.803,3.375,3.803c2.087,0,3.35-1.432,3.35-3.803V13.016h7.813v12.946
		c0,6.348-4.463,10.482-11.164,10.482C117.817,36.443,113.33,32.309,113.33,25.961z"/>
	<path d="M153.618,36.442c-7.275,0-12.526-5.097-12.526-12.116s5.227-12.019,12.55-12.019c6.375,0,11.156,4.019,12.01,10.053h-7.611
		c-0.657-1.851-2.387-3.052-4.424-3.052c-2.746,0-4.7,2.087-4.7,5.042s1.978,5.09,4.7,5.09c2.097,0,3.796-1.284,4.441-3.309h7.677
		C164.852,32.292,160.005,36.443,153.618,36.442L153.618,36.442z"/>
	<path d="M186.295,28.856V35.7h-5.376c-5.017,0-8.065-3.066-8.065-8.107v-8.56h-4.152v-1.826l10.163-10.823h1.605v6.632h5.699v6.017
		h-5.501v7.219c0,1.625,0.98,2.604,2.629,2.604H186.295z"/>
	<path d="M200.79,36.443c-6.183,0-9.94-3.265-10.011-8.18h7.521c0,1.659,1.155,2.422,2.636,2.422c1.143,0,2.227-0.583,2.227-1.755
		c0-1.309-1.717-1.682-3.897-2.042c-3.517-0.57-8.18-1.631-8.18-7.133c0-4.547,3.875-7.482,9.687-7.482
		c5.777,0,9.521,3.073,9.609,7.669h-7.317c0-1.448-0.974-2.122-2.389-2.122c-1.253,0-2.094,0.62-2.094,1.671
		c0,1.291,1.735,1.591,3.89,1.976c3.583,0.636,8.348,1.381,8.348,7.134C210.818,33.341,206.817,36.443,200.79,36.443L200.79,36.443z
		"/>
	<path d="M245.734,35.7c-0.489-0.531-0.964-1.048-1.426-1.553c-2.305,1.408-5.054,2.2-8.065,2.2c-5.652,0-9.569-3.521-9.569-8.688
		c0-3.98,2.362-6.434,5.1-8.267c-2.297-3.275-2.777-4.999-2.777-6.703c0-4.783,3.955-7.409,8.913-7.409
		c4.898,0,8.848,2.679,8.848,7.391c0,4.011-3.029,6.303-6.172,8.208c1.02,1.238,2.198,2.62,3.535,4.165
		c0.488-1.051,0.807-2.212,0.909-3.434h6.371c-0.14,3.259-1.153,6.177-2.821,8.539c1.491,1.7,3.111,3.546,4.859,5.552H245.734z
		 M240.017,29.396c-1.771-1.99-3.263-3.715-4.52-5.223c-1.072,0.938-1.768,1.976-1.768,3.258c0,1.634,1.238,2.728,3.126,2.728
		C237.963,30.159,239.034,29.886,240.017,29.396z M235.705,12.891c0,0.845,0.473,1.954,1.419,3.413
		c1.729-1.031,2.975-2.057,2.975-3.413c0-1.321-0.954-2.127-2.188-2.127C236.642,10.764,235.705,11.552,235.705,12.891z"/>
	<path d="M266.761,26.205h8.356c0,2.101,1.621,3.123,3.468,3.123c1.696,0,3.317-0.903,3.317-2.509c0-1.844-2.289-2.379-5.088-3.058
		c-4.25-1.057-9.676-2.359-9.676-9.053c0-5.791,4.254-9.108,11.188-9.108c7.049,0,11.092,3.619,11.092,9.602h-8.124
		c0-1.859-1.387-2.731-3.065-2.731c-1.443,0-2.829,0.625-2.829,1.998c0,1.67,2.216,2.222,4.984,2.918
		c4.328,1.117,9.987,2.563,9.987,9.277c0,6.422-4.935,9.756-11.763,9.756C271.412,36.419,266.761,32.614,266.761,26.205z"/>
	<path d="M319.698,24.144c0,0.684-0.06,1.367-0.162,2.068h-16.844c0.512,2.602,2.164,3.947,4.631,3.947
		c1.826,0,3.351-0.799,4.102-2.127h7.775c-1.597,5.177-6.186,8.412-11.877,8.412c-7.077,0-12.32-5.173-12.32-12.104
		c0-6.954,5.201-12.068,12.32-12.068C314.636,12.272,319.698,17.489,319.698,24.144L319.698,24.144z M302.831,21.885h9.17
		c-0.686-2.267-2.319-3.491-4.678-3.491C305.046,18.395,303.463,19.632,302.831,21.885z"/>
	<path d="M340.117,12.908v7.15h-3.033c-2.767,0-3.925,1.213-3.925,4.107V35.7h-7.813V13.016h5.234l1.219,2.518
		c1.6-1.851,3.549-2.625,6.248-2.625H340.117z"/>
	<path d="M368.331,13.016L359.212,35.7h-7.078l-9.24-22.684h8.561l4.288,13.435l4.238-13.435H368.331z"/>
	<path d="M372.932,13.015h7.813v22.684h-7.813V13.015z M372.991,3.546h7.694v6.631h-7.694V3.546z"/>
	<path d="M398.979,36.442c-7.274,0-12.525-5.097-12.525-12.116s5.227-12.019,12.55-12.019c6.375,0,11.156,4.019,12.01,10.053h-7.61
		c-0.657-1.851-2.387-3.052-4.424-3.052c-2.746,0-4.7,2.087-4.7,5.042s1.979,5.09,4.7,5.09c2.097,0,3.796-1.284,4.441-3.309h7.677
		C410.214,32.292,405.367,36.443,398.979,36.442L398.979,36.442z"/>
	<path d="M439.942,24.144c0,0.684-0.06,1.367-0.162,2.068h-16.844c0.512,2.602,2.164,3.947,4.631,3.947
		c1.826,0,3.351-0.799,4.102-2.127h7.775c-1.597,5.177-6.186,8.412-11.877,8.412c-7.077,0-12.32-5.173-12.32-12.104
		c0-6.954,5.201-12.068,12.32-12.068C434.88,12.272,439.942,17.489,439.942,24.144L439.942,24.144z M423.075,21.885h9.17
		c-0.686-2.267-2.319-3.491-4.678-3.491C425.29,18.395,423.707,19.632,423.075,21.885z"/>
	<path d="M454.342,36.443c-6.183,0-9.94-3.265-10.012-8.18h7.521c0,1.659,1.154,2.422,2.637,2.422c1.143,0,2.226-0.583,2.226-1.755
		c0-1.309-1.717-1.682-3.896-2.042c-3.517-0.57-8.18-1.631-8.18-7.133c0-4.547,3.875-7.482,9.687-7.482
		c5.776,0,9.521,3.073,9.609,7.669h-7.316c0-1.448-0.975-2.122-2.39-2.122c-1.253,0-2.094,0.62-2.094,1.671
		c0,1.291,1.734,1.591,3.89,1.976c3.583,0.636,8.348,1.381,8.348,7.134c0,4.74-4.001,7.843-10.03,7.843L454.342,36.443z"/>
</g>
<line class="st1" x1="0" y1="45.077" x2="466" y2="45.077"/>
</svg>