<!-- Generator: Adobe Illustrator 21.0.0, SVG Export Plug-In  -->
<svg version="1.1"
	 xmlns="http://www.w3.org/2000/svg" xmlns:xlink="http://www.w3.org/1999/xlink" xmlns:a="http://ns.adobe.com/AdobeSVGViewerExtensions/3.0/"
	 x="0px" y="0px" width="1333.135px" height="290.645px" viewBox="0 0 1333.135 290.645"
	 style="enable-background:new 0 0 1333.135 290.645;" xml:space="preserve">
<style type="text/css">
	.st0{fill:none;}
	.st1{font-family:'Mont-HeavyDEMO';}
	.st2{font-size:32px;}
	.st3{letter-spacing:6;}
	.st4{letter-spacing:5;}
</style>
<defs>
</defs>
<g>
	<rect x="0" y="3.679" class="st0" width="1321.863" height="286.966"/>
	<path d="M16.389,21.549v5.65H2.165V4.801h6.252v16.748H16.389z"/>
	<path d="M25.382,10.384v3.565h7.198v5.401h-7.198v7.849h-6.225V4.801h14.254v5.583H25.382z"/>
	<path d="M59.047,15.229c0,7.329-4.785,12.536-11.799,12.536c-6.863,0-11.932-4.933-11.932-11.747S40.293,4.234,47.193,4.234
		c5.871,0,10.674,3.674,11.621,8.879h-6.466c-0.811-1.887-2.815-3.1-5.099-3.1c-3.355,0-5.616,2.426-5.616,6.005
		c0,3.542,2.224,5.968,5.616,5.968c2.355,0,4.374-1.14,5.079-2.867h-5.563v-3.89L59.047,15.229z"/>
	<path d="M74.775,17.088c0-5.891,1.76-11.21,4.64-15.414h6.346c-2.336,2.993-5.216,8.742-5.216,15.414
		c0,6.641,2.784,12.389,5.152,15.351h-6.282C76.535,28.266,74.775,22.946,74.775,17.088z"/>
	<path d="M100.996,23.562h-7.939l-1.241,3.638h-6.613l8.798-22.398h6.032l8.991,22.398h-6.795L100.996,23.562z M97.014,11.792
		l-2.454,6.94h4.93L97.014,11.792z"/>
	<path d="M109.166,19.967h6.366c0,1.6,1.234,2.379,2.641,2.379c1.292,0,2.527-0.688,2.527-1.911c0-1.405-1.744-1.813-3.875-2.329
		c-3.237-0.805-7.37-1.797-7.37-6.896c0-4.41,3.241-6.938,8.522-6.938c5.37,0,8.449,2.757,8.449,7.313h-6.188
		c0-1.416-1.056-2.08-2.335-2.08c-1.1,0-2.155,0.476-2.155,1.521c0,1.271,1.688,1.692,3.797,2.223
		c3.297,0.851,7.607,1.952,7.607,7.066c0,4.893-3.759,7.432-8.96,7.432C112.709,27.747,109.166,24.849,109.166,19.967z"/>
	<path d="M130.383,4.801h6.252v22.398h-6.252V4.801z"/>
	<path d="M154.595,23.562h-7.939l-1.241,3.638h-6.613l8.798-22.398h6.032l8.991,22.398h-6.795L154.595,23.562z M150.613,11.792
		l-2.454,6.94h4.93L150.613,11.792z"/>
	<path d="M162.17,32.438c2.368-2.962,5.152-8.71,5.152-15.351c0-6.672-2.88-12.421-5.216-15.414h6.346
		c2.88,4.204,4.64,9.523,4.64,15.414c0,5.858-1.76,11.178-4.64,15.351H162.17z"/>
	<path d="M204.248,21.549v5.65h-14.224V4.801h6.252v16.748H204.248z"/>
	<path d="M206.724,9.92h5.952v17.279h-5.952V9.92z M206.769,2.707h5.86v5.051h-5.86V2.707z"/>
	<path d="M242.925,16.362v10.837h-5.951V17.098c0-1.805-0.665-2.675-1.929-2.675c-1.636,0-2.474,1.126-2.474,3.302v9.475h-5.796
		V17.098c0-1.75-0.66-2.675-1.906-2.675c-1.613,0-2.498,1.153-2.498,3.302v9.475h-5.952V9.921h4.185l0.847,1.856
		c1.249-1.455,3.061-2.368,5.051-2.368c2.106,0,3.88,0.946,4.956,2.544c1.242-1.563,3.155-2.544,5.306-2.544
		C240.465,9.409,242.925,12.293,242.925,16.362z"/>
	<path d="M246.467,9.92h5.952v17.279h-5.952V9.92z M246.513,2.707h5.86v5.051h-5.86V2.707z"/>
	<path d="M267.815,21.986v5.213h-4.095c-3.821,0-6.144-2.336-6.144-6.176v-6.52h-3.163v-1.392l7.742-8.243h1.223v5.052h4.341v4.583
		h-4.191v5.499c0,1.237,0.747,1.983,2.002,1.983H267.815z"/>
	<path d="M288.239,18.396c0,0.521-0.045,1.041-0.123,1.576h-12.831c0.39,1.981,1.648,3.007,3.528,3.007
		c1.39,0,2.552-0.609,3.124-1.621h5.923c-1.216,3.943-4.711,6.407-9.046,6.407c-5.392,0-9.385-3.94-9.385-9.219
		c0-5.297,3.962-9.192,9.385-9.192C284.383,9.354,288.239,13.328,288.239,18.396L288.239,18.396z M275.391,16.677h6.985
		c-0.522-1.728-1.767-2.659-3.563-2.659C277.078,14.018,275.873,14.96,275.391,16.677z"/>
	<path d="M309.196,3.681v23.519h-4.404l-0.562-1.283c-1.406,1.184-3.199,1.868-5.212,1.868c-5.302,0-9.079-3.854-9.079-9.225
		c0-5.369,3.777-9.205,9.079-9.205c1.596,0,3.055,0.43,4.293,1.199V3.681H309.196z M303.683,18.561c0-2.257-1.639-3.955-3.868-3.955
		c-2.229,0-3.868,1.698-3.868,3.955c0,2.256,1.639,3.953,3.868,3.953C302.044,22.514,303.683,20.816,303.683,18.561z"/>
	<path d="M345.713,18.56c0,5.384-3.777,9.225-9.06,9.225c-1.563,0-2.993-0.411-4.212-1.147v6.802h-5.884V9.921h4.047l0.746,1.372
		c1.421-1.229,3.25-1.938,5.303-1.938C341.936,9.354,345.713,13.177,345.713,18.56z M339.725,18.56c0-2.27-1.639-3.954-3.868-3.954
		c-2.229,0-3.868,1.685-3.868,3.954s1.639,3.954,3.868,3.954C338.072,22.514,339.725,20.829,339.725,18.56z"/>
	<path d="M359.696,9.838v5.446h-2.311c-2.107,0-2.99,0.925-2.99,3.129v8.786h-5.952V9.921h3.987l0.929,1.917
		c1.218-1.409,2.703-2,4.759-2H359.696z"/>
	<path d="M360.654,18.56c0-5.355,4.054-9.205,9.688-9.205c5.615,0,9.688,3.85,9.688,9.205c0,5.338-4.072,9.206-9.688,9.206
		C364.708,27.766,360.654,23.897,360.654,18.56z M374.068,18.561c0-2.271-1.556-3.859-3.726-3.859c-2.17,0-3.727,1.574-3.727,3.859
		c0,2.284,1.556,3.858,3.727,3.858C372.512,22.419,374.068,20.845,374.068,18.561z"/>
	<path d="M399.527,9.921l-6.946,17.278h-5.391l-7.039-17.278h6.521l3.266,10.233l3.229-10.233H399.527z"/>
	<path d="M401.437,9.92h5.952v17.279h-5.952V9.92z M401.482,2.707h5.86v5.051h-5.86V2.707z"/>
	<path d="M429.382,3.681v23.519h-4.404l-0.562-1.283c-1.406,1.184-3.199,1.868-5.212,1.868c-5.302,0-9.079-3.854-9.079-9.225
		c0-5.369,3.777-9.205,9.079-9.205c1.596,0,3.055,0.43,4.293,1.199V3.681H429.382z M423.869,18.561c0-2.257-1.639-3.955-3.868-3.955
		c-2.229,0-3.868,1.698-3.868,3.955c0,2.256,1.639,3.953,3.868,3.953C422.23,22.514,423.869,20.816,423.869,18.561z"/>
	<path d="M450.92,18.396c0,0.521-0.045,1.041-0.123,1.576h-12.831c0.39,1.981,1.648,3.007,3.528,3.007
		c1.39,0,2.552-0.609,3.124-1.621h5.923c-1.216,3.943-4.711,6.407-9.046,6.407c-5.392,0-9.385-3.94-9.385-9.219
		c0-5.297,3.962-9.192,9.385-9.192C447.064,9.354,450.921,13.328,450.92,18.396L450.92,18.396z M438.072,16.677h6.985
		c-0.522-1.728-1.767-2.659-3.563-2.659C439.76,14.018,438.554,14.96,438.072,16.677z"/>
	<path d="M460.294,27.766c-4.709,0-7.572-2.487-7.626-6.231h5.729c0,1.264,0.879,1.846,2.008,1.846c0.871,0,1.696-0.444,1.696-1.337
		c0-0.997-1.308-1.281-2.968-1.556c-2.679-0.435-6.231-1.243-6.231-5.434c0-3.464,2.952-5.699,7.379-5.699
		c4.4,0,7.251,2.34,7.319,5.842h-5.573c0-1.104-0.742-1.616-1.82-1.616c-0.954,0-1.595,0.472-1.595,1.272
		c0,0.983,1.321,1.213,2.963,1.505c2.729,0.485,6.358,1.053,6.358,5.435C467.933,25.402,464.886,27.766,460.294,27.766
		L460.294,27.766z"/>
	<path d="M483.335,18.56c0-5.355,4.054-9.205,9.688-9.205c5.615,0,9.688,3.85,9.688,9.205c0,5.338-4.072,9.206-9.688,9.206
		C487.39,27.766,483.335,23.897,483.335,18.56z M496.75,18.561c0-2.271-1.556-3.859-3.726-3.859c-2.17,0-3.727,1.574-3.727,3.859
		c0,2.284,1.556,3.858,3.727,3.858C495.193,22.419,496.75,20.845,496.75,18.561z"/>
	<path d="M522.542,16.663v10.536h-5.952v-9.714c0-2.011-0.755-3.009-2.253-3.009c-1.856,0-2.924,1.297-2.924,3.496v9.227h-5.952
		V9.921h4.175l0.818,1.781c1.287-1.434,3.205-2.293,5.439-2.293C519.906,9.409,522.542,12.261,522.542,16.663z"/>
	<path d="M526.101,3.681h5.952v23.519h-5.952V3.681z"/>
	<path d="M535.797,9.92h5.952v17.279h-5.952V9.92z M535.843,2.707h5.86v5.051h-5.86V2.707z"/>
	<path d="M562.573,16.663v10.536h-5.952v-9.714c0-2.011-0.755-3.009-2.253-3.009c-1.856,0-2.924,1.297-2.924,3.496v9.227h-5.952
		V9.921h4.175l0.818,1.781c1.287-1.434,3.205-2.293,5.439-2.293C559.938,9.409,562.573,12.261,562.573,16.663z"/>
	<path d="M583.813,19.973h-12.83c0.39,1.981,1.648,3.007,3.527,3.007c1.391,0,2.552-0.609,3.124-1.621h5.923
		c-1.216,3.943-4.712,6.407-9.047,6.407c-5.391,0-9.385-3.94-9.385-9.219c0-5.297,3.962-9.192,9.385-9.192
		c5.569,0,9.426,3.974,9.426,9.042C583.937,18.917,583.892,19.438,583.813,19.973z M571.088,16.677h6.985
		c-0.521-1.728-1.767-2.659-3.563-2.659C572.776,14.018,571.57,14.96,571.088,16.677z"/>
	<path d="M619.526,18.573c0,5.369-3.758,9.192-9.078,9.192c-2.017,0-3.809-0.677-5.212-1.85l-0.562,1.283h-4.404V3.681h5.884v6.892
		c1.236-0.764,2.696-1.191,4.294-1.191C615.769,9.381,619.526,13.203,619.526,18.573z M613.52,18.573
		c0-2.257-1.639-3.941-3.867-3.941c-2.229,0-3.868,1.685-3.868,3.941c0,2.237,1.639,3.922,3.868,3.922
		C611.867,22.495,613.52,20.811,613.52,18.573z"/>
	<path d="M622.03,19.781v-9.86h5.951v9.602c0,1.824,0.98,2.896,2.571,2.896c1.59,0,2.552-1.091,2.552-2.896V9.921h5.951v9.86
		c0,4.835-3.399,7.984-8.503,7.984C625.448,27.766,622.03,24.616,622.03,19.781z"/>
	<path d="M642.574,3.681h5.952v23.519h-5.952V3.681z"/>
	<path d="M652.27,3.681h5.952v23.519h-5.952V3.681z"/>
	<path d="M661.965,9.92h5.952v17.279h-5.952V9.92z M662.011,2.707h5.86v5.051h-5.86V2.707z"/>
	<path d="M670.654,18.56c0-5.355,4.054-9.205,9.688-9.205c5.615,0,9.688,3.85,9.688,9.205c0,5.338-4.072,9.206-9.688,9.206
		C674.708,27.766,670.654,23.897,670.654,18.56z M684.068,18.561c0-2.271-1.557-3.859-3.727-3.859s-3.727,1.574-3.727,3.859
		c0,2.284,1.557,3.858,3.727,3.858S684.068,20.845,684.068,18.561z"/>
	<path d="M709.859,16.663v10.536h-5.951v-9.714c0-2.011-0.756-3.009-2.254-3.009c-1.855,0-2.923,1.297-2.923,3.496v9.227h-5.952
		V9.921h4.176l0.817,1.781c1.286-1.434,3.205-2.293,5.439-2.293C707.225,9.409,709.859,12.261,709.859,16.663z"/>
	<path d="M737.505,21.986v5.213h-4.095c-3.821,0-6.144-2.336-6.144-6.176v-6.52h-3.163v-1.392l7.741-8.243h1.223v5.052h4.341v4.583
		h-4.19v5.499c0,1.237,0.747,1.983,2.003,1.983H737.505z"/>
	<path d="M751.535,9.838v5.446h-2.311c-2.107,0-2.989,0.925-2.989,3.129v8.786h-5.952V9.921h3.987l0.929,1.917
		c1.219-1.409,2.703-2,4.759-2H751.535z"/>
	<path d="M771.892,9.902v17.278h-4.601l-0.51-1.222c-1.415,1.146-3.207,1.807-5.214,1.807c-5.283,0-9.06-3.854-9.06-9.225
		c0-5.351,3.776-9.16,9.06-9.16c2.035,0,3.854,0.68,5.28,1.857l0.608-1.336H771.892z M766.231,18.555
		c0-2.242-1.639-3.927-3.868-3.927c-2.242,0-3.868,1.685-3.868,3.927c0,2.257,1.639,3.941,3.868,3.941
		S766.231,20.812,766.231,18.555z"/>
	<path d="M793.894,3.681v23.519h-4.404l-0.562-1.283c-1.406,1.184-3.199,1.868-5.212,1.868c-5.302,0-9.078-3.854-9.078-9.225
		c0-5.369,3.776-9.205,9.078-9.205c1.596,0,3.056,0.43,4.294,1.199V3.681H793.894z M788.38,18.561c0-2.257-1.639-3.955-3.868-3.955
		c-2.229,0-3.867,1.698-3.867,3.955c0,2.256,1.639,3.953,3.867,3.953C786.741,22.514,788.38,20.816,788.38,18.561z"/>
	<path d="M797.627,9.92h5.952v17.279h-5.952V9.92z M797.673,2.707h5.86v5.051h-5.86V2.707z"/>
	<path d="M824.402,16.663v10.536h-5.951v-9.714c0-2.011-0.756-3.009-2.254-3.009c-1.855,0-2.923,1.297-2.923,3.496v9.227h-5.952
		V9.921h4.176l0.817,1.781c1.286-1.434,3.205-2.293,5.439-2.293C821.768,9.409,824.402,12.261,824.402,16.663z"/>
	<path d="M845.832,9.921v15.358c0,5.431-3.555,8.794-9.262,8.794c-4.903,0-8.336-2.473-9.131-6.567h5.743
		c0.412,1.155,1.887,1.777,3.333,1.777c1.994,0,3.597-1.268,3.597-3.322v-0.516c-1.299,0.824-2.841,1.297-4.509,1.297
		c-4.954,0-8.635-3.686-8.635-8.685c0-4.927,3.681-8.689,8.635-8.689c2.092,0,3.985,0.75,5.45,2.002l0.755-1.449H845.832z
		 M840.267,18.058c0-2.183-1.533-3.766-3.675-3.766c-2.137,0-3.688,1.583-3.688,3.766c0,2.201,1.533,3.785,3.688,3.785
		C838.729,21.843,840.267,20.259,840.267,18.058z"/>
	<path d="M869.887,27.766c-4.71,0-7.572-2.487-7.627-6.231h5.729c0,1.264,0.88,1.846,2.009,1.846c0.87,0,1.695-0.444,1.695-1.337
		c0-0.997-1.308-1.281-2.968-1.556c-2.679-0.435-6.23-1.243-6.23-5.434c0-3.464,2.951-5.699,7.378-5.699
		c4.4,0,7.252,2.34,7.32,5.842h-5.574c0-1.104-0.741-1.616-1.819-1.616c-0.954,0-1.596,0.472-1.596,1.272
		c0,0.983,1.322,1.213,2.963,1.505c2.729,0.485,6.359,1.053,6.359,5.435C877.525,25.402,874.478,27.766,869.887,27.766
		L869.887,27.766z"/>
	<path d="M897.989,19.973h-12.83c0.389,1.981,1.647,3.007,3.527,3.007c1.39,0,2.552-0.609,3.124-1.621h5.922
		c-1.216,3.943-4.711,6.407-9.046,6.407c-5.392,0-9.386-3.94-9.386-9.219c0-5.297,3.962-9.192,9.386-9.192
		c5.569,0,9.426,3.974,9.426,9.042C898.112,18.917,898.066,19.438,897.989,19.973z M885.264,16.677h6.985
		c-0.522-1.728-1.767-2.659-3.563-2.659C886.951,14.018,885.745,14.96,885.264,16.677z"/>
	<path d="M912.071,9.838v5.446h-2.311c-2.107,0-2.989,0.925-2.989,3.129v8.786h-5.952V9.921h3.987l0.929,1.917
		c1.219-1.409,2.703-2,4.759-2H912.071z"/>
	<path d="M931.966,9.921l-6.946,17.278h-5.392L912.59,9.921h6.521l3.266,10.233l3.229-10.233H931.966z"/>
	<path d="M933.875,9.92h5.952v17.279h-5.952V9.92z M933.921,2.707h5.86v5.051h-5.86V2.707z"/>
	<path d="M952.119,27.765c-5.541,0-9.541-3.882-9.541-9.229s3.981-9.155,9.56-9.155c4.855,0,8.498,3.062,9.148,7.657h-5.798
		c-0.5-1.409-1.817-2.324-3.369-2.324c-2.092,0-3.58,1.59-3.58,3.841s1.507,3.878,3.58,3.878c1.597,0,2.891-0.979,3.383-2.521h5.848
		C960.677,24.604,956.984,27.766,952.119,27.765L952.119,27.765z"/>
	<path d="M981.604,19.973h-12.83c0.389,1.981,1.647,3.007,3.527,3.007c1.39,0,2.552-0.609,3.124-1.621h5.922
		c-1.216,3.943-4.711,6.407-9.046,6.407c-5.392,0-9.386-3.94-9.386-9.219c0-5.297,3.962-9.192,9.386-9.192
		c5.569,0,9.426,3.974,9.426,9.042C981.727,18.917,981.681,19.438,981.604,19.973z M968.878,16.677h6.985
		c-0.522-1.728-1.767-2.659-3.563-2.659C970.565,14.018,969.359,14.96,968.878,16.677z"/>
	<path d="M983.474,21.534h5.729c0,1.264,0.879,1.846,2.008,1.846c0.87,0,1.695-0.444,1.695-1.337c0-0.997-1.308-1.281-2.968-1.556
		c-2.679-0.435-6.23-1.243-6.23-5.434c0-3.464,2.951-5.699,7.378-5.699c4.4,0,7.252,2.34,7.32,5.842h-5.574
		c0-1.104-0.741-1.616-1.819-1.616c-0.954,0-1.596,0.472-1.596,1.272c0,0.983,1.322,1.213,2.963,1.505
		c2.729,0.485,6.359,1.053,6.359,5.435c0,3.61-3.048,5.974-7.64,5.974C986.391,27.766,983.528,25.278,983.474,21.534z"/>
	<path d="M1025.605,21.986v5.213h-4.095c-3.821,0-6.144-2.336-6.144-6.176v-6.52h-3.163v-1.392l7.741-8.243h1.223v5.052h4.341v4.583
		h-4.19v5.499c0,1.237,0.747,1.983,2.003,1.983H1025.605z"/>
	<path d="M1027.219,18.56c0-5.355,4.054-9.205,9.688-9.205c5.615,0,9.688,3.85,9.688,9.205c0,5.338-4.072,9.206-9.688,9.206
		C1031.272,27.766,1027.219,23.897,1027.219,18.56z M1040.633,18.561c0-2.271-1.557-3.859-3.727-3.859s-3.727,1.574-3.727,3.859
		c0,2.284,1.557,3.858,3.727,3.858S1040.633,20.845,1040.633,18.561z"/>
	<path d="M1062.97,9.92h5.952v17.279h-5.952V9.92z M1063.016,2.707h5.86v5.051h-5.86V2.707z"/>
	<path d="M1089.745,16.663v10.536h-5.951v-9.714c0-2.011-0.756-3.009-2.254-3.009c-1.855,0-2.923,1.297-2.923,3.496v9.227h-5.952
		V9.921h4.176l0.817,1.781c1.286-1.434,3.205-2.293,5.439-2.293C1087.109,9.409,1089.745,12.261,1089.745,16.663z"/>
	<path d="M1111.555,3.681v23.519h-4.404l-0.562-1.283c-1.406,1.184-3.199,1.868-5.212,1.868c-5.302,0-9.078-3.854-9.078-9.225
		c0-5.369,3.776-9.205,9.078-9.205c1.596,0,3.056,0.43,4.294,1.199V3.681H1111.555z M1106.041,18.561
		c0-2.257-1.639-3.955-3.868-3.955c-2.229,0-3.867,1.698-3.867,3.955c0,2.256,1.639,3.953,3.867,3.953
		C1104.402,22.514,1106.041,20.816,1106.041,18.561z"/>
	<path d="M1115.288,9.92h5.952v17.279h-5.952V9.92z M1115.334,2.707h5.86v5.051h-5.86V2.707z"/>
	<path d="M1142.498,9.921l-6.946,17.278h-5.392l-7.038-17.278h6.521l3.266,10.233l3.229-10.233H1142.498z"/>
	<path d="M1144.407,9.92h5.952v17.279h-5.952V9.92z M1144.453,2.707h5.86v5.051h-5.86V2.707z"/>
	<path d="M1172.353,3.681v23.519h-4.404l-0.562-1.283c-1.406,1.184-3.199,1.868-5.212,1.868c-5.302,0-9.078-3.854-9.078-9.225
		c0-5.369,3.776-9.205,9.078-9.205c1.596,0,3.056,0.43,4.294,1.199V3.681H1172.353z M1166.839,18.561
		c0-2.257-1.639-3.955-3.868-3.955c-2.229,0-3.867,1.698-3.867,3.955c0,2.256,1.639,3.953,3.867,3.953
		C1165.2,22.514,1166.839,20.816,1166.839,18.561z"/>
	<path d="M1175.863,19.781v-9.86h5.951v9.602c0,1.824,0.98,2.896,2.571,2.896c1.59,0,2.552-1.091,2.552-2.896V9.921h5.951v9.86
		c0,4.835-3.399,7.984-8.503,7.984C1179.281,27.766,1175.863,24.616,1175.863,19.781z"/>
	<path d="M1214.799,9.902v17.278h-4.601l-0.51-1.222c-1.415,1.146-3.207,1.807-5.214,1.807c-5.283,0-9.06-3.854-9.06-9.225
		c0-5.351,3.776-9.16,9.06-9.16c2.035,0,3.854,0.68,5.28,1.857l0.608-1.336H1214.799z M1209.139,18.555
		c0-2.242-1.639-3.927-3.868-3.927c-2.242,0-3.868,1.685-3.868,3.927c0,2.257,1.639,3.941,3.868,3.941
		S1209.139,20.812,1209.139,18.555z"/>
	<path d="M1218.551,3.681h5.952v23.519h-5.952V3.681z"/>
	<path d="M1234.914,27.766c-4.71,0-7.572-2.487-7.627-6.231h5.729c0,1.264,0.88,1.846,2.009,1.846c0.87,0,1.695-0.444,1.695-1.337
		c0-0.997-1.308-1.281-2.968-1.556c-2.679-0.435-6.23-1.243-6.23-5.434c0-3.464,2.951-5.699,7.378-5.699
		c4.4,0,7.252,2.34,7.32,5.842h-5.574c0-1.104-0.741-1.616-1.819-1.616c-0.954,0-1.596,0.472-1.596,1.272
		c0,0.983,1.322,1.213,2.963,1.505c2.729,0.485,6.359,1.053,6.359,5.435C1242.553,25.402,1239.505,27.766,1234.914,27.766
		L1234.914,27.766z"/>
	<path d="M1277.352,9.902v17.278h-4.601l-0.51-1.222c-1.415,1.146-3.207,1.807-5.214,1.807c-5.283,0-9.06-3.854-9.06-9.225
		c0-5.351,3.776-9.16,9.06-9.16c2.035,0,3.854,0.68,5.28,1.857l0.608-1.336H1277.352z M1271.691,18.555
		c0-2.242-1.639-3.927-3.868-3.927c-2.242,0-3.868,1.685-3.868,3.927c0,2.257,1.639,3.941,3.868,3.941
		S1271.691,20.812,1271.691,18.555z"/>
	<path d="M1298.184,16.663v10.536h-5.951v-9.714c0-2.011-0.756-3.009-2.254-3.009c-1.855,0-2.923,1.297-2.923,3.496v9.227h-5.952
		V9.921h4.176l0.817,1.781c1.286-1.434,3.205-2.293,5.439-2.293C1295.549,9.409,1298.184,12.261,1298.184,16.663z"/>
	<path d="M1319.993,3.681v23.519h-4.404l-0.562-1.283c-1.406,1.184-3.199,1.868-5.212,1.868c-5.302,0-9.078-3.854-9.078-9.225
		c0-5.369,3.776-9.205,9.078-9.205c1.596,0,3.056,0.43,4.294,1.199V3.681H1319.993z M1314.479,18.561
		c0-2.257-1.639-3.955-3.868-3.955c-2.229,0-3.867,1.698-3.867,3.955c0,2.256,1.639,3.953,3.867,3.953
		C1312.841,22.514,1314.479,20.816,1314.479,18.561z"/>
	<path d="M10.421,66.165c-5.541,0-9.541-3.882-9.541-9.229s3.981-9.155,9.56-9.155c4.856,0,8.498,3.062,9.148,7.657h-5.797
		c-0.5-1.409-1.818-2.324-3.37-2.324c-2.092,0-3.58,1.59-3.58,3.841s1.507,3.878,3.58,3.878c1.597,0,2.891-0.979,3.383-2.521h5.848
		C18.979,63.004,15.286,66.166,10.421,66.165L10.421,66.165z"/>
	<path d="M21.217,56.96c0-5.355,4.054-9.205,9.688-9.205c5.615,0,9.688,3.85,9.688,9.205c0,5.338-4.072,9.206-9.688,9.206
		C25.271,66.166,21.217,62.298,21.217,56.96z M34.631,56.961c0-2.271-1.556-3.859-3.726-3.859c-2.17,0-3.727,1.574-3.727,3.859
		c0,2.284,1.556,3.858,3.727,3.858C33.075,60.819,34.631,59.245,34.631,56.961z"/>
	<path d="M54.595,48.238v5.446h-2.311c-2.107,0-2.99,0.925-2.99,3.129V65.6h-5.952V48.321h3.987l0.929,1.917
		c1.218-1.409,2.703-2,4.759-2H54.595z"/>
	<path d="M76.003,56.96c0,5.384-3.777,9.225-9.06,9.225c-1.563,0-2.993-0.411-4.212-1.147v6.802h-5.884V48.321h4.047l0.746,1.372
		c1.421-1.229,3.25-1.938,5.303-1.938C72.227,47.755,76.003,51.577,76.003,56.96z M70.015,56.96c0-2.27-1.639-3.954-3.868-3.954
		c-2.229,0-3.868,1.685-3.868,3.954s1.639,3.954,3.868,3.954C68.363,60.914,70.015,59.229,70.015,56.96z"/>
	<path d="M77.729,56.96c0-5.355,4.054-9.205,9.688-9.205c5.615,0,9.688,3.85,9.688,9.205c0,5.338-4.072,9.206-9.688,9.206
		C81.783,66.166,77.729,62.298,77.729,56.96z M91.143,56.961c0-2.271-1.556-3.859-3.726-3.859c-2.17,0-3.727,1.574-3.727,3.859
		c0,2.284,1.556,3.858,3.727,3.858C89.586,60.819,91.143,59.245,91.143,56.961z"/>
	<path d="M111.106,48.238v5.446h-2.311c-2.107,0-2.99,0.925-2.99,3.129V65.6h-5.952V48.321h3.987l0.929,1.917
		c1.218-1.409,2.703-2,4.759-2H111.106z"/>
	<path d="M131.463,48.303v17.278h-4.601l-0.51-1.222c-1.415,1.146-3.207,1.807-5.213,1.807c-5.284,0-9.061-3.854-9.061-9.225
		c0-5.351,3.777-9.16,9.061-9.16c2.035,0,3.853,0.68,5.279,1.857l0.609-1.336H131.463z M125.802,56.955
		c0-2.242-1.639-3.927-3.868-3.927c-2.243,0-3.868,1.685-3.868,3.927c0,2.257,1.639,3.941,3.868,3.941
		C124.164,60.896,125.802,59.212,125.802,56.955z"/>
	<path d="M146.867,60.387V65.6h-4.095c-3.821,0-6.144-2.336-6.144-6.176v-6.52h-3.163v-1.392l7.742-8.243h1.223v5.052h4.341v4.583
		h-4.191v5.499c0,1.237,0.747,1.983,2.002,1.983H146.867z"/>
	<path d="M167.291,56.797c0,0.521-0.045,1.041-0.123,1.576h-12.831c0.39,1.981,1.648,3.007,3.528,3.007
		c1.39,0,2.552-0.609,3.124-1.621h5.923c-1.216,3.943-4.711,6.407-9.046,6.407c-5.392,0-9.385-3.94-9.385-9.219
		c0-5.297,3.962-9.192,9.385-9.192C163.435,47.755,167.291,51.729,167.291,56.797L167.291,56.797z M154.442,55.077h6.985
		c-0.522-1.728-1.767-2.659-3.563-2.659C156.13,52.418,154.924,53.36,154.442,55.077z"/>
	<path d="M186.373,66.165c-5.541,0-9.541-3.882-9.541-9.229s3.981-9.155,9.56-9.155c4.856,0,8.498,3.062,9.148,7.657h-5.797
		c-0.5-1.409-1.818-2.324-3.37-2.324c-2.092,0-3.58,1.59-3.58,3.841s1.507,3.878,3.58,3.878c1.597,0,2.891-0.979,3.383-2.521h5.848
		C194.93,63.004,191.238,66.166,186.373,66.165L186.373,66.165z"/>
	<path d="M198.175,42.081h5.952V65.6h-5.952V42.081z"/>
	<path d="M207.872,48.32h5.952V65.6h-5.952V48.32z M207.917,41.107h5.86v5.051h-5.86V41.107z"/>
	<path d="M235.371,56.797c0,0.521-0.045,1.041-0.123,1.576h-12.83c0.39,1.981,1.648,3.007,3.528,3.007
		c1.39,0,2.552-0.609,3.124-1.621h5.923c-1.216,3.943-4.711,6.407-9.046,6.407c-5.392,0-9.385-3.94-9.385-9.219
		c0-5.297,3.962-9.192,9.385-9.192C231.515,47.755,235.372,51.729,235.371,56.797L235.371,56.797z M222.523,55.077h6.985
		c-0.522-1.728-1.767-2.659-3.563-2.659C224.211,52.418,223.005,53.36,222.523,55.077z"/>
	<path d="M255.159,55.063V65.6h-5.952v-9.714c0-2.011-0.755-3.009-2.253-3.009c-1.856,0-2.924,1.297-2.924,3.496V65.6h-5.952V48.321
		h4.175l0.818,1.781c1.287-1.434,3.205-2.293,5.439-2.293C252.523,47.81,255.159,50.661,255.159,55.063z"/>
	<path d="M270.243,60.387V65.6h-4.095c-3.821,0-6.144-2.336-6.144-6.176v-6.52h-3.163v-1.392l7.742-8.243h1.223v5.052h4.341v4.583
		h-4.191v5.499c0,1.237,0.747,1.983,2.002,1.983H270.243z"/>
	<path d="M279.688,66.166c-4.709,0-7.572-2.487-7.626-6.231h5.729c0,1.264,0.879,1.846,2.008,1.846c0.871,0,1.696-0.444,1.696-1.337
		c0-0.997-1.308-1.281-2.968-1.556c-2.679-0.435-6.231-1.243-6.231-5.434c0-3.464,2.952-5.699,7.379-5.699
		c4.4,0,7.251,2.34,7.319,5.842h-5.573c0-1.104-0.742-1.616-1.82-1.616c-0.954,0-1.595,0.472-1.595,1.272
		c0,0.983,1.321,1.213,2.963,1.505c2.729,0.485,6.358,1.053,6.358,5.435C287.327,63.803,284.28,66.166,279.688,66.166
		L279.688,66.166z"/>
	<path d="M289.89,60.07h5.773V65.6h-5.773V60.07z"/>
	<path d="M306.15,54.419c0-6.736,5.092-11.784,11.909-11.784c5.87,0,10.417,3.875,11.327,9.555h-6.252
		c-0.769-2.298-2.704-3.789-5.062-3.789c-3.171,0-5.498,2.551-5.498,6.019c0,3.455,2.326,5.968,5.498,5.968
		c2.485,0,4.439-1.619,5.066-4.108h6.312c-0.852,5.89-5.425,9.888-11.391,9.888C311.242,66.166,306.15,61.119,306.15,54.419z"/>
	<path d="M332.111,42.081h5.952V65.6h-5.952V42.081z"/>
	<path d="M341.808,48.32h5.952V65.6h-5.952V48.32z M341.853,41.107h5.86v5.051h-5.86V41.107z"/>
	<path d="M369.307,56.797c0,0.521-0.045,1.041-0.123,1.576h-12.831c0.39,1.981,1.648,3.007,3.528,3.007
		c1.39,0,2.552-0.609,3.124-1.621h5.923c-1.216,3.943-4.711,6.407-9.046,6.407c-5.392,0-9.385-3.94-9.385-9.219
		c0-5.297,3.962-9.192,9.385-9.192C365.451,47.755,369.308,51.729,369.307,56.797L369.307,56.797z M356.459,55.077h6.985
		c-0.522-1.728-1.767-2.659-3.563-2.659C358.146,52.418,356.941,53.36,356.459,55.077z"/>
	<path d="M389.095,55.063V65.6h-5.952v-9.714c0-2.011-0.755-3.009-2.253-3.009c-1.856,0-2.924,1.297-2.924,3.496V65.6h-5.952V48.321
		h4.175l0.818,1.781c1.287-1.434,3.205-2.293,5.439-2.293C386.459,47.81,389.095,50.661,389.095,55.063z"/>
	<path d="M404.179,60.387V65.6h-4.095c-3.821,0-6.144-2.336-6.144-6.176v-6.52h-3.163v-1.392l7.742-8.243h1.223v5.052h4.341v4.583
		h-4.191v5.499c0,1.237,0.747,1.983,2.002,1.983H404.179z"/>
	<path d="M413.625,66.166c-4.709,0-7.572-2.487-7.626-6.231h5.729c0,1.264,0.879,1.846,2.008,1.846c0.871,0,1.696-0.444,1.696-1.337
		c0-0.997-1.308-1.281-2.968-1.556c-2.679-0.435-6.231-1.243-6.231-5.434c0-3.464,2.952-5.699,7.379-5.699
		c4.4,0,7.251,2.34,7.319,5.842h-5.573c0-1.104-0.742-1.616-1.82-1.616c-0.954,0-1.595,0.472-1.595,1.272
		c0,0.983,1.321,1.213,2.963,1.505c2.729,0.485,6.358,1.053,6.358,5.435C421.263,63.803,418.216,66.166,413.625,66.166
		L413.625,66.166z"/>
	<path d="M440.421,66.165c-5.541,0-9.541-3.882-9.541-9.229s3.981-9.155,9.56-9.155c4.856,0,8.498,3.062,9.148,7.657h-5.797
		c-0.5-1.409-1.818-2.324-3.37-2.324c-2.092,0-3.58,1.59-3.58,3.841s1.507,3.878,3.58,3.878c1.597,0,2.891-0.979,3.383-2.521h5.848
		C448.979,63.004,445.286,66.166,440.421,66.165L440.421,66.165z"/>
	<path d="M470.616,48.303v17.278h-4.601l-0.51-1.222c-1.415,1.146-3.207,1.807-5.213,1.807c-5.284,0-9.061-3.854-9.061-9.225
		c0-5.351,3.777-9.16,9.061-9.16c2.035,0,3.853,0.68,5.279,1.857l0.609-1.336H470.616z M464.955,56.955
		c0-2.242-1.639-3.927-3.868-3.927c-2.243,0-3.868,1.685-3.868,3.927c0,2.257,1.639,3.941,3.868,3.941
		C463.316,60.896,464.955,59.212,464.955,56.955z"/>
	<path d="M491.447,55.063V65.6h-5.952v-9.714c0-2.011-0.755-3.009-2.253-3.009c-1.856,0-2.924,1.297-2.924,3.496V65.6h-5.952V48.321
		h4.175l0.818,1.781c1.287-1.434,3.205-2.293,5.439-2.293C488.812,47.81,491.447,50.661,491.447,55.063z"/>
	<path d="M513.8,60.387V65.6h-4.095c-3.821,0-6.144-2.336-6.144-6.176v-6.52h-3.163v-1.392l7.742-8.243h1.223v5.052h4.341v4.583
		h-4.191v5.499c0,1.237,0.747,1.983,2.002,1.983H513.8z"/>
	<path d="M527.831,48.238v5.446h-2.311c-2.107,0-2.99,0.925-2.99,3.129V65.6h-5.952V48.321h3.987l0.929,1.917
		c1.218-1.409,2.703-2,4.759-2H527.831z"/>
	<path d="M548.188,48.303v17.278h-4.601l-0.51-1.222c-1.415,1.146-3.207,1.807-5.213,1.807c-5.284,0-9.061-3.854-9.061-9.225
		c0-5.351,3.777-9.16,9.061-9.16c2.035,0,3.853,0.68,5.279,1.857l0.609-1.336H548.188z M542.527,56.955
		c0-2.242-1.639-3.927-3.868-3.927c-2.243,0-3.868,1.685-3.868,3.927c0,2.257,1.639,3.941,3.868,3.941
		C540.888,60.896,542.527,59.212,542.527,56.955z"/>
	<path d="M570.188,42.081V65.6h-4.404l-0.562-1.283c-1.406,1.184-3.199,1.868-5.212,1.868c-5.302,0-9.079-3.854-9.079-9.225
		c0-5.369,3.777-9.205,9.079-9.205c1.596,0,3.055,0.43,4.293,1.199v-6.873H570.188z M564.675,56.961
		c0-2.257-1.639-3.955-3.868-3.955c-2.229,0-3.868,1.698-3.868,3.955c0,2.256,1.639,3.953,3.868,3.953
		C563.037,60.914,564.675,59.217,564.675,56.961z"/>
	<path d="M591.604,58.373h-12.83c0.389,1.981,1.647,3.007,3.527,3.007c1.39,0,2.552-0.609,3.124-1.621h5.922
		c-1.216,3.943-4.711,6.407-9.046,6.407c-5.392,0-9.386-3.94-9.386-9.219c0-5.297,3.962-9.192,9.386-9.192
		c5.569,0,9.426,3.974,9.426,9.042C591.728,57.317,591.682,57.838,591.604,58.373z M578.879,55.077h6.985
		c-0.522-1.728-1.767-2.659-3.563-2.659C580.566,52.418,579.36,53.36,578.879,55.077z"/>
	<path d="M620.651,48.303v17.278h-4.601l-0.51-1.222c-1.415,1.146-3.207,1.807-5.214,1.807c-5.283,0-9.06-3.854-9.06-9.225
		c0-5.351,3.776-9.16,9.06-9.16c2.035,0,3.854,0.68,5.28,1.857l0.608-1.336H620.651z M614.991,56.955
		c0-2.242-1.639-3.927-3.868-3.927c-2.242,0-3.868,1.685-3.868,3.927c0,2.257,1.639,3.941,3.868,3.941
		S614.991,59.212,614.991,56.955z"/>
	<path d="M632.952,66.165c-5.541,0-9.541-3.882-9.541-9.229s3.981-9.155,9.56-9.155c4.855,0,8.498,3.062,9.148,7.657h-5.798
		c-0.5-1.409-1.817-2.324-3.369-2.324c-2.092,0-3.58,1.59-3.58,3.841s1.507,3.878,3.58,3.878c1.597,0,2.891-0.979,3.383-2.521h5.848
		C641.51,63.004,637.817,66.166,632.952,66.165L632.952,66.165z"/>
	<path d="M656.248,60.387V65.6h-4.095c-3.821,0-6.144-2.336-6.144-6.176v-6.52h-3.163v-1.392l7.741-8.243h1.223v5.052h4.341v4.583
		h-4.19v5.499c0,1.237,0.747,1.983,2.003,1.983H656.248z"/>
	<path d="M659.026,48.32h5.952V65.6h-5.952V48.32z M659.072,41.107h5.86v5.051h-5.86V41.107z"/>
	<path d="M686.238,48.321L679.292,65.6H673.9l-7.038-17.278h6.521l3.266,10.233l3.229-10.233H686.238z"/>
	<path d="M705.062,58.373h-12.83c0.389,1.981,1.647,3.007,3.527,3.007c1.39,0,2.552-0.609,3.124-1.621h5.922
		c-1.216,3.943-4.711,6.407-9.046,6.407c-5.392,0-9.386-3.94-9.386-9.219c0-5.297,3.962-9.192,9.386-9.192
		c5.569,0,9.426,3.974,9.426,9.042C705.185,57.317,705.139,57.838,705.062,58.373z M692.336,55.077h6.985
		c-0.522-1.728-1.767-2.659-3.563-2.659C694.023,52.418,692.817,53.36,692.336,55.077z"/>
	<path d="M707.892,42.081h5.952V65.6h-5.952V42.081z"/>
	<path d="M735.652,48.321l-7.242,16.51c-2.329,5.288-4.47,7.198-8.932,7.198h-2.038v-5.114h1.637c2.277,0,2.964-0.593,3.771-2.743
		l-7.141-15.851h6.468l3.667,9.518l3.417-9.518H735.652z"/>
	<path d="M743.542,56.96c0-5.355,4.054-9.205,9.688-9.205c5.615,0,9.688,3.85,9.688,9.205c0,5.338-4.072,9.206-9.688,9.206
		C747.596,66.166,743.542,62.298,743.542,56.96z M756.956,56.961c0-2.271-1.557-3.859-3.727-3.859s-3.727,1.574-3.727,3.859
		c0,2.284,1.557,3.858,3.727,3.858S756.956,59.245,756.956,56.961z"/>
	<path d="M782.747,55.063V65.6h-5.951v-9.714c0-2.011-0.756-3.009-2.254-3.009c-1.855,0-2.923,1.297-2.923,3.496V65.6h-5.952V48.321
		h4.176l0.817,1.781c1.286-1.434,3.205-2.293,5.439-2.293C780.111,47.81,782.747,50.661,782.747,55.063z"/>
	<path d="M812.525,48.303v17.278h-4.601l-0.51-1.222c-1.415,1.146-3.207,1.807-5.214,1.807c-5.283,0-9.06-3.854-9.06-9.225
		c0-5.351,3.776-9.16,9.06-9.16c2.035,0,3.854,0.68,5.28,1.857l0.608-1.336H812.525z M806.865,56.955
		c0-2.242-1.639-3.927-3.868-3.927c-2.242,0-3.868,1.685-3.868,3.927c0,2.257,1.639,3.941,3.868,3.941
		S806.865,59.212,806.865,56.955z"/>
	<path d="M832.652,66.165c-5.541,0-9.541-3.882-9.541-9.229s3.981-9.155,9.56-9.155c4.855,0,8.498,3.062,9.148,7.657h-5.798
		c-0.5-1.409-1.817-2.324-3.369-2.324c-2.092,0-3.58,1.59-3.58,3.841s1.507,3.878,3.58,3.878c1.597,0,2.891-0.979,3.383-2.521h5.848
		C841.21,63.004,837.518,66.166,832.652,66.165L832.652,66.165z"/>
	<path d="M843.449,56.96c0-5.355,4.054-9.205,9.688-9.205c5.615,0,9.688,3.85,9.688,9.205c0,5.338-4.072,9.206-9.688,9.206
		C847.503,66.166,843.449,62.298,843.449,56.96z M856.863,56.961c0-2.271-1.557-3.859-3.727-3.859s-3.727,1.574-3.727,3.859
		c0,2.284,1.557,3.858,3.727,3.858S856.863,59.245,856.863,56.961z"/>
	<path d="M882.654,55.063V65.6h-5.951v-9.714c0-2.011-0.756-3.009-2.254-3.009c-1.855,0-2.923,1.297-2.923,3.496V65.6h-5.952V48.321
		h4.176l0.817,1.781c1.286-1.434,3.205-2.293,5.439-2.293C880.02,47.81,882.654,50.661,882.654,55.063z"/>
	<path d="M897.739,60.387V65.6h-4.095c-3.821,0-6.144-2.336-6.144-6.176v-6.52h-3.163v-1.392l7.741-8.243h1.223v5.052h4.341v4.583
		h-4.19v5.499c0,1.237,0.747,1.983,2.003,1.983H897.739z"/>
	<path d="M900.518,48.32h5.952V65.6h-5.952V48.32z M900.563,41.107h5.86v5.051h-5.86V41.107z"/>
	<path d="M927.294,55.063V65.6h-5.951v-9.714c0-2.011-0.756-3.009-2.254-3.009c-1.855,0-2.923,1.297-2.923,3.496V65.6h-5.952V48.321
		h4.176l0.817,1.781c1.286-1.434,3.205-2.293,5.439-2.293C924.658,47.81,927.294,50.661,927.294,55.063z"/>
	<path d="M930.63,58.182v-9.86h5.951v9.602c0,1.824,0.98,2.896,2.571,2.896c1.59,0,2.552-1.091,2.552-2.896v-9.602h5.951v9.86
		c0,4.835-3.399,7.984-8.503,7.984C934.048,66.166,930.63,63.017,930.63,58.182z"/>
	<path d="M950.167,56.96c0-5.355,4.054-9.205,9.688-9.205c5.615,0,9.688,3.85,9.688,9.205c0,5.338-4.072,9.206-9.688,9.206
		C954.221,66.166,950.167,62.298,950.167,56.96z M963.581,56.961c0-2.271-1.557-3.859-3.727-3.859s-3.727,1.574-3.727,3.859
		c0,2.284,1.557,3.858,3.727,3.858S963.581,59.245,963.581,56.961z"/>
	<path d="M972.068,58.182v-9.86h5.951v9.602c0,1.824,0.98,2.896,2.571,2.896c1.59,0,2.552-1.091,2.552-2.896v-9.602h5.951v9.86
		c0,4.835-3.399,7.984-8.503,7.984C975.486,66.166,972.068,63.017,972.068,58.182z"/>
	<path d="M999.279,66.166c-4.71,0-7.572-2.487-7.627-6.231h5.729c0,1.264,0.88,1.846,2.009,1.846c0.87,0,1.695-0.444,1.695-1.337
		c0-0.997-1.308-1.281-2.968-1.556c-2.679-0.435-6.23-1.243-6.23-5.434c0-3.464,2.951-5.699,7.378-5.699
		c4.4,0,7.252,2.34,7.32,5.842h-5.574c0-1.104-0.741-1.616-1.819-1.616c-0.954,0-1.596,0.472-1.596,1.272
		c0,0.983,1.322,1.213,2.963,1.505c2.729,0.485,6.359,1.053,6.359,5.435C1006.918,63.803,1003.87,66.166,999.279,66.166
		L999.279,66.166z"/>
	<path d="M1036.781,56.974c0,5.369-3.758,9.192-9.078,9.192c-2.017,0-3.809-0.677-5.212-1.85l-0.562,1.283h-4.404V42.081h5.884
		v6.892c1.236-0.764,2.696-1.191,4.294-1.191C1033.023,47.781,1036.781,51.604,1036.781,56.974z M1030.774,56.974
		c0-2.257-1.639-3.941-3.867-3.941c-2.229,0-3.868,1.685-3.868,3.941c0,2.237,1.639,3.922,3.868,3.922
		C1029.122,60.896,1030.774,59.211,1030.774,56.974z"/>
	<path d="M1057.901,48.303v17.278h-4.601l-0.51-1.222c-1.415,1.146-3.207,1.807-5.214,1.807c-5.283,0-9.06-3.854-9.06-9.225
		c0-5.351,3.776-9.16,9.06-9.16c2.035,0,3.854,0.68,5.28,1.857l0.608-1.336H1057.901z M1052.241,56.955
		c0-2.242-1.639-3.927-3.868-3.927c-2.242,0-3.868,1.685-3.868,3.927c0,2.257,1.639,3.941,3.868,3.941
		S1052.241,59.212,1052.241,56.955z"/>
	<path d="M1068.32,66.166c-4.71,0-7.572-2.487-7.627-6.231h5.729c0,1.264,0.88,1.846,2.009,1.846c0.87,0,1.695-0.444,1.695-1.337
		c0-0.997-1.308-1.281-2.968-1.556c-2.679-0.435-6.23-1.243-6.23-5.434c0-3.464,2.951-5.699,7.378-5.699
		c4.4,0,7.252,2.34,7.32,5.842h-5.574c0-1.104-0.741-1.616-1.819-1.616c-0.954,0-1.596,0.472-1.596,1.272
		c0,0.983,1.322,1.213,2.963,1.505c2.729,0.485,6.359,1.053,6.359,5.435C1075.959,63.803,1072.911,66.166,1068.32,66.166
		L1068.32,66.166z"/>
	<path d="M1078.741,48.32h5.952V65.6h-5.952V48.32z M1078.787,41.107h5.86v5.051h-5.86V41.107z"/>
	<path d="M1087.478,59.935h5.729c0,1.264,0.879,1.846,2.008,1.846c0.87,0,1.695-0.444,1.695-1.337c0-0.997-1.308-1.281-2.968-1.556
		c-2.679-0.435-6.23-1.243-6.23-5.434c0-3.464,2.951-5.699,7.378-5.699c4.4,0,7.252,2.34,7.32,5.842h-5.574
		c0-1.104-0.741-1.616-1.819-1.616c-0.954,0-1.596,0.472-1.596,1.272c0,0.983,1.322,1.213,2.963,1.505
		c2.729,0.485,6.359,1.053,6.359,5.435c0,3.61-3.048,5.974-7.64,5.974C1090.395,66.166,1087.532,63.679,1087.478,59.935z"/>
	<path d="M1124.904,53.279h-3.875V65.6h-5.951v-12.32h-2.857l-0.014-4.676h2.944v-1.654c0-3.462,1.9-5.488,5.565-5.488h4.155v4.564
		h-2.629c-0.883,0-1.409,0.521-1.409,1.405v1.174h4.07V53.279z"/>
	<path d="M1138.427,48.238v5.446h-2.311c-2.107,0-2.989,0.925-2.989,3.129V65.6h-5.952V48.321h3.987l0.929,1.917
		c1.219-1.409,2.703-2,4.759-2H1138.427z"/>
	<path d="M1139.386,56.96c0-5.355,4.054-9.205,9.688-9.205c5.615,0,9.688,3.85,9.688,9.205c0,5.338-4.072,9.206-9.688,9.206
		C1143.439,66.166,1139.386,62.298,1139.386,56.96z M1152.8,56.961c0-2.271-1.557-3.859-3.727-3.859s-3.727,1.574-3.727,3.859
		c0,2.284,1.557,3.858,3.727,3.858S1152.8,59.245,1152.8,56.961z"/>
	<path d="M1188.017,54.763V65.6h-5.951V55.498c0-1.805-0.664-2.675-1.929-2.675c-1.636,0-2.475,1.126-2.475,3.302V65.6h-5.797
		V55.498c0-1.75-0.659-2.675-1.905-2.675c-1.613,0-2.497,1.153-2.497,3.302V65.6h-5.952V48.321h4.186l0.847,1.856
		c1.249-1.455,3.061-2.368,5.051-2.368c2.106,0,3.88,0.946,4.956,2.544c1.241-1.563,3.154-2.544,5.306-2.544
		C1185.557,47.81,1188.017,50.693,1188.017,54.763z"/>
	<path d="M1198.589,58.367h6.365c0,1.6,1.234,2.379,2.642,2.379c1.293,0,2.527-0.688,2.527-1.911c0-1.405-1.744-1.813-3.876-2.329
		c-3.237-0.805-7.37-1.797-7.37-6.896c0-4.41,3.24-6.938,8.522-6.938c5.369,0,8.449,2.757,8.449,7.313h-6.188
		c0-1.416-1.056-2.08-2.335-2.08c-1.1,0-2.155,0.476-2.155,1.521c0,1.271,1.688,1.692,3.797,2.223
		c3.297,0.851,7.607,1.952,7.607,7.066c0,4.893-3.759,7.432-8.96,7.432C1202.132,66.147,1198.589,63.249,1198.589,58.367z"/>
	<path d="M1219.288,58.182v-9.86h5.951v9.602c0,1.824,0.98,2.896,2.571,2.896c1.59,0,2.552-1.091,2.552-2.896v-9.602h5.951v9.86
		c0,4.835-3.399,7.984-8.503,7.984C1222.706,66.166,1219.288,63.017,1219.288,58.182z"/>
	<path d="M1256.912,55.063V65.6h-5.951v-9.714c0-2.011-0.756-3.009-2.254-3.009c-1.855,0-2.923,1.297-2.923,3.496V65.6h-5.952
		V48.321h4.176l0.817,1.781c1.286-1.434,3.205-2.293,5.439-2.293C1254.277,47.81,1256.912,50.661,1256.912,55.063z"/>
	<path d="M1278.721,42.081V65.6h-4.404l-0.562-1.283c-1.406,1.184-3.199,1.868-5.212,1.868c-5.302,0-9.078-3.854-9.078-9.225
		c0-5.369,3.776-9.205,9.078-9.205c1.596,0,3.056,0.43,4.294,1.199v-6.873H1278.721z M1273.207,56.961
		c0-2.257-1.639-3.955-3.868-3.955c-2.229,0-3.867,1.698-3.867,3.955c0,2.256,1.639,3.953,3.867,3.953
		C1271.568,60.914,1273.207,59.217,1273.207,56.961z"/>
	<path d="M1300.847,48.303v17.278h-4.601l-0.51-1.222c-1.415,1.146-3.207,1.807-5.214,1.807c-5.283,0-9.06-3.854-9.06-9.225
		c0-5.351,3.776-9.16,9.06-9.16c2.035,0,3.854,0.68,5.28,1.857l0.608-1.336H1300.847z M1295.187,56.955
		c0-2.242-1.639-3.927-3.868-3.927c-2.242,0-3.868,1.685-3.868,3.927c0,2.257,1.639,3.941,3.868,3.941
		S1295.187,59.212,1295.187,56.955z"/>
	<path d="M1322.663,48.321l-7.242,16.51c-2.329,5.288-4.47,7.198-8.932,7.198h-2.038v-5.114h1.637c2.277,0,2.964-0.593,3.771-2.743
		l-7.141-15.851h6.468l3.667,9.518l3.417-9.518H1322.663z"/>
	<path d="M20.264,86.702v17.278h-4.601l-0.51-1.222c-1.415,1.146-3.207,1.807-5.213,1.807c-5.284,0-9.061-3.854-9.061-9.225
		c0-5.351,3.777-9.16,9.061-9.16c2.035,0,3.853,0.68,5.279,1.857l0.609-1.336H20.264z M14.604,95.354
		c0-2.242-1.639-3.927-3.868-3.927c-2.243,0-3.868,1.685-3.868,3.927c0,2.257,1.639,3.941,3.868,3.941
		C12.965,99.296,14.604,97.611,14.604,95.354z"/>
	<path d="M35.569,91.679h-3.875v12.32h-5.951v-12.32h-2.857l-0.014-4.676h2.944v-1.654c0-3.462,1.901-5.488,5.566-5.488h4.155v4.564
		h-2.628c-0.884,0-1.41,0.521-1.41,1.405v1.174h4.071V91.679z"/>
	<path d="M49.684,98.786v5.213h-4.095c-3.821,0-6.144-2.336-6.144-6.176v-6.52h-3.163v-1.392l7.742-8.243h1.223v5.052h4.341v4.583
		h-4.191v5.499c0,1.237,0.747,1.983,2.002,1.983H49.684z"/>
	<path d="M70.107,95.196c0,0.521-0.045,1.041-0.123,1.576h-12.83c0.39,1.981,1.648,3.007,3.528,3.007
		c1.39,0,2.552-0.609,3.124-1.621h5.923c-1.216,3.943-4.711,6.407-9.046,6.407c-5.392,0-9.385-3.94-9.385-9.219
		c0-5.298,3.962-9.192,9.385-9.192C66.251,86.154,70.108,90.128,70.107,95.196L70.107,95.196z M57.259,93.477h6.985
		c-0.522-1.728-1.767-2.659-3.563-2.659C58.947,90.817,57.741,91.76,57.259,93.477z"/>
	<path d="M84.067,86.638v5.446h-2.311c-2.107,0-2.99,0.925-2.99,3.129v8.786h-5.952V86.721h3.987l0.929,1.917
		c1.218-1.409,2.703-2,4.759-2H84.067z"/>
	<path d="M103.399,93.463v10.536h-5.952v-9.714c0-2.011-0.755-3.009-2.253-3.009c-1.856,0-2.924,1.297-2.924,3.496v9.227h-5.952
		V86.721h4.175l0.818,1.781c1.287-1.434,3.205-2.293,5.439-2.293C100.764,86.209,103.399,89.061,103.399,93.463z"/>
	<path d="M105.952,95.359c0-5.355,4.054-9.205,9.688-9.205c5.615,0,9.688,3.85,9.688,9.205c0,5.338-4.072,9.206-9.688,9.206
		C110.006,104.565,105.952,100.697,105.952,95.359z M119.366,95.36c0-2.271-1.556-3.859-3.726-3.859
		c-2.17,0-3.727,1.574-3.727,3.859c0,2.284,1.556,3.858,3.727,3.858C117.81,99.219,119.366,97.645,119.366,95.36z"/>
	<path d="M127.072,95.359c0-5.355,4.054-9.205,9.688-9.205c5.615,0,9.688,3.85,9.688,9.205c0,5.338-4.072,9.206-9.688,9.206
		C131.126,104.565,127.072,100.697,127.072,95.359z M140.486,95.36c0-2.271-1.556-3.859-3.726-3.859
		c-2.17,0-3.727,1.574-3.727,3.859c0,2.284,1.556,3.858,3.727,3.858C138.93,99.219,140.486,97.645,140.486,95.36z"/>
	<path d="M166.278,93.463v10.536h-5.952v-9.714c0-2.011-0.755-3.009-2.253-3.009c-1.856,0-2.924,1.297-2.924,3.496v9.227h-5.952
		V86.721h4.175l0.818,1.781c1.287-1.434,3.205-2.293,5.439-2.293C163.643,86.209,166.278,89.061,166.278,93.463z"/>
	<path d="M187.826,98.786v5.213h-4.095c-3.821,0-6.144-2.336-6.144-6.176v-6.52h-3.163v-1.392l7.742-8.243h1.223v5.052h4.341v4.583
		h-4.191v5.499c0,1.237,0.747,1.983,2.002,1.983H187.826z"/>
	<path d="M207.685,93.594v10.405h-5.952v-9.714c0-1.992-0.7-3.009-2.253-3.009c-1.801,0-2.924,1.278-2.924,3.496v9.227h-5.952V80.48
		h5.952v7.377c1.272-1.024,2.89-1.648,4.612-1.648C205.136,86.209,207.685,89.115,207.685,93.594z"/>
	<path d="M222.497,86.638v5.446h-2.311c-2.107,0-2.99,0.925-2.99,3.129v8.786h-5.952V86.721h3.987l0.929,1.917
		c1.218-1.409,2.703-2,4.759-2H222.497z"/>
	<path d="M223.455,95.359c0-5.355,4.054-9.205,9.688-9.205c5.615,0,9.688,3.85,9.688,9.205c0,5.338-4.072,9.206-9.688,9.206
		C227.509,104.565,223.455,100.697,223.455,95.359z M236.869,95.36c0-2.271-1.556-3.859-3.726-3.859
		c-2.17,0-3.727,1.574-3.727,3.859c0,2.284,1.556,3.858,3.727,3.858C235.313,99.219,236.869,97.645,236.869,95.36z"/>
	<path d="M245.356,96.581v-9.86h5.952v9.602c0,1.824,0.98,2.896,2.571,2.896c1.59,0,2.552-1.091,2.552-2.896v-9.602h5.952v9.86
		c0,4.835-3.399,7.984-8.503,7.984S245.356,101.416,245.356,96.581z"/>
	<path d="M283.771,86.721v15.358c0,5.431-3.555,8.794-9.262,8.794c-4.903,0-8.335-2.473-9.131-6.567h5.743
		c0.412,1.155,1.887,1.777,3.333,1.777c1.995,0,3.597-1.268,3.597-3.322v-0.516c-1.299,0.824-2.841,1.297-4.509,1.297
		c-4.954,0-8.634-3.686-8.634-8.685c0-4.927,3.681-8.689,8.634-8.689c2.092,0,3.985,0.75,5.45,2.002l0.755-1.449H283.771z
		 M274.53,98.643c2.137,0,3.675-1.584,3.675-3.785c0-2.183-1.533-3.766-3.675-3.766c-2.137,0-3.688,1.583-3.688,3.766
		C270.842,97.059,272.375,98.643,274.53,98.643L274.53,98.643z"/>
	<path d="M304.612,93.594v10.405h-5.952v-9.714c0-1.992-0.7-3.009-2.253-3.009c-1.801,0-2.924,1.278-2.924,3.496v9.227h-5.952V80.48
		h5.952v7.377c1.272-1.024,2.89-1.648,4.612-1.648C302.063,86.209,304.612,89.115,304.612,93.594z"/>
	<path d="M321.634,87.184v3.565h7.198v5.401h-7.198v7.849h-6.225V81.601h14.254v5.583H321.634z"/>
	<path d="M343.552,86.638v5.446h-2.311c-2.107,0-2.99,0.925-2.99,3.129v8.786H332.3V86.721h3.987l0.929,1.917
		c1.218-1.409,2.703-2,4.759-2H343.552z"/>
	<path d="M345.804,86.72h5.952v17.279h-5.952V86.72z M345.85,79.507h5.86v5.051h-5.86V79.507z"/>
	<path d="M373.749,80.48v23.519h-4.404l-0.562-1.283c-1.406,1.184-3.199,1.868-5.212,1.868c-5.302,0-9.079-3.854-9.079-9.225
		c0-5.369,3.777-9.205,9.079-9.205c1.596,0,3.055,0.43,4.293,1.199V80.48H373.749z M368.236,95.36c0-2.257-1.639-3.955-3.868-3.955
		c-2.229,0-3.868,1.698-3.868,3.955c0,2.256,1.639,3.953,3.868,3.953C366.597,99.313,368.236,97.616,368.236,95.36z"/>
	<path d="M395.875,86.702v17.278h-4.601l-0.51-1.222c-1.415,1.146-3.207,1.807-5.213,1.807c-5.284,0-9.061-3.854-9.061-9.225
		c0-5.351,3.777-9.16,9.061-9.16c2.035,0,3.853,0.68,5.279,1.857l0.609-1.336H395.875z M390.215,95.354
		c0-2.242-1.639-3.927-3.868-3.927c-2.243,0-3.868,1.685-3.868,3.927c0,2.257,1.639,3.941,3.868,3.941
		C388.576,99.296,390.215,97.611,390.215,95.354z"/>
	<path d="M417.692,86.721l-7.242,16.51c-2.329,5.288-4.47,7.198-8.932,7.198h-2.038v-5.114h1.637c2.277,0,2.963-0.593,3.77-2.743
		l-7.141-15.851h6.467l3.667,9.518l3.417-9.518H417.692z"/>
	<path d="M442.787,93.463v10.536h-5.952v-9.714c0-2.011-0.755-3.009-2.253-3.009c-1.856,0-2.924,1.297-2.924,3.496v9.227h-5.952
		V86.721h4.175l0.818,1.781c1.287-1.434,3.205-2.293,5.439-2.293C440.152,86.209,442.787,89.061,442.787,93.463z"/>
	<path d="M446.347,86.72h5.952v17.279h-5.952V86.72z M446.393,79.507h5.86v5.051h-5.86V79.507z"/>
	<path d="M473.913,86.721v15.358c0,5.431-3.555,8.794-9.262,8.794c-4.903,0-8.335-2.473-9.131-6.567h5.743
		c0.412,1.155,1.887,1.777,3.333,1.777c1.995,0,3.597-1.268,3.597-3.322v-0.516c-1.298,0.824-2.841,1.297-4.509,1.297
		c-4.954,0-8.634-3.686-8.634-8.685c0-4.927,3.681-8.689,8.634-8.689c2.092,0,3.985,0.75,5.45,2.002l0.755-1.449H473.913z
		 M464.672,98.643c2.137,0,3.675-1.584,3.675-3.785c0-2.183-1.533-3.766-3.675-3.766c-2.137,0-3.688,1.583-3.688,3.766
		C460.984,97.059,462.517,98.643,464.672,98.643L464.672,98.643z"/>
	<path d="M494.754,93.594v10.405h-5.952v-9.714c0-1.992-0.7-3.009-2.253-3.009c-1.801,0-2.924,1.278-2.924,3.496v9.227h-5.952V80.48
		h5.952v7.377c1.272-1.024,2.89-1.648,4.612-1.648C492.205,86.209,494.754,89.115,494.754,93.594z"/>
	<path d="M509.839,98.786v5.213h-4.095c-3.821,0-6.144-2.336-6.144-6.176v-6.52h-3.163v-1.392l7.742-8.243h1.223v5.052h4.341v4.583
		h-4.191v5.499c0,1.237,0.747,1.983,2.002,1.983H509.839z"/>
	<path d="M518.838,93.888c0-5.891,1.76-11.21,4.64-15.414h6.346c-2.336,2.993-5.216,8.742-5.216,15.414
		c0,6.641,2.784,12.389,5.152,15.351h-6.282C520.598,105.065,518.838,99.746,518.838,93.888z"/>
	<path d="M546.137,98.646v5.353h-14.603V81.601h14.332v5.334h-8.188v3.298h7.356v5.062h-7.356v3.353H546.137z"/>
	<path d="M548.589,96.767h6.366c0,1.6,1.234,2.379,2.641,2.379c1.292,0,2.527-0.688,2.527-1.911c0-1.405-1.744-1.813-3.875-2.329
		c-3.237-0.805-7.37-1.797-7.37-6.896c0-4.41,3.241-6.938,8.522-6.938c5.37,0,8.449,2.757,8.449,7.313h-6.188
		c0-1.416-1.056-2.08-2.335-2.08c-1.1,0-2.155,0.476-2.155,1.521c0,1.271,1.688,1.692,3.797,2.223
		c3.297,0.851,7.607,1.952,7.607,7.066c0,4.893-3.759,7.432-8.96,7.432C552.132,104.547,548.589,101.648,548.589,96.767z"/>
	<path d="M586.155,87.156h-6.084v16.843h-6.198V87.156h-6.084v-5.556h18.367V87.156z"/>
	<path d="M586.586,109.238c2.368-2.962,5.151-8.71,5.151-15.351c0-6.672-2.879-12.421-5.215-15.414h6.346
		c2.88,4.204,4.64,9.523,4.64,15.414c0,5.858-1.76,11.178-4.64,15.351H586.586z"/>
	<path d="M618.51,98.786v5.213h-4.095c-3.821,0-6.144-2.336-6.144-6.176v-6.52h-3.163v-1.392l7.741-8.243h1.223v5.052h4.341v4.583
		h-4.19v5.499c0,1.237,0.747,1.983,2.003,1.983H618.51z"/>
	<path d="M620.123,95.359c0-5.355,4.054-9.205,9.688-9.205c5.615,0,9.688,3.85,9.688,9.205c0,5.338-4.072,9.206-9.688,9.206
		C624.177,104.565,620.123,100.697,620.123,95.359z M633.537,95.36c0-2.271-1.557-3.859-3.727-3.859s-3.727,1.574-3.727,3.859
		c0,2.284,1.557,3.858,3.727,3.858S633.537,97.645,633.537,95.36z"/>
	<path d="M666.873,96.772h-12.83c0.389,1.981,1.647,3.007,3.527,3.007c1.39,0,2.552-0.609,3.124-1.621h5.922
		c-1.216,3.943-4.711,6.407-9.046,6.407c-5.392,0-9.386-3.94-9.386-9.219c0-5.298,3.962-9.192,9.386-9.192
		c5.569,0,9.426,3.974,9.426,9.042C666.996,95.717,666.95,96.237,666.873,96.772z M654.147,93.477h6.985
		c-0.522-1.728-1.767-2.659-3.563-2.659C655.835,90.817,654.629,91.76,654.147,93.477z"/>
	<path d="M686.783,93.463v10.536h-5.951v-9.714c0-2.011-0.756-3.009-2.254-3.009c-1.855,0-2.923,1.297-2.923,3.496v9.227h-5.952
		V86.721h4.176l0.817,1.781c1.286-1.434,3.205-2.293,5.439-2.293C684.148,86.209,686.783,89.061,686.783,93.463z"/>
	<path d="M708.213,86.721v15.358c0,5.431-3.555,8.794-9.262,8.794c-4.903,0-8.336-2.473-9.131-6.567h5.743
		c0.412,1.155,1.887,1.777,3.333,1.777c1.994,0,3.597-1.268,3.597-3.322v-0.516c-1.299,0.824-2.841,1.297-4.509,1.297
		c-4.954,0-8.635-3.686-8.635-8.685c0-4.927,3.681-8.689,8.635-8.689c2.092,0,3.985,0.75,5.45,2.002l0.755-1.449H708.213z
		 M702.647,94.857c0-2.183-1.533-3.766-3.675-3.766c-2.137,0-3.688,1.583-3.688,3.766c0,2.201,1.533,3.785,3.688,3.785
		C701.109,98.643,702.647,97.059,702.647,94.857z"/>
	<path d="M730.366,86.702v17.278h-4.601l-0.51-1.222c-1.415,1.146-3.207,1.807-5.214,1.807c-5.283,0-9.06-3.854-9.06-9.225
		c0-5.351,3.776-9.16,9.06-9.16c2.035,0,3.854,0.68,5.28,1.857l0.608-1.336H730.366z M724.706,95.354
		c0-2.242-1.639-3.927-3.868-3.927c-2.242,0-3.868,1.685-3.868,3.927c0,2.257,1.639,3.941,3.868,3.941
		S724.706,97.611,724.706,95.354z"/>
	<path d="M751.988,86.721v15.358c0,5.431-3.555,8.794-9.262,8.794c-4.903,0-8.336-2.473-9.131-6.567h5.743
		c0.412,1.155,1.887,1.777,3.333,1.777c1.994,0,3.597-1.268,3.597-3.322v-0.516c-1.299,0.824-2.841,1.297-4.509,1.297
		c-4.954,0-8.635-3.686-8.635-8.685c0-4.927,3.681-8.689,8.635-8.689c2.092,0,3.985,0.75,5.45,2.002l0.755-1.449H751.988z
		 M746.423,94.857c0-2.183-1.533-3.766-3.675-3.766c-2.137,0-3.688,1.583-3.688,3.766c0,2.201,1.533,3.785,3.688,3.785
		C744.885,98.643,746.423,97.059,746.423,94.857z"/>
	<path d="M773.432,96.772h-12.83c0.389,1.981,1.647,3.007,3.527,3.007c1.39,0,2.552-0.609,3.124-1.621h5.922
		c-1.216,3.943-4.711,6.407-9.046,6.407c-5.392,0-9.386-3.94-9.386-9.219c0-5.298,3.962-9.192,9.386-9.192
		c5.569,0,9.426,3.974,9.426,9.042C773.555,95.717,773.509,96.237,773.432,96.772z M760.706,93.477h6.985
		c-0.522-1.728-1.767-2.659-3.563-2.659C762.394,90.817,761.188,91.76,760.706,93.477z"/>
	<path d="M783.205,86.72h5.952v17.279h-5.952V86.72z M783.251,79.507h5.86v5.051h-5.86V79.507z"/>
	<path d="M809.98,93.463v10.536h-5.951v-9.714c0-2.011-0.756-3.009-2.254-3.009c-1.855,0-2.923,1.297-2.923,3.496v9.227H792.9
		V86.721h4.176l0.817,1.781c1.286-1.434,3.205-2.293,5.439-2.293C807.346,86.209,809.98,89.061,809.98,93.463z"/>
	<path d="M831.529,98.786v5.213h-4.095c-3.821,0-6.144-2.336-6.144-6.176v-6.52h-3.163v-1.392l7.741-8.243h1.223v5.052h4.341v4.583
		h-4.19v5.499c0,1.237,0.747,1.983,2.003,1.983H831.529z"/>
	<path d="M851.388,93.594v10.405h-5.951v-9.714c0-1.992-0.7-3.009-2.254-3.009c-1.801,0-2.923,1.278-2.923,3.496v9.227h-5.952V80.48
		h5.952v7.377c1.271-1.024,2.89-1.648,4.612-1.648C848.839,86.209,851.388,89.115,851.388,93.594z"/>
	<path d="M872.63,96.772H859.8c0.389,1.981,1.647,3.007,3.527,3.007c1.39,0,2.552-0.609,3.124-1.621h5.922
		c-1.216,3.943-4.711,6.407-9.046,6.407c-5.392,0-9.386-3.94-9.386-9.219c0-5.298,3.962-9.192,9.386-9.192
		c5.569,0,9.426,3.974,9.426,9.042C872.753,95.717,872.707,96.237,872.63,96.772z M859.904,93.477h6.985
		c-0.522-1.728-1.767-2.659-3.563-2.659C861.592,90.817,860.386,91.76,859.904,93.477z"/>
	<path d="M882.127,104.565c-4.71,0-7.572-2.487-7.627-6.231h5.729c0,1.264,0.88,1.846,2.009,1.846c0.87,0,1.695-0.444,1.695-1.338
		c0-0.996-1.308-1.28-2.968-1.555c-2.679-0.435-6.23-1.243-6.23-5.434c0-3.464,2.951-5.699,7.378-5.699c4.4,0,7.252,2.34,7.32,5.842
		h-5.574c0-1.104-0.741-1.616-1.819-1.616c-0.954,0-1.596,0.472-1.596,1.272c0,0.983,1.322,1.213,2.963,1.505
		c2.729,0.485,6.359,1.053,6.359,5.435C889.766,102.202,886.718,104.565,882.127,104.565L882.127,104.565z"/>
	<path d="M910.229,96.772h-12.83c0.389,1.981,1.647,3.007,3.527,3.007c1.39,0,2.552-0.609,3.124-1.621h5.922
		c-1.216,3.943-4.711,6.407-9.046,6.407c-5.392,0-9.386-3.94-9.386-9.219c0-5.298,3.962-9.192,9.386-9.192
		c5.569,0,9.426,3.974,9.426,9.042C910.353,95.717,910.307,96.237,910.229,96.772z M897.504,93.477h6.985
		c-0.522-1.728-1.767-2.659-3.563-2.659C899.191,90.817,897.985,91.76,897.504,93.477z"/>
	<path d="M938.395,86.702v17.278h-4.601l-0.51-1.222c-1.415,1.146-3.207,1.807-5.214,1.807c-5.283,0-9.06-3.854-9.06-9.225
		c0-5.351,3.776-9.16,9.06-9.16c2.035,0,3.854,0.68,5.28,1.857l0.608-1.336H938.395z M932.734,95.354
		c0-2.242-1.639-3.927-3.868-3.927c-2.242,0-3.868,1.685-3.868,3.927c0,2.257,1.639,3.941,3.868,3.941
		S932.734,97.611,932.734,95.354z"/>
	<path d="M950.696,104.564c-5.541,0-9.541-3.882-9.541-9.229s3.981-9.155,9.56-9.155c4.855,0,8.498,3.062,9.148,7.657h-5.798
		c-0.5-1.409-1.817-2.324-3.369-2.324c-2.092,0-3.58,1.59-3.58,3.841s1.507,3.878,3.58,3.878c1.597,0,2.891-0.979,3.383-2.521h5.848
		C959.254,101.403,955.562,104.565,950.696,104.564L950.696,104.564z"/>
	<path d="M973.992,98.786v5.213h-4.095c-3.821,0-6.144-2.336-6.144-6.176v-6.52h-3.163v-1.392l7.741-8.243h1.223v5.052h4.341v4.583
		h-4.19v5.499c0,1.237,0.747,1.983,2.003,1.983H973.992z"/>
	<path d="M976.771,86.72h5.952v17.279h-5.952V86.72z M976.816,79.507h5.86v5.051h-5.86V79.507z"/>
	<path d="M1003.981,86.721l-6.946,17.278h-5.392l-7.038-17.278h6.521l3.266,10.233l3.229-10.233H1003.981z"/>
	<path d="M1022.805,96.772h-12.83c0.389,1.981,1.647,3.007,3.527,3.007c1.39,0,2.552-0.609,3.124-1.621h5.922
		c-1.216,3.943-4.711,6.407-9.046,6.407c-5.392,0-9.386-3.94-9.386-9.219c0-5.298,3.962-9.192,9.386-9.192
		c5.569,0,9.426,3.974,9.426,9.042C1022.928,95.717,1022.882,96.237,1022.805,96.772z M1010.079,93.477h6.985
		c-0.522-1.728-1.767-2.659-3.563-2.659C1011.767,90.817,1010.561,91.76,1010.079,93.477z"/>
	<path d="M1025.635,80.48h5.952v23.519h-5.952V80.48z"/>
	<path d="M1053.396,86.721l-7.242,16.51c-2.329,5.288-4.47,7.198-8.932,7.198h-2.038v-5.114h1.637c2.277,0,2.964-0.593,3.771-2.743
		l-7.141-15.851h6.468l3.667,9.518l3.417-9.518H1053.396z"/>
	<path d="M1087.915,93.162v10.837h-5.951V93.897c0-1.805-0.664-2.675-1.929-2.675c-1.636,0-2.475,1.126-2.475,3.302v9.475h-5.797
		V93.897c0-1.75-0.659-2.675-1.905-2.675c-1.613,0-2.497,1.153-2.497,3.302v9.475h-5.952V86.721h4.186l0.847,1.856
		c1.249-1.455,3.061-2.368,5.051-2.368c2.106,0,3.88,0.946,4.956,2.544c1.241-1.563,3.154-2.544,5.306-2.544
		C1085.455,86.209,1087.915,89.093,1087.915,93.162z"/>
	<path d="M1090.452,95.359c0-5.355,4.054-9.205,9.688-9.205c5.615,0,9.688,3.85,9.688,9.205c0,5.338-4.072,9.206-9.688,9.206
		C1094.506,104.565,1090.452,100.697,1090.452,95.359z M1103.866,95.36c0-2.271-1.557-3.859-3.727-3.859s-3.727,1.574-3.727,3.859
		c0,2.284,1.557,3.858,3.727,3.858S1103.866,97.645,1103.866,95.36z"/>
	<path d="M1129.324,86.721l-6.946,17.278h-5.392l-7.038-17.278h6.521l3.266,10.233l3.229-10.233H1129.324z"/>
	<path d="M1131.233,86.72h5.952v17.279h-5.952V86.72z M1131.279,79.507h5.86v5.051h-5.86V79.507z"/>
	<path d="M1158.009,93.463v10.536h-5.951v-9.714c0-2.011-0.756-3.009-2.254-3.009c-1.855,0-2.923,1.297-2.923,3.496v9.227h-5.952
		V86.721h4.176l0.817,1.781c1.286-1.434,3.205-2.293,5.439-2.293C1155.373,86.209,1158.009,89.061,1158.009,93.463z"/>
	<path d="M1179.439,86.721v15.358c0,5.431-3.555,8.794-9.262,8.794c-4.903,0-8.336-2.473-9.131-6.567h5.743
		c0.412,1.155,1.887,1.777,3.333,1.777c1.994,0,3.597-1.268,3.597-3.322v-0.516c-1.299,0.824-2.841,1.297-4.509,1.297
		c-4.954,0-8.635-3.686-8.635-8.685c0-4.927,3.681-8.689,8.635-8.689c2.092,0,3.985,0.75,5.45,2.002l0.755-1.449H1179.439z
		 M1173.874,94.857c0-2.183-1.533-3.766-3.675-3.766c-2.137,0-3.688,1.583-3.688,3.766c0,2.201,1.533,3.785,3.688,3.785
		C1172.336,98.643,1173.874,97.059,1173.874,94.857z"/>
	<path d="M1216.649,93.162v10.837h-5.951V93.897c0-1.805-0.664-2.675-1.929-2.675c-1.636,0-2.475,1.126-2.475,3.302v9.475h-5.797
		V93.897c0-1.75-0.659-2.675-1.905-2.675c-1.613,0-2.497,1.153-2.497,3.302v9.475h-5.952V86.721h4.186l0.847,1.856
		c1.249-1.455,3.061-2.368,5.051-2.368c2.106,0,3.88,0.946,4.956,2.544c1.241-1.563,3.154-2.544,5.306-2.544
		C1214.189,86.209,1216.649,89.093,1216.649,93.162z"/>
	<path d="M1238.584,86.702v17.278h-4.601l-0.51-1.222c-1.415,1.146-3.207,1.807-5.214,1.807c-5.283,0-9.06-3.854-9.06-9.225
		c0-5.351,3.776-9.16,9.06-9.16c2.035,0,3.854,0.68,5.28,1.857l0.608-1.336H1238.584z M1232.924,95.354
		c0-2.242-1.639-3.927-3.868-3.927c-2.242,0-3.868,1.685-3.868,3.927c0,2.257,1.639,3.941,3.868,3.941
		S1232.924,97.611,1232.924,95.354z"/>
	<path d="M1253.587,86.638v5.446h-2.311c-2.107,0-2.989,0.925-2.989,3.129v8.786h-5.952V86.721h3.987l0.929,1.917
		c1.219-1.409,2.703-2,4.759-2H1253.587z"/>
	<path d="M1266.376,103.999l-4.327-7.307v7.307h-5.952V80.48h5.952v13.009l4.116-6.769h6.683l-5.385,8.234l5.93,9.044H1266.376z"/>
	<path d="M1291.825,96.772h-12.83c0.389,1.981,1.647,3.007,3.527,3.007c1.39,0,2.552-0.609,3.124-1.621h5.922
		c-1.216,3.943-4.711,6.407-9.046,6.407c-5.392,0-9.386-3.94-9.386-9.219c0-5.298,3.962-9.192,9.386-9.192
		c5.569,0,9.426,3.974,9.426,9.042C1291.948,95.717,1291.902,96.237,1291.825,96.772z M1279.1,93.477h6.985
		c-0.522-1.728-1.767-2.659-3.563-2.659C1280.787,90.817,1279.581,91.76,1279.1,93.477z"/>
	<path d="M1306.053,98.786v5.213h-4.095c-3.821,0-6.144-2.336-6.144-6.176v-6.52h-3.163v-1.392l7.741-8.243h1.223v5.052h4.341v4.583
		h-4.19v5.499c0,1.237,0.747,1.983,2.003,1.983H1306.053z"/>
	<path d="M1315.498,104.565c-4.71,0-7.572-2.487-7.627-6.231h5.729c0,1.264,0.88,1.846,2.009,1.846c0.87,0,1.695-0.444,1.695-1.338
		c0-0.996-1.308-1.28-2.968-1.555c-2.679-0.435-6.23-1.243-6.23-5.434c0-3.464,2.951-5.699,7.378-5.699c4.4,0,7.252,2.34,7.32,5.842
		h-5.574c0-1.104-0.741-1.616-1.819-1.616c-0.954,0-1.596,0.472-1.596,1.272c0,0.983,1.322,1.213,2.963,1.505
		c2.729,0.485,6.359,1.053,6.359,5.435C1323.137,102.202,1320.089,104.565,1315.498,104.565L1315.498,104.565z"/>
	<path d="M1325.699,98.47h5.773v5.529h-5.773V98.47z"/>
</g>
</svg>