<!-- Generator: Adobe Illustrator 21.0.0, SVG Export Plug-In  -->
<svg version="1.1"
	 xmlns="http://www.w3.org/2000/svg" xmlns:xlink="http://www.w3.org/1999/xlink" xmlns:a="http://ns.adobe.com/AdobeSVGViewerExtensions/3.0/"
	 x="0px" y="0px" width="209.662px" height="150.323px" viewBox="0 0 209.662 150.323"
	 style="enable-background:new 0 0 209.662 150.323;" xml:space="preserve">
<style type="text/css">
	.st0{fill:none;}
	.st1{fill:none;stroke:#B3B3B3;stroke-width:5;stroke-miterlimit:10;}
	.st2{font-family:'Mont-HeavyDEMO';}
	.st3{font-size:42px;}
	.st4{letter-spacing:2;}
	.st5{letter-spacing:1;}
</style>
<defs>
</defs>
<g>
	<rect y="4.83" class="st0" width="209.662" height="145.493"/>
	<path d="M21.516,28.281V35.7H2.843V6.294h8.208v21.987H21.516z"/>
	<path d="M35.417,13.625v4.68h9.449v7.091h-9.449V35.7h-8.172V6.294h18.714v7.33H35.417z"/>
	<path d="M81.708,19.984c0,9.622-6.282,16.458-15.49,16.458c-9.01,0-15.665-6.476-15.665-15.422S57.087,5.55,66.146,5.55
		c7.708,0,14.013,4.824,15.256,11.657h-8.489c-1.064-2.477-3.695-4.069-6.694-4.069c-4.404,0-7.373,3.185-7.373,7.883
		c0,4.65,2.92,7.835,7.373,7.835c3.092,0,5.743-1.497,6.667-3.764h-7.303v-5.107L81.708,19.984z"/>
	<path d="M115.98,30.924h-10.423L103.93,35.7h-8.682l11.551-29.405h7.919L126.521,35.7h-8.921L115.98,30.924z M110.753,15.473
		l-3.222,9.112h6.473L110.753,15.473z"/>
	<path d="M128.799,26.205h8.356c0,2.101,1.621,3.123,3.468,3.123c1.696,0,3.317-0.903,3.317-2.509c0-1.844-2.289-2.379-5.088-3.058
		c-4.25-1.057-9.676-2.359-9.676-9.053c0-5.791,4.254-9.108,11.188-9.108c7.049,0,11.092,3.619,11.092,9.602h-8.124
		c0-1.859-1.387-2.731-3.065-2.731c-1.443,0-2.829,0.625-2.829,1.998c0,1.67,2.216,2.222,4.984,2.918
		c4.328,1.117,9.987,2.563,9.987,9.277c0,6.422-4.935,9.756-11.763,9.756C133.45,36.419,128.799,32.614,128.799,26.205z"/>
	<path d="M158.745,6.294h8.209V35.7h-8.209V6.294z"/>
	<path d="M192.629,30.924h-10.423l-1.628,4.776h-8.682l11.551-29.405h7.919L203.17,35.7h-8.921L192.629,30.924z M187.401,15.473
		l-3.222,9.112h6.473L187.401,15.473z"/>
</g>
<line class="st1" x1="0.202" y1="45.077" x2="206.202" y2="45.077"/>
</svg>