<!-- Generator: Adobe Illustrator 21.0.0, SVG Export Plug-In  -->
<svg version="1.1"
	 xmlns="http://www.w3.org/2000/svg" xmlns:xlink="http://www.w3.org/1999/xlink" xmlns:a="http://ns.adobe.com/AdobeSVGViewerExtensions/3.0/"
	 x="0px" y="0px" width="877px" height="367px" viewBox="0 0 877 367" style="enable-background:new 0 0 877 367;"
	 xml:space="preserve">
<style type="text/css">
	.st0{fill:#FFFFFF;}
	.st1{fill:none;}
	.st2{fill:#ED1C24;}
	.st3{opacity:0.6;}
	.st4{fill:none;stroke:#ED1C24;stroke-width:20;stroke-miterlimit:10;}
	.st5{fill:none;stroke:#ED1C24;stroke-width:20;stroke-miterlimit:10;stroke-dasharray:270.4546,43.2727;}
	.st6{opacity:0.8;}
	.st7{opacity:0.8;fill:none;stroke:#FFFFFF;stroke-width:5;stroke-miterlimit:10;}
	.st8{font-family:'Mont-HeavyDEMO';}
	.st9{font-size:47px;}
	.st10{letter-spacing:1;}
	.st11{letter-spacing:2;}
	.st12{font-size:53.9996px;}
	.st13{font-size:42px;}
</style>
<defs>
</defs>
<g>
	<g>
		<path class="st0" d="M117.388,182.216h-3.286v10.066h-9.063v-32.898h14.259c7.092,0,12.233,4.766,12.233,11.643
			c0,4.037-1.972,7.345-5.222,9.291l6.532,11.964h-10.116L117.388,182.216z M114.102,174.582h4.14c2.534,0,3.992-1.525,3.992-3.582
			c0-2.056-1.458-3.562-3.992-3.562h-4.14V174.582z"/>
		<path class="st0" d="M164.317,179.354c0,0.765-0.067,1.529-0.181,2.314h-18.844c0.572,2.911,2.421,4.417,5.181,4.417
			c2.042,0,3.748-0.895,4.588-2.38h8.698c-1.786,5.792-6.919,9.411-13.287,9.411c-7.918,0-13.785-5.788-13.785-13.541
			c0-7.78,5.819-13.501,13.785-13.501C158.654,166.072,164.318,171.909,164.317,179.354L164.317,179.354z M145.447,176.827h10.259
			c-0.767-2.536-2.595-3.905-5.233-3.905C147.925,172.922,146.154,174.306,145.447,176.827z"/>
		<path class="st0" d="M198.78,179.593c0,7.907-5.547,13.548-13.308,13.548c-2.295,0-4.396-0.604-6.187-1.686v9.991h-8.642v-34.543
			h5.944l1.095,2.016c2.087-1.805,4.773-2.848,7.789-2.848C193.232,166.072,198.78,171.686,198.78,179.593z M189.984,179.593
			c0-3.334-2.407-5.808-5.681-5.808c-3.274,0-5.681,2.474-5.681,5.808c0,3.333,2.407,5.808,5.681,5.808
			C187.557,185.4,189.984,182.926,189.984,179.593z"/>
		<path class="st0" d="M203.663,179.593c0-7.867,5.954-13.521,14.229-13.521c8.248,0,14.229,5.654,14.229,13.521
			c0,7.84-5.981,13.521-14.229,13.521C209.617,193.114,203.663,187.433,203.663,179.593z M217.892,185.262
			c3.188,0,5.473-2.313,5.473-5.668c0-3.335-2.286-5.668-5.473-5.668c-3.187,0-5.473,2.313-5.473,5.667
			C212.418,182.949,214.705,185.261,217.892,185.262L217.892,185.262z"/>
		<path class="st0" d="M255.037,166.783v7.999h-3.394c-3.095,0-4.391,1.357-4.391,4.595v12.905h-8.741v-25.378h5.856l1.364,2.816
			c1.79-2.07,3.97-2.937,6.991-2.937H255.037z"/>
		<path class="st0" d="M278.232,184.626v7.656h-6.014c-5.612,0-9.023-3.431-9.023-9.07v-9.576h-4.646v-2.043l11.371-12.108h1.796
			v7.42h6.375v6.732h-6.155v8.076c0,1.817,1.097,2.914,2.941,2.914H278.232z"/>
		<path class="st0" d="M294.455,193.114c-6.917,0-11.121-3.653-11.201-9.152h8.414c0,1.856,1.292,2.71,2.949,2.71
			c1.279,0,2.491-0.652,2.491-1.964c0-1.464-1.921-1.881-4.36-2.284c-3.935-0.638-9.151-1.826-9.151-7.981
			c0-5.087,4.335-8.371,10.837-8.371c6.462,0,10.651,3.438,10.75,8.581h-8.186c0-1.621-1.089-2.374-2.673-2.374
			c-1.402,0-2.343,0.694-2.343,1.87c0,1.444,1.941,1.78,4.352,2.21c4.009,0.712,9.339,1.545,9.339,7.981
			c0,5.304-4.476,8.774-11.221,8.774L294.455,193.114z"/>
		<path class="st0" d="M312.144,196.172c2.526-0.223,3.727-1.883,3.727-3.89h-4.083v-8.121h8.534v7.43
			c0,5.114-3.321,8.474-8.177,8.909V196.172z"/>
		<path class="st0" d="M373.366,192.282l-2.567-18.946l-8.725,19h-2.677l-8.721-18.993l-2.531,18.938h-9.184l4.976-32.898h9.051
			l7.747,17.901l7.798-17.901h9.05l4.929,32.898H373.366z"/>
		<path class="st0" d="M414.729,179.354c0,0.765-0.067,1.529-0.181,2.314h-18.844c0.572,2.911,2.421,4.417,5.181,4.417
			c2.042,0,3.748-0.895,4.588-2.38h8.698c-1.786,5.792-6.919,9.411-13.287,9.411c-7.918,0-13.785-5.788-13.785-13.541
			c0-7.78,5.819-13.501,13.785-13.501C409.066,166.072,414.73,171.909,414.729,179.354L414.729,179.354z M395.859,176.827h10.259
			c-0.767-2.536-2.595-3.905-5.233-3.905C398.337,172.922,396.566,174.306,395.859,176.827z"/>
		<path class="st0" d="M437.795,184.626v7.656h-6.014c-5.612,0-9.023-3.431-9.023-9.07v-9.576h-4.646v-2.043l11.371-12.108h1.796
			v7.42h6.375v6.732h-6.155v8.076c0,1.817,1.097,2.914,2.941,2.914H437.795z"/>
		<path class="st0" d="M471.005,166.877v25.378h-6.758l-0.748-1.795c-2.078,1.684-4.71,2.654-7.658,2.654
			c-7.76,0-13.307-5.662-13.307-13.548c0-7.86,5.547-13.454,13.307-13.454c2.989,0,5.659,0.999,7.755,2.728l0.895-1.963
			L471.005,166.877z M462.691,179.586c0-3.294-2.407-5.768-5.682-5.768c-3.294,0-5.681,2.474-5.681,5.768
			c0,3.314,2.406,5.788,5.681,5.788S462.691,182.9,462.691,179.586z"/>
		<path class="st0" d="M478.865,157.739h8.741v34.543h-8.741V157.739z"/>
		<path class="st0" d="M505.247,193.114c-6.917,0-11.121-3.653-11.2-9.152h8.413c0,1.856,1.292,2.71,2.95,2.71
			c1.278,0,2.49-0.652,2.49-1.964c0-1.464-1.921-1.881-4.359-2.284c-3.935-0.638-9.151-1.826-9.151-7.981
			c0-5.087,4.335-8.371,10.837-8.371c6.463,0,10.651,3.438,10.751,8.581h-8.186c0-1.621-1.09-2.374-2.674-2.374
			c-1.401,0-2.343,0.694-2.343,1.87c0,1.444,1.941,1.78,4.353,2.21c4.009,0.712,9.339,1.545,9.339,7.981
			C516.467,189.644,511.991,193.114,505.247,193.114L505.247,193.114z"/>
		<path class="st0" d="M522.936,196.172c2.527-0.223,3.728-1.883,3.728-3.89h-4.083v-8.121h8.533v7.43
			c0,5.114-3.321,8.474-8.178,8.909V196.172z"/>
		<path class="st0" d="M571.285,192.282c-0.547-0.594-1.079-1.173-1.595-1.737c-2.579,1.575-5.654,2.46-9.023,2.46
			c-6.324,0-10.706-3.939-10.706-9.72c0-4.454,2.644-7.198,5.706-9.249c-2.57-3.664-3.107-5.593-3.107-7.5
			c0-5.352,4.425-8.288,9.973-8.288c5.479,0,9.897,2.996,9.897,8.269c0,4.487-3.39,7.051-6.904,9.183
			c1.14,1.385,2.459,2.931,3.955,4.659c0.546-1.175,0.902-2.474,1.017-3.841h7.128c-0.156,3.646-1.29,6.91-3.156,9.553
			c1.668,1.902,3.48,3.967,5.437,6.211H571.285z M564.889,185.229c-1.981-2.227-3.651-4.157-5.057-5.844
			c-1.199,1.049-1.979,2.21-1.979,3.645c0,1.829,1.386,3.052,3.498,3.052C562.591,186.083,563.789,185.778,564.889,185.229z
			 M560.064,166.764c0,0.946,0.529,2.186,1.587,3.818c1.936-1.153,3.329-2.301,3.329-3.818c0-1.478-1.068-2.379-2.448-2.379
			C561.112,164.385,560.064,165.266,560.064,166.764z"/>
		<path class="st0" d="M628.951,192.282l-2.567-18.946l-8.725,19h-2.678l-8.721-18.993l-2.531,18.938h-9.185l4.976-32.898h9.051
			l7.747,17.901l7.798-17.901h9.051l4.929,32.898H628.951z"/>
		<path class="st0" d="M671.178,166.877v25.378h-6.758l-0.749-1.795c-2.078,1.684-4.71,2.654-7.657,2.654
			c-7.761,0-13.308-5.662-13.308-13.548c0-7.86,5.547-13.454,13.308-13.454c2.988,0,5.658,0.999,7.754,2.728l0.895-1.963
			L671.178,166.877z M662.863,179.586c0-3.294-2.407-5.768-5.682-5.768c-3.294,0-5.681,2.474-5.681,5.768
			c0,3.314,2.407,5.788,5.681,5.788C660.456,185.374,662.863,182.9,662.863,179.586z"/>
		<path class="st0" d="M695.563,166.783v7.999h-3.394c-3.095,0-4.391,1.357-4.391,4.595v12.905h-8.741v-25.378h5.856l1.363,2.816
			c1.79-2.07,3.97-2.937,6.99-2.937H695.563z"/>
		<path class="st0" d="M716.698,192.282l-6.356-10.732v10.732h-8.741v-34.543h8.741v19.107l6.046-9.942h9.815L718.294,179
			l8.709,13.283H716.698z"/>
		<path class="st0" d="M756.604,179.354c0,0.765-0.066,1.529-0.18,2.314H737.58c0.572,2.911,2.421,4.417,5.181,4.417
			c2.042,0,3.748-0.895,4.589-2.38h8.698c-1.786,5.792-6.92,9.411-13.287,9.411c-7.918,0-13.784-5.788-13.784-13.541
			c0-7.78,5.819-13.501,13.784-13.501C750.941,166.072,756.605,171.909,756.604,179.354L756.604,179.354z M737.734,176.827h10.26
			c-0.768-2.536-2.596-3.905-5.233-3.905C740.213,172.922,738.441,174.306,737.734,176.827z"/>
		<path class="st0" d="M779.672,184.626v7.656h-6.015c-5.612,0-9.023-3.431-9.023-9.07v-9.576h-4.645v-2.043l11.37-12.108h1.796
			v7.42h6.376v6.732h-6.155v8.076c0,1.817,1.097,2.914,2.94,2.914H779.672z"/>
		<path class="st0" d="M795.894,193.114c-6.917,0-11.121-3.653-11.2-9.152h8.413c0,1.856,1.292,2.71,2.95,2.71
			c1.278,0,2.49-0.652,2.49-1.964c0-1.464-1.921-1.881-4.359-2.284c-3.935-0.638-9.151-1.826-9.151-7.981
			c0-5.087,4.335-8.371,10.837-8.371c6.463,0,10.651,3.438,10.751,8.581h-8.186c0-1.621-1.09-2.374-2.674-2.374
			c-1.401,0-2.343,0.694-2.343,1.87c0,1.444,1.941,1.78,4.353,2.21c4.009,0.712,9.339,1.545,9.339,7.981
			C807.113,189.644,802.638,193.114,795.894,193.114L795.894,193.114z"/>
	</g>
</g>
<g>
	<rect x="274.171" y="66.333" class="st1" width="341.229" height="102.667"/>
	<path class="st2" d="M307.923,81.879c0,7.927-5.97,13.703-14.004,13.703h-5.657v10.44h-10.437V68.222h16.094
		C301.953,68.222,307.923,73.953,307.923,81.879z M297.218,81.902c0-2.687-1.807-4.587-4.548-4.587h-4.408v9.174h4.408
		C295.411,86.489,297.218,84.589,297.218,81.902z"/>
	<path class="st2" d="M329.544,94.457h-3.776v11.566h-10.414V68.222h16.384c8.149,0,14.056,5.476,14.056,13.378
		c0,4.639-2.266,8.439-6,10.675l7.506,13.748h-11.623L329.544,94.457z M325.768,85.684h4.757c2.911,0,4.587-1.753,4.587-4.116
		s-1.676-4.092-4.587-4.092h-4.757V85.684z"/>
	<path class="st2" d="M373.08,106.979c-12.152,0-20.823-8.303-20.823-19.856c0-11.553,8.671-19.856,20.823-19.856
		c12.121,0,20.761,8.272,20.761,19.856S385.201,106.979,373.08,106.979L373.08,106.979z M373.08,97.289
		c5.753,0,9.918-4.25,9.918-10.165c0-5.916-4.165-10.166-9.918-10.166c-5.754,0-9.98,4.281-9.98,10.165
		C363.1,93.008,367.326,97.289,373.08,97.289L373.08,97.289z"/>
	<path class="st2" d="M436.673,87.091c0,11.031-8.1,18.931-19.514,18.931H401.86V68.222h15.299
		C428.604,68.222,436.673,76.045,436.673,87.091z M425.997,87.091c0-5.608-3.731-9.333-9.329-9.333h-4.348v18.727h4.348
		C422.266,96.486,425.997,92.668,425.997,87.091z"/>
	<path class="st2" d="M444.389,91.399V68.222h10.644v22.983c0,3.695,2.381,6.082,5.858,6.082s5.858-2.387,5.858-6.082V68.222h10.643
		v23.178c0,9.3-6.864,15.579-16.501,15.579S444.389,100.7,444.389,91.399z"/>
	<path class="st2" d="M505.146,106.979c-11.505,0-20.098-8.518-20.098-19.825c0-11.37,8.593-19.887,20.098-19.887
		c9.906,0,17.58,6.539,19.116,16.124h-10.552c-1.298-3.876-4.563-6.394-8.542-6.394c-5.353,0-9.278,4.304-9.278,10.157
		c0,5.831,3.926,10.072,9.278,10.072c4.194,0,7.492-2.733,8.551-6.934h10.651C522.934,100.231,515.215,106.979,505.146,106.979
		L505.146,106.979z"/>
	<path class="st2" d="M559.698,77.599H549.43v28.424h-10.459V77.599h-10.269v-9.377h30.996V77.599z"/>
	<path class="st2" d="M564.829,93.816h10.742c0,2.7,2.084,4.015,4.458,4.015c2.182,0,4.265-1.161,4.265-3.226
		c0-2.371-2.942-3.059-6.541-3.931c-5.464-1.358-12.438-3.032-12.438-11.638c0-7.444,5.47-11.708,14.383-11.708
		c9.063,0,14.26,4.652,14.26,12.343h-10.444c0-2.391-1.781-3.512-3.94-3.512c-1.855,0-3.637,0.803-3.637,2.567
		c0,2.147,2.849,2.857,6.408,3.752c5.563,1.436,12.838,3.294,12.838,11.926c0,8.256-6.344,12.541-15.121,12.541
		C570.809,106.947,564.829,102.056,564.829,93.816z"/>
</g>
<g class="st3">
	<g>
		<polyline class="st4" points="617,10 867,10 867,357 617,357 		"/>
		<line class="st5" x1="573.727" y1="357" x2="281.636" y2="357"/>
		<polyline class="st4" points="260,357 10,357 10,10 260,10 		"/>
		<line class="st5" x1="303.273" y1="10" x2="595.364" y2="10"/>
	</g>
</g>
<g class="st6">
	<rect x="340.097" y="266.505" class="st1" width="210.903" height="100.495"/>
	<path class="st0" d="M361.612,289.956v7.418h-18.673v-29.405h8.208v21.987H361.612z"/>
	<path class="st0" d="M375.513,275.299v4.68h9.449v7.091h-9.449v10.304h-8.172v-29.405h18.714v7.33H375.513z"/>
	<path class="st0" d="M421.805,281.659c0,9.622-6.282,16.458-15.49,16.458c-9.01,0-15.665-6.476-15.665-15.422
		s6.534-15.47,15.593-15.47c7.708,0,14.013,4.824,15.256,11.657h-8.489c-1.064-2.477-3.695-4.069-6.694-4.069
		c-4.404,0-7.373,3.185-7.373,7.883c0,4.65,2.92,7.835,7.373,7.835c3.092,0,5.743-1.497,6.667-3.764h-7.303v-5.107L421.805,281.659z
		"/>
	<path class="st0" d="M456.076,292.598h-10.423l-1.629,4.776h-8.681l11.551-29.405h7.919l11.804,29.405h-8.921L456.076,292.598z
		 M450.849,277.147l-3.223,9.112h6.474L450.849,277.147z"/>
	<path class="st0" d="M468.895,287.879h8.357c0,2.101,1.62,3.123,3.468,3.123c1.696,0,3.317-0.903,3.317-2.509
		c0-1.844-2.289-2.379-5.088-3.058c-4.251-1.057-9.677-2.359-9.677-9.053c0-5.791,4.255-9.108,11.188-9.108
		c7.05,0,11.093,3.619,11.093,9.602h-8.124c0-1.859-1.387-2.731-3.065-2.731c-1.443,0-2.83,0.625-2.83,1.998
		c0,1.67,2.217,2.222,4.985,2.918c4.328,1.117,9.987,2.563,9.987,9.277c0,6.422-4.935,9.756-11.764,9.756
		C473.546,298.093,468.895,294.289,468.895,287.879z"/>
	<path class="st0" d="M498.843,267.969h8.208v29.405h-8.208V267.969z"/>
	<path class="st0" d="M532.727,292.598h-10.423l-1.629,4.776h-8.682l11.551-29.405h7.919l11.804,29.405h-8.92L532.727,292.598z
		 M527.498,277.147l-3.222,9.112h6.473L527.498,277.147z"/>
</g>
<line class="st7" x1="36" y1="284.5" x2="284" y2="284.5"/>
<line class="st7" x1="596" y1="284.5" x2="844" y2="284.5"/>
</svg>