<!-- Generator: Adobe Illustrator 21.0.0, SVG Export Plug-In  -->
<svg version="1.1"
	 xmlns="http://www.w3.org/2000/svg" xmlns:xlink="http://www.w3.org/1999/xlink" xmlns:a="http://ns.adobe.com/AdobeSVGViewerExtensions/3.0/"
	 x="0px" y="0px" width="224.989px" height="75.447px" viewBox="0 0 224.989 75.447"
	 style="enable-background:new 0 0 224.989 75.447;" xml:space="preserve">
<style type="text/css">
	.st0{fill:none;}
	.st1{font-family:'Mont-HeavyDEMO';}
	.st2{font-size:30px;}
</style>
<defs>
</defs>
<g>
	<rect y="3.45" class="st0" width="224.989" height="71.996"/>
	<path d="M36.754,4.501V25.5h-5.836v-8.062h-6.302V25.5H18.78V4.501h5.837v7.576h6.302V4.501H36.754z"/>
	<path d="M57.642,18.725H45.614c0.364,1.858,1.545,2.819,3.307,2.819c1.304,0,2.393-0.571,2.929-1.52h5.553
		c-1.14,3.697-4.417,6.007-8.481,6.007c-5.055,0-8.799-3.694-8.799-8.644c0-4.966,3.715-8.618,8.799-8.618
		c5.222,0,8.837,3.726,8.837,8.478C57.757,17.735,57.714,18.224,57.642,18.725z M45.711,15.635h6.549
		c-0.489-1.619-1.656-2.493-3.34-2.493C47.293,13.142,46.163,14.025,45.711,15.635z"/>
	<path d="M61.074,3.451h5.58V25.5h-5.58V3.451z"/>
	<path d="M88.904,17.4c0,5.047-3.541,8.647-8.494,8.647c-1.465,0-2.806-0.385-3.949-1.075v6.377h-5.517V9.301h3.795l0.699,1.287
		C76.77,9.436,78.485,8.77,80.41,8.77C85.363,8.77,88.904,12.354,88.904,17.4z M83.289,17.4c0-2.129-1.536-3.708-3.627-3.708
		c-2.09,0-3.626,1.579-3.626,3.708c0,2.128,1.536,3.707,3.626,3.707C81.74,21.107,83.289,19.528,83.289,17.4z"/>
	<path d="M98.715,15.019c0-6.316,4.773-11.049,11.165-11.049c5.503,0,9.766,3.633,10.619,8.957h-5.861
		c-0.722-2.153-2.535-3.552-4.745-3.552c-2.974,0-5.155,2.392-5.155,5.643c0,3.239,2.182,5.596,5.155,5.596
		c2.329,0,4.161-1.519,4.75-3.852h5.917c-0.799,5.521-5.087,9.27-10.68,9.27C103.489,26.031,98.715,21.3,98.715,15.019z"/>
	<path d="M140.41,18.725h-12.028c0.364,1.858,1.545,2.819,3.307,2.819c1.304,0,2.393-0.571,2.929-1.52h5.553
		c-1.14,3.697-4.417,6.007-8.481,6.007c-5.055,0-8.799-3.694-8.799-8.644c0-4.966,3.715-8.618,8.799-8.618
		c5.222,0,8.837,3.726,8.837,8.478C140.525,17.735,140.482,18.224,140.41,18.725z M128.479,15.635h6.549
		c-0.489-1.619-1.656-2.493-3.34-2.493C130.061,13.142,128.931,14.025,128.479,15.635z"/>
	<path d="M159.856,15.622V25.5h-5.58v-9.106c0-1.886-0.708-2.821-2.112-2.821c-1.74,0-2.741,1.216-2.741,3.277v8.65h-5.58V9.301
		h3.915l0.767,1.67c1.206-1.344,3.004-2.149,5.1-2.149C157.385,8.821,159.856,11.495,159.856,15.622z"/>
	<path d="M174.779,20.613V25.5h-3.84c-3.582,0-5.76-2.189-5.76-5.79v-6.112h-2.965v-1.305l7.258-7.729h1.146v4.736h4.069v4.297
		h-3.929v5.155c0,1.16,0.7,1.86,1.878,1.86H174.779z"/>
	<path d="M194.588,18.725H182.56c0.364,1.858,1.545,2.819,3.307,2.819c1.304,0,2.393-0.571,2.929-1.52h5.553
		c-1.14,3.697-4.417,6.007-8.481,6.007c-5.055,0-8.799-3.694-8.799-8.644c0-4.966,3.715-8.618,8.799-8.618
		c5.222,0,8.837,3.726,8.837,8.478C194.703,17.735,194.661,18.224,194.588,18.725z M182.658,15.635h6.549
		c-0.489-1.619-1.656-2.493-3.34-2.493C184.24,13.142,183.11,14.025,182.658,15.635z"/>
	<path d="M208.57,9.224v5.106h-2.166c-1.976,0-2.803,0.866-2.803,2.933V25.5h-5.58V9.301h3.738l0.871,1.798
		c1.142-1.321,2.533-1.875,4.462-1.875H208.57z"/>
</g>
</svg>