<!-- Generator: Adobe Illustrator 21.0.0, SVG Export Plug-In  -->
<svg version="1.1"
	 xmlns="http://www.w3.org/2000/svg" xmlns:xlink="http://www.w3.org/1999/xlink" xmlns:a="http://ns.adobe.com/AdobeSVGViewerExtensions/3.0/"
	 x="0px" y="0px" width="539.655px" height="208.5px" viewBox="0 0 539.655 208.5"
	 style="enable-background:new 0 0 539.655 208.5;" xml:space="preserve">
<style type="text/css">
	.st0{fill:#ED1C24;}
	.st1{opacity:0.5;fill:#FFFFFF;}
	.st2{fill:none;}
	.st3{font-family:'Mont-HeavyDEMO';}
	.st4{font-size:66px;}
</style>
<defs>
</defs>
<rect class="st0" width="539.655" height="19"/>
<rect y="19" class="st1" width="539.655" height="189.5"/>
<g>
	<rect y="88.5" class="st2" width="539.655" height="50"/>
	<path d="M110.175,107.503c0,9.688-7.296,16.747-17.115,16.747h-6.913v12.759H73.392V90.813H93.06
		C102.879,90.813,110.175,97.816,110.175,107.503z M97.092,107.532c0-3.284-2.208-5.605-5.558-5.605h-5.387v11.211h5.387
		C94.884,113.137,97.092,110.815,97.092,107.532z"/>
	<path d="M153.093,101.334v35.637h-9.489l-1.051-2.521c-2.918,2.364-6.614,3.726-10.753,3.726c-10.897,0-18.687-7.95-18.687-19.025
		c0-11.037,7.79-18.892,18.687-18.892c4.197,0,7.946,1.402,10.889,3.83l1.256-2.756L153.093,101.334z M141.418,119.181
		c0-4.626-3.379-8.1-7.978-8.1c-4.625,0-7.977,3.474-7.977,8.1c0,4.654,3.379,8.127,7.977,8.127
		C138.039,127.308,141.418,123.834,141.418,119.181z"/>
	<path d="M184.037,101.202v11.233h-4.765c-4.346,0-6.166,1.906-6.166,6.452v18.122h-12.275v-35.637h8.224l1.915,3.955
		c2.513-2.907,5.575-4.125,9.816-4.125H184.037z"/>
	<path d="M213.31,126.258v10.751h-8.445c-7.881,0-12.671-4.817-12.671-12.737v-13.447h-6.523v-2.869l15.967-17.003h2.521v10.419
		h8.953v9.453h-8.644v11.341c0,2.552,1.541,4.092,4.13,4.092H213.31z"/>
	<path d="M254.269,115.279v21.73h-12.275v-20.034c0-4.148-1.558-6.206-4.647-6.206c-3.828,0-6.03,2.673-6.03,7.209v19.03h-12.275
		v-35.637h8.612l1.686,3.674c2.653-2.957,6.61-4.729,11.218-4.729C248.833,100.318,254.269,106.199,254.269,115.279z"/>
	<path d="M298.332,118.854c0,1.074-0.094,2.147-0.254,3.25h-26.461c0.803,4.087,3.398,6.201,7.274,6.201
		c2.868,0,5.264-1.256,6.443-3.342h12.215c-2.508,8.133-9.717,13.215-18.658,13.215c-11.119,0-19.356-8.127-19.356-19.015
		c0-10.925,8.171-18.958,19.356-18.958C290.378,100.205,298.332,108.399,298.332,118.854L298.332,118.854z M271.833,115.306h14.406
		c-1.076-3.562-3.644-5.483-7.348-5.483C275.313,109.822,272.826,111.766,271.833,115.306z"/>
	<path d="M327.122,101.202v11.233h-4.766c-4.346,0-6.165,1.906-6.165,6.452v18.122h-12.275v-35.637h8.224l1.915,3.955
		c2.513-2.907,5.574-4.125,9.816-4.125H327.122z"/>
	<path d="M345.384,138.176c-9.713,0-15.616-5.13-15.729-12.851h11.815c0,2.606,1.814,3.806,4.142,3.806
		c1.796,0,3.498-0.916,3.498-2.758c0-2.056-2.698-2.642-6.122-3.208c-5.525-0.896-12.851-2.563-12.851-11.207
		c0-7.143,6.087-11.755,15.218-11.755c9.075,0,14.956,4.828,15.097,12.049h-11.495c0-2.275-1.53-3.333-3.754-3.333
		c-1.968,0-3.29,0.974-3.29,2.626c0,2.028,2.726,2.5,6.111,3.104c5.629,1,13.114,2.17,13.114,11.208
		c0,7.447-6.285,12.321-15.757,12.321L345.384,138.176z"/>
	<path d="M402.107,115.549v21.46h-12.275v-20.034c0-4.11-1.444-6.206-4.647-6.206c-3.714,0-6.029,2.636-6.029,7.209v19.03h-12.275
		V88.503h12.275v15.214c2.623-2.113,5.961-3.399,9.513-3.399C396.849,100.318,402.107,106.312,402.107,115.549z"/>
	<path d="M409.45,101.371h12.274v35.637H409.45V101.371z M409.543,86.495h12.087v10.417h-12.087V86.495z"/>
	<path d="M468.956,119.19c0,11.103-7.789,19.024-18.687,19.024c-3.223,0-6.172-0.847-8.688-2.366v14.029h-12.135v-48.505h8.348
		l1.538,2.831c2.931-2.534,6.702-4,10.937-4C461.167,100.204,468.956,108.087,468.956,119.19z M456.605,119.189
		c0-4.682-3.38-8.155-7.978-8.155s-7.978,3.474-7.978,8.155s3.38,8.156,7.978,8.156
		C453.197,127.345,456.605,123.871,456.605,119.189z"/>
</g>
</svg>