<!-- Generator: Adobe Illustrator 21.0.0, SVG Export Plug-In  -->
<svg version="1.1"
	 xmlns="http://www.w3.org/2000/svg" xmlns:xlink="http://www.w3.org/1999/xlink" xmlns:a="http://ns.adobe.com/AdobeSVGViewerExtensions/3.0/"
	 x="0px" y="0px" width="352.482px" height="107.976px" viewBox="0 0 352.482 107.976"
	 style="enable-background:new 0 0 352.482 107.976;" xml:space="preserve">
<style type="text/css">
	.st0{fill:none;}
	.st1{fill:#ED1C24;}
	.st2{fill:none;stroke:#FFFFFF;stroke-width:9;stroke-miterlimit:10;}
	.st3{font-family:'Mont-HeavyDEMO';}
	.st4{font-size:52px;}
	.st5{letter-spacing:-1;}
</style>
<defs>
</defs>
<g>
	<g>
		<rect y="5.981" class="st0" width="352.482" height="101.995"/>
		<path class="st1" d="M44.771,35.016v9.184H21.655V7.798h10.161v27.218H44.771z"/>
		<path class="st1" d="M59.383,16.872v5.794h11.697v8.777H59.383v12.756H49.267V7.798h23.166v9.074H59.383z"/>
		<path class="st1" d="M114.093,24.745c0,11.911-7.776,20.373-19.176,20.373c-11.153,0-19.392-8.016-19.392-19.091
			c0-11.074,8.089-19.15,19.302-19.15c9.542,0,17.347,5.971,18.886,14.43h-10.509c-1.317-3.066-4.574-5.038-8.287-5.038
			c-5.453,0-9.127,3.943-9.127,9.76c0,5.757,3.615,9.699,9.127,9.699c3.827,0,7.109-1.853,8.253-4.659h-9.041v-6.322L114.093,24.745
			z"/>
		<path class="st1" d="M156.332,16.827h-9.888v27.372h-10.072V16.827h-9.889V7.798h29.849V16.827z"/>
		<path class="st1" d="M174.471,33.062h-3.636v11.138h-10.028V7.798h15.777c7.847,0,13.536,5.273,13.536,12.883
			c0,4.467-2.182,8.127-5.777,10.28l7.228,13.238h-11.193L174.471,33.062z M170.834,24.613h4.581c2.803,0,4.417-1.688,4.417-3.963
			s-1.613-3.941-4.417-3.941h-4.581V24.613z"/>
		<path class="st1" d="M217.938,38.287h-12.902l-2.017,5.912h-10.746l14.299-36.401h9.803l14.612,36.401h-11.043L217.938,38.287z
			 M211.467,19.16l-3.988,11.279h8.013L211.467,19.16z"/>
		<path class="st1" d="M268.014,25.969c0,10.623-7.8,18.23-18.791,18.23H234.49V7.798h14.732
			C260.244,7.798,268.014,15.332,268.014,25.969z M257.733,25.969c0-5.4-3.593-8.987-8.983-8.987h-4.188v18.034h4.188
			C254.141,35.016,257.733,31.339,257.733,25.969z"/>
		<path class="st1" d="M296.962,35.501v8.698h-23.732V7.798h23.292v8.669h-13.308v5.359h11.956v8.226h-11.956v5.449H296.962z"/>
		<path class="st1" d="M316.378,33.062h-3.637v11.138h-10.028V7.798h15.777c7.848,0,13.536,5.273,13.536,12.883
			c0,4.467-2.182,8.127-5.777,10.28l7.228,13.238h-11.193L316.378,33.062z M312.741,24.613h4.581c2.804,0,4.417-1.688,4.417-3.963
			s-1.613-3.941-4.417-3.941h-4.581V24.613z"/>
	</g>
	<line class="st2" x1="19.241" y1="66.941" x2="339.241" y2="66.941"/>
</g>
</svg>