<!-- Generator: Adobe Illustrator 21.0.0, SVG Export Plug-In  -->
<svg version="1.1"
	 xmlns="http://www.w3.org/2000/svg" xmlns:xlink="http://www.w3.org/1999/xlink" xmlns:a="http://ns.adobe.com/AdobeSVGViewerExtensions/3.0/"
	 x="0px" y="0px" width="215.247px" height="196.744px" viewBox="0 0 215.247 196.744"
	 style="enable-background:new 0 0 215.247 196.744;" xml:space="preserve">
<style type="text/css">
	.st0{fill:#FFFFFF;}
	.st1{fill:#2E3192;}
	.st2{display:none;enable-background:new    ;}
	.st3{enable-background:new    ;}
	.st4{display:inline;}
	.st5{display:inline;clip-path:url(#SVGID_2_);enable-background:new    ;}
	.st6{fill:none;stroke:#ED1C24;stroke-width:4;stroke-miterlimit:10;}
	.st7{display:inline;clip-path:url(#SVGID_2_);fill:none;stroke:#ED1C24;stroke-width:4;stroke-miterlimit:10;}
	.st8{fill:none;}
	.st9{fill:#ED1C24;}
	.st10{display:inline;clip-path:url(#SVGID_4_);enable-background:new    ;}
	.st11{display:inline;clip-path:url(#SVGID_4_);fill:none;stroke:#ED1C24;stroke-width:4;stroke-miterlimit:10;}
	.st12{font-family:'Mont-HeavyDEMO';}
	.st13{font-size:57px;}
	.st14{letter-spacing:-1;}
</style>
<defs>
</defs>
<g>
	<g>
		<g>
			<g>
				<g>
					<g>
						<path class="st0" d="M93.905,97.547l40.85,40.944l3.527,3.527c2.368,2.368,6.241,2.368,8.609,0l4.303-4.303
							c2.368-2.368,2.368-6.241,0-8.606l-45.322-45.314C99.274,84.943,94.656,90.828,93.905,97.547z"/>
						<path class="st0" d="M40.176,48.573c-0.961,0.961-0.961,2.532,0,3.493l2.754,2.754c0.961,0.961,2.532,0.961,3.493,0
							l17.329-17.329c0.961-0.961,0.961-2.532,0-3.493l-2.754-2.754c-0.961-0.961-2.532-0.961-3.493,0L40.176,48.573z"/>
						<g>
							<g>
								<g>
									<path class="st0" d="M200.12,133.039c-7.971-7.946-20.879-7.971-28.849,0c-7.996-7.971-20.904-7.946-28.875,0
										c-7.971,7.971-7.971,20.879,0,28.875c-7.971,7.971-7.971,20.879,0,28.85c7.971,7.971,20.879,7.971,28.875,0.025
										c7.971,7.945,20.879,7.945,28.849-0.025c7.971-7.971,7.971-20.879,0.025-28.85
										C208.091,153.918,208.091,141.009,200.12,133.039z M185.213,162.591c3.677,3.645,3.677,9.612,0,13.289
										c-3.645,3.677-9.612,3.677-13.289,0c-0.226-0.258-0.452-0.516-0.677-0.774c-0.193,0.258-0.419,0.516-0.677,0.774
										c-3.645,3.677-9.612,3.677-13.289,0c-3.645-3.677-3.645-9.644,0-13.289c0.258-0.258,0.516-0.484,0.774-0.677
										c-0.258-0.226-0.516-0.452-0.774-0.677c-3.645-3.677-3.645-9.644,0-13.289c3.677-3.677,9.644-3.677,13.289,0
										c0.258,0.226,0.484,0.484,0.677,0.742c0.226-0.258,0.452-0.516,0.677-0.742c3.677-3.677,9.644-3.677,13.289,0
										c3.677,3.645,3.677,9.612,0,13.289c-0.226,0.226-0.484,0.451-0.742,0.677C184.729,162.107,184.987,162.333,185.213,162.591
										z"/>
								</g>
							</g>
						</g>
						<path class="st0" d="M11.8,15.831l35.357,35.357c3.565,3.565,9.345,3.565,12.91,0l0,0c3.565-3.565,3.565-9.345,0-12.91
							L24.711,2.921c-3.565-3.565-9.345-3.565-12.91,0l0,0C8.235,6.486,8.235,12.266,11.8,15.831z"/>
					</g>
					<g>
						<g>
							
								<rect x="13.61" y="45.524" transform="matrix(0.7071 -0.7071 0.7071 0.7071 -29.1017 30.7772)" class="st0" width="17.981" height="9.986"/>
							
								<rect x="0.898" y="32.812" transform="matrix(0.7071 -0.7071 0.7071 0.7071 -23.836 18.0646)" class="st0" width="17.981" height="9.986"/>
							<g>
								<path class="st0" d="M18.421,27.905c-1.573,1.573-4.134,1.585-5.707,0.012l7.061,7.061c1.573-1.573,4.091-1.629,5.663-0.056
									c1.381,1.381,1.547,3.514,0.503,5.079c-0.133,0.228-0.322,0.435-0.515,0.628l7.061,7.061
									c-1.573-1.573-1.561-4.134,0.012-5.707c1.573-1.573,3.977-1.476,5.55,0.097L18.289,22.32
									C19.862,23.893,19.994,26.332,18.421,27.905z"/>
							</g>
						</g>
						<g>
							<path class="st0" d="M93.905,97.547l40.85,40.944l3.527,3.527c2.368,2.368,6.241,2.368,8.609,0l4.303-4.303
								c2.368-2.368,2.368-6.241,0-8.606l-45.322-45.314C99.274,84.943,94.656,90.828,93.905,97.547z"/>
							<path class="st0" d="M40.176,48.573c-0.961,0.961-0.961,2.532,0,3.493l2.754,2.754c0.961,0.961,2.532,0.961,3.493,0
								l17.329-17.329c0.961-0.961,0.961-2.532,0-3.493l-2.754-2.754c-0.961-0.961-2.532-0.961-3.493,0L40.176,48.573z"/>
							<g>
								<g>
									<g>
										<path class="st0" d="M200.12,133.039c-7.971-7.946-20.879-7.971-28.849,0c-7.996-7.971-20.904-7.946-28.875,0
											c-7.971,7.971-7.971,20.879,0,28.875c-7.971,7.971-7.971,20.879,0,28.85c7.971,7.971,20.879,7.971,28.875,0.025
											c7.971,7.945,20.879,7.945,28.849-0.025c7.971-7.971,7.971-20.879,0.025-28.85
											C208.091,153.918,208.091,141.009,200.12,133.039z M185.213,162.591c3.677,3.645,3.677,9.612,0,13.289
											c-3.645,3.677-9.612,3.677-13.289,0c-0.226-0.258-0.452-0.516-0.677-0.774c-0.193,0.258-0.419,0.516-0.677,0.774
											c-3.645,3.677-9.612,3.677-13.289,0c-3.645-3.677-3.645-9.644,0-13.289c0.258-0.258,0.516-0.484,0.774-0.677
											c-0.258-0.226-0.516-0.452-0.774-0.677c-3.645-3.677-3.645-9.644,0-13.289c3.677-3.677,9.644-3.677,13.289,0
											c0.258,0.226,0.484,0.484,0.677,0.742c0.226-0.258,0.452-0.516,0.677-0.742c3.677-3.677,9.644-3.677,13.289,0
											c3.677,3.645,3.677,9.612,0,13.289c-0.226,0.226-0.484,0.451-0.742,0.677
											C184.729,162.107,184.987,162.333,185.213,162.591z"/>
									</g>
								</g>
							</g>
						</g>
					</g>
					<g>
						<g>
							
								<rect x="187.653" y="41.527" transform="matrix(0.7071 -0.7071 0.7071 0.7071 20.7036 151.0177)" class="st0" width="9.986" height="17.981"/>
							
								<rect x="200.366" y="28.814" transform="matrix(0.7071 -0.7071 0.7071 0.7071 33.4161 156.2834)" class="st0" width="9.986" height="17.981"/>
							<g>
								<path class="st0" d="M196.825,27.905c1.573,1.573,4.134,1.585,5.707,0.012l-7.061,7.061
									c-1.573-1.573-4.091-1.629-5.663-0.056c-1.381,1.381-1.547,3.514-0.503,5.079c0.133,0.228,0.322,0.435,0.515,0.628
									l-7.061,7.061c1.573-1.573,1.561-4.134-0.012-5.707c-1.573-1.573-4.155-1.297-5.728,0.275l19.925-19.925
									C195.37,23.908,195.253,26.332,196.825,27.905z"/>
							</g>
						</g>
						<g>
							<path class="st0" d="M121.342,97.547l-40.85,40.944l-3.527,3.527c-2.368,2.368-6.241,2.368-8.609,0l-4.303-4.303
								c-2.368-2.368-2.368-6.241,0-8.606l45.322-45.314C115.973,84.943,120.59,90.828,121.342,97.547z"/>
							<path class="st0" d="M175.071,48.573c0.961,0.961,0.961,2.532,0,3.493l-2.754,2.754c-0.961,0.961-2.532,0.961-3.493,0
								l-17.329-17.329c-0.961-0.961-0.961-2.532,0-3.493l2.754-2.754c0.961-0.961,2.532-0.961,3.493,0L175.071,48.573z"/>
							<g>
								<g>
									<g>
										<path class="st0" d="M72.851,133.039c-7.971-7.946-20.879-7.971-28.875,0c-7.971-7.971-20.879-7.946-28.849,0
											c-7.971,7.971-7.971,20.879-0.025,28.875c-7.946,7.971-7.946,20.879,0.025,28.85c7.971,7.971,20.879,7.971,28.849,0.025
											c7.996,7.945,20.904,7.945,28.875-0.025s7.971-20.879,0-28.85C80.822,153.918,80.822,141.009,72.851,133.039z
											 M57.965,162.591c3.645,3.645,3.645,9.612,0,13.289c-3.677,3.677-9.644,3.677-13.289,0
											c-0.258-0.258-0.484-0.516-0.677-0.774c-0.226,0.258-0.452,0.516-0.677,0.774c-3.677,3.677-9.644,3.677-13.289,0
											c-3.677-3.677-3.677-9.644,0-13.289c0.226-0.258,0.484-0.484,0.742-0.677c-0.258-0.226-0.516-0.452-0.742-0.677
											c-3.677-3.677-3.677-9.644,0-13.289c3.645-3.677,9.612-3.677,13.289,0c0.226,0.226,0.452,0.484,0.677,0.742
											c0.194-0.258,0.419-0.516,0.677-0.742c3.645-3.677,9.612-3.677,13.289,0c3.645,3.645,3.645,9.612,0,13.289
											c-0.258,0.226-0.516,0.451-0.774,0.677C57.449,162.107,57.707,162.333,57.965,162.591z"/>
									</g>
								</g>
							</g>
							<path class="st0" d="M203.694,15.584l-34.313,34.313c-3.565,3.565-9.345,3.565-12.91,0l0,0c-3.565-3.565-3.565-9.345,0-12.91
								l34.313-34.313c3.565-3.565,9.345-3.565,12.91,0l0,0C207.259,6.239,207.259,12.019,203.694,15.584z"/>
						</g>
					</g>
				</g>
			</g>
		</g>
		<g>
			<circle class="st1" cx="107.567" cy="94.471" r="84.166"/>
			<g class="st2">
				<defs>
					<ellipse id="SVGID_1_" class="st3" cx="107.734" cy="94.469" rx="84.168" ry="84.163"/>
				</defs>
				<clipPath id="SVGID_2_" class="st4">
					<use xlink:href="#SVGID_1_"  style="overflow:visible;"/>
				</clipPath>
				<g class="st5">
					<g>
						<path class="st6" d="M107.734,178.634c0,0,0-37.683,0-84.168c-46.485,0-84.168,0-84.168,0
							C23.566,140.951,61.249,178.634,107.734,178.634z"/>
						<path class="st6" d="M107.734,167.143c-23.462,0-42.481,0-42.481,0"/>
						<path class="st6" d="M107.734,136.948c-40.138,0-72.677,0-72.677,0"/>
					</g>
					<g>
						<path class="st6" d="M107.734,178.634c-46.485,0-84.168-37.683-84.168-84.168c0,0,37.683,0,84.168,0
							C107.734,140.951,107.734,178.634,107.734,178.634z"/>
						<path class="st6" d="M65.253,167.143c0,0,19.02,0,42.481,0"/>
						<path class="st6" d="M35.058,136.948c0,0,32.538,0,72.677,0"/>
						<path class="st6" d="M107.734,178.634c-40.138,0-72.677-37.683-72.677-84.168"/>
						<path class="st6" d="M107.734,178.634c-23.462,0-42.481-37.683-42.481-84.168"/>
					</g>
					<g>
						<path class="st6" d="M107.734,178.634c0,0,0-37.683,0-84.168c46.485,0,84.168,0,84.168,0
							C191.902,140.951,154.219,178.634,107.734,178.634z"/>
						<path class="st6" d="M107.734,167.143c23.462,0,42.481,0,42.481,0"/>
						<path class="st6" d="M107.734,136.948c40.138,0,72.677,0,72.677,0"/>
						<path class="st6" d="M107.734,178.634c23.462,0,42.481-37.683,42.481-84.168"/>
						<path class="st6" d="M107.734,178.634c40.138,0,72.677-37.683,72.677-84.168"/>
					</g>
					<g>
						<path class="st6" d="M107.734,94.466c0-46.485,0-84.159,0-84.159c-46.485,0-84.168,37.674-84.168,84.159
							C23.566,94.466,61.25,94.466,107.734,94.466z"/>
						<path class="st6" d="M107.734,51.987c-40.138,0-72.677,0-72.677,0"/>
						<path class="st6" d="M107.734,21.796c-23.462,0-42.481,0-42.481,0"/>
					</g>
					<g>
						<path class="st6" d="M23.566,94.466c0-46.485,37.683-84.159,84.168-84.159c0,0,0,37.674,0,84.159
							C61.25,94.466,23.566,94.466,23.566,94.466z"/>
						<path class="st6" d="M35.058,51.987c0,0,32.538,0,72.677,0"/>
						<path class="st6" d="M65.253,21.796c0,0,19.02,0,42.481,0"/>
						<path class="st6" d="M35.058,94.466c0-46.485,32.538-84.159,72.677-84.159"/>
						<path class="st6" d="M65.253,94.466c0-46.485,19.019-84.159,42.481-84.159"/>
					</g>
					<g>
						<path class="st6" d="M107.734,94.466c0-46.485,0-84.159,0-84.159c46.485,0,84.168,37.674,84.168,84.159
							C191.902,94.466,154.219,94.466,107.734,94.466z"/>
						<path class="st6" d="M107.734,51.987c40.138,0,72.677,0,72.677,0"/>
						<path class="st6" d="M107.734,21.796c23.462,0,42.481,0,42.481,0"/>
						<path class="st6" d="M150.216,94.466c0-46.485-19.019-84.159-42.481-84.159"/>
						<path class="st6" d="M180.411,94.466c0-46.485-32.538-84.159-72.677-84.159"/>
					</g>
				</g>
				<ellipse class="st7" cx="107.734" cy="94.469" rx="84.168" ry="84.163"/>
				
					<use xlink:href="#SVGID_1_"  style="display:inline;overflow:visible;fill:none;stroke:#ED1C24;stroke-width:4;stroke-miterlimit:10;"/>
			</g>
			<g>
				<g>
					<path class="st0" d="M126.338,116.771c-1.152-1.351-0.96-4.531-4.382-3.013c-0.328,0.146-2.072-2.876-3.145-4.437
						c-2.462-3.581-6.331-4.051-9.356-0.944c-2.018,2.073-3.685,4.397-6.499,5.671c-1.603,0.726-2.373,2.421-2.14,4.513
						c0.173,1.558,0.281,3.165-0.704,4.793c-0.782,1.294-1.733,2.125-2.964,2.268c-1.79,0.207-1.746-1.464-2.189-2.706
						c-2.687-7.525-5.065-15.154-10.405-21.486c-1.191-1.413-1.915-2.161-3.702-2.314c-3.098-0.265-5.68-1.867-8.464-3.196
						c-3.343-1.597-5.253-3.541-6.56-6.679c-0.101-0.243-1.238-0.056-1.893-0.068c-0.112-0.06-0.224-0.12-0.336-0.181
						c0.122,0.05,0.245,0.099,0.367,0.149c-0.361,4.704-0.316,9.034,6.36,8.766c0.611-0.025,1.291,1.669,1.936,2.563
						c-0.376,1.133-0.354,2.251,0.13,3.352c-0.759,1.524-1.78,2.83-3.403,3.465c-4.53,1.771-9.202,3.056-13.989,3.921
						c-0.348-0.327-0.697-0.653-1.045-0.98c0.136-6.613-2.879-12.864-2.276-19.538c0.014-0.159-0.483-0.365-0.742-0.549
						c-0.645-2.935-0.108-5.727,1.021-8.448c1.83-2.165,5.562-4.842,2.65-7.248c-3.253-2.688-2.24-4.772-1.436-7.492
						c0,0,0.36-0.022,0.36-0.021c1.465,2.557,4.917-0.307,6.342,2.318c1.5,2.762,3.415,2.286,5.487,0.747
						c6.097,2.713,6.939-0.267,6.756-5.622c-0.136-3.981,5.183-6.091,8.074-3.139c3.154,3.221,3.553,1.444,4.944-1.337
						c2.969-5.939,6.42-11.638,9.674-17.435c1.959-0.879,2.665,2.018,4.503,1.499c1.337,1.433,2.742,2.939,4.572,0.734
						c1.265-1.524,5.235-1.676,2.797-5.203c1.937-0.861,4.146-1.387,5.733-2.679c1.572-1.279,3.459-0.812,3.864-0.048
						c1.255,2.373,3.574,2.022,4.725,1.358c5.128-2.96,12.31-1.024,16.188-7.113c1.079-1.694,3.949-1.577,5.173,0.273
						c1.161,1.755,3.327,2.194,4.218,4.041c-0.943,0.549-0.538,1.317-0.333,2.052c-1.189,3.236-1.361,6.712-2.321,10.037
						c-0.677,2.344-1.612,6.908,4.4,6.101c2.479-0.332,5.771,7.599,4.891,10.782c-0.387,1.399-0.976,2.742-1.473,4.108
						c-3.652,1.412-0.071,5.484-2.677,7.283c-0.92-0.347-1.892-0.596-2.749-1.06c-2.52-1.365-2.753,1.049-3.438,2.22
						c-1.048,1.789,1.416,2.042,1.743,2.005c2.625-0.3,2.525,1.388,2.404,3.03c-0.091,1.237,0.373,2.144,1.031,3.137
						c4.92,7.425,2.57,14.035-6.166,17.507c-0.756-0.252-1.467-0.41-1.536,0.749c-6.43,2.532-6.798,3.977-1.992,8.703
						c1.895,1.864,3.052,4.184,1.781,6.381c-1.831,3.166-5.194,2.409-7.918,1.332c-1.464-0.579-2.563-2.029-4.41-1.348
						C127.639,117.528,127.936,116.26,126.338,116.771z M106.741,77.061c-1.088-0.472,0.406-3.267-2.164-2.406
						c-1.321-0.297-2.991-1.468-3.109,1.243c-2.279,0.896-0.666,1.799-0.005,2.7c1.473-2.124,4.18,1.335,5.558-1.229
						c0.635-0.106,1.447,1.217,1.892-0.162c0.248-0.767,0.202-1.758-0.767-1.96C106.705,74.948,106.699,76.052,106.741,77.061z"/>
					<path class="st0" d="M53.171,66.953c-0.803,2.72-1.817,4.804,1.436,7.492c2.912,2.406-0.82,5.083-2.65,7.248
						c-2.404-0.796-4.224-2.16-5.727-4.339c-0.748-1.085-0.994-3.553-3.881-2.732c-1.685,0.48-1.125-1.349-0.945-2.664
						c0.554-4.051,3.272-8.081-0.491-12.226c-1.827-2.012,1.746-2.312,2.492-3.75c1.085-2.091,3.283,0.441,5.16,0.283
						c1.123-0.094-0.089,1.84-0.253,2.877c-0.153,0.967-0.033,1.977-0.033,3.936c0.506-2.817,0.815-4.764,2.728-6.672
						c1.475,4.084-0.924,6.847-2.177,10.752C50.811,65.279,51.887,66.71,53.171,66.953z"/>
					<path class="st0" d="M65.36,69.997c-2.072,1.539-3.987,2.015-5.487-0.747c-1.425-2.624-4.877,0.24-6.342-2.318
						c0.216-0.24,0.397-0.533,0.656-0.71C64.365,59.233,63.288,61.556,65.36,69.997z"/>
					<path class="st0" d="M50.936,90.141c0.259,0.184,0.756,0.389,0.742,0.549c-0.603,6.675,2.412,12.925,2.276,19.538
						c-1.359-0.057-1.772-0.832-2.212-2.102C49.679,102.182,50.561,96.161,50.936,90.141z"/>
					<path class="st0" d="M64.037,53.326c3.827-2.678,7.037-2.429,10.201-2.382c0.84,0.012,1.744,0.124,1.765,1.222
						c0.021,1.131-0.944,1.057-1.734,1.258C71.136,54.221,68.176,52.909,64.037,53.326z"/>
					<path class="st0" d="M63.158,45.598c2.212-0.52,2.956-2.31,4.771-1.706c0.587,0.195,0.77,0.948,0.3,1.618
						C66.987,47.281,65.565,46.471,63.158,45.598z"/>
					<path class="st0" d="M39.054,57.722c-0.597,0.346-1.12,0.01-0.976-0.403c0.243-0.696,0.831-1.272,1.273-1.899
						c0.361,0.3,0.914,0.533,1.046,0.913C40.844,57.611,39.277,57.079,39.054,57.722z"/>
					<path class="st0" d="M151.968,124.168c0.571,4.028,0.301,7.541-1.393,11.007c-1.215,2.486-3.123,1.772-4.994,1.992
						c-2.235,0.263-2.83-1.293-3.418-2.81c-0.354-0.913-0.549-2.176,0.414-2.75C145.972,129.581,147.741,125.536,151.968,124.168z"
						/>
					<path class="st0" d="M127.973,132.158c3.8,1.565,6.875,3.947,8.711,7.721c-1.364,0.314-0.538,1.235-0.531,1.931
						c-5.094-0.732-6.892-4.657-8.495-8.768C127.907,132.798,128.011,132.503,127.973,132.158z"/>
					<path class="st0" d="M106.679,39.496c2.438,3.527-1.532,3.679-2.797,5.203c-1.831,2.205-3.235,0.699-4.572-0.734
						c0.407-2.545,0.411-2.556,2.413-1.824C104.369,43.108,105.064,40.445,106.679,39.496z"/>
					<path class="st0" d="M149.067,75.694c2.607-1.798-0.975-5.871,2.677-7.283c-0.462,3.817,0.797,7.287,1.874,11.124
						C152.101,78.255,150.584,76.974,149.067,75.694z"/>
					<path class="st0" d="M159.995,76.818c0.249-2.586,1.714-4.42,1.224-6.672C162.547,72.634,163.687,75.083,159.995,76.818z"/>
					<path class="st0" d="M154.142,46.155c-1.088-1.049-2.344-2.259-4.254-4.101C152.477,43.246,153.683,44.466,154.142,46.155z"/>
					<path class="st0" d="M126.338,116.771c1.598-0.512,1.301,0.756,1.48,1.578c-0.541,2.741-0.153,5.338,1.201,7.785l-0.077,0.08
						c-1.866-0.9-1.718-2.422-1.619-4.195C127.42,120.27,127.667,118.325,126.338,116.771z"/>
					<path class="st0" d="M127.973,132.158c0.038,0.345-0.066,0.64-0.315,0.884c-1.993-0.202-2.697-2.088-4.518-3.296
						C125.805,129.197,126.7,131.051,127.973,132.158z"/>
					<path class="st0" d="M157.783,136.067c-0.934-2.261-3.068-0.512-3.386-2.413c-0.056-0.333,0.42-1.03,0.756-1.109
						C156.833,132.148,157.562,133.051,157.783,136.067z"/>
					<path class="st0" d="M133.581,131.441c-0.171,0.539,1.183,0.785,0.331,1.318c-0.24,0.15-0.958-0.465-1.459-0.73
						c-0.721-1.43-0.015-3.654-2.338-4.189c-0.126-0.207-0.187-0.432-0.184-0.674l0.01-0.01c1.118-0.08,2.05,0.277,2.749,1.179
						C132.989,129.372,133.285,130.407,133.581,131.441z"/>
					<path class="st0" d="M158.566,65.141c-0.306-0.89-0.604-1.42-0.623-1.961c-0.009-0.254,0.504-0.728,0.809-0.753
						c0.92-0.076,0.91,0.66,0.761,1.255C159.414,64.079,159.056,64.411,158.566,65.141z"/>
					<path class="st0" d="M72.39,103.823c-0.484-1.1-0.505-2.219-0.13-3.352C73.849,101.53,74.678,102.617,72.39,103.823z"/>
					<path class="st0" d="M130.115,127.84c2.323,0.535,1.617,2.759,2.338,4.189C129.966,131.588,130.135,129.661,130.115,127.84z"/>
					<path class="st0" d="M146.247,37.382c-0.205-0.735-0.61-1.503,0.333-2.052c0.265,1.056,1.662,1.754,0.982,3.109
						C147.124,38.086,146.685,37.734,146.247,37.382z"/>
					<path class="st0" d="M161.862,116.557c-0.611,1.678-0.978,2.687-1.398,3.841C159.972,118.989,159.736,117.801,161.862,116.557z
						"/>
					<path class="st0" d="M133.581,131.441c-0.296-1.035-0.593-2.069-0.891-3.105C134.05,129.065,133.547,130.33,133.581,131.441z"
						/>
					<path class="st0" d="M136.153,141.811c-0.007-0.697-0.833-1.617,0.531-1.931c0.067,0.755,0.134,1.503,0.202,2.251l0.02-0.024
						C136.652,142.016,136.401,141.918,136.153,141.811z"/>
					<path class="st0" d="M140.283,106.893c0.107,0.185,0.248,0.341,0.28,0.517c0.019,0.103-0.138,0.341-0.211,0.34
						c-0.235-0.006-0.467-0.095-0.7-0.152C139.848,107.377,140.045,107.158,140.283,106.893z"/>
					<path class="st0" d="M140.356,103.282c0.069-1.159,0.781-1.001,1.536-0.749C141.379,102.784,140.867,103.033,140.356,103.282z"
						/>
					<path class="st0" d="M129.019,126.134c0.308,0.341,0.615,0.681,0.923,1.022l-0.01,0.01c-0.33-0.317-0.661-0.634-0.99-0.952
						C128.941,126.215,129.019,126.134,129.019,126.134z"/>
					<path class="st0" d="M104.577,74.655c-0.925,0.699-2.509-0.25-3.112,1.245C101.586,73.187,103.257,74.359,104.577,74.655z"/>
					<path class="st0" d="M63.965,89.142c-0.122-0.05-0.245-0.099-0.367-0.149c0.112,0.06,0.224,0.121,0.336,0.181L63.965,89.142z"
						/>
				</g>
			</g>
			<g>
				<circle class="st8" cx="110.159" cy="85.787" r="84.166"/>
				<path class="st9" d="M66.368,101.848v10.067H41.028V72.011h11.139v29.837H66.368z"/>
				<path class="st9" d="M82.385,81.958v6.352h12.823v9.622H82.385v13.983H71.294V72.011H96.69v9.947H82.385z"/>
				<path class="st9" d="M142.357,90.589c0,13.058-8.525,22.334-21.021,22.334c-12.227,0-21.259-8.787-21.259-20.928
					s8.868-20.994,21.161-20.994c10.459,0,19.016,6.546,20.703,15.818H130.42c-1.443-3.361-5.015-5.522-9.084-5.522
					c-5.978,0-10.006,4.322-10.006,10.698c0,6.311,3.963,10.633,10.006,10.633c4.195,0,7.793-2.03,9.048-5.107h-9.911V90.59
					L142.357,90.589z"/>
				<path class="st9" d="M170.288,105.434h-14.145l-2.21,6.48h-11.781l15.675-39.904h10.746l16.02,39.904h-12.106L170.288,105.434z
					 M163.194,84.466l-4.372,12.365h8.784L163.194,84.466z"/>
			</g>
		</g>
	</g>
</g>
</svg>