<!-- Generator: Adobe Illustrator 21.0.0, SVG Export Plug-In  -->
<svg version="1.1"
	 xmlns="http://www.w3.org/2000/svg" xmlns:xlink="http://www.w3.org/1999/xlink" xmlns:a="http://ns.adobe.com/AdobeSVGViewerExtensions/3.0/"
	 x="0px" y="0px" width="539.655px" height="208.5px" viewBox="0 0 539.655 208.5"
	 style="enable-background:new 0 0 539.655 208.5;" xml:space="preserve">
<style type="text/css">
	.st0{fill:#ED1C24;}
	.st1{opacity:0.5;fill:#FFFFFF;}
	.st2{fill:none;}
	.st3{font-family:'Mont-HeavyDEMO';}
	.st4{font-size:66px;}
</style>
<defs>
</defs>
<rect class="st0" width="539.655" height="19"/>
<rect y="19" class="st1" width="539.655" height="189.5"/>
<g>
	<rect y="88.5" class="st2" width="539.655" height="50"/>
	<path d="M148.838,129.506h-16.375l-2.559,7.503h-13.638l18.146-46.196h12.44l18.544,46.196h-14.015L148.838,129.506z
		 M140.625,105.232l-5.062,14.315h10.169L140.625,105.232z"/>
	<path d="M190.235,100.259c10.973,0,18.724,7.883,18.724,18.958s-7.751,18.959-18.724,18.959c-4.159,0-7.854-1.395-10.75-3.813
		l-1.158,2.646h-9.083V88.503h12.135v14.213C183.93,101.141,186.939,100.26,190.235,100.259L190.235,100.259z M196.571,119.217
		c0-4.654-3.379-8.128-7.978-8.128c-4.598,0-7.977,3.474-7.977,8.128c0,4.616,3.379,8.09,7.977,8.09
		C193.163,127.307,196.571,123.833,196.571,119.217z"/>
	<path d="M212.511,119.19c0-11.047,8.362-18.986,19.98-18.986c11.582,0,19.98,7.939,19.98,18.986
		c0,11.009-8.399,18.986-19.98,18.986C220.873,138.177,212.511,130.2,212.511,119.19z M232.491,127.15
		c4.476,0,7.686-3.248,7.686-7.959c0-4.684-3.21-7.959-7.686-7.959c-4.476,0-7.686,3.248-7.686,7.959S228.016,127.15,232.491,127.15
		L232.491,127.15z"/>
	<path d="M257.684,121.71v-20.338h12.275v19.804c0,3.762,2.022,5.974,5.302,5.974s5.264-2.25,5.264-5.974v-19.804h12.274v20.338
		c0,9.972-7.011,16.467-17.538,16.467S257.684,131.682,257.684,121.71z"/>
	<path d="M324.089,126.258v10.751h-8.445c-7.882,0-12.671-4.817-12.671-12.737v-13.447h-6.523v-2.869l15.967-17.003h2.521v10.419
		h8.953v9.453h-8.644v11.341c0,2.552,1.54,4.092,4.13,4.092H324.089z"/>
	<path d="M344.256,119.138V90.813h13.007V118.9c0,4.516,2.909,7.433,7.159,7.433s7.159-2.917,7.159-7.433V90.813h13.007v28.325
		c0,11.366-8.389,19.039-20.166,19.039S344.256,130.504,344.256,119.138z"/>
	<path d="M405.742,138.176c-9.713,0-15.616-5.13-15.729-12.851h11.815c0,2.606,1.814,3.806,4.142,3.806
		c1.796,0,3.498-0.916,3.498-2.758c0-2.056-2.698-2.642-6.122-3.208c-5.525-0.896-12.851-2.563-12.851-11.207
		c0-7.143,6.087-11.755,15.218-11.755c9.075,0,14.956,4.828,15.097,12.049h-11.495c0-2.275-1.53-3.333-3.754-3.333
		c-1.968,0-3.29,0.974-3.29,2.626c0,2.028,2.726,2.5,6.111,3.104c5.629,1,13.114,2.17,13.114,11.208
		c0,7.447-6.285,12.321-15.757,12.321L405.742,138.176z"/>
</g>
</svg>