<!-- Generator: Adobe Illustrator 21.0.0, SVG Export Plug-In  -->
<svg version="1.1"
	 xmlns="http://www.w3.org/2000/svg" xmlns:xlink="http://www.w3.org/1999/xlink" xmlns:a="http://ns.adobe.com/AdobeSVGViewerExtensions/3.0/"
	 x="0px" y="0px" width="1442px" height="551.005px" viewBox="0 0 1442 551.005" style="enable-background:new 0 0 1442 551.005;"
	 xml:space="preserve">
<style type="text/css">
	.st0{fill:none;stroke:#2E3192;stroke-width:25;stroke-linecap:round;stroke-miterlimit:10;stroke-dasharray:500,50;}
	.st1{fill:none;stroke:#2E3192;stroke-width:18;stroke-miterlimit:10;}
	.st2{fill:none;stroke:#2E3192;stroke-width:18;stroke-linecap:round;stroke-miterlimit:10;}
	.st3{fill:#FFFFFF;stroke:#ED1C24;stroke-width:10;stroke-linecap:round;stroke-miterlimit:10;}
	.st4{fill:none;stroke:#2E3192;stroke-width:30;stroke-miterlimit:10;stroke-dasharray:496.0153,49.6015;}
	.st5{fill:none;}
	.st6{font-family:'Mont-HeavyDEMO';}
	.st7{font-size:32px;}
	.st8{font-size:51px;}
</style>
<defs>
</defs>
<polyline class="st0" points="977.55,275.834 1057.334,146.002 1186,146.002 "/>
<polyline class="st0" points="456.45,275.834 376.666,146.002 248,146.002 "/>
<g>
	
		<ellipse transform="matrix(0.1453 -0.9894 0.9894 0.1453 337.2239 943.0693)" class="st1" cx="714.479" cy="276.343" rx="167.377" ry="167.377"/>
	<path class="st2" d="M555.509,320.288c0,0,162.834,125.986,317.322-9.872"/>
	<path class="st2" d="M873.423,229.547c0,0-162.834-125.986-317.322,9.872"/>
</g>
<circle class="st3" cx="136" cy="140.002" r="131"/>
<circle class="st3" cx="1306" cy="140.002" r="131"/>
<g>
	
		<ellipse transform="matrix(0.7071 -0.7071 0.7071 0.7071 15.1948 587.6884)" class="st4" cx="717" cy="275.502" rx="260.502" ry="260.502"/>
</g>
<g>
	<rect x="69.471" y="102.072" class="st5" width="133.493" height="75.86"/>
	<path d="M96.539,113.765c2.11,1,3.435,3.004,3.435,5.449c0,3.629-3.132,6.378-7.267,6.378H82.384v-22.398h10.117
		c3.972,0,6.87,2.423,6.87,5.732C99.371,110.928,98.25,112.728,96.539,113.765L96.539,113.765z M91.427,107.998h-3.118v3.9h3.119
		c1.291,0,2.086-0.787,2.086-1.95S92.718,107.998,91.427,107.998z M93.871,118.48c0-1.189-0.874-2.027-2.209-2.027h-3.352v4.073
		h3.352C92.997,120.526,93.871,119.688,93.871,118.48z"/>
	<path d="M102.698,118.174v-9.861h5.952v9.602c0,1.824,0.98,2.896,2.571,2.896c1.59,0,2.552-1.091,2.552-2.896v-9.602h5.952v9.861
		c0,4.834-3.399,7.984-8.503,7.984S102.698,123.009,102.698,118.174z"/>
	<path d="M123.242,102.074h5.952v23.518h-5.952V102.074z"/>
	<path d="M132.938,102.074h5.952v23.518h-5.952V102.074z"/>
	<path d="M142.634,108.313h5.952v17.279h-5.952V108.313z M142.679,101.1h5.86v5.051h-5.86V101.1z"/>
	<path d="M151.323,116.953c0-5.356,4.054-9.206,9.688-9.206c5.615,0,9.688,3.849,9.688,9.206c0,5.337-4.072,9.206-9.688,9.206
		C155.377,126.158,151.323,122.29,151.323,116.953z M161.011,120.812c2.17,0,3.726-1.575,3.726-3.859
		c0-2.271-1.556-3.859-3.726-3.859c-2.17,0-3.727,1.575-3.727,3.859C157.284,119.237,158.84,120.812,161.011,120.812
		L161.011,120.812z"/>
	<path d="M190.529,115.056v10.536h-5.952v-9.713c0-2.011-0.755-3.009-2.253-3.009c-1.856,0-2.924,1.296-2.924,3.495v9.227h-5.952
		v-17.279h4.175l0.818,1.782c1.287-1.434,3.205-2.292,5.439-2.292C187.894,107.802,190.529,110.654,190.529,115.056z"/>
	<path d="M91.084,147.149H85v16.842h-6.198v-16.842h-6.084v-5.556h18.367V147.149z"/>
	<path d="M104.126,146.631v5.446h-2.311c-2.107,0-2.99,0.924-2.99,3.128v8.787h-5.952v-17.279h3.987l0.929,1.917
		c1.218-1.409,2.703-2,4.759-2H104.126z"/>
	<path d="M124.482,146.695v17.279h-4.601l-0.51-1.222c-1.415,1.146-3.207,1.807-5.213,1.807c-5.284,0-9.061-3.854-9.061-9.224
		c0-5.352,3.777-9.16,9.061-9.16c2.035,0,3.853,0.68,5.279,1.857l0.609-1.336L124.482,146.695z M118.822,155.348
		c0-2.243-1.639-3.927-3.868-3.927c-2.243,0-3.868,1.685-3.868,3.927c0,2.256,1.639,3.941,3.868,3.941
		C117.183,159.289,118.822,157.604,118.822,155.348z"/>
	<path d="M146.483,140.474v23.518h-4.404l-0.562-1.283c-1.406,1.184-3.199,1.868-5.212,1.868c-5.302,0-9.079-3.854-9.079-9.224
		c0-5.37,3.777-9.206,9.079-9.206c1.596,0,3.055,0.431,4.293,1.2v-6.873H146.483z M140.97,155.353c0-2.256-1.639-3.954-3.868-3.954
		c-2.229,0-3.868,1.698-3.868,3.954s1.639,3.954,3.868,3.954C139.332,159.307,140.97,157.609,140.97,155.353z"/>
	<path d="M150.218,146.712h5.952v17.279h-5.952V146.712z M150.264,139.5h5.86v5.051h-5.86V139.5z"/>
	<path d="M176.994,153.456v10.536h-5.952v-9.713c0-2.011-0.755-3.009-2.253-3.009c-1.856,0-2.924,1.296-2.924,3.495v9.227h-5.952
		v-17.279h4.175l0.818,1.782c1.287-1.434,3.205-2.292,5.439-2.292C174.358,146.202,176.994,149.054,176.994,153.456z"/>
	<path d="M198.423,146.713v15.359c0,5.43-3.555,8.793-9.262,8.793c-4.903,0-8.335-2.473-9.131-6.567h5.743
		c0.412,1.155,1.887,1.777,3.333,1.777c1.995,0,3.597-1.268,3.597-3.322v-0.516c-1.299,0.824-2.841,1.297-4.509,1.297
		c-4.954,0-8.634-3.686-8.634-8.685c0-4.926,3.681-8.69,8.634-8.69c2.092,0,3.985,0.75,5.45,2.002l0.755-1.45L198.423,146.713z
		 M189.183,158.635c2.137,0,3.675-1.583,3.675-3.785c0-2.182-1.533-3.766-3.675-3.766c-2.137,0-3.688,1.584-3.688,3.766
		C185.495,157.051,187.027,158.635,189.183,158.635L189.183,158.635z"/>
</g>
<g>
	<rect x="1239.253" y="88.572" class="st5" width="133.493" height="102.36"/>
	<path d="M1244.901,104.859h6.365c0,1.6,1.234,2.379,2.642,2.379c1.292,0,2.526-0.688,2.526-1.912c0-1.405-1.743-1.812-3.875-2.329
		c-3.237-0.805-7.37-1.796-7.37-6.896c0-4.411,3.24-6.938,8.521-6.938c5.37,0,8.449,2.757,8.449,7.314h-6.188
		c0-1.417-1.057-2.081-2.335-2.081c-1.1,0-2.155,0.476-2.155,1.521c0,1.272,1.688,1.693,3.797,2.223
		c3.297,0.851,7.607,1.952,7.607,7.067c0,4.892-3.759,7.431-8.96,7.431C1248.444,112.64,1244.901,109.742,1244.901,104.859z"/>
	<path d="M1265.602,104.674v-9.861h5.951v9.602c0,1.824,0.98,2.896,2.57,2.896s2.552-1.091,2.552-2.896v-9.602h5.952v9.861
		c0,4.834-3.399,7.984-8.504,7.984C1269.02,112.658,1265.602,109.509,1265.602,104.674z"/>
	<path d="M1303.225,101.556v10.536h-5.951v-9.713c0-2.011-0.756-3.009-2.253-3.009c-1.856,0-2.924,1.296-2.924,3.495v9.227h-5.952
		V94.813h4.176l0.817,1.782c1.287-1.434,3.205-2.292,5.439-2.292C1300.59,94.302,1303.225,97.154,1303.225,101.556z"/>
	<path d="M1325.034,88.574v23.518h-4.404l-0.562-1.283c-1.405,1.184-3.199,1.868-5.212,1.868c-5.302,0-9.078-3.854-9.078-9.224
		c0-5.37,3.776-9.206,9.078-9.206c1.596,0,3.056,0.431,4.294,1.2v-6.873H1325.034z M1319.521,103.453
		c0-2.256-1.639-3.954-3.867-3.954c-2.229,0-3.868,1.698-3.868,3.954s1.639,3.954,3.868,3.954
		C1317.882,107.407,1319.521,105.709,1319.521,103.453z"/>
	<path d="M1347.16,94.795v17.279h-4.601l-0.51-1.222c-1.415,1.146-3.207,1.807-5.214,1.807c-5.283,0-9.061-3.854-9.061-9.224
		c0-5.352,3.777-9.16,9.061-9.16c2.035,0,3.853,0.68,5.279,1.857l0.609-1.336L1347.16,94.795z M1341.5,103.448
		c0-2.243-1.639-3.927-3.868-3.927c-2.243,0-3.868,1.685-3.868,3.927c0,2.256,1.639,3.941,3.868,3.941
		S1341.5,105.704,1341.5,103.448z"/>
	<path d="M1368.978,94.813l-7.242,16.51c-2.329,5.289-4.471,7.199-8.932,7.199h-2.038v-5.114h1.637c2.277,0,2.964-0.593,3.771-2.743
		l-7.141-15.852h6.467l3.667,9.519l3.417-9.519H1368.978z"/>
	<path d="M1301.829,145.279v5.213h-4.095c-3.82,0-6.144-2.336-6.144-6.176v-6.52h-3.162v-1.391l7.741-8.244h1.223v5.052h4.341v4.583
		h-4.19v5.499c0,1.237,0.747,1.984,2.002,1.984H1301.829z"/>
	<path d="M1303.442,141.853c0-5.356,4.054-9.206,9.688-9.206c5.615,0,9.688,3.849,9.688,9.206c0,5.338-4.072,9.206-9.688,9.206
		C1307.496,151.058,1303.442,147.19,1303.442,141.853z M1313.13,145.712c2.17,0,3.727-1.575,3.727-3.859
		c0-2.271-1.557-3.859-3.727-3.859s-3.727,1.575-3.727,3.859S1310.96,145.711,1313.13,145.712L1313.13,145.712z"/>
	<path d="M1262.566,172.077v3.565h7.198v5.401h-7.198v7.849h-6.225v-22.398h14.254v5.583H1262.566z"/>
	<path d="M1284.484,171.531v5.446h-2.311c-2.107,0-2.989,0.924-2.989,3.128v8.787h-5.952v-17.279h3.987l0.929,1.917
		c1.219-1.409,2.703-2,4.76-2H1284.484z"/>
	<path d="M1286.737,171.612h5.951v17.279h-5.951V171.612z M1286.782,164.399h5.86v5.051h-5.86V164.399z"/>
	<path d="M1314.682,165.374v23.518h-4.403l-0.562-1.283c-1.406,1.184-3.199,1.868-5.212,1.868c-5.302,0-9.079-3.854-9.079-9.224
		c0-5.37,3.777-9.206,9.079-9.206c1.596,0,3.055,0.431,4.293,1.2v-6.873H1314.682z M1309.169,180.252
		c0-2.256-1.639-3.954-3.868-3.954s-3.868,1.698-3.868,3.954s1.639,3.954,3.868,3.954S1309.169,182.509,1309.169,180.252z"/>
	<path d="M1336.809,171.595v17.279h-4.602l-0.51-1.222c-1.414,1.146-3.206,1.807-5.213,1.807c-5.284,0-9.061-3.854-9.061-9.224
		c0-5.352,3.776-9.16,9.061-9.16c2.034,0,3.853,0.68,5.279,1.857l0.608-1.336L1336.809,171.595z M1331.147,180.248
		c0-2.243-1.639-3.927-3.868-3.927c-2.242,0-3.867,1.685-3.867,3.927c0,2.256,1.639,3.941,3.867,3.941
		C1329.509,184.189,1331.147,182.504,1331.147,180.248z"/>
	<path d="M1358.625,171.613l-7.242,16.51c-2.329,5.289-4.47,7.199-8.932,7.199h-2.037v-5.114h1.637c2.276,0,2.963-0.593,3.77-2.743
		l-7.141-15.852h6.468l3.667,9.519l3.417-9.519H1358.625z"/>
</g>
<g>
	<rect x="599" y="255.502" class="st5" width="222" height="40"/>
	<path d="M688.307,283.981v9.006h-22.668v-35.696h9.964v26.69H688.307z"/>
	<path d="M702.64,266.189v5.682h11.47v8.607h-11.47v12.509h-9.921v-35.696h22.718v8.898H702.64z"/>
	<path d="M756.293,273.909c0,11.681-7.626,19.979-18.804,19.979c-10.938,0-19.017-7.861-19.017-18.721s7.932-18.78,18.929-18.78
		c9.356,0,17.01,5.855,18.521,14.151h-10.306c-1.292-3.007-4.486-4.94-8.127-4.94c-5.347,0-8.95,3.866-8.95,9.57
		c0,5.646,3.545,9.512,8.95,9.512c3.753,0,6.972-1.816,8.094-4.569h-8.865v-6.2L756.293,273.909z"/>
</g>
</svg>