<!-- Generator: Adobe Illustrator 21.0.0, SVG Export Plug-In  -->
<svg version="1.1"
	 xmlns="http://www.w3.org/2000/svg" xmlns:xlink="http://www.w3.org/1999/xlink" xmlns:a="http://ns.adobe.com/AdobeSVGViewerExtensions/3.0/"
	 x="0px" y="0px" width="877px" height="367px" viewBox="0 0 877 367" style="enable-background:new 0 0 877 367;"
	 xml:space="preserve">
<style type="text/css">
	.st0{fill:none;}
	.st1{fill:#ED1C24;}
	.st2{opacity:0.6;}
	.st3{fill:none;stroke:#ED1C24;stroke-width:20;stroke-miterlimit:10;}
	.st4{fill:none;stroke:#ED1C24;stroke-width:20;stroke-miterlimit:10;stroke-dasharray:270.4546,43.2727;}
	.st5{opacity:0.8;}
	.st6{fill:#FFFFFF;}
	.st7{opacity:0.8;fill:none;stroke:#FFFFFF;stroke-width:5;stroke-miterlimit:10;}
	.st8{font-family:'Mont-HeavyDEMO';}
	.st9{font-size:53.9996px;}
	.st10{letter-spacing:2;}
	.st11{letter-spacing:1;}
	.st12{font-size:42px;}
</style>
<defs>
</defs>
<g>
	<rect x="274.171" y="66.333" class="st0" width="296.829" height="102.667"/>
	<path class="st1" d="M300.812,99.883h-13.398l-2.094,6.139h-11.16l14.849-37.801h10.18l15.174,37.801h-11.468L300.812,99.883z
		 M294.091,80.021l-4.142,11.713h8.321L294.091,80.021z"/>
	<path class="st1" d="M344.589,86.063c3.562,1.689,5.797,5.071,5.797,9.196c0,6.125-5.286,10.764-12.263,10.764h-17.423V68.222
		h17.074c6.703,0,11.594,4.09,11.594,9.674C349.368,81.274,347.477,84.313,344.589,86.063L344.589,86.063z M340.086,94.02
		c0-2.007-1.474-3.421-3.729-3.421H330.7v6.875h5.657C338.612,97.473,340.086,96.059,340.086,94.02z M339.484,79.622
		c0-1.962-1.344-3.291-3.521-3.291h-5.262v6.582h5.263C338.141,82.912,339.485,81.583,339.484,79.622L339.484,79.622z"/>
	<path class="st1" d="M377.399,106.979c-12.152,0-20.823-8.303-20.823-19.856c0-11.553,8.671-19.856,20.823-19.856
		c12.121,0,20.761,8.272,20.761,19.856S389.52,106.979,377.399,106.979L377.399,106.979z M377.399,97.289
		c5.753,0,9.918-4.25,9.918-10.165c0-5.916-4.165-10.166-9.918-10.166c-5.754,0-9.98,4.281-9.98,10.165
		C367.418,93.008,371.645,97.289,377.399,97.289L377.399,97.289z"/>
	<path class="st1" d="M405.778,91.399V68.222h10.643v22.983c0,3.695,2.381,6.082,5.858,6.082s5.858-2.387,5.858-6.082V68.222h10.643
		v23.178c0,9.3-6.865,15.579-16.501,15.579S405.778,100.7,405.778,91.399z"/>
	<path class="st1" d="M476.754,77.599h-10.269v28.424h-10.459V77.599h-10.27v-9.377h30.997V77.599z"/>
	<path class="st1" d="M496.659,91.399V68.222h10.644v22.983c0,3.695,2.381,6.082,5.858,6.082c3.477,0,5.857-2.387,5.857-6.082
		V68.222h10.644v23.178c0,9.3-6.865,15.579-16.501,15.579C503.523,106.979,496.659,100.7,496.659,91.399z"/>
	<path class="st1" d="M537.449,93.816h10.742c0,2.7,2.084,4.015,4.458,4.015c2.182,0,4.265-1.161,4.265-3.226
		c0-2.371-2.942-3.059-6.541-3.931c-5.464-1.358-12.438-3.032-12.438-11.638c0-7.444,5.47-11.708,14.383-11.708
		c9.063,0,14.26,4.652,14.26,12.343h-10.444c0-2.391-1.781-3.512-3.94-3.512c-1.855,0-3.637,0.803-3.637,2.567
		c0,2.147,2.849,2.857,6.408,3.752c5.563,1.436,12.838,3.294,12.838,11.926c0,8.256-6.344,12.541-15.121,12.541
		C543.429,106.947,537.449,102.056,537.449,93.816z"/>
</g>
<g class="st2">
	<g>
		<polyline class="st3" points="617,10 867,10 867,357 617,357 		"/>
		<line class="st4" x1="573.727" y1="357" x2="281.636" y2="357"/>
		<polyline class="st3" points="260,357 10,357 10,10 260,10 		"/>
		<line class="st4" x1="303.273" y1="10" x2="595.364" y2="10"/>
	</g>
</g>
<g class="st5">
	<rect x="340.097" y="266.505" class="st0" width="524.354" height="100.495"/>
	<path class="st6" d="M361.612,289.956v7.418h-18.673v-29.405h8.208v21.987H361.612z"/>
	<path class="st6" d="M375.513,275.299v4.68h9.449v7.091h-9.449v10.304h-8.172v-29.405h18.714v7.33H375.513z"/>
	<path class="st6" d="M421.805,281.659c0,9.622-6.282,16.458-15.49,16.458c-9.01,0-15.665-6.476-15.665-15.422
		s6.534-15.47,15.593-15.47c7.708,0,14.013,4.824,15.256,11.657h-8.489c-1.064-2.477-3.695-4.069-6.694-4.069
		c-4.404,0-7.373,3.185-7.373,7.883c0,4.65,2.92,7.835,7.373,7.835c3.092,0,5.743-1.497,6.667-3.764h-7.303v-5.107L421.805,281.659z
		"/>
	<path class="st6" d="M456.076,292.598h-10.423l-1.629,4.776h-8.681l11.551-29.405h7.919l11.804,29.405h-8.921L456.076,292.598z
		 M450.849,277.147l-3.223,9.112h6.474L450.849,277.147z"/>
	<path class="st6" d="M468.895,287.879h8.357c0,2.101,1.62,3.123,3.468,3.123c1.696,0,3.317-0.903,3.317-2.509
		c0-1.844-2.289-2.379-5.088-3.058c-4.251-1.057-9.677-2.359-9.677-9.053c0-5.791,4.255-9.108,11.188-9.108
		c7.05,0,11.093,3.619,11.093,9.602h-8.124c0-1.859-1.387-2.731-3.065-2.731c-1.443,0-2.83,0.625-2.83,1.998
		c0,1.67,2.217,2.222,4.985,2.918c4.328,1.117,9.987,2.563,9.987,9.277c0,6.422-4.935,9.756-11.764,9.756
		C473.546,298.093,468.895,294.289,468.895,287.879z"/>
	<path class="st6" d="M498.843,267.969h8.208v29.405h-8.208V267.969z"/>
	<path class="st6" d="M532.727,292.598h-10.423l-1.629,4.776h-8.682l11.551-29.405h7.919l11.804,29.405h-8.92L532.727,292.598z
		 M527.498,277.147l-3.222,9.112h6.473L527.498,277.147z"/>
</g>
<line class="st7" x1="36" y1="284.5" x2="284" y2="284.5"/>
<line class="st7" x1="591" y1="284.5" x2="839" y2="284.5"/>
</svg>