<!-- Generator: Adobe Illustrator 21.0.0, SVG Export Plug-In  -->
<svg version="1.1"
	 xmlns="http://www.w3.org/2000/svg" xmlns:xlink="http://www.w3.org/1999/xlink" xmlns:a="http://ns.adobe.com/AdobeSVGViewerExtensions/3.0/"
	 x="0px" y="0px" width="1808.072px" height="205.45px" viewBox="0 0 1808.072 205.45"
	 style="enable-background:new 0 0 1808.072 205.45;" xml:space="preserve">
<style type="text/css">
	.st0{fill:none;}
	.st1{font-family:'Mont-HeavyDEMO';}
	.st2{font-size:30px;}
	.st3{letter-spacing:4;}
	.st4{letter-spacing:3;}
</style>
<defs>
</defs>
<g>
	<rect y="3.45" class="st0" width="1800" height="202"/>
	<path d="M15.365,20.202V25.5H2.03V4.5h5.862v15.701H15.365z"/>
	<path d="M24.576,9.735v3.342h6.748v5.063h-6.748V25.5h-5.836V4.5h13.364v5.234H24.576z"/>
	<path d="M56.917,14.277c0,6.871-4.486,11.753-11.062,11.753c-6.434,0-11.187-4.624-11.187-11.013
		c0-6.389,4.667-11.047,11.135-11.047c5.504,0,10.007,3.444,10.895,8.324h-6.063c-0.76-1.769-2.639-2.906-4.78-2.906
		c-3.146,0-5.266,2.274-5.266,5.63c0,3.321,2.085,5.595,5.266,5.595c2.208,0,4.101-1.068,4.761-2.688h-5.215v-3.647L56.917,14.277z"
		/>
	<path d="M60.224,14.663h10.985v5.069H60.224V14.663z"/>
	<path d="M87.879,22.089h-7.443L79.272,25.5h-6.2L81.322,4.5h5.655l8.43,20.999h-6.371L87.879,22.089z M84.146,11.055l-2.301,6.507
		h4.623L84.146,11.055z"/>
	<path d="M103.824,26.03c-4.416,0-7.099-2.332-7.15-5.842h5.371c0,1.185,0.825,1.73,1.883,1.73c0.816,0,1.59-0.417,1.59-1.253
		c0-0.935-1.226-1.201-2.783-1.458c-2.512-0.407-5.841-1.165-5.841-5.094c0-3.247,2.767-5.344,6.917-5.344
		c4.125,0,6.799,2.194,6.862,5.477h-5.225c0-1.034-0.695-1.515-1.707-1.515c-0.895,0-1.495,0.443-1.495,1.193
		c0,0.922,1.239,1.137,2.778,1.411c2.559,0.455,5.961,0.986,5.961,5.094C110.986,23.815,108.128,26.03,103.824,26.03L103.824,26.03z
		"/>
	<path d="M114.375,9.3h5.58v16.199h-5.58V9.3z M114.417,2.538h5.494v4.735h-5.494V2.538z"/>
	<path d="M141.487,9.283v16.199h-4.313l-0.478-1.146c-1.327,1.074-3.007,1.693-4.888,1.693c-4.954,0-8.494-3.613-8.494-8.648
		c0-5.017,3.541-8.587,8.494-8.587c1.908,0,3.612,0.637,4.95,1.741l0.571-1.253L141.487,9.283z M136.18,17.396
		c0-2.103-1.536-3.682-3.626-3.682c-2.103,0-3.626,1.579-3.626,3.682c0,2.115,1.537,3.694,3.626,3.694S136.18,19.511,136.18,17.396z
		"/>
	<path d="M157.213,9.3h5.58v16.199h-5.58V9.3z M157.256,2.538h5.494v4.735h-5.494V2.538z"/>
	<path d="M173.333,26.03c-4.416,0-7.099-2.332-7.15-5.842h5.371c0,1.185,0.825,1.73,1.883,1.73c0.816,0,1.59-0.417,1.59-1.253
		c0-0.935-1.226-1.201-2.783-1.458c-2.512-0.407-5.841-1.165-5.841-5.094c0-3.247,2.767-5.344,6.917-5.344
		c4.125,0,6.799,2.194,6.862,5.477h-5.225c0-1.034-0.695-1.515-1.707-1.515c-0.895,0-1.495,0.443-1.495,1.193
		c0,0.922,1.239,1.137,2.778,1.411c2.559,0.455,5.961,0.986,5.961,5.094C180.495,23.815,177.637,26.03,173.333,26.03L173.333,26.03z
		"/>
	<path d="M205.343,20.612V25.5h-3.839c-3.583,0-5.76-2.19-5.76-5.79v-6.113h-2.965v-1.304l7.258-7.729h1.146V9.3h4.07v4.297h-3.929
		v5.155c0,1.16,0.7,1.86,1.877,1.86H205.343z"/>
	<path d="M224.741,15.745V25.5h-5.58v-9.107c0-1.868-0.656-2.821-2.112-2.821c-1.688,0-2.741,1.198-2.741,3.277v8.65h-5.58V3.45
		h5.58v6.916c1.193-0.961,2.71-1.545,4.324-1.545C222.352,8.821,224.741,11.545,224.741,15.745z"/>
	<path d="M245.55,17.247c0,0.488-0.042,0.976-0.115,1.477h-12.029c0.365,1.858,1.545,2.819,3.307,2.819
		c1.304,0,2.393-0.571,2.929-1.519h5.553c-1.14,3.697-4.417,6.007-8.481,6.007c-5.055,0-8.799-3.694-8.799-8.643
		c0-4.966,3.714-8.618,8.799-8.618C241.935,8.77,245.55,12.495,245.55,17.247L245.55,17.247z M233.504,15.634h6.549
		c-0.49-1.619-1.657-2.493-3.34-2.493C235.086,13.142,233.956,14.025,233.504,15.634z"/>
	<path d="M271.128,13.949h-3.633v11.55h-5.58v-11.55h-2.679l-0.013-4.383h2.76V8.015c0-3.247,1.783-5.146,5.219-5.146h3.896v4.28
		h-2.465c-0.828,0-1.322,0.489-1.322,1.317v1.1h3.816V13.949z"/>
	<path d="M274.037,9.3h5.58v16.199h-5.58V9.3z M274.08,2.538h5.494v4.735h-5.494V2.538z"/>
	<path d="M294.456,9.223v5.106h-2.167c-1.975,0-2.803,0.866-2.803,2.933V25.5h-5.58V9.3h3.738l0.871,1.798
		c1.143-1.322,2.534-1.875,4.462-1.875H294.456z"/>
	<path d="M303.537,26.03c-4.416,0-7.099-2.332-7.15-5.842h5.371c0,1.185,0.825,1.73,1.883,1.73c0.816,0,1.59-0.417,1.59-1.253
		c0-0.935-1.226-1.201-2.783-1.458c-2.512-0.407-5.841-1.165-5.841-5.094c0-3.247,2.767-5.344,6.917-5.344
		c4.125,0,6.799,2.194,6.862,5.477h-5.225c0-1.034-0.695-1.515-1.707-1.515c-0.895,0-1.495,0.443-1.495,1.193
		c0,0.922,1.239,1.137,2.778,1.411c2.559,0.455,5.961,0.986,5.961,5.094C310.699,23.815,307.841,26.03,303.537,26.03L303.537,26.03z
		"/>
	<path d="M324.862,20.612V25.5h-3.839c-3.583,0-5.76-2.19-5.76-5.79v-6.113h-2.965v-1.304l7.258-7.729h1.146V9.3h4.07v4.297h-3.929
		v5.155c0,1.16,0.7,1.86,1.877,1.86H324.862z"/>
	<path d="M347.691,26.03c-5.195,0-8.945-3.64-8.945-8.652c0-5.012,3.732-8.583,8.962-8.583c4.553,0,7.967,2.87,8.577,7.179h-5.436
		c-0.469-1.322-1.705-2.179-3.159-2.179c-1.96,0-3.356,1.49-3.356,3.601s1.413,3.635,3.356,3.635c1.498,0,2.711-0.917,3.172-2.363
		h5.482C355.714,23.066,352.252,26.03,347.691,26.03L347.691,26.03z"/>
	<path d="M358.593,17.4c0-5.021,3.801-8.63,9.082-8.63c5.265,0,9.083,3.609,9.083,8.63c0,5.004-3.818,8.63-9.083,8.63
		C362.394,26.03,358.593,22.404,358.593,17.4z M371.168,17.4c0-2.129-1.459-3.618-3.494-3.618c-2.034,0-3.494,1.476-3.494,3.618
		s1.459,3.618,3.494,3.618C369.709,21.018,371.168,19.542,371.168,17.4z"/>
	<path d="M404.966,15.339V25.5h-5.58v-9.47c0-1.692-0.623-2.508-1.808-2.508c-1.534,0-2.32,1.056-2.32,3.096V25.5h-5.435v-9.47
		c0-1.641-0.618-2.508-1.786-2.508c-1.513,0-2.342,1.082-2.342,3.096V25.5h-5.58V9.3h3.923l0.794,1.74
		c1.17-1.364,2.869-2.219,4.735-2.219c1.975,0,3.638,0.887,4.646,2.385c1.164-1.465,2.958-2.385,4.975-2.385
		C402.659,8.821,404.966,11.524,404.966,15.339z"/>
	<path d="M427.025,17.4c0,5.047-3.541,8.647-8.495,8.647c-1.465,0-2.806-0.385-3.949-1.076v6.377h-5.516V9.3h3.794l0.699,1.287
		c1.333-1.152,3.047-1.818,4.972-1.818C423.484,8.769,427.025,12.353,427.025,17.4z M421.411,17.399
		c0-2.128-1.536-3.707-3.626-3.707s-3.626,1.579-3.626,3.707c0,2.128,1.537,3.708,3.626,3.708
		C419.862,21.107,421.411,19.528,421.411,17.399z"/>
	<path d="M447.608,9.283v16.199h-4.313l-0.478-1.146c-1.327,1.074-3.007,1.693-4.888,1.693c-4.954,0-8.494-3.613-8.494-8.648
		c0-5.017,3.541-8.587,8.494-8.587c1.908,0,3.612,0.637,4.95,1.741l0.571-1.253L447.608,9.283z M442.301,17.396
		c0-2.103-1.536-3.682-3.626-3.682c-2.103,0-3.626,1.579-3.626,3.682c0,2.115,1.537,3.694,3.626,3.694
		S442.301,19.511,442.301,17.396z"/>
	<path d="M467.918,15.622V25.5h-5.58v-9.107c0-1.885-0.708-2.821-2.112-2.821c-1.74,0-2.741,1.215-2.741,3.277v8.65h-5.58V9.3h3.915
		l0.766,1.67c1.207-1.344,3.005-2.149,5.1-2.149C465.447,8.821,467.918,11.495,467.918,15.622z"/>
	<path d="M488.312,9.3l-6.79,15.479c-2.184,4.958-4.191,6.749-8.374,6.749h-1.911v-4.794h1.534c2.135,0,2.779-0.556,3.535-2.572
		L469.612,9.3h6.063l3.438,8.924l3.204-8.924H488.312z"/>
	<path d="M501.524,9.3h5.58v16.199h-5.58V9.3z M501.567,2.538h5.494v4.735h-5.494V2.538z"/>
	<path d="M527.407,15.622V25.5h-5.58v-9.107c0-1.885-0.708-2.821-2.112-2.821c-1.74,0-2.741,1.215-2.741,3.277v8.65h-5.58V9.3h3.915
		l0.766,1.67c1.207-1.344,3.005-2.149,5.1-2.149C524.937,8.821,527.407,11.495,527.407,15.622z"/>
	<path d="M554.869,22.089h-7.443l-1.163,3.411h-6.2L548.312,4.5h5.655l8.43,20.999h-6.371L554.869,22.089z M551.136,11.055
		l-2.301,6.507h4.623L551.136,11.055z"/>
	<path d="M570.814,26.03c-4.416,0-7.099-2.332-7.15-5.842h5.371c0,1.185,0.825,1.73,1.883,1.73c0.816,0,1.59-0.417,1.59-1.253
		c0-0.935-1.226-1.201-2.783-1.458c-2.512-0.407-5.841-1.165-5.841-5.094c0-3.247,2.767-5.344,6.917-5.344
		c4.125,0,6.799,2.194,6.862,5.477h-5.225c0-1.034-0.695-1.515-1.707-1.515c-0.895,0-1.495,0.443-1.495,1.193
		c0,0.922,1.239,1.137,2.778,1.411c2.559,0.455,5.961,0.986,5.961,5.094C577.976,23.815,575.119,26.03,570.814,26.03L570.814,26.03z
		"/>
	<path d="M581.365,9.3h5.58v16.199h-5.58V9.3z M581.408,2.538h5.494v4.735h-5.494V2.538z"/>
	<path d="M608.477,9.283v16.199h-4.313l-0.478-1.146c-1.327,1.074-3.007,1.693-4.888,1.693c-4.954,0-8.494-3.613-8.494-8.648
		c0-5.017,3.541-8.587,8.494-8.587c1.908,0,3.612,0.637,4.95,1.741l0.571-1.253L608.477,9.283z M603.17,17.396
		c0-2.103-1.536-3.682-3.626-3.682c-2.103,0-3.626,1.579-3.626,3.682c0,2.115,1.537,3.694,3.626,3.694S603.17,19.511,603.17,17.396z
		"/>
	<path d="M634.235,20.612V25.5h-3.839c-3.583,0-5.76-2.19-5.76-5.79v-6.113h-2.965v-1.304l7.258-7.729h1.146V9.3h4.07v4.297h-3.929
		v5.155c0,1.16,0.7,1.86,1.877,1.86H634.235z"/>
	<path d="M636.526,17.4c0-5.021,3.801-8.63,9.083-8.63c5.265,0,9.083,3.609,9.083,8.63c0,5.004-3.818,8.63-9.083,8.63
		C640.328,26.03,636.526,22.404,636.526,17.4z M649.103,17.4c0-2.129-1.459-3.618-3.494-3.618c-2.034,0-3.494,1.476-3.494,3.618
		s1.459,3.618,3.494,3.618C647.644,21.018,649.103,19.542,649.103,17.4z"/>
	<path d="M668.535,17.4c0-5.021,3.801-8.63,9.083-8.63c5.265,0,9.083,3.609,9.083,8.63c0,5.004-3.818,8.63-9.083,8.63
		C672.336,26.03,668.535,22.404,668.535,17.4z M681.111,17.4c0-2.129-1.459-3.618-3.494-3.618c-2.034,0-3.494,1.476-3.494,3.618
		s1.459,3.618,3.494,3.618C679.652,21.018,681.111,19.542,681.111,17.4z"/>
	<path d="M700.621,13.949h-3.633v11.55h-5.58v-11.55h-2.679l-0.013-4.383h2.76V8.015c0-3.247,1.783-5.146,5.219-5.146h3.896v4.28
		h-2.465c-0.828,0-1.322,0.489-1.322,1.317v1.1h3.816V13.949z"/>
	<path d="M714.36,13.949h-3.633v11.55h-5.58v-11.55h-2.679l-0.013-4.383h2.76V8.015c0-3.247,1.783-5.146,5.219-5.146h3.895v4.28
		h-2.464c-0.828,0-1.322,0.489-1.322,1.317v1.1h3.816V13.949z"/>
	<path d="M733.661,17.247c0,0.488-0.042,0.976-0.115,1.477h-12.029c0.365,1.858,1.545,2.819,3.307,2.819
		c1.304,0,2.393-0.571,2.929-1.519h5.553c-1.14,3.697-4.417,6.007-8.481,6.007c-5.055,0-8.799-3.694-8.799-8.643
		c0-4.966,3.714-8.618,8.799-8.618C730.046,8.77,733.661,12.495,733.661,17.247L733.661,17.247z M721.616,15.634h6.549
		c-0.49-1.619-1.657-2.493-3.34-2.493C723.198,13.142,722.067,14.025,721.616,15.634z"/>
	<path d="M747.528,9.223v5.106h-2.167c-1.975,0-2.803,0.866-2.803,2.933V25.5h-5.58V9.3h3.738l0.871,1.798
		c1.143-1.322,2.534-1.875,4.462-1.875H747.528z"/>
	<path d="M778.401,9.283v16.199h-4.313l-0.478-1.146c-1.327,1.074-3.007,1.693-4.888,1.693c-4.954,0-8.494-3.613-8.494-8.648
		c0-5.017,3.541-8.587,8.494-8.587c1.908,0,3.612,0.637,4.95,1.741l0.571-1.253L778.401,9.283z M773.094,17.396
		c0-2.103-1.536-3.682-3.626-3.682c-2.103,0-3.626,1.579-3.626,3.682c0,2.115,1.537,3.694,3.626,3.694
		S773.094,19.511,773.094,17.396z"/>
	<path d="M802.143,26.03c-5.195,0-8.945-3.64-8.945-8.652c0-5.012,3.732-8.583,8.962-8.583c4.553,0,7.967,2.87,8.577,7.179h-5.436
		c-0.469-1.322-1.705-2.179-3.159-2.179c-1.96,0-3.356,1.49-3.356,3.601s1.413,3.635,3.356,3.635c1.498,0,2.711-0.917,3.172-2.363
		h5.482C810.166,23.066,806.704,26.03,802.143,26.03L802.143,26.03z"/>
	<path d="M813.044,17.4c0-5.021,3.801-8.63,9.082-8.63c5.265,0,9.083,3.609,9.083,8.63c0,5.004-3.818,8.63-9.083,8.63
		C816.845,26.03,813.044,22.404,813.044,17.4z M825.62,17.4c0-2.129-1.459-3.618-3.494-3.618c-2.034,0-3.494,1.476-3.494,3.618
		s1.459,3.618,3.494,3.618C824.161,21.018,825.62,19.542,825.62,17.4z"/>
	<path d="M859.417,15.339V25.5h-5.58v-9.47c0-1.692-0.623-2.508-1.808-2.508c-1.534,0-2.32,1.056-2.32,3.096V25.5h-5.435v-9.47
		c0-1.641-0.618-2.508-1.786-2.508c-1.513,0-2.342,1.082-2.342,3.096V25.5h-5.58V9.3h3.923l0.794,1.74
		c1.17-1.364,2.869-2.219,4.735-2.219c1.975,0,3.638,0.887,4.646,2.385c1.164-1.465,2.958-2.385,4.975-2.385
		C857.11,8.821,859.417,11.524,859.417,15.339z"/>
	<path d="M881.477,17.4c0,5.047-3.541,8.647-8.495,8.647c-1.465,0-2.806-0.385-3.949-1.076v6.377h-5.516V9.3h3.794l0.699,1.287
		c1.333-1.152,3.047-1.818,4.972-1.818C877.936,8.769,881.477,12.353,881.477,17.4z M875.862,17.399
		c0-2.128-1.536-3.707-3.626-3.707s-3.626,1.579-3.626,3.707c0,2.128,1.537,3.708,3.626,3.708
		C874.313,21.107,875.862,19.528,875.862,17.399z"/>
	<path d="M884.816,3.45h5.58V25.5h-5.58V3.45z"/>
	<path d="M911.378,17.247c0,0.488-0.042,0.976-0.115,1.477h-12.028c0.365,1.858,1.545,2.819,3.307,2.819
		c1.304,0,2.393-0.571,2.929-1.519h5.552c-1.14,3.697-4.417,6.007-8.481,6.007c-5.054,0-8.799-3.694-8.799-8.643
		c0-4.966,3.714-8.618,8.799-8.618C907.763,8.77,911.379,12.495,911.378,17.247L911.378,17.247z M899.333,15.634h6.549
		c-0.49-1.619-1.657-2.493-3.341-2.493C900.915,13.142,899.784,14.025,899.333,15.634z"/>
	<path d="M925.382,20.612V25.5h-3.84c-3.582,0-5.76-2.19-5.76-5.79v-6.113h-2.965v-1.304l7.258-7.729h1.146V9.3h4.069v4.297h-3.929
		v5.155c0,1.16,0.7,1.86,1.878,1.86H925.382z"/>
	<path d="M945.309,17.247c0,0.488-0.043,0.976-0.115,1.477h-12.028c0.364,1.858,1.545,2.819,3.307,2.819
		c1.304,0,2.393-0.571,2.929-1.519h5.553c-1.14,3.697-4.417,6.007-8.481,6.007c-5.055,0-8.799-3.694-8.799-8.643
		c0-4.966,3.715-8.618,8.799-8.618C941.693,8.77,945.309,12.495,945.309,17.247L945.309,17.247z M933.263,15.634h6.549
		c-0.489-1.619-1.656-2.493-3.34-2.493C934.845,13.142,933.715,14.025,933.263,15.634z"/>
	<path d="M959.111,17.4c0-5.021,3.801-8.63,9.083-8.63c5.264,0,9.082,3.609,9.082,8.63c0,5.004-3.818,8.63-9.082,8.63
		C962.912,26.03,959.111,22.404,959.111,17.4z M971.688,17.4c0-2.129-1.459-3.618-3.493-3.618c-2.035,0-3.494,1.476-3.494,3.618
		s1.459,3.618,3.494,3.618C970.229,21.018,971.688,19.542,971.688,17.4z"/>
	<path d="M996.648,15.622V25.5h-5.58v-9.107c0-1.885-0.708-2.821-2.112-2.821c-1.74,0-2.741,1.215-2.741,3.277v8.65h-5.58V9.3h3.915
		l0.767,1.67c1.206-1.344,3.004-2.149,5.1-2.149C994.178,8.821,996.648,11.495,996.648,15.622z"/>
	<path d="M1000.764,3.45h5.58V25.5h-5.58V3.45z"/>
	<path d="M1010.635,9.3h5.579v16.199h-5.579V9.3z M1010.677,2.538h5.494v4.735h-5.494V2.538z"/>
	<path d="M1036.518,15.622V25.5h-5.58v-9.107c0-1.885-0.708-2.821-2.112-2.821c-1.74,0-2.741,1.215-2.741,3.277v8.65h-5.58V9.3
		h3.915l0.767,1.67c1.206-1.344,3.004-2.149,5.1-2.149C1034.047,8.821,1036.518,11.495,1036.518,15.622z"/>
	<path d="M1057.326,17.247c0,0.488-0.043,0.976-0.115,1.477h-12.028c0.364,1.858,1.545,2.819,3.307,2.819
		c1.304,0,2.393-0.571,2.929-1.519h5.553c-1.14,3.697-4.417,6.007-8.481,6.007c-5.055,0-8.799-3.694-8.799-8.643
		c0-4.966,3.715-8.618,8.799-8.618C1053.711,8.77,1057.326,12.495,1057.326,17.247L1057.326,17.247z M1045.28,15.634h6.549
		c-0.489-1.619-1.656-2.493-3.34-2.493C1046.862,13.142,1045.732,14.025,1045.28,15.634z"/>
	<path d="M1071.129,17.4c0-5.021,3.801-8.63,9.083-8.63c5.264,0,9.082,3.609,9.082,8.63c0,5.004-3.818,8.63-9.082,8.63
		C1074.93,26.03,1071.129,22.404,1071.129,17.4z M1083.705,17.4c0-2.129-1.459-3.618-3.493-3.618c-2.035,0-3.494,1.476-3.494,3.618
		s1.459,3.618,3.494,3.618C1082.246,21.018,1083.705,19.542,1083.705,17.4z"/>
	<path d="M1110.611,17.4c0,5.047-3.541,8.647-8.494,8.647c-1.465,0-2.806-0.385-3.949-1.076v6.377h-5.517V9.3h3.795l0.699,1.287
		c1.332-1.152,3.047-1.818,4.972-1.818C1107.07,8.769,1110.611,12.353,1110.611,17.4z M1104.997,17.399
		c0-2.128-1.536-3.707-3.627-3.707c-2.09,0-3.626,1.579-3.626,3.707c0,2.128,1.536,3.708,3.626,3.708
		C1103.447,21.107,1104.997,19.528,1104.997,17.399z"/>
	<path d="M1124.637,20.612V25.5h-3.84c-3.582,0-5.76-2.19-5.76-5.79v-6.113h-2.965v-1.304l7.258-7.729h1.146V9.3h4.069v4.297h-3.929
		v5.155c0,1.16,0.7,1.86,1.877,1.86H1124.637z"/>
	<path d="M1128.021,9.3h5.579v16.199h-5.579V9.3z M1128.063,2.538h5.494v4.735h-5.494V2.538z"/>
	<path d="M1136.947,17.4c0-5.021,3.801-8.63,9.083-8.63c5.264,0,9.082,3.609,9.082,8.63c0,5.004-3.818,8.63-9.082,8.63
		C1140.748,26.03,1136.947,22.404,1136.947,17.4z M1149.523,17.4c0-2.129-1.459-3.618-3.493-3.618c-2.035,0-3.494,1.476-3.494,3.618
		s1.459,3.618,3.494,3.618C1148.064,21.018,1149.523,19.542,1149.523,17.4z"/>
	<path d="M1174.483,15.622V25.5h-5.58v-9.107c0-1.885-0.708-2.821-2.112-2.821c-1.74,0-2.741,1.215-2.741,3.277v8.65h-5.58V9.3
		h3.915l0.767,1.67c1.206-1.344,3.005-2.149,5.1-2.149C1172.013,8.821,1174.483,11.495,1174.483,15.622z"/>
	<path d="M1184.85,26.03c-4.415,0-7.099-2.332-7.149-5.842h5.371c0,1.185,0.824,1.73,1.883,1.73c0.815,0,1.59-0.417,1.59-1.253
		c0-0.935-1.227-1.201-2.783-1.458c-2.512-0.407-5.842-1.165-5.842-5.094c0-3.247,2.768-5.344,6.918-5.344
		c4.125,0,6.799,2.194,6.862,5.477h-5.226c0-1.034-0.695-1.515-1.706-1.515c-0.895,0-1.495,0.443-1.495,1.193
		c0,0.922,1.238,1.137,2.777,1.411c2.56,0.455,5.962,0.986,5.962,5.094C1192.012,23.815,1189.154,26.03,1184.85,26.03L1184.85,26.03
		z"/>
	<path d="M1216.861,20.612V25.5h-3.84c-3.582,0-5.76-2.19-5.76-5.79v-6.113h-2.965v-1.304l7.258-7.729h1.146V9.3h4.069v4.297h-3.929
		v5.155c0,1.16,0.7,1.86,1.877,1.86H1216.861z"/>
	<path d="M1230.794,9.223v5.106h-2.166c-1.976,0-2.803,0.866-2.803,2.933V25.5h-5.58V9.3h3.738l0.871,1.798
		c1.142-1.322,2.533-1.875,4.462-1.875H1230.794z"/>
	<path d="M1250.658,9.283v16.199h-4.313l-0.478-1.146c-1.327,1.074-3.007,1.693-4.889,1.693c-4.953,0-8.494-3.613-8.494-8.648
		c0-5.017,3.541-8.587,8.494-8.587c1.908,0,3.612,0.637,4.95,1.741l0.571-1.253L1250.658,9.283z M1245.352,17.396
		c0-2.103-1.536-3.682-3.627-3.682c-2.103,0-3.626,1.579-3.626,3.682c0,2.115,1.536,3.694,3.626,3.694
		C1243.815,21.09,1245.352,19.511,1245.352,17.396z"/>
	<path d="M1272.064,3.45V25.5h-4.129l-0.525-1.203c-1.318,1.109-3,1.751-4.887,1.751c-4.971,0-8.512-3.613-8.512-8.647
		c0-5.035,3.541-8.631,8.512-8.631c1.496,0,2.864,0.404,4.025,1.125V3.45H1272.064z M1266.896,17.4c0-2.115-1.536-3.707-3.627-3.707
		c-2.09,0-3.626,1.592-3.626,3.707s1.536,3.707,3.626,3.707C1265.36,21.107,1266.896,19.515,1266.896,17.4z"/>
	<path d="M1276.347,9.3h5.579v16.199h-5.579V9.3z M1276.389,2.538h5.494v4.735h-5.494V2.538z"/>
	<path d="M1302.229,15.622V25.5h-5.58v-9.107c0-1.885-0.708-2.821-2.112-2.821c-1.74,0-2.741,1.215-2.741,3.277v8.65h-5.58V9.3
		h3.915l0.767,1.67c1.206-1.344,3.005-2.149,5.1-2.149C1299.759,8.821,1302.229,11.495,1302.229,15.622z"/>
	<path d="M1323.099,9.3V23.7c0,5.091-3.332,8.245-8.683,8.245c-4.598,0-7.815-2.318-8.561-6.157h5.384
		c0.387,1.083,1.77,1.666,3.125,1.666c1.869,0,3.372-1.188,3.372-3.114v-0.483c-1.218,0.772-2.663,1.216-4.227,1.216
		c-4.645,0-8.096-3.455-8.096-8.142c0-4.619,3.451-8.147,8.096-8.147c1.96,0,3.736,0.703,5.109,1.877l0.707-1.359H1323.099z
		 M1317.881,16.929c0-2.046-1.437-3.531-3.445-3.531c-2.004,0-3.458,1.484-3.458,3.531c0,2.063,1.438,3.548,3.458,3.548
		C1316.439,20.478,1317.881,18.993,1317.881,16.929z"/>
	<path d="M1356.794,17.4c0,5.047-3.541,8.647-8.494,8.647c-1.465,0-2.806-0.385-3.949-1.076v6.377h-5.517V9.3h3.795l0.699,1.287
		c1.332-1.152,3.047-1.818,4.972-1.818C1353.253,8.769,1356.794,12.353,1356.794,17.4z M1351.18,17.399
		c0-2.128-1.536-3.707-3.627-3.707c-2.09,0-3.626,1.579-3.626,3.707c0,2.128,1.536,3.708,3.626,3.708
		C1349.63,21.107,1351.18,19.528,1351.18,17.399z"/>
	<path d="M1360.134,3.45h5.58V25.5h-5.58V3.45z"/>
	<path d="M1387.247,9.283v16.199h-4.313l-0.478-1.146c-1.327,1.074-3.007,1.693-4.889,1.693c-4.953,0-8.494-3.613-8.494-8.648
		c0-5.017,3.541-8.587,8.494-8.587c1.908,0,3.612,0.637,4.95,1.741l0.571-1.253L1387.247,9.283z M1381.94,17.396
		c0-2.103-1.536-3.682-3.627-3.682c-2.103,0-3.626,1.579-3.626,3.682c0,2.115,1.536,3.694,3.626,3.694
		C1380.404,21.09,1381.94,19.511,1381.94,17.396z"/>
	<path d="M1402.47,20.612V25.5h-3.84c-3.582,0-5.76-2.19-5.76-5.79v-6.113h-2.965v-1.304l7.258-7.729h1.146V9.3h4.069v4.297h-3.929
		v5.155c0,1.16,0.7,1.86,1.878,1.86H1402.47z"/>
	<path d="M1416.685,13.949h-3.633v11.55h-5.579v-11.55h-2.68l-0.013-4.383h2.761V8.015c0-3.247,1.782-5.146,5.218-5.146h3.896v4.28
		h-2.464c-0.828,0-1.322,0.489-1.322,1.317v1.1h3.816V13.949z"/>
	<path d="M1418.35,17.4c0-5.021,3.801-8.63,9.083-8.63c5.264,0,9.082,3.609,9.082,8.63c0,5.004-3.818,8.63-9.082,8.63
		C1422.15,26.03,1418.35,22.404,1418.35,17.4z M1430.926,17.4c0-2.129-1.459-3.618-3.493-3.618c-2.035,0-3.494,1.476-3.494,3.618
		s1.459,3.618,3.494,3.618C1429.467,21.018,1430.926,19.542,1430.926,17.4z"/>
	<path d="M1450.422,9.223v5.106h-2.166c-1.976,0-2.803,0.866-2.803,2.933V25.5h-5.58V9.3h3.738l0.871,1.798
		c1.142-1.322,2.533-1.875,4.462-1.875H1450.422z"/>
	<path d="M1478.163,15.339V25.5h-5.58v-9.47c0-1.692-0.623-2.508-1.809-2.508c-1.533,0-2.319,1.056-2.319,3.096V25.5h-5.435v-9.47
		c0-1.641-0.618-2.508-1.786-2.508c-1.513,0-2.342,1.082-2.342,3.096V25.5h-5.58V9.3h3.924l0.794,1.74
		c1.171-1.364,2.87-2.219,4.735-2.219c1.976,0,3.638,0.887,4.646,2.385c1.164-1.465,2.957-2.385,4.975-2.385
		C1475.856,8.821,1478.163,11.524,1478.163,15.339z"/>
	<path d="M1504.524,13.949h-3.633v11.55h-5.579v-11.55h-2.68l-0.013-4.383h2.761V8.015c0-3.247,1.782-5.146,5.218-5.146h3.896v4.28
		h-2.464c-0.828,0-1.322,0.489-1.322,1.317v1.1h3.816V13.949z"/>
	<path d="M1506.188,17.4c0-5.021,3.801-8.63,9.083-8.63c5.264,0,9.082,3.609,9.082,8.63c0,5.004-3.818,8.63-9.082,8.63
		C1509.989,26.03,1506.188,22.404,1506.188,17.4z M1518.765,17.4c0-2.129-1.459-3.618-3.493-3.618c-2.035,0-3.494,1.476-3.494,3.618
		s1.459,3.618,3.494,3.618C1517.306,21.018,1518.765,19.542,1518.765,17.4z"/>
	<path d="M1538.261,9.223v5.106h-2.166c-1.976,0-2.803,0.866-2.803,2.933V25.5h-5.58V9.3h3.738l0.871,1.798
		c1.142-1.322,2.533-1.875,4.462-1.875H1538.261z"/>
	<path d="M1573.334,14.277c0,6.871-4.486,11.753-11.063,11.753c-6.435,0-11.187-4.624-11.187-11.013
		c0-6.389,4.666-11.047,11.135-11.047c5.504,0,10.007,3.444,10.896,8.324h-6.063c-0.76-1.769-2.64-2.906-4.781-2.906
		c-3.146,0-5.265,2.274-5.265,5.63c0,3.321,2.085,5.595,5.265,5.595c2.208,0,4.102-1.068,4.762-2.688h-5.215v-3.647L1573.334,14.277
		z"/>
	<path d="M1575.817,17.4c0-5.021,3.801-8.63,9.083-8.63c5.264,0,9.082,3.609,9.082,8.63c0,5.004-3.818,8.63-9.082,8.63
		C1579.618,26.03,1575.817,22.404,1575.817,17.4z M1588.394,17.4c0-2.129-1.459-3.618-3.493-3.618c-2.035,0-3.494,1.476-3.494,3.618
		s1.459,3.618,3.494,3.618C1586.935,21.018,1588.394,19.542,1588.394,17.4z"/>
	<path d="M1597.341,3.45h5.58V25.5h-5.58V3.45z"/>
	<path d="M1624.319,3.45V25.5h-4.129l-0.525-1.203c-1.318,1.109-3,1.751-4.887,1.751c-4.971,0-8.512-3.613-8.512-8.647
		c0-5.035,3.541-8.631,8.512-8.631c1.496,0,2.864,0.404,4.025,1.125V3.45H1624.319z M1619.151,17.4c0-2.115-1.536-3.707-3.627-3.707
		c-2.09,0-3.626,1.592-3.626,3.707s1.536,3.707,3.626,3.707C1617.615,21.107,1619.151,19.515,1619.151,17.4z"/>
	<path d="M1657.272,9.283v16.199h-4.313l-0.478-1.146c-1.327,1.074-3.007,1.693-4.889,1.693c-4.953,0-8.494-3.613-8.494-8.648
		c0-5.017,3.541-8.587,8.494-8.587c1.908,0,3.612,0.637,4.95,1.741l0.571-1.253L1657.272,9.283z M1651.966,17.396
		c0-2.103-1.536-3.682-3.627-3.682c-2.103,0-3.626,1.579-3.626,3.682c0,2.115,1.536,3.694,3.626,3.694
		C1650.43,21.09,1651.966,19.511,1651.966,17.396z"/>
	<path d="M1677.583,15.622V25.5h-5.58v-9.107c0-1.885-0.708-2.821-2.112-2.821c-1.74,0-2.741,1.215-2.741,3.277v8.65h-5.58V9.3
		h3.915l0.767,1.67c1.206-1.344,3.005-2.149,5.1-2.149C1675.112,8.821,1677.583,11.495,1677.583,15.622z"/>
	<path d="M1698.809,3.45V25.5h-4.129l-0.525-1.203c-1.318,1.109-3,1.751-4.887,1.751c-4.971,0-8.512-3.613-8.512-8.647
		c0-5.035,3.541-8.631,8.512-8.631c1.496,0,2.864,0.404,4.025,1.125V3.45H1698.809z M1693.641,17.4c0-2.115-1.536-3.707-3.627-3.707
		c-2.09,0-3.626,1.592-3.626,3.707s1.536,3.707,3.626,3.707C1692.104,21.107,1693.641,19.515,1693.641,17.4z"/>
	<path d="M1720.63,9.735v3.342h6.748v5.063h-6.748V25.5h-5.837V4.5h13.364v5.234H1720.63z"/>
	<path d="M1730.436,17.4c0-5.021,3.801-8.63,9.083-8.63c5.264,0,9.082,3.609,9.082,8.63c0,5.004-3.818,8.63-9.082,8.63
		C1734.236,26.03,1730.436,22.404,1730.436,17.4z M1743.012,17.4c0-2.129-1.459-3.618-3.493-3.618c-2.035,0-3.494,1.476-3.494,3.618
		s1.459,3.618,3.494,3.618C1741.553,21.018,1743.012,19.542,1743.012,17.4z"/>
	<path d="M1762.507,9.223v5.106h-2.166c-1.976,0-2.803,0.866-2.803,2.933V25.5h-5.58V9.3h3.738l0.871,1.798
		c1.142-1.322,2.533-1.875,4.462-1.875H1762.507z"/>
	<path d="M1781.821,17.247c0,0.488-0.043,0.976-0.115,1.477h-12.028c0.364,1.858,1.545,2.819,3.307,2.819
		c1.304,0,2.393-0.571,2.929-1.519h5.553c-1.14,3.697-4.417,6.007-8.481,6.007c-5.055,0-8.799-3.694-8.799-8.643
		c0-4.966,3.715-8.618,8.799-8.618C1778.206,8.77,1781.821,12.495,1781.821,17.247L1781.821,17.247z M1769.775,15.634h6.549
		c-0.489-1.619-1.656-2.493-3.34-2.493C1771.357,13.142,1770.228,14.025,1769.775,15.634z"/>
	<path d="M1793.955,25.5l-2.663-4.799l-2.717,4.799h-6.162l5.373-8.404l-4.979-7.795h6.158l2.341,4.08l2.447-4.08h6.072l-5.02,7.649
		l5.384,8.55H1793.955z"/>
	<path d="M12.68,72.612V77.5H8.841c-3.583,0-5.76-2.19-5.76-5.79v-6.113H0.116v-1.304l7.258-7.729h1.146V61.3h4.07v4.297H8.661
		v5.155c0,1.16,0.7,1.86,1.877,1.86H12.68z"/>
	<path d="M26.614,61.223v5.106h-2.167c-1.975,0-2.803,0.866-2.803,2.933V77.5h-5.58V61.3h3.738l0.871,1.798
		c1.143-1.322,2.534-1.875,4.462-1.875H26.614z"/>
	<path d="M46.478,61.283v16.199h-4.313l-0.478-1.146c-1.327,1.074-3.007,1.693-4.888,1.693c-4.954,0-8.494-3.613-8.494-8.648
		c0-5.017,3.541-8.587,8.494-8.587c1.908,0,3.612,0.637,4.95,1.741l0.571-1.253L46.478,61.283z M41.171,69.396
		c0-2.103-1.536-3.682-3.626-3.682c-2.103,0-3.626,1.579-3.626,3.682c0,2.115,1.537,3.694,3.626,3.694S41.171,71.511,41.171,69.396z
		"/>
	<path d="M67.884,55.45V77.5h-4.129l-0.526-1.203c-1.318,1.109-2.999,1.751-4.886,1.751c-4.971,0-8.512-3.613-8.512-8.647
		c0-5.035,3.541-8.631,8.512-8.631c1.496,0,2.864,0.404,4.025,1.125V55.45H67.884z M62.715,69.4c0-2.115-1.536-3.707-3.626-3.707
		c-2.09,0-3.626,1.592-3.626,3.707s1.536,3.707,3.626,3.707C61.179,73.107,62.715,71.515,62.715,69.4z"/>
	<path d="M72.165,61.3h5.58v16.199h-5.58V61.3z M72.208,54.538h5.494v4.735h-5.494V54.538z"/>
	<path d="M98.047,67.622V77.5h-5.58v-9.107c0-1.885-0.708-2.821-2.112-2.821c-1.74,0-2.741,1.215-2.741,3.277v8.65h-5.58V61.3h3.915
		l0.766,1.67c1.207-1.344,3.005-2.149,5.1-2.149C95.577,60.821,98.047,63.495,98.047,67.622z"/>
	<path d="M118.918,61.3V75.7c0,5.091-3.333,8.245-8.683,8.245c-4.597,0-7.815-2.318-8.561-6.157h5.385
		c0.386,1.083,1.769,1.666,3.125,1.666c1.87,0,3.372-1.188,3.372-3.114v-0.483c-1.217,0.772-2.664,1.216-4.227,1.216
		c-4.645,0-8.095-3.455-8.095-8.142c0-4.619,3.451-8.147,8.095-8.147c1.961,0,3.736,0.703,5.109,1.877l0.708-1.359H118.918z
		 M113.7,68.929c0-2.046-1.437-3.531-3.445-3.531c-2.003,0-3.458,1.484-3.458,3.531c0,2.063,1.437,3.548,3.458,3.548
		C112.259,72.478,113.7,70.993,113.7,68.929z"/>
	<path d="M123.018,72.316h5.413V77.5h-5.413V72.316z"/>
	<path d="M155.613,78.031c-6.75,0-11.568-4.613-11.568-11.03c0-6.418,4.817-11.031,11.568-11.031
		c6.733,0,11.533,4.595,11.533,11.031C167.146,73.435,162.347,78.03,155.613,78.031L155.613,78.031z M155.613,72.648
		c3.196,0,5.51-2.361,5.51-5.647c0-3.287-2.313-5.647-5.51-5.647s-5.544,2.378-5.544,5.647S152.417,72.647,155.613,72.648
		L155.613,72.648z"/>
	<path d="M170.399,70.545V61.3h5.58v9.002c0,1.709,0.919,2.715,2.41,2.715c1.491,0,2.393-1.023,2.393-2.715V61.3h5.58v9.245
		c0,4.533-3.187,7.485-7.972,7.485C173.603,78.03,170.399,75.078,170.399,70.545z"/>
	<path d="M200.987,61.223v5.106h-2.167c-1.975,0-2.803,0.866-2.803,2.933V77.5h-5.58V61.3h3.738l0.871,1.798
		c1.143-1.322,2.534-1.875,4.462-1.875H200.987z"/>
	<path d="M220.193,65.949h-3.633v11.55h-5.58v-11.55h-2.679l-0.013-4.383h2.76v-1.551c0-3.247,1.783-5.146,5.219-5.146h3.896v4.28
		h-2.465c-0.828,0-1.322,0.489-1.322,1.317v1.1h3.816V65.949z"/>
	<path d="M223.102,55.45h5.58V77.5h-5.58V55.45z"/>
	<path d="M232.027,69.4c0-5.021,3.801-8.63,9.083-8.63c5.265,0,9.083,3.609,9.083,8.63c0,5.004-3.818,8.63-9.083,8.63
		C235.829,78.03,232.027,74.404,232.027,69.4z M244.604,69.4c0-2.129-1.459-3.618-3.494-3.618c-2.034,0-3.494,1.476-3.494,3.618
		s1.459,3.618,3.494,3.618C243.145,73.018,244.604,71.542,244.604,69.4z"/>
	<path d="M252.607,69.4c0-5.021,3.801-8.63,9.083-8.63c5.265,0,9.083,3.609,9.083,8.63c0,5.004-3.818,8.63-9.083,8.63
		C256.409,78.03,252.607,74.404,252.607,69.4z M265.184,69.4c0-2.129-1.459-3.618-3.494-3.618c-2.034,0-3.494,1.476-3.494,3.618
		s1.459,3.618,3.494,3.618C263.725,73.018,265.184,71.542,265.184,69.4z"/>
	<path d="M284.68,61.223v5.106h-2.167c-1.975,0-2.803,0.866-2.803,2.933V77.5h-5.58V61.3h3.738l0.871,1.798
		c1.143-1.322,2.534-1.875,4.462-1.875H284.68z"/>
	<path d="M317.904,67.339V77.5h-5.58v-9.47c0-1.692-0.623-2.508-1.808-2.508c-1.534,0-2.32,1.056-2.32,3.096V77.5h-5.434v-9.47
		c0-1.641-0.619-2.508-1.787-2.508c-1.513,0-2.342,1.082-2.342,3.096V77.5h-5.58V61.3h3.923l0.794,1.74
		c1.17-1.364,2.869-2.219,4.735-2.219c1.975,0,3.638,0.887,4.646,2.385c1.164-1.465,2.958-2.385,4.975-2.385
		C315.597,60.821,317.904,63.524,317.904,67.339z"/>
	<path d="M338.695,69.247c0,0.488-0.042,0.976-0.115,1.477h-12.029c0.365,1.858,1.545,2.819,3.307,2.819
		c1.304,0,2.393-0.571,2.929-1.519h5.553c-1.14,3.697-4.417,6.007-8.481,6.007c-5.055,0-8.799-3.694-8.799-8.643
		c0-4.966,3.714-8.618,8.799-8.618C335.08,60.77,338.695,64.495,338.695,69.247L338.695,69.247z M326.65,67.634h6.549
		c-0.49-1.619-1.657-2.493-3.34-2.493C328.232,65.142,327.101,66.025,326.65,67.634z"/>
	<path d="M366.863,67.339V77.5h-5.58v-9.47c0-1.692-0.623-2.508-1.808-2.508c-1.534,0-2.32,1.056-2.32,3.096V77.5h-5.435v-9.47
		c0-1.641-0.618-2.508-1.786-2.508c-1.513,0-2.342,1.082-2.342,3.096V77.5h-5.58V61.3h3.923l0.794,1.74
		c1.17-1.364,2.869-2.219,4.735-2.219c1.975,0,3.638,0.887,4.646,2.385c1.164-1.465,2.958-2.385,4.975-2.385
		C364.557,60.821,366.863,63.524,366.863,67.339z"/>
	<path d="M380.504,60.794c4.988,0,8.511,3.583,8.511,8.618c0,5.035-3.523,8.618-8.511,8.618c-1.891,0-3.57-0.634-4.886-1.733
		l-0.526,1.203h-4.129V55.45h5.516v6.461C377.638,61.195,379.006,60.795,380.504,60.794L380.504,60.794z M383.384,69.412
		c0-2.116-1.536-3.695-3.626-3.695c-2.09,0-3.626,1.579-3.626,3.695c0,2.098,1.536,3.677,3.626,3.677
		C381.835,73.089,383.384,71.51,383.384,69.412z"/>
	<path d="M409.045,69.247c0,0.488-0.042,0.976-0.115,1.477h-12.029c0.365,1.858,1.545,2.819,3.307,2.819
		c1.304,0,2.393-0.571,2.929-1.519h5.553c-1.14,3.697-4.417,6.007-8.481,6.007c-5.055,0-8.799-3.694-8.799-8.643
		c0-4.966,3.714-8.618,8.799-8.618C405.43,60.77,409.045,64.495,409.045,69.247L409.045,69.247z M397,67.634h6.549
		c-0.49-1.619-1.657-2.493-3.34-2.493C398.582,65.142,397.451,66.025,397,67.634z"/>
	<path d="M422.912,61.223v5.106h-2.167c-1.975,0-2.803,0.866-2.803,2.933V77.5h-5.58V61.3h3.738l0.871,1.798
		c1.143-1.322,2.534-1.875,4.462-1.875H422.912z"/>
	<path d="M431.993,78.03c-4.416,0-7.099-2.332-7.15-5.842h5.371c0,1.185,0.825,1.73,1.883,1.73c0.816,0,1.59-0.417,1.59-1.253
		c0-0.935-1.226-1.201-2.783-1.458c-2.512-0.407-5.841-1.165-5.841-5.094c0-3.247,2.767-5.344,6.917-5.344
		c4.125,0,6.799,2.194,6.862,5.477h-5.225c0-1.034-0.695-1.515-1.707-1.515c-0.895,0-1.495,0.443-1.495,1.193
		c0,0.922,1.239,1.137,2.778,1.411c2.559,0.455,5.961,0.986,5.961,5.094C439.155,75.815,436.297,78.03,431.993,78.03L431.993,78.03z
		"/>
	<path d="M458.556,67.745V77.5h-5.58v-9.107c0-1.868-0.656-2.821-2.112-2.821c-1.688,0-2.741,1.198-2.741,3.277v8.65h-5.58V55.45
		h5.58v6.916c1.193-0.961,2.71-1.545,4.324-1.545C456.166,60.821,458.556,63.545,458.556,67.745z"/>
	<path d="M462.672,61.3h5.58v16.199h-5.58V61.3z M462.715,54.538h5.494v4.735h-5.494V54.538z"/>
	<path d="M490.502,69.4c0,5.047-3.541,8.647-8.495,8.647c-1.465,0-2.806-0.385-3.949-1.076v6.377h-5.516V61.3h3.794l0.699,1.287
		c1.333-1.152,3.047-1.818,4.972-1.818C486.961,60.769,490.502,64.353,490.502,69.4z M484.887,69.399
		c0-2.128-1.536-3.707-3.626-3.707s-3.626,1.579-3.626,3.707c0,2.128,1.537,3.708,3.626,3.708
		C483.338,73.107,484.887,71.528,484.887,69.399z"/>
	<path d="M500.092,78.03c-4.416,0-7.099-2.332-7.15-5.842h5.371c0,1.185,0.825,1.73,1.883,1.73c0.816,0,1.59-0.417,1.59-1.253
		c0-0.935-1.226-1.201-2.783-1.458c-2.512-0.407-5.841-1.165-5.841-5.094c0-3.247,2.767-5.344,6.917-5.344
		c4.125,0,6.799,2.194,6.862,5.477h-5.225c0-1.034-0.695-1.515-1.707-1.515c-0.895,0-1.495,0.443-1.495,1.193
		c0,0.922,1.239,1.137,2.778,1.411c2.559,0.455,5.961,0.986,5.961,5.094C507.253,75.815,504.396,78.03,500.092,78.03L500.092,78.03z
		"/>
	<path d="M516.814,61.3h5.58v16.199h-5.58V61.3z M516.857,54.538h5.494v4.735h-5.494V54.538z"/>
	<path d="M542.697,67.622V77.5h-5.58v-9.107c0-1.885-0.708-2.821-2.112-2.821c-1.74,0-2.741,1.215-2.741,3.277v8.65h-5.58V61.3
		h3.915l0.766,1.67c1.207-1.344,3.005-2.149,5.1-2.149C540.227,60.821,542.697,63.495,542.697,67.622z"/>
	<path d="M563.429,72.612V77.5h-3.839c-3.583,0-5.76-2.19-5.76-5.79v-6.113h-2.965v-1.304l7.258-7.729h1.146V61.3h4.07v4.297h-3.929
		v5.155c0,1.16,0.7,1.86,1.877,1.86H563.429z"/>
	<path d="M582.827,67.745V77.5h-5.58v-9.107c0-1.868-0.656-2.821-2.112-2.821c-1.688,0-2.741,1.198-2.741,3.277v8.65h-5.58V55.45
		h5.58v6.916c1.193-0.961,2.71-1.545,4.324-1.545C580.437,60.821,582.827,63.545,582.827,67.745z"/>
	<path d="M603.635,69.247c0,0.488-0.042,0.976-0.115,1.477h-12.029c0.365,1.858,1.545,2.819,3.307,2.819
		c1.304,0,2.393-0.571,2.929-1.519h5.553c-1.14,3.697-4.417,6.007-8.481,6.007c-5.054,0-8.799-3.694-8.799-8.643
		c0-4.966,3.714-8.618,8.799-8.618C600.02,60.77,603.635,64.495,603.635,69.247L603.635,69.247z M591.59,67.634h6.549
		c-0.49-1.619-1.657-2.493-3.341-2.493C593.172,65.142,592.041,66.025,591.59,67.634z"/>
	<path d="M637.224,61.3L632.063,77.5h-4.497l-3.205-7.256l-3.135,7.256h-4.497L611.44,61.3h5.844l2.453,8.506l3.83-8.454h1.506
		l4.038,8.532l2.416-8.583H637.224z"/>
	<path d="M638.493,69.4c0-5.021,3.801-8.63,9.082-8.63c5.265,0,9.083,3.609,9.083,8.63c0,5.004-3.818,8.63-9.083,8.63
		C642.294,78.03,638.493,74.404,638.493,69.4z M651.069,69.4c0-2.129-1.459-3.618-3.494-3.618c-2.034,0-3.494,1.476-3.494,3.618
		s1.459,3.618,3.494,3.618C649.61,73.018,651.069,71.542,651.069,69.4z"/>
	<path d="M670.565,61.223v5.106h-2.167c-1.975,0-2.803,0.866-2.803,2.933V77.5h-5.58V61.3h3.738l0.871,1.798
		c1.143-1.322,2.534-1.875,4.462-1.875H670.565z"/>
	<path d="M673.456,55.45h5.58V77.5h-5.58V55.45z"/>
	<path d="M700.436,55.45V77.5h-4.129l-0.526-1.203c-1.318,1.109-2.999,1.751-4.886,1.751c-4.971,0-8.511-3.613-8.511-8.647
		c0-5.035,3.541-8.631,8.511-8.631c1.496,0,2.864,0.404,4.025,1.125V55.45H700.436z M695.267,69.4c0-2.115-1.536-3.707-3.626-3.707
		c-2.09,0-3.626,1.592-3.626,3.707s1.536,3.707,3.626,3.707C693.73,73.107,695.267,71.515,695.267,69.4z"/>
	<path d="M704.552,56.44h4.723v8.1h-4.723V56.44z"/>
	<path d="M719.666,78.03c-4.416,0-7.099-2.332-7.15-5.842h5.371c0,1.185,0.825,1.73,1.883,1.73c0.816,0,1.59-0.417,1.59-1.253
		c0-0.935-1.226-1.201-2.783-1.458c-2.512-0.407-5.841-1.165-5.841-5.094c0-3.247,2.767-5.344,6.917-5.344
		c4.125,0,6.799,2.194,6.862,5.477h-5.225c0-1.034-0.695-1.515-1.707-1.515c-0.895,0-1.495,0.443-1.495,1.193
		c0,0.922,1.239,1.137,2.778,1.411c2.559,0.455,5.961,0.986,5.961,5.094C726.828,75.815,723.97,78.03,719.666,78.03L719.666,78.03z"
		/>
	<path d="M736.389,55.45h5.58V77.5h-5.58V55.45z"/>
	<path d="M763.501,61.283v16.199h-4.313l-0.478-1.146c-1.327,1.074-3.007,1.693-4.888,1.693c-4.954,0-8.494-3.613-8.494-8.648
		c0-5.017,3.541-8.587,8.494-8.587c1.908,0,3.612,0.637,4.95,1.741l0.571-1.253L763.501,61.283z M758.194,69.396
		c0-2.103-1.536-3.682-3.626-3.682c-2.103,0-3.626,1.579-3.626,3.682c0,2.115,1.537,3.694,3.626,3.694
		S758.194,71.511,758.194,69.396z"/>
	<path d="M778.347,61.223v5.106h-2.167c-1.975,0-2.803,0.866-2.803,2.933V77.5h-5.58V61.3h3.738l0.871,1.798
		c1.143-1.322,2.534-1.875,4.462-1.875H778.347z"/>
	<path d="M797.782,61.3V75.7c0,5.091-3.333,8.245-8.683,8.245c-4.597,0-7.815-2.318-8.561-6.157h5.385
		c0.386,1.083,1.769,1.666,3.125,1.666c1.87,0,3.372-1.188,3.372-3.114v-0.483c-1.217,0.772-2.664,1.216-4.227,1.216
		c-4.645,0-8.095-3.455-8.095-8.142c0-4.619,3.451-8.147,8.095-8.147c1.961,0,3.736,0.703,5.109,1.877l0.708-1.359H797.782z
		 M792.564,68.929c0-2.046-1.438-3.531-3.446-3.531c-2.003,0-3.458,1.484-3.458,3.531c0,2.063,1.437,3.548,3.458,3.548
		C791.123,72.478,792.564,70.993,792.564,68.929z"/>
	<path d="M818.78,69.247c0,0.488-0.042,0.976-0.115,1.477h-12.029c0.365,1.858,1.545,2.819,3.307,2.819
		c1.304,0,2.393-0.571,2.929-1.519h5.553c-1.14,3.697-4.417,6.007-8.481,6.007c-5.054,0-8.799-3.694-8.799-8.643
		c0-4.966,3.714-8.618,8.799-8.618C815.165,60.77,818.78,64.495,818.78,69.247L818.78,69.247z M806.734,67.634h6.549
		c-0.49-1.619-1.657-2.493-3.341-2.493C808.316,65.142,807.186,66.025,806.734,67.634z"/>
	<path d="M828.348,78.03c-4.416,0-7.099-2.332-7.15-5.842h5.371c0,1.185,0.825,1.73,1.883,1.73c0.816,0,1.59-0.417,1.59-1.253
		c0-0.935-1.226-1.201-2.783-1.458c-2.512-0.407-5.841-1.165-5.841-5.094c0-3.247,2.767-5.344,6.917-5.344
		c4.125,0,6.799,2.194,6.862,5.477h-5.225c0-1.034-0.695-1.515-1.707-1.515c-0.895,0-1.495,0.443-1.495,1.193
		c0,0.922,1.239,1.137,2.778,1.411c2.559,0.455,5.961,0.986,5.961,5.094C835.51,75.815,832.652,78.03,828.348,78.03L828.348,78.03z"
		/>
	<path d="M849.673,72.612V77.5h-3.839c-3.583,0-5.76-2.19-5.76-5.79v-6.113h-2.965v-1.304l7.258-7.729h1.146V61.3h4.07v4.297h-3.929
		v5.155c0,1.16,0.7,1.86,1.877,1.86H849.673z"/>
	<path d="M875.922,69.247c0,0.488-0.042,0.976-0.115,1.477h-12.029c0.365,1.858,1.545,2.819,3.307,2.819
		c1.304,0,2.393-0.571,2.929-1.519h5.553c-1.14,3.697-4.417,6.007-8.481,6.007c-5.054,0-8.799-3.694-8.799-8.643
		c0-4.966,3.714-8.618,8.799-8.618C872.307,60.77,875.922,64.495,875.922,69.247L875.922,69.247z M863.877,67.634h6.549
		c-0.49-1.619-1.657-2.493-3.341-2.493C865.459,65.142,864.328,66.025,863.877,67.634z"/>
	<path d="M888.056,77.5l-2.663-4.799l-2.716,4.799h-6.162l5.373-8.404l-4.979-7.795h6.159l2.34,4.08l2.448-4.08h6.073l-5.02,7.649
		l5.383,8.55H888.056z"/>
	<path d="M903.875,78.03c-5.195,0-8.945-3.64-8.945-8.652c0-5.012,3.732-8.583,8.962-8.583c4.552,0,7.967,2.87,8.577,7.179h-5.435
		c-0.47-1.322-1.705-2.179-3.16-2.179c-1.96,0-3.356,1.49-3.356,3.601s1.413,3.635,3.356,3.635c1.498,0,2.71-0.917,3.171-2.363
		h5.482C911.897,75.066,908.437,78.03,903.875,78.03L903.875,78.03z"/>
	<path d="M931.733,67.745V77.5h-5.58v-9.107c0-1.868-0.656-2.821-2.112-2.821c-1.688,0-2.741,1.198-2.741,3.277v8.65h-5.58V55.45
		h5.58v6.916c1.192-0.961,2.71-1.545,4.324-1.545C929.343,60.821,931.733,63.545,931.733,67.745z"/>
	<path d="M953.092,61.283v16.199h-4.313l-0.478-1.146c-1.327,1.074-3.007,1.693-4.889,1.693c-4.953,0-8.494-3.613-8.494-8.648
		c0-5.017,3.541-8.587,8.494-8.587c1.908,0,3.612,0.637,4.95,1.741l0.571-1.253L953.092,61.283z M947.785,69.396
		c0-2.103-1.536-3.682-3.627-3.682c-2.103,0-3.626,1.579-3.626,3.682c0,2.115,1.536,3.694,3.626,3.694
		C946.249,73.09,947.785,71.511,947.785,69.396z"/>
	<path d="M973.402,67.622V77.5h-5.58v-9.107c0-1.885-0.708-2.821-2.112-2.821c-1.74,0-2.741,1.215-2.741,3.277v8.65h-5.58V61.3
		h3.915l0.767,1.67c1.206-1.344,3.004-2.149,5.1-2.149C970.932,60.821,973.402,63.495,973.402,67.622z"/>
	<path d="M994.271,61.3V75.7c0,5.091-3.332,8.245-8.683,8.245c-4.598,0-7.815-2.318-8.561-6.157h5.384
		c0.387,1.083,1.77,1.666,3.125,1.666c1.869,0,3.372-1.188,3.372-3.114v-0.483c-1.218,0.772-2.663,1.216-4.227,1.216
		c-4.645,0-8.096-3.455-8.096-8.142c0-4.619,3.451-8.147,8.096-8.147c1.96,0,3.736,0.703,5.109,1.877l0.707-1.359H994.271z
		 M989.054,68.929c0-2.046-1.437-3.531-3.445-3.531c-2.003,0-3.458,1.484-3.458,3.531c0,2.063,1.438,3.548,3.458,3.548
		C987.612,72.478,989.054,70.993,989.054,68.929z"/>
	<path d="M1015.271,69.247c0,0.488-0.043,0.976-0.115,1.477h-12.028c0.364,1.858,1.545,2.819,3.307,2.819
		c1.304,0,2.393-0.571,2.929-1.519h5.553c-1.14,3.697-4.417,6.007-8.481,6.007c-5.055,0-8.799-3.694-8.799-8.643
		c0-4.966,3.715-8.618,8.799-8.618C1011.655,60.77,1015.271,64.495,1015.271,69.247L1015.271,69.247z M1003.225,67.634h6.549
		c-0.489-1.619-1.656-2.493-3.34-2.493C1004.807,65.142,1003.677,66.025,1003.225,67.634z"/>
	<path d="M1024.838,78.03c-4.415,0-7.099-2.332-7.149-5.842h5.371c0,1.185,0.824,1.73,1.883,1.73c0.815,0,1.59-0.417,1.59-1.253
		c0-0.935-1.227-1.201-2.783-1.458c-2.512-0.407-5.842-1.165-5.842-5.094c0-3.247,2.768-5.344,6.918-5.344
		c4.125,0,6.799,2.194,6.862,5.477h-5.226c0-1.034-0.695-1.515-1.706-1.515c-0.895,0-1.495,0.443-1.495,1.193
		c0,0.922,1.238,1.137,2.777,1.411c2.56,0.455,5.962,0.986,5.962,5.094C1032,75.815,1029.143,78.03,1024.838,78.03L1024.838,78.03z"
		/>
	<path d="M1058.803,61.283v16.199h-4.313l-0.478-1.146c-1.327,1.074-3.007,1.693-4.889,1.693c-4.953,0-8.494-3.613-8.494-8.648
		c0-5.017,3.541-8.587,8.494-8.587c1.908,0,3.612,0.637,4.95,1.741l0.571-1.253L1058.803,61.283z M1053.496,69.396
		c0-2.103-1.536-3.682-3.627-3.682c-2.103,0-3.626,1.579-3.626,3.682c0,2.115,1.536,3.694,3.626,3.694
		C1051.96,73.09,1053.496,71.511,1053.496,69.396z"/>
	<path d="M1063.1,55.45h5.58V77.5h-5.58V55.45z"/>
	<path d="M1072.97,55.45h5.58V77.5h-5.58V55.45z"/>
	<path d="M1081.896,69.4c0-5.021,3.801-8.63,9.083-8.63c5.264,0,9.082,3.609,9.082,8.63c0,5.004-3.818,8.63-9.082,8.63
		C1085.696,78.03,1081.896,74.404,1081.896,69.4z M1094.472,69.4c0-2.129-1.459-3.618-3.493-3.618c-2.035,0-3.494,1.476-3.494,3.618
		s1.459,3.618,3.494,3.618C1093.013,73.018,1094.472,71.542,1094.472,69.4z"/>
	<path d="M1127.038,61.3l-5.161,16.199h-4.497l-3.205-7.256l-3.135,7.256h-4.497l-5.288-16.199h5.843l2.453,8.506l3.829-8.454h1.507
		l4.038,8.532l2.415-8.583H1127.038z"/>
	<path d="M1134.959,69.4c0-5.021,3.801-8.63,9.083-8.63c5.264,0,9.082,3.609,9.082,8.63c0,5.004-3.818,8.63-9.082,8.63
		C1138.76,78.03,1134.959,74.404,1134.959,69.4z M1147.535,69.4c0-2.129-1.459-3.618-3.493-3.618c-2.035,0-3.494,1.476-3.494,3.618
		s1.459,3.618,3.494,3.618C1146.076,73.018,1147.535,71.542,1147.535,69.4z"/>
	<path d="M1156.271,70.545V61.3h5.58v9.002c0,1.709,0.919,2.715,2.41,2.715c1.49,0,2.393-1.023,2.393-2.715V61.3h5.579v9.245
		c0,4.533-3.187,7.485-7.972,7.485S1156.271,75.078,1156.271,70.545z"/>
	<path d="M1186.86,61.223v5.106h-2.166c-1.976,0-2.803,0.866-2.803,2.933V77.5h-5.58V61.3h3.738l0.871,1.798
		c1.142-1.322,2.533-1.875,4.462-1.875H1186.86z"/>
	<path d="M1203.25,78.03c-5.194,0-8.944-3.64-8.944-8.652c0-5.012,3.732-8.583,8.962-8.583c4.553,0,7.967,2.87,8.577,7.179h-5.436
		c-0.469-1.322-1.704-2.179-3.159-2.179c-1.961,0-3.356,1.49-3.356,3.601s1.413,3.635,3.356,3.635c1.497,0,2.711-0.917,3.172-2.363
		h5.482C1211.273,75.066,1207.812,78.03,1203.25,78.03L1203.25,78.03z"/>
	<path d="M1215.093,55.45h5.58V77.5h-5.58V55.45z"/>
	<path d="M1224.964,61.3h5.579v16.199h-5.579V61.3z M1225.006,54.538h5.494v4.735h-5.494V54.538z"/>
	<path d="M1251.525,69.247c0,0.488-0.043,0.976-0.115,1.477h-12.028c0.364,1.858,1.545,2.819,3.307,2.819
		c1.304,0,2.393-0.571,2.929-1.519h5.553c-1.14,3.697-4.417,6.007-8.481,6.007c-5.055,0-8.799-3.694-8.799-8.643
		c0-4.966,3.715-8.618,8.799-8.618C1247.91,60.77,1251.525,64.495,1251.525,69.247L1251.525,69.247z M1239.479,67.634h6.549
		c-0.489-1.619-1.656-2.493-3.34-2.493C1241.062,65.142,1239.932,66.025,1239.479,67.634z"/>
	<path d="M1270.856,67.622V77.5h-5.58v-9.107c0-1.885-0.708-2.821-2.112-2.821c-1.74,0-2.741,1.215-2.741,3.277v8.65h-5.58V61.3
		h3.915l0.767,1.67c1.206-1.344,3.005-2.149,5.1-2.149C1268.386,60.821,1270.856,63.495,1270.856,67.622z"/>
	<path d="M1285.778,72.612V77.5h-3.84c-3.582,0-5.76-2.19-5.76-5.79v-6.113h-2.965v-1.304l7.258-7.729h1.146V61.3h4.069v4.297
		h-3.929v5.155c0,1.16,0.7,1.86,1.878,1.86H1285.778z"/>
	<path d="M1295.412,78.03c-4.415,0-7.099-2.332-7.149-5.842h5.371c0,1.185,0.824,1.73,1.883,1.73c0.815,0,1.59-0.417,1.59-1.253
		c0-0.935-1.227-1.201-2.783-1.458c-2.512-0.407-5.842-1.165-5.842-5.094c0-3.247,2.768-5.344,6.918-5.344
		c4.125,0,6.799,2.194,6.862,5.477h-5.226c0-1.034-0.695-1.515-1.706-1.515c-0.895,0-1.495,0.443-1.495,1.193
		c0,0.922,1.238,1.137,2.777,1.411c2.56,0.455,5.962,0.986,5.962,5.094C1302.574,75.815,1299.717,78.03,1295.412,78.03
		L1295.412,78.03z"/>
	<path d="M1322.577,72.612V77.5h-3.84c-3.582,0-5.76-2.19-5.76-5.79v-6.113h-2.965v-1.304l7.258-7.729h1.146V61.3h4.069v4.297
		h-3.929v5.155c0,1.16,0.7,1.86,1.878,1.86H1322.577z"/>
	<path d="M1324.867,69.4c0-5.021,3.801-8.63,9.083-8.63c5.264,0,9.082,3.609,9.082,8.63c0,5.004-3.818,8.63-9.082,8.63
		C1328.668,78.03,1324.867,74.404,1324.867,69.4z M1337.443,69.4c0-2.129-1.459-3.618-3.493-3.618c-2.035,0-3.494,1.476-3.494,3.618
		s1.459,3.618,3.494,3.618C1335.984,73.018,1337.443,71.542,1337.443,69.4z"/>
	<path d="M1363.006,72.612V77.5h-3.84c-3.582,0-5.76-2.19-5.76-5.79v-6.113h-2.965v-1.304l7.258-7.729h1.146V61.3h4.069v4.297
		h-3.929v5.155c0,1.16,0.7,1.86,1.877,1.86H1363.006z"/>
	<path d="M1376.938,61.223v5.106h-2.166c-1.976,0-2.803,0.866-2.803,2.933V77.5h-5.58V61.3h3.738l0.871,1.798
		c1.142-1.322,2.533-1.875,4.462-1.875H1376.938z"/>
	<path d="M1396.804,61.283v16.199h-4.313l-0.478-1.146c-1.327,1.074-3.007,1.693-4.889,1.693c-4.953,0-8.494-3.613-8.494-8.648
		c0-5.017,3.541-8.587,8.494-8.587c1.908,0,3.612,0.637,4.95,1.741l0.571-1.253L1396.804,61.283z M1391.497,69.396
		c0-2.103-1.536-3.682-3.627-3.682c-2.103,0-3.626,1.579-3.626,3.682c0,2.115,1.536,3.694,3.626,3.694
		C1389.961,73.09,1391.497,71.511,1391.497,69.396z"/>
	<path d="M1418.21,55.45V77.5h-4.129l-0.525-1.203c-1.318,1.109-3,1.751-4.887,1.751c-4.971,0-8.512-3.613-8.512-8.647
		c0-5.035,3.541-8.631,8.512-8.631c1.496,0,2.864,0.404,4.025,1.125V55.45H1418.21z M1413.042,69.4c0-2.115-1.536-3.707-3.627-3.707
		c-2.09,0-3.626,1.592-3.626,3.707s1.536,3.707,3.626,3.707C1411.506,73.107,1413.042,71.515,1413.042,69.4z"/>
	<path d="M1439.183,69.247c0,0.488-0.043,0.976-0.115,1.477h-12.028c0.364,1.858,1.545,2.819,3.307,2.819
		c1.304,0,2.393-0.571,2.929-1.519h5.553c-1.14,3.697-4.417,6.007-8.481,6.007c-5.055,0-8.799-3.694-8.799-8.643
		c0-4.966,3.715-8.618,8.799-8.618C1435.567,60.77,1439.183,64.495,1439.183,69.247L1439.183,69.247z M1427.137,67.634h6.549
		c-0.489-1.619-1.656-2.493-3.34-2.493C1428.719,65.142,1427.589,66.025,1427.137,67.634z"/>
	<path d="M1465.916,61.283v16.199h-4.313l-0.478-1.146c-1.327,1.074-3.007,1.693-4.889,1.693c-4.953,0-8.494-3.613-8.494-8.648
		c0-5.017,3.541-8.587,8.494-8.587c1.908,0,3.612,0.637,4.95,1.741l0.571-1.253L1465.916,61.283z M1460.609,69.396
		c0-2.103-1.536-3.682-3.627-3.682c-2.103,0-3.626,1.579-3.626,3.682c0,2.115,1.536,3.694,3.626,3.694
		C1459.073,73.09,1460.609,71.511,1460.609,69.396z"/>
	<path d="M1481.138,72.612V77.5h-3.84c-3.582,0-5.76-2.19-5.76-5.79v-6.113h-2.965v-1.304l7.258-7.729h1.146V61.3h4.069v4.297
		h-3.929v5.155c0,1.16,0.7,1.86,1.878,1.86H1481.138z"/>
	<path d="M1501.138,72.612V77.5h-3.84c-3.582,0-5.76-2.19-5.76-5.79v-6.113h-2.965v-1.304l7.258-7.729h1.146V61.3h4.069v4.297
		h-3.929v5.155c0,1.16,0.7,1.86,1.878,1.86H1501.138z"/>
	<path d="M1520.535,67.745V77.5h-5.58v-9.107c0-1.868-0.656-2.821-2.112-2.821c-1.688,0-2.741,1.198-2.741,3.277v8.65h-5.58V55.45
		h5.58v6.916c1.192-0.961,2.71-1.545,4.324-1.545C1518.145,60.821,1520.535,63.545,1520.535,67.745z"/>
	<path d="M1541.344,69.247c0,0.488-0.043,0.976-0.115,1.477H1529.2c0.364,1.858,1.545,2.819,3.307,2.819
		c1.304,0,2.393-0.571,2.929-1.519h5.553c-1.14,3.697-4.417,6.007-8.481,6.007c-5.055,0-8.799-3.694-8.799-8.643
		c0-4.966,3.715-8.618,8.799-8.618C1537.729,60.77,1541.344,64.495,1541.344,69.247L1541.344,69.247z M1529.298,67.634h6.549
		c-0.489-1.619-1.656-2.493-3.34-2.493C1530.88,65.142,1529.75,66.025,1529.298,67.634z"/>
	<path d="M1560.375,60.794c4.988,0,8.512,3.583,8.512,8.618c0,5.035-3.523,8.618-8.512,8.618c-1.891,0-3.57-0.634-4.887-1.733
		l-0.526,1.203h-4.129V55.45h5.517v6.461C1557.509,61.195,1558.877,60.795,1560.375,60.794L1560.375,60.794z M1563.255,69.412
		c0-2.116-1.536-3.695-3.626-3.695s-3.627,1.579-3.627,3.695c0,2.098,1.537,3.677,3.627,3.677
		C1561.706,73.089,1563.255,71.51,1563.255,69.412z"/>
	<path d="M1588.916,69.247c0,0.488-0.043,0.976-0.115,1.477h-12.028c0.364,1.858,1.545,2.819,3.307,2.819
		c1.304,0,2.393-0.571,2.929-1.519h5.553c-1.14,3.697-4.417,6.007-8.481,6.007c-5.055,0-8.799-3.694-8.799-8.643
		c0-4.966,3.715-8.618,8.799-8.618C1585.301,60.77,1588.916,64.495,1588.916,69.247L1588.916,69.247z M1576.87,67.634h6.549
		c-0.489-1.619-1.656-2.493-3.34-2.493C1578.452,65.142,1577.322,66.025,1576.87,67.634z"/>
	<path d="M1598.483,78.03c-4.415,0-7.099-2.332-7.149-5.842h5.371c0,1.185,0.824,1.73,1.883,1.73c0.815,0,1.59-0.417,1.59-1.253
		c0-0.935-1.227-1.201-2.783-1.458c-2.512-0.407-5.842-1.165-5.842-5.094c0-3.247,2.768-5.344,6.918-5.344
		c4.125,0,6.799,2.194,6.862,5.477h-5.226c0-1.034-0.695-1.515-1.706-1.515c-0.895,0-1.495,0.443-1.495,1.193
		c0,0.922,1.238,1.137,2.777,1.411c2.56,0.455,5.962,0.986,5.962,5.094C1605.646,75.815,1602.788,78.03,1598.483,78.03
		L1598.483,78.03z"/>
	<path d="M1619.808,72.612V77.5h-3.84c-3.582,0-5.76-2.19-5.76-5.79v-6.113h-2.965v-1.304l7.258-7.729h1.146V61.3h4.069v4.297
		h-3.929v5.155c0,1.16,0.7,1.86,1.878,1.86H1619.808z"/>
	<path d="M1647.324,69.4c0,5.047-3.541,8.647-8.494,8.647c-1.465,0-2.806-0.385-3.949-1.076v6.377h-5.517V61.3h3.795l0.699,1.287
		c1.332-1.152,3.047-1.818,4.972-1.818C1643.783,60.769,1647.324,64.353,1647.324,69.4z M1641.71,69.399
		c0-2.128-1.536-3.707-3.627-3.707c-2.09,0-3.626,1.579-3.626,3.707c0,2.128,1.536,3.708,3.626,3.708
		C1640.16,73.107,1641.71,71.528,1641.71,69.399z"/>
	<path d="M1661.212,61.223v5.106h-2.166c-1.976,0-2.803,0.866-2.803,2.933V77.5h-5.58V61.3h3.738l0.871,1.798
		c1.142-1.322,2.533-1.875,4.462-1.875H1661.212z"/>
	<path d="M1664.104,61.3h5.579v16.199h-5.579V61.3z M1664.146,54.538h5.494v4.735h-5.494V54.538z"/>
	<path d="M1681.988,78.03c-5.194,0-8.944-3.64-8.944-8.652c0-5.012,3.732-8.583,8.962-8.583c4.553,0,7.967,2.87,8.577,7.179h-5.436
		c-0.469-1.322-1.704-2.179-3.159-2.179c-1.961,0-3.356,1.49-3.356,3.601s1.413,3.635,3.356,3.635c1.497,0,2.711-0.917,3.172-2.363
		h5.482C1690.012,75.066,1686.55,78.03,1681.988,78.03L1681.988,78.03z"/>
	<path d="M1710.525,69.247c0,0.488-0.043,0.976-0.115,1.477h-12.028c0.364,1.858,1.545,2.819,3.307,2.819
		c1.304,0,2.393-0.571,2.929-1.519h5.553c-1.14,3.697-4.417,6.007-8.481,6.007c-5.055,0-8.799-3.694-8.799-8.643
		c0-4.966,3.715-8.618,8.799-8.618C1706.91,60.77,1710.525,64.495,1710.525,69.247L1710.525,69.247z M1698.479,67.634h6.549
		c-0.489-1.619-1.656-2.493-3.34-2.493C1700.062,65.142,1698.932,66.025,1698.479,67.634z"/>
	<path d="M1720.092,78.03c-4.415,0-7.099-2.332-7.149-5.842h5.371c0,1.185,0.824,1.73,1.883,1.73c0.815,0,1.59-0.417,1.59-1.253
		c0-0.935-1.227-1.201-2.783-1.458c-2.512-0.407-5.842-1.165-5.842-5.094c0-3.247,2.768-5.344,6.918-5.344
		c4.125,0,6.799,2.194,6.862,5.477h-5.226c0-1.034-0.695-1.515-1.706-1.515c-0.895,0-1.495,0.443-1.495,1.193
		c0,0.922,1.238,1.137,2.777,1.411c2.56,0.455,5.962,0.986,5.962,5.094C1727.254,75.815,1724.396,78.03,1720.092,78.03
		L1720.092,78.03z"/>
	<path d="M1730.436,72.316h5.413V77.5h-5.413V72.316z"/>
	<path d="M1781.373,56.5l-6.476,20.999h-5.092l-4.029-10.136l-3.951,10.136h-5.092l-6.574-20.999h6.212l3.406,12.103l5.003-12h2.002
		l5.092,12.009l3.339-12.112H1781.373z"/>
	<path d="M1799.217,69.247c0,0.488-0.043,0.976-0.115,1.477h-12.028c0.364,1.858,1.545,2.819,3.307,2.819
		c1.304,0,2.393-0.571,2.929-1.519h5.553c-1.14,3.697-4.417,6.007-8.481,6.007c-5.055,0-8.799-3.694-8.799-8.643
		c0-4.966,3.715-8.618,8.799-8.618C1795.602,60.77,1799.217,64.495,1799.217,69.247L1799.217,69.247z M1787.171,67.634h6.549
		c-0.489-1.619-1.656-2.493-3.34-2.493C1788.753,65.142,1787.623,66.025,1787.171,67.634z"/>
	<path d="M120.444,107.45h5.58V129.5h-5.58V107.45z"/>
	<path d="M129.37,121.4c0-5.021,3.801-8.63,9.083-8.63c5.265,0,9.083,3.609,9.083,8.63c0,5.004-3.818,8.63-9.083,8.63
		C133.171,130.03,129.37,126.404,129.37,121.4z M141.946,121.4c0-2.129-1.459-3.618-3.494-3.618c-2.034,0-3.494,1.476-3.494,3.618
		s1.459,3.618,3.494,3.618C140.487,125.018,141.946,123.542,141.946,121.4z"/>
	<path d="M149.95,121.4c0-5.021,3.801-8.63,9.083-8.63c5.265,0,9.083,3.609,9.083,8.63c0,5.004-3.818,8.63-9.083,8.63
		C153.751,130.03,149.95,126.404,149.95,121.4z M162.526,121.4c0-2.129-1.459-3.618-3.494-3.618c-2.034,0-3.494,1.476-3.494,3.618
		s1.459,3.618,3.494,3.618C161.067,125.018,162.526,123.542,162.526,121.4z"/>
	<path d="M181.353,129.5l-4.058-6.851v6.851h-5.58V107.45h5.58v12.196l3.859-6.346h6.265l-5.048,7.721l5.559,8.479H181.353z"/>
	<path d="M208.285,117.949h-3.633v11.55h-5.58v-11.55h-2.679l-0.013-4.383h2.76v-1.551c0-3.247,1.783-5.146,5.219-5.146h3.896v4.28
		h-2.465c-0.828,0-1.322,0.489-1.322,1.317v1.1h3.816V117.949z"/>
	<path d="M209.95,121.4c0-5.021,3.801-8.63,9.082-8.63c5.265,0,9.083,3.609,9.083,8.63c0,5.004-3.818,8.63-9.083,8.63
		C213.751,130.03,209.95,126.404,209.95,121.4z M222.526,121.4c0-2.129-1.459-3.618-3.494-3.618c-2.034,0-3.494,1.476-3.494,3.618
		s1.459,3.618,3.494,3.618C221.067,125.018,222.526,123.542,222.526,121.4z"/>
	<path d="M242.022,113.223v5.106h-2.167c-1.975,0-2.803,0.866-2.803,2.933v8.238h-5.58V113.3h3.738l0.871,1.798
		c1.143-1.322,2.534-1.875,4.462-1.875H242.022z"/>
	<path d="M269.102,113.3l-5.161,16.199h-4.497l-3.205-7.256l-3.135,7.256h-4.497l-5.289-16.199h5.844l2.453,8.506l3.83-8.454h1.506
		l4.038,8.532l2.416-8.583H269.102z"/>
	<path d="M288.556,113.283v16.199h-4.313l-0.478-1.146c-1.327,1.074-3.007,1.693-4.888,1.693c-4.954,0-8.494-3.613-8.494-8.648
		c0-5.017,3.541-8.587,8.494-8.587c1.908,0,3.612,0.637,4.95,1.741l0.571-1.253L288.556,113.283z M283.249,121.396
		c0-2.103-1.536-3.682-3.626-3.682c-2.103,0-3.626,1.579-3.626,3.682c0,2.115,1.537,3.694,3.626,3.694
		S283.249,123.511,283.249,121.396z"/>
	<path d="M303.401,113.223v5.106h-2.167c-1.975,0-2.803,0.866-2.803,2.933v8.238h-5.58V113.3h3.738l0.871,1.798
		c1.143-1.322,2.534-1.875,4.462-1.875H303.401z"/>
	<path d="M323.133,107.45V129.5h-4.129l-0.526-1.203c-1.318,1.109-2.999,1.751-4.886,1.751c-4.971,0-8.511-3.613-8.511-8.647
		c0-5.035,3.541-8.631,8.511-8.631c1.496,0,2.864,0.404,4.025,1.125v-6.444H323.133z M317.964,121.4
		c0-2.115-1.536-3.707-3.626-3.707c-2.09,0-3.626,1.592-3.626,3.707s1.536,3.707,3.626,3.707
		C316.428,125.107,317.964,123.515,317.964,121.4z"/>
	<path d="M345.058,124.612v4.887h-3.839c-3.583,0-5.76-2.19-5.76-5.79v-6.113h-2.965v-1.304l7.258-7.729h1.146v4.736h4.07v4.297
		h-3.929v5.155c0,1.16,0.7,1.86,1.877,1.86H345.058z"/>
	<path d="M347.35,121.4c0-5.021,3.801-8.63,9.082-8.63c5.265,0,9.083,3.609,9.083,8.63c0,5.004-3.818,8.63-9.083,8.63
		C351.15,130.03,347.35,126.404,347.35,121.4z M359.925,121.4c0-2.129-1.459-3.618-3.494-3.618c-2.034,0-3.494,1.476-3.494,3.618
		s1.459,3.618,3.494,3.618C358.466,125.018,359.925,123.542,359.925,121.4z"/>
	<path d="M394.122,121.4c0,5.047-3.541,8.647-8.495,8.647c-1.465,0-2.806-0.385-3.949-1.076v6.377h-5.516V113.3h3.794l0.699,1.287
		c1.333-1.152,3.047-1.818,4.972-1.818C390.581,112.769,394.122,116.353,394.122,121.4z M388.507,121.399
		c0-2.128-1.536-3.707-3.626-3.707s-3.626,1.579-3.626,3.707c0,2.128,1.537,3.708,3.626,3.708
		C386.958,125.107,388.507,123.528,388.507,121.399z"/>
	<path d="M408.011,113.223v5.106h-2.167c-1.975,0-2.803,0.866-2.803,2.933v8.238h-5.58V113.3h3.738l0.871,1.798
		c1.143-1.322,2.534-1.875,4.462-1.875H408.011z"/>
	<path d="M409.689,121.4c0-5.021,3.801-8.63,9.082-8.63c5.265,0,9.083,3.609,9.083,8.63c0,5.004-3.818,8.63-9.083,8.63
		C413.49,130.03,409.689,126.404,409.689,121.4z M422.265,121.4c0-2.129-1.459-3.618-3.494-3.618c-2.034,0-3.494,1.476-3.494,3.618
		s1.459,3.618,3.494,3.618C420.806,125.018,422.265,123.542,422.265,121.4z"/>
	<path d="M446.913,113.3L440.4,129.5h-5.054l-6.599-16.199h6.114l3.062,9.594l3.027-9.594H446.913z"/>
	<path d="M449.483,113.3h5.58v16.199h-5.58V113.3z M449.526,106.538h5.494v4.735h-5.494V106.538z"/>
	<path d="M476.462,107.45V129.5h-4.129l-0.526-1.203c-1.318,1.109-2.999,1.751-4.886,1.751c-4.971,0-8.511-3.613-8.511-8.647
		c0-5.035,3.541-8.631,8.511-8.631c1.496,0,2.864,0.404,4.025,1.125v-6.444H476.462z M471.293,121.4
		c0-2.115-1.536-3.707-3.626-3.707c-2.09,0-3.626,1.592-3.626,3.707s1.536,3.707,3.626,3.707
		C469.757,125.107,471.293,123.515,471.293,121.4z"/>
	<path d="M480.743,113.3h5.58v16.199h-5.58V113.3z M480.786,106.538h5.494v4.735h-5.494V106.538z"/>
	<path d="M506.625,119.622v9.878h-5.58v-9.107c0-1.885-0.708-2.821-2.112-2.821c-1.74,0-2.741,1.215-2.741,3.277v8.65h-5.58V113.3
		h3.915l0.766,1.67c1.207-1.344,3.005-2.149,5.1-2.149C504.154,112.821,506.625,115.495,506.625,119.622z"/>
	<path d="M527.496,113.3V127.7c0,5.091-3.333,8.245-8.683,8.245c-4.597,0-7.815-2.318-8.561-6.157h5.385
		c0.386,1.083,1.769,1.666,3.125,1.666c1.87,0,3.372-1.188,3.372-3.114v-0.483c-1.217,0.772-2.664,1.216-4.227,1.216
		c-4.645,0-8.095-3.455-8.095-8.142c0-4.619,3.451-8.147,8.095-8.147c1.961,0,3.736,0.703,5.109,1.877l0.708-1.359H527.496z
		 M522.278,120.929c0-2.046-1.438-3.531-3.446-3.531c-2.003,0-3.458,1.484-3.458,3.531c0,2.063,1.437,3.548,3.458,3.548
		C520.836,124.478,522.278,122.993,522.278,120.929z"/>
	<path d="M555.668,113.3l-6.79,15.479c-2.184,4.958-4.191,6.749-8.374,6.749h-1.911v-4.794h1.534c2.135,0,2.779-0.556,3.535-2.572
		l-6.694-14.861h6.063l3.438,8.924l3.204-8.924H555.668z"/>
	<path d="M556.389,121.4c0-5.021,3.801-8.63,9.082-8.63c5.265,0,9.083,3.609,9.083,8.63c0,5.004-3.818,8.63-9.083,8.63
		C560.189,130.03,556.389,126.404,556.389,121.4z M568.964,121.4c0-2.129-1.459-3.618-3.494-3.618c-2.034,0-3.494,1.476-3.494,3.618
		s1.459,3.618,3.494,3.618C567.505,125.018,568.964,123.542,568.964,121.4z"/>
	<path d="M577.702,122.545V113.3h5.58v9.002c0,1.709,0.919,2.715,2.41,2.715c1.491,0,2.393-1.023,2.393-2.715V113.3h5.58v9.245
		c0,4.533-3.187,7.485-7.972,7.485C580.906,130.03,577.702,127.078,577.702,122.545z"/>
	<path d="M629.129,113.3l-5.161,16.199h-4.497l-3.205-7.256l-3.135,7.256h-4.497l-5.289-16.199h5.844l2.453,8.506l3.83-8.454h1.506
		l4.038,8.532l2.416-8.583H629.129z"/>
	<path d="M631.821,113.3h5.58v16.199h-5.58V113.3z M631.864,106.538h5.494v4.735h-5.494V106.538z"/>
	<path d="M652.616,124.612v4.887h-3.839c-3.583,0-5.76-2.19-5.76-5.79v-6.113h-2.965v-1.304l7.258-7.729h1.146v4.736h4.07v4.297
		h-3.929v5.155c0,1.16,0.7,1.86,1.877,1.86H652.616z"/>
	<path d="M672.014,119.745v9.755h-5.58v-9.107c0-1.868-0.656-2.821-2.112-2.821c-1.688,0-2.741,1.198-2.741,3.277v8.65h-5.58V107.45
		h5.58v6.916c1.193-0.961,2.71-1.545,4.324-1.545C669.624,112.821,672.014,115.545,672.014,119.745z"/>
	<path d="M682.477,121.4c0-5.021,3.801-8.63,9.082-8.63c5.265,0,9.083,3.609,9.083,8.63c0,5.004-3.818,8.63-9.083,8.63
		C686.277,130.03,682.477,126.404,682.477,121.4z M695.052,121.4c0-2.129-1.459-3.618-3.494-3.618c-2.034,0-3.494,1.476-3.494,3.618
		s1.459,3.618,3.494,3.618C693.593,125.018,695.052,123.542,695.052,121.4z"/>
	<path d="M703.79,122.545V113.3h5.58v9.002c0,1.709,0.919,2.715,2.41,2.715c1.491,0,2.393-1.023,2.393-2.715V113.3h5.58v9.245
		c0,4.533-3.187,7.485-7.972,7.485C706.994,130.03,703.79,127.078,703.79,122.545z"/>
	<path d="M734.378,113.223v5.106h-2.167c-1.975,0-2.803,0.866-2.803,2.933v8.238h-5.58V113.3h3.738l0.871,1.798
		c1.143-1.322,2.534-1.875,4.462-1.875H734.378z"/>
	<path d="M761.112,113.283v16.199h-4.313l-0.478-1.146c-1.327,1.074-3.007,1.693-4.888,1.693c-4.954,0-8.494-3.613-8.494-8.648
		c0-5.017,3.541-8.587,8.494-8.587c1.908,0,3.612,0.637,4.95,1.741l0.571-1.253L761.112,113.283z M755.805,121.396
		c0-2.103-1.536-3.682-3.626-3.682c-2.103,0-3.626,1.579-3.626,3.682c0,2.115,1.537,3.694,3.626,3.694
		S755.805,123.511,755.805,121.396z"/>
	<path d="M789.507,113.3l-5.161,16.199h-4.497l-3.205-7.256l-3.135,7.256h-4.497l-5.289-16.199h5.844l2.453,8.506l3.83-8.454h1.506
		l4.038,8.532l2.416-8.583H789.507z"/>
	<path d="M808.962,113.283v16.199h-4.313l-0.478-1.146c-1.327,1.074-3.007,1.693-4.888,1.693c-4.954,0-8.494-3.613-8.494-8.648
		c0-5.017,3.541-8.587,8.494-8.587c1.908,0,3.612,0.637,4.95,1.741l0.571-1.253L808.962,113.283z M803.655,121.396
		c0-2.103-1.536-3.682-3.626-3.682c-2.103,0-3.626,1.579-3.626,3.682c0,2.115,1.537,3.694,3.626,3.694
		S803.655,123.511,803.655,121.396z"/>
	<path d="M823.808,113.223v5.106h-2.167c-1.975,0-2.803,0.866-2.803,2.933v8.238h-5.58V113.3h3.738l0.871,1.798
		c1.143-1.322,2.534-1.875,4.462-1.875H823.808z"/>
	<path d="M843.539,107.45V129.5h-4.129l-0.526-1.203c-1.318,1.109-2.999,1.751-4.886,1.751c-4.971,0-8.512-3.613-8.512-8.647
		c0-5.035,3.541-8.631,8.512-8.631c1.496,0,2.864,0.404,4.025,1.125v-6.444H843.539z M838.37,121.4c0-2.115-1.536-3.707-3.626-3.707
		c-2.09,0-3.626,1.592-3.626,3.707s1.536,3.707,3.626,3.707C836.833,125.107,838.37,123.515,838.37,121.4z"/>
	<path d="M879.207,113.3l-5.161,16.199h-4.497l-3.205-7.256l-3.135,7.256h-4.497l-5.289-16.199h5.844l2.453,8.506l3.83-8.454h1.506
		l4.038,8.532l2.416-8.583H879.207z"/>
	<path d="M881.898,113.3h5.58v16.199h-5.58V113.3z M881.941,106.538h5.494v4.735h-5.494V106.538z"/>
	<path d="M907.781,119.622v9.878h-5.58v-9.107c0-1.885-0.708-2.821-2.112-2.821c-1.74,0-2.741,1.215-2.741,3.277v8.65h-5.58V113.3
		h3.915l0.766,1.67c1.207-1.344,3.005-2.149,5.1-2.149C905.311,112.821,907.781,115.495,907.781,119.622z"/>
	<path d="M927.911,119.622v9.878h-5.58v-9.107c0-1.885-0.708-2.821-2.112-2.821c-1.74,0-2.741,1.215-2.741,3.277v8.65h-5.58V113.3
		h3.915l0.767,1.67c1.206-1.344,3.005-2.149,5.1-2.149C925.44,112.821,927.911,115.495,927.911,119.622z"/>
	<path d="M932.028,113.3h5.579v16.199h-5.579V113.3z M932.07,106.538h5.494v4.735h-5.494V106.538z"/>
	<path d="M957.91,119.622v9.878h-5.58v-9.107c0-1.885-0.708-2.821-2.112-2.821c-1.74,0-2.741,1.215-2.741,3.277v8.65h-5.58V113.3
		h3.915l0.767,1.67c1.206-1.344,3.004-2.149,5.1-2.149C955.439,112.821,957.91,115.495,957.91,119.622z"/>
	<path d="M978.78,113.3V127.7c0,5.091-3.332,8.245-8.683,8.245c-4.598,0-7.815-2.318-8.561-6.157h5.384
		c0.387,1.083,1.77,1.666,3.125,1.666c1.869,0,3.372-1.188,3.372-3.114v-0.483c-1.218,0.772-2.663,1.216-4.227,1.216
		c-4.645,0-8.096-3.455-8.096-8.142c0-4.619,3.451-8.147,8.096-8.147c1.96,0,3.736,0.703,5.109,1.877l0.707-1.359H978.78z
		 M973.563,120.929c0-2.046-1.437-3.531-3.445-3.531c-2.004,0-3.458,1.484-3.458,3.531c0,2.063,1.438,3.548,3.458,3.548
		C972.121,124.478,973.563,122.993,973.563,120.929z"/>
	<path d="M1008.336,121.4c0,5.047-3.541,8.647-8.494,8.647c-1.465,0-2.806-0.385-3.949-1.076v6.377h-5.517V113.3h3.795l0.699,1.287
		c1.332-1.152,3.047-1.818,4.972-1.818C1004.795,112.769,1008.336,116.353,1008.336,121.4z M1002.722,121.399
		c0-2.128-1.536-3.707-3.627-3.707c-2.09,0-3.626,1.579-3.626,3.707c0,2.128,1.536,3.708,3.626,3.708
		C1001.172,125.107,1002.722,123.528,1002.722,121.399z"/>
	<path d="M1011.676,107.45h5.58V129.5h-5.58V107.45z"/>
	<path d="M1038.789,113.283v16.199h-4.313l-0.478-1.146c-1.327,1.074-3.007,1.693-4.889,1.693c-4.953,0-8.494-3.613-8.494-8.648
		c0-5.017,3.541-8.587,8.494-8.587c1.908,0,3.612,0.637,4.95,1.741l0.571-1.253L1038.789,113.283z M1033.482,121.396
		c0-2.103-1.536-3.682-3.627-3.682c-2.103,0-3.626,1.579-3.626,3.682c0,2.115,1.536,3.694,3.626,3.694
		C1031.946,125.09,1033.482,123.511,1033.482,121.396z"/>
	<path d="M1054.011,124.612v4.887h-3.84c-3.582,0-5.76-2.19-5.76-5.79v-6.113h-2.965v-1.304l7.258-7.729h1.146v4.736h4.069v4.297
		h-3.929v5.155c0,1.16,0.7,1.86,1.878,1.86H1054.011z"/>
	<path d="M1068.227,117.949h-3.633v11.55h-5.579v-11.55h-2.68l-0.013-4.383h2.761v-1.551c0-3.247,1.782-5.146,5.218-5.146h3.896
		v4.28h-2.464c-0.828,0-1.322,0.489-1.322,1.317v1.1h3.816V117.949z"/>
	<path d="M1069.892,121.4c0-5.021,3.801-8.63,9.083-8.63c5.264,0,9.082,3.609,9.082,8.63c0,5.004-3.818,8.63-9.082,8.63
		C1073.692,130.03,1069.892,126.404,1069.892,121.4z M1082.468,121.4c0-2.129-1.459-3.618-3.493-3.618
		c-2.035,0-3.494,1.476-3.494,3.618s1.459,3.618,3.494,3.618C1081.009,125.018,1082.468,123.542,1082.468,121.4z"/>
	<path d="M1101.963,113.223v5.106h-2.166c-1.976,0-2.803,0.866-2.803,2.933v8.238h-5.58V113.3h3.738l0.871,1.798
		c1.142-1.322,2.533-1.875,4.462-1.875H1101.963z"/>
	<path d="M1129.705,119.339v10.16h-5.58v-9.47c0-1.692-0.623-2.508-1.809-2.508c-1.533,0-2.319,1.056-2.319,3.096v8.882h-5.435
		v-9.47c0-1.641-0.618-2.508-1.786-2.508c-1.513,0-2.342,1.082-2.342,3.096v8.882h-5.58V113.3h3.924l0.794,1.74
		c1.171-1.364,2.87-2.219,4.735-2.219c1.976,0,3.638,0.887,4.646,2.385c1.164-1.465,2.957-2.385,4.975-2.385
		C1127.398,112.821,1129.705,115.524,1129.705,119.339z"/>
	<path d="M1133.826,131.982c1.612-0.142,2.379-1.202,2.379-2.483h-2.606v-5.184h5.447v4.743c0,3.264-2.12,5.409-5.22,5.687V131.982z
		"/>
	<path d="M1156.674,130.03c-4.415,0-7.099-2.332-7.149-5.842h5.371c0,1.185,0.824,1.73,1.883,1.73c0.815,0,1.59-0.417,1.59-1.253
		c0-0.935-1.227-1.201-2.783-1.458c-2.512-0.407-5.842-1.165-5.842-5.094c0-3.247,2.768-5.344,6.918-5.344
		c4.125,0,6.799,2.194,6.862,5.477h-5.226c0-1.034-0.695-1.515-1.706-1.515c-0.895,0-1.495,0.443-1.495,1.193
		c0,0.922,1.238,1.137,2.777,1.411c2.56,0.455,5.962,0.986,5.962,5.094C1163.836,127.815,1160.979,130.03,1156.674,130.03
		L1156.674,130.03z"/>
	<path d="M1183.916,121.247c0,0.488-0.043,0.976-0.115,1.477h-12.028c0.364,1.858,1.545,2.819,3.307,2.819
		c1.304,0,2.393-0.571,2.929-1.519h5.553c-1.14,3.697-4.417,6.007-8.481,6.007c-5.055,0-8.799-3.694-8.799-8.643
		c0-4.966,3.715-8.618,8.799-8.618C1180.301,112.77,1183.916,116.495,1183.916,121.247L1183.916,121.247z M1171.87,119.634h6.549
		c-0.489-1.619-1.656-2.493-3.34-2.493C1173.452,117.142,1172.322,118.025,1171.87,119.634z"/>
	<path d="M1197.782,113.223v5.106h-2.166c-1.976,0-2.803,0.866-2.803,2.933v8.238h-5.58V113.3h3.738l0.871,1.798
		c1.142-1.322,2.533-1.875,4.462-1.875H1197.782z"/>
	<path d="M1217.215,113.3l-6.513,16.199h-5.055l-6.599-16.199h6.113l3.062,9.594l3.027-9.594H1217.215z"/>
	<path d="M1219.784,113.3h5.579v16.199h-5.579V113.3z M1219.826,106.538h5.494v4.735h-5.494V106.538z"/>
	<path d="M1237.668,130.03c-5.194,0-8.944-3.64-8.944-8.652c0-5.012,3.732-8.583,8.962-8.583c4.553,0,7.967,2.87,8.577,7.179h-5.436
		c-0.469-1.322-1.704-2.179-3.159-2.179c-1.961,0-3.356,1.49-3.356,3.601s1.413,3.635,3.356,3.635c1.497,0,2.711-0.917,3.172-2.363
		h5.482C1245.691,127.066,1242.229,130.03,1237.668,130.03L1237.668,130.03z"/>
	<path d="M1266.206,121.247c0,0.488-0.043,0.976-0.115,1.477h-12.028c0.364,1.858,1.545,2.819,3.307,2.819
		c1.304,0,2.393-0.571,2.929-1.519h5.553c-1.14,3.697-4.417,6.007-8.481,6.007c-5.055,0-8.799-3.694-8.799-8.643
		c0-4.966,3.715-8.618,8.799-8.618C1262.591,112.77,1266.206,116.495,1266.206,121.247L1266.206,121.247z M1254.16,119.634h6.549
		c-0.489-1.619-1.656-2.493-3.34-2.493C1255.742,117.142,1254.612,118.025,1254.16,119.634z"/>
	<path d="M1275.772,130.03c-4.415,0-7.099-2.332-7.149-5.842h5.371c0,1.185,0.824,1.73,1.883,1.73c0.815,0,1.59-0.417,1.59-1.253
		c0-0.935-1.227-1.201-2.783-1.458c-2.512-0.407-5.842-1.165-5.842-5.094c0-3.247,2.768-5.344,6.918-5.344
		c4.125,0,6.799,2.194,6.862,5.477h-5.226c0-1.034-0.695-1.515-1.706-1.515c-0.895,0-1.495,0.443-1.495,1.193
		c0,0.922,1.238,1.137,2.777,1.411c2.56,0.455,5.962,0.986,5.962,5.094C1282.935,127.815,1280.077,130.03,1275.772,130.03
		L1275.772,130.03z"/>
	<path d="M1310.855,113.283v16.199h-4.313l-0.478-1.146c-1.327,1.074-3.007,1.693-4.889,1.693c-4.953,0-8.494-3.613-8.494-8.648
		c0-5.017,3.541-8.587,8.494-8.587c1.908,0,3.612,0.637,4.95,1.741l0.571-1.253L1310.855,113.283z M1305.549,121.396
		c0-2.103-1.536-3.682-3.627-3.682c-2.103,0-3.626,1.579-3.626,3.682c0,2.115,1.536,3.694,3.626,3.694
		C1304.013,125.09,1305.549,123.511,1305.549,121.396z"/>
	<path d="M1331.166,119.622v9.878h-5.58v-9.107c0-1.885-0.708-2.821-2.112-2.821c-1.74,0-2.741,1.215-2.741,3.277v8.65h-5.58V113.3
		h3.915l0.767,1.67c1.206-1.344,3.004-2.149,5.1-2.149C1328.695,112.821,1331.166,115.495,1331.166,119.622z"/>
	<path d="M1352.391,107.45V129.5h-4.129l-0.525-1.203c-1.318,1.109-3,1.751-4.887,1.751c-4.971,0-8.512-3.613-8.512-8.647
		c0-5.035,3.541-8.631,8.512-8.631c1.496,0,2.864,0.404,4.025,1.125v-6.444H1352.391z M1347.223,121.4
		c0-2.115-1.536-3.707-3.627-3.707c-2.09,0-3.626,1.592-3.626,3.707s1.536,3.707,3.626,3.707
		C1345.687,125.107,1347.223,123.515,1347.223,121.4z"/>
	<path d="M1381.922,121.4c0,5.047-3.541,8.647-8.494,8.647c-1.465,0-2.806-0.385-3.949-1.076v6.377h-5.517V113.3h3.795l0.699,1.287
		c1.332-1.152,3.047-1.818,4.972-1.818C1378.381,112.769,1381.922,116.353,1381.922,121.4z M1376.308,121.399
		c0-2.128-1.536-3.707-3.627-3.707c-2.09,0-3.626,1.579-3.626,3.707c0,2.128,1.536,3.708,3.626,3.708
		C1374.758,125.107,1376.308,123.528,1376.308,121.399z"/>
	<path d="M1395.81,113.223v5.106h-2.166c-1.976,0-2.803,0.866-2.803,2.933v8.238h-5.58V113.3h3.738l0.871,1.798
		c1.142-1.322,2.533-1.875,4.462-1.875H1395.81z"/>
	<path d="M1415.124,121.247c0,0.488-0.043,0.976-0.115,1.477h-12.028c0.364,1.858,1.545,2.819,3.307,2.819
		c1.304,0,2.393-0.571,2.929-1.519h5.553c-1.14,3.697-4.417,6.007-8.481,6.007c-5.055,0-8.799-3.694-8.799-8.643
		c0-4.966,3.715-8.618,8.799-8.618C1411.509,112.77,1415.124,116.495,1415.124,121.247L1415.124,121.247z M1403.078,119.634h6.549
		c-0.489-1.619-1.656-2.493-3.34-2.493C1404.66,117.142,1403.53,118.025,1403.078,119.634z"/>
	<path d="M1443.292,119.339v10.16h-5.58v-9.47c0-1.692-0.623-2.508-1.809-2.508c-1.533,0-2.319,1.056-2.319,3.096v8.882h-5.435
		v-9.47c0-1.641-0.618-2.508-1.786-2.508c-1.513,0-2.342,1.082-2.342,3.096v8.882h-5.58V113.3h3.924l0.794,1.74
		c1.171-1.364,2.87-2.219,4.735-2.219c1.976,0,3.638,0.887,4.646,2.385c1.164-1.465,2.957-2.385,4.975-2.385
		C1440.985,112.821,1443.292,115.524,1443.292,119.339z"/>
	<path d="M1447.393,113.3h5.579v16.199h-5.579V113.3z M1447.435,106.538h5.494v4.735h-5.494V106.538z"/>
	<path d="M1457.051,122.545V113.3h5.58v9.002c0,1.709,0.919,2.715,2.41,2.715c1.49,0,2.393-1.023,2.393-2.715V113.3h5.579v9.245
		c0,4.533-3.187,7.485-7.972,7.485S1457.051,127.078,1457.051,122.545z"/>
	<path d="M1501.941,119.339v10.16h-5.58v-9.47c0-1.692-0.623-2.508-1.809-2.508c-1.533,0-2.319,1.056-2.319,3.096v8.882h-5.435
		v-9.47c0-1.641-0.618-2.508-1.786-2.508c-1.513,0-2.342,1.082-2.342,3.096v8.882h-5.58V113.3h3.924l0.794,1.74
		c1.171-1.364,2.87-2.219,4.735-2.219c1.976,0,3.638,0.887,4.646,2.385c1.164-1.465,2.957-2.385,4.975-2.385
		C1499.635,112.821,1501.941,115.524,1501.941,119.339z"/>
	<path d="M1530.022,121.247c0,0.488-0.043,0.976-0.115,1.477h-12.028c0.364,1.858,1.545,2.819,3.307,2.819
		c1.304,0,2.393-0.571,2.929-1.519h5.553c-1.14,3.697-4.417,6.007-8.481,6.007c-5.055,0-8.799-3.694-8.799-8.643
		c0-4.966,3.715-8.618,8.799-8.618C1526.407,112.77,1530.022,116.495,1530.022,121.247L1530.022,121.247z M1517.977,119.634h6.549
		c-0.489-1.619-1.656-2.493-3.34-2.493C1519.559,117.142,1518.429,118.025,1517.977,119.634z"/>
	<path d="M1542.156,129.5l-2.663-4.799l-2.717,4.799h-6.162l5.373-8.404l-4.979-7.795h6.158l2.341,4.08l2.447-4.08h6.072
		l-5.02,7.649l5.384,8.55H1542.156z"/>
	<path d="M1566.652,121.247c0,0.488-0.043,0.976-0.115,1.477h-12.028c0.364,1.858,1.545,2.819,3.307,2.819
		c1.304,0,2.393-0.571,2.929-1.519h5.553c-1.14,3.697-4.417,6.007-8.481,6.007c-5.055,0-8.799-3.694-8.799-8.643
		c0-4.966,3.715-8.618,8.799-8.618C1563.037,112.77,1566.652,116.495,1566.652,121.247L1566.652,121.247z M1554.606,119.634h6.549
		c-0.489-1.619-1.656-2.493-3.34-2.493C1556.188,117.142,1555.059,118.025,1554.606,119.634z"/>
	<path d="M1577.984,130.03c-5.194,0-8.944-3.64-8.944-8.652c0-5.012,3.732-8.583,8.962-8.583c4.553,0,7.967,2.87,8.577,7.179h-5.436
		c-0.469-1.322-1.704-2.179-3.159-2.179c-1.961,0-3.356,1.49-3.356,3.601s1.413,3.635,3.356,3.635c1.497,0,2.711-0.917,3.172-2.363
		h5.482C1586.008,127.066,1582.546,130.03,1577.984,130.03L1577.984,130.03z"/>
	<path d="M1589.618,122.545V113.3h5.58v9.002c0,1.709,0.919,2.715,2.41,2.715c1.49,0,2.393-1.023,2.393-2.715V113.3h5.579v9.245
		c0,4.533-3.187,7.485-7.972,7.485S1589.618,127.078,1589.618,122.545z"/>
	<path d="M1620.584,124.612v4.887h-3.84c-3.582,0-5.76-2.19-5.76-5.79v-6.113h-2.965v-1.304l7.258-7.729h1.146v4.736h4.069v4.297
		h-3.929v5.155c0,1.16,0.7,1.86,1.877,1.86H1620.584z"/>
	<path d="M1623.969,113.3h5.579v16.199h-5.579V113.3z M1624.011,106.538h5.494v4.735h-5.494V106.538z"/>
	<path d="M1632.894,121.4c0-5.021,3.801-8.63,9.083-8.63c5.264,0,9.082,3.609,9.082,8.63c0,5.004-3.818,8.63-9.082,8.63
		C1636.694,130.03,1632.894,126.404,1632.894,121.4z M1645.47,121.4c0-2.129-1.459-3.618-3.493-3.618
		c-2.035,0-3.494,1.476-3.494,3.618s1.459,3.618,3.494,3.618C1644.011,125.018,1645.47,123.542,1645.47,121.4z"/>
	<path d="M1670.431,119.622v9.878h-5.58v-9.107c0-1.885-0.708-2.821-2.112-2.821c-1.74,0-2.741,1.215-2.741,3.277v8.65h-5.58V113.3
		h3.915l0.767,1.67c1.206-1.344,3.005-2.149,5.1-2.149C1667.96,112.821,1670.431,115.495,1670.431,119.622z"/>
	<path d="M1674.341,124.316h5.413v5.184h-5.413V124.316z"/>
</g>
</svg>